<?xml version="1.0" encoding="UTF-8"?><svg id="Figma_Icons" xmlns="http://www.w3.org/2000/svg" viewBox="0 0 24 24"><defs><style>.cls-1{fill:#707575;stroke-width:0px;}</style></defs><path id="cc-bell-diagonal-bold" class="cls-1" d="m4.3,16.12l4.36,4.36c-1.71.7-3.67-.13-4.36-1.84-.33-.81-.33-1.72,0-2.53Zm3.98-12.07c.43-.09.71-.51.62-.94-.09-.43-.51-.71-.94-.62-2.13.37-4.03,1.54-5.33,3.27-.25.36-.16.85.2,1.1.34.24.82.17,1.07-.16,1.06-1.42,2.62-2.37,4.37-2.66h0Zm12.59,11.14c-.43-.09-.85.18-.94.6-.3,1.71-1.24,3.25-2.63,4.29-.35.26-.43.76-.17,1.11.26.35.76.43,1.11.17h0c1.7-1.28,2.86-3.14,3.24-5.23.09-.43-.18-.85-.6-.95,0,0,0,0,0,0h0Zm-2.41-8.55l1.22-1.22c.32-.3.32-.81.02-1.12-.3-.32-.81-.32-1.12-.02,0,0-.01.01-.02.02l-1.22,1.22c-2.25-1.78-5.38-1.94-7.79-.4l-4.36,2.7c-1.87,1.16-2.45,3.61-1.3,5.49.16.26.35.5.57.72l5.52,5.52c1.56,1.56,4.08,1.56,5.64,0,.22-.22.42-.47.58-.74l2.86-4.66c1.34-2.39,1.11-5.36-.59-7.52h0Z"/></svg>