<?xml version="1.0" encoding="UTF-8"?><svg id="Figma_Icons" xmlns="http://www.w3.org/2000/svg" viewBox="0 0 24 24"><defs><style>.cls-1{fill:#707575;stroke-width:0px;}</style></defs><g id="cc-duplicate-file-bold"><path class="cls-1" d="m20.57,8.86c-.43-.54-.98-.96-1.6-1.24-.39-.17-.79.14-.79.57v4.28c0,1.51-.6,2.96-1.67,4.03-1.07,1.07-2.52,1.67-4.03,1.67h-4.28c-.43,0-.74.4-.57.79.28.62.7,1.17,1.24,1.6.76.6,1.7.93,2.66.93h5.7c1.13,0,2.22-.45,3.02-1.25.8-.8,1.25-1.89,1.25-3.02v-5.7c0-.97-.33-1.91-.93-2.66Z"/><path class="cls-1" d="m4.2,7.49h3.05c.31,0,.6-.14.82-.36.22-.22.34-.52.34-.83v-2.72c0-.44-.43-.76-.82-.56-.43.23-.83.52-1.17.87l-2.53,2.53c-.05.05-.1.1-.15.16-.34.37-.03.91.47.91Z"/><path class="cls-1" d="m15.5,15.5c.8-.8,1.25-1.89,1.25-3.02v-5.7c0-1.13-.45-2.22-1.25-3.02s-1.89-1.25-3.02-1.25h-1.66c-.25,0-.49.1-.67.28-.18.18-.28.42-.28.67v2.85c0,.69-.28,1.36-.77,1.85s-1.15.77-1.85.77h-3.8c-.25,0-.49.1-.67.28s-.28.42-.28.67v2.61c0,1.13.45,2.22,1.25,3.02s1.89,1.25,3.02,1.25h5.7c1.13,0,2.22-.45,3.02-1.25Z"/></g></svg>