<?xml version="1.0" encoding="UTF-8"?><svg id="b" xmlns="http://www.w3.org/2000/svg" viewBox="0 0 18.36 20"><g id="c"><g id="d"><path d="m15.57,1.74c-.41,0-.75.36-.75.8v12.97s-.76-.83-.76-.83c-.29-.31-.76-.31-1.05,0h0c-.29.31-.29.82,0,1.14l2.04,2.2c.29.31.76.31,1.05,0l2.04-2.2c.29-.32.29-.83,0-1.14h0c-.29-.32-.76-.32-1.05,0l-.75.81V2.54c0-.44-.34-.8-.75-.8h0Z" fill="#444" stroke-width="0"/><path d="m4.42,20c-.77,0-1.53-.2-2.21-.6C.1,18.16-.63,15.42.59,13.29c.31-.54.73-1.01,1.22-1.38V2.64C1.81,1.18,2.98,0,4.43,0s2.62,1.18,2.62,2.64v9.26c1.8,1.33,2.37,3.86,1.22,5.85-.58,1.04-1.56,1.79-2.71,2.09-.38.1-.76.15-1.15.15h0ZM4.42,1.6c-.56,0-1.02.47-1.02,1.04v10.15l-.4.23c-.43.25-.79.62-1.04,1.05-.79,1.38-.33,3.13,1.04,3.94,1.34.78,3.06.33,3.84-1.01,0-.01.02-.03.03-.04.79-1.38.32-3.14-1.04-3.94l-.4-.23V2.64c0-.57-.46-1.04-1.02-1.04h.01Z" fill="#444" stroke-width="0"/></g></g></svg>