<?xml version="1.0" encoding="UTF-8"?><svg id="e" xmlns="http://www.w3.org/2000/svg" viewBox="0 0 24 24"><path d="m21.25,11.97H2.75c-.41,0-.75.34-.75.75s.34.75.75.75h.46c.03.52.08,1.03.15,1.47,0,.02,0,.03,0,.05.56,3.29,2.31,5,5.66,5.56.04,0,.08,0,.12,0,.36,0,.68-.26.74-.63.07-.41-.21-.79-.62-.86-2.74-.45-3.99-1.68-4.43-4.37,0-.02,0-.03,0-.05-.06-.36-.1-.76-.13-1.17h14.58c-.03.43-.07.85-.13,1.22,0,.02,0,.03,0,.05-.45,2.66-1.7,3.88-4.43,4.33-.41.07-.69.45-.62.86.06.37.38.63.74.63.04,0,.08,0,.12,0,3.37-.56,5.12-2.29,5.67-5.61,0-.02,0-.03,0-.04.07-.44.12-.92.15-1.42h.46c.41,0,.75-.34.75-.75s-.34-.75-.75-.75Z" fill="#444" stroke-width="0"/><path d="m3.98,9.93s.08.01.12.01c.36,0,.68-.26.74-.63.45-2.7,1.69-3.93,4.43-4.37.41-.07.69-.45.62-.86-.07-.41-.45-.69-.86-.62-3.37.55-5.12,2.28-5.67,5.61-.07.41.21.79.62.86Z" fill="#444" stroke-width="0"/><path d="m14.73,4.94c2.74.44,3.98,1.67,4.43,4.37.06.37.38.63.74.63.04,0,.08,0,.12-.01.41-.07.68-.45.62-.86-.55-3.33-2.3-5.06-5.67-5.61-.41-.07-.79.21-.86.62-.07.41.21.79.62.86Z" fill="#444" stroke-width="0"/></svg>