<?xml version="1.0" encoding="UTF-8"?><svg id="e" xmlns="http://www.w3.org/2000/svg" viewBox="0 0 24 24"><path d="m19.87,4.31c-.22-.09-5.28-2.31-7.87-2.31s-7.65,2.22-7.94,2.35c-.33.19-1.94,1.43-1.94,7.23,0,7.21,6.84,9.67,9.78,10.4.06.01.12.02.18.02s.12-.01.18-.02c2.26-.56,9.62-2.95,9.62-10.4,0-5.8-1.61-7.04-2.01-7.27Zm-11.19,9.02s-.11-.01-.16-.04c-.14-.09-.19-.28-.1-.43.28-.44.43-.95.43-1.47,0-.67.19-1.32.56-1.87.09-.14.29-.18.43-.09.14.1.18.29.08.43-.3.45-.46.98-.46,1.53,0,.64-.17,1.26-.52,1.8-.05.09-.15.14-.26.14Zm2.31,2.26c-.06.07-.15.11-.23.11-.07,0-.14-.03-.2-.08-.13-.11-.15-.3-.04-.43.91-1.06,1.41-2.41,1.41-3.8,0-.17.14-.31.31-.31s.3.14.3.31c.01,1.54-.54,3.03-1.55,4.2Zm3.07-3.53c-.02.17-.17.29-.34.28-.17-.02-.29-.17-.28-.34.02-.2.03-.41.03-.61,0-.68-.55-1.23-1.23-1.23s-1.24.55-1.24,1.23c.01,1.22-.45,2.4-1.27,3.31-.06.06-.15.1-.23.1-.07,0-.15-.03-.21-.08-.12-.12-.13-.31-.02-.44.72-.79,1.12-1.82,1.12-2.89s.83-1.85,1.85-1.85,1.84.83,1.84,1.85c0,.22-.01.45-.02.67Zm.9,2.84c-.05.12-.17.19-.29.19-.04,0-.07-.01-.11-.02-.16-.06-.24-.24-.17-.4.41-1.05.62-2.15.62-3.28,0-.55-.16-1.08-.46-1.53-.84-1.28-2.57-1.63-3.84-.79-.14.1-.34.06-.43-.08-.09-.14-.05-.34.09-.43,1.56-1.03,3.66-.6,4.69.96.37.55.56,1.2.56,1.87,0,1.21-.22,2.39-.66,3.51Z" fill="#444" stroke-width="0"/></svg>