<?xml version="1.0" encoding="UTF-8"?><svg id="b" xmlns="http://www.w3.org/2000/svg" viewBox="0 0 16.19 20"><g id="c"><path d="m13.23,0H2.95C1.33,0,0,1.33,0,2.97v14.06c0,1.64,1.33,2.97,2.95,2.97h10.28c1.63,0,2.95-1.33,2.95-2.97V2.97c0-1.64-1.33-2.97-2.95-2.97Zm1.45,17.03c0,.81-.65,1.47-1.45,1.47H2.95c-.8,0-1.45-.66-1.45-1.47V2.97c0-.81.65-1.47,1.45-1.47h10.28c.8,0,1.45.66,1.45,1.47v14.06Z" fill="#444" stroke-width="0"/><path d="m4.49,6.99h2.75c.41,0,.75-.34.75-.75s-.34-.75-.75-.75h-2.75c-.41,0-.75.34-.75.75s.34.75.75.75Z" fill="#444" stroke-width="0"/><path d="m11.7,9.25h-7.22c-.41,0-.75.34-.75.75s.34.75.75.75h7.22c.41,0,.75-.34.75-.75s-.34-.75-.75-.75Z" fill="#444" stroke-width="0"/><path d="m11.7,13.01h-7.22c-.41,0-.75.34-.75.75s.34.75.75.75h7.22c.41,0,.75-.34.75-.75s-.34-.75-.75-.75Z" fill="#444" stroke-width="0"/></g></svg>