<?xml version="1.0" encoding="UTF-8"?><svg id="b" xmlns="http://www.w3.org/2000/svg" viewBox="0 0 24 24"><path d="m20.02,11.65l-.84-.34v-3.01c0-1.94-1.57-3.52-3.51-3.52h-.63v-1.1c0-.92-.75-1.68-1.67-1.68h-2.76c-.92,0-1.67.75-1.67,1.68v1.1h-.63c-1.93,0-3.51,1.58-3.51,3.52v3.01l-.84.34c-1.14.46-1.83,1.77-1.56,2.97l.38,1.72c.76,3.44,3.51,5.66,7.02,5.66h4.38c3.51,0,6.26-2.22,7.02-5.66l.38-1.72c.26-1.21-.42-2.51-1.56-2.97ZM10.45,3.68c0-.1.08-.18.17-.18h2.76c.09,0,.17.08.17.18v1.1h-3.1v-1.1Zm-4.14,4.62c0-1.12.9-2.02,2.01-2.02h7.35c1.11,0,2.01.91,2.01,2.02v2.4l-4.04-1.63c-.39-.15-.79-.23-1.19-.27-.15-.02-.3-.04-.46-.04,0,0,0,0,0,0-.56,0-1.12.11-1.65.32l-4.04,1.63v-2.4Zm-2.06,7.72l-.38-1.72c-.11-.49.2-1.08.66-1.26l3.84-1.55,2.52-1.02c.11-.04.23-.07.34-.1v10.13h-1.44c-2.82,0-4.95-1.72-5.55-4.48Zm15.86-1.72l-.38,1.72c-.61,2.76-2.74,4.48-5.55,4.48h-1.44v-10.13c.11.03.23.05.34.1l2.68,1.08,3.69,1.49c.46.19.77.78.66,1.26Z" fill="#444" stroke-width="0"/></svg>