<?xml version="1.0" encoding="UTF-8"?><svg id="b" xmlns="http://www.w3.org/2000/svg" viewBox="0 0 18.74 7.35"><g id="c"><path id="d" d="m3.37.06c-.1.04-.19.1-.27.18L.25,3.09c-.08.07-.14.16-.18.26-.09.21-.09.44,0,.64.04.1.1.19.18.27l2.85,2.85c.11.11.26.19.42.23.16.03.33.01.48-.05s.28-.17.37-.31c.09-.13.14-.29.14-.45v-1.89c0-.08.06-.14.14-.14h13.28c.22,0,.43-.09.58-.25.31-.3.31-.85,0-1.16-.15-.15-.36-.24-.58-.24H4.65c-.08,0-.14-.06-.14-.14V.82c0-.16-.05-.32-.14-.46-.09-.14-.22-.24-.37-.31-.1-.03-.21-.05-.31-.05-.12,0-.22.02-.32.06Z" fill="#444" stroke-width="0"/></g></svg>