<?xml version="1.0" encoding="UTF-8"?><svg id="c" xmlns="http://www.w3.org/2000/svg" viewBox="0 0 24 24"><path d="m13.38,2c.92,0,1.47,0,2.02.09.92.18,1.83.55,2.57,1.1.46.28.83.73,1.47,1.38.64.64,1.01,1.01,1.38,1.47.55.73.92,1.65,1.1,2.57.09.55.09,1.1.09,2.02v1.74c0,1.56,0,2.75-.09,3.67s-.28,1.74-.64,2.48c-.55,1.19-1.56,2.11-2.75,2.75-.73.37-1.47.55-2.48.64-.92.09-2.11.09-3.67.09h-.73c-1.56,0-2.75,0-3.67-.09s-1.74-.28-2.48-.64c-1.19-.55-2.11-1.56-2.75-2.75-.37-.73-.55-1.47-.64-2.48-.09-.92-.09-2.11-.09-3.67v-.73c0-1.56,0-2.75.09-3.67s.28-1.74.64-2.48c.55-1.19,1.56-2.11,2.75-2.75.73-.37,1.47-.55,2.48-.64.92-.09,2.11-.09,3.67-.09,0,0,1.74,0,1.74,0Zm-2.11,11.56h-1.19c-.28,0-.37.09-.46.09-.18.09-.37.28-.46.46,0,.09-.09.18-.09.46v5.78h5.87v-5.78c0-.28-.09-.37-.09-.46-.09-.18-.28-.37-.46-.46-.09,0-.18-.09-.46-.09h-2.66Zm.37-10.09c-1.56,0-2.66,0-3.58.09s-1.47.18-1.93.46c-.92.46-1.65,1.19-2.11,2.11-.28.46-.37,1.1-.46,1.93-.09.92-.09,2.02-.09,3.58v.73c0,1.56,0,2.66.09,3.58s.18,1.47.46,1.93c.46.92,1.19,1.65,2.11,2.11.37.18.83.37,1.47.37v-5.78c0-.37.09-.64.28-1.01.28-.46.64-.83,1.1-1.1.28-.18.64-.18,1.01-.28h4.04c.37,0,.64.09,1.01.28.46.28.83.64,1.1,1.1.18.28.18.64.28,1.01v5.78c.64-.09,1.1-.18,1.47-.37.92-.46,1.65-1.19,2.11-2.11.28-.46.37-1.1.46-1.93.09-.92.09-2.02.09-3.58v-1.74c0-1.01,0-1.38-.09-1.74-.09-.73-.37-1.38-.83-2.02-.18-.28-.55-.64-1.19-1.28s-1.01-1.01-1.28-1.19c-.64-.46-1.28-.73-2.02-.83-.37-.09-.83-.09-1.74-.09,0,0-1.74,0-1.74,0Zm4.04,4.04c.37,0,.73.28.73.73s-.28.73-.73.73h-7.34c-.37,0-.73-.28-.73-.73s.28-.73.73-.73h7.34Z" fill="#444" fill-rule="evenodd" stroke-width="0"/></svg>