<svg xmlns="http://www.w3.org/2000/svg" viewBox="0 0 24 24"><path fill="#444" d="M21.62 9.25c-.41 0-.75.34-.75.75v4c0 .41.34.75.75.75s.75-.34.75-.75v-4c0-.41-.34-.75-.75-.75m-11.29-5.2c-4.86 0-7.48 0-8.51 3.23-.36 1.13-.53 2.66-.53 4.73s.17 3.62.54 4.75v.02c1.04 3.19 3.66 3.19 8.5 3.19 5.17 0 7.8 0 8.68-3.87.25-1.05.36-2.39.36-4.09s-.11-3.02-.35-4.07c-.88-3.89-3.51-3.89-8.69-3.89M6.15 9.9c-.06-.21-.11-.36-.14-.45-.03-.04-.04-.07-.04-.09A.8.8 0 0 1 5.88 9c0-.27.14-.52.39-.66.35-.2.81-.07 1.01.3s0 .03 0 .03c.01.01.03.03.04.05.01.04.05.1.07.17.06.15.13.36.2.64.14.55.28 1.36.28 2.47s-.14 1.92-.28 2.47c-.07.28-.14.49-.2.64-.02.07-.06.13-.07.17-.01.02-.03.04-.04.05v.03c-.2.37-.66.5-1.01.3a.763.763 0 0 1-.3-1.02c0-.02.01-.05.04-.09.03-.09.08-.24.14-.45.11-.42.23-1.11.23-2.1s-.12-1.68-.23-2.1m3.5 0c-.06-.21-.11-.36-.14-.45-.03-.04-.04-.07-.04-.09a.763.763 0 0 1 .3-1.02c.35-.2.81-.07 1.01.3s0 .03 0 .03c.01.01.03.03.04.05.01.04.05.1.07.17.06.15.13.36.2.64.14.55.28 1.36.28 2.47s-.14 1.92-.28 2.47c-.07.28-.14.49-.2.64-.02.07-.06.13-.07.17-.01.02-.03.04-.04.05v.03c-.2.37-.66.5-1.01.3a.75.75 0 0 1-.39-.66c0-.12.03-.25.09-.36 0-.02.01-.05.04-.09.03-.09.08-.24.14-.45.11-.42.23-1.11.23-2.1s-.12-1.68-.23-2.1m4.95 4.57c-.07.28-.14.49-.2.64-.02.07-.06.13-.07.17-.01.02-.03.04-.04.05v.03c-.2.37-.66.5-1.01.3a.763.763 0 0 1-.3-1.02c0-.02.01-.05.04-.09.03-.09.08-.24.14-.45.11-.42.23-1.11.23-2.1s-.12-1.68-.23-2.1c-.06-.21-.11-.36-.14-.45-.03-.04-.04-.07-.04-.09a.8.8 0 0 1-.09-.36c0-.27.14-.52.39-.66.35-.2.81-.07 1.01.3s0 .03 0 .03c.01.01.03.03.04.05.01.04.05.1.07.17.06.15.13.36.2.64.14.55.28 1.36.28 2.47s-.14 1.92-.28 2.47"/></svg>