<?xml version="1.0" encoding="UTF-8"?><svg id="b" xmlns="http://www.w3.org/2000/svg" viewBox="0 0 8.78 20"><g id="c"><g id="d"><path d="m4.38,20c-.76,0-1.52-.2-2.19-.6C.1,18.17-.62,15.45.58,13.33c.24-.43.55-.81.92-1.13.2-.18.32-.43.32-.7V2.6C1.82,1.17,2.97,0,4.39,0s2.57,1.17,2.57,2.6v8.9c0,.26.11.52.31.69,1.58,1.39,1.97,3.74.92,5.58-.59,1.04-1.54,1.78-2.68,2.08-.37.1-.75.15-1.13.15Zm0-18.5c-.59,0-1.07.49-1.07,1.1v8.9c0,.69-.3,1.36-.83,1.82-.24.21-.44.46-.6.75-.8,1.41-.33,3.22,1.06,4.04.66.39,1.44.49,2.18.3.75-.2,1.38-.69,1.77-1.37.7-1.23.44-2.79-.61-3.71-.52-.46-.82-1.12-.82-1.82V2.6c0-.61-.48-1.1-1.07-1.1Z" fill="#444" stroke-width="0"/></g></g></svg>