<?xml version="1.0" encoding="UTF-8"?><svg id="c" xmlns="http://www.w3.org/2000/svg" viewBox="0 0 24 24"><path d="m21,12.75c.41,0,.75-.34.75-.75s-.34-.75-.75-.75h-.66c-.04-.75-.15-1.45-.34-2.1,0,0,0,0,0,0h1c.41,0,.75-.34.75-.75s-.34-.75-.75-.75h-1.56c-.67-1.35-1.72-2.37-3.09-3.02h0v-1.63c0-.41-.34-.75-.75-.75s-.75.34-.75.75v1.08s-.03,0-.04,0c-.64-.17-1.33-.27-2.06-.31v-.76c0-.41-.34-.75-.75-.75s-.75.34-.75.75v.76c-.73.04-1.42.14-2.06.31-.01,0-.02.01-.03.01,0,0,0,0,0,0v-1.08c0-.41-.34-.75-.75-.75s-.75.34-.75.75v1.62c-1.38.65-2.43,1.68-3.1,3.03h-1.56c-.41,0-.75.34-.75.75s.34.75.75.75h1.01s0,0,0,0c-.2.65-.31,1.35-.35,2.1h-.66c-.41,0-.75.34-.75.75s.34.75.75.75h.66c.04.75.15,1.45.35,2.1h-1.01c-.41,0-.75.34-.75.75s.34.75.75.75h1.56s0,0,0,0c.67,1.35,1.72,2.38,3.1,3.03v1.62c0,.41.34.75.75.75s.75-.34.75-.75v-1.08s0,0,0,0c.01,0,.02.01.03.01.64.17,1.33.27,2.07.31v.76c0,.41.34.75.75.75s.75-.34.75-.75v-.76s0,0,0,0c.73-.04,1.42-.15,2.05-.31,0,0,.03,0,.04,0v1.08c0,.41.34.75.75.75s.75-.34.75-.75v-1.63h0c1.37-.65,2.42-1.67,3.09-3.02,0,0,0,0,0,0h1.56c.41,0,.75-.34.75-.75s-.34-.75-.75-.75h-1c.19-.65.3-1.35.34-2.1h.66Zm-3.75,0c-.04.45-.13.88-.26,1.27-.49,1.54-1.6,2.58-3.24,3-.53.13-1.12.2-1.75.2s-1.22-.07-1.75-.2c-1.64-.42-2.75-1.46-3.24-3.01-.13-.38-.22-.81-.26-1.26-.03-.24-.04-.49-.04-.75s0-.51.04-.75c.04-.45.13-.88.26-1.27.49-1.54,1.6-2.58,3.24-3,1.05-.27,2.45-.27,3.5,0,1.63.42,2.75,1.45,3.24,3,.13.39.22.82.26,1.27.03.24.04.49.04.75s0,.51-.04.75Z" fill="#707575" stroke-width="0"/><path d="m15.75,10.63c-.04-.12-.08-.24-.12-.36-.33-.91-.98-1.53-1.91-1.86l-.15-.05c-.15-.05-.3-.08-.46-.11-.33-.07-.7-.11-1.11-.11s-.78.04-1.11.11c-.16.03-.31.06-.46.11l-.15.05c-.93.33-1.58.95-1.91,1.86-.04.12-.08.24-.12.36v.02c-.11.41-.17.86-.17,1.35s.06.95.17,1.35v.02c.04.12.08.24.12.36.33.91.98,1.54,1.91,1.87h0s.14.04.14.04c.13.04.26.08.4.11.35.07.74.11,1.17.11s.82-.04,1.17-.11c.14-.03.27-.07.4-.11l.14-.05h0c.93-.32,1.57-.95,1.91-1.86.04-.12.08-.24.12-.36v-.02c.11-.4.17-.85.17-1.35s-.06-.94-.17-1.35v-.02Z" fill="#707575" stroke-width="0"/></svg>