<?xml version="1.0" encoding="UTF-8"?><svg id="b" xmlns="http://www.w3.org/2000/svg" viewBox="0 0 24 24"><path d="m8.99,20.5s-.03,0-.04,0c-.68-.02-1.26-.44-1.48-1.09l-2.04-6.11c-.07-.21-.27-.36-.5-.36h-2.15c-.41,0-.75-.34-.75-.75s.34-.75.75-.75h2.15c.87,0,1.65.56,1.92,1.38l2.04,6.11s.02.06.09.07c.08,0,.09-.04.09-.06l5.73-14.57c.22-.56.78-.91,1.38-.87.61.05,1.1.48,1.24,1.07l1.23,6.47c.05.23.27.4.53.4h2.04c.41,0,.75.34.75.75s-.34.75-.75.75h-2.04c-.97,0-1.79-.66-2-1.6l-1.15-6.02-5.57,14.16c-.24.62-.82,1.02-1.49,1.02Zm7.22-15.58h0s0,0,0,0Z" stroke-width="0"/></svg>