<svg xmlns="http://www.w3.org/2000/svg" viewBox="0 0 24 24"><path fill="#444" d="M14.35 15.43c-.06-.06-.16-.07-.24-.03-.61.38-1.34.6-2.11.6s-1.5-.22-2.11-.6a.185.185 0 0 0-.24.03l-4.3 4.3c-.09.09-.08.23.02.3C7.02 21.32 9.26 22 12 22s4.98-.68 6.63-1.97c.1-.07.1-.22.02-.3zM8 12c0-.78.23-1.5.6-2.11.05-.08.04-.17-.03-.24l-4.3-4.3c-.09-.09-.23-.08-.3.02C2.68 7.02 2 9.26 2 12s.68 4.98 1.97 6.63c.07.1.22.1.3.02l4.3-4.3c.06-.06.07-.16.03-.24C8.23 13.5 8 12.77 8 12m11.73-6.65-4.3 4.3c-.06.06-.07.16-.03.24.37.61.6 1.34.6 2.11s-.23 1.5-.6 2.11c-.05.08-.04.17.03.24l4.3 4.3c.09.09.23.08.3-.02C21.32 16.98 22 14.74 22 12s-.68-4.98-1.97-6.63c-.07-.1-.22-.1-.3-.02M12 2c-2.74 0-4.98.68-6.63 1.97-.1.07-.1.22-.02.3l4.3 4.3c.06.06.16.07.24.03.61-.38 1.34-.6 2.11-.6s1.5.22 2.11.6c.08.05.17.04.24-.03l4.3-4.3c.09-.09.08-.23-.02-.3C16.98 2.68 14.74 2 12 2"/></svg>