<svg xmlns="http://www.w3.org/2000/svg" viewBox="0 0 24 24"><g fill="#5e656d"><path d="M19.76 7.24a.74.74 0 0 0-1.04.19.74.74 0 0 0 .18 1.04c.42.29.63.84.63 1.68v4.62c0 1.44-.58 2.02-2.01 2.02h-1.09v-1.27h.17c.41 0 .75-.34.75-.75s-.34-.75-.75-.75h-3.71c-.41 0-.75.34-.75.75s.34.75.75.75h2.04v2.95c0 1.44-.58 2.02-2.01 2.02h-1.84c-1.51 0-1.83-.69-1.96-1.36a.736.736 0 0 0-.87-.6c-.41.07-.68.46-.6.87.3 1.67 1.52 2.6 3.43 2.6h1.84c2.26 0 3.51-1.25 3.51-3.52v-.18h1.09c2.26 0 3.51-1.25 3.51-3.52v-4.62c0-1.34-.43-2.32-1.27-2.91ZM9.24 10.33H7.4c-.41 0-.75.34-.75.75s.34.75.75.75h1.84c.41 0 .75-.34.75-.75s-.34-.75-.75-.75"/><path d="M21.72 2.22a.754.754 0 0 0-1.06 0l-3.54 3.57v-.26c0-2.37-1.15-3.52-3.51-3.52h-3.22c-2.36 0-3.51 1.15-3.51 3.52v1.1h-.4c-2.26 0-3.51 1.25-3.51 3.52v4.62c0 1.68.69 2.8 1.96 3.27l-2.66 2.68c-.29.29-.29.77 0 1.06.15.15.34.22.53.22s.39-.07.53-.22l18.4-18.5c.29-.29.29-.77 0-1.06ZM8.38 5.53c0-1.55.47-2.02 2.01-2.02h3.22c1.54 0 2.01.47 2.01 2.02v1.1H8.39v-1.1Zm-3.91 9.25v-4.62c0-1.44.58-2.02 2.01-2.02h8.31L6.18 16.8c-1.2-.08-1.71-.68-1.71-2.01Z"/></g></svg>