<svg xmlns="http://www.w3.org/2000/svg" viewBox="0 0 24 24"><path fill="#444" d="m10.7 6.74.52 1.39c.7 1.89.99 2.61 1.51 3.14.52.52 1.25.81 3.14 1.51l1.39.52c.3.11.49.39.49.7s-.19.59-.49.7l-1.39.52c-1.89.7-2.61.99-3.14 1.51-.52.52-.81 1.25-1.51 3.14l-.52 1.39c-.11.3-.39.49-.7.49s-.59-.19-.7-.49l-.52-1.39c-.7-1.89-.99-2.61-1.51-3.14-.52-.52-1.25-.81-3.14-1.51l-1.39-.52c-.3-.11-.49-.39-.49-.7s.19-.59.49-.7l1.39-.52c1.89-.7 2.62-.99 3.14-1.51s.81-1.25 1.51-3.14l.52-1.39c.11-.29.39-.49.7-.49s.59.2.7.49m-2.37 5.59c-.67.67-1.54 1.05-2.82 1.54-.12.05-.12.22 0 .26 1.28.48 2.15.87 2.82 1.54s1.05 1.54 1.54 2.82c.05.12.22.12.26 0 .48-1.28.87-2.15 1.54-2.82s1.54-1.05 2.82-1.54c.12-.05.12-.22 0-.26-1.28-.48-2.15-.87-2.82-1.54s-1.05-1.54-1.54-2.82c-.05-.12-.22-.12-.26 0-.48 1.28-.87 2.15-1.54 2.82M18.7 2.74l.22.6c.31.85.41 1.05.55 1.19s.34.23 1.19.55l.6.22c.3.11.49.39.49.7s-.19.59-.49.7l-.6.22c-.85.31-1.05.41-1.19.55s-.23.34-.55 1.19l-.22.6c-.11.3-.39.49-.7.49s-.59-.19-.7-.49l-.22-.6c-.31-.85-.41-1.05-.55-1.19s-.34-.23-1.19-.55l-.6-.22c-.3-.11-.49-.39-.49-.7s.19-.59.49-.7l.6-.22c.85-.31 1.05-.41 1.19-.55s.23-.34.55-1.19l.22-.6c.11-.3.39-.49.7-.49s.59.19.7.49m-1.11 2.85c-.17.16-.36.3-.57.41.21.11.4.25.57.41.16.17.3.36.41.57.11-.21.25-.4.41-.57.17-.16.36-.3.57-.41-.21-.11-.4-.25-.57-.41-.16-.17-.3-.36-.41-.57-.11.21-.25.4-.41.57"/></svg>