<svg xmlns="http://www.w3.org/2000/svg" viewBox="0 0 24 24"><path fill="#444" d="M18.52 16.4c-.12 0-.25-.03-.36-.09a.753.753 0 0 1-.29-1.02 6.86 6.86 0 0 0 0-6.58c-.2-.36-.07-.82.29-1.02s.82-.07 1.02.29c1.37 2.48 1.37 5.56 0 8.03-.14.25-.39.39-.66.39m-5.8 2.96c-1.26 0-2.36-.84-3.16-1.46-.42-.32-.86-.66-1.15-.75-.42-.14-.79-.18-1.15-.23-.69-.08-1.41-.17-2.2-.84-1.28-1.09-1.27-2.81-1.27-4.08 0-1.26 0-2.99 1.27-4.07.8-.68 1.51-.76 2.2-.84.36-.04.74-.09 1.16-.23.29-.09.72-.43 1.15-.75 1.11-.85 2.79-2.14 4.62-1.06 1.49 1.05 1.97 2.8 1.97 6.96s-.5 5.92-1.92 6.93c-.52.31-1.02.43-1.51.43Zm0-13.24c-.64 0-1.35.49-2.25 1.18-.54.42-1.06.81-1.59.99-.56.19-1.03.24-1.45.29-.6.07-.96.11-1.41.5-.75.63-.75 1.85-.74 2.93 0 1.08 0 2.3.74 2.93.45.38.81.43 1.41.5.41.05.88.1 1.45.29.53.17 1.04.57 1.59.99 1.2.92 2.06 1.49 2.94.96.74-.53 1.24-1.68 1.24-5.67s-.49-5.14-1.29-5.7c-.21-.12-.42-.18-.64-.18Z"/></svg>