<?xml version="1.0" encoding="UTF-8"?><svg id="d" xmlns="http://www.w3.org/2000/svg" viewBox="0 0 24 24"><path d="m22,13.49s0-.09-.01-.13l-.52-2.85s0,0,0,0l-.42-2.27c-.13-.82-.31-1.48-.84-2.01-.57-.57-1.34-.88-2.14-.87h0s-3.58,0-3.58,0c-.4,0-.73.33-.73.73v4.57s0,0,0,0v4.3c0,.05-.04.1-.1.1h-4.11c-.06,0-.11-.04-.13-.09-.14-.45-.37-.86-.71-1.19-.53-.53-1.23-.85-2.02-.83-1.17,0-2.21.7-2.65,1.78-.05.11-.08.23-.11.35h-1.19c-.4,0-.73.33-.73.73s.33.73.73.73h1.19c.13.49.38.95.75,1.32.55.55,1.28.83,2.02.83.38,0,.75-.07,1.12-.23.81-.34,1.4-1.02,1.63-1.83.02-.06.07-.1.13-.1h4.45c.05,0,.1.03.11.08.13.46.37.88.73,1.24.55.55,1.28.83,2.02.83.38,0,.75-.07,1.11-.23.87-.36,1.48-1.12,1.68-2.01.55-.13,1.07-.4,1.47-.81.56-.57.87-1.33.87-2.13Zm-2.84-6.25c.29.29.42.82.47,1.24,0,.05,0,0,0,.05l.22,1.37h-4.49c-.09,0-.16-.07-.16-.16v-2.79c0-.09.07-.16.16-.16h2.71c.41,0,.8.15,1.09.44Zm-11.93,9.85c-.53.22-1.13.11-1.53-.3-.4-.4-.53-1.01-.31-1.53.22-.53.73-.87,1.3-.87h0c.37,0,.73.15.99.41.26.26.41.61.41.97,0,0,0,0,0,0,0,0,0,0,0,.01,0,.57-.33,1.08-.86,1.3Zm10.18,0c-.53.22-1.13.11-1.53-.3-.41-.4-.53-1-.31-1.53s.73-.87,1.3-.87h0c.37,0,.72.14.98.41.26.26.41.61.41.98,0,0,0,0,0,0,0,0,0,0,0,0,0,.57-.33,1.08-.86,1.3Zm2.18-2.16c-.14-.44-.37-.84-.7-1.17-.54-.54-1.26-.83-2.01-.83h0c-.54,0-1.05.15-1.48.42-.08.05-.17,0-.17-.09v-1.69c0-.1.08-.19.19-.19h4.58c.09,0,.17.06.18.15l.37,2.02c0,.39-.17.77-.44,1.05-.14.14-.31.26-.5.34Z" fill="#444" stroke-width="0"/></svg>