<?xml version="1.0" encoding="UTF-8"?><svg id="c" xmlns="http://www.w3.org/2000/svg" viewBox="0 0 24 24"><path d="m16.76,16.82c-.4-.09-.81.16-.9.57-.09.4.16.81.57.9,1.6.36,2.12.81,2.18.85-.21.48-2.66,1.37-6.6,1.37s-6.39-.89-6.6-1.29c.06-.13.58-.57,2.18-.93.4-.09.66-.49.57-.9-.09-.4-.5-.65-.9-.57-2.21.5-3.34,1.29-3.34,2.35,0,2.23,5.09,2.83,8.09,2.83s8.09-.6,8.09-2.83c0-1.06-1.12-1.85-3.34-2.35Z" fill="#444" stroke-width="0"/><path d="m14.97,8.77c0-1.65-1.33-2.99-2.97-2.99s-2.97,1.34-2.97,2.99,1.33,2.99,2.97,2.99,2.97-1.34,2.97-2.99Zm-4.45,0c0-.82.66-1.49,1.47-1.49s1.47.67,1.47,1.49-.66,1.49-1.47,1.49-1.47-.67-1.47-1.49Z" fill="#444" stroke-width="0"/><path d="m12,17.92c1.11,0,2.22-.42,3.09-1.26,2.14-2.07,4.51-5.38,3.62-9.35-.82-3.63-3.96-5.25-6.71-5.25h0c-2.75,0-5.89,1.62-6.71,5.25h0c-.89,3.97,1.47,7.28,3.61,9.36.87.84,1.98,1.26,3.1,1.26ZM6.75,7.63c.68-3.01,3.25-4.08,5.24-4.08h0c2,0,4.57,1.07,5.24,4.08.74,3.29-1.33,6.14-3.2,7.94-1.15,1.11-2.95,1.11-4.1,0-1.86-1.81-3.93-4.66-3.19-7.95Z" fill="#444" stroke-width="0"/></svg>