<?xml version="1.0" encoding="UTF-8"?><svg id="b" xmlns="http://www.w3.org/2000/svg" viewBox="0 0 24 24"><path d="m3.63,8.59h16.74c.38,0,.7-.32.7-.7s-.32-.7-.7-.7h-.95l-.35-1.68c-.33-1.63-1.03-3.13-3.8-3.13h-6.53c-2.77,0-3.47,1.5-3.8,3.13l-.35,1.68h-.95c-.38,0-.7.32-.7.7s.32.7.7.7Z" fill="#444" stroke-width="0"/><path d="m21.47,13.16c-.14-1.53-.55-3.17-3.53-3.17H6.07c-2.99,0-3.39,1.64-3.53,3.17l-.52,5.66c-.07.71.17,1.41.65,1.94.49.54,1.19.85,1.93.85h1.75c1.51,0,1.8-.86,1.98-1.43l.19-.56c.21-.64.27-.8,1.11-.8h4.76c.84,0,.86.09,1.11.8l.19.56c.19.57.47,1.43,1.98,1.43h1.75c.73,0,1.44-.31,1.93-.85.48-.53.72-1.24.65-1.94l-.52-5.66Zm-12.26,1.94h-2.79c-.38,0-.7-.32-.7-.7s.32-.7.7-.7h2.79c.38,0,.7.32.7.7s-.32.7-.7.7Zm8.37,0h-2.79c-.38,0-.7-.32-.7-.7s.32-.7.7-.7h2.79c.38,0,.7.32.7.7s-.32.7-.7.7Z" fill="#444" stroke-width="0"/></svg>