<svg xmlns="http://www.w3.org/2000/svg" viewBox="0 0 24 24"><path fill="#444" d="M18.51 7.81c0-.87 0-1.3-.19-1.63-.12-.21-.3-.39-.51-.51-.32-.19-.76-.19-1.63-.19h-3.49V2.69c0-.39-.31-.7-.7-.7s-.7.31-.7.7v2.79H7.8c-.87 0-1.3 0-1.63.19-.21.12-.39.3-.51.51-.19.32-.19.76-.19 1.63s0 1.3.19 1.63c.12.21.3.39.51.51.32.19.76.19 1.63.19h3.49v3.72H9.66c-.87 0-1.3 0-1.63.19-.21.12-.39.3-.51.51-.19.32-.19.76-.19 1.63s0 1.3.19 1.63c.12.21.3.39.51.51.32.19.76.19 1.63.19h1.63v2.79c0 .39.31.7.7.7s.7-.31.7-.7v-2.79h1.63c.87 0 1.3 0 1.63-.19.21-.12.39-.3.51-.51.19-.32.19-.76.19-1.63s0-1.3-.19-1.63c-.12-.21-.3-.39-.51-.51-.32-.19-.76-.19-1.63-.19h-1.63v-3.72h3.49c.87 0 1.3 0 1.63-.19.21-.12.39-.3.51-.51.19-.32.19-.76.19-1.63"/></svg>