<svg xmlns="http://www.w3.org/2000/svg" viewBox="0 0 24 24"><path d="m4.3 16.12 4.36 4.36c-1.71.7-3.67-.13-4.36-1.84-.33-.81-.33-1.72 0-2.53ZM8.28 4.05a.797.797 0 0 0-.32-1.56 8.48 8.48 0 0 0-5.33 3.27c-.25.36-.16.85.2 1.1.34.24.82.17 1.07-.16a6.84 6.84 0 0 1 4.37-2.66Zm12.59 11.14a.79.79 0 0 0-.94.6 6.84 6.84 0 0 1-2.63 4.29c-.35.26-.43.76-.17 1.11s.76.43 1.11.17a8.44 8.44 0 0 0 3.24-5.23.807.807 0 0 0-.6-.95Zm-2.41-8.55 1.22-1.22c.32-.3.32-.81.02-1.12a.79.79 0 0 0-1.12-.02l-.02.02-1.22 1.22a6.725 6.725 0 0 0-7.79-.4l-4.36 2.7a4 4 0 0 0-1.3 5.49q.24.39.57.72l5.52 5.52a3.983 3.983 0 0 0 6.22-.74l2.86-4.66a6.79 6.79 0 0 0-.59-7.52Z"/></svg>