<svg xmlns="http://www.w3.org/2000/svg" viewBox="0 0 24 24"><path fill="#444" d="M13.69 2.14A10.01 10.01 0 0 0 2.14 13.69c.68 4.15 4.02 7.49 8.17 8.17 6.85 1.12 12.68-4.71 11.55-11.55-.68-4.15-4.02-7.49-8.17-8.17M8.2 16.37c-.06.1-.15.19-.25.25-.11.06-.22.09-.35.09a.6.6 0 0 1-.35-.1.7.7 0 0 1-.2-.18.55.55 0 0 1-.12-.24.8.8 0 0 1-.02-.27c.01-.09.04-.18.09-.26l.68-1.13c.03-.06.08-.11.14-.14s.13-.05.19-.05h.1c.5 0 .84.3.94.59l-.86 1.44Zm5.78-2.23H6.54c-.09 0-.19-.02-.27-.05a.73.73 0 0 1-.38-.39.6.6 0 0 1-.04-.27c.01-.37.34-.66.71-.66h2.08s.08-.02.1-.06l2.48-4.23s.02-.08 0-.12l-.79-1.35c-.19-.32-.1-.74.22-.95a.64.64 0 0 1 .26-.1c.09-.02.19-.01.28 0 .09.02.18.06.25.12.08.06.14.13.19.21l.44.75.44-.75c.05-.08.11-.15.19-.21s.16-.09.25-.12a.7.7 0 0 1 .28 0c.09.02.18.05.26.1.32.2.4.63.21.95l-.83 1.41-.8 1.37-1.75 2.98h2.57c.32 0 .73.17.89.45v.03c.16.25.24.41.24.66 0 .08-.02.16-.05.23Zm3.47 0h-1.21l.88 1.51a.704.704 0 0 1-.23.96c-.11.07-.23.1-.36.1a.73.73 0 0 1-.35-.09.8.8 0 0 1-.26-.25l-1.31-2.23-.81-1.38-1.05-1.79c-.15-.26-.23-.55-.24-.84 0-.3.07-.59.21-.85.21-.37.37-.46.37-.46l2.3 3.88s.06.06.1.06h1.94c.37 0 .7.29.71.66 0 .09-.01.19-.05.28q-.045.135-.15.24a.73.73 0 0 1-.5.22Z"/></svg>