<?xml version="1.0" encoding="UTF-8"?><svg id="b" xmlns="http://www.w3.org/2000/svg" viewBox="0 0 19.19 20.01"><g id="c"><g id="d"><path d="m13.62,12.61c-.11,0-.23-.03-.34-.08l-2.83-1.43c-.77-.39-1.25-1.17-1.25-2.03v-4.61c0-.41.34-.75.75-.75s.75.34.75.75v4.61c0,.3.16.56.43.69l2.83,1.43c.37.19.52.64.33,1.01-.13.26-.4.41-.67.41Z" fill="#444" stroke-width="0"/><path d="m17.29,15.38c-.41,0-.75-.34-.75-.75v-4.62c0-.41.34-.75.75-.75s.75.34.75.75v4.62c0,.41-.34.75-.75.75Z" fill="#444" stroke-width="0"/><path d="m17.3,19.08c-.41,0-.75-.34-.75-.75s.33-.75.75-.75h0c.41,0,.75.34.75.75s-.34.75-.75.75Z" fill="#444" stroke-width="0"/><path d="m9.94,20.01c-1.29,0-2.59-.26-3.82-.77-2.46-1.03-4.37-2.96-5.38-5.44C-1.34,8.7,1.1,2.85,6.17.75c2.45-1.01,5.14-1.01,7.59.02,2.46,1.03,4.37,2.96,5.38,5.44.16.38-.03.82-.41.98s-.82-.03-.98-.41c-.86-2.11-2.48-3.75-4.57-4.62-2.07-.87-4.36-.87-6.44-.01C2.43,3.92.36,8.89,2.13,13.23c.86,2.11,2.48,3.75,4.57,4.62,2.08.87,4.36.87,6.44.01l.18-.08c.38-.16.82.01.99.39.16.38-.01.82-.39.99l-.2.08c-1.22.5-2.5.75-3.78.75Z" fill="#444" stroke-width="0"/></g></g></svg>