<svg xmlns="http://www.w3.org/2000/svg" viewBox="0 0 18.11 20.25"><g fill="#444"><path d="M9.05 20.25C3.3 20.25 0 16.95 0 11.2s3.3-9.05 9.05-9.05 9.05 3.3 9.05 9.05-3.3 9.05-9.05 9.05m0-16.61c-4.87 0-7.55 2.68-7.55 7.55s2.68 7.55 7.55 7.55 7.55-2.68 7.55-7.55-2.68-7.55-7.55-7.55"/><rect width="1.5" height="7.5" x="6.46" y="7.45" rx=".75" ry=".75"/><rect width="1.5" height="7.5" x="10.15" y="7.45" rx=".75" ry=".75"/><path d="m1.51 3.62 3.72-2.33c.33-.2.43-.63.22-.96a.686.686 0 0 0-.96-.22L.77 2.44c-.33.2-.43.64-.22.96.2.33.63.43.96.22M12.87 1.3l3.72 2.33c.33.2.76.11.96-.22s.11-.76-.22-.96L13.61.12c-.33-.2-.76-.1-.96.22-.2.33-.11.76.22.96"/></g></svg>