<svg xmlns="http://www.w3.org/2000/svg" viewBox="0 0 24 24"><path fill="#444" d="M21.25 10.29a.74.74 0 0 1-.74-.67 6.8 6.8 0 0 0-6.05-6.02.75.75 0 0 1-.66-.83c.04-.41.43-.7.83-.66 3.91.43 6.94 3.45 7.38 7.34.05.41-.25.78-.66.83h-.08Z"/><path fill="#444" d="M17.87 10.3c-.35 0-.67-.25-.74-.61a3.44 3.44 0 0 0-2.75-2.73.75.75 0 1 1 .29-1.47c2 .39 3.54 1.93 3.93 3.92.08.41-.19.8-.59.88-.05 0-.1.01-.14.01m-.81 11.62c-1.9 0-4.9-1.18-9.41-5.66C.92 9.55 1.61 6.18 2.63 4.77S3.9 2.75 5.78 2.4c.9-.17 1.79.08 2.57.72 3.21 2.63 2.88 4.03 2.18 5.47-.44.89-.78 1.59 1.22 3.59 2.01 2 2.72 1.65 3.61 1.22 1.49-.72 2.84-1.02 5.48 2.17.64.78.89 1.66.73 2.56-.35 1.89-2.43 3.18-2.45 3.19-.45.32-1.12.61-2.06.61Zm-8.35-6.73c5.04 5.03 8.27 5.8 9.6 4.85.37-.23 1.61-1.18 1.78-2.23.08-.45-.06-.88-.41-1.31-2.1-2.54-2.76-2.22-3.67-1.78-1.35.66-2.77 1.03-5.32-1.51S8.52 9.25 9.18 7.9c.44-.9.76-1.56-1.79-3.65-.43-.35-.87-.49-1.32-.41-1.05.18-2 1.4-2.2 1.72-.99 1.38-.21 4.59 4.83 9.61Z"/></svg>