<svg xmlns="http://www.w3.org/2000/svg" width="24" height="24" viewBox="0 0 24 24"><g fill="#707575"><path d="M12.04 13.82h.01c.57 0 1.1-.27 1.39-.7.22-.34.26-.74.1-1.09-.22-.5-.52-.97-.82-1.43-.09-.15-.19-.29-.28-.44a.45.45 0 0 0-.39-.23c-.16 0-.31.09-.4.24s-.18.29-.27.43c-.3.47-.61.95-.83 1.46-.15.35-.11.72.1 1.06.28.43.81.7 1.38.71Zm-.61-1.53c.16-.33.34-.66.52-.98l.1-.17.09.17c.18.33.37.65.53.99.14.3-.1.49-.21.56-.24.15-.57.15-.81 0-.11-.07-.35-.26-.21-.56Zm10.04 2.7h-2.64c-.15-.38-.51-.65-.94-.65h-.16c-.64 0-1.17.53-1.17 1.17v1.52c0 .66.54 1.19 1.19 1.19h.16c.42 0 .78-.27.92-.65h2.63c.26 0 .48-.21.48-.48v-1.63a.48.48 0 0 0-.48-.48Zm-3.51 2.24s-.02.04-.04.04h-.16c-.13 0-.24-.11-.24-.24v-1.52c0-.12.1-.21.21-.21h.16s.06.03.06.06v1.87Zm3.04-.61h-2.05v-.68H21zM6.27 7.22h-.16c-.43 0-.79.27-.94.65H2.53a.48.48 0 0 0-.48.48v1.63c0 .26.21.48.48.48h2.63c.14.37.5.65.92.65h.16c.66 0 1.19-.54 1.19-1.19V8.4c0-.64-.53-1.17-1.17-1.17ZM5.07 9.5H3.02v-.68h2.05zm1.42.4c0 .13-.11.24-.24.24h-.16s-.04-.02-.04-.04V8.23s.03-.06.06-.06h.16c.12 0 .21.1.21.21V9.9Z"/><rect width=".85" height=".78" x="9.75" y="3.76" rx=".1" ry=".1"/><rect width="1.43" height=".78" x="7.9" y="3.76" rx=".1" ry=".1"/><path d="M18.18 5.06V3.6c0-.88-.71-1.59-1.59-1.59H7.51c-.88 0-1.59.71-1.59 1.59v1.46c0 .88.71 1.59 1.59 1.59h.62v11.43c0 2.16 1.76 3.92 3.92 3.92s3.92-1.76 3.92-3.92V6.65h.62c.88 0 1.59-.71 1.59-1.59m-3.64 13.02c0 1.38-1.12 2.49-2.49 2.49s-2.49-1.12-2.49-2.49V6.65h4.98zM7.51 5.22c-.09 0-.16-.07-.16-.16V3.6c0-.09.07-.16.16-.16h9.08c.09 0 .16.07.16.16v1.46c0 .09-.07.16-.16.16z"/><path d="M10.75 16.76h1.62c-.06.05-.12.11-.19.17-.2.17-.21.48-.04.67.09.11.22.16.35.16.11 0 .23-.04.32-.12.92-.82 1-1.13 1-1.36 0-.28-.17-.61-1-1.35a.466.466 0 0 0-.67.04c-.18.2-.16.5.04.67.07.06.13.12.18.17h-1.62c-.26 0-.48.21-.48.48s.21.48.48.48Z"/></g></svg>