<svg xmlns="http://www.w3.org/2000/svg" viewBox="0 0 18.03 20.01"><path fill="#444" d="M9.02 20.01c-.84 0-1.67-.22-2.44-.65l-5.35-3.03A2.02 2.02 0 0 1 .2 14.48c.03-.77.47-1.45 1.17-1.78l.57-.27-.9-.51A2.02 2.02 0 0 1 0 10.13c0-.75.39-1.41 1.04-1.77l.89-.51-.89-.5C.39 6.98 0 6.32 0 5.57s.39-1.42 1.04-1.78L6.58.65c1.52-.87 3.35-.87 4.88 0L17 3.78c.65.36 1.03 1.03 1.03 1.78s-.39 1.42-1.04 1.78l-.91.51.91.5c.64.36 1.03 1.02 1.03 1.77s-.38 1.42-1.03 1.79l-.8.45.61.31a2.047 2.047 0 0 1 .09 3.6l-5.44 3.07c-.76.43-1.6.65-2.44.65Zm-5.48-6.67L2 14.06c-.27.12-.3.37-.31.47 0 .1.02.35.27.49l5.36 3.04c1.06.6 2.33.6 3.4 0l5.44-3.07a.54.54 0 0 0 .27-.49c0-.1-.04-.34-.29-.47l-1.5-.76-3.18 1.8c-1.53.86-3.35.86-4.87 0l-3.04-1.72Zm-.09-4.63-1.67.96c-.25.14-.27.37-.27.47s.03.34.28.48l5.54 3.13c1.06.6 2.34.59 3.4 0l5.54-3.13c.25-.14.27-.38.27-.48s-.03-.33-.27-.47l-1.71-.94-3.1 1.75c-1.53.87-3.35.87-4.88 0zM9.02 1.5c-.58 0-1.17.15-1.7.45L1.77 5.09c-.25.14-.27.38-.27.48s.03.34.27.47l5.55 3.14c1.06.6 2.33.6 3.4 0s5.54-3.14 5.54-3.14c.25-.14.27-.38.27-.48s-.03-.34-.27-.47l-5.55-3.14a3.46 3.46 0 0 0-1.7-.45Z"/></svg>