<?xml version="1.0" encoding="UTF-8"?><svg id="c" xmlns="http://www.w3.org/2000/svg" viewBox="0 0 24 24"><path d="m12.8,12.49h-2.1c-.41,0-.75.34-.75.75s.34.75.75.75h3.9c.1,0,.19-.02.29-.06.09-.04.16-.09.23-.15,0,0,0,0,.01,0,0,0,0,0,0,0,.07-.07.13-.15.16-.24.04-.09.06-.19.06-.29,0,0,0,0,0,0v-3.92c0-.41-.34-.75-.75-.75s-.75.34-.75.75v2.1l-3.92-3.95c-.29-.29-.77-.29-1.06,0-.29.29-.3.77,0,1.06l3.93,3.96Z" fill="#444" stroke-width="0"/><path d="m17.28,15.46c-3.4,1.14-7.15,1.14-10.55,0-.39-.13-.82.08-.95.47-.13.39.08.82.47.95,1.86.62,3.81.94,5.76.94s3.9-.31,5.76-.94c.39-.13.6-.56.47-.95s-.56-.6-.95-.47Z" fill="#444" stroke-width="0"/><path d="m12,2C4.13,2,1.98,4.15,1.98,12s2.15,10,10.02,10,10.02-2.15,10.02-10S19.87,2,12,2Zm0,18.5c-7.01,0-8.52-1.51-8.52-8.5S4.99,3.5,12,3.5s8.52,1.51,8.52,8.5-1.51,8.5-8.52,8.5Z" fill="#444" stroke-width="0"/></svg>