<?xml version="1.0" encoding="UTF-8"?><svg id="d" xmlns="http://www.w3.org/2000/svg" viewBox="0 0 24 24"><path d="m12,7.98h.01c-1.46.01-2.66.12-3.66.34v-1.04c.03-1.98,1.63-3.57,3.61-3.6h.05c1.6,0,3.04,1.07,3.49,2.59.13.44.6.69,1.04.56.21-.06.39-.21.5-.41.11-.2.13-.42.06-.64-.67-2.23-2.76-3.78-5.1-3.78h-.07c-2.89.03-5.23,2.36-5.27,5.25v1.61c-2.1.99-3.04,2.88-3.04,6.13,0,5.11,2.27,7.01,8.38,7.01s8.38-1.9,8.38-7.01-2.27-7.01-8.38-7.01Zm1.94,7.19c0,.47-.38.84-.84.84h-2.19c-.46,0-.84-.37-.84-.84s.38-.84.84-.84h2.19c.47,0,.84.37.84.84Z" fill="#444" stroke-width="0"/></svg>