<svg xmlns="http://www.w3.org/2000/svg" viewBox="0 0 24 24"><path fill="#444" d="M14 7.25h-1.25V3c0-.41-.34-.75-.75-.75s-.75.34-.75.75v4.25H10c-.41 0-.75.34-.75.75s.34.75.75.75h4c.41 0 .75-.34.75-.75s-.34-.75-.75-.75m-2 4c-.41 0-.75.34-.75.75v9c0 .41.34.75.75.75s.75-.34.75-.75v-9c0-.41-.34-.75-.75-.75m9 4h-4c-.41 0-.75.34-.75.75s.34.75.75.75h1.25V21c0 .41.34.75.75.75s.75-.34.75-.75v-4.25H21c.41 0 .75-.34.75-.75s-.34-.75-.75-.75m-2-2.5c.41 0 .75-.34.75-.75V3c0-.41-.34-.75-.75-.75s-.75.34-.75.75v9c0 .41.34.75.75.75m-12 .5H3c-.41 0-.75.34-.75.75s.34.75.75.75h1.25V21c0 .41.34.75.75.75s.75-.34.75-.75v-6.25H7c.41 0 .75-.34.75-.75s-.34-.75-.75-.75m-2-2.5c.41 0 .75-.34.75-.75V3c0-.41-.34-.75-.75-.75s-.75.34-.75.75v7c0 .41.34.75.75.75"/></svg>