<svg xmlns="http://www.w3.org/2000/svg" viewBox="0 0 24 24"><path d="M11.9 21.81a9.9 9.9 0 0 1-4.05-.92c-.28-.14-.57-.17-.85-.11l-1.28.33c-.38.1-.79.1-1.18 0s-.75-.31-1.03-.59a2.4 2.4 0 0 1-.6-1.03c-.11-.39-.11-.8 0-1.19l.33-1.28c.07-.27.04-.57-.08-.82a9.77 9.77 0 0 1-.86-5.45c.24-1.86 1-3.6 2.21-5.04s2.79-2.5 4.58-3.06 3.69-.6 5.51-.1c2.09.57 3.96 1.83 5.26 3.57 1.3 1.73 2 3.88 1.97 6.05a9.87 9.87 0 0 1-2.99 6.85 9.85 9.85 0 0 1-6.91 2.81Zm-4.62-2.67c.44 0 .87.1 1.27.3 1.04.49 2.18.75 3.36.76 2.17 0 4.23-.84 5.79-2.36a8.3 8.3 0 0 0 2.51-5.73c.03-1.8-.55-3.6-1.65-5.05a8.2 8.2 0 0 0-4.4-2.98 8.2 8.2 0 0 0-4.61.09c-1.5.47-2.82 1.35-3.83 2.56a8.19 8.19 0 0 0-1.13 8.77c.29.59.36 1.27.19 1.91l-.33 1.29c-.03.12-.03.25 0 .37s.09.23.18.31c.09.09.2.15.31.18q.18.045.36 0l1.3-.33c.22-.05.45-.08.67-.08Z"/><path d="M12.01 16.8c-.44 0-.8-.36-.8-.8s.35-.8.79-.8.8.36.8.8-.36.8-.8.8Zm-.01-3c-.44 0-.8-.36-.8-.8s.36-.8.8-.8c.34 0 .66-.1.94-.29s.5-.45.63-.76.16-.65.1-.98a1.73 1.73 0 0 0-.47-.87c-.24-.24-.54-.4-.87-.46-.33-.07-.67-.03-.98.1s-.58.35-.76.63c-.19.28-.29.61-.29.94 0 .44-.36.8-.8.8s-.8-.36-.8-.8c0-.66.19-1.29.56-1.83.36-.54.88-.96 1.48-1.21s1.26-.32 1.91-.19c.64.13 1.23.44 1.69.9s.78 1.05.9 1.69c.13.65.06 1.3-.19 1.91-.25.6-.67 1.12-1.22 1.48-.54.36-1.18.56-1.83.56Z"/></svg>