<?xml version="1.0" encoding="UTF-8"?><svg id="b" xmlns="http://www.w3.org/2000/svg" viewBox="0 0 16.18 20"><g id="c"><path d="m13.23,0H2.95C1.32,0,0,1.33,0,2.97v14.06c0,1.64,1.32,2.97,2.95,2.97h10.28c1.63,0,2.95-1.33,2.95-2.97V2.97c0-1.64-1.32-2.97-2.95-2.97Zm-1.53,10.75h-7.22c-.41,0-.75-.34-.75-.75s.34-.75.75-.75h7.22c.41,0,.75.34.75.75s-.34.75-.75.75Zm.75,3.01c0,.41-.34.75-.75.75h-7.22c-.41,0-.75-.34-.75-.75s.34-.75.75-.75h7.22c.41,0,.75.34.75.75ZM3.74,6.24c0-.41.34-.75.75-.75h2.75c.41,0,.75.34.75.75s-.34.75-.75.75h-2.75c-.41,0-.75-.34-.75-.75Z" fill="#444" stroke-width="0"/></g></svg>