<svg xmlns="http://www.w3.org/2000/svg" viewBox="0 0 24 24"><path fill="#444" d="M12 4.12c-7.48 0-10 0-10 7.88s2.52 7.88 10 7.88 10 0 10-7.88-2.52-7.88-10-7.88m0 1.49c6.08 0 7.91 0 8.37 3.58H3.63c.46-3.57 2.3-3.58 8.37-3.58m0 12.78c-7.38 0-8.51 0-8.51-6.39 0-.48 0-.91.02-1.32h16.97c.01.41.02.84.02 1.32 0 6.39-1.13 6.39-8.51 6.39Z"/><path fill="#444" d="M16.05 14.23H12.5c-.45 0-.81.36-.81.81s.36.81.81.81h3.55c.45 0 .81-.36.81-.81s-.36-.81-.81-.81m-7.09 0H7.95c-.45 0-.81.36-.81.81s.36.81.81.81h1.01c.45 0 .81-.36.81-.81s-.36-.81-.81-.81"/></svg>