<svg xmlns="http://www.w3.org/2000/svg" width="24" height="24" viewBox="0 0 24 24"><g fill="#707575"><path d="M12 13.63c.22 0 .45-.03.67-.08.99-.23 1.77-1.02 1.99-1.99.23-.96-.04-1.94-.72-2.61-.68-.68-1.66-.95-2.61-.72-.98.23-1.76 1.01-1.99 1.99-.23.96.04 1.94.72 2.61.52.52 1.22.8 1.94.8m-1.31-3.08c.12-.47.51-.86.97-.98.11-.03.23-.04.34-.04.36 0 .7.14.96.39.33.34.47.82.35 1.3-.1.47-.49.85-.96.97-.48.11-.96-.02-1.3-.35a1.36 1.36 0 0 1-.35-1.29Z"/><path d="M18.18 4.51a8.77 8.77 0 0 0-6.45-2.5c-4.76.14-8.62 4.13-8.61 8.9 0 2.45 1.04 4.81 2.84 6.47.13.12.3.19.47.19.19 0 .37-.08.51-.22.26-.28.24-.72-.04-.99a7.5 7.5 0 0 1-2.39-5.45c-.01-4.02 3.24-7.38 7.25-7.5 2.05-.05 3.97.69 5.44 2.11 1.46 1.42 2.27 3.33 2.27 5.37s-.84 4.02-2.37 5.45c-.28.26-.3.71-.03.99.26.28.71.3.99.03 1.81-1.7 2.81-3.99 2.81-6.46s-.96-4.68-2.69-6.37Z"/><path d="M15.85 6.53a5.84 5.84 0 0 0-4.57-1.42c-2.58.31-4.7 2.4-5.04 4.98-.23 1.75.33 3.48 1.52 4.76.26.28.71.29.99.03s.3-.71.03-.99a4.45 4.45 0 0 1-1.16-3.62c.26-1.95 1.86-3.54 3.82-3.77 1.28-.15 2.52.23 3.47 1.08.94.84 1.49 2.04 1.49 3.3 0 1.12-.43 2.19-1.2 3.02-.26.28-.25.72.04.99.13.13.31.19.48.19.19 0 .37-.07.51-.22a5.83 5.83 0 0 0 1.57-3.97c0-1.66-.71-3.24-1.96-4.34Z"/><path d="M14.12 15.91a2.66 2.66 0 0 0-2.11-1.02c-.83 0-1.6.37-2.12 1.02l-1.34 1.67a2.7 2.7 0 0 0-.33 2.88c.47.95 1.4 1.54 2.46 1.54h2.67c1.06 0 2.01-.6 2.47-1.56.46-.95.33-2.06-.33-2.87l-1.34-1.67Zm.42 3.94c-.23.47-.68.76-1.21.76h-2.67c-.52 0-.97-.29-1.19-.75-.23-.47-.17-1 .16-1.41l1.34-1.67c.25-.32.63-.49 1.03-.49s.77.18 1.02.49l1.34 1.67c.33.4.39.92.17 1.4Z"/></g></svg>