<svg xmlns="http://www.w3.org/2000/svg" viewBox="0 0 24 24"><path fill="#444" d="M12 22.01a5.52 5.52 0 0 1-3.84-1.56C5.44 17.81 2.44 13.62 3.57 8.6 4.6 4.05 8.54 2.01 12 2.01s7.4 2.04 8.43 6.6c1.13 5.02-1.88 9.21-4.6 11.84A5.48 5.48 0 0 1 12 22.01M5.03 8.92C4.06 13.26 6.76 17 9.2 19.37a3.984 3.984 0 0 0 5.58 0c2.45-2.37 5.16-6.1 4.18-10.44-.9-4-4.31-5.43-6.97-5.43-2.65 0-6.06 1.42-6.97 5.42Z"/><path fill="#444" d="M10.85 13.68a.75.75 0 0 1-.53-.22l-1.38-1.39a.754.754 0 0 1 0-1.06c.29-.29.77-.29 1.06 0l.85.85 3.14-3.17c.29-.29.77-.29 1.06 0s.3.77 0 1.06l-3.67 3.7a.75.75 0 0 1-.53.22Z"/></svg>