<svg xmlns="http://www.w3.org/2000/svg" viewBox="0 0 24 24"><path fill="#5e656d" d="M16.17 3.88H7.83c-3.67 0-4.79 1.11-4.79 4.79v6.66c0 3.68 1.12 4.79 4.79 4.79h8.34c3.67 0 4.79-1.11 4.79-4.79V8.67c0-3.68-1.12-4.79-4.79-4.79m-5.16 5.97A2.087 2.087 0 0 1 9 11.94h-.12c-1.14-.04-2.02-.96-2.02-2.09s.93-2.08 2.07-2.08 2.08.93 2.08 2.08m-4 3.15c1.12-.74 2.84-.74 3.94.01.55.37.86.91.86 1.49s-.31 1.11-.87 1.49c-.55.37-1.25.55-1.96.55s-1.42-.18-1.97-.55c-.55-.38-.87-.92-.87-1.49s.32-1.12.87-1.5m8.53 2.33c0-.34.29-.62.63-.62h1.66c.34 0 .63.28.63.62s-.29.63-.63.63h-1.66a.64.64 0 0 1-.63-.63m2.29-2.71H14.5c-.34 0-.62-.28-.62-.62s.28-.62.62-.62h3.33c.34 0 .63.28.63.62s-.29.62-.63.62m0-3.33h-4.16c-.34 0-.63-.28-.63-.62s.29-.63.63-.63h4.16c.34 0 .63.29.63.63s-.29.62-.63.62"/></svg>