<svg xmlns="http://www.w3.org/2000/svg" viewBox="0 0 24 24"><path fill="#444" fill-rule="evenodd" d="M13.38 2c.92 0 1.47 0 2.02.09.92.18 1.83.55 2.57 1.1.46.28.83.73 1.47 1.38.64.64 1.01 1.01 1.38 1.47.55.73.92 1.65 1.1 2.57.09.55.09 1.1.09 2.02v1.74c0 1.56 0 2.75-.09 3.67s-.28 1.74-.64 2.48c-.55 1.19-1.56 2.11-2.75 2.75-.73.37-1.47.55-2.48.64-.92.09-2.11.09-3.67.09h-.73c-1.56 0-2.75 0-3.67-.09s-1.74-.28-2.48-.64c-1.19-.55-2.11-1.56-2.75-2.75-.37-.73-.55-1.47-.64-2.48-.09-.92-.09-2.11-.09-3.67v-.73c0-1.56 0-2.75.09-3.67s.28-1.74.64-2.48C3.3 4.3 4.31 3.38 5.5 2.74c.73-.37 1.47-.55 2.48-.64.92-.09 2.11-.09 3.67-.09h1.74Zm-2.11 10.83c-1.01 0-1.56 0-1.93.18s-.64.46-.83.83-.18.92-.18 1.93v1.65c0 .83 0 1.28.28 1.56s.73.28 1.56.28h3.67c.83 0 1.28 0 1.56-.28s.28-.73.28-1.56v-1.65c0-1.01 0-1.56-.18-1.93s-.46-.64-.83-.83c-.37-.18-.92-.18-1.93-.18zM9.25 7.51c-.37 0-.73.28-.73.73s.28.73.73.73h5.5c.37 0 .73-.28.73-.73s-.28-.73-.73-.73z"/></svg>