<?xml version="1.0" encoding="UTF-8"?>
<svg xmlns="http://www.w3.org/2000/svg" viewBox="0 0 24 24">
  <g id="f">
    <path
      d="m12.08,22c-.06,0-.12,0-.18-.02-2.94-.73-9.78-3.19-9.78-10.39,0-5.8,1.61-7.04,1.93-7.23.29-.13,5.35-2.35,7.94-2.35s7.65,2.22,7.87,2.31c.4.23,2.01,1.47,2.01,7.27,0,7.45-7.36,9.84-9.61,10.39-.06.01-.12.02-.18.02ZM4.83,5.65c-.19.19-1.2,1.42-1.2,5.94,0,6.01,5.77,8.2,8.46,8.89,2.63-.68,8.29-2.85,8.29-8.89,0-4.52-1.02-5.75-1.2-5.94-1.45-.63-5.32-2.15-7.17-2.15s-5.72,1.51-7.17,2.15Z"
      fill="#444" stroke-width="0" />
    <path
      d="m11.95,7.04c-1.28,0-2.32,1.05-2.32,2.33s.99,2.29,2.25,2.33h.15c1.24-.04,2.22-1.06,2.24-2.33,0-1.28-1.04-2.33-2.32-2.33Zm.04,3.26h-.08c-.49-.02-.88-.43-.88-.93s.41-.93.92-.93.91.41.91.92-.38.92-.87.94Z"
      fill="#444" stroke-width="0" />
    <path
      d="m14.22,13.02c-.62-.42-1.42-.63-2.22-.63s-1.57.2-2.19.61h0s-.03.02-.03.02c-.61.41-.97,1.02-.97,1.66s.36,1.24.97,1.65c.6.41,1.39.63,2.22.63s1.61-.22,2.21-.63c.62-.41.97-1.01.97-1.65s-.35-1.25-.96-1.66Zm-.79,2.15c-.38.26-.9.39-1.43.39s-1.05-.13-1.43-.39c-.23-.15-.36-.33-.36-.49,0-.17.13-.35.35-.5.78-.52,2.11-.52,2.87,0,.22.15.35.33.35.5,0,.16-.13.34-.35.49Z"
      fill="#444" stroke-width="0" />
  </g>
</svg>