<?xml version="1.0" encoding="UTF-8"?><svg id="b" xmlns="http://www.w3.org/2000/svg" viewBox="0 0 18.71 19.12"><g id="c"><g id="d"><path d="m13.8,1.93V.75c0-.42-.34-.75-.75-.75s-.75.33-.75.75v.93c-.88-.1-1.84-.15-2.94-.15s-2.06.05-2.93.15v-.93c0-.42-.34-.75-.75-.75s-.75.33-.75.75v1.18C1.21,2.78,0,5.17,0,10.33c0,6.33,1.81,8.48,7.86,8.76.37.02.75.03,1.15.03.37-.02.67-.3.7-.67v-.15c-.03-.39-.39-.68-.78-.68h-.12s-.04-.01-.04-.01c-.23,0-.44,0-.65-.01-5.4-.18-6.62-1.68-6.62-7.27,0-.93.04-1.73.12-2.44.01-.07.07-.12.14-.12h15.2c.07,0,.13.05.14.12.06.53.1,1.11.11,1.76v.08c.01.41.34.74.75.74s.75-.34.75-.75v-.07c-.11-4.69-1.36-6.91-4.91-7.72Zm2.79,4.34H2.13c-.09,0-.16-.1-.13-.19.48-1.41,1.38-2.21,2.93-2.63v.36c0,.41.33.75.75.75s.75-.34.75-.75v-.64c.84-.1,1.8-.14,2.93-.14s2.1.04,2.94.14v.64c0,.41.33.75.75.75s.75-.34.75-.75v-.36c1.55.42,2.44,1.22,2.92,2.63.03.09-.04.19-.13.19Z" fill="#444" stroke-width="0"/><path d="m18.47,13.29c.29-.29.29-.77,0-1.07-.29-.3-.77-.29-1.07,0l-2.22,2.22-2.22-2.22c-.29-.29-.77-.29-1.07,0-.3.29-.29.77,0,1.07l2.22,2.22-2.22,2.22c-.29.29-.29.77,0,1.07.15.15.34.22.53.22s.39-.07.53-.22l2.22-2.22,2.22,2.22c.15.15.34.22.53.22s.39-.07.53-.22c.29-.29.29-.77,0-1.07l-2.22-2.22h.02l2.22-2.22Z" fill="#444" stroke-width="0"/><path d="m9.52,9.89c-.43,0-.79.35-.79.79s.35.79.8.79.79-.35.79-.79-.35-.79-.8-.79Z" fill="#444" stroke-width="0"/><path d="m5.46,9.89c-.43,0-.79.35-.79.79s.35.79.8.79.79-.35.79-.79-.35-.79-.8-.79Z" fill="#444" stroke-width="0"/><path d="m5.46,13.44c-.43,0-.79.35-.79.79s.35.79.8.79.79-.35.79-.79-.35-.79-.8-.79Z" fill="#444" stroke-width="0"/></g></g></svg>