<?xml version="1.0" encoding="UTF-8"?><svg id="b" xmlns="http://www.w3.org/2000/svg" viewBox="0 0 24 24"><path d="m8.93,6.89c-1.72,0-2.73.92-3.36,1.92-.31.49-.54,1.01-.73,1.45-.03.07-.06.14-.09.21-.15.36-.26.63-.38.8-.17.26-.37.39-.63.43-.28.05-.68.01-1.23-.16-.11-.03-.24-.02-.34.04-.1.06-.16.16-.17.27-.21,2.87,1.77,4.71,4.1,5.14,2.02.37,4.3-.3,5.68-2.22.11-.15.31-.15.42,0,1.37,1.92,3.66,2.6,5.67,2.22,2.33-.43,4.31-2.27,4.1-5.14,0-.11-.07-.21-.17-.27s-.22-.08-.34-.04c-.55.17-.94.21-1.23.16-.26-.05-.46-.18-.63-.43-.11-.18-.23-.45-.38-.8-.03-.07-.06-.13-.09-.21-.19-.44-.42-.96-.73-1.45-.63-.99-1.64-1.92-3.36-1.92-1.26,0-2.08.43-2.61.97-.2.2-.35.41-.47.61-.12-.2-.27-.41-.47-.61-.53-.54-1.35-.97-2.61-.97Z" fill-rule="evenodd" stroke-width="0"/></svg>