<?xml version="1.0" encoding="UTF-8"?><svg id="c" xmlns="http://www.w3.org/2000/svg" viewBox="0 0 24 24"><path d="m7.39,17.25c-.72,0-1.45-.13-2.14-.4-2.11-.83-3.3-2.76-3.12-5.03.02-.23.14-.43.32-.56.19-.13.42-.17.64-.1,1.11.33,1.3.04,1.38-.09.09-.15.18-.38.29-.66.52-1.28,1.5-3.66,4.37-3.66,1.08.04,1.95.39,2.59,1.03h0c.05.05.12.07.21.08.05,0,.12-.01.17-.07.69-.7,1.62-1.05,2.79-1.05,2.84,0,3.82,2.37,4.34,3.64.12.28.23.55.31.68.11.17.26.4,1.39.09.22-.06.45-.02.63.11.18.13.3.34.31.56.15,2.29-1.09,4.23-3.24,5.04-2.37.9-5.07.16-6.58-1.79h0s-.11,0-.12,0h0c-1.11,1.4-2.81,2.17-4.55,2.17Zm-3.74-4.46c.17,1.21.94,2.18,2.15,2.66,1.44.57,3.61.4,4.96-1.3.3-.38.75-.6,1.23-.6,0,0,0,0,0,0,.49,0,.94.22,1.24.61,1.3,1.67,3.43,1.85,4.87,1.3,1.25-.47,2.05-1.44,2.24-2.67-.77.07-1.54-.09-2.07-.91-.16-.24-.29-.56-.44-.92-.62-1.48-1.26-2.71-2.96-2.71-.75,0-1.32.2-1.72.6-.32.33-.76.51-1.23.51h0c-.47,0-.93-.19-1.26-.52h0c-.37-.37-.9-.57-1.57-.6-1.7,0-2.34,1.24-2.95,2.73-.14.35-.26.64-.41.88-.45.7-1.16,1-2.09.92Z" fill="#444" stroke-width="0"/></svg>