<?xml version="1.0" encoding="UTF-8"?><svg id="d" xmlns="http://www.w3.org/2000/svg" viewBox="0 0 24 24"><path d="m7.42,21.76c-.46,0-.94-.14-1.41-.5-1.47-1.11-1.03-2.83-.67-4.21.2-.77.4-1.57.27-2.15-.13-.58-.75-1.09-1.41-1.63-1.01-.84-2.28-1.88-1.88-3.59.43-1.83,2.33-1.92,3.72-1.99.78-.04,1.67-.08,1.98-.4.35-.36.64-1.1.92-1.81.57-1.44,1.27-3.22,3.06-3.22s2.49,1.79,3.06,3.22c.28.71.57,1.45.92,1.81.31.32,1.19.36,1.98.4,1.39.07,3.29.16,3.72,1.99.4,1.71-.86,2.75-1.88,3.59-.66.54-1.28,1.06-1.41,1.63-.13.58.08,1.38.27,2.15.35,1.38.79,3.1-.67,4.21-1.47,1.1-2.92.14-4.09-.63-.67-.44-1.36-.9-1.9-.9s-1.23.46-1.9.9c-.79.52-1.71,1.13-2.68,1.13ZM12,3.75c-.71,0-1.12.9-1.67,2.27-.33.85-.68,1.73-1.24,2.3-.72.74-1.87.8-2.98.86-1.47.07-2.18.18-2.33.84-.17.73.31,1.22,1.37,2.09.79.65,1.68,1.38,1.92,2.47.21.93-.04,1.9-.29,2.85-.37,1.45-.48,2.19.12,2.64.56.42,1.15.11,2.36-.69.85-.56,1.73-1.15,2.73-1.15s1.88.58,2.73,1.15c1.21.8,1.8,1.11,2.36.69.6-.46.49-1.19.12-2.64-.24-.94-.49-1.92-.29-2.85.24-1.08,1.13-1.82,1.92-2.47,1.06-.87,1.54-1.36,1.37-2.09-.15-.66-.86-.76-2.33-.84-1.11-.06-2.26-.11-2.98-.86-.56-.57-.9-1.45-1.24-2.3-.54-1.37-.95-2.27-1.67-2.27Z" stroke-width="0"/></svg>