<?xml version="1.0" encoding="UTF-8"?><svg id="b" xmlns="http://www.w3.org/2000/svg" viewBox="0 0 16.18 20.01"><g id="c"><g id="d"><path d="m14.33,1.91c-1.25-1.21-2.8-1.91-4.24-1.91h-6.04C1.82,0,0,1.83,0,4.08v11.85c0,2.25,1.82,4.08,4.05,4.08h8.08c2.23,0,4.05-1.83,4.05-4.08V5.43c0-1.07-.71-2.41-1.85-3.52Zm.11,2.66l-1.57.03c-.91.02-1.14-.15-1.19-.2-.11-.11-.1-.49-.09-.85.01-.61-.02-1.25-.3-1.81.69.24,1.39.65,2,1.25.57.55.93,1.1,1.15,1.59h0Zm-2.3,13.93H4.05c-1.41,0-2.55-1.16-2.55-2.58V3.45c0-1.07.88-1.95,1.95-1.95h4.32c2.36.26,2.34.96,2.32,2.01-.01.61-.03,1.38.53,1.94.44.44,1.12.65,2.12.65h.16l1.71-.03s.08.04.08.08v9.78c0,1.42-1.14,2.58-2.55,2.58h0Z" fill="#444" stroke-width="0"/><path d="m6.09,11.76h-2c-.41,0-.75-.34-.75-.75s.34-.75.75-.75h2c.41,0,.75.34.75.75s-.34.75-.75.75Z" fill="#444" stroke-width="0"/><path d="m12.09,11.76h-2c-.41,0-.75-.34-.75-.75s.34-.75.75-.75h2c.41,0,.75.34.75.75s-.34.75-.75.75Z" fill="#444" stroke-width="0"/><path d="m6.09,15.76h-2c-.41,0-.75-.34-.75-.75s.34-.75.75-.75h2c.41,0,.75.34.75.75s-.34.75-.75.75Z" fill="#444" stroke-width="0"/><path d="m12.09,15.76h-2c-.41,0-.75-.34-.75-.75s.34-.75.75-.75h2c.41,0,.75.34.75.75s-.34.75-.75.75Z" fill="#444" stroke-width="0"/></g></g></svg>