<svg xmlns="http://www.w3.org/2000/svg" viewBox="0 0 24 24"><path fill="#444" d="M19.31 9.67c-.26-.57-.57-1.13-.91-1.66 0-.01-.01-.01-.02-.02-1.13-1.78-2.59-3.28-3.82-4.39-.18-.16-.35-.31-.52-.45-.36-.31-.69-.57-.97-.79-.31-.23-.66-.35-1.03-.36-.09 0-.17.01-.26.02-.3.03-.59.15-.85.34-.87.67-2.22 1.78-3.51 3.22 0 .01-.01.02-.01.02-.7.78-1.38 1.66-1.97 2.62-.05.09-.11.18-.16.28-.53.91-.96 1.88-1.23 2.9l-.03.12a7 7 0 0 0-.26 1.59c0 .06-.01.12-.01.18-.01.1-.01.2-.01.31v.14C3.74 18.3 7.44 22 12 22c1.35 0 2.62-.32 3.74-.9a8.23 8.23 0 0 0 3.33-3.08c0-.01.01-.03.03-.05a8.17 8.17 0 0 0 1.16-4.22c.01-1.43-.36-2.8-.95-4.08m-3.49 3.74-.23.03c-.2.02-.41.05-.61.09h-.01l-.33.06c-.67.13-1.37.32-2.06.58-2.53.94-5.05.27-6.39-.25-.35-.14-.62-.39-.77-.7.11-1.49.71-2.93 1.51-4.21 1.59-2.58 4.02-4.58 5.01-5.33.03-.03.05-.03.06-.03s.04 0 .07.03c.35.27.87.69 1.48 1.25 1.22 1.1 2.77 2.71 3.82 4.58l.02.02c.67 1.19 1.14 2.48 1.22 3.81-.72-.05-1.69-.06-2.79.07"/><path fill="#444" d="M10.06 6.32h-.01c-.54.58-1.2 1.28-1.42 2.66-.04.27.14.53.41.57h.08c.24 0 .45-.17.49-.42.17-1.08.66-1.59 1.17-2.13l.05-.05c.19-.2.16-.49-.04-.68s-.54-.15-.73.05"/></svg>