<?xml version="1.0" encoding="UTF-8"?><svg id="d" xmlns="http://www.w3.org/2000/svg" viewBox="0 0 24 24"><path d="m19.67,11.88s0,0,0,0c-.36-2.2-1.89-4-3.98-4.73l-.69-1.24h0c-.64-1.2-1.74-2.1-3.06-2.46-1.32-.37-2.73-.18-3.91.52h0s-1.25.76-1.25.76h-.01c-2.13,1.34-3.03,3.96-2.22,6.31-.19.6-.3,1.22-.3,1.85h0v1.78h0c-.02,3.33,2.66,6.06,5.99,6.08h3.51c3.15-.02,5.74-2.46,5.97-5.59,0,0,0,0,0,0,.01-.16.02-.32.02-.49v-1.78c0-.34-.03-.67-.08-1Zm-3.43,1.66c0-.44.36-.8.8-.8h1.2s.01.09.01.14v1.46h-1.21c-.44,0-.8-.36-.8-.8ZM7.57,6l1.24-.75c.82-.49,1.81-.62,2.73-.37.92.26,1.7.89,2.14,1.73,0,0,0,0,0,.01l.1.17s-.02,0-.03,0h-3.51c-1.75,0-3.36.79-4.47,2.05.13-1.14.76-2.2,1.79-2.85Zm6.18,13.25h-3.49c-2.51-.02-4.52-2.07-4.51-4.58h0v-1.78h0c0-.55.1-1.09.28-1.61,0,0,0,0,0,0,0,0,0,0,0,0,.64-1.78,2.33-2.97,4.22-2.98h3.5c.41,0,.82.06,1.21.17,1.4.41,2.49,1.45,2.99,2.78h-.91c-1.27,0-2.3,1.03-2.3,2.3s1.03,2.3,2.3,2.3h1.06c-.5,1.96-2.27,3.39-4.35,3.4Z" fill="#444" stroke-width="0"/></svg>