<?xml version="1.0" encoding="UTF-8"?><svg id="b" xmlns="http://www.w3.org/2000/svg" viewBox="0 0 17.8 19.95"><g id="c"><g id="d"><path d="m7.04,1.4h3.72c.39,0,.7-.31.7-.7s-.31-.7-.7-.7h-3.72c-.39,0-.7.31-.7.7s.31.7.7.7Z" fill="#444" stroke-width="0"/><path d="m8.9,5.48c-.39,0-.7.31-.7.7v3.74c0,.39.31.7.7.7s.7-.31.7-.7v-3.74c0-.39-.31-.7-.7-.7Z" fill="#444" stroke-width="0"/><path d="m8.9,19.95C3.24,19.95,0,16.7,0,11.05S3.24,2.15,8.9,2.15s8.9,3.24,8.9,8.9-3.24,8.9-8.9,8.9Zm0-16.3c-4.77,0-7.4,2.63-7.4,7.4s2.63,7.4,7.4,7.4,7.4-2.63,7.4-7.4-2.63-7.4-7.4-7.4Z" fill="#444" stroke-width="0"/></g></g></svg>