<?xml version="1.0" encoding="UTF-8"?><svg id="e" xmlns="http://www.w3.org/2000/svg" viewBox="0 0 24 24"><path d="m19.87,4.31c-.22-.09-5.28-2.31-7.87-2.31s-7.65,2.22-7.94,2.35c-.33.19-1.94,1.43-1.94,7.23,0,7.21,6.84,9.67,9.78,10.4.06.01.12.02.18.02s.12-.01.18-.02c2.26-.56,9.62-2.95,9.62-10.4,0-5.8-1.61-7.04-2.01-7.27Zm-5.37,9.91c-.14.14-.33.21-.52.21-.2,0-.39-.07-.54-.22l-1.42-1.43-1.46,1.48c-.15.15-.34.22-.54.22s-.38-.07-.52-.22c-.3-.29-.3-.76-.01-1.06l1.48-1.48-1.43-1.44c-.29-.29-.29-.77,0-1.06.3-.29.77-.29,1.06,0l1.42,1.43,1.38-1.38c.29-.3.76-.29,1.06,0,.29.29.29.76,0,1.06l-1.38,1.39,1.43,1.44c.29.29.29.76-.01,1.06Z" fill="#444" stroke-width="0"/></svg>