<svg xmlns="http://www.w3.org/2000/svg" viewBox="0 0 24 24"><path fill="#5e656d" d="m20.68 5.49-2.2-2.21A4.36 4.36 0 0 0 15.42 2H11.9C9.43 2 7.7 3.68 7.59 6.12H6.38c-2.55 0-4.33 1.79-4.33 4.35v7.19c0 2.56 1.78 4.35 4.33 4.35h5.72c2.46 0 4.19-1.68 4.3-4.11h1.21c2.55 0 4.33-1.79 4.33-4.35V8.56c0-1.14-.46-2.26-1.27-3.07Zm-5.75 12.17c0 1.76-1.08 2.85-2.83 2.85H6.38c-1.74 0-2.83-1.09-2.83-2.85v-7.19c0-1.76 1.08-2.85 2.83-2.85H9.9c.74 0 1.47.3 2 .83l2.2 2.2c.53.53.83 1.27.83 2.02zm5.52-4.11c0 1.73-1.11 2.85-2.83 2.85h-1.19v-3.73c0-1.14-.46-2.26-1.27-3.07l-2.2-2.2A4.36 4.36 0 0 0 9.9 6.12h-.82c.09-1.6 1.18-2.62 2.82-2.62h3.52c.74 0 1.47.3 2 .83l2.2 2.21c.53.53.83 1.27.83 2.02z"/></svg>