<svg xmlns="http://www.w3.org/2000/svg" viewBox="0 0 24 24"><path fill="#444" d="M21.06 11.25c-.41 0-.75.34-.75.75 0 5.29-2.97 8.2-8.35 8.2S3.61 17.29 3.61 12s2.96-8.2 8.35-8.2c.41 0 .75-.34.75-.75s-.34-.75-.75-.75C5.7 2.3 2.11 5.84 2.11 12s3.59 9.7 9.85 9.7 9.85-3.53 9.85-9.7c0-.41-.34-.75-.75-.75"/><path fill="#444" d="M10.65 8.22c.4-.09.66-.49.57-.9-.09-.4-.5-.66-.9-.57-2.49.57-3.86 2.43-3.86 5.25 0 3.4 2.06 5.43 5.51 5.43 2.96 0 4.93-1.52 5.41-4.16a.75.75 0 0 0-.6-.87c-.4-.07-.8.2-.87.6-.44 2.42-2.38 2.93-3.94 2.93-2.62 0-4.01-1.36-4.01-3.93 0-2.13.88-3.37 2.7-3.78Z"/><path fill="#444" d="m14.28 8.67-2.84 2.79c-.3.29-.3.77 0 1.06.15.15.34.22.54.22s.38-.07.53-.22l2.79-2.74.43.17s.06.02.1.03c.31.08.63.11.94.11.96 0 1.87-.36 2.56-1.03l2.38-2.34a.73.73 0 0 0 .2-.71.75.75 0 0 0-.51-.54l-2-.61-.62-1.96a.75.75 0 0 0-1.24-.31l-2.38 2.34c-.98.96-1.33 2.31-.92 3.52l.07.22ZM16.18 6l1.51-1.48.37 1.17c.07.24.26.42.5.49l1.17.36-1.48 1.45c-.52.51-1.28.71-2.04.54l-.45-.17-.13-.4c-.22-.66-.01-1.41.55-1.97Z"/></svg>