<svg xmlns="http://www.w3.org/2000/svg" viewBox="0 0 24 24"><path fill="#444" fill-rule="evenodd" d="M14.25 4.78v3.06c0 .11 0 .27.02.41.03.17.11.49.44.68.32.19.63.12.78.07.13-.04.27-.11.38-.16l.85-.41c.17-.08.37-.08.54 0l.85.41c.11.05.25.12.38.16.15.05.46.12.78-.07.33-.19.42-.52.44-.68.02-.14.02-.29.02-.41V3.33c.11 0 .22 0 .33-.01 1.07-.04 1.92.84 1.92 1.91v11.21c0 1.11-.91 2.01-2.02 2.08-.97.06-2.11.18-2.98.41-1.08.29-2.37.9-3.37 1.44-.28.15-.58.26-.88.32V5.47c.32-.08.63-.2.92-.37.18-.11.38-.22.58-.32Zm5.48 8.34c.1.4-.14.81-.55.91l-4 1c-.4.1-.81-.14-.91-.55-.1-.4.14-.81.54-.91l4-1c.4-.1.81.14.91.55Zm-8.48-7.61c-.33-.06-.66-.18-.97-.34C9.29 4.65 8.05 4.06 7 3.78c-.87-.23-1.99-.35-2.95-.41C2.94 3.3 2 4.18 2 5.29v11.15c0 1.11.91 2.01 2.02 2.08.97.06 2.11.18 2.98.41 1.08.29 2.37.9 3.37 1.44.28.15.58.26.88.32zm-6.98 3.6c.1-.4.51-.65.91-.55l4 1c.4.1.65.51.55.91s-.51.65-.91.55l-4-1c-.4-.1-.65-.51-.54-.91Zm.91 3.45c-.4-.1-.81.14-.91.55-.1.4.14.81.54.91l4 1c.4.1.81-.14.91-.55.1-.4-.14-.81-.55-.91l-4-1Z"/><path fill="#444" d="M18.25 3.45c-.62.07-1.23.18-1.75.34q-.36.105-.75.27v3.18l.75-.36s.26-.14.49-.14c.05 0 .09 0 .14.01.17.03.32.1.35.12s.75.36.75.36V3.44Z"/></svg>