<svg xmlns="http://www.w3.org/2000/svg" viewBox="0 0 24 24"><g fill="#5e656d"><path d="M16.62 2.98H7.38C3.26 2.98 2 4.23 2 8.32v7.35c0 4.1 1.26 5.34 5.38 5.34h9.25c4.12 0 5.38-1.25 5.38-5.34V8.32c0-4.1-1.26-5.34-5.38-5.34Zm3.88 12.69c0 3.27-.58 3.84-3.88 3.84H7.38c-3.3 0-3.88-.57-3.88-3.84V8.32c0-3.27.58-3.84 3.88-3.84h9.25c3.3 0 3.88.57 3.88 3.84v7.35Z"/><path d="M18.47 7.58h-4.62c-.41 0-.75.34-.75.75s.34.75.75.75h4.62c.41 0 .75-.34.75-.75s-.34-.75-.75-.75m0 3.67h-3.7c-.41 0-.75.34-.75.75s.34.75.75.75h3.7c.41 0 .75-.34.75-.75s-.34-.75-.75-.75m0 3.67h-1.85c-.41 0-.75.34-.75.75s.34.75.75.75h1.85c.41 0 .75-.34.75-.75s-.34-.75-.75-.75M8.76 12.1c1.34 0 2.42-1.08 2.42-2.41a2.42 2.42 0 0 0-4.84 0 2.42 2.42 0 0 0 2.42 2.41m0-3.33c.51 0 .92.41.92.91s-.41.91-.92.91-.92-.41-.92-.91.42-.91.92-.91m.78 3.96c-.51-.05-1.03-.05-1.55 0-1.7.16-3.05 1.5-3.21 3.17-.04.41.26.78.67.82s.78-.26.82-.67c.09-.96.88-1.73 1.86-1.82.42-.04.85-.04 1.27 0 .98.09 1.76.85 1.85 1.82.04.39.36.68.75.68h.07a.75.75 0 0 0 .67-.82c-.16-1.69-1.52-3.02-3.21-3.17Z"/></g></svg>