<svg xmlns="http://www.w3.org/2000/svg" viewBox="0 0 24 24"><g fill="#444"><path d="M16.22 4.07V2.86c0-.43-.35-.77-.77-.77s-.77.35-.77.77v.96c-.9-.1-1.9-.14-3.02-.14s-2.13.04-3.03.14v-.96c0-.43-.35-.77-.77-.77s-.77.35-.77.77v1.21c-3.84.89-5.07 3.34-5.07 8.66 0 6.41 1.79 8.68 7.78 9.03.36.01.75.03 1.15.03h.03c.39-.03.7-.35.7-.76v-.02c0-.4-.32-.74-.71-.76-.16 0-.32 0-.46-.01-5.65-.16-6.95-1.7-6.95-7.51 0-.95.04-1.78.12-2.52 0-.09.06-.11.12-.11h15.72c.07 0 .13.01.13.11.05.47.08.99.1 1.55.01.42.35.76.77.76s.77-.34.77-.76v-.02c-.16-4.63-1.47-6.83-5.06-7.67ZM7.07 5.64v.38c0 .43.35.77.77.77s.77-.35.77-.77v-.66c.86-.1 1.87-.14 3.03-.14s2.15.04 3.02.14v.66c0 .43.35.77.77.77s.77-.35.77-.77v-.38c1.62.44 2.54 1.28 3.03 2.74.03.08-.03.17-.12.17H4.16c-.09 0-.15-.09-.12-.17.5-1.47 1.42-2.31 3.04-2.75Z"/><path d="M21.83 15.02c-.11-.23-.24-.44-.44-.65l-.87-.87c-.19-.19-.41-.35-.74-.48-.23-.07-.47-.12-.75-.12-.54 0-1.06.23-1.44.62l-3.78 3.77c-.26.27-.47.59-.62.95s-.22.74-.22 1.13v1.22c0 .36.15.69.4.95s.59.4.97.4h1.23a2.92 2.92 0 0 0 2.08-.85l3.78-3.79c.17-.19.31-.4.42-.65.21-.52.21-1.1-.01-1.61m-1.54.95c-.03.06-.06.13-.09.15l-3.76 3.77c-.12.12-.25.21-.39.26-.16.06-.33.09-.49.09h-.92v-.88c0-.17.03-.34.09-.48.06-.16.16-.31.27-.41l3.77-3.76s.08-.07.11-.08c.06-.02.13-.04.17-.04.07 0 .14.01.13 0 .05.02.09.05.14.09l.86.86.11.15c.02.05.03.11.03.16 0 .08 0 .11-.02.13"/></g></svg>