<svg xmlns="http://www.w3.org/2000/svg" viewBox="0 0 24 24"><path fill="#444" fill-rule="evenodd" d="M12 2.36c-1.05 0-2.38.1-3.43.21a3.39 3.39 0 0 0-2.95 2.48c-.27.99-.59 2.25-.77 3.26-.12.69-.21 1.52-.28 2.3l-.35.02c-.27.02-.49.03-.64.04h-.17l-.05.01h-.01c-.59.04-1.04.55-.99 1.14.04.59.55 1.04 1.14.99s.01 0 .01 0h.04l.17-.01c.15 0 .36-.02.63-.04.54-.03 1.29-.08 2.15-.13 1.72-.09 3.84-.18 5.49-.18s3.76.09 5.49.18c.86.05 1.61.09 2.15.13.27.02.49.03.63.04h.17l.04.01h.01c.59.04 1.1-.4 1.14-.99s-.4-1.1-.99-1.14-.01 0-.01 0h-.05l-.17-.01c-.15-.01-.37-.02-.64-.04l-.35-.02c-.07-.78-.16-1.61-.28-2.3-.17-1.01-.49-2.27-.77-3.26a3.4 3.4 0 0 0-2.95-2.48c-1.05-.1-2.37-.21-3.43-.21ZM6.11 17.92c0-.63.18-.98.36-1.17.19-.19.53-.36 1.17-.36s.98.18 1.17.36c.19.19.36.53.36 1.17s-.18.98-.36 1.17c-.19.19-.53.36-1.17.36s-.98-.18-1.17-.36c-.19-.19-.36-.53-.36-1.17m1.53-3.67c-1.03 0-1.98.29-2.68.99s-.99 1.65-.99 2.68.29 1.98.99 2.68 1.65.99 2.68.99 1.98-.29 2.68-.99c.57-.57.87-1.32.96-2.15.45-.24.99-.24 1.44 0 .08.84.38 1.62.97 2.2.7.7 1.65.99 2.68.99s1.98-.29 2.68-.99.99-1.65.99-2.68-.29-1.98-.99-2.68-1.65-.99-2.68-.99-1.98.29-2.68.99c-.29.29-.51.62-.66.98a3.65 3.65 0 0 0-2.02 0c-.16-.38-.38-.73-.68-1.03-.7-.7-1.65-.99-2.68-.99Zm7.56 2.56c-.19.19-.36.53-.36 1.17s.18.98.36 1.17c.19.19.53.36 1.17.36s.98-.18 1.17-.36c.19-.19.36-.53.36-1.17s-.17-.98-.36-1.17-.53-.36-1.17-.36-.98.18-1.17.36"/></svg>