<svg xmlns="http://www.w3.org/2000/svg" viewBox="0 0 24 24"><path fill="#444" d="M16.76 16.82a.753.753 0 0 0-.33 1.47c1.6.36 2.12.81 2.18.85-.21.48-2.66 1.37-6.6 1.37s-6.39-.89-6.6-1.29c.06-.13.58-.57 2.18-.93.4-.09.66-.49.57-.9a.77.77 0 0 0-.9-.57c-2.21.5-3.34 1.29-3.34 2.35 0 2.23 5.09 2.83 8.09 2.83s8.09-.6 8.09-2.83c0-1.06-1.12-1.85-3.34-2.35m-1.79-8.05c0-1.65-1.33-2.99-2.97-2.99S9.03 7.12 9.03 8.77s1.33 2.99 2.97 2.99 2.97-1.34 2.97-2.99m-4.45 0c0-.82.66-1.49 1.47-1.49s1.47.67 1.47 1.49-.66 1.49-1.47 1.49-1.47-.67-1.47-1.49"/><path fill="#444" d="M12 17.92c1.11 0 2.22-.42 3.09-1.26 2.14-2.07 4.51-5.38 3.62-9.35-.82-3.63-3.96-5.25-6.71-5.25S6.11 3.68 5.29 7.31c-.89 3.97 1.47 7.28 3.61 9.36.87.84 1.98 1.26 3.1 1.26ZM6.75 7.63c.68-3.01 3.25-4.08 5.24-4.08 2 0 4.57 1.07 5.24 4.08.74 3.29-1.33 6.14-3.2 7.94a2.94 2.94 0 0 1-4.1 0C8.07 13.76 6 10.91 6.74 7.62Z"/></svg>