<?xml version="1.0" encoding="UTF-8"?><svg id="a" xmlns="http://www.w3.org/2000/svg" viewBox="0 0 24 24"><path d="m8.72,14.41v3.19c0,.15-.12.27-.26.27h-1.33c-.15,0-.26-.13-.26-.27v-3.19c0-.15.12-.26.26-.26h1.33c.15,0,.26.12.26.26Z" fill="#444" stroke-width="0"/><path d="m12.93,14.41v3.19c0,.15-.12.27-.26.27h-1.33c-.15,0-.26-.13-.26-.27v-3.19c0-.15.12-.26.26-.26h1.33c.15,0,.26.12.26.26Z" fill="#444" stroke-width="0"/><path d="m17.14,14.41v3.19c0,.15-.12.27-.26.27h-1.33c-.15,0-.26-.13-.26-.27v-3.19c0-.15.12-.26.26-.26h1.33c.15,0,.26.12.26.26Z" fill="#444" stroke-width="0"/><path d="m8.72,14.41v3.19c0,.15-.12.27-.26.27h-1.33c-.15,0-.26-.13-.26-.27v-3.19c0-.15.12-.26.26-.26h1.33c.15,0,.26.12.26.26Z" fill="#444" stroke-width="0"/><path d="m12.93,14.41v3.19c0,.15-.12.27-.26.27h-1.33c-.15,0-.26-.13-.26-.27v-3.19c0-.15.12-.26.26-.26h1.33c.15,0,.26.12.26.26Z" fill="#444" stroke-width="0"/><path d="m17.14,14.41v3.19c0,.15-.12.27-.26.27h-1.33c-.15,0-.26-.13-.26-.27v-3.19c0-.15.12-.26.26-.26h1.33c.15,0,.26.12.26.26Z" fill="#444" stroke-width="0"/><path d="m12.93,14.41v3.19c0,.15-.12.27-.26.27h-1.33c-.15,0-.26-.13-.26-.27v-3.19c0-.15.12-.26.26-.26h1.33c.15,0,.26.12.26.26Z" fill="#444" stroke-width="0"/><path d="m8.72,14.41v3.19c0,.15-.12.27-.26.27h-1.33c-.15,0-.26-.13-.26-.27v-3.19c0-.15.12-.26.26-.26h1.33c.15,0,.26.12.26.26Z" fill="#444" stroke-width="0"/><path d="m17.14,14.41v3.19c0,.15-.12.27-.26.27h-1.33c-.15,0-.26-.13-.26-.27v-3.19c0-.15.12-.26.26-.26h1.33c.15,0,.26.12.26.26Z" fill="#444" stroke-width="0"/><path d="m22,10.22l-.96-7.74c-.02-.16-.15-.28-.31-.28h-1.67c-.16,0-.29.12-.31.27l-.99,7.56c-.01.11-.1.18-.21.18h-3.84c-.06,0-.13-.06-.13-.14v-2.46c0-.15-.15-.25-.28-.19l-4.8,1.92c-.08.03-.18-.03-.18-.12v-1.59c0-.15-.15-.24-.28-.19l-5.76,2.45c-.17.07-.27.23-.27.42v11.03c0,.24.2.44.44.44h19.12c.24,0,.44-.2.44-.44v-11.14h0Zm-1.58,9.79c0,.12-.09.21-.21.21H3.79c-.12,0-.21-.09-.21-.21v-8.63c0-.18.1-.34.26-.41l2.71-1.2c.08-.03.18.02.18.12v1.71c0,.07.07.13.14.09l4.96-1.98c.08-.03.17.03.17.11v1.81c0,.09.08.17.17.17h8.04c.12,0,.21.09.21.21v8Z" fill="#444" stroke-width="0"/></svg>