<?xml version="1.0" encoding="UTF-8"?><svg id="c" xmlns="http://www.w3.org/2000/svg" viewBox="0 0 24 24"><path d="m21.27,6.24s0-.02,0-.02c-.22-.61-.5-1.13-.84-1.59,0,0,0,0-.02-.02l-15.79,15.79s.02.02.03,0c.49.38,1.08.67,1.75.89,1.42.49,3.25.68,5.61.68s4.21-.2,5.64-.69c1.83-.62,2.97-1.72,3.62-3.51,0,0,0-.02,0-.04.52-1.44.73-3.31.73-5.74s-.21-4.32-.73-5.76Zm-3.11,9.79h-1.6v1.66c0,.39-.32.71-.71.71s-.72-.32-.72-.71v-1.66h-1.72c-.38,0-.71-.33-.71-.71s.33-.72.71-.72h1.72v-1.66c0-.39.33-.71.72-.71s.71.32.71.71v1.66h1.6c.39,0,.72.33.72.72s-.33.71-.72.71Zm1.21-12.45h0c-.49-.38-1.08-.67-1.75-.89-1.42-.49-3.25-.68-5.61-.68s-4.21.2-5.64.69c-1.83.62-2.97,1.72-3.62,3.51,0,0,0,.02,0,.04-.52,1.44-.73,3.31-.73,5.74s.21,4.32.73,5.76c0,0,0,.02,0,.02.22.61.5,1.13.84,1.59,0,0,0,0,.02.02L19.39,3.6s0,0-.02,0Zm-13.52,3.43h4.74c.38,0,.71.33.71.71s-.33.72-.71.72h-4.74c-.39,0-.72-.33-.72-.72s.33-.71.72-.71Z" fill="#6b737f" stroke-width="0"/></svg>