<svg xmlns="http://www.w3.org/2000/svg" viewBox="0 0 24 24"><path fill="#444" d="M12 6.8c-1.99 0-3.62 1.63-3.62 3.64S10 14.08 12 14.08s3.62-1.63 3.62-3.64S14 6.8 12 6.8m0 5.77c-1.17 0-2.12-.96-2.12-2.14s.95-2.14 2.12-2.14 2.12.96 2.12 2.14-.95 2.14-2.12 2.14"/><path fill="#444" d="M20.43 8.6C19.41 4.04 15.46 2 12 2S4.6 4.04 3.57 8.59c-1.13 5.02 1.87 9.22 4.59 11.85C9.24 21.48 10.62 22 12 22s2.76-.52 3.83-1.56c2.72-2.63 5.73-6.82 4.6-11.84m-5.65 10.77a3.984 3.984 0 0 1-5.58 0C6.76 17 4.05 13.26 5.03 8.92c.9-4 4.32-5.42 6.97-5.42s6.07 1.42 6.97 5.43c.98 4.34-1.74 8.07-4.18 10.44Z"/></svg>