<svg xmlns="http://www.w3.org/2000/svg" viewBox="0 0 19.5 20"><g fill="#444"><path d="M4.73 3.33c.3 1.78 1.7 1.79 2.49 1.79h3.73c1.92 0 2.4-.94 2.52-1.79 1.47.18 2.44.67 2.93 2.05.08.28.31.45.58.47.05 0 .09.01.14 0 .05 0 .1-.02.15-.03.29-.08.49-.35.49-.65 0-.06 0-.13-.03-.2-.64-1.85-1.98-2.81-4.26-3.05-.25-1.93-1.7-1.94-2.51-1.94H7.23c-.81 0-2.26 0-2.51 1.94C1.38 2.31 0 4.14 0 8.15v5.59c0 3.31.77 5.54 4.24 6.13.11.02.22.04.34.06l.57.06h.21c.35 0 .65-.26.69-.63v-.07c0-.35-.26-.65-.63-.69h-.09c-.23-.02-.52-.05-.72-.09-2.72-.38-3.22-1.86-3.22-4.78V8.14c0-3.59 1.12-4.57 3.33-4.82Zm2.49-1.94h3.73c.92 0 1.16 0 1.16 1.16 0 .93 0 1.16-1.16 1.16H7.22c-.92 0-1.16 0-1.16-1.16s.24-1.16 1.16-1.16"/><path d="M18.93 9.71s-.02-.04-.04-.06l-.93-.93c-.81-.8-2.17-.8-2.98 0l-6.42 6.42c-.28.28-.5.62-.66.99-.15.37-.23.77-.23 1.16v1.35a1.3 1.3 0 0 0 1.3 1.3h1.35c.39 0 .78-.08 1.16-.23s.71-.38.99-.66l5.34-5.34.03-.03c.01-.01.02-.02.03-.04l1.01-1.01c.4-.4.61-.93.61-1.49s-.2-1.04-.57-1.44Zm-7.49 8.31c-.15.15-.32.27-.51.34-.19.08-.4.12-.6.12H9.14v-1.19a1.57 1.57 0 0 1 .46-1.11l4.85-4.86 1.84 1.84-4.85 4.85Zm6.44-6.44s0 .01-.01.02l-.52.52-1.84-1.84.52-.52c.27-.26.68-.24.91 0l.93.93c.13.13.19.29.19.46s-.06.33-.17.44Z"/></g></svg>