<?xml version="1.0" encoding="UTF-8"?><svg id="b" xmlns="http://www.w3.org/2000/svg" viewBox="0 0 19.27 20"><g id="c"><g id="d"><path d="m9.64,20c-2.12,0-9.64-2.84-9.64-11.85C0,2.74,3.24,0,9.64,0s9.64,2.74,9.64,8.15c0,9.01-7.51,11.85-9.64,11.85Zm0-18.5C6.14,1.5,1.5,2.19,1.5,8.15c0,7.76,6.41,10.35,8.14,10.35s8.14-2.59,8.14-10.35c0-5.96-4.64-6.65-8.14-6.65Z" fill="#444" stroke-width="0"/><path d="m12.75,12.4c-.46,0-.9-.08-1.27-.21-.36-.13-.63-.44-.7-.81-.08-.43-.41-2.65.97-4.17h0c1.12-1.24,2.75-1.24,3.8-.88.36.13.63.44.7.81.08.43.41,2.65-.97,4.17-.73.8-1.67,1.09-2.53,1.09Zm-.49-1.3h0,0Zm-.04-.26c.43.1,1.3.18,1.95-.54.66-.73.73-1.9.64-2.62-.44-.1-1.3-.17-1.95.54,0,0,0,0,0,0-.66.73-.73,1.89-.64,2.62Zm.09-3.13h0,0Zm-5.85,4.69c-.86,0-1.8-.28-2.53-1.09-1.38-1.52-1.05-3.74-.97-4.17.07-.37.34-.69.7-.81,1.05-.37,2.67-.36,3.8.87h0c1.38,1.52,1.05,3.74.97,4.17-.07.37-.34.69-.7.81-.37.13-.81.21-1.27.21Zm-2.06-4.72c-.08.73-.02,1.89.64,2.62.65.71,1.51.64,1.95.54.08-.73.02-1.89-.64-2.62-.65-.71-1.51-.64-1.95-.54Z" fill="#444" stroke-width="0"/></g></g></svg>