<?xml version="1.0" encoding="UTF-8"?><svg id="b" xmlns="http://www.w3.org/2000/svg" viewBox="0 0 20 19.45"><g id="c"><g id="d"><path d="m12.48,8.92l-.2.22c-.58.64-.89,1.46-.89,2.32l-.02,6.38c-.05.1-.17.14-.27.09l-1.9-.95-.11-.17v-5.35c0-.86-.32-1.69-.9-2.32L1.55,1.82s-.05-.08-.05-.13c0-.11.09-.2.2-.2h9.04c.41,0,.75-.34.75-.75S11.16,0,10.74,0H1.79C1.07,0,.37.4.12,1.07c-.24.63-.1,1.3.32,1.76l6.64,7.31c.33.36.51.83.51,1.31v5.35c0,.64.36,1.23.94,1.52l1.9.95c.24.12.5.18.75.18.62,0,1.22-.34,1.52-.93.12-.23.18-.5.18-.76v-6.3c0-.49.18-.95.5-1.31l.2-.22c.28-.31.26-.78-.05-1.06-.31-.28-.78-.26-1.06.05Z" fill="#444" stroke-width="0"/><path d="m18.1,3.74c-.09-.08-.09-.22,0-.31l1.68-1.68c.29-.29.29-.77,0-1.06-.29-.29-.77-.29-1.06,0l-1.69,1.68c-.08.08-.22.08-.31,0l-1.69-1.68c-.29-.29-.77-.29-1.06,0-.29.29-.29.77,0,1.06l1.68,1.68c.09.08.09.22,0,.31l-1.68,1.68c-.29.29-.29.77,0,1.06.15.15.34.22.53.22s.38-.07.53-.22l1.69-1.68c.08-.08.22-.08.31,0l1.69,1.68c.15.15.34.22.53.22s.38-.07.53-.22c.29-.29.29-.77,0-1.06l-1.68-1.68Z" fill="#444" stroke-width="0"/></g></g></svg>