<?xml version="1.0" encoding="UTF-8"?><svg id="b" xmlns="http://www.w3.org/2000/svg" viewBox="0 0 18.02 19.56"><g id="c"><path id="d" d="m8.27,19.37L.78,15.22c-.48-.27-.78-.78-.78-1.33V5.68c0-.55.3-1.06.78-1.33L8.27.19c.46-.25,1.02-.25,1.47,0l7.49,4.16c.48.27.78.78.78,1.33v8.21c0,.55-.3,1.06-.78,1.33l-7.49,4.16c-.46.25-1.02.25-1.47,0Zm-2.23-12.12s.04,0,.06,0c.37-.41.8-.73,1.3-.96.51-.24,1.05-.35,1.61-.35s1.1.12,1.61.35c.5.23.93.55,1.3.96.01.02.04.02.06,0l3.42-1.9c.09-.05.09-.19,0-.24l-6.32-3.51s-.09-.02-.13,0l-6.32,3.51c-.09.05-.09.19,0,.24l3.42,1.9Zm2.2,10.1v-3.74s-.02-.04-.04-.05c-1.05-.24-1.88-.83-2.48-1.76-.33-.51-.52-1.11-.56-1.72-.02-.33,0-.62.03-.89.03-.18.07-.37.14-.56l-3.58-2c-.09-.05-.2.01-.2.12v7.04s.03.1.07.12l6.42,3.56c.09.05.2-.02.2-.12Zm2.41-5.92c.45-.45.67-1,.67-1.64s-.22-1.19-.67-1.64c-.45-.45-1-.67-1.64-.67s-1.19.22-1.64.67c-.45.45-.67,1-.67,1.64s.22,1.19.67,1.64c.45.45,1,.67,1.64.67s1.19-.22,1.64-.67Zm-.67,6.04l6.42-3.56s.07-.07.07-.12v-7.04c0-.1-.11-.17-.2-.12l-3.58,2c.06.19.11.38.14.56.04.27.05.57.03.89-.04.61-.23,1.21-.56,1.72-.6.93-1.43,1.51-2.48,1.76-.02,0-.04.02-.04.05v3.74c0,.1.11.17.2.12Z" fill="#444" stroke-width="0"/></g></svg>