<?xml version="1.0" encoding="UTF-8"?><svg id="b" xmlns="http://www.w3.org/2000/svg" viewBox="0 0 19.5 19.5"><g id="c"><g id="d"><path d="m4.75,0h-.8C1.77,0,0,1.77,0,3.95v.8c0,.41.34.75.75.75s.75-.34.75-.75v-.8c0-1.35,1.1-2.45,2.45-2.45h.8c.41,0,.75-.34.75-.75s-.34-.75-.75-.75Z" fill="#444" stroke-width="0"/><path d="m15.55,0h-.8c-.41,0-.75.34-.75.75s.34.75.75.75h.8c1.35,0,2.45,1.1,2.45,2.45v.8c0,.41.34.75.75.75s.75-.34.75-.75v-.8c0-2.18-1.77-3.95-3.95-3.95Z" fill="#444" stroke-width="0"/><path d="m18.75,14c-.41,0-.75.34-.75.75v.8c0,1.35-1.1,2.45-2.45,2.45h-.8c-.41,0-.75.34-.75.75s.34.75.75.75h.8c2.18,0,3.95-1.77,3.95-3.95v-.8c0-.41-.34-.75-.75-.75Z" fill="#444" stroke-width="0"/><path d="m4.75,18h-.8c-1.35,0-2.45-1.1-2.45-2.45v-.8c0-.41-.34-.75-.75-.75s-.75.34-.75.75v.8c0,2.18,1.77,3.95,3.95,3.95h.8c.41,0,.75-.34.75-.75s-.34-.75-.75-.75Z" fill="#444" stroke-width="0"/><path d="m12.78,11.9c.42-.64.63-1.43.63-2.35,0-2.46-1.41-3.87-3.87-3.87s-3.87,1.41-3.87,3.87,1.41,3.87,3.87,3.87c.93,0,1.72-.21,2.35-.63l.87.87c.11.11.27.18.44.18s.33-.07.44-.19c.24-.25.24-.63,0-.88l-.86-.86Zm-.61-2.36c0,1.72-.91,2.62-2.62,2.62s-2.62-.91-2.62-2.62.91-2.62,2.62-2.62,2.62.91,2.62,2.62Z" fill="#444" stroke-width="0"/></g></g></svg>