<svg xmlns="http://www.w3.org/2000/svg" viewBox="0 0 24 24"><path fill="#5e656d" d="m20.11 6.97-3.08-3.08a5.72 5.72 0 0 0-4.08-1.69H8c-1.55 0-3.01.6-4.1 1.7C2.8 5 2.2 6.45 2.2 8v8c0 1.55.6 3.01 1.7 4.1C5 21.2 6.45 21.8 8 21.8h8c1.55 0 3.01-.6 4.1-1.7 1.1-1.09 1.7-2.55 1.7-4.1v-4.93c0-1.55-.6-3-1.69-4.09ZM18.98 8.1c.1.1.17.21.26.31-.39-.13-.8-.22-1.23-.22h-1c-.32 0-.62-.13-.85-.35-.11-.11-.2-.24-.26-.39s-.09-.3-.09-.46v-1c0-.43-.09-.84-.22-1.23.1.09.22.16.31.26zm1.23 7.9c0 1.12-.44 2.18-1.23 2.97s-1.85 1.23-2.97 1.23h-8c-1.12 0-2.18-.44-2.97-1.23A4.18 4.18 0 0 1 3.81 16V8c0-1.12.44-2.18 1.23-2.97S6.89 3.8 8.01 3.8h4c.59 0 1.14.23 1.56.65s.64.98.64 1.56v1c0 .37.07.73.21 1.07s.35.65.61.91c.53.53 1.23.82 1.98.82h1c.59 0 1.14.23 1.56.65s.64.98.64 1.56v4z"/></svg>