<?xml version="1.0" encoding="UTF-8"?><svg id="b" xmlns="http://www.w3.org/2000/svg" viewBox="0 0 19.03 19.11"><g id="c"><g id="d"><path d="m18.68,9.03v.04c0,.41-.33.74-.75.74s-.72-.32-.74-.73c-.21-4.93-1.85-6.05-7.83-6.05-6.46,0-7.86,1.29-7.86,7.3,0,5.55,1.2,7.07,6.48,7.26.01,0,0,0,0,0l.63.03h0c.41,0,.75.34.75.75s-.3.71-.68.74h-.25c-6.52-.17-8.43-2.26-8.43-8.78S2.1,1.53,9.36,1.53c6.77,0,9.05,1.73,9.32,7.5Z" fill="#444" stroke-width="0"/><path d="m5.67,4.56c-.41,0-.75-.34-.75-.75V.75c0-.41.34-.75.75-.75s.75.34.75.75v3.06c0,.41-.34.75-.75.75Z" fill="#444" stroke-width="0"/><path d="m13.05,4.56c-.41,0-.75-.34-.75-.75V.75c0-.41.34-.75.75-.75s.75.34.75.75v3.06c0,.41-.34.75-.75.75Z" fill="#444" stroke-width="0"/><rect x="1.25" y="6.28" width="16.23" height="1.5" fill="#444" stroke-width="0"/><path d="m15.22,11.34c.08-.12.12-.26.11-.41-.01-.17-.09-.32-.22-.43-.26-.23-.66-.2-.89.07l-1.05,1.22h0l-.12.19s-.03.06-.04.11v.12s-.01.06-.01.06l.03.14s.02.09.04.1l.28.3h0l1.16.86c.26.2.68.14.88-.13.1-.14.14-.3.12-.47-.03-.16-.11-.31-.25-.41l-.05-.04c1.42.02,2.56,1.19,2.56,2.62s-1.17,2.62-2.6,2.62-2.6-1.18-2.6-2.62v-.17c0-.42,0-.51.22-.94.19-.29.11-.68-.18-.87-.29-.19-.68-.11-.89.22-.33.72-.4,1.02-.4,1.76,0,2.14,1.73,3.88,3.86,3.88s3.86-1.74,3.86-3.88-1.71-3.86-3.82-3.88Z" fill="#444" stroke-width="0"/></g></g></svg>