<?xml version="1.0" encoding="UTF-8"?><svg id="c" xmlns="http://www.w3.org/2000/svg" viewBox="0 0 24 24"><path d="m6.7,10.21c-.4-.12-.81.11-.93.5-.12.4.1.81.5.93.6.18,1.25.32,1.94.43.04,0,.08,0,.11,0,.36,0,.68-.27.74-.64.06-.41-.22-.79-.63-.85-.62-.1-1.21-.22-1.73-.38Z" stroke-width="0"/><path d="m6.7,16.69c-.4-.12-.81.11-.93.5-.12.4.1.81.5.93.59.18,1.25.32,1.94.43.04,0,.08,0,.11,0,.36,0,.68-.27.74-.64.06-.41-.22-.79-.63-.85-.63-.1-1.21-.23-1.73-.38Z" stroke-width="0"/><path d="m20.42,17.54c-.4-.08-.8.18-.88.59-.28,1.38-1.5,2.37-2.9,2.37-1.63,0-2.96-1.33-2.96-2.97s1.33-2.97,2.96-2.97c.65,0,1.26.21,1.83.63l.87.54c.26.16.59.15.83-.03.25-.18.36-.49.29-.78l-.53-2.17c-.1-.4-.51-.65-.9-.55-.4.1-.65.5-.55.91l.1.4c-.6-.29-1.26-.44-1.94-.44-2.46,0-4.46,2-4.46,4.47s2,4.47,4.46,4.47c2.11,0,3.95-1.5,4.37-3.58.08-.41-.18-.8-.59-.88Z" stroke-width="0"/><path d="m11.31,20.5h-.23c-4.27,0-6.6-1.34-6.6-2.02v-4.36c1.49.89,3.9,1.37,6.29,1.41h.01c.41,0,.74-.33.75-.74,0-.41-.32-.75-.74-.76-4.14-.06-6.31-1.35-6.31-2.02v-4.34c1.55.92,4.08,1.39,6.6,1.39s5.05-.47,6.6-1.39v2.49c0,.41.34.75.75.75s.75-.34.75-.75v-4.62c0-2.31-4.08-3.52-8.1-3.52S2.98,3.21,2.98,5.52v12.95c0,2.31,4.07,3.52,8.1,3.52h.24c.41,0,.75-.35.74-.76,0-.41-.34-.74-.75-.74Zm-.23-17c4.27,0,6.6,1.34,6.6,2.02s-2.33,2.02-6.6,2.02-6.6-1.34-6.6-2.02,2.33-2.02,6.6-2.02Z" stroke-width="0"/></svg>