<?xml version="1.0" encoding="UTF-8"?><svg id="b" xmlns="http://www.w3.org/2000/svg" viewBox="0 0 19.3 19.12"><g id="c"><g id="d"><path d="m9.58,17.62h-.22c-6.46,0-7.86-1.29-7.86-7.29,0-.97.04-1.82.13-2.56h15.46c.04.34.07.7.09,1.09.02.4.34.72.74.72.42,0,.75-.34.75-.74v-.04c-.24-4.1-1.55-6.1-4.87-6.87,0,0,0,0,0,0V.75c0-.41-.34-.75-.75-.75s-.75.34-.75.75v.92c-.87-.09-1.85-.14-2.94-.14s-2.07.04-2.94.14v-.92c0-.41-.34-.75-.75-.75s-.75.34-.75.75v1.17s0,0,0,0C1.2,2.78,0,5.17,0,10.33c0,6.82,2.1,8.79,9.36,8.79h.24c.41-.01.73-.34.73-.75s-.33-.75-.75-.75ZM4.92,3.44s0,0,0,0v.37c0,.41.34.75.75.75s.75-.34.75-.75v-.64c.84-.1,1.81-.14,2.94-.14s2.1.04,2.94.14v.64c0,.41.34.75.75.75s.75-.34.75-.75v-.36s0,0,0,0c1.62.44,2.52,1.3,2.99,2.82,0,0,0,0,0,0H1.92s0,0,0,0c.47-1.53,1.37-2.39,3-2.83Z" fill="#444" stroke-width="0"/><path d="m15.85,15c-.35,0-.64.29-.64.64v.81c0,.35.29.64.64.64s.64-.29.64-.64v-.81c0-.35-.29-.64-.64-.64Z" fill="#444" stroke-width="0"/><path d="m18.16,13.49v-.4c-.01-.61-.26-1.2-.7-1.62-.43-.43-1-.65-1.64-.66-1.24.01-2.26,1.03-2.28,2.28v.4c-.77.45-1.13,1.24-1.13,2.48,0,2.09.99,2.94,3.44,2.94s3.45-.85,3.45-2.94c0-1.24-.36-2.03-1.14-2.48Zm-2.3,4.14c-1.87,0-2.17-.39-2.17-1.66,0-1.02.25-1.31.64-1.46.04-.01.09-.03.11-.04.31-.11.77-.16,1.42-.16s1.1.05,1.36.13l.12.05c.44.17.69.46.69,1.48,0,.63-.07,1.05-.38,1.31-.31.25-.85.35-1.79.35Zm.72-5.25c.2.19.31.45.31.72-.31-.04-.65-.06-1.03-.06s-.73.02-1.04.06c0-.56.47-1.01,1.03-1.02.28,0,.53.11.73.3Z" fill="#444" stroke-width="0"/></g></g></svg>