<svg xmlns="http://www.w3.org/2000/svg" viewBox="0 0 24 24"><g fill="#5e656d"><path d="m21.9 12.06-1.51-2.62-1.51-2.61a2.54 2.54 0 0 0-2.18-1.25h-.87V3.71c0-.41-.34-.75-.75-.75H8.84c-.72-.54-1.6-.87-2.57-.87s-1.91.33-2.67.93a4.19 4.19 0 0 0-.73 5.87v7.91c0 1.86 1.52 3.37 3.39 3.37h.26c.32 1.01 1.26 1.74 2.38 1.74s2.06-.74 2.38-1.74h2.28c.32 1.01 1.26 1.74 2.38 1.74s2.06-.74 2.38-1.74h.26c1.87 0 3.39-1.51 3.39-3.37v-4.36c0-.13-.03-.26-.1-.37Zm-1.4 1.37h-1.89c-.07 0-.13-.06-.13-.12v-2.62c0-.07.06-.12.13-.12h.7l1.19 2.07zm-6.17-8.97v7.97c0 .55-.45 1-1.01 1H4.38v-3.3c.09.04.18.07.26.11a3.5 3.5 0 0 0 .49.16c.03 0 .05.02.08.02.13.03.27.06.41.08.05 0 .1.02.14.02.13.01.25.02.38.02h.23c.14 0 .28-.03.42-.05.1-.01.2-.01.3-.03.18-.03.35-.09.52-.14l.21-.06c.17-.07.33-.15.49-.24.06-.03.13-.06.19-.1.12-.07.22-.16.33-.24.08-.06.17-.12.25-.18.18-.15.34-.32.49-.49.07-.08.12-.17.18-.26.06-.08.13-.16.18-.25 0-.02.02-.03.03-.05 0 0 .01-.02.02-.03.03-.05.05-.11.08-.16.06-.11.11-.21.16-.32.04-.09.07-.19.1-.28.03-.08.06-.17.09-.25.03-.12.05-.24.08-.36.01-.07.03-.13.04-.2.02-.12.02-.25.03-.37 0-.06.01-.12.01-.17v-.1c0-.11-.03-.21-.04-.31-.02-.17-.03-.35-.07-.52-.03-.13-.08-.25-.12-.38-.05-.15-.09-.29-.16-.43-.02-.04-.03-.08-.05-.12h4.22Zm-9.8-.27c.5-.4 1.1-.61 1.74-.61.73 0 1.39.28 1.88.74.08.08.16.16.23.25.05.06.1.11.15.18.06.08.1.16.15.24.04.08.09.15.13.23s.06.18.09.26.06.17.08.25c.02.1.03.2.04.29 0 .09.03.17.03.26 0 .11-.03.21-.04.32-.02.14-.02.28-.06.42-.04.13-.1.26-.16.38-.05.1-.08.21-.14.3-.04.07-.09.13-.13.19-.03.05-.07.1-.1.15-.09.1-.18.2-.29.29-.07.07-.15.12-.22.18-.06.05-.12.1-.19.14-.04.03-.09.05-.14.07-.1.05-.2.11-.31.15-.04.01-.08.02-.12.04-.12.04-.23.07-.35.1-.06.01-.12.01-.18.02-.1.01-.21.03-.31.03h-.12c-.2 0-.4-.03-.59-.07-.04-.01-.08-.03-.12-.04-.17-.05-.33-.11-.48-.19-.07-.04-.13-.07-.2-.12-.1-.07-.2-.14-.3-.22-.09-.08-.18-.16-.26-.25a3 3 0 0 1-.35-.44 2.677 2.677 0 0 1 .64-3.53ZM8.91 20.4c-.56 0-1.01-.45-1.01-.99s.45-1 1.01-1 1.01.45 1.01 1-.45.99-1.01.99m7.05 0c-.56 0-1.01-.45-1.01-.99s.45-1 1.01-1 1.01.45 1.01 1-.45.99-1.01.99m4.54-3.61c0 1.03-.85 1.87-1.89 1.87h-.25s-.04-.09-.05-.13l-.06-.15q-.06-.135-.15-.27a.4.4 0 0 0-.07-.11 2.2 2.2 0 0 0-.28-.33.4.4 0 0 0-.07-.06c-.09-.08-.18-.16-.27-.22-.04-.03-.09-.05-.13-.08-.08-.05-.17-.1-.26-.14l-.15-.06q-.15-.06-.3-.09c-.05-.01-.09-.03-.14-.04-.15-.03-.31-.05-.46-.05s-.31.02-.46.05c-.05 0-.09.02-.14.03-.1.03-.2.05-.3.09l-.15.06c-.09.04-.18.09-.26.14-.04.03-.09.05-.13.08-.1.07-.19.15-.28.23-.02.02-.04.03-.06.05-.1.1-.2.22-.28.34-.03.04-.05.08-.07.11-.05.09-.11.18-.15.27l-.06.15c-.02.04-.04.09-.05.13h-2.26s-.04-.09-.05-.13l-.06-.15q-.06-.135-.15-.27a.4.4 0 0 0-.07-.11c-.08-.12-.18-.23-.28-.34-.02-.02-.04-.03-.06-.05-.09-.08-.18-.16-.28-.23-.04-.03-.08-.05-.13-.08-.08-.05-.17-.1-.26-.14l-.15-.06q-.15-.06-.3-.09c-.05-.01-.09-.03-.14-.03-.15-.03-.31-.05-.46-.05s-.31.02-.46.05c-.05 0-.09.02-.14.04-.1.03-.2.05-.3.09l-.15.06c-.09.04-.18.09-.26.14-.04.03-.09.05-.13.08-.1.07-.19.14-.27.22-.02.02-.05.04-.07.06-.1.1-.19.22-.28.33-.03.04-.05.08-.07.12-.05.09-.11.18-.15.27l-.06.15c-.02.04-.04.09-.05.13h-.25c-1.04 0-1.89-.84-1.89-1.87v-1.87h8.94a2.51 2.51 0 0 0 2.51-2.5V7.07h.87c.36 0 .7.2.88.51l.86 1.49s-.06.01-.09.02c-.05 0-.1.02-.14.03-.05.01-.11.03-.16.05-.04.02-.09.03-.13.05-.05.02-.1.05-.15.08-.04.02-.08.05-.12.07-.05.03-.09.07-.13.11-.03.03-.07.06-.1.09-.04.04-.07.09-.11.13-.03.04-.06.07-.08.11-.03.05-.06.1-.09.16-.02.04-.04.07-.06.11-.03.06-.04.13-.06.19 0 .03-.02.07-.03.1-.02.1-.03.21-.03.32v2.62c0 .89.73 1.62 1.63 1.62h1.89v1.87Z"/><path d="M4.8 7.79c.15.15.34.22.53.22s.38-.07.53-.22l.43-.42.4.4c.15.14.34.22.53.22s.39-.07.53-.22c.29-.29.29-.77 0-1.06l-.39-.39.36-.36c.29-.29.3-.77 0-1.06a.745.745 0 0 0-1.06 0l-.38.37-.4-.4a.754.754 0 0 0-1.06 0c-.29.29-.29.77 0 1.06l.39.39-.42.41c-.29.29-.3.77 0 1.06Z"/></g></svg>