<svg xmlns="http://www.w3.org/2000/svg" viewBox="0 0 24 24"><path fill="#444" d="M12 6.7V3.6c0-.33-.27-.6-.6-.6H2.6c-.33 0-.6.27-.6.6v16.8c0 .33.27.6.6.6h18.8c.33 0 .6-.27.6-.6V7.6c0-.33-.27-.6-.6-.6h-9.1c-.17 0-.3-.13-.3-.3M5.59 19H4.4c-.23 0-.41-.18-.41-.41V17.4c0-.23.18-.41.41-.41h1.19c.23 0 .41.18.41.41v1.19c0 .23-.18.41-.41.41m0-4H4.4c-.23 0-.41-.18-.41-.41V13.4c0-.23.18-.41.41-.41h1.19c.23 0 .41.18.41.41v1.19c0 .23-.18.41-.41.41m0-4H4.4c-.23 0-.41-.18-.41-.41V9.4c0-.23.18-.41.41-.41h1.19c.23 0 .41.18.41.41v1.19c0 .23-.18.41-.41.41m0-4H4.4c-.23 0-.41-.18-.41-.41V5.4c0-.23.18-.41.41-.41h1.19c.23 0 .41.18.41.41v1.19c0 .23-.18.41-.41.41m4 12H8.4c-.23 0-.41-.18-.41-.41V17.4c0-.23.18-.41.41-.41h1.19c.23 0 .41.18.41.41v1.19c0 .23-.18.41-.41.41m0-4H8.4c-.23 0-.41-.18-.41-.41V13.4c0-.23.18-.41.41-.41h1.19c.23 0 .41.18.41.41v1.19c0 .23-.18.41-.41.41m0-4H8.4c-.23 0-.41-.18-.41-.41V9.4c0-.23.18-.41.41-.41h1.19c.23 0 .41.18.41.41v1.19c0 .23-.18.41-.41.41m0-4H8.4c-.23 0-.41-.18-.41-.41V5.4c0-.23.18-.41.41-.41h1.19c.23 0 .41.18.41.41v1.19c0 .23-.18.41-.41.41m10 12H12.4c-.23 0-.41-.18-.41-.41V17.4c0-.23.18-.41.41-.41h1.19c.23 0 .41-.18.41-.41v-1.19c0-.23-.18-.41-.41-.41H12.4c-.23 0-.41-.18-.41-.41v-1.19c0-.23.18-.41.41-.41h1.19c.23 0 .41-.18.41-.41v-1.19c0-.23-.18-.41-.41-.41H12.4c-.23 0-.41-.18-.41-.41V9.36c0-.23.18-.41.41-.41h7.19c.23 0 .41.18.41.41v9.19c0 .23-.18.41-.41.41Zm-2-8H16.4c-.23 0-.41.18-.41.41v1.19c0 .23.18.41.41.41h1.19c.23 0 .41-.18.41-.41v-1.19c0-.23-.18-.41-.41-.41m0 4H16.4c-.23 0-.41.18-.41.41v1.19c0 .23.18.41.41.41h1.19c.23 0 .41-.18.41-.41v-1.19c0-.23-.18-.41-.41-.41"/></svg>