<svg xmlns="http://www.w3.org/2000/svg" viewBox="0 0 24 24"><g fill="#444"><path d="M20.92 8.12c-.18 0-.35-.06-.5-.19-4.84-4.3-12.15-4.3-17 0-.31.27-.78.25-1.06-.06a.756.756 0 0 1 .06-1.06c5.41-4.8 13.58-4.8 18.99 0 .31.27.34.75.06 1.06-.15.17-.35.25-.56.25Z"/><path d="M5.62 11.72c-.2 0-.39-.08-.54-.23-.29-.3-.28-.77.02-1.06 2.98-2.89 7.48-3.58 11.21-1.72.37.19.52.64.34 1.01s-.63.52-1.01.34a8.3 8.3 0 0 0-9.49 1.46.75.75 0 0 1-.52.21Zm3.15 3.18c-.2 0-.39-.08-.54-.23-.29-.3-.28-.77.02-1.06.7-.68 1.58-1.15 2.53-1.36.4-.09.8.17.89.57s-.17.81-.57.89c-.69.15-1.31.49-1.81.97a.75.75 0 0 1-.52.21Zm12.67.15-.98-1.69c-.2-.33-.47-.61-.81-.81-.34-.19-.72-.3-1.11-.3h-2.37c-.39 0-.77.1-1.11.3-.33.19-.61.47-.81.81l-.98 1.69c-.26.45-.39.95-.39 1.47s.14 1.03.39 1.47l.98 1.69c.19.34.47.62.81.81s.72.3 1.11.3h2.37c.39 0 .77-.1 1.11-.3.33-.19.61-.47.81-.81l.98-1.69c.26-.45.39-.96.39-1.47s-.14-1.03-.39-1.47m-.76 1.47c0 .31-.08.62-.24.9l-.98 1.69q-.135.24-.39.39c-.16.09-.34.14-.53.14h-2.37c-.38 0-.73-.2-.92-.53l-.98-1.69c-.16-.27-.24-.58-.24-.89s.08-.62.24-.89l.98-1.69q.135-.24.39-.39c.16-.09.35-.14.53-.14h2.37c.38 0 .73.2.92.53l.98 1.68c.16.27.24.58.24.9Z"/><path d="M17.36 14.57c-1.2 0-1.95.75-1.95 1.95s.75 1.95 1.95 1.95 1.95-.75 1.95-1.95-.75-1.95-1.95-1.95m.71 1.95c0 .5-.21.71-.71.71s-.71-.21-.71-.71.21-.71.71-.71.71.21.71.71"/></g></svg>