<svg xmlns="http://www.w3.org/2000/svg" viewBox="0 0 24 24"><path fill="#444" fill-rule="evenodd" d="M15.41 2.03c1.56-.22 2.96.99 2.96 2.57v1.18c0 .07.04.14.1.17 1.07.61 1.78 1.76 1.78 3.07v9.44A3.54 3.54 0 0 1 16.71 22H7.28a3.54 3.54 0 0 1-3.54-3.54V5.18c0-.85.63-1.58 1.48-1.7l10.19-1.46ZM5.16 7.1v11.36c0 1.17.95 2.12 2.12 2.12h9.44c1.17 0 2.12-.95 2.12-2.12V9.02c0-1.17-.95-2.12-2.12-2.12H5.36a.2.2 0 0 0-.2.2m.3-1.61h11.35c.08 0 .14-.06.14-.14V4.6c0-.72-.64-1.27-1.35-1.17L5.41 4.89a.302.302 0 0 0 .04.6Zm2.06 6.37c0-.39.32-.71.71-.71h7.55c.39 0 .71.32.71.71s-.32.71-.71.71H8.23c-.39 0-.71-.32-.71-.71m0 3.3c0-.39.32-.71.71-.71h5.19c.39 0 .71.32.71.71s-.32.71-.71.71H8.23c-.39 0-.71-.32-.71-.71"/></svg>