<svg xmlns="http://www.w3.org/2000/svg" viewBox="0 0 24 24"><path fill="#444" d="M9.6 6.19c-1.48 0-2.69.93-3.01 2.32-.31 1.35.22 2.73 1.54 3.99.4.37.92.58 1.47.58s1.06-.21 1.46-.58c1.32-1.26 1.86-2.64 1.55-3.99-.32-1.39-1.53-2.32-3.01-2.32m.6 5.41c-.17.16-.38.24-.6.24s-.43-.08-.6-.24c-.69-.66-1.46-1.68-1.19-2.81.23-1 1.11-1.35 1.79-1.35s1.57.35 1.79 1.35c.26 1.14-.5 2.16-1.19 2.81"/><path fill="#444" d="M9.62 8.11a.96.96 0 0 0 0 1.92c.53 0 .97-.43.97-.96s-.43-.96-.97-.96"/><path fill="#444" d="M20.27 5.17c-.34-.45-.75-.85-1.21-1.18-1.49-1.05-3.61-1.25-7-1.25s-5.52.2-7 1.25c-.46.33-.87.72-1.21 1.18C2.86 6.5 2.51 8.29 2.51 12s.35 5.51 1.34 6.83c.34.45.75.85 1.21 1.18 1.49 1.05 3.61 1.25 7 1.25s5.52-.2 7-1.25c.46-.33.87-.72 1.21-1.18 1.05-1.4 1.23-3.32 1.23-6.83s-.18-5.43-1.23-6.83M5.88 18.85c-.34-.24-.64-.53-.89-.87-.78-1.05-1.06-2.61-1.06-5.98s.28-4.94 1.06-5.98c.25-.33.55-.62.89-.87 1.05-.74 2.61-.99 6.18-.99s5.13.25 6.18.99c.34.24.64.53.89.87.15.2.27.43.38.68L6.87 19.34a3.7 3.7 0 0 1-.99-.49m6.18.99c-1.42 0-2.51-.04-3.39-.14l4.98-4.98 4.3 4.3c-1.05.6-2.63.81-5.89.81Zm7.07-1.86-.04.04-4.37-4.37 5.22-5.22c.11.93.15 2.08.15 3.56 0 3.19-.14 4.9-.95 5.98Z"/></svg>