<svg xmlns="http://www.w3.org/2000/svg" viewBox="0 0 24 24"><path fill="#444" d="M21.32 9.38c-.2-1.68-1.04-2.93-2.35-3.52-.95-.43-1.98-.4-2.89-.37-.18 0-.35.01-.53.01-1.08.01-2.16.05-3.24.09-2.03.07-4.06.17-6.09.26h-.04V5.4c.05-2.05-1.73-2.86-2.68-3-.4-.06-.79.22-.85.63s.22.79.62.86c.15.02 1.44.27 1.41 1.52.02.87-.05 1.85-.13 2.88-.23 3.02-.49 6.44 1.77 8.05 1.7 1.21 4.03 1.42 5.88 1.46.25 0 .51.01.77.01 1.96 0 4.21-.23 5.78-1.45 1.72-1.34 2.88-4.47 2.57-6.99Zm-3.49 5.81c-1.41 1.1-3.86 1.16-5.59 1.12-1.63-.04-3.68-.21-5.04-1.18-1.57-1.12-1.36-3.97-1.15-6.72.03-.35.05-.7.08-1.04h.18c2.02-.1 4.04-.2 6.07-.27 1.07-.04 2.14-.07 3.2-.08.18 0 .37 0 .56-.01.82-.03 1.59-.05 2.22.23.84.38 1.34 1.16 1.48 2.33.24 1.99-.7 4.62-2 5.63Z"/><path fill="#444" d="M15.66 9.39h-2.77c-.41 0-.75.34-.75.75s.34.75.75.75h2.77c.41 0 .75-.34.75-.75s-.34-.75-.75-.75m-8.51 9.63c-.71 0-1.29.58-1.29 1.29s.58 1.29 1.29 1.29 1.29-.58 1.29-1.29-.58-1.29-1.29-1.29m10.33 0c-.71 0-1.29.58-1.29 1.29s.58 1.29 1.29 1.29 1.29-.58 1.29-1.29-.58-1.29-1.29-1.29"/></svg>