<?xml version="1.0" encoding="UTF-8"?><svg id="b" xmlns="http://www.w3.org/2000/svg" viewBox="0 0 18.03 20.01"><g id="c"><path d="m9.02,20.01c-.84,0-1.67-.22-2.44-.65l-5.35-3.03c-.66-.37-1.06-1.08-1.03-1.85.03-.77.47-1.45,1.17-1.78l.57-.27-.9-.51C.38,11.55,0,10.88,0,10.13c0-.75.39-1.41,1.04-1.77l.89-.51-.89-.5C.39,6.98,0,6.32,0,5.57s.39-1.42,1.04-1.78L6.58.65c1.52-.87,3.35-.87,4.88,0l5.54,3.13c.65.36,1.03,1.03,1.03,1.78s-.39,1.42-1.04,1.78l-.91.51.91.5c.64.36,1.03,1.02,1.03,1.77,0,.75-.38,1.42-1.03,1.79l-.8.45.61.31c.67.34,1.1,1.02,1.12,1.77.02.76-.38,1.46-1.03,1.83l-5.44,3.07c-.76.43-1.6.65-2.44.65Zm-5.48-6.67l-1.54.72c-.27.12-.3.37-.31.47,0,.1.02.35.27.49l5.36,3.04c1.06.6,2.33.6,3.4,0l5.44-3.07c.25-.14.27-.39.27-.49,0-.1-.04-.34-.29-.47l-1.5-.76-3.18,1.8c-1.53.86-3.35.86-4.87,0l-3.04-1.72Zm-.09-4.63l-1.67.96c-.25.14-.27.37-.27.47s.03.34.28.48l5.54,3.13c1.06.6,2.34.59,3.4,0l5.54-3.13c.25-.14.27-.38.27-.48s-.03-.33-.27-.47l-1.71-.94-3.1,1.75c-1.53.87-3.35.87-4.88,0l-3.13-1.77ZM9.02,1.5c-.58,0-1.17.15-1.7.45L1.77,5.09c-.25.14-.27.38-.27.48s.03.34.27.47l5.55,3.14c1.06.6,2.33.6,3.4,0h0s5.54-3.14,5.54-3.14c.25-.14.27-.38.27-.48s-.03-.34-.27-.47l-5.55-3.14c-.53-.3-1.12-.45-1.7-.45Z" fill="#444" stroke-width="0"/></g></svg>