<svg xmlns="http://www.w3.org/2000/svg" viewBox="0 0 24 24"><path fill="#444" d="M11.08 5.7H8.32c-.97 0-1.61 0-2.1.49s-.49 1.13-.49 2.11 0 1.62.49 2.11 1.13.49 2.1.49h2.76c.97 0 1.61 0 2.1-.49s.49-1.1.49-2.11 0-1.62-.49-2.11-1.13-.49-2.1-.49m1.05 3.64c-.11.06-.61.06-1.05.06H8.32c-.44 0-.94 0-1.03-.04-.06-.11-.06-.62-.06-1.06s0-.95.04-1.04c.11-.06.61-.06 1.05-.06h2.76c.44 0 .94 0 1.03.04.06.11.06.62.06 1.06s0 .95-.04 1.04M12 15.88H7.4c-.41 0-.75.34-.75.75s.34.75.75.75H12c.41 0 .75-.34.75-.75s-.34-.75-.75-.75"/><path fill="#444" d="M21.94 7.59c-.05-.94-.46-1.8-1.17-2.43-.06-.06-.13-.11-.27-.23l-1.13-.91a.747.747 0 1 0-.94 1.16l1.14.91c.11.09.17.13.21.18.36.33.59.79.65 1.28h-.61c-1.17 0-2.13.96-2.13 2.14v2.24c0 .92.58 1.74 1.46 2.03l1.3.44v3.62c0 .35-.28.64-.63.64s-.63-.29-.63-.7c0-1.14-.93-2.07-2.06-2.07h-.69V8.31c0-2.73 0-4.23-1.03-5.27-1.03-1.03-2.52-1.03-5.24-1.03h-.92c-2.72 0-4.21 0-5.24 1.03S2.98 5.58 2.98 8.31v12.2h-.17c-.41 0-.75.34-.75.75s.34.75.75.75H16.6c.41 0 .75-.34.75-.75s-.34-.75-.75-.75h-.17v-3.12h.69c.31 0 .56.26.56.64 0 1.18.96 2.14 2.13 2.14s2.13-.96 2.13-2.14zM4.48 20.5V8.3c0-2.41 0-3.61.59-4.21.56-.57 1.62-.59 4.18-.59h.92c2.55 0 3.61.02 4.18.59.59.59.59 1.8.59 4.21v12.2zm15.14-7.97a.63.63 0 0 1-.43-.6V9.69c0-.35.28-.64.63-.64h.63v3.76z"/></svg>