<svg xmlns="http://www.w3.org/2000/svg" viewBox="0 0 24 24"><g fill="#5e656d"><path d="m21.2 14.53-.1-.1V9.39c0-1.55-1.08-3.36-2.45-4.11l-4.99-2.74c-1.29-.72-3.31-.72-4.6 0l-5 2.74c-1.37.75-2.45 2.56-2.45 4.11v5.24c0 1.55 1.08 3.36 2.45 4.11l4.99 2.74c.65.36 1.47.54 2.3.54s1.65-.18 2.29-.53l1.23-.67c.82.76 1.88 1.21 3.03 1.21s2.15-.4 2.94-1.1c.36-.3.66-.66.9-1.05.43-.69.66-1.48.66-2.3 0-1.12-.43-2.19-1.2-3.02ZM4.78 6.59l5-2.74c.42-.23 1-.35 1.57-.35s1.16.12 1.58.35l5 2.74c.32.17.62.45.88.79l-7.45 4.27-7.47-4.27c.26-.33.56-.62.88-.79Zm0 10.82c-.89-.49-1.67-1.79-1.67-2.79V9.38c0-.21.04-.44.1-.66l7.39 4.23v7.48c-.31-.06-.59-.15-.83-.28l-5-2.74Zm8.15 2.74c-.23.13-.52.22-.82.28v-7.48l7.39-4.23c.06.23.11.46.11.67v4.04s-.05-.02-.07-.03c-.07-.03-.13-.04-.2-.07-.15-.05-.29-.09-.44-.12l-.33-.06c-.09-.01-.17-.02-.26-.02-.13-.01-.25-.03-.38-.03-.4 0-.8.07-1.18.17h-.02c-.17.05-.33.1-.49.17-.07.03-.14.06-.2.09-.12.05-.24.11-.35.17-.19.11-.38.23-.55.36a4.4 4.4 0 0 0-1.65 4.06c0 .06.02.12.03.18.02.13.05.26.08.38.02.07.04.14.07.21.04.11.07.22.12.33.03.07.06.14.09.2s.05.12.08.18l-1 .54Zm7.53-1.08c-.15.26-.35.49-.59.69-.53.47-1.23.73-1.96.73-.88 0-1.7-.38-2.21-.97-.02-.03-.1-.13-.12-.15-.08-.09-.15-.19-.23-.32a2.85 2.85 0 0 1-.43-1.51c0-.9.41-1.74 1.12-2.3.97-.76 2.33-.83 3.36-.26.01 0 .03.01.04.02.04.02.08.06.11.08.12.08.23.15.35.25.07.06.14.12.21.19.52.56.8 1.27.8 2.01 0 .54-.15 1.06-.44 1.52Z"/><path d="M19.29 16.78h-.64v-.6c0-.41-.34-.75-.75-.75s-.75.34-.75.75v.6h-.64c-.41 0-.75.34-.75.75s.34.75.75.75h.64v.67c0 .41.34.75.75.75s.75-.34.75-.75v-.67h.64c.41 0 .75-.34.75-.75s-.34-.75-.75-.75"/></g></svg>