<svg xmlns="http://www.w3.org/2000/svg" viewBox="0 0 24 24"><path fill="#444" d="M21.48 15.62c-1.21-2.37-2.97-5.35-4.86-8.18-.34-.47-.51-.96-.51-1.48v-1.9c.35.03.69.05 1.04.09h.09c.38 0 .7-.28.74-.67a.75.75 0 0 0-.66-.83c-2.32-.27-4.61-.34-6.9-.26h-.15c-.48.02-.97.04-1.45.08-.06 0-.12 0-.19.01H8.6c-.59.05-1.19.09-1.79.15-.41.05-.71.42-.66.83s.43.71.83.66c.32-.04.64-.05.96-.08v1.9c0 .52-.17 1.01-.52 1.49-1.56 2.25-3.1 4.81-4.3 7.09-.21.36-.42.71-.65 1.08-.48.98-.49 2.12-.02 3.12a3.83 3.83 0 0 0 2.56 2.1c2.33.53 4.63.8 6.93.8h.08c2.29 0 4.58-.26 6.9-.79 1.17-.24 2.13-.98 2.63-2.04.49-1.03.46-2.2-.07-3.19ZM5.45 19.39c-.7-.18-1.26-.64-1.56-1.27a2.11 2.11 0 0 1 0-1.82c.19-.39.42-.81.64-1.22.25-.44.52-.87.76-1.3l.45-.79a.91.91 0 0 1 .78-.44h.14c3.59.5 7.08.5 10.67 0 .38-.05.75.12.93.44.56.99 1.26 2.22 1.79 3.31.31.58.33 1.26.05 1.86-.29.62-.87 1.07-1.59 1.21-2.21.5-4.38.75-6.55.76-2.17 0-4.33-.25-6.52-.75ZM8.64 8.32c.53-.73.79-1.52.79-2.36V3.94c1.71-.1 3.47-.1 5.17 0v2.02c0 .84.27 1.63.78 2.33.61.92 1.2 1.85 1.77 2.77h-.02c-3.45.48-6.8.48-10.26 0h-.03c.59-.94 1.18-1.87 1.79-2.74Z"/></svg>