<svg xmlns="http://www.w3.org/2000/svg" width="24" height="24" viewBox="0 0 24 24"><g fill="#707575"><path d="M21.16 11.16c-.46 0-.84.38-.84.84 0 6.37-1.94 8.32-8.32 8.32S3.68 18.38 3.68 12 5.63 3.68 12 3.68c.46 0 .84-.38.84-.84S12.46 2 12 2C4.62 2 2 4.62 2 12s2.62 10 10 10 10-2.62 10-10c0-.46-.38-.84-.84-.84"/><path d="M9.11 15.56c.1.21.29.37.5.44 0 0 .69.23 1.61.23s2.24-.23 3.23-1.35l4.61-5.21s.07-.06.1-.1c.03-.03.06-.07.07-.09l1.05-1.18A3.214 3.214 0 0 0 20 3.76a3.17 3.17 0 0 0-2.33-.8c-.86.05-1.64.44-2.22 1.08l-5.83 6.58c-1.85 2.09-.59 4.84-.53 4.95ZM18.9 5.01c.63.56.69 1.53.13 2.17l-.57.64-2.3-2.04.57-.64c.27-.31.65-.49 1.06-.52.4-.02.8.11 1.11.38Zm-7.99 6.71 4.14-4.68 2.3 2.04-4.14 4.68c-.81.91-2.11.82-2.7.72-.21-.66-.4-1.85.4-2.76"/></g></svg>