<svg xmlns="http://www.w3.org/2000/svg" viewBox="0 0 24 24"><g fill="#444"><path d="M20.81 14.38s-.01-.02-.03-.03l-.59-.59c-.51-.51-1.38-.51-1.89 0l-4.07 4.07q-.27.27-.42.63c-.1.23-.15.49-.15.74v.86c0 .46.37.82.82.82h.86a1.96 1.96 0 0 0 1.37-.57l3.39-3.39.02-.02s.01-.01.02-.03l.64-.64c.25-.25.39-.59.39-.95s-.13-.66-.36-.91Zm-4.75 5.27c-.1.1-.2.18-.32.22-.12.05-.25.08-.38.08h-.76v-.76c0-.26.11-.52.29-.7l3.08-3.08 1.17 1.17-3.08 3.08Zm4.09-4.07-.33.33-1.17-1.17.33-.33a.42.42 0 0 1 .58 0l.59.59c.08.08.12.18.12.29s-.04.21-.11.28ZM7.88 10.31c0 2.01 1.62 3.64 3.62 3.64s3.62-1.63 3.62-3.64-1.62-3.64-3.62-3.64-3.62 1.63-3.62 3.64m5.74-.01c0 1.18-.95 2.14-2.12 2.14s-2.12-.96-2.12-2.14.95-2.14 2.12-2.14 2.12.96 2.12 2.14"/><path d="M12.54 20.92a.74.74 0 0 0-.63-.36c-.03 0-.06.01-.09.01-1.18.18-2.2-.43-3.12-1.33-2.44-2.37-5.15-6.11-4.17-10.45.9-4 4.32-5.42 6.97-5.42s6.07 1.42 6.97 5.43c.22.96.25 1.89.14 2.79-.02.34.18.64.49.75.06.03.13.04.2.05.12.01.23-.01.34-.05.21-.09.37-.26.44-.48 0 0 0-.01.01-.02.01-.03.01-.1.01-.14.12-1.03.08-2.11-.17-3.23-1.02-4.56-4.97-6.6-8.43-6.6S4.1 3.91 3.07 8.46c-1.13 5.02 1.87 9.22 4.59 11.85 1.08 1.04 2.23 1.82 3.61 1.82.24 0 .48-.03.72-.07a.73.73 0 0 0 .55-.35c.08-.12.12-.25.12-.4v-.09a.64.64 0 0 0-.11-.3Z"/></g></svg>