<?xml version="1.0" encoding="UTF-8"?><svg id="c" xmlns="http://www.w3.org/2000/svg" viewBox="0 0 24 24"><path d="m15.96,9.03c3.29,0,6.04,2.67,6.04,6.04,0,.89-.18,1.78-.53,2.49-.27.62-.36.8-.27,1.16,0,.09.09.18.18.36.09.18.18.36.18.62.09.8-.62,1.42-1.42,1.24-.44-.09-.89-.36-1.07-.44s-.36-.09-.53-.09h0s-.09,0-.18.09c-.09,0-.27.09-.53.18-.53.18-1.16.27-1.87.27-3.29,0-6.04-2.67-6.04-6.04,0-3.11,2.76-5.87,6.04-5.87ZM7.96,3.35c3.29-.89,7.11,0,9.15,3.47.09.18.09.44,0,.71-.09.18-.36.36-.62.36-4.18-.36-7.91,3.11-7.91,7.29,0,1.16.27,2.22.71,3.11.09.27.09.53-.09.71s-.44.27-.62.27c-.36-.09-.62-.18-.89-.27-.36-.09-.53-.18-.71-.27-.09,0-.18-.09-.18-.09h-.09c-.36-.09-.62,0-.89.09-.27.18-.8.44-1.42.53-.89.18-1.69-.62-1.69-1.51,0-.36.18-.62.27-.89s.18-.36.27-.53c.18-.53,0-.98-.44-1.78-.44-1.07-.8-2.22-.8-3.47-.09-4,2.76-6.84,5.96-7.73Z" fill="#444" fill-rule="evenodd" stroke-width="0"/></svg>