<?xml version="1.0" encoding="UTF-8"?><svg id="c" xmlns="http://www.w3.org/2000/svg" viewBox="0 0 24 24"><g id="d"><path d="m7.94,2.54c-.4,0-.72.32-.72.72v1.74c0,.4.32.72.72.72s.72-.32.72-.72v-1.74c0-.4-.32-.72-.72-.72Z" fill="#444" stroke-width="0"/><path d="m11.4,2.54c-.4,0-.72.32-.72.72v1.74c0,.4.4.16.79.16s.65.24.65-.16v-1.74c0-.4-.32-.72-.72-.72Z" fill="#444" stroke-width="0"/><path d="m14.87,2.54c-.4,0-.72.32-.72.72v1.74c0,.4.32.72.72.72s.72-.32.72-.72v-1.74c0-.4-.32-.72-.72-.72Z" fill="#444" stroke-width="0"/><path d="m20.08,7.75h-1.74c-.4,0-.72.32-.72.72s.32.72.72.72h1.74c.4,0,.72-.32.72-.72s-.32-.72-.72-.72Z" fill="#444" stroke-width="0"/><path d="m7.94,18.16c-.4,0-.72.32-.72.72v1.74c0,.4.32.72.72.72s.72-.32.72-.72v-1.74c0-.4-.32-.72-.72-.72Z" fill="#444" stroke-width="0"/><path d="m4.46,7.75h-1.74c-.4,0-.72.32-.72.72s.32.72.72.72h1.74c.4,0,.72-.32.72-.72s-.32-.72-.72-.72Z" fill="#444" stroke-width="0"/><path d="m4.46,11.22h-1.74c-.4,0-.72.32-.72.72s.32.72.72.72h1.74c.4,0-.34-.32-.34-.72s.74-.72.34-.72Z" fill="#444" stroke-width="0"/><path d="m4.46,14.69h-1.74c-.4,0-.72.32-.72.72s.32.72.72.72h1.74c.4,0,.72-.32.72-.72s-.32-.72-.72-.72Z" fill="#444" stroke-width="0"/><path d="m16.71,14.4c-1.38,0-2.23.86-2.23,2.23s.86,2.23,2.23,2.23,2.23-.86,2.23-2.23-.86-2.23-2.23-2.23Zm1.16,2.23c0,.78-.38,1.16-1.16,1.16s-1.16-.38-1.16-1.16.38-1.16,1.16-1.16,1.16.38,1.16,1.16Z" fill="#444" stroke-width="0"/><path d="m21.8,15.89l-1.9-3.32c-.13-.23-.32-.42-.55-.55-.23-.13-.49-.2-.75-.2h-3.8c-.26,0-.52.07-.75.2-.23.13-.42.32-.55.55l-1.9,3.32c-.13.23-.2.49-.2.75s.07.52.2.75l1.9,3.32c.13.23.32.42.55.55.23.13.49.2.75.2h3.8c.26,0,.52-.07.75-.2.23-.13.42-.32.55-.55l1.9-3.32c.26-.46.26-1.04,0-1.5Zm-.91.75c0,.07-.02.14-.05.2l-1.9,3.32c-.04.06-.09.11-.14.14-.06.03-.13.05-.2.05h-3.8c-.07,0-.14-.02-.2-.05-.06-.03-.11-.08-.14-.14l-1.9-3.32c-.07-.12-.07-.27,0-.4l1.9-3.32c.04-.06.09-.11.14-.14.06-.03.13-.05.2-.05h3.8c.07,0,.14.02.2.05.06.03.11.08.14.14l1.9,3.32c.03.06.05.13.05.2Z" fill="#444" stroke-width="0"/><path d="m13.09,7.1c-1.01-.26-2.36-.26-3.37,0-1.58.4-2.65,1.41-3.12,2.89-.13.38-.21.79-.25,1.22-.03.23-.04.47-.04.72s0,.49.04.72c.04.43.13.85.25,1.21.3.93.81,1.66,1.54,2.17.07.06.13.11.21.14.08.03.16.05.26.05.21,0,.4-.11.52-.26.09-.12.13-.25.13-.4s-.05-.29-.13-.4c-.03-.04-.07-.07-.11-.11-.53-.34-.88-.84-1.11-1.46-.04-.12-.08-.23-.12-.35v-.02c-.11-.39-.16-.82-.16-1.3s.06-.91.16-1.3v-.02c.04-.12.08-.23.12-.35.32-.88.94-1.48,1.84-1.79l.14-.05c.14-.05.29-.08.44-.11.32-.07.67-.11,1.07-.11s.75.04,1.07.11c.15.03.3.06.44.11l.14.05c.6.21,1.08.55,1.43,1.02.03.04.06.08.1.11.12.11.27.16.43.16s.32-.06.43-.16c.14-.13.23-.31.23-.51,0-.18-.08-.36-.19-.48-.56-.74-1.38-1.25-2.4-1.51Z" fill="#444" stroke-width="0"/><path d="m19.04,8.94c0-.06-.03-.11-.05-.16-.12-.37-.25-.7-.41-1.03-.65-1.3-1.66-2.28-2.98-2.91-.44-.22-.93-.4-1.45-.53,0,0-.03,0-.04,0-.62-.16-1.28-.26-1.99-.3-.24,0-.47-.02-.72-.02s-.48,0-.72.02c-.7.04-1.37.13-1.99.3,0,0-.02,0-.03,0-.52.13-1,.31-1.45.52-1.33.63-2.34,1.62-2.99,2.92-.17.35-.32.7-.43,1.09-.04.12-.08.23-.1.36-.19.63-.3,1.3-.34,2.02-.02.23-.03.47-.03.72s0,.49.03.72c.04.72.14,1.4.34,2.02.02.13.06.24.1.36.12.39.26.74.43,1.09.65,1.3,1.66,2.29,2.99,2.92.44.21.93.39,1.45.52,0,0,.02,0,.03,0,.04,0,.09.02.13.03.04,0,.07.02.11.02.03,0,.07,0,.1,0,.04,0,.07,0,.11,0,.35-.05.62-.35.62-.69s-.27-.65-.62-.69h0c-.13-.03-.37-.1-.38-.1-1.73-.54-2.92-1.65-3.53-3.3-.32-.84-.48-1.8-.48-2.91s.16-2.07.48-2.91c.61-1.65,1.8-2.76,3.53-3.3,0,0,.02,0,.03,0,.77-.25,1.65-.37,2.63-.37s1.86.12,2.63.37c0,0,.02,0,.03,0,1.73.54,2.92,1.65,3.53,3.3.02.06.05.13.07.18.04.16.14.3.27.4.11.09.25.13.4.13.16,0,.31-.05.42-.13.17-.13.29-.33.29-.56,0-.04,0-.08,0-.11Z" fill="#444" stroke-width="0"/></g></svg>