<svg xmlns="http://www.w3.org/2000/svg" viewBox="0 0 24 24"><path fill="#323544" d="M12 2.25c-5.48 0-10 4.45-10 10 0 4.39 2.87 8.13 6.87 9.48.52.1.68-.23.68-.45 0-.2 0-.72-.02-1.44 0-.16-.16-.27-.31-.25-2.52.44-3.05-1.42-3.05-1.42-.45-1.13-1.13-1.45-1.13-1.45-.9-.65.03-.65.03-.65 1 .03 1.55 1.03 1.55 1.03.87 1.55 2.35 1.1 2.9.81.1-.65.35-1.1.65-1.35-2.19-.23-4.55-1.1-4.55-4.9 0-.98.34-1.79.85-2.43.1-.13.15-.29.1-.44-.11-.37-.22-1.07.03-1.98.08-.28.36-.48.65-.44.4.06 1.05.25 1.96.83.2.12.44.17.66.11.7-.17 1.42-.26 2.17-.26s1.48.07 2.16.25c.23.06.47.03.67-.1.9-.55 1.53-.75 1.92-.82.28-.05.56.11.64.38.27.91.17 1.64.05 2.02-.05.16 0 .33.11.46.52.65.83 1.47.83 2.41 0 3.55-2.05 4.55-4.11 4.85-.18.03-.27.22-.17.37.24.36.41.89.41 1.55 0 1.35-.03 2.42-.03 2.74 0 .26.19.55.68.45 3.94-1.32 6.81-5.03 6.81-9.45-.03-5.48-4.52-9.94-10-9.94Z"/></svg>