<svg xmlns="http://www.w3.org/2000/svg" viewBox="0 0 24 24"><path fill="#444" d="M15.81 20.5c-.41 0-.76-.15-1.06-.44-.3-.3-.44-.65-.44-1.06v-4.19c0-.41.15-.76.44-1.06.3-.3.65-.44 1.06-.44H20c.41 0 .76.15 1.06.44.3.3.44.65.44 1.06V19c0 .41-.15.76-.44 1.06-.3.3-.65.44-1.06.44zm.22-1.5h3.75c.12 0 .22-.1.22-.22v-3.75c0-.12-.1-.22-.22-.22h-3.75c-.12 0-.22.1-.22.22v3.75c0 .12.1.22.22.22M2.5 16.9c0-.41.34-.75.75-.75h7.12c.41 0 .75.34.75.75s-.34.75-.75.75H3.25c-.41 0-.75-.34-.75-.75m13.31-6.21c-.41 0-.76-.15-1.06-.44s-.44-.65-.44-1.06V5c0-.41.15-.76.44-1.06.3-.3.65-.44 1.06-.44H20c.41 0 .76.15 1.06.44s.44.65.44 1.06v4.19c0 .41-.15.76-.44 1.06-.3.3-.65.44-1.06.44zm.22-1.5h3.75c.12 0 .22-.1.22-.22V5.22c0-.12-.1-.22-.22-.22h-3.75c-.12 0-.22.1-.22.22v3.75c0 .12.1.22.22.22M2.5 7.1c0-.41.34-.75.75-.75h7.12c.41 0 .75.34.75.75s-.34.75-.75.75H3.25c-.41 0-.75-.34-.75-.75"/></svg>