<?xml version="1.0" encoding="UTF-8"?><svg id="c" xmlns="http://www.w3.org/2000/svg" viewBox="0 0 24 24"><path d="m21.16,11.44s-.05-.07-.08-.1l-.86-.82c-.15-.14-.22-.35-.19-.54.37-2.11.07-4.73-.15-6.12-.13-.74-.6-1.34-1.24-1.61-.59-.25-1.23-.18-1.76.17-1.6,1.03-2.55,2.14-3.29,3.2-.34-.05-.82-.09-1.43-.09h-.01c-.77-.05-1.35,0-1.74.07-.89-1.21-1.77-2.23-3.24-3.17-.55-.37-1.24-.42-1.86-.13-.65.3-1.09.92-1.16,1.58-.22,1.37-.52,3.99-.15,6.1.03.19-.04.4-.19.54l-.8.77c-.56.42-.83,1.11-.71,1.79.3,5.69,3.75,8.82,9.71,8.82s9.43-3.15,9.71-8.91c0-.71-.32-1.23-.57-1.55Zm-9.14,8.95c-5.2,0-7.96-2.5-8.2-7.43,0-.04,0-.07-.01-.11-.03-.14.02-.27.2-.41l.86-.82c.52-.49.75-1.2.63-1.9-.33-1.89-.05-4.32.16-5.65.02-.16.14-.32.3-.4.06-.03.12-.04.17-.04.07,0,.14.02.21.07,1.11.71,1.82,1.47,2.52,2.37-.33.14-.58.27-.78.38l-.18.1c-.37.19-.52.64-.33,1.02.19.37.64.52,1.02.33l.22-.12c.5-.27,1.32-.73,3.12-.73,1.55,0,2.4.41,2.97.69.19.09.35.16.47.21.08.03.16.04.24.04.32,0,.61-.2.72-.52.13-.4-.08-.83-.48-.96-.08-.03-.18-.08-.3-.14-.13-.06-.29-.14-.48-.22.67-.9,1.44-1.69,2.63-2.46.11-.08.22-.09.34-.04.13.05.29.21.33.47.2,1.28.49,3.71.16,5.61-.12.69.11,1.4.63,1.9l.81.77c.17.24.23.41.24.57-.24,4.93-3,7.43-8.2,7.43Z" fill="#444" stroke-width="0"/><path d="m9.84,11.89v-.76c0-.42-.34-.76-.76-.76s-.76.34-.76.76v.76c0,.42.34.76.76.76s.76-.34.76-.76Z" fill="#444" stroke-width="0"/><path d="m14.77,10.37c-.42,0-.76.34-.76.76v.76c0,.42.34.76.76.76s.76-.34.76-.76v-.76c0-.42-.34-.76-.76-.76Z" fill="#444" stroke-width="0"/><path d="m13.9,15.86c-.31.31-.6.31-.78.25-.22-.07-.41-.26-.45-.45,0-.03-.02-.05-.03-.08.25-.21.61-.58.83-1.12.03-.09.05-.18.05-.28,0-.39-.26-.72-.62-.81-.29-.11-.61-.11-1.06-.11-.23,0-.47.03-.66.06-.07.01-.13.02-.17.02-.42,0-.76.34-.76.76,0,.2.08.38.21.52.21.43.55.75.76.95h0s-.03.06-.03.09c-.03.15-.22.36-.48.44-.27.08-.51,0-.74-.23-.29-.3-.77-.3-1.07,0-.3.29-.3.77,0,1.07.63.64,1.45.86,2.26.62.28-.08.54-.22.77-.4.22.18.48.33.77.42.21.07.43.1.64.1.6,0,1.2-.25,1.67-.73.29-.3.29-.78,0-1.07-.3-.29-.78-.29-1.07,0Z" fill="#444" stroke-width="0"/></svg>