<svg xmlns="http://www.w3.org/2000/svg" viewBox="0 0 24 24"><path fill="#444" d="M18.34 21.51c-.34.34-.82.52-1.32.48-.73-.05-1.33-.54-1.54-1.24l-.6-2.05c-.54.16-1.05-.06-1.5-.26-.41-.18-.83-.36-1.35-.37-.52 0-.95.17-1.36.34-.48.2-1.02.42-1.58.21l-.62 1.88c-.21.68-.82 1.16-1.55 1.2s-1.39-.37-1.67-1.05l-.47-1.11c-.84-1.98-.51-4.24.85-5.9l1.15-1.41c.06-.08.14-.14.22-.18v-.57c.04-5.17 3.21-9.5 5.18-9.49 1.97.02 5.06 4.41 5.01 9.58 0 .27-.01.53-.02.8.07.04.13.09.18.16l1.13 1.43a5.73 5.73 0 0 1 .74 5.91l-.49 1.11c-.09.21-.22.39-.37.54Zm-2.38-3.85.79 2.72c.07.25.27.28.36.29.08 0 .29 0 .39-.23l.49-1.11c.67-1.51.45-3.26-.57-4.56l-.45-.57c-.16.99-.4 1.94-.72 2.8-.09.25-.19.47-.29.66m-6.6-.52c.12.2.19.24.19.24.07.03.43-.12.6-.19.46-.19 1.09-.45 1.88-.45s1.42.28 1.87.48c.17.08.53.23.6.2 0 0 .07-.03.17-.19 0-.01.01-.02.02-.03.08-.13.19-.34.31-.67.54-1.45.83-3.16.85-4.97.04-4.8-2.79-8.23-3.7-8.24-.91 0-3.8 3.37-3.84 8.17-.02 1.81.25 3.53.76 4.99.1.3.2.5.27.63 0 .01.01.02.02.03m-2.24-3.25-.48.59a4.42 4.42 0 0 0-.65 4.55l.47 1.11c.1.23.3.25.39.24.08 0 .29-.04.36-.28l.86-2.59a7 7 0 0 1-.24-.59c-.33-.93-.56-1.95-.7-3.03Zm6.19-4.01c-.68.67-1.77.66-2.43-.02s-.66-1.77.02-2.43 1.77-.66 2.43.02.66 1.77-.02 2.43m-1.48-1.51c-.16.15-.16.41 0 .56s.41.16.56 0 .16-.41 0-.56-.41-.16-.56 0"/></svg>