<svg xmlns="http://www.w3.org/2000/svg" viewBox="0 0 24 24"><g fill="#444"><path d="m20.85 20.31-.79-.79c.39-.6.58-1.32.58-2.17 0-2.26-1.3-3.56-3.56-3.56s-3.56 1.3-3.56 3.56 1.3 3.56 3.56 3.56c.85 0 1.58-.19 2.16-.58l.8.8c.1.1.25.17.4.17s.3-.06.4-.17a.58.58 0 0 0 0-.81Zm-3.76-.56c-1.57 0-2.41-.84-2.41-2.41s.84-2.41 2.41-2.41 2.41.84 2.41 2.41-.84 2.41-2.41 2.41m-9.05-9.31c0 2.01 1.62 3.64 3.62 3.64s3.62-1.63 3.62-3.64-1.62-3.64-3.62-3.64-3.62 1.63-3.62 3.64m5.74-.01c0 1.18-.95 2.14-2.12 2.14s-2.12-.96-2.12-2.14.95-2.14 2.12-2.14 2.12.96 2.12 2.14"/><path d="M12.93 20.79a.74.74 0 0 0-.63-.36c-.03 0-.06.01-.09.01-1.18.18-2.43-.17-3.35-1.07C6.42 17 3.71 13.26 4.69 8.92c.9-4 4.32-5.42 6.97-5.42s6.07 1.42 6.97 5.43c.22.96.25 1.89.14 2.79-.02.34.18.64.49.75.06.03.13.04.2.05.12.01.23-.01.34-.05.21-.09.37-.26.44-.48 0 0 0-.01.01-.02.01-.03.01-.1.01-.14.12-1.03.08-2.11-.17-3.23C19.07 4.04 15.12 2 11.66 2s-7.4 2.04-8.43 6.59C2.1 13.61 5.1 17.81 7.82 20.44A5.52 5.52 0 0 0 11.66 22c.24 0 .48-.03.72-.07a.73.73 0 0 0 .55-.35c.08-.12.12-.25.12-.4v-.09a.64.64 0 0 0-.11-.3Z"/></g></svg>