<svg xmlns="http://www.w3.org/2000/svg" viewBox="0 0 24 24"><path fill="#444" fill-rule="evenodd" d="M8.34 3.63c.05 0 .1-.03.12-.07.29-.55.87-.93 1.54-.93h4c.67 0 1.25.38 1.54.93.02.04.07.07.12.07.65 0 1.16.04 1.61.22.57.22 1.07.6 1.43 1.09.37.49.54 1.13.78 2l.74 2.72.28.84s.01.02.02.03c.9 1.15.47 2.87-.38 6.3-.55 2.18-.82 3.27-1.64 3.91-.81.64-1.93.64-4.18.64H9.68c-2.25 0-3.37 0-4.18-.64-.82-.64-1.09-1.73-1.64-3.91-.85-3.43-1.28-5.15-.38-6.3.01 0 .01-.02.02-.03l.28-.84.74-2.72c.24-.87.41-1.51.78-2 .36-.49.86-.87 1.43-1.09.45-.18.96-.21 1.61-.22m.08 1.5c-.66 0-.93.03-1.15.12-.3.12-.57.32-.77.59-.17.24-.28.57-.57 1.64l-.51 1.88c-.03.1.05.19.15.18 1-.15 2.34-.15 4.11-.15h4.64c1.77 0 3.11 0 4.11.15.1.02.18-.08.15-.18l-.51-1.88c-.29-1.07-.4-1.4-.57-1.64-.2-.26-.47-.47-.77-.59-.22-.09-.49-.11-1.15-.12-.28.59-.88 1-1.58 1h-4c-.7 0-1.3-.41-1.58-1"/></svg>