<svg xmlns="http://www.w3.org/2000/svg" viewBox="0 0 24 24"><g fill="#323544"><path d="M18.82 12.75c-.41 0-.74.33-.76.73v.04c-.08 5.03-1.31 6.06-6.63 6.06s-6.64-1.11-6.64-6.64c0-4.9.9-6.32 4.97-6.59h.15c.26-.01.42-.14.55-.34.08-.12.13-.27.13-.42s-.05-.3-.13-.41a.72.72 0 0 0-.55-.33c-.31 0-.55.05-.81.07-4.44.48-5.81 2.57-5.81 8.02 0 6.32 1.83 8.14 8.14 8.14s8-1.69 8.13-7.47v-.17a.743.743 0 0 0-.74-.69"/><path d="M15.98 2.92c.12 0 .21.08.24.2.23 1.05.75 2.02 1.51 2.78s1.72 1.29 2.78 1.51c.11.02.2.12.2.24q0 .09-.06.15c-.04.04-.08.07-.14.08-1.05.23-2.02.75-2.78 1.51-.77.77-1.3 1.75-1.52 2.82-.01.05-.04.1-.08.14-.04.03-.09.05-.15.05a.27.27 0 0 1-.15-.05.22.22 0 0 1-.08-.14 5.58 5.58 0 0 0-4.34-4.34.3.3 0 0 1-.14-.08.25.25 0 0 1-.05-.15c0-.11.08-.21.19-.23 1.07-.22 2.05-.75 2.82-1.52.76-.76 1.29-1.72 1.51-2.78.01-.06.04-.1.08-.14s.1-.06.15-.06Z"/></g></svg>