<svg xmlns="http://www.w3.org/2000/svg" width="24" height="24" viewBox="0 0 24 24"><g fill="#707575"><path d="M20.79 5.97c-.72-.74-1.71-.74-3.5-.74h-1.83c-.24 0-.39 0-.51-.01a.7.7 0 0 0-.28-.07c-.11-.04-.24-.11-.44-.2L11.3 3.48c-1.29-.64-2-1.01-2.82-.97-.83.03-1.51.43-2.76 1.15l-1.08.63c-.95.55-1.47.86-1.8 1.44s-.33 1.2-.33 2.31v7.24c0 1.51 0 2.27.45 2.84.31.38.74.64 1.21.72.09.02.18.02.28.02.62 0 1.26-.37 2.38-1.03l.11-.06c.67-.39 1.25-.73 1.9-.64.47.06.97.34 1.46.6.17.1.35.19.52.28.34.17.76.03.93-.31s.03-.76-.31-.93c-.16-.08-.32-.16-.48-.25-.53-.29-1.12-.6-1.78-.73V4.03c.37.13.83.36 1.49.69l2.93 1.47c.13.07.24.12.35.17v3.45c0 .38.31.7.7.7s.7-.31.7-.7V6.63h1.95c1.52 0 2.21.01 2.51.32.32.33.32 1.14.32 2.61v.69c0 .38.31.7.7.7s.7-.31.7-.7v-.69c0-1.83 0-2.84-.71-3.58ZM6.23 16.57l-.11.06c-.8.47-1.49.87-1.71.83a.6.6 0 0 1-.37-.23c-.15-.18-.15-.97-.15-1.97V8.02c0-.94 0-1.37.15-1.62.14-.25.48-.45 1.29-.93l1.08-.63c.62-.36 1.04-.6 1.37-.76v11.74c-.58.16-1.09.46-1.56.73Z"/><path d="M16.84 11.31c-1.86 0-3.58 1.12-4.3 2.79-1.24 2.9.93 4.92 2.68 6.53l.43.4c.32.3.74.47 1.19.47s.87-.17 1.19-.47l.4-.37c1.67-1.54 3.96-3.65 2.71-6.56-.71-1.67-2.44-2.79-4.3-2.79m.65 8.33-.41.38c-.12.11-.35.12-.47 0l-.44-.41c-1.93-1.79-3.14-3.1-2.35-4.97.5-1.16 1.71-1.95 3.02-1.95s2.52.78 3.02 1.95c.8 1.87-.42 3.19-2.37 5"/><path d="M16.85 15.04c-.51 0-.92.41-.92.93s.42.93.93.93.93-.41.93-.93-.41-.93-.93-.93Z"/></g></svg>