<?xml version="1.0" encoding="UTF-8"?><svg id="b" xmlns="http://www.w3.org/2000/svg" viewBox="0 0 19.5 15.5"><g id="c"><g id="d"><path d="m4.08,10.33c-.59,0-1.08.49-1.08,1.09s.49,1.08,1.08,1.08,1.09-.49,1.09-1.08-.49-1.09-1.09-1.09Z" fill="#444" stroke-width="0"/><path d="m4.08,7.33C1.52,7.33-.5,9.72.11,12.38c.34,1.47,1.53,2.66,3,3,2.66.62,5.05-1.4,5.05-3.97-.01-2.25-1.84-4.08-4.09-4.09Zm.89,6.52c-2.1.72-4.04-1.23-3.32-3.32.27-.8.96-1.42,1.78-1.62,1.93-.47,3.62,1.23,3.16,3.16-.2.82-.82,1.51-1.62,1.78Z" fill="#444" stroke-width="0"/><path d="m19.44,11.8c-.08-.41-.24-.79-.48-1.12-.08-.11-.13-.24-.13-.38v-2.37c0-.63-.41-1.18-1-1.36l-2.81-.76c-.11-.03-.19-.13-.19-.25v-2.47c0-.41-.33-.75-.75-.75s-.75.34-.75.75v1.93c0,.08-.03.15-.09.2-.07.05-.15.06-.22.04l-1.33-.36c-.1-.03-.19-.14-.19-.24V1.75c0-.14.11-.25.25-.25h.33c.42,0,.75-.34.75-.75s-.33-.75-.75-.75H2.08c-.41,0-.75.34-.75.75s.34.75.75.75h.34c.13,0,.25.11.25.25v2c0,.14-.12.25-.25.25h-.34c-.41,0-.75.34-.75.75s.34.75.75.75h2.34c3.07,0,5.58,2.51,5.58,5.58v1c0,.42.34.75.75.75h2.4c.12,0,.23.1.25.22.16.8.63,1.49,1.32,1.94.69.45,1.51.61,2.31.45.81-.17,1.51-.64,1.96-1.33.45-.68.61-1.51.45-2.31Zm-9.44-5.74c0,.1-.06.19-.16.23-.03.01-.06.02-.09.02-.07,0-.13-.03-.18-.08-1.33-1.42-3.21-2.23-5.15-2.23-.07,0-.13-.03-.18-.07-.05-.05-.07-.11-.07-.18V1.75c0-.14.11-.25.25-.25h5.33c.14,0,.25.11.25.25v4.31Zm3.59,5.11c-.04.09-.13.16-.23.16h-1.49c-.26,0-.37-.11-.37-.25v-4.36c0-.07.04-.15.1-.2.06-.04.14-.06.22-.04l5.33,1.45c.11.02.18.12.18.24v.98c0,.07-.03.15-.09.19-.06.05-.14.07-.2.06-.21-.05-.42-.07-.62-.07-1.23,0-2.33.73-2.83,1.84Zm2.83,2.83c-.88,0-1.59-.71-1.59-1.58s.71-1.59,1.59-1.59,1.58.71,1.58,1.59-.71,1.58-1.58,1.58Z" fill="#444" stroke-width="0"/></g></g></svg>