<svg xmlns="http://www.w3.org/2000/svg" viewBox="0 0 24 24"><path fill="#444" d="M15.59 14.95H8.37c-.41 0-.75.34-.75.75s.34.75.75.75h7.22c.41 0 .75-.34.75-.75s-.34-.75-.75-.75m0-3.76H8.37c-.41 0-.75.34-.75.75s.34.75.75.75h7.22c.41 0 .75-.34.75-.75s-.34-.75-.75-.75M8.38 8.93h2.75c.41 0 .75-.34.75-.75s-.34-.75-.75-.75H8.38c-.41 0-.75.34-.75.75s.34.75.75.75"/><path fill="#444" d="M12 2C5.25 2 2.86 4.62 2.86 12S5.25 22 12 22s9.14-2.62 9.14-10S18.75 2 12 2m0 18.5c-5.86 0-7.64-1.99-7.64-8.5S6.14 3.5 12 3.5s7.64 1.99 7.64 8.5-1.79 8.5-7.64 8.5"/></svg>