<svg xmlns="http://www.w3.org/2000/svg" viewBox="0 0 24 24"><path fill="#444" d="M20.8 4.4c-.76-.44-1.76-.38-2.73.18l-2.2 1.25c-.27.15-.8.17-1.07.03L9.87 3.41c-.72-.35-1.78-.32-2.47.07L3.34 5.79c-.76.43-1.33 1.4-1.33 2.27v9.08c0 1.12.44 2.01 1.2 2.45s1.76.38 2.73-.18l2.2-1.25c.27-.15.8-.17 1.07-.03l4.93 2.46c.34.16.75.25 1.16.25.47 0 .95-.11 1.31-.31l4.07-2.32c.75-.44 1.32-1.41 1.32-2.27V6.85c0-1.12-.44-2.01-1.2-2.45m-.3 11.53c0 .32-.28.81-.57.97l-4.06 2.31c-.27.15-.8.16-1.07.03l-4.92-2.45c-.33-.17-.75-.25-1.17-.25-.47 0-.94.11-1.32.32l-2.21 1.25c-.5.28-.95.35-1.24.18s-.45-.59-.45-1.16V8.05c0-.32.28-.8.57-.96l4.06-2.31c.26-.15.8-.16 1.07-.03l4.92 2.44c.71.36 1.78.33 2.48-.06l2.21-1.25c.5-.28.95-.35 1.24-.18s.45.59.45 1.16v9.08Z"/><path fill="#444" d="M8.64 5.84c-.41 0-.75.34-.75.75v8.07c0 .41.34.75.75.75s.75-.34.75-.75V6.59c0-.41-.34-.75-.75-.75m6.73 2.67c-.41 0-.75.34-.75.75v8.22c0 .41.34.75.75.75s.75-.34.75-.75V9.26c0-.41-.34-.75-.75-.75"/></svg>