<?xml version="1.0" encoding="UTF-8"?><svg id="b" xmlns="http://www.w3.org/2000/svg" viewBox="0 0 24 24"><path d="m8.44,2.34c.02-.27-1.27.4-1.76.87l-3.41,3.27c-.64.61-1.05,1.42-1.11,2.31-.1,1.06-.16,2.15-.16,3.26,0,1.69.15,3.34.31,4.92h0c.14,1.21.68,2.34,1.54,3.2.57.57,1.26,1,2.01,1.27.08.03.15-.04.15-.12-.22-2.02-.25-3.99.05-6.09.15-1.02.92-1.83,1.96-1.99,2.2-.33,5.06-.32,7.96,0,.02,0,.03,0,.04,0,1,.15,1.79.94,1.94,1.95.32,2.11.28,4.14.05,6.17,0,.06.05.1.1.08.77-.27,1.46-.7,2.05-1.28.86-.86,1.4-1.99,1.54-3.2h0c.16-1.59.31-3.24.31-4.93s-.15-3.34-.31-4.92h0c-.14-1.21-.68-2.34-1.54-3.2-.68-.68-1.51-1.16-2.43-1.4-.11-.03-.21.06-.2.17.14,1.52.16,3.02-.06,4.61-.14,1.02-.92,1.84-1.96,1.99-1.7.24-3.35.24-5.05,0-1.02-.14-1.86-.94-2-1.96-.25-1.74-.21-3.34,0-5.01Zm6.91-.11c.15.01.26.13.28.28.17,1.56.21,3.03,0,4.57-.03.22-.19.38-.39.41-1.55.22-3.03.22-4.58,0-.2-.03-.36-.19-.39-.39-.22-1.57-.18-3.1.02-4.69.02-.15.15-.27.31-.27l4.75.1Zm-7.4,19.26l.42.37,7.25.02.42-.37c.05-.05.09-.12.1-.19.24-1.97.27-3.87-.02-5.83-.03-.2-.17-.35-.37-.39-2.78-.31-5.46-.31-7.47,0-.2.03-.36.19-.4.41-.27,1.98-.24,3.85-.02,5.83,0,.06.04.12.08.16Z" fill-rule="evenodd" stroke-width="0"/></svg>