<svg xmlns="http://www.w3.org/2000/svg" viewBox="0 0 24 24"><path fill="#444" d="M6.83 21.59c.11-.11.19-.25.24-.4l1.01-3.15-.09-.19c-.09-.18-.18-.38-.26-.62-.36-.99-.63-2.11-.8-3.33l-.17-1.2-1.3 1.62c-1.3 1.61-1.6 3.8-.77 5.71l.55 1.26c.17.39.54.62.96.59.25-.02.47-.12.63-.28Zm9.5-4.36c-.1.26-.19.49-.29.69l-.1.19.99 3.28c.12.41.44.68.88.72.23.02.53-.06.75-.28.08-.08.15-.19.21-.31l.55-1.26c.82-1.91.53-4.1-.77-5.7l-1.27-1.6-.18 1.19c-.17 1.13-.43 2.17-.76 3.09Zm-4.3-15.34c-1.02 0-4.29 3.88-4.28 9.33 0 2.06.32 4.02.91 5.67.12.34.22.56.32.72 0 0 0 .02.01.03.14.23.22.27.22.27.07.03.48-.14.68-.22.52-.22 1.24-.53 2.13-.53.91 0 1.62.3 2.14.52.19.09.61.27.69.23 0 0 .07-.04.19-.22 0 0 0-.02.02-.04.09-.15.21-.39.35-.76.59-1.65.91-3.61.91-5.67 0-5.46-3.26-9.33-4.3-9.33Zm1.39 7.45c-.76.76-2.01.76-2.76 0s-.77-2 0-2.77 2.01-.76 2.78 0 .76 2.01 0 2.77Z"/></svg>