<svg xmlns="http://www.w3.org/2000/svg" viewBox="0 0 24 24"><path d="M6.7 10.21c-.4-.12-.82.1-.93.5-.12.4.1.81.5.93.59.18 1.25.32 1.94.43h.11c.36 0 .68-.27.74-.64a.747.747 0 0 0-.63-.85c-.63-.1-1.21-.23-1.73-.38Z"/><path d="M11.83 14.77c0-.41-.34-.75-.75-.75-4.27 0-6.6-1.34-6.6-2.02V7.66c1.55.92 4.08 1.39 6.6 1.39s5.05-.47 6.6-1.39v2.96c0 .41.34.75.75.75s.75-.34.75-.75V5.53c0-2.31-4.07-3.52-8.1-3.52s-8.1 1.2-8.1 3.51v12.95c0 2.31 4.07 3.52 8.1 3.52.41 0 .75-.34.75-.75s-.34-.75-.75-.75c-4.27 0-6.6-1.34-6.6-2.02v-4.34c1.55.92 4.08 1.39 6.6 1.39.41 0 .75-.34.75-.75M11.08 3.5c4.27 0 6.6 1.34 6.6 2.02s-2.33 2.02-6.6 2.02-6.6-1.34-6.6-2.02 2.33-2.02 6.6-2.02"/><path d="M6.7 16.68a.75.75 0 0 0-.94.5c-.12.4.1.81.5.94.59.18 1.25.32 1.94.43h.11c.36 0 .68-.27.74-.64a.747.747 0 0 0-.63-.85c-.63-.1-1.21-.23-1.73-.38Zm14.2.3c-.29-.87-.88-1.35-1.48-1.56v-.53c0-.4 0-.81-.12-1.14-.31-.91-1.11-1.51-2.08-1.57-.99-.07-1.86.44-2.28 1.3-.24.45-.24.9-.23 1.25v.67c-.86.27-1.33.99-1.49 1.62-.15.59-.13 2.33-.06 2.97l.02.12c.26.98.93 1.63 1.97 1.84.3.03 1.04.03 1.9.03h1.43c1.62 0 2.25-1.01 2.5-1.94.07-.4.13-2.33-.06-3.07Zm-4.7-2.26c0-.23 0-.42.06-.55.25-.5.72-.51.86-.5.13 0 .58.07.76.58.03.08.04.29.04.63v.42H16.2v-.57Zm3.29 5.01c-.16.58-.43.78-1.1.77h-.43c-.75 0-2.32 0-2.61-.01-.37-.08-.6-.3-.72-.69-.06-.69-.04-2.1.03-2.4.06-.22.23-.6.78-.6h3.23c.39 0 .66.22.79.6.1.41.06 2.13.03 2.34Z"/></svg>