<?xml version="1.0" encoding="UTF-8"?><svg id="b" xmlns="http://www.w3.org/2000/svg" viewBox="0 0 24 24"><path d="m18.07,21.81c-.24,0-.49-.08-.68-.24l-1.24-1-1.17.94c-.33.34-.96.38-1.4.02l-1.58-1.02-1.64,1.07c-.37.31-1,.27-1.4-.13l-1.11-.88-1.24,1c-.33.27-.77.32-1.16.14-.38-.18-.62-.56-.62-.99V5.85c0-2.02,1.64-3.67,3.67-3.67h7.01c2.02,0,3.66,1.64,3.66,3.66v14.87c0,.43-.24.8-.62.99-.15.07-.31.11-.47.11Zm-10.45-1.42s.02.02.04.03l-.04-.03Zm4.18,0s.02.02.04.02l-.04-.02Zm2.24-.05s-.05.04-.07.06l.07-.06Zm2.39,0l-.07.06s.05-.04.07-.06Zm-4.18,0l-.07.05s.05-.03.07-.05Zm-2.71-.02s-.05.03-.07.05l.07-.05Zm.37-.01l.04.03s-.02-.02-.04-.03Zm4.5-.01l.04.03s-.02-.02-.04-.03Zm-2.44-1.37c.25,0,.5.08.71.25l1.56,1.01,1.2-.96c.33-.34.96-.38,1.4-.02l.83.67V5.85c0-1.19-.97-2.16-2.16-2.16h-7.01c-1.2,0-2.17.97-2.17,2.17v14.01l.83-.67c.44-.35,1.07-.32,1.46.08l1.14.91,1.62-1.05c.16-.13.38-.2.6-.2Zm-1.81-4.14h-.92c-.41,0-.75-.34-.75-.75s.34-.75.75-.75h.92c.41,0,.75.34.75.75s-.34.75-.75.75Zm4.58-3.7h-5.5c-.41,0-.75-.34-.75-.75s.34-.75.75-.75h5.5c.41,0,.75.34.75.75s-.34.75-.75.75Zm0-3.7h-5.5c-.41,0-.75-.34-.75-.75s.34-.75.75-.75h5.5c.41,0,.75.34.75.75s-.34.75-.75.75Z" stroke-width="0"/></svg>