<svg xmlns="http://www.w3.org/2000/svg" viewBox="0 0 24 24"><path fill="#444" d="M20.31 5.14c-.34-.46-.75-.86-1.22-1.19-1.5-1.06-3.63-1.26-7.03-1.26s-5.53.2-7.03 1.26c-.47.33-.88.73-1.22 1.19-1 1.34-1.35 3.13-1.35 6.86s.35 5.53 1.35 6.86c.34.46.75.86 1.22 1.19 1.5 1.06 3.63 1.26 7.03 1.26s5.53-.2 7.03-1.26c.47-.33.88-.73 1.22-1.19 1.06-1.41 1.24-3.34 1.24-6.86s-.19-5.45-1.24-6.86m-15.28.91c.24-.33.54-.61.88-.85 1.04-.73 2.59-.98 6.15-.98 2.71 0 4.26.15 5.3.54L4.7 17.42c-.52-1.04-.72-2.58-.72-5.41 0-3.36.27-4.92 1.05-5.95Zm14.06 11.9c-.25.33-.54.62-.88.85-1.04.73-2.59.98-6.15.98s-5.12-.25-6.15-.98c-.09-.07-.18-.14-.26-.22L18.67 5.56c.15.15.3.31.43.48.8 1.07.94 2.77.94 5.95s-.14 4.88-.94 5.95Z"/><path fill="#444" d="M6.61 9h4.17c.41 0 .75-.34.75-.75s-.34-.75-.75-.75H6.61c-.41 0-.75.34-.75.75s.34.75.75.75m10.83 5.17h-1.28v-1.33c0-.41-.34-.75-.75-.75s-.75.34-.75.75v1.33h-1.38c-.41 0-.75.34-.75.75s.34.75.75.75h1.38V17c0 .41.34.75.75.75s.75-.34.75-.75v-1.33h1.28c.41 0 .75-.34.75-.75s-.34-.75-.75-.75"/></svg>