<svg xmlns="http://www.w3.org/2000/svg" viewBox="0 0 24 24"><path fill="#444" fill-rule="evenodd" d="M3.98 2c.39 0 .7.31.7.7v18.6c0 .39-.31.7-.7.7s-.7-.31-.7-.7V2.7c0-.39.31-.7.7-.7"/><path fill="#444" d="M7.7 7.81c0-.87 0-1.3.19-1.63.12-.21.3-.39.51-.51.32-.19.76-.19 1.63-.19h8.37c.87 0 1.3 0 1.63.19.21.12.39.3.51.51.19.32.19.76.19 1.63s0 1.3-.19 1.63c-.12.21-.3.39-.51.51-.32.19-.76.19-1.63.19h-8.37c-.87 0-1.3 0-1.63-.19-.21-.12-.39-.3-.51-.51-.19-.32-.19-.76-.19-1.63m0 8.38c0-.87 0-1.3.19-1.63.12-.21.3-.39.51-.51.32-.19.76-.19 1.63-.19h5.58c.87 0 1.3 0 1.63.19.21.12.39.3.51.51.19.32.19.76.19 1.63s0 1.3-.19 1.63c-.12.21-.3.39-.51.51-.32.19-.76.19-1.63.19h-5.58c-.87 0-1.3 0-1.63-.19-.21-.12-.39-.3-.51-.51-.19-.32-.19-.76-.19-1.63"/></svg>