<?xml version="1.0" encoding="UTF-8"?><svg id="d" xmlns="http://www.w3.org/2000/svg" viewBox="0 0 24 24"><path d="m12,2c-4.11,0-6.91,2.13-8.44,3.74v-2.06c0-.41-.34-.75-.75-.75s-.75.34-.75.75v4.2s0,.06,0,.08c0,.11.04.21.09.3s.12.17.21.24c.07.05.15.09.24.12.07.02.14.02.21.03h4.07c.41,0,.75-.34.75-.75s-.34-.75-.75-.75h-2.57c1.24-1.41,3.81-3.64,7.69-3.64,4.66,0,8.44,3.81,8.44,8.5,0,3.86-2.59,7.24-6.29,8.22-.4.11-.64.52-.53.92.09.34.39.56.72.56.06,0,.13,0,.19-.02,4.36-1.16,7.41-5.13,7.41-9.67,0-5.51-4.46-10-9.94-10Z" fill="#444" stroke-width="0"/><path d="m4,14.71c-.29-.87-.44-1.78-.44-2.71,0-.41-.34-.75-.75-.75s-.75.34-.75.75c0,1.09.17,2.16.52,3.19.1.31.4.51.71.51.08,0,.16-.01.24-.04.39-.13.6-.56.47-.95Z" fill="#444" stroke-width="0"/><path d="m5.28,17.14c-.25-.33-.72-.4-1.05-.15-.33.25-.4.72-.15,1.05.66.87,1.44,1.62,2.34,2.23.13.09.28.13.42.13.24,0,.47-.11.62-.33.23-.34.15-.81-.2-1.04-.76-.52-1.43-1.16-1.98-1.9Z" fill="#444" stroke-width="0"/><path d="m12,20.5c-.77,0-1.53-.1-2.26-.31-.4-.11-.81.12-.92.52-.11.4.12.81.52.92.86.24,1.76.36,2.66.36.41,0,.75-.34.75-.75s-.34-.75-.75-.75Z" fill="#444" stroke-width="0"/></svg>