<svg xmlns="http://www.w3.org/2000/svg" viewBox="0 0 24 24"><g fill="#5e656d"><path d="M20.95 12.28c-.41 0-.75.34-.75.75v1.83c0 4.17-1.46 5.64-5.6 5.64H9.16c-4.13 0-5.6-1.48-5.6-5.64V9.38c0-4.17 1.47-5.64 5.6-5.64h1.81c.41 0 .75-.34.75-.75s-.34-.75-.75-.75H9.16c-4.98 0-7.1 2.14-7.1 7.14v5.48c0 5.01 2.12 7.14 7.1 7.14h5.44c4.98 0 7.1-2.14 7.1-7.14v-1.83c0-.41-.34-.75-.75-.75"/><path d="m7.06 12.21-.39 2.75c-.1.71.1 1.38.55 1.84.38.38.91.59 1.49.59.11 0 .23 0 .35-.02l2.73-.39c.53-.08 1.21-.42 1.62-.82l7.15-7.2c1.83-1.85 1.83-3.72 0-5.57-1.82-1.83-3.7-1.86-5.55 0l-7.15 7.2c-.39.4-.73 1.08-.81 1.63ZM17.78 3.5c.52 0 1.1.32 1.72.94 1.43 1.44 1.06 2.39 0 3.46l-.69.7a5.78 5.78 0 0 1-3.42-3.45l.7-.7c.63-.63 1.18-.94 1.7-.94Zm-9.23 8.92c.03-.22.23-.62.39-.78l5.31-5.35c.71 1.5 1.93 2.72 3.43 3.45l-5.31 5.35c-.17.17-.56.37-.78.4l-2.73.39c-.24.03-.44-.02-.56-.14s-.17-.32-.13-.57l.39-2.75Z"/></g></svg>