<svg xmlns="http://www.w3.org/2000/svg" viewBox="0 0 19.5 19.5"><path fill="#444" d="M4.75 0h-.8C1.77 0 0 1.77 0 3.95v.8c0 .41.34.75.75.75s.75-.34.75-.75v-.8C1.5 2.6 2.6 1.5 3.95 1.5h.8c.41 0 .75-.34.75-.75S5.16 0 4.75 0m10.8 0h-.8c-.41 0-.75.34-.75.75s.34.75.75.75h.8C16.9 1.5 18 2.6 18 3.95v.8c0 .41.34.75.75.75s.75-.34.75-.75v-.8C19.5 1.77 17.73 0 15.55 0m3.2 14c-.41 0-.75.34-.75.75v.8C18 16.9 16.9 18 15.55 18h-.8c-.41 0-.75.34-.75.75s.34.75.75.75h.8c2.18 0 3.95-1.77 3.95-3.95v-.8c0-.41-.34-.75-.75-.75m-14 4h-.8C2.6 18 1.5 16.9 1.5 15.55v-.8c0-.41-.34-.75-.75-.75s-.75.34-.75.75v.8c0 2.18 1.77 3.95 3.95 3.95h.8c.41 0 .75-.34.75-.75S5.16 18 4.75 18m8.03-6.1c.42-.64.63-1.43.63-2.35 0-2.46-1.41-3.87-3.87-3.87S5.67 7.09 5.67 9.55s1.41 3.87 3.87 3.87c.93 0 1.72-.21 2.35-.63l.87.87c.11.11.27.18.44.18s.33-.07.44-.19c.24-.25.24-.63 0-.88l-.86-.86Zm-.61-2.36c0 1.72-.91 2.62-2.62 2.62s-2.62-.91-2.62-2.62.91-2.62 2.62-2.62 2.62.91 2.62 2.62"/></svg>