<?xml version="1.0" encoding="UTF-8"?><svg id="b" xmlns="http://www.w3.org/2000/svg" viewBox="0 0 17.99 20"><g id="c"><g id="d"><path d="m12.59,14.9c-.28.29-.28.75,0,1.03.14.14.33.21.52.21s.38-.07.52-.22l3.38-3.4c.39-.4.39-1.05,0-1.44l-3.38-3.4c-.29-.29-.75-.29-1.03,0-.29.28-.29.75,0,1.03l2.27,2.29s0,.07-.03.07h-7.1c-.4,0-.73.33-.73.73s.33.73.73.73h7.1s.06.04.03.07l-2.27,2.29Z" fill="#444" stroke-width="0"/><path d="m17.98,6.11v-.02c-.05-.27-.1-.54-.18-.78-.58-2.07-1.95-3.11-4.36-3.38-.25-1.92-1.7-1.93-2.51-1.93h-3.73c-.81,0-2.25,0-2.51,1.93C1.38,2.3,0,4.14,0,8.14v5.58c0,3.88,1.05,6.28,6.28,6.28h5.58c2.54,0,4.08-.57,5-1.59.2-.2.36-.44.5-.69.04-.08.05-.16.05-.23,0-.12-.03-.23-.09-.33-.06-.13-.17-.22-.3-.29-.33-.17-.73-.04-.92.29,0,0,0,.02-.02.03-.65.99-1.89,1.42-4.22,1.42h-5.58c-4.2,0-4.89-1.44-4.89-4.89v-5.58c0-3.58,1.12-4.56,3.33-4.81.3,1.78,1.7,1.79,2.49,1.79h3.73c1.91,0,2.4-.94,2.52-1.79,1.59.2,2.61.77,3.04,2.45l.12.56c.02.12.08.22.15.31.16.2.41.28.67.23.16-.03.29-.12.39-.23.11-.13.17-.28.17-.45,0-.03,0-.06,0-.09Zm-7.04-2.39h-3.73c-.92,0-1.16,0-1.16-1.16s.24-1.16,1.16-1.16h3.73c.92,0,1.16,0,1.16,1.16,0,.93,0,1.16-1.16,1.16Z" fill="#444" stroke-width="0"/></g></g></svg>