<svg xmlns="http://www.w3.org/2000/svg" viewBox="0 0 24 24"><path d="M6.29 21.55a4.07 4.07 0 0 1-3.03-1.35c-.57-.63-.92-1.41-1.02-2.26s.06-1.69.46-2.43l1.7-3.17c.06-.1.08-.22.08-.34s-.03-.24-.09-.34L2.69 8.5c-.4-.75-.56-1.59-.46-2.44s.45-1.62 1.02-2.26a4 4 0 0 1 2.13-1.25c.83-.19 1.68-.11 2.46.21l10.8 4.48c.94.39 1.74 1.05 2.3 1.9s.86 1.84.85 2.86c0 1.01-.29 2-.85 2.86-.56.85-1.36 1.51-2.3 1.9l-10.8 4.48c-.5.21-1.03.31-1.56.31Zm0-17.5a2.5 2.5 0 0 0-1.85.82c-.35.39-.56.86-.62 1.38s.04 1.03.28 1.49l1.7 3.16c.18.34.28.72.28 1.1s-.09.76-.27 1.1l-1.7 3.17a2.53 2.53 0 0 0 .34 2.87c.35.38.79.65 1.3.76.5.11 1.02.07 1.49-.13l10.8-4.48c.64-.27 1.19-.72 1.58-1.31s.59-1.27.59-1.97c0-.71-.2-1.39-.59-1.98s-.94-1.04-1.58-1.31L7.23 4.24c-.3-.13-.62-.19-.95-.19Z"/><path d="M13.5 12.8h-4c-.44 0-.8-.36-.8-.8s.36-.8.8-.8h4c.44 0 .8.36.8.8s-.36.8-.8.8"/></svg>