<?xml version="1.0" encoding="UTF-8"?><svg id="b" xmlns="http://www.w3.org/2000/svg" viewBox="0 0 12.91 12.85"><g id="c"><path id="d" d="m.75,12.85c.41,0,.75-.34.75-.75v-7.69c0-.09.03-.16.09-.22.06-.06.13-.09.22-.09h8.25c.13,0,.19.15.1.24l-1.08,1.08c-.29.29-.29.76,0,1.05h0c.29.29.76.29,1.05,0l2.53-2.53c.33-.33.33-.86,0-1.19L10.13.22c-.29-.29-.76-.29-1.05,0h0c-.29.29-.29.76,0,1.05l1.08,1.08c.09.09.03.24-.1.24H1.81c-.5,0-.92.18-1.28.53-.35.35-.53.78-.53,1.28v7.69c0,.41.34.75.75.75h0Z" fill="#444" stroke-width="0"/></g></svg>