<svg xmlns="http://www.w3.org/2000/svg" viewBox="0 0 24 24"><path fill="#444" d="M15.47 17.23a.75.75 0 0 1-.52-.21c-.32-.31-.7-.56-1.12-.75a.747.747 0 0 1-.38-.99c.17-.38.61-.55.99-.38.58.25 1.1.6 1.55 1.03.3.29.31.76.02 1.06-.15.15-.34.23-.54.23Zm-6.94 0c-.2 0-.39-.08-.54-.23-.29-.3-.28-.77.02-1.06.45-.43.97-.78 1.55-1.03.38-.17.82 0 .99.38s0 .82-.38.99c-.42.18-.79.44-1.12.75-.14.14-.33.21-.52.21Zm-2.54-2.67c-.22 0-.44-.1-.59-.28-.26-.32-.2-.8.12-1.05 1.04-.82 2.2-1.45 3.47-1.87.39-.13.82.09.94.48.13.39-.09.82-.48.95-1.1.36-2.11.9-3 1.61-.14.11-.3.16-.47.16Zm12.03 0c-.17 0-.34-.06-.48-.18a8.5 8.5 0 0 0-2.98-1.64.757.757 0 0 1-.49-.94c.12-.4.54-.62.94-.49 1.3.41 2.47 1.05 3.5 1.92.32.27.36.74.09 1.06-.15.17-.36.27-.57.27Zm3.24-2.67a.7.7 0 0 1-.47-.17c-1.81-1.47-3.59-2.47-5.29-2.98a.744.744 0 0 1-.5-.93c.12-.4.53-.62.93-.51 1.89.56 3.84 1.65 5.81 3.25.32.26.37.73.11 1.05-.15.18-.36.28-.58.28Zm-18.5 0c-.22 0-.43-.09-.58-.28a.747.747 0 0 1 .11-1.05c1.97-1.6 3.92-2.69 5.81-3.25.4-.12.82.11.93.51.12.4-.11.81-.5.93-1.7.5-3.48 1.51-5.29 2.98-.14.11-.31.17-.47.17ZM12 17.23a.75.75 0 0 1-.74-.62L9.42 6.11c-.12-.68.2-1.31.8-1.58 1.06-.48 2.49-.48 3.55 0 .6.27.92.91.8 1.58l-1.84 10.5a.75.75 0 0 1-.74.62Zm0-11.56c-.41 0-.83.07-1.16.22l1.09 5.99c.01.07.11.06.12 0l1.05-6.01c-.32-.13-.71-.2-1.1-.2m.01 14.17a.749.749 0 1 1 0-1.5c.41 0 .75.34.75.75s-.34.75-.75.75"/></svg>