<svg xmlns="http://www.w3.org/2000/svg" viewBox="0 0 24 24"><path fill="#444" d="M7 2.25h-.8c-2.18 0-3.95 1.77-3.95 3.95V7c0 .41.34.75.75.75s.75-.34.75-.75v-.8c0-1.35 1.1-2.45 2.45-2.45H7c.41 0 .75-.34.75-.75s-.34-.75-.75-.75m10.8 0H17c-.41 0-.75.34-.75.75s.34.75.75.75h.8c1.35 0 2.45 1.1 2.45 2.45V7c0 .41.34.75.75.75s.75-.34.75-.75v-.8c0-2.18-1.77-3.95-3.95-3.95m3.2 14c-.41 0-.75.34-.75.75v.8c0 1.35-1.1 2.45-2.45 2.45H17c-.41 0-.75.34-.75.75s.34.75.75.75h.8c2.18 0 3.95-1.77 3.95-3.95V17c0-.41-.34-.75-.75-.75m-14 4h-.8c-1.35 0-2.45-1.1-2.45-2.45V17c0-.41-.34-.75-.75-.75s-.75.34-.75.75v.8c0 2.18 1.77 3.95 3.95 3.95H7c.41 0 .75-.34.75-.75s-.34-.75-.75-.75m8.03-6.1c.42-.64.63-1.43.63-2.35 0-2.46-1.41-3.87-3.87-3.87S7.92 9.34 7.92 11.8s1.41 3.87 3.87 3.87c.93 0 1.72-.21 2.35-.63l.87.87c.11.11.27.18.44.18s.33-.07.44-.19c.24-.25.24-.63 0-.88l-.86-.86Zm-.61-2.36c0 1.72-.91 2.62-2.62 2.62s-2.62-.91-2.62-2.62.91-2.62 2.62-2.62 2.62.91 2.62 2.62"/></svg>