<svg xmlns="http://www.w3.org/2000/svg" viewBox="0 0 24 24"><path fill="#444" d="m15.67 18.41-.45-.89-.69-1.37-.14-.29c-.37-.74-.69-1.36-.98-1.8-.32-.44-.74-.88-1.41-.88s-1.1.45-1.41.88c-.3.44-.61 1.06-.98 1.8l-.14.28-.69 1.38-.45.89c-.23.45-.42.84-.54 1.13-.12.28-.24.62-.19.97.09.73.64 1.33 1.36 1.47.34.06.7-.04.97-.13.31-.1.7-.26 1.17-.45h.02c.39-.18.5-.21.6-.24q.27-.045.54 0c.1.03.21.06.6.23h.02c.47.2.86.36 1.17.46.28.09.63.19.97.13a1.7 1.7 0 0 0 1.36-1.47c.05-.34-.07-.69-.19-.97-.12-.3-.31-.68-.54-1.13Zm-.88 2.19s-.08 0-.29-.07c-.25-.08-.59-.22-1.1-.44-.02 0-.04 0-.05-.02-.32-.13-.56-.23-.81-.28-.36-.07-.73-.07-1.1 0-.25.05-.49.15-.81.28 0 0-.03 0-.05.02-.5.21-.84.35-1.1.44-.2.06-.28.07-.29.07a.3.3 0 0 1-.23-.24c0-.02.02-.09.09-.29.1-.24.27-.58.51-1.06l.74-1.48.5-1c.06-.14.13-.27.19-.39.31-.59.52-1 .71-1.29.12-.17.19-.24.24-.27.02 0 .03-.02.03-.02l.03.02c.05.03.12.1.24.27.19.29.41.7.71 1.3l.19.38.5 1 .74 1.48c.24.48.41.82.51 1.06.07.19.09.27.09.29a.3.3 0 0 1-.23.24Z"/><path fill="#444" d="M15.43 2.05C14.43 2 13.29 2 12 2s-2.45 0-3.46.05c-4.77.19-6.49 1.29-6.52 7.6v.15c0 5.09 1.09 6.83 3.94 7.44.14.02.27.04.41.05.39.03.72-.25.76-.63.02-.3-.13-.56-.37-.68-.21-.04-.43-.07-.61-.12-2.25-.54-2.72-2.01-2.72-6.03v-.12c0-2.58.2-4.1.95-5l9.08 6.49 5.52 4.24c-.3.19-.66.32-1.09.43-.19.05-.41.08-.63.12-.24.12-.39.38-.37.68.04.38.37.66.76.63.14 0 .27-.03.41-.05 2.67-.57 3.8-2.14 3.93-6.51V9.66c-.03-6.32-1.75-7.42-6.55-7.6ZM5.6 3.87c.71-.26 1.63-.38 2.85-.43h.06c.97-.05 2.13-.05 3.49-.05s2.49 0 3.44.05h.11c1.56.06 2.65.23 3.4.68l-5.19 5.59-8.17-5.84Zm9.29 6.68 5.04-5.43c.45.82.61 2.01.65 3.79v1.73c-.04 1.77-.2 2.98-.64 3.8l-5.05-3.88Z"/></svg>