<?xml version="1.0" encoding="UTF-8"?><svg id="b" xmlns="http://www.w3.org/2000/svg" viewBox="0 0 17.76 11.12"><g id="c"><g id="d"><path d="m12.2,0H.83c-.46,0-.83.37-.83.82s.37.82.83.82h11.37c.46,0,.83-.37.83-.82s-.37-.82-.83-.82Zm0,3.79H.83c-.46,0-.83.37-.83.82s.37.83.83.83h11.37c.46,0,.83-.37.83-.83s-.37-.82-.83-.82Zm5.3,2.14c-.32-.31-.82-.31-1.14,0l-3.21,3.21-1.31-1.32c-.16-.15-.37-.23-.57-.23-.22,0-.43.09-.6.25-.3.32-.3.83,0,1.15l1.9,1.89c.32.32.84.32,1.16,0l3.8-3.79c.31-.33.3-.85-.03-1.16Zm-9.09,1.65H.83c-.46,0-.83.37-.83.82s.37.83.83.83h7.58c.46,0,.82-.37.82-.83s-.36-.82-.82-.82Z" fill="#444" stroke-width="0"/></g></g></svg>