<?xml version="1.0" encoding="UTF-8"?><svg id="b" xmlns="http://www.w3.org/2000/svg" viewBox="0 0 18 18"><g id="c"><g id="d"><path d="m12.73,5.61l-5,5c-.08.08-.21.08-.29,0l-2.18-2.18c-.29-.29-.76-.29-1.05,0s-.29.76,0,1.05l2.95,2.95c.23.23.61.23.85,0l5.77-5.77c.29-.29.29-.76,0-1.05-.29-.29-.76-.29-1.05,0Z" fill="#444" stroke-width="0"/><path d="m9,0C3.28,0,0,3.28,0,9s3.28,9,9,9,9-3.28,9-9S14.72,0,9,0Zm0,16.5c-4.84,0-7.5-2.66-7.5-7.5S4.16,1.5,9,1.5s7.5,2.66,7.5,7.5-2.66,7.5-7.5,7.5Z" fill="#444" stroke-width="0"/></g></g></svg>