<svg xmlns="http://www.w3.org/2000/svg" viewBox="0 0 16.19 20"><g fill="#444"><path d="M13.23 0H2.95C1.33 0 0 1.33 0 2.97v14.06C0 18.67 1.33 20 2.95 20h10.28a2.96 2.96 0 0 0 2.95-2.97V2.97c0-1.64-1.33-2.97-2.95-2.97m1.45 17.03c0 .81-.65 1.47-1.45 1.47H2.95c-.8 0-1.45-.66-1.45-1.47V2.97c0-.81.65-1.47 1.45-1.47h10.28c.8 0 1.45.66 1.45 1.47z"/><path d="M4.49 6.99h2.75c.41 0 .75-.34.75-.75s-.34-.75-.75-.75H4.49c-.41 0-.75.34-.75.75s.34.75.75.75m7.21 2.26H4.48c-.41 0-.75.34-.75.75s.34.75.75.75h7.22c.41 0 .75-.34.75-.75s-.34-.75-.75-.75m0 3.76H4.48c-.41 0-.75.34-.75.75s.34.75.75.75h7.22c.41 0 .75-.34.75-.75s-.34-.75-.75-.75"/></g></svg>