<svg xmlns="http://www.w3.org/2000/svg" viewBox="0 0 24 24"><g fill="#444"><path d="M21.41 8.04c-.34-.83-.96-1.45-2.09-2.59l-.77-.78c-1.13-1.13-1.75-1.75-2.58-2.1s-1.71-.35-3.31-.35h-1.3c-1.6 0-2.47 0-3.31.35-.83.35-1.45.97-2.58 2.1l-.78.78C3.57 6.58 2.95 7.2 2.6 8.03c-.34.83-.34 1.71-.34 3.31v1.31c0 1.6 0 2.48.34 3.31s.96 1.45 2.09 2.59l.77.78c1.13 1.13 1.75 1.75 2.58 2.1s1.71.35 3.31.35h1.3c1.6 0 2.47 0 3.31-.35.83-.35 1.45-.97 2.58-2.1l.78-.78c1.12-1.13 1.74-1.75 2.09-2.58.34-.83.34-1.71.34-3.31v-1.31c0-1.6 0-2.48-.34-3.31m-1.12 4.62c0 1.46 0 2.19-.23 2.75s-.75 1.08-1.78 2.11l-.77.78c-1.03 1.03-1.54 1.54-2.1 1.78-.56.23-1.29.23-2.74.23h-1.3c-1.45 0-2.18 0-2.74-.23s-1.08-.75-2.11-1.78l-.78-.78c-1.03-1.03-1.54-1.54-1.77-2.11-.23-.56-.23-1.3-.23-2.75v-1.31c0-1.46 0-2.19.23-2.75s.75-1.08 1.78-2.11l.77-.78c1.03-1.03 1.54-1.54 2.1-1.78.56-.23 1.29-.23 2.74-.23h1.3c1.45 0 2.18 0 2.74.23s1.08.75 2.11 1.78l.78.78c1.03 1.03 1.54 1.54 1.77 2.11.23.56.23 1.3.23 2.75z"/><path d="M12 10.79c-.4 0-.73.33-.73.73v4.28c0 .4.33.73.73.73s.73-.33.73-.73v-4.28c0-.4-.33-.73-.73-.73m0-3.33a.736.736 0 0 0 0 1.47.736.736 0 0 0 0-1.47"/></g></svg>