<?xml version="1.0" encoding="UTF-8"?><svg id="b" xmlns="http://www.w3.org/2000/svg" viewBox="0 0 19 17"><g id="c"><path id="d" d="m13.31,17c-.41,0-.76-.15-1.06-.44-.3-.3-.44-.65-.44-1.06v-4.19c0-.41.15-.76.44-1.06.3-.3.65-.44,1.06-.44h4.19c.41,0,.76.15,1.06.44.3.3.44.65.44,1.06v4.19c0,.41-.15.76-.44,1.06-.3.3-.65.44-1.06.44h-4.19Zm.22-1.5h3.75c.12,0,.22-.1.22-.22v-3.75c0-.12-.1-.22-.22-.22h-3.75c-.12,0-.22.1-.22.22v3.75c0,.12.1.22.22.22ZM0,13.4h0c0-.41.34-.75.75-.75h7.12c.41,0,.75.34.75.75h0c0,.41-.34.75-.75.75H.75c-.41,0-.75-.34-.75-.75Zm13.31-6.21c-.41,0-.76-.15-1.06-.44s-.44-.65-.44-1.06V1.5c0-.41.15-.76.44-1.06.3-.3.65-.44,1.06-.44h4.19c.41,0,.76.15,1.06.44s.44.65.44,1.06v4.19c0,.41-.15.76-.44,1.06-.3.3-.65.44-1.06.44h-4.19Zm.22-1.5h3.75c.12,0,.22-.1.22-.22V1.72c0-.12-.1-.22-.22-.22h-3.75c-.12,0-.22.1-.22.22v3.75c0,.12.1.22.22.22ZM0,3.6h0c0-.41.34-.75.75-.75h7.12c.41,0,.75.34.75.75h0c0,.41-.34.75-.75.75H.75c-.41,0-.75-.34-.75-.75Z" fill="#444" stroke-width="0"/></g></svg>