<svg xmlns="http://www.w3.org/2000/svg" viewBox="0 0 24 24"><path fill="#444" d="M4.54 21.67c-.42 0-.83-.16-1.15-.48l-.59-.59c-.31-.31-.48-.71-.48-1.15s.17-.84.48-1.15L13.39 7.72c.63-.63 1.67-.63 2.3 0l.59.59c.31.31.48.71.48 1.15s-.17.84-.48 1.15L5.7 21.2c-.32.32-.73.48-1.15.48Zm6-9.33-6.85 6.85c-.07.07-.11.17-.11.27s.04.19.11.26l.59.59c.14.15.38.15.53 0l6.85-6.85zm.88-.88 1.12 1.12 2.85-2.85c.07-.07.11-.17.11-.27s-.04-.19-.11-.27l-.59-.59a.37.37 0 0 0-.53 0l-2.85 2.85Zm7.83 3.34a.62.62 0 0 1-.44-.18l-1.41-1.41a.63.63 0 0 1 0-.88c.24-.24.64-.24.88 0l1.41 1.41c.24.24.24.64 0 .88a.62.62 0 0 1-.44.18m1.78-4.72h-2c-.34 0-.62-.28-.62-.62s.28-.62.62-.62h2c.34 0 .62.28.62.62s-.28.62-.62.62m-3.2-3.3a.62.62 0 0 1-.44-.18.63.63 0 0 1 0-.88l1.42-1.41c.24-.24.64-.24.88 0s.24.64 0 .88L18.27 6.6a.62.62 0 0 1-.44.18m-6.61 0a.62.62 0 0 1-.44-.18L9.37 5.19a.63.63 0 0 1 0-.88c.24-.24.64-.24.88 0l1.41 1.41c.24.24.24.64 0 .88a.62.62 0 0 1-.44.18m3.3-1.2c-.34 0-.62-.28-.62-.62v-2c0-.35.28-.62.62-.62s.62.28.62.62v2c0 .35-.28.62-.62.62"/></svg>