<?xml version="1.0" encoding="UTF-8"?><svg id="e" xmlns="http://www.w3.org/2000/svg" viewBox="0 0 24 24"><path d="m11.36,2.09c.54.24.78.87.54,1.41-.2.45-.4,1.15-.56,2.04,2.89-.1,5.79-.44,8.65-1.01.58-.12,1.14.26,1.26.84.12.58-.26,1.14-.84,1.26-3.09.61-6.21.98-9.34,1.06-.07.9-.11,1.86-.09,2.84,1.05-.13,2.06-.12,2.95.04.42.08.83.18,1.23.3.05-.29.07-.55.05-.78-.04-.59.41-1.1,1-1.14.59-.04,1.1.41,1.14,1,.04.57-.03,1.16-.18,1.76,1.39.76,2.48,1.81,3.06,3.06.5,1.09.6,2.31.14,3.52-.45,1.19-1.4,2.26-2.8,3.17-.5.32-1.16.18-1.48-.32-.32-.5-.18-1.16.32-1.48,1.14-.74,1.72-1.49,1.97-2.13.24-.62.2-1.24-.08-1.85-.32-.69-.97-1.37-1.88-1.93-.49,1-1.15,2.01-1.92,2.94-.56.68-1.19,1.34-1.88,1.93.34.62.72,1.12,1.15,1.49.45.39.5,1.06.12,1.51-.39.45-1.06.5-1.51.12-.59-.51-1.09-1.14-1.5-1.85-.94.57-1.94.97-2.95,1.12-.84.12-1.85.06-2.74-.31-.92-.39-1.76-1.17-1.94-2.44-.44-3.08,1.43-5.22,3.65-6.43.62-.33,1.28-.61,1.96-.82-.03-1.13,0-2.25.08-3.29-1.76-.02-3.52-.14-5.27-.35-.59-.07-1.01-.6-.94-1.19.07-.59.6-1.01,1.19-.94,1.75.21,3.5.32,5.26.34.19-1.17.45-2.2.77-2.94.24-.54.87-.78,1.41-.54Zm-2.37,11.14c-.37.14-.73.3-1.08.49-1.77.96-2.82,2.38-2.55,4.24.05.35.25.59.66.77.45.19,1.05.24,1.59.16.76-.11,1.57-.45,2.37-.96-.05-.15-.1-.31-.15-.46-.42-1.32-.68-2.77-.83-4.24Zm2.78,3.27c.37-.36.73-.75,1.07-1.16.65-.79,1.2-1.62,1.6-2.43-.29-.08-.59-.15-.9-.21-.7-.13-1.56-.13-2.45,0,.12,1.34.34,2.64.68,3.81Z" fill="#444" fill-rule="evenodd" stroke-width="0"/></svg>