<svg xmlns="http://www.w3.org/2000/svg" viewBox="0 0 24 24"><path fill="#323544" d="M21.84 11.68 12.29 2.1c-.13-.13-.45-.13-.65 0L8.99 4.75l2.45 2.45c.19-.1.42-.13.65-.13.9 0 1.58.74 1.58 1.58 0 .23-.03.45-.13.65l1.97 1.97c.19-.1.42-.13.65-.13.9 0 1.58.74 1.58 1.58 0 .9-.74 1.58-1.58 1.58-.9 0-1.58-.74-1.58-1.58 0-.23.03-.45.13-.65l-1.97-1.97h-.03v3.71c.58.26 1 .81 1 1.48 0 .9-.74 1.58-1.58 1.58-.9 0-1.58-.74-1.58-1.58 0-.68.42-1.26 1-1.48V10.2c-.58-.26-1-.81-1-1.48 0-.23.03-.45.13-.65L8.23 5.62l-6.1 6.06c-.13.13-.13.45 0 .65l9.58 9.58c.13.13.45.13.65 0l9.55-9.58c.1-.19.1-.45-.06-.65Z"/></svg>