<?xml version="1.0" encoding="UTF-8"?><svg id="e" xmlns="http://www.w3.org/2000/svg" viewBox="0 0 24 24"><path d="m13.07,2.36c-.63-.47-1.5-.47-2.14,0-2.17,1.65-7.22,6.08-7.19,11.39,0,4.56,3.7,8.26,8.26,8.26s8.26-3.7,8.26-8.25c.03-5.24-5.02-9.71-7.19-11.4h0Zm5.55,11.4c0,3.63-2.96,6.6-6.61,6.6s-6.61-2.96-6.61-6.61c-.03-4.69,5-8.89,6.54-10.06.02-.02.04-.02.06-.02s.04,0,.07.02c1.54,1.19,6.58,5.43,6.55,10.08h0Z" fill="#444" stroke-width="0"/><path d="m11.17,17.43c0-.76.68-.81.81-.81,1.35,0,2.44-1.1,2.44-2.44,0-.13.04-.81.81-.81s.81.68.81.81c0,2.25-1.82,4.07-4.07,4.07-.13,0-.81-.04-.81-.81h0Z" fill="#444" fill-rule="evenodd" stroke-width="0"/></svg>