<?xml version="1.0" encoding="UTF-8"?><svg id="b" xmlns="http://www.w3.org/2000/svg" viewBox="0 0 20 18.69"><g id="c"><g id="d"><path d="m16.05,15c-.36-.13-.76.05-.89.41-.41,1.12-1.56,1.88-2.87,1.88h-7.81c-1.7,0-3.08-1.38-3.08-3.08v-5.2c.05-.6.48-1.24,1.04-1.54.34-.18.46-.6.28-.94-.18-.34-.6-.47-.94-.28-.99.53-1.68,1.57-1.77,2.71v5.26c0,2.47,2.01,4.47,4.47,4.47h7.81c1.89,0,3.56-1.12,4.17-2.79.13-.36-.05-.76-.41-.89Z" fill="#444" stroke-width="0"/><path d="m15.16,4.26l-2.17,1.73c-.46.37-1.3.37-1.76,0l-2.16-1.72c-.14-.11-.32-.17-.5-.15-.18.02-.34.11-.44.23l-.02.02c-.11.14-.16.32-.14.5.02.18.11.34.26.46l2.17,1.73c.47.37,1.08.58,1.72.58s1.25-.21,1.72-.58l2.17-1.73c.3-.24.35-.66.11-.96-.23-.29-.66-.34-.95-.11Z" fill="#444" stroke-width="0"/><path d="m18.96,1.81c-.28-.33-.62-.63-1.03-.89-1.23-.78-2.98-.93-5.77-.93s-4.52.15-5.77.93c-.4.25-.74.55-1.03.89-.83,1.01-1.13,2.33-1.13,5.05s.3,4.05,1.13,5.05c.29.34.63.64,1.03.89,1.23.78,2.98.93,5.77.93s4.52-.15,5.77-.93c.4-.25.75-.55,1.03-.89.88-1.07,1.04-2.48,1.04-5.05s-.15-3.99-1.04-5.05Zm-.42,5.05c0,2.27-.11,3.48-.74,4.24-.2.24-.43.44-.7.6-.84.52-2.09.7-4.95.7s-4.1-.18-4.94-.7c-.29-.19-.52-.39-.7-.6-.61-.73-.83-1.84-.83-4.24s.22-3.51.83-4.24c.2-.24.43-.44.7-.6.83-.51,2.12-.7,4.94-.7s4.11.18,4.95.7c.29.19.52.39.7.6.63.76.74,1.97.74,4.24Z" fill="#444" stroke-width="0"/></g></g></svg>