<?xml version="1.0" encoding="UTF-8"?>
<svg xmlns="http://www.w3.org/2000/svg" viewBox="0 0 24 24">
  <g id="f">
    <path
      d="m12.08,22c-.06,0-.12,0-.18-.02-2.94-.73-9.78-3.19-9.78-10.39,0-5.8,1.61-7.04,1.93-7.23.29-.13,5.35-2.35,7.94-2.35s7.65,2.22,7.87,2.31c.4.23,2.01,1.47,2.01,7.27,0,7.45-7.36,9.84-9.61,10.39-.06.01-.12.02-.18.02ZM4.83,5.65c-.19.19-1.2,1.42-1.2,5.94,0,6.01,5.77,8.2,8.46,8.89,2.63-.68,8.29-2.85,8.29-8.89,0-4.52-1.02-5.75-1.2-5.94-1.45-.63-5.32-2.15-7.17-2.15s-5.72,1.51-7.17,2.15Z"
      fill="#444" stroke-width="0" />
    <path
      d="m14.16,8.74l-3.42,3.44-.95-.95c-.29-.29-.77-.29-1.06,0-.29.29-.3.77,0,1.06l1.48,1.49c.14.14.33.22.53.22s.39-.08.53-.22l3.95-3.98c.29-.29.29-.77,0-1.06-.29-.29-.77-.29-1.06,0Z"
      fill="#444" stroke-width="0" />
  </g>
</svg>