<svg xmlns="http://www.w3.org/2000/svg" width="24" height="24" viewBox="0 0 24 24"><g fill="#707575"><path d="M20.3 11.32H10.2l1.56-1.55a.803.803 0 0 0-.57-1.37c-.21 0-.41.08-.56.23L7.7 11.55c-.07.07-.12.15-.17.25-.04.11-.06.22-.06.32s.02.21.07.32c.04.1.1.18.17.25l2.93 2.92c.16.16.36.23.56.23s.41-.08.57-.23c.15-.15.23-.35.23-.57s-.08-.41-.24-.56l-1.56-1.55h10.1c.44 0 .8-.36.8-.8s-.36-.8-.8-.8Z"/><path d="M17.87 15.57h-.07c-.41 0-.76.31-.8.73-.16 1.71-.54 2.64-1.3 3.21-.88.65-2.39.94-4.9.94-3.21 0-4.82-.48-5.53-1.64-.34-.56-.55-1.36-.66-2.51S4.5 13.76 4.5 12s0-3.15.11-4.3.32-1.95.66-2.51c.72-1.17 2.32-1.64 5.53-1.64 2.51 0 4.02.29 4.9.94.77.57 1.15 1.5 1.3 3.21.04.41.39.73.8.73h.07c.44-.04.76-.43.72-.87-.2-2.19-.78-3.49-1.95-4.35-1.19-.88-2.94-1.25-5.85-1.25-3.85 0-5.85.7-6.89 2.4-.48.79-.76 1.77-.89 3.2-.11 1.23-.11 2.71-.11 4.42v.06c0 1.71 0 3.19.11 4.42.13 1.42.41 2.41.89 3.2 1.05 1.71 3.05 2.4 6.89 2.4 2.92 0 4.67-.38 5.85-1.25 1.16-.86 1.75-2.16 1.95-4.35.02-.21-.04-.42-.18-.58s-.33-.27-.54-.29Z"/></g></svg>