<svg xmlns="http://www.w3.org/2000/svg" viewBox="0 0 24 24"><path fill="#444" d="M17.98 12.28h-1.03v-1.02c0-.39-.32-.7-.7-.7s-.7.32-.7.7v1.02h-1.03c-.39 0-.7.32-.7.7s.32.7.7.7h1.03v1.02c0 .39.32.7.7.7s.7-.32.7-.7v-1.02h1.03c.39 0 .7-.32.7-.7s-.32-.7-.7-.7m-8.68 0H5.83c-.39 0-.7.32-.7.7s.32.7.7.7H9.3c.39 0 .7-.32.7-.7s-.32-.7-.7-.7"/><path fill="#444" d="M18.35 5.98v-.23c0-.7 0-1.12-.27-1.52a1.4 1.4 0 0 0-.44-.43c-.4-.26-.82-.26-1.52-.26s-1.13 0-1.52.26c-.18.12-.32.26-.44.43-.23.35-.26.73-.26 1.29h-3.8c0-.56-.03-.94-.26-1.29a1.6 1.6 0 0 0-.43-.43c-.4-.26-.82-.26-1.52-.26s-1.13 0-1.52.26a1.6 1.6 0 0 0-.43.43c-.27.4-.27.82-.27 1.52v.23c-2.27.71-3.15 2.49-3.15 7.01 0 7.48 2.39 7.48 9.5 7.48s9.5 0 9.5-7.48c0-4.53-.89-6.3-3.15-7.01Zm-2.98-1c.17-.07 1.32-.09 1.54.03.03.08.03.38.03.68-.5-.06-1.04-.11-1.63-.13 0-.25.01-.49.06-.57Zm-8.25 0c.17-.07 1.32-.09 1.54.02.03.07.03.29.03.55-.59.02-1.13.07-1.63.13 0-.3 0-.6.06-.71ZM12 19.06c-7.01 0-8.09 0-8.09-6.07S4.99 6.92 12 6.92s8.09 0 8.09 6.07-1.08 6.07-8.09 6.07"/></svg>