<svg xmlns="http://www.w3.org/2000/svg" viewBox="0 0 24 24"><path fill="#444" d="M20.7 10.13c0 .28-.08.55-.24.78a1.4 1.4 0 0 1-1.44.6c-.27-.05-.52-.19-.72-.38s-.33-.45-.38-.72-.03-.56.08-.81.29-.48.52-.63.5-.24.78-.24c.37 0 .73.15.99.41s.41.62.41.99m-1.41-2.7c-.71 0-1.4.28-1.91.78s-.8 1.18-.8 1.9l-1.69 2.42c-.07 0-.14-.01-.21-.01-.36 0-.72.1-1.03.29L6 9.74c-.08-.37-.27-.71-.54-.99-.27-.27-.61-.46-.98-.55s-.76-.07-1.12.06c-.36.12-.68.35-.92.65a2.033 2.033 0 0 0 1.59 3.3c.36 0 .72-.1 1.03-.29l7.65 3.07a2.02 2.02 0 0 0 2.09 1.59c.48-.03.94-.23 1.28-.56.35-.33.56-.78.61-1.26l2.6-1.9c.72 0 1.41-.29 1.92-.79.51-.51.79-1.2.79-1.92s-.29-1.41-.79-1.92c-.51-.51-1.2-.79-1.92-.79Zm0 .89c.36 0 .71.11 1.01.31s.53.48.67.81.17.7.1 1.05-.24.67-.5.93-.58.43-.93.5-.72.03-1.05-.1c-.33-.14-.61-.37-.81-.67s-.31-.65-.31-1.01a1.81 1.81 0 0 1 1.81-1.81Zm-15.27.35a1.49 1.49 0 0 1 1.32.79l-.74-.3c-.29-.1-.61-.09-.89.03s-.5.35-.62.64c-.11.28-.11.6 0 .89.12.28.34.51.62.64s.63.25.63.25c-.11.02-.21.04-.32.04-.39 0-.77-.16-1.05-.43-.28-.28-.44-.66-.44-1.05s.16-.77.43-1.05c.28-.28.66-.44 1.05-.44Zm10.66 4.38c.26 0 .52.07.75.2s.42.32.55.55.2.49.19.75c0 .26-.08.52-.21.75s-.33.41-.56.54-.49.19-.76.18c-.26 0-.52-.08-.74-.22s-.41-.34-.53-.57c.25.1.49.2.73.3.14.06.3.09.46.09q.24 0 .45-.09c.14-.06.27-.15.38-.26s.2-.24.25-.39c.06-.15.09-.3.08-.46 0-.16-.04-.31-.1-.45s-.15-.27-.27-.38c-.11-.11-.25-.19-.39-.25l-.62-.25c.11-.02.22-.03.32-.04Z"/></svg>