<svg xmlns="http://www.w3.org/2000/svg" viewBox="0 0 24 24"><path fill="#444" d="M12 22c-1.1 0-1.56-.19-2.25-.48-2.68-1.15-7.1-3.9-7.1-9.61V6.85c0-2.26 0-3.5.94-4.3.94-.79 2.16-.59 4.38-.22l1 .16c3.18.54 2.87.54 6.04 0l1.01-.16c2.22-.37 3.44-.58 4.38.22s.94 2.04.94 4.3v5.06c0 5.71-4.41 8.46-7.04 9.59-.74.31-1.2.5-2.3.5M5.34 3.5c-.36 0-.61.06-.77.19-.41.35-.41 1.35-.41 3.16v5.06c0 4.61 3.34 7.01 6.14 8.21.67.28.91.38 1.71.38s1.04-.1 1.67-.36c2.84-1.22 6.18-3.62 6.18-8.23V6.85c0-1.81 0-2.81-.41-3.16-.4-.34-1.44-.17-3.16.12l-1.01.16c-3.08.53-3.43.53-6.53 0l-1-.16C6.7 3.63 5.9 3.5 5.35 3.5Z"/><path fill="#444" d="M10.57 9.78c-.28 0-.54-.15-.67-.42-.13-.26-.61-.54-1.24-.54s-1.11.28-1.24.54a.76.76 0 0 1-1.01.34.757.757 0 0 1-.34-1.01c.42-.83 1.43-1.37 2.58-1.37s2.17.54 2.58 1.37c.18.37.03.82-.34 1.01a.8.8 0 0 1-.33.08Zm6.68 0c-.28 0-.54-.15-.67-.42-.13-.26-.61-.54-1.24-.54s-1.11.28-1.24.54c-.18.37-.63.52-1.01.34a.757.757 0 0 1-.34-1.01c.42-.83 1.43-1.37 2.58-1.37s2.17.54 2.58 1.37c.18.37.03.82-.34 1.01a.8.8 0 0 1-.33.08ZM12 15.53c-2.57 0-3.74-1.05-3.86-1.17a.746.746 0 0 1-.02-1.06c.28-.3.75-.31 1.05-.03.05.04.89.76 2.83.76s2.8-.73 2.83-.76c.3-.27.78-.26 1.06.05.28.3.27.76-.03 1.05-.12.12-1.29 1.17-3.86 1.17Z"/></svg>