<?xml version="1.0" encoding="UTF-8"?><svg id="c" xmlns="http://www.w3.org/2000/svg" viewBox="0 0 24 24"><g id="d"><path d="m7.48,17.64c-.44,0-.88-.04-1.31-.13-1.24-.28-2.37-.97-3.17-1.96s-1.24-2.23-1.25-3.51c0-1.27.42-2.52,1.2-3.52.79-1,1.9-1.71,3.14-2,1.24-.29,2.55-.16,3.7.39.85.4,1.58,1.01,2.14,1.76.19.26.48.43.81.43l6.75-.05c.3,0,.59.11.8.33l1.5,1.47c.3.29.46.67.47,1.06,0,.39-.16.77-.45,1.07l-1.59,1.61c-.58.59-1.53.6-2.12.02h0c-.3-.29-.77-.29-1.06,0h0c-.58.59-1.53.6-2.12.02l-.54-.53-.53.54c-.14.14-.31.22-.53.22h-1.04c-.56.96-1.39,1.74-2.39,2.23-.75.37-1.56.56-2.39.57Zm-.16-9.78c-.29,0-.59.04-.88.11-.91.22-1.73.74-2.3,1.47-.58.73-.89,1.65-.88,2.59,0,.93.33,1.85.92,2.57.59.73,1.41,1.24,2.32,1.44.91.2,1.87.09,2.71-.32.84-.41,1.52-1.1,1.92-1.94.12-.26.43-.42.67-.43h.87c.2,0,.39-.09.53-.23l.62-.63c.14-.14.34-.18.53-.22.2,0,.39.08.53.22l.54.53c.3.29.77.29,1.06,0h0c.58-.59,1.53-.6,2.13-.02h0c.3.29.77.29,1.06,0l.53-.54c.29-.3.29-.77,0-1.06l-.63-.62c-.14-.14-.33-.22-.53-.22l-6.73.05c-.59,0-1.11-.33-1.43-.83-.42-.65-1.01-1.17-1.72-1.51-.58-.27-1.21-.41-1.84-.39Z" fill="#444" stroke-width="0"/><path d="m6.39,13.13h-.01c-.3,0-.58-.11-.8-.32-.21-.21-.33-.49-.34-.79s.11-.58.32-.8c.44-.44,1.15-.45,1.59-.01.21.21.33.49.34.79s-.11.58-.33.8c-.21.21-.49.33-.78.33Zm-.28-1.39c-.07.07-.11.17-.11.27,0,.1.04.19.11.26.15.15.38.14.53,0,.15-.15.14-.38,0-.53-.07-.07-.14-.1-.27-.11-.1,0-.19.04-.26.11h0Z" fill="#444" stroke-width="0"/></g></svg>