<svg xmlns="http://www.w3.org/2000/svg" viewBox="0 0 24 24"><path fill="#444" fill-rule="evenodd" d="M19.06 7.99a.75.75 0 0 0-1.31.73 6.86 6.86 0 0 1 0 6.58c-.2.36-.07.81.29 1.01.11.07.24.1.36.1.26 0 .52-.14.66-.39 1.37-2.47 1.37-5.55 0-8.03m-5.13-2.73c-1.67-.99-3.21.19-4.33 1.05-.46.35-.89.68-1.22.79-.45.14-.83.19-1.21.23-.65.08-1.33.16-2.07.79-1.19 1.01-1.18 2.6-1.18 3.88s0 2.88 1.18 3.89c.74.63 1.42.71 2.07.79.37.04.76.09 1.2.23.33.11.76.44 1.22.79.82.63 1.85 1.42 3 1.42.44 0 .9-.11 1.37-.39 1.34-.95 1.81-2.71 1.81-6.73s-.46-5.75-1.85-6.74Z"/></svg>