<svg xmlns="http://www.w3.org/2000/svg" viewBox="0 0 24 24"><path fill="#444" d="M9.68 7.15c-.7 0-1.27.57-1.27 1.27s.57 1.26 1.27 1.26 1.27-.57 1.27-1.26-.57-1.27-1.27-1.27m4.64 0c-.7 0-1.27.57-1.27 1.27s.57 1.26 1.27 1.26 1.27-.57 1.27-1.26-.57-1.27-1.27-1.27m0 0c-.7 0-1.27.57-1.27 1.27s.57 1.26 1.27 1.26 1.27-.57 1.27-1.26-.57-1.27-1.27-1.27m-4.64 0c-.7 0-1.27.57-1.27 1.27s.57 1.26 1.27 1.26 1.27-.57 1.27-1.26-.57-1.27-1.27-1.27m0 0c-.7 0-1.27.57-1.27 1.27s.57 1.26 1.27 1.26 1.27-.57 1.27-1.26-.57-1.27-1.27-1.27m4.64 0c-.7 0-1.27.57-1.27 1.27s.57 1.26 1.27 1.26 1.27-.57 1.27-1.26-.57-1.27-1.27-1.27m0 0c-.7 0-1.27.57-1.27 1.27s.57 1.26 1.27 1.26 1.27-.57 1.27-1.26-.57-1.27-1.27-1.27m-4.64 0c-.7 0-1.27.57-1.27 1.27s.57 1.26 1.27 1.26 1.27-.57 1.27-1.26-.57-1.27-1.27-1.27m0 0c-.7 0-1.27.57-1.27 1.27s.57 1.26 1.27 1.26 1.27-.57 1.27-1.26-.57-1.27-1.27-1.27m4.64 0c-.7 0-1.27.57-1.27 1.27s.57 1.26 1.27 1.26 1.27-.57 1.27-1.26-.57-1.27-1.27-1.27m0 0c-.7 0-1.27.57-1.27 1.27s.57 1.26 1.27 1.26 1.27-.57 1.27-1.26-.57-1.27-1.27-1.27m-4.64 0c-.7 0-1.27.57-1.27 1.27s.57 1.26 1.27 1.26 1.27-.57 1.27-1.26-.57-1.27-1.27-1.27m6.96-3.72h-3.87l.04-.15c.07-.36.09-.75.03-.81-.28-.28-1.4-.28-1.68 0-.06.06-.04.45.03.81l.04.15H7.36c-1.47 0-2.66 1.2-2.66 2.66v2.79a4.52 4.52 0 0 0 4.51 4.52h5.58a4.52 4.52 0 0 0 4.51-4.52V6.09c0-1.46-1.19-2.66-2.66-2.66m1.06 5.45c0 1.6-1.31 2.91-2.91 2.91H9.21A2.92 2.92 0 0 1 6.3 8.88V6.09c0-.58.48-1.05 1.06-1.05h9.28c.58 0 1.06.47 1.06 1.05zm-3.38-1.73c-.7 0-1.27.57-1.27 1.27s.57 1.26 1.27 1.26 1.27-.57 1.27-1.26-.57-1.27-1.27-1.27m-4.64 0c-.7 0-1.27.57-1.27 1.27s.57 1.26 1.27 1.26 1.27-.57 1.27-1.26-.57-1.27-1.27-1.27m0 0c-.7 0-1.27.57-1.27 1.27s.57 1.26 1.27 1.26 1.27-.57 1.27-1.26-.57-1.27-1.27-1.27m4.64 0c-.7 0-1.27.57-1.27 1.27s.57 1.26 1.27 1.26 1.27-.57 1.27-1.26-.57-1.27-1.27-1.27m0 0c-.7 0-1.27.57-1.27 1.27s.57 1.26 1.27 1.26 1.27-.57 1.27-1.26-.57-1.27-1.27-1.27m-4.64 0c-.7 0-1.27.57-1.27 1.27s.57 1.26 1.27 1.26 1.27-.57 1.27-1.26-.57-1.27-1.27-1.27m0 0c-.7 0-1.27.57-1.27 1.27s.57 1.26 1.27 1.26 1.27-.57 1.27-1.26-.57-1.27-1.27-1.27m4.64 0c-.7 0-1.27.57-1.27 1.27s.57 1.26 1.27 1.26 1.27-.57 1.27-1.26-.57-1.27-1.27-1.27m0 0c-.7 0-1.27.57-1.27 1.27s.57 1.26 1.27 1.26 1.27-.57 1.27-1.26-.57-1.27-1.27-1.27m-4.64 0c-.7 0-1.27.57-1.27 1.27s.57 1.26 1.27 1.26 1.27-.57 1.27-1.26-.57-1.27-1.27-1.27m0 0c-.7 0-1.27.57-1.27 1.27s.57 1.26 1.27 1.26 1.27-.57 1.27-1.26-.57-1.27-1.27-1.27m4.64 0c-.7 0-1.27.57-1.27 1.27s.57 1.26 1.27 1.26 1.27-.57 1.27-1.26-.57-1.27-1.27-1.27m-4.64 0c-.7 0-1.27.57-1.27 1.27s.57 1.26 1.27 1.26 1.27-.57 1.27-1.26-.57-1.27-1.27-1.27m4.64 0c-.7 0-1.27.57-1.27 1.27s.57 1.26 1.27 1.26 1.27-.57 1.27-1.26-.57-1.27-1.27-1.27M12 14.58c-3.61 0-6.72 2.69-7.23 6.26-.03.23.04.46.19.63a.8.8 0 0 0 .61.28c.4 0 .74-.29.79-.68.4-2.78 2.82-4.89 5.64-4.89s5.24 2.11 5.64 4.89c.05.39.39.68.79.68a.8.8 0 0 0 .61-.28c.15-.17.22-.4.19-.63-.51-3.57-3.62-6.26-7.23-6.26"/></svg>