<?xml version="1.0" encoding="UTF-8"?><svg id="e" xmlns="http://www.w3.org/2000/svg" viewBox="0 0 24 24"><path d="m4.54,21.67c-.42,0-.83-.16-1.15-.48l-.59-.59c-.31-.31-.48-.71-.48-1.15s.17-.84.48-1.15L13.39,7.72c.63-.63,1.67-.63,2.3,0l.59.59c.31.31.48.71.48,1.15s-.17.84-.48,1.15l-10.58,10.59c-.32.32-.73.48-1.15.48Zm6-9.33l-6.85,6.85c-.07.07-.11.17-.11.27s.04.19.11.26l.59.59c.14.15.38.15.53,0l6.85-6.85-1.12-1.12Zm.88-.88l1.12,1.12,2.85-2.85c.07-.07.11-.17.11-.27s-.04-.19-.11-.27l-.59-.59c-.14-.15-.38-.15-.53,0l-2.85,2.85Zm7.83,3.34c-.16,0-.32-.06-.44-.18l-1.41-1.41c-.24-.24-.24-.64,0-.88.24-.24.64-.24.88,0l1.41,1.41c.24.24.24.64,0,.88-.12.12-.28.18-.44.18Zm1.78-4.72h-2c-.34,0-.62-.28-.62-.62s.28-.62.62-.62h2c.34,0,.62.28.62.62s-.28.62-.62.62Zm-3.2-3.3c-.16,0-.32-.06-.44-.18-.24-.24-.24-.64,0-.88l1.42-1.41c.24-.24.64-.24.88,0s.24.64,0,.88l-1.42,1.41c-.12.12-.28.18-.44.18Zm-6.61,0c-.16,0-.32-.06-.44-.18l-1.41-1.41c-.24-.24-.24-.64,0-.88.24-.24.64-.24.88,0l1.41,1.41c.24.24.24.64,0,.88-.12.12-.28.18-.44.18Zm3.3-1.2c-.34,0-.62-.28-.62-.62v-2c0-.35.28-.62.62-.62s.62.28.62.62v2c0,.35-.28.62-.62.62Z" fill="#444" stroke-width="0"/></svg>