<svg xmlns="http://www.w3.org/2000/svg" viewBox="0 0 24 24"><path fill="#5e656d" d="M13.12 21.74a.753.753 0 0 1-.62-1.17c1.06-1.57 1.86-3.29 2.39-5.12.11-.4.53-.63.93-.51.4.11.63.53.51.93-.56 1.98-1.43 3.84-2.58 5.54-.14.21-.38.33-.62.33Zm-4.15-.73c-.17 0-.35-.06-.49-.18a.756.756 0 0 1-.08-1.06c2.21-2.58 3.42-5.87 3.42-9.26a.749.749 0 1 1 1.5 0c0 3.75-1.34 7.39-3.78 10.24-.15.17-.36.26-.57.26m9.53-1.48c-.09 0-.19-.02-.28-.05a.745.745 0 0 1-.42-.97c1.01-2.54 1.52-5.23 1.52-7.99 0-1.33-.39-2.62-1.12-3.72-2.05-3.1-6.25-3.96-9.35-1.91-.35.23-.81.13-1.04-.21a.753.753 0 0 1 .21-1.04c3.79-2.51 8.92-1.46 11.43 2.33a8.27 8.27 0 0 1 1.37 4.55c0 2.95-.54 5.82-1.62 8.54-.12.29-.4.47-.7.47m-12.59-.72c-.18 0-.36-.06-.5-.2a.746.746 0 0 1-.05-1.06c1.76-1.93 2.72-4.44 2.72-7.05 0-2.48 2.02-4.5 4.5-4.5s4.5 2.02 4.5 4.5c0 .55-.02 1.09-.07 1.63-.03.41-.4.72-.81.69a.743.743 0 0 1-.68-.81q.06-.75.06-1.5c0-1.65-1.35-3-3-3s-3 1.35-3 3c0 2.99-1.1 5.85-3.11 8.06-.15.16-.35.25-.56.25Zm-1.99-3.56c-.14 0-.28-.04-.4-.12a.746.746 0 0 1-.23-1.04 6.63 6.63 0 0 0 1.03-3.59c0-1.62.47-3.2 1.37-4.55.23-.35.69-.44 1.04-.21s.44.69.21 1.04a6.74 6.74 0 0 0-1.12 3.72c0 1.56-.44 3.08-1.27 4.4a.74.74 0 0 1-.63.35"/></svg>