<svg xmlns="http://www.w3.org/2000/svg" viewBox="0 0 24 24"><path fill="#444" d="M19.09 6.75c-.46-.68-1.06-.93-1.97-1.3-.59-.24-1.2-.44-1.82-.6V4.7c0-1.05 0-1.69-.5-2.19C14.3 2 13.66 2 12.61 2H11.4c-1.05 0-1.68 0-2.19.51-.5.5-.5 1.14-.5 2.19v.15c-.61.16-1.22.36-1.82.6-.91.37-1.51.62-1.97 1.3s-.46 1.4-.46 2.58v8.04c0 1.51 0 2.42.64 3.17.64.76 1.45.89 2.8 1.11 1.34.22 2.72.33 4.1.33s2.77-.11 4.1-.33c1.35-.22 2.16-.36 2.8-1.11s.64-1.67.64-3.17V9.33c0-1.19 0-1.9-.46-2.59Zm-8.83-3.18c.11-.07.65-.07 1.13-.07h1.21c.48 0 1.02 0 1.12.06.06.1.07.55.07 1-1.19-.16-2.4-.16-3.6 0 0-.44 0-.89.06-.99ZM6.15 7.59c.2-.29.45-.4 1.29-.75.7-.28 1.42-.51 2.14-.66h.03c1.57-.33 3.19-.33 4.76 0h.03c.72.16 1.44.38 2.14.66.85.35 1.1.46 1.29.75s.2.68.2 1.75v2.03c0 .08-.07.13-.15.11-3.8-.93-8-.93-11.8 0a.12.12 0 0 1-.15-.11V9.34c0-1.08 0-1.46.2-1.75Zm4.65 12.86V19.3c0-.48 0-1.02.06-1.13.22-.14 2.04-.13 2.25 0 .07.11.07.66.07 1.14v1.15c-.79.04-1.59.04-2.38 0Zm6.95-.87c-.27.32-.7.4-1.9.6-.38.06-.78.1-1.17.14v-1.03c0-1.05 0-1.69-.5-2.19-.5-.51-1.14-.51-2.19-.51s-1.68 0-2.19.51c-.5.5-.5 1.14-.5 2.19v1.03c-.39-.04-.79-.08-1.17-.14-1.2-.2-1.63-.28-1.9-.6s-.28-.88-.28-2.21v-4.22c0-.06.04-.11.09-.12 3.8-1.02 8.11-1.02 11.91 0 .05.01.09.06.09.12v4.22c0 1.33-.01 1.88-.28 2.21Z"/></svg>