<svg xmlns="http://www.w3.org/2000/svg" viewBox="0 0 24 24"><path fill="#444" d="M11.95 13.2h-4c-.5 0-.8.3-.8.8s.4.8.8.8h4c.5 0 .8-.3.8-.8s-.4-.8-.8-.8m4-4h-8c-.5 0-.8.3-.8.8s.4.8.8.8h8c.5 0 .8-.3.8-.8s-.4-.8-.8-.8"/><path fill="#444" d="M19.99 5.99a10.03 10.03 0 0 0-5.36-3.64c-1.86-.51-3.79-.47-5.62.1S5.57 4.1 4.34 5.57a9.93 9.93 0 0 0-2.25 5.14c-.25 1.9.06 3.83.88 5.56.12.25.15.56.08.84l-.34 1.31c-.11.4-.11.82 0 1.21.11.4.32.76.61 1.05s.65.5 1.05.6.82.1 1.2 0l1.31-.34c.29-.06.58-.03.87.11 1.29.6 2.7.92 4.13.94l.03.02c2.63 0 5.16-1.02 7.05-2.87 1.89-1.84 2.99-4.35 3.05-6.99.03-2.21-.68-4.41-2.01-6.17Zm-2.2 11.95a8.42 8.42 0 0 1-5.9 2.41c-1.2-.01-2.37-.28-3.43-.77-.41-.2-.85-.31-1.3-.31h-.01c-.22.01-.46.04-.68.09l-1.33.34c-.12.03-.24.03-.37 0a.8.8 0 0 1-.32-.18c-.09-.08-.15-.19-.18-.32s-.03-.25 0-.38l.34-1.32c.17-.65.1-1.35-.19-1.95a8.34 8.34 0 0 1 1.15-8.94A8.34 8.34 0 0 1 9.48 4c1.53-.48 3.16-.51 4.7-.09 1.79.49 3.37 1.56 4.49 3.04a8.34 8.34 0 0 1 1.68 5.15 8.47 8.47 0 0 1-2.56 5.84"/></svg>