<svg xmlns="http://www.w3.org/2000/svg" width="24" height="24" viewBox="0 0 24 24"><g fill="#707575"><path d="M14.05 18.09H6.41c-.48 0-.73.37-.73.73s.25.73.73.73h7.64c.22 0 .41-.08.54-.24.12-.13.18-.31.18-.5 0-.36-.25-.73-.73-.73Z"/><path d="M18.94 2H6.31c-.78 0-1.41.63-1.41 1.41v.94c-.94.09-1.67.89-1.67 1.85v13.95c0 1.02.83 1.86 1.86 1.86h10.22c.48 0 .73-.37.73-.73s-.25-.73-.73-.73H5.5c-.44 0-.8-.36-.8-.8V6.2c0-.22.18-.39.39-.39h8.19c.6 0 1.15.27 1.52.73l1.82 2.28c.37.46.57 1.05.57 1.64v8.63c0 .95 1.46.95 1.46 0v-1.12h1.01c.61 0 1.1-.5 1.1-1.1V3.82c0-1-.82-1.82-1.82-1.82m.36 2.01V16.5h-.65v-6.45c0-.66-.22-1.31-.63-1.82L15.95 5.6c-.63-.8-1.56-1.25-2.58-1.25H6.36v-.88h12.38c.3 0 .55.25.55.55Z"/><path d="M8.12 13.51h2.15c1.26 0 2.29-1.03 2.29-2.29V9.07c0-1.26-1.03-2.29-2.29-2.29H8.12c-1.26 0-2.29 1.03-2.29 2.29v2.15c0 1.26 1.03 2.29 2.29 2.29m-.82-2.29V9.07c0-.45.37-.82.82-.82h2.15c.45 0 .82.37.82.82v2.15c0 .45-.37.82-.82.82H8.12c-.45 0-.82-.37-.82-.82m6.75 4.96H6.41c-.48 0-.73.37-.73.73s.25.73.73.73h7.64c.48 0 .73-.37.73-.73s-.25-.73-.73-.73M5.64 15c0 .36.25.73.73.73h7.64c.48 0 .73-.37.73-.73s-.25-.73-.73-.73H6.37a.67.67 0 0 0-.54.24c-.12.13-.18.31-.18.5Z"/></g></svg>