<?xml version="1.0" encoding="UTF-8"?><svg id="c" xmlns="http://www.w3.org/2000/svg" viewBox="0 0 24 24"><path d="m4.99,9.01c1.68,0,2.99,1.4,2.99,2.99s-1.4,2.99-2.99,2.99-2.99-1.4-2.99-2.99,1.31-2.99,2.99-2.99Zm7.01,0c1.68,0,2.99,1.4,2.99,2.99s-1.4,2.99-2.99,2.99-2.99-1.4-2.99-2.99,1.31-2.99,2.99-2.99Zm7.01,0c1.68,0,2.99,1.4,2.99,2.99s-1.4,2.99-2.99,2.99-2.99-1.4-2.99-2.99,1.31-2.99,2.99-2.99Zm-14.02,1.31c-.93,0-1.68.75-1.68,1.68s.75,1.68,1.68,1.68,1.68-.75,1.68-1.68-.75-1.68-1.68-1.68Zm7.01,0c-.93,0-1.68.75-1.68,1.68s.75,1.68,1.68,1.68,1.68-.75,1.68-1.68-.75-1.68-1.68-1.68Zm7.01,0c-.93,0-1.68.75-1.68,1.68s.75,1.68,1.68,1.68,1.68-.75,1.68-1.68-.75-1.68-1.68-1.68Z" fill="#444" stroke-width="0"/></svg>