<?xml version="1.0" encoding="UTF-8"?><svg id="b" xmlns="http://www.w3.org/2000/svg" viewBox="0 0 20 15"><g id="c"><g id="d"><path d="m9.99,5.43c-.55,0-1.08.21-1.48.61-.5.49-.7,1.18-.57,1.88.15.81.82,1.48,1.63,1.63.7.14,1.4-.07,1.9-.57.5-.49.7-1.18.57-1.88-.19-.98-1.06-1.68-2.05-1.67Z" fill="#444" stroke-width="0"/><path d="m10.01,0h-.01c-7.28,0-9.99,0-9.99,7.49,0,3.92.76,5.78,2.51,6.68.09.08.2.13.33.16,1.6.66,3.93.67,7.17.67,7.28,0,9.99,0,9.99-7.5S17.28,0,10.01,0Zm7.95,3.63c-.99,0-1.79-.75-1.8-1.74,0,0,0-.01,0-.02,1.31.38,1.62.87,1.8,1.76ZM3.63,1.95s.02,0,.04-.01c0,0-.02.02-.03.03-.05.9-.84,1.64-1.74,1.73,0,0,0-.02,0-.03,0,0,.37-1.19,1.72-1.72Zm.09,11.1h0c-1.05-.33-1.33-.54-1.76-1.6.92.01,1.66.7,1.77,1.6,0,0,0,0,0,0Zm.61-4.79c-.42,0-.76-.33-.76-.75s.34-.76.75-.76h.01c.41,0,.75.33.75.75s-.33.76-.75.76Zm8.22,1.78c-.85.85-2.07,1.22-3.25.98-1.42-.27-2.55-1.4-2.82-2.82-.23-1.18.14-2.38.98-3.22s2.06-1.21,3.24-.98h.01c1.43.28,2.55,1.4,2.82,2.82.23,1.18-.14,2.38-.98,3.22Zm2.39-2.53c0-.42.34-.76.75-.76s.75.34.75.75h.01c0,.42-.33.76-.75.76s-.76-.33-.76-.75Zm1.24,5.58c.09-.92.85-1.64,1.79-1.64-.29.82-.77,1.35-1.79,1.64Z" fill="#444" stroke-width="0"/></g></g></svg>