<?xml version="1.0" encoding="UTF-8"?><svg id="c" xmlns="http://www.w3.org/2000/svg" viewBox="0 0 24 24"><path d="m16.04,9.18c3.25,0,5.96,2.63,5.96,5.96,0,.88-.18,1.75-.53,2.46-.26.61-.35.79-.26,1.14,0,.09.09.18.18.35s.18.35.18.61c.09.79-.61,1.4-1.4,1.23-.44-.09-.88-.35-1.05-.44s-.35-.09-.53-.09h0s-.09,0-.18.09c-.09,0-.26.09-.53.18-.53.18-1.14.26-1.84.26-3.25,0-5.96-2.63-5.96-5.96s2.72-5.79,5.96-5.79Zm0,1.4c-2.54,0-4.56,2.11-4.56,4.56s2.11,4.56,4.56,4.56c.53,0,.96-.09,1.4-.18.44-.18.7-.26.88-.26.61-.18,1.05,0,1.4.18.26.09.35.18.44.26h0c-.09-.09-.18-.35-.18-.53-.26-.88.09-1.58.35-2.02.26-.61.44-1.23.44-1.93-.18-2.63-2.19-4.65-4.74-4.65Zm-5.7-7.54c2.89,0,5.44,1.49,6.84,3.86.18.35.09.7-.18.88-.35.18-.7.09-.88-.18-1.23-1.93-3.33-3.16-5.79-3.16-3.77,0-6.84,3.07-6.84,6.84,0,1.05.26,2.02.61,2.89.35.7.79,1.58.44,2.72-.09.26-.18.53-.26.7-.09.18-.09.35-.18.44,0,.09.09.09.09.09.35-.09.61-.18,1.05-.44.44-.18,1.05-.44,1.75-.26.18,0,.53.18,1.14.35.26.09.53.18.79.26.35.09.61.44.53.79s-.44.61-.79.53c-.35-.09-.7-.18-1.05-.26-.35-.09-.53-.18-.7-.26-.09,0-.18-.09-.18-.09h-.09c-.35-.09-.61,0-.88.09-.26.18-.79.44-1.4.53-.88.18-1.67-.61-1.67-1.49,0-.35.18-.61.26-.88.09-.26.18-.35.26-.53.18-.53,0-.96-.44-1.75-.44-1.05-.79-2.19-.79-3.42.18-4.56,3.86-8.25,8.33-8.25Z" fill="#444" stroke-width="0"/></svg>