<svg xmlns="http://www.w3.org/2000/svg" viewBox="0 0 24 24"><path fill="#444" d="M11.25 1.99c-.24.05-.49.14-.72.24C6.52 4.1 3.95 9.34 3.95 13.84c0 4.22 3.13 7.7 7.16 8.15.07 0 .13-.05.13-.12V1.99Zm1.5 19.9c0 .06.05.11.11.1 4.04-.44 7.18-3.92 7.18-8.15 0-.41-.02-.82-.06-1.24l-7.16 7.16s-.07.11-.07.18zm5.51-14.83c-.36-.67-.78-1.31-1.24-1.89-.04-.05-.11-.05-.16 0l-4.08 4.08s-.03.05-.03.07v3.11c0 .09.11.14.17.07l5.32-5.32c.03-.03.04-.08.01-.12ZM15.89 4s.02-.07 0-.09a9.3 9.3 0 0 0-2.41-1.67q-.345-.165-.72-.24v4.76c0 .14.17.21.27.11L15.9 4Zm3.02 4.65c-.66.66-5.43 5.44-6.08 6.08-.05.05-.07.11-.07.18v2.61c0 .07.08.1.13.05l6.67-6.67.13-.13c-.17-.71-.39-1.41-.66-2.09-.02-.05-.08-.07-.12-.03"/></svg>