<svg xmlns="http://www.w3.org/2000/svg" viewBox="0 0 24 24"><path fill-rule="evenodd" d="m16.45 20.92.08-.09c.29-.36.81-.36 1.1.02.41.54 1.04.85 1.67.84a1.78 1.78 0 0 0 1.59-1.08c.18-.39.34-.83.43-1.32.61-3.06.81-5.98.61-8.88-.33-4.74-3.73-8.15-8.06-8.36-.61-.03-1.23-.05-1.86-.05s-1.24.02-1.86.05C5.93 2.25 2 5.44 2 10.07c0 1.09.06 2.98.37 4.17.32 1.21.87 2.51 1.83 3.51.87.9 2.04 1.53 3.58 1.66.2.84.63 1.5 1.05 1.98.43.5 1.02.68 1.59.6.55-.08 1.05-.4 1.38-.87l.1-.14c.28-.39.81-.42 1.12-.06l.07.08c.91 1.03 2.49 1 3.36-.07ZM12.44 9.36c.51 0 .93.41.93.93v1.62c0 .51-.41.93-.93.93s-.93-.41-.93-.93v-1.62c0-.51.41-.93.93-.93m5.69.93c0-.51-.41-.93-.93-.93s-.93.41-.93.93v1.62c0 .51.41.93.93.93s.93-.41.93-.93z"/></svg>