<svg xmlns="http://www.w3.org/2000/svg" viewBox="0 0 24 24"><g fill="#444"><path d="M13.53 20.9c0-.46-.38-.84-.84-.81-.25.02-.51.03-.77.03-2.03 0-3.82-.67-5.32-1.97-1.34-1.17-2.2-2.62-2.58-4.32a.78.78 0 0 0-.75-.63h-.13c-.23 0-.44.1-.59.28-.15.19-.21.42-.15.66.42 2.02 1.44 3.75 3.02 5.16 1.84 1.63 4.02 2.45 6.5 2.45.3 0 .59-.02.88-.04.42-.04.73-.39.73-.81m7.29-8.93c.48 0 .85-.42.81-.91a9 9 0 0 0-.73-2.87c-.5-1.17-1.2-2.22-2.09-3.1-.87-.87-1.91-1.57-3.09-2.09-1.18-.5-2.46-.76-3.81-.76-1.44 0-2.83.3-4.11.91-1.23.58-2.31 1.39-3.22 2.41-.03.04-.09.05-.13.04a.13.13 0 0 1-.08-.12V3.76c0-.42-.35-.76-.76-.76H3.5c-.41 0-.76.34-.76.76V8c0 .41.34.75.75.75h4.25c.42 0 .76-.34.76-.75v-.11a.76.76 0 0 0-.76-.76H5.7c-.05 0-.09-.03-.11-.07-.02-.05-.02-.1.02-.14a8.7 8.7 0 0 1 2.75-2.19c1.1-.56 2.3-.84 3.57-.84 2.25 0 4.19.79 5.76 2.37 1.38 1.38 2.16 3.05 2.33 4.96.04.43.37.77.8.77Z"/><path d="m14 12.72-.87-.87a.63.63 0 0 1-.2-.45V7.04c0-.42-.34-.76-.75-.76h-.11a.76.76 0 0 0-.76.76v4.97c0 .21.08.4.23.55l1.32 1.31c.14.14.33.23.53.23s.39-.08.53-.23l.07-.06a.78.78 0 0 0 0-1.08Zm1.35 7.31a.76.76 0 0 1 0-1.08l1.5-1.5c.07-.07.07-.18 0-.25l-1.5-1.5c-.3-.3-.3-.78 0-1.07.3-.3.78-.3 1.07 0l1.5 1.5c.07.07.18.07.25 0l1.5-1.5c.3-.3.78-.3 1.07 0 .3.3.3.78 0 1.07l-1.48 1.5c-.07.07-.07.18 0 .25l1.48 1.5c.29.3.29.78 0 1.07-.3.3-.77.3-1.07 0l-1.5-1.48a.175.175 0 0 0-.25 0l-1.5 1.48c-.3.29-.78.29-1.07 0Z"/></g></svg>