<?xml version="1.0" encoding="UTF-8"?><svg id="a" xmlns="http://www.w3.org/2000/svg" viewBox="0 0 24 24"><path d="m19.87,3.06c-.97-1.06-2.36-1.06-4.9-1.06h-5.09c-2.53,0-3.93,0-4.9,1.06-.85.93-.93,2.18-.94,4.49h-.1c-.41,0-.75.34-.75.75s.34.75.75.75h.1v2.2h-.1c-.41,0-.75.34-.75.75s.34.75.75.75h.1v2.2h-.1c-.41,0-.75.34-.75.75s.34.75.75.75h.1c0,2.31.09,3.56.94,4.49.85.93,2.04,1.04,4.04,1.05,0,0,0,0,0,0s0,0,0,0c.27,0,.54,0,.84,0h5.09c2.53,0,3.93,0,4.9-1.06.94-1.03.94-2.44.94-5.24v-7.4c0-2.81,0-4.22-.94-5.24Zm-14.32,13.39h.1c.41,0,.75-.34.75-.75s-.34-.75-.75-.75h-.1v-2.2h.1c.41,0,.75-.34.75-.75s-.34-.75-.75-.75h-.1v-2.2h.1c.41,0,.75-.34.75-.75s-.34-.75-.75-.75h-.1c0-1.87.06-2.95.55-3.48.37-.4.99-.52,2.19-.55v16.97c-1.21-.04-1.83-.15-2.19-.55-.49-.53-.54-1.61-.55-3.48Zm13.77-.75c0,2.34,0,3.63-.55,4.23-.5.55-1.47.57-3.79.57h-5.09s-.06,0-.1,0V3.5s.06,0,.1,0h5.09c2.33,0,3.29.02,3.79.57.55.6.55,1.89.55,4.23v7.4Z" fill="#444" stroke-width="0"/><path d="m16.24,6.16h-4.24c-.41,0-.75.34-.75.75s.34.75.75.75h4.24c.41,0,.75-.34.75-.75s-.34-.75-.75-.75Z" fill="#444" stroke-width="0"/><path d="m16.24,9.4h-4.24c-.41,0-.75.34-.75.75s.34.75.75.75h4.24c.41,0,.75-.34.75-.75s-.34-.75-.75-.75Z" fill="#444" stroke-width="0"/></svg>