<svg xmlns="http://www.w3.org/2000/svg" viewBox="0 0 24 24"><g fill="#5e656d"><path d="M12 8.49c-1.94 0-3.52 1.57-3.52 3.51s1.58 3.51 3.52 3.51 3.52-1.57 3.52-3.51S13.94 8.49 12 8.49M12 14c-1.12 0-2.02-.9-2.02-2.01s.91-2.01 2.02-2.01 2.02.9 2.02 2.01S13.11 14 12 14"/><path d="M19.49 8.7c-.52 0-.91-.14-1.05-.4-.14-.25-.08-.65.19-1.09.33-.57.42-1.25.25-1.89-.17-.65-.59-1.19-1.17-1.52l-1.59-.9c-1.08-.64-2.48-.27-3.14.82l-.1.18c-.26.45-.58.71-.88.71-.26.02-.61-.26-.87-.71l-.11-.18c-.65-1.09-2.05-1.45-3.12-.82l-1.6.91c-.58.33-1 .87-1.17 1.52s-.09 1.32.25 1.89c.26.45.33.84.18 1.09-.14.25-.53.4-1.05.4A2.51 2.51 0 0 0 2 11.21v1.62c0 1.38 1.12 2.5 2.51 2.5.52 0 .91.14 1.05.4.14.25.08.65-.19 1.09-.33.57-.42 1.25-.25 1.89.17.65.59 1.19 1.17 1.52l1.59.9c1.08.64 2.49.27 3.14-.82l.1-.18c.26-.45.58-.71.88-.71.32.01.61.26.87.71l.11.18c.43.72 1.2 1.13 1.99 1.13.39 0 .78-.1 1.14-.31l1.6-.91c.58-.33 1-.87 1.17-1.51.18-.64.09-1.32-.25-1.9-.26-.45-.33-.84-.18-1.09.14-.25.53-.4 1.05-.4a2.51 2.51 0 0 0 2.51-2.5V11.2c0-1.38-1.12-2.5-2.51-2.5Zm1.01 4.11c0 .55-.45 1-1.01 1-1.08 0-1.93.42-2.35 1.15s-.35 1.67.19 2.59c.13.23.17.5.1.76a.97.97 0 0 1-.47.6l-1.61.92c-.37.22-.85.09-1.08-.29l-.1-.17c-.53-.92-1.32-1.45-2.16-1.46-.84 0-1.63.53-2.17 1.45l-.1.17a.79.79 0 0 1-1.09.28l-1.6-.91a.98.98 0 0 1-.37-1.35c.54-.92.61-1.87.19-2.6S5.59 13.8 4.52 13.8c-.56 0-1.01-.45-1.01-1v-1.62c0-.55.45-1 1.01-1 1.08 0 1.93-.42 2.35-1.15s.35-1.67-.19-2.6a.98.98 0 0 1 .37-1.35l1.61-.92c.37-.22.85-.09 1.08.29l.1.17c.53.92 1.32 1.45 2.16 1.46.84 0 1.63-.53 2.17-1.45l.1-.17a.79.79 0 0 1 1.09-.28l1.6.91a.98.98 0 0 1 .37 1.35c-.54.92-.61 1.87-.19 2.6s1.28 1.15 2.35 1.15c.56 0 1.01.45 1.01 1z"/></g></svg>