<svg xmlns="http://www.w3.org/2000/svg" viewBox="0 0 13.29 18.59"><path fill="#444" d="M9.79 12.5v-1.11c0-.08-.06-.14-.14-.14H8.54c-.41 0-.75-.34-.75-.75s.34-.75.75-.75h1.11c.08 0 .14-.06.14-.14V8.5c0-.41.34-.75.75-.75s.75.34.75.75v1.11c0 .08.06.14.14.14h1.11c.41 0 .75.34.75.75s-.34.75-.75.75h-1.11c-.08 0-.14.06-.14.14v1.11c0 .41-.34.75-.75.75s-.75-.34-.75-.75m-3.62 4.68-.06-.03a8.7 8.7 0 0 1-3.22-3.03c-.9-1.42-1.35-2.99-1.35-4.7a8.7 8.7 0 0 1 3.27-6.8c.09-.07.23-.01.23.11v3.05a.749.749 0 1 0 1.5 0V.75C6.54.33 6.2 0 5.79 0H.75a.749.749 0 1 0 0 1.5h2.73c.13 0 .18.15.09.23-1.07.93-1.91 2.03-2.53 3.3a9.95 9.95 0 0 0-1 4.4q0 3.195 1.77 5.79c.94 1.39 2.13 2.47 3.59 3.24.04.03.09.06.14.07.08.04.18.06.28.06.34 0 .64-.23.72-.56.02-.06.03-.12.03-.19 0-.28-.16-.53-.4-.66"/></svg>