<svg xmlns="http://www.w3.org/2000/svg" viewBox="0 0 24 24"><path fill="#444" d="M11.89 12.84c.77 0 1.54-.24 2.15-.71l2.82-2.24c.32-.25.37-.71.12-1.03a.73.73 0 0 0-1.03-.12l-2.82 2.24c-.66.52-1.82.52-2.47 0L7.85 8.74a.733.733 0 1 0-.91 1.15l2.82 2.24c.6.48 1.37.71 2.14.71Zm-2.87 3.19c0-.4-.33-.73-.73-.73H2.88c-.4 0-.73.33-.73.73s.33.73.73.73h5.41c.4 0 .73-.33.73-.73m-6.14-2.85h2.71c.4 0 .73-.33.73-.73s-.33-.73-.73-.73H2.88c-.4 0-.73.33-.73.73s.33.73.73.73"/><path fill="#444" d="M20.88 5.79v-.03c-.06-.08-.12-.16-.19-.23-.36-.43-.81-.81-1.31-1.12-.26-.17-.56-.31-.87-.44-1.52-.61-3.57-.74-6.56-.74-2.74 0-4.7.11-6.17.6-.46.16-.87.34-1.25.58-.5.31-.94.69-1.3 1.12-.33.4-.59.84-.8 1.36 0 .02-.02.04-.02.06-.16.4-.28.86-.37 1.37v.04c0 .07-.02.14-.03.2v.02c0 .2.07.38.19.52.13.15.33.25.55.27.44.04.83-.28.87-.72 0-.05.02-.09.03-.14.17-.96.45-1.6.88-2.12.26-.31.59-.59.94-.81.21-.14.45-.25.72-.35 1.11-.42 2.76-.58 5.78-.58 3.27 0 4.93.18 6.04.66.02 0 .03.02.04.02.17.08.31.16.45.24.35.22.67.5.94.81.32.38.54.84.69 1.42 0 .05.02.11.03.17.22.97.27 2.25.27 4.02 0 1.86-.06 3.19-.3 4.17-.16.59-.37 1.05-.69 1.43-.26.31-.59.59-.94.81-.14.09-.28.17-.45.24 0 0-.02 0-.04.02-1.1.49-2.77.66-6.04.66-1.93 0-3.3-.06-4.32-.21-.05 0-.1-.02-.15-.02-.41 0-.73.33-.73.72 0 .07 0 .14.03.19.06.25.26.45.53.51h.17c1.2.18 2.66.22 4.47.22 2.99 0 5.04-.13 6.56-.74.31-.13.6-.27.87-.44.51-.31.95-.69 1.31-1.12.07-.08.13-.16.19-.23v-.03c.96-1.33 1.12-3.11 1.12-6.21s-.17-4.89-1.12-6.21Z"/></svg>