<?xml version="1.0" encoding="UTF-8"?><svg id="b" xmlns="http://www.w3.org/2000/svg" viewBox="0 0 20 18.34"><g id="c"><g id="d"><path d="m10,0C2.52,0,0,0,0,7.48c0,5.06.83,6.63,3.9,7.16h0s.03,0,.05,0c.38,0,.69-.31.69-.69,0-.32-.22-.57-.51-.66h0c-2.36-.5-2.75-1.87-2.75-5.81C1.38,1.38,2.53,1.38,10,1.38s8.62,0,8.62,6.1c0,3.94-.36,5.31-2.73,5.79v.02s-.09.01-.12.03c-.22.12-.37.35-.37.61s.15.5.37.61c.09.06.2.08.32.08h.07s.08-.02.12-.03c0,0,.03,0,.04,0,2.66-.64,3.68-2.36,3.68-7.11C20,0,17.48,0,10,0Z" fill="#444" stroke-width="0"/><path d="m11.59,12.94h0c-.79-.95-2.39-.95-3.18,0l-1.67,2.01c-.52.62-.63,1.47-.28,2.2.34.74,1.06,1.19,1.87,1.19h3.34c.81,0,1.53-.46,1.87-1.19.34-.73.24-1.58-.28-2.2l-1.67-2.01Zm.7,3.62c-.04.09-.22.39-.62.39h-3.34c-.4,0-.58-.3-.62-.39-.04-.09-.16-.42.09-.73l1.67-2.01c.18-.21.41-.25.53-.25s.35.03.53.25l1.67,2.01c.26.31.14.64.09.73Z" fill="#444" stroke-width="0"/></g></g></svg>