<svg xmlns="http://www.w3.org/2000/svg" viewBox="0 0 24 24"><path fill="#444" d="m20.79 9.93-6.72-6.72c-1.14-1.14-3-1.14-4.14 0L3.18 9.96a2.934 2.934 0 0 0 .03 4.11l6.72 6.72c1.14 1.14 3 1.14 4.14 0l6.75-6.75a2.934 2.934 0 0 0-.03-4.11m-9.78-5.64c.27-.27.62-.41.99-.41s.72.14.99.41l2.45 2.46-.15.05c-.41.14-.77.38-1.08.69L12 9.7 9.79 7.49c-.31-.31-.67-.54-1.09-.69l-.15-.05zm1.98 15.42c-.28.27-.63.41-.99.41s-.72-.14-.99-.41l-2.46-2.46.15-.05c.42-.14.78-.38 1.09-.69L12 14.3l2.21 2.21c.3.31.68.55 1.09.69l.15.05zm6.72-6.72-2.44 2.44c-.27.27-.62.41-.99.41s-.73-.14-.99-.41l-2.14-2.14c-.63-.63-1.67-.63-2.3 0l-2.14 2.14c-.27.27-.62.41-.99.41s-.72-.14-.99-.41l-2.44-2.44c-.54-.55-.54-1.43 0-1.98l2.44-2.44h.01c.26-.27.61-.41.98-.41s.73.14.99.41l2.14 2.14c.63.63 1.67.63 2.3 0l2.14-2.14c.26-.27.62-.41.99-.41s.72.14.99.41l2.44 2.44c.55.55.55 1.43 0 1.98"/></svg>