<svg xmlns="http://www.w3.org/2000/svg" viewBox="0 0 24 24"><path fill="#444" d="M20.69 6.26c-.1-.17-.21-.33-.34-.48-.35-.42-.77-.78-1.24-1.08-.57-.37-1.25-.62-2.05-.79-1.28-.28-2.9-.35-5.01-.35s-3.61.06-4.88.33h-.05c-.83.18-1.52.43-2.12.81-.48.3-.89.66-1.24 1.08-.2.25-.38.51-.53.81-.6 1.14-.83 2.72-.83 5.41s.23 4.27.83 5.41c.15.3.33.56.53.81.35.42.76.78 1.24 1.08.6.38 1.29.63 2.12.81 1.27.26 2.87.33 4.93.33s3.73-.07 5.01-.35c.8-.17 1.48-.42 2.05-.79.48-.3.89-.66 1.24-1.08.13-.15.24-.31.34-.48.76-1.25.91-2.93.91-5.74s-.15-4.49-.91-5.74m-9.68 3.59A2.087 2.087 0 0 1 9 11.94h-.12c-1.14-.04-2.02-.96-2.02-2.09s.93-2.08 2.07-2.08 2.08.93 2.08 2.08m-4 3.15c1.12-.74 2.84-.74 3.94.01.55.37.86.91.86 1.49s-.31 1.11-.87 1.49c-.55.37-1.25.55-1.96.55s-1.42-.18-1.97-.55c-.55-.38-.87-.92-.87-1.49s.32-1.12.87-1.5m6.87-1c0-.34.28-.62.62-.62h3.33c.34 0 .63.28.63.62s-.29.62-.63.62H14.5c-.34 0-.62-.28-.62-.62m2.29 3.96c-.34 0-.63-.29-.63-.63s.29-.62.63-.62h1.66c.34 0 .63.28.63.62s-.29.63-.63.63zm1.66-6.67h-4.16c-.34 0-.63-.28-.63-.62s.29-.63.63-.63h4.16c.34 0 .63.29.63.63s-.29.62-.63.62"/></svg>