<?xml version="1.0" encoding="UTF-8"?><svg id="d" xmlns="http://www.w3.org/2000/svg" viewBox="0 0 24 24"><path d="m12,22c-4.21,0-7.63-3.45-7.63-7.69v-4.62c0-4.24,3.42-7.69,7.63-7.69s7.63,3.45,7.63,7.69v4.62c0,4.24-3.42,7.69-7.63,7.69Zm0-18.5c-3.38,0-6.13,2.78-6.13,6.19v4.62c0,3.41,2.75,6.19,6.13,6.19s6.13-2.78,6.13-6.19v-4.62c0-3.41-2.75-6.19-6.13-6.19Z" fill="#444" stroke-width="0"/><path d="m12,11.83c-1.17,0-2.13-.96-2.13-2.14v-1.85c0-1.18.95-2.14,2.13-2.14s2.13.96,2.13,2.14v1.85c0,1.18-.95,2.14-2.13,2.14Zm0-4.62c-.34,0-.63.29-.63.64v1.85c0,.35.28.64.63.64s.63-.29.63-.64v-1.85c0-.35-.28-.64-.63-.64Z" fill="#444" stroke-width="0"/><path d="m12,7.2c-.41,0-.75-.34-.75-.75v-3.7c0-.41.34-.75.75-.75s.75.34.75.75v3.7c0,.41-.34.75-.75.75Z" fill="#444" stroke-width="0"/></svg>