<svg xmlns="http://www.w3.org/2000/svg" viewBox="0 0 24 24"><g fill="#5e656d"><path d="M17.55 4.77h-2.77c-.41 0-.75.34-.75.75s.34.75.75.75h2.77c.41 0 .75-.34.75-.75s-.34-.75-.75-.75"/><path d="M20.18 2.9c-.9-.9-2.17-.9-4.48-.9h-1.23c-2.07 0-3.22 1.14-3.22 3.22 0 .42-.06.48-.48.48h-.57c-.1-1.56-.83-2.16-2.63-2.16S5 4.17 4.94 5.83c-.51.1-.91.29-1.25.63-.76.76-.76 1.8-.76 3.69v4.62c0 3.26 0 4.89 1.17 6.06S6.9 22 10.16 22h3.7c3.26 0 4.89 0 6.06-1.17s1.17-2.8 1.17-6.06v-7.4c0-2.31 0-3.58-.9-4.48ZM7.57 5.05c.98 0 1.12.06 1.14.66H6.42c.02-.62.16-.66 1.14-.66Zm12 9.73c0 2.84 0 4.27-.73 5s-2.16.73-5 .73h-3.7c-2.84 0-4.27 0-5-.73s-.73-2.15-.73-5v-4.62c0-1.6.01-2.32.32-2.63s1.03-.32 2.63-.32h3.39c1.24 0 1.98-.74 1.98-1.98s.46-1.72 1.72-1.72h1.23c2.05 0 2.98.02 3.42.46s.46 1.36.46 3.42v7.4Z"/><path d="M13.28 9.94a1.92 1.92 0 0 0-2.59 0c-1.03.93-2.25 2.37-2.25 3.93 0 1.66 1.33 3.37 3.54 3.37s3.54-1.71 3.54-3.37c0-1.55-1.22-2.99-2.25-3.93Zm-1.29 5.8c-1.28 0-2.04-.95-2.04-1.87 0-.77.64-1.8 1.76-2.82a.436.436 0 0 1 .58 0c1.12 1.02 1.76 2.04 1.76 2.82 0 .92-.76 1.87-2.04 1.87Z"/></g></svg>