<svg xmlns="http://www.w3.org/2000/svg" viewBox="0 0 20 14.34"><g fill="#444"><path d="M8.15 5.5h-1.1V4.42c0-.41-.34-.75-.75-.75s-.75.34-.75.75V5.5h-1.1c-.41 0-.75.34-.75.75s.34.75.75.75h1.1v1.08c0 .41.34.75.75.75s.75-.34.75-.75V7h1.1c.41 0 .75-.34.75-.75s-.34-.75-.75-.75m4.63.92c-.41 0-.75.34-.75.75s.34.75.75.75.75-.34.75-.75-.34-.75-.75-.75m2.78-1.84c-.41 0-.75.34-.75.75s.34.75.75.75.75-.34.75-.75-.34-.75-.75-.75"/><path d="M19.36 4.09v-.13A4.454 4.454 0 0 0 14.92 0H5.08C2.79 0 .89 1.71.65 3.96v.13C.53 4.97 0 9.41 0 10.84c0 1.93 1.58 3.5 3.53 3.5 1.23 0 1.87-.63 2.38-1.13l.41-.41c.79-.78 1.83-1.21 2.94-1.21h1.49c1.11 0 2.15.43 2.94 1.21l.41.41c.51.5 1.14 1.13 2.38 1.13 1.94 0 3.53-1.57 3.53-3.5 0-1.39-.49-5.51-.64-6.75Zm-2.89 8.75c-.62 0-.9-.28-1.32-.7l-.41-.41a5.65 5.65 0 0 0-4-1.65H9.25c-1.51 0-2.93.58-4 1.65l-.41.41c-.42.42-.71.7-1.32.7-1.12 0-2.03-.9-2.03-2 0-1.04.34-4.18.63-6.56l.02-.15a2.94 2.94 0 0 1 2.93-2.62h9.84c1.52 0 2.78 1.13 2.93 2.62l.02.15c.29 2.38.63 5.53.63 6.56 0 1.1-.91 2-2.03 2Z"/></g></svg>