<svg xmlns="http://www.w3.org/2000/svg" viewBox="0 0 24 24"><path fill="#444" d="M20.98 11.01s-.71-.05-1.73-.11c-.07-.88-.16-1.91-.31-2.75-.13-.8-.38-1.85-.72-3.12a3.42 3.42 0 0 0-2.98-2.52c-1.32-.13-2.4-.19-3.21-.19s-1.9.06-3.21.19a3.39 3.39 0 0 0-2.98 2.52c-.34 1.27-.59 2.32-.72 3.12-.14.84-.24 1.87-.31 2.74-1.05.06-1.76.11-1.78.11-.41.03-.73.39-.7.8s.42.74.8.7c.04 0 2.6-.18 5.31-.28.21 0 .43-.02.65-.02h.17c.18 0 .36-.01.54-.02h.3c.15 0 .29 0 .44-.01h2.94c.14 0 .28 0 .43.01h.32c.17 0 .35.01.52.02h.2c2.93.1 5.9.31 5.94.31h.05a.75.75 0 0 0 .05-1.5Zm-14.67-.19c.06-.79.15-1.69.27-2.41.12-.74.36-1.77.69-2.98.21-.78.87-1.34 1.68-1.42 1.25-.12 2.31-.19 3.07-.19s1.8.06 3.07.19c.81.08 1.47.64 1.68 1.42.33 1.21.56 2.24.69 2.98.12.72.21 1.62.27 2.41-.18 0-.37-.02-.55-.03-.09 0-.17 0-.26-.01-.3-.01-.6-.03-.92-.04-.3-.01-.6-.02-.91-.04-.13 0-.26 0-.39-.01-.42-.01-.84-.03-1.25-.04h-.12c-.47 0-.92-.02-1.34-.02s-.86 0-1.31.01h-.13c-.4 0-.81.02-1.22.03-.13 0-.27 0-.4.01-.31.01-.62.02-.93.04l-.76.03c-.19 0-.37.02-.55.03-.13 0-.27.01-.39.02Zm10.1 3.64c-1.72 0-2.91.79-3.38 2.16-.67-.2-1.38-.2-2.04 0-.46-1.41-1.65-2.22-3.39-2.22-2.26 0-3.61 1.35-3.61 3.61s1.35 3.61 3.61 3.61 3.54-1.3 3.6-3.46c.52-.22 1.1-.22 1.62 0 .03 2.21 1.37 3.53 3.6 3.53s3.61-1.35 3.61-3.61-1.35-3.61-3.61-3.61Zm-8.82 5.66c-1.42 0-2.11-.69-2.11-2.11s.69-2.11 2.11-2.11 2.11.69 2.11 2.11-.69 2.11-2.11 2.11m8.82.06c-1.42 0-2.11-.69-2.11-2.11s.69-2.11 2.11-2.11 2.11.69 2.11 2.11-.69 2.11-2.11 2.11"/></svg>