<?xml version="1.0" encoding="UTF-8"?><svg id="c" xmlns="http://www.w3.org/2000/svg" viewBox="0 0 24 24"><path id="d" d="m11.25,12.67v4.33c0,.41.34.75.75.75s.75-.34.75-.75v-4.33c2.54-.37,4.5-2.54,4.5-5.17,0-2.9-2.35-5.25-5.25-5.25s-5.25,2.35-5.25,5.25c0,2.64,1.96,4.81,4.5,5.17Zm.75-8.92c2.07,0,3.75,1.68,3.75,3.75s-1.68,3.75-3.75,3.75-3.75-1.68-3.75-3.75,1.68-3.75,3.75-3.75Zm7.75,14.25c0,2.14-3.33,3.75-7.75,3.75s-7.75-1.61-7.75-3.75c0-1.57,1.72-2.86,4.6-3.44.41-.08.8.18.88.59.08.41-.18.8-.59.88-2.23.45-3.4,1.34-3.4,1.98,0,.92,2.43,2.25,6.25,2.25s6.25-1.33,6.25-2.25c0-.64-1.17-1.52-3.4-1.98-.41-.08-.67-.48-.59-.88.08-.41.48-.67.88-.59,2.88.58,4.6,1.87,4.6,3.44Z" fill="#707575" stroke-width="0"/></svg>