<?xml version="1.0" encoding="UTF-8"?><svg id="c" xmlns="http://www.w3.org/2000/svg" viewBox="0 0 24 24"><path d="m21.99,10.6c-.26-6.71-2.61-8.6-9.99-8.6S2.19,3.95,2,10.94c-.02.34-.02.69-.02,1.06s0,.72.02,1.06c.19,6.99,2.5,8.94,10,8.94s9.73-1.89,9.99-8.6c.02-.44.03-.91.03-1.4s-.01-.96-.03-1.4Zm-13.35-3.45c.29-.29.77-.29,1.06,0l4.38,4.38v-2.43c0-.41.34-.75.75-.75s.75.34.75.75v4.24c0,.1-.02.19-.06.29-.08.18-.22.33-.41.41-.09.04-.19.06-.29.06h-4.24c-.41,0-.75-.34-.75-.75s.34-.75.75-.75h2.43l-4.37-4.39c-.29-.29-.29-.76,0-1.06Zm9.6,10.07c-2.01.67-4.12,1.01-6.24,1.01s-4.23-.34-6.24-1.01c-.39-.13-.6-.56-.47-.95.13-.39.55-.61.95-.47,3.72,1.24,7.81,1.24,11.53,0,.39-.13.82.08.95.47.12.4-.09.82-.48.95Z" fill="#444" stroke-width="0"/></svg>