<svg xmlns="http://www.w3.org/2000/svg" viewBox="0 0 24 24"><path fill="#444" d="m16.01 8.77-2.79 2.22c-.65.52-1.8.52-2.45 0L7.99 8.77a.72.72 0 0 0-1.02.12c-.25.31-.2.77.12 1.02l2.79 2.22c.6.47 1.36.71 2.12.71s1.53-.24 2.12-.71l2.79-2.22c.31-.25.37-.7.12-1.02a.73.73 0 0 0-1.02-.12"/><path fill="#444" d="M20.7 5.6c-.36-.43-.8-.8-1.29-1.11-1.57-.99-3.79-1.17-7.35-1.17s-5.77.19-7.34 1.17q-.75.465-1.29 1.11C2.39 6.86 2.01 8.52 2.01 12s.37 5.15 1.42 6.4q.54.645 1.29 1.11c1.57.99 3.79 1.17 7.34 1.17s5.78-.19 7.35-1.17q.75-.465 1.29-1.11c1.1-1.33 1.3-3.12 1.3-6.4s-.2-5.08-1.3-6.4m-1.27 11.95c-.26.31-.57.58-.93.8-1.09.68-2.72.92-6.45.92s-5.34-.24-6.44-.92c-.35-.23-.67-.49-.93-.8-.81-.97-1.1-2.42-1.1-5.55s.29-4.58 1.1-5.55c.26-.31.57-.58.93-.8 1.09-.68 2.72-.92 6.44-.92s5.35.24 6.45.92c.35.23.67.49.93.8.84 1.01.99 2.59.99 5.55s-.15 4.54-.99 5.55"/></svg>