<?xml version="1.0" encoding="UTF-8"?><svg id="c" xmlns="http://www.w3.org/2000/svg" viewBox="0 0 24 24"><path d="m7.02,19.88c-1.34,0-2.6-.52-3.55-1.47-.95-.95-1.47-2.21-1.48-3.55,0-1.96,1.12-3.71,2.86-4.54-.11-1.3.22-2.58.96-3.67.86-1.27,2.16-2.13,3.66-2.43,2.73-.53,5.41.98,6.42,3.49,1.64-.17,3.26.83,3.8,2.47.17.53.22,1.09.14,1.64,1.81,1.04,2.65,3.27,1.88,5.28-.63,1.66-2.25,2.77-4.02,2.78H7.02Zm3.55-14.25c-.27,0-.54.03-.81.08-1.11.22-2.06.85-2.69,1.78s-.86,2.06-.64,3.16c.07.38-.14.75-.51.87-1.44.47-2.41,1.82-2.41,3.34,0,.94.37,1.82,1.03,2.48.66.66,1.54,1.02,2.48,1.02,0,0,0,0,0,0h10.66c1.15,0,2.2-.73,2.61-1.8.55-1.44-.17-3.06-1.62-3.61-.38-.15-.58-.57-.45-.96.15-.43.16-.91.02-1.34-.36-1.09-1.53-1.7-2.63-1.34-.2.06-.41.04-.6-.06-.18-.1-.32-.27-.37-.47-.49-1.88-2.2-3.15-4.08-3.15Zm1.43,11.4c-.11,0-.21-.02-.3-.06,0,0,0,0,0,0-.08-.03-.15-.08-.21-.14,0,0-.02-.02-.03-.02l-2.84-2.84c-.3-.3-.3-.78,0-1.07.3-.3.78-.3,1.07,0l1.55,1.55v-4.57c0-.42.34-.76.76-.76s.76.34.76.76v4.57l1.55-1.55c.3-.3.78-.3,1.07,0,.3.3.3.78,0,1.07l-2.84,2.84s0,0,0,0c0,0,0,0,0,0,0,0,0,0,0,0,0,0,0,0,0,0t0,0c-.07.07-.15.12-.23.15h0c-.09.04-.19.06-.29.06Z" fill="#707575" stroke-width="0"/></svg>