<svg xmlns="http://www.w3.org/2000/svg" viewBox="0 0 24 24"><path fill="#444" d="M3.25 5.96h6.81c.41 0 .75-.34.75-.75s-.34-.75-.75-.75H3.25c-.41 0-.75.34-.75.75s.34.75.75.75M12 18.04H3.25c-.41 0-.75.34-.75.75s.34.75.75.75H12c.41 0 .75-.34.75-.75s-.34-.75-.75-.75M13.94 7.9c.41 0 .75-.34.75-.75V5.96h6.06c.41 0 .75-.34.75-.75s-.34-.75-.75-.75h-6.06V3.27c0-.41-.34-.75-.75-.75s-.75.34-.75.75v3.88c0 .41.34.75.75.75m6.81 3.35H12c-.41 0-.75.34-.75.75s.34.75.75.75h8.75c.41 0 .75-.34.75-.75s-.34-.75-.75-.75m0 6.79h-4.11v-1.19c0-.41-.34-.75-.75-.75s-.75.34-.75.75v3.88c0 .41.34.75.75.75s.75-.34.75-.75v-1.19h4.11c.41 0 .75-.34.75-.75s-.34-.75-.75-.75m-17.5-5.29h4.11v1.19c0 .41.34.75.75.75s.75-.34.75-.75v-3.88c0-.41-.34-.75-.75-.75s-.75.34-.75.75v1.19H3.25c-.41 0-.75.34-.75.75s.34.75.75.75"/></svg>