<?xml version="1.0" encoding="UTF-8"?><svg id="b" xmlns="http://www.w3.org/2000/svg" viewBox="0 0 24 24"><path d="m12,2c-1.05,0-1.96.3-2.62.95-.66.66-.95,1.57-.95,2.62s.3,1.96.95,2.62c.39.38.86.65,1.4.8.09.02.15.1.15.19v2.27c0,.11-.09.2-.2.2-1.1.02-2.2.05-3.3.11-2.07.11-3.64,1.84-3.64,3.88v.8c-.39.12-.73.32-1.02.61-.53.53-.77,1.27-.77,2.09s.23,1.56.77,2.09c.53.53,1.27.77,2.09.77s1.56-.23,2.09-.77c.53-.53.77-1.27.77-2.09s-.23-1.56-.77-2.09c-.29-.29-.63-.49-1.02-.61v-.8c0-.94.71-1.69,1.61-1.74,1.06-.06,2.12-.09,3.18-.11.12,0,.21.09.21.21v2.3c0,.08-.05.16-.13.19-.33.12-.63.31-.89.56-.53.53-.77,1.27-.77,2.09s.23,1.56.77,2.09c.53.53,1.27.77,2.09.77s1.56-.23,2.09-.77c.53-.53.77-1.27.77-2.09s-.23-1.56-.77-2.09c-.25-.25-.55-.44-.89-.56-.08-.03-.13-.1-.13-.19v-2.3c0-.12.1-.21.21-.21,1.06.02,2.12.05,3.18.11.9.05,1.61.8,1.61,1.74v.8c-.39.12-.73.32-1.02.61-.53.53-.77,1.27-.77,2.09s.23,1.56.77,2.09c.53.53,1.27.77,2.09.77s1.56-.23,2.09-.77c.53-.53.77-1.27.77-2.09s-.23-1.56-.77-2.09c-.29-.29-.63-.49-1.02-.61v-.8c0-2.04-1.57-3.77-3.64-3.88-1.1-.06-2.2-.09-3.3-.11-.11,0-.2-.09-.2-.2v-2.27c0-.09.06-.17.15-.19.54-.15,1.01-.41,1.4-.8.66-.66.95-1.57.95-2.62s-.3-1.96-.95-2.62-1.57-.95-2.62-.95Z" fill-rule="evenodd" stroke-width="0"/></svg>