<?xml version="1.0" encoding="UTF-8"?><svg id="e" xmlns="http://www.w3.org/2000/svg" viewBox="0 0 24 24"><path d="m10.85,13.27h-1.02v-.98c0-.41-.34-.75-.75-.75s-.75.34-.75.75v.98h-1.02c-.41,0-.75.34-.75.75s.34.75.75.75h1.02v.98c0,.41.34.75.75.75s.75-.34.75-.75v-.98h1.02c.41,0,.75-.34.75-.75s-.34-.75-.75-.75Z" fill="#444" stroke-width="0"/><path d="m15.01,11.64c-.41,0-.75.34-.75.75s.34.75.75.75h.1c.41,0,.7-.34.7-.75s-.39-.75-.8-.75Z" fill="#444" stroke-width="0"/><path d="m16.69,14.94c-.41,0-.75.34-.75.75s.34.75.75.75h.1c.41,0,.7-.34.7-.75s-.39-.75-.8-.75Z" fill="#444" stroke-width="0"/><path d="m13.32,6.17v-.26c-.02-1.47-1.2-2.64-2.71-2.65h-.99c-.28,0-.5-.22-.5-.49,0-.41-.34-.74-.75-.74h0c-.41,0-.75.34-.74.76,0,1.1.91,2.04,2.01,1.98h.99c.65,0,1.18.52,1.19,1.16v.23c-7.24.04-9.82,2.12-9.82,7.91s2.62,7.91,10,7.91,10-2.07,10-7.91c0-5.48-2.3-7.64-8.68-7.89Zm-1.32,14.3c-6.51,0-8.5-1.5-8.5-6.41s1.99-6.41,8.5-6.41,8.5,1.5,8.5,6.41-1.99,6.41-8.5,6.41Z" fill="#444" stroke-width="0"/></svg>