<svg xmlns="http://www.w3.org/2000/svg" viewBox="0 0 24 24"><path fill="#444" d="M17.63 7.98v-.36c0-3.1-2.51-5.62-5.61-5.62S6.64 4.3 6.43 7.21a7.077 7.077 0 0 0 3.65 12.84h1.19v1.2c0 .41.34.75.75.75s.75-.34.75-.75v-1.2h1.21c2.35 0 4.52-1.25 5.7-3.31 1.73-3.02.8-6.86-2.05-8.76m.75 8.02a5.05 5.05 0 0 1-4.61 2.55h-1v-1.86l2.21-2.21c.29-.29.29-.77 0-1.06a.754.754 0 0 0-1.06 0l-1.49 1.5a2.6 2.6 0 0 0-.44-.61l-1.86-1.86a.754.754 0 0 0-1.06 0c-.29.29-.29.77 0 1.06l1.86 1.86c.22.22.35.53.35.85v2.34h-1.14a5.573 5.573 0 0 1-5.17-5.94 5.6 5.6 0 0 1 2.61-4.36c.22-.14.35-.38.35-.64 0-2.27 1.84-4.12 4.11-4.12s4.11 1.85 4.11 4.12v.78c0 .27.14.52.38.65A5.11 5.11 0 0 1 18.41 16Z"/></svg>