<?xml version="1.0" encoding="UTF-8"?><svg id="a" xmlns="http://www.w3.org/2000/svg" viewBox="0 0 24 24"><path id="b" d="m18.54,19.23h0c-.29-.29-.29-.77,0-1.06l.83-.83h-8.03c-.11,0-.21.08-.24.19-.17.51-.47.93-.91,1.27-.49.37-1.04.56-1.66.56s-1.17-.19-1.65-.56c-.43-.33-.74-.76-.92-1.27-.04-.11-.13-.18-.24-.18h-.8c-.78,0-1.56-.26-2.11-.81s-.81-1.19-.81-1.96v-4.82c0-.39.32-.7.7-.7h4.9c.08,0,.15-.07.15-.15v-2.71c0-.08-.07-.15-.15-.15H2.75c-.42,0-.75-.34-.75-.75h0c0-.42.34-.75.75-.75h11.49c.51,0,.94.18,1.29.53s.53.78.53,1.29v9.22c0,.15.12.27.27.27h3.01l-.8-.8c-.29-.29-.3-.77,0-1.07h0c.3-.3.78-.31,1.08,0l2.22,2.22c.22.22.22.58,0,.8l-2.24,2.24c-.29.29-.77.29-1.06,0Zm-9.09-10.17h4.84c.15,0,.27-.12.27-.27v-2.44c0-.08-.03-.15-.1-.21s-.14-.1-.21-.1h-4.79c-.08,0-.15.07-.15.15v2.71c0,.08.07.15.15.15Zm-.03,8.42c.24-.24.37-.54.37-.89s-.12-.65-.37-.89-.54-.37-.89-.37-.65.12-.89.37c-.24.24-.37.54-.37.89s.12.65.37.89c.24.24.54.37.89.37s.65-.12.89-.37Zm-3.51-1.64c.17-.6.49-1.08.97-1.45.48-.37,1.03-.56,1.65-.56s1.17.19,1.66.56c.48.36.79.83.95,1.41,0,.02.03.04.05.04h3.1c.15,0,.27-.12.27-.26v-4.74c0-.15-.12-.27-.27-.27H3.76c-.14,0-.26.12-.26.26v3.76c0,.35.12.65.37.89.24.24.54.37.89.37h1.15Zm0-5.27h0Z" fill="#444" stroke-width="0"/></svg>