<svg xmlns="http://www.w3.org/2000/svg" viewBox="0 0 24 24"><path fill="#444" fill-rule="evenodd" d="M18.96 5.85c1.32.6 2.15 1.85 2.35 3.52.08.63.06 1.3-.03 1.97-.28 2.01-1.25 4.02-2.54 5.03-.98.76-2.23 1.13-3.5 1.3-.77.11-1.55.14-2.28.14-.26 0-.52 0-.77-.01-1.84-.05-4.18-.26-5.87-1.46-2.27-1.61-2.01-5.03-1.78-8.06s0-.08 0-.12c.08-.99.15-1.93.12-2.77.04-1.25-1.26-1.5-1.41-1.52a.76.76 0 0 1-.62-.86c.07-.4.45-.67.85-.62.94.14 2.69.94 2.68 2.94v.15c0 .2.17.35.37.34 1.93-.09 3.84-.18 5.77-.24 1.08-.04 2.15-.07 3.23-.09h.57c.9-.03 1.91-.06 2.85.36Zm-6.08 5.04h2.77a.749.749 0 1 0 0-1.5h-2.77c-.41 0-.75.34-.75.75s.34.75.75.75"/><path fill="#444" d="M7.15 19.02c-.71 0-1.3.58-1.3 1.29s.58 1.3 1.3 1.3 1.29-.58 1.29-1.3-.58-1.29-1.29-1.29m10.33 0c-.71 0-1.29.58-1.29 1.29s.58 1.3 1.29 1.3 1.29-.58 1.29-1.3-.58-1.29-1.29-1.29"/></svg>