<?xml version="1.0" encoding="UTF-8"?><svg id="d" xmlns="http://www.w3.org/2000/svg" viewBox="0 0 24 24"><path d="m17.33,8.85v-1.59c-.02-1.41-.6-2.76-1.61-3.75-1.01-.98-2.32-1.5-3.79-1.51-2.89.03-5.23,2.36-5.26,5.25v1.6c-2.11.99-3.05,2.88-3.05,6.14,0,5.11,2.27,7.01,8.38,7.01s8.38-1.9,8.38-7.01c0-3.25-.94-5.15-3.05-6.14Zm-6.17,5.22c0-.47.38-.84.84-.84s.84.38.84.84v2.19c0,.47-.38.84-.84.84s-.84-.38-.84-.84v-2.19Zm-2.8-6.81c.02-1.98,1.62-3.57,3.6-3.59h.03c.99,0,1.88.36,2.57,1.04.7.68,1.09,1.59,1.1,2.56v1.03c-1.01-.22-2.2-.33-3.65-.33s-2.65.11-3.65.33v-1.04Z" fill="#444" stroke-width="0"/></svg>