<svg xmlns="http://www.w3.org/2000/svg" viewBox="0 0 24 24"><path fill="#444" d="M21.25 17.69h-8.33c-3.28 0-4.92 0-5.79-.86-.86-.86-.86-2.49-.86-5.75V2.81c0-.41-.34-.75-.75-.75s-.75.34-.75.75v1.98s-.01.03-.03.03h-2c-.41 0-.75.34-.75.75s.34.75.75.75h2s.03.01.03.03v4.74c0 3.67 0 5.51 1.3 6.81s3.16 1.3 6.84 1.3h4.77s.03.01.03.03v1.98c0 .41.34.75.75.75s.75-.34.75-.75v-1.98s.01-.03.03-.03h2c.41 0 .75-.34.75-.75s-.34-.75-.75-.75Z"/><path fill="#444" d="M8.3 6.31h2.78c3.28 0 4.92 0 5.79.86.86.86.86 2.49.86 5.75v2.76c0 .41.34.75.75.75s.75-.34.75-.75v-2.76c0-3.67 0-5.51-1.3-6.81s-3.16-1.3-6.84-1.3H8.31c-.41 0-.75.34-.75.75s.34.75.75.75Z"/><path fill="#444" d="M11.54 8.03c-1.46 0-2.27 0-2.9.62s-.63 1.48-.63 2.89v.92c0 1.41 0 2.26.63 2.89.63.62 1.43.62 2.9.62h.93c1.46 0 2.27 0 2.9-.62s.63-1.48.63-2.89v-.92c0-1.41 0-2.26-.63-2.89-.63-.62-1.43-.62-2.9-.62zm2.95 3.51v.92c0 .99 0 1.64-.18 1.82-.19.19-.84.19-1.84.19h-.93c-1 0-1.65 0-1.84-.18-.19-.19-.19-.84-.19-1.82v-.92c0-.99 0-1.64.18-1.82.19-.19.84-.19 1.84-.19h.93c1 0 1.65 0 1.84.18.19.19.19.84.19 1.82"/></svg>