<?xml version="1.0" encoding="UTF-8"?><svg id="b" xmlns="http://www.w3.org/2000/svg" viewBox="0 0 24 24"><path d="m17.88,9.73c-.09,0-.19-.02-.28-.06-.36-.16-.52-.57-.37-.93.18-.4.08-1-.25-1.48-.33-.5-.83-.84-1.28-.81-.41,0-.7-.31-.71-.7,0-.39.31-.7.7-.71.97-.02,1.88.54,2.47,1.43.6.9.74,1.98.38,2.83-.11.27-.38.43-.65.43Z" fill="#444" stroke-width="0"/><path d="m20.8,10.66c-.07,0-.12,0-.19-.03-.38-.1-.59-.49-.49-.86.36-1.28.06-2.8-.8-4.08-.85-1.28-2.15-2.13-3.48-2.29-.39-.05-.66-.39-.61-.78.05-.39.4-.67.78-.61,1.72.21,3.39,1.3,4.47,2.91,1.08,1.62,1.45,3.57.99,5.24-.08.29-.37.5-.68.5Z" fill="#444" stroke-width="0"/><path d="m16.39,11.88c0,.28-.23.52-.52.52H3.53c-.28,0-.52-.23-.52-.52s.23-.52.52-.52h.7l.26-1.24c.24-1.2.76-2.3,2.81-2.3h4.82c2.05,0,2.56,1.11,2.81,2.3l.26,1.24h.7c.27,0,.51.23.51.52Z" fill="#444" stroke-width="0"/><path d="m16.68,15.76c-.1-1.13-.4-2.34-2.6-2.34H5.32c-2.2,0-2.5,1.21-2.6,2.34l-.39,4.18c-.05.52.12,1.04.48,1.44.37.39.87.62,1.43.62h1.29c1.11,0,1.32-.64,1.47-1.05l.14-.41c.16-.47.2-.59.82-.59h3.51c.62,0,.64.07.82.59l.14.41c.14.42.35,1.05,1.47,1.05h1.29c.54,0,1.06-.23,1.43-.62.36-.39.53-.91.48-1.44l-.4-4.18Zm-9.04,1.43h-2.06c-.28,0-.52-.23-.52-.52s.23-.52.52-.52h2.06c.28,0,.52.23.52.52s-.23.52-.52.52Zm6.17,0h-2.06c-.28,0-.52-.23-.52-.52s.23-.52.52-.52h2.06c.28,0,.52.23.52.52s-.23.52-.52.52Z" fill="#444" stroke-width="0"/></svg>