<?xml version="1.0" encoding="UTF-8"?><svg id="c" xmlns="http://www.w3.org/2000/svg" viewBox="0 0 24 24"><path d="m13.02,2.05c1.39,0,2.69.74,3.52,1.85.37.65,1.02,1.02,1.76,1.2h0c2.13.46,3.7,2.31,3.7,4.44v4.26c0,1.3,0,2.31-.09,3.06-.09.83-.19,1.48-.56,2.13-.56,1.02-1.3,1.85-2.31,2.31-.65.28-1.3.46-2.13.56-.83.09-1.85.09-3.06.09h-3.7c-1.3,0-2.31,0-3.06-.09-.83-.09-1.48-.19-2.13-.56-1.02-.56-1.85-1.3-2.31-2.31-.28-.65-.46-1.3-.56-2.13-.09-.83-.09-1.85-.09-3.06v-4.26c0-2.13,1.48-3.98,3.61-4.44h0c.74-.19,1.48-.56,1.85-1.2.74-1.2,2.13-1.85,3.52-1.85h2.04Zm-1.85,1.48c-.93,0-1.85.46-2.31,1.3-.65.93-1.67,1.57-2.78,1.76h0c-1.48.28-2.5,1.57-2.5,3.06v4.26c0,1.3,0,2.22.09,2.96s.19,1.2.37,1.57c.37.74,1.02,1.39,1.76,1.76.37.19.83.28,1.57.37.74.09,1.67.09,2.96.09h3.7c1.3,0,2.22,0,2.96-.09s1.2-.19,1.57-.37c.74-.37,1.39-1.02,1.76-1.76.19-.37.28-.83.37-1.57.09-.74.09-1.67.09-2.96v-4.26c0-1.48-1.02-2.78-2.5-3.06h0c-1.11-.19-2.13-.83-2.78-1.76-.56-.74-1.39-1.3-2.31-1.3h-2.04Zm.93,5c2.41,0,4.44,1.94,4.44,4.44s-1.94,4.44-4.44,4.44-4.44-1.94-4.44-4.44,2.04-4.44,4.44-4.44Zm0,1.48c-1.67,0-2.96,1.39-2.96,2.96s1.39,2.96,2.96,2.96,2.96-1.39,2.96-2.96-1.3-2.96-2.96-2.96Z" fill="#444" stroke-width="0"/></svg>