<?xml version="1.0" encoding="UTF-8"?><svg id="b" xmlns="http://www.w3.org/2000/svg" viewBox="0 0 24 24"><path d="m20.37,22H3.63c-.39,0-.7-.31-.7-.7s.31-.7.7-.7h1.26c-.06-.2-.1-.41-.1-.63V5.09c0-1.71,1.39-3.09,3.09-3.09h8.23c1.71,0,3.09,1.39,3.09,3.09v14.88c0,.22-.04.43-.1.63h1.26c.39,0,.7.31.7.7s-.31.7-.7.7ZM7.88,3.4c-.94,0-1.7.76-1.7,1.7v14.88c0,.35.28.63.63.63h10.37c.35,0,.63-.28.63-.63V5.09c0-.94-.76-1.7-1.7-1.7H7.88Zm6.91,13.95h-.93c-.39,0-.7-.31-.7-.7v-.93c0-.39.31-.7.7-.7h.93c.39,0,.7.31.7.7v.93c0,.39-.31.7-.7.7Zm-4.65,0h-.93c-.39,0-.7-.31-.7-.7v-.93c0-.39.31-.7.7-.7h.93c.39,0,.7.31.7.7v.93c0,.39-.31.7-.7.7Zm4.65-4.65h-.93c-.39,0-.7-.31-.7-.7v-.93c0-.39.31-.7.7-.7h.93c.39,0,.7.31.7.7v.93c0,.39-.31.7-.7.7Zm-4.65,0h-.93c-.39,0-.7-.31-.7-.7v-.93c0-.39.31-.7.7-.7h.93c.39,0,.7.31.7.7v.93c0,.39-.31.7-.7.7Zm4.65-4.65h-.93c-.39,0-.7-.31-.7-.7v-.93c0-.39.31-.7.7-.7h.93c.39,0,.7.31.7.7v.93c0,.39-.31.7-.7.7Zm-4.65,0h-.93c-.39,0-.7-.31-.7-.7v-.93c0-.39.31-.7.7-.7h.93c.39,0,.7.31.7.7v.93c0,.39-.31.7-.7.7Z" stroke-width="0"/></svg>