<svg xmlns="http://www.w3.org/2000/svg" viewBox="0 0 24 24"><g fill="#444"><path d="M12 22c-5.68 0-8.94-3.26-8.94-8.94S6.32 4.12 12 4.12s8.94 3.26 8.94 8.94S17.68 22 12 22m0-16.4c-4.81 0-7.46 2.65-7.46 7.46s2.65 7.46 7.46 7.46 7.46-2.65 7.46-7.46S16.81 5.6 12 5.6"/><path d="M14.77 15.12h-3.63c-.09 0-.13-.11-.07-.17l4.19-4.2a.69.69 0 0 0-.49-1.18H9.23c-.39 0-.69.31-.69.69s.31.69.69.69h3.63c.09 0 .13.11.07.17l-4.19 4.2c-.2.2-.26.49-.15.75s.36.42.64.42h5.54c.39 0 .69-.31.69-.69s-.31-.69-.69-.69ZM4.55 5.57l3.67-2.3c.33-.2.42-.62.22-.95a.683.683 0 0 0-.95-.22L3.82 4.4c-.33.2-.42.63-.22.95.2.33.62.42.95.22m11.22-2.29 3.67 2.3c.33.2.75.11.95-.22s.11-.75-.22-.95l-3.67-2.3c-.33-.2-.75-.1-.95.22-.2.33-.11.75.22.95"/></g></svg>