<svg xmlns="http://www.w3.org/2000/svg" viewBox="0 0 24 24"><path d="M17 7.2h-.2V7c0-1.28-.5-2.49-1.41-3.39A4.76 4.76 0 0 0 12 2.2H7c-1.28 0-2.49.5-3.39 1.41S2.2 5.72 2.2 7v5c0 1.28.5 2.49 1.41 3.39S5.72 16.8 7 16.8h.2v.2c0 2.65 2.15 4.8 4.8 4.8h5c2.65 0 4.8-2.15 4.8-4.8v-5c0-2.65-2.15-4.8-4.8-4.8m-10 8c-.85 0-1.66-.33-2.26-.94S3.8 12.84 3.8 12V7c0-.84.34-1.67.94-2.26.6-.6 1.41-.94 2.26-.94h5c.85 0 1.66.33 2.26.94s.94 1.41.94 2.26v.2H12c-2.65 0-4.8 2.15-4.8 4.8v3.2zM20.2 17c0 1.76-1.44 3.2-3.2 3.2h-5A3.21 3.21 0 0 1 8.8 17v-5c0-1.76 1.44-3.2 3.2-3.2h5c1.76 0 3.2 1.44 3.2 3.2z"/></svg>