<svg xmlns="http://www.w3.org/2000/svg" viewBox="0 0 24 24"><path fill="#444" d="M20.7 4.8s-.03-.04-.05-.06c-.34-.45-.75-.84-1.22-1.17-.26-.18-.53-.34-.83-.47-1.51-.7-3.55-.85-6.54-.85s-4.96.14-6.46.81c-.33.14-.63.31-.91.51-.49.34-.92.76-1.28 1.23-.08.11-.16.23-.24.35C2.31 6.52 2 8.4 2 12s.31 5.48 1.17 6.85c.08.12.16.24.24.35.36.47.79.89 1.28 1.23.28.2.58.37.91.51 1.5.67 3.52.81 6.46.81s5.03-.15 6.54-.85c.3-.13.57-.29.83-.47.47-.33.88-.72 1.22-1.17.02-.02.03-.04.05-.06 1.11-1.48 1.3-3.5 1.3-7.2s-.19-5.72-1.3-7.2M5.25 17.39V14.8c0-.36.14-.7.39-.95l2.53-2.53c.46-.46 1.2-.46 1.66 0l2.76 2.76c.5.5 1.32.5 1.82 0l1.13-1.13c.52-.52 1.38-.52 1.91 0l.9.9c.25.25.39.59.39.95v2.59c0 .75-.61 1.36-1.36 1.36H6.61c-.75 0-1.36-.61-1.36-1.36M18 7.5c0 .83-.67 1.5-1.5 1.5S15 8.33 15 7.5 15.67 6 16.5 6s1.5.67 1.5 1.5"/></svg>