<?xml version="1.0" encoding="UTF-8"?><svg id="b" xmlns="http://www.w3.org/2000/svg" viewBox="0 0 17.8 19.94"><g id="c"><g id="d"><path d="m8.9,2.14C3.24,2.14,0,5.39,0,11.04s3.24,8.9,8.9,8.9,8.9-3.24,8.9-8.9S14.56,2.14,8.9,2.14Zm2.6,11.9c0,.42-.34.75-.75.75s-.75-.33-.75-.75v-6c0-.41.33-.75.75-.75s.75.34.75.75v6Zm-3.7-6v6c0,.42-.33.75-.75.75s-.75-.33-.75-.75v-6c0-.41.34-.75.75-.75s.75.34.75.75Z" fill="#444" stroke-width="0"/><path d="m7.04,1.4h3.72c.39,0,.7-.31.7-.7s-.31-.7-.7-.7h-3.72c-.39,0-.7.31-.7.7s.31.7.7.7Z" fill="#444" stroke-width="0"/></g></g></svg>