<svg xmlns="http://www.w3.org/2000/svg" width="24" height="24" viewBox="0 0 24 24"><path fill="#707575" d="m18.63 16.8-.63-.29c-.79-.36-1.74-.36-2.53 0l-.63.29c-.58.27-.95.85-.95 1.49V20c0 .72.36 1.38.95 1.78l1.13.75a1.38 1.38 0 0 0 1.53 0l1.13-.75c.6-.4.95-1.06.95-1.78v-1.71c0-.64-.38-1.22-.95-1.49m.05 3.21c0 .42-.21.8-.55 1.03l-1.13.75c-.16.1-.38.1-.53 0l-1.13-.75c-.35-.23-.55-.62-.55-1.03V18.3c0-.29.17-.55.43-.67l.63-.29c.28-.13.58-.19.89-.19s.61.07.89.19l.63.29c.26.12.43.38.43.67v1.71Z"/><path fill="#707575" d="m17.29 18.63-.84.96-.24-.36a.373.373 0 0 0-.52-.1c-.17.11-.22.35-.1.52l.24.36c.14.21.37.34.63.35h.04c.24 0 .47-.11.62-.3l.77-.96c.13-.16.1-.4-.06-.53a.38.38 0 0 0-.53.06Zm-5.46-6.85h.27c2.66-.09 4.74-2.25 4.74-4.91s-2.21-4.92-4.93-4.92c-1.32 0-2.55.51-3.48 1.45C7.5 4.33 7 5.56 7 6.87c0 2.67 2.12 4.82 4.83 4.91M9.5 4.46c.64-.65 1.5-1 2.41-1 1.88 0 3.41 1.53 3.41 3.41s-1.42 3.32-3.23 3.4h-.3a3.39 3.39 0 0 1-3.28-3.41c0-.91.35-1.76.99-2.41Zm2.41 16.08c-1.63 0-3.15-.42-4.28-1.17-.14-.1-.26-.2-.38-.31-.63-.54-.99-1.17-.99-1.83 0-.78.49-1.54 1.37-2.12 2.32-1.55 6.24-1.55 8.56 0 .17.11.37.15.56.11.2-.04.37-.15.48-.32a.763.763 0 0 0-.21-1.05c-2.82-1.89-7.41-1.89-10.23 0-1.31.87-2.04 2.07-2.04 3.37s.72 2.51 2.04 3.39c1.38.92 3.19 1.42 5.12 1.42a.749.749 0 1 0 0-1.5Z"/></svg>