<svg xmlns="http://www.w3.org/2000/svg" width="24" height="24" viewBox="0 0 24 24"><g fill="#707575"><path d="M17.22 21.75H6.78c-2.51 0-4.54-2.04-4.54-4.55v-6.68c0-1.24.77-2.82 1.76-3.58l4.86-3.79c1.48-1.15 3.85-1.21 5.4-.13l5.57 3.9c1.09.76 1.94 2.39 1.94 3.72v6.56c0 2.51-2.04 4.54-4.54 4.54ZM9.77 4.33 4.91 8.12c-.63.49-1.18 1.61-1.18 2.4v6.68c0 1.68 1.37 3.05 3.04 3.05h10.44c1.68 0 3.04-1.37 3.04-3.04v-6.56c0-.85-.61-2.01-1.3-2.49l-5.57-3.9c-1-.7-2.65-.66-3.61.09Z"/><path d="M12 18.15c-.41 0-.75-.34-.75-.75v-2.7c0-.41.34-.75.75-.75s.75.34.75.75v2.7c0 .41-.34.75-.75.75"/></g></svg>