<?xml version="1.0" encoding="UTF-8"?><svg id="c" xmlns="http://www.w3.org/2000/svg" viewBox="0 0 24 24"><path d="m11.37,11.3c0-1.31-1.06-2.37-2.36-2.37s-2.36,1.06-2.36,2.37,1.06,2.37,2.36,2.37,2.36-1.06,2.36-2.37Zm-2.36.87c-.47,0-.86-.39-.86-.87s.38-.87.86-.87.86.39.86.87-.38.87-.86.87Z" stroke-width="0"/><path d="m14.98,8.93c-1.3,0-2.36,1.06-2.36,2.37s1.06,2.37,2.36,2.37,2.36-1.06,2.36-2.37-1.06-2.37-2.36-2.37Zm0,3.24c-.47,0-.86-.39-.86-.87s.38-.87.86-.87.86.39.86.87-.38.87-.86.87Z" stroke-width="0"/><path d="m13.24,14.89c-.38-.49-.68-.87-1.24-.87s-.86.38-1.24.87l-.27.34c-.26.33-.2.8.13,1.05.32.26.8.2,1.05-.13l.27-.34s.04-.05.06-.08c.02.03.04.05.06.08l.27.34c.15.19.37.29.59.29.16,0,.33-.05.46-.16.33-.26.38-.73.13-1.05l-.27-.34Z" stroke-width="0"/><path d="m20.56,10.53c0-5.42-3.12-8.53-8.56-8.53S3.44,5.19,3.44,10.53c0,1.55.42,3.05,1.21,4.37-.15.3-.23.64-.23.98,0,.85.5,1.63,1.26,2,.12.06.2.18.2.31v.47c0,.69.43,1.48,1,1.83,1.65,1.01,3.38,1.52,5.12,1.52s3.47-.51,5.12-1.52c.57-.35,1-1.14,1-1.83v-.35c0-.28.26-.45.37-.52.68-.4,1.1-1.13,1.1-1.91,0-.34-.08-.68-.23-.98.79-1.32,1.21-2.82,1.21-4.37Zm-2.72,3.95c-.2.29-.17.67.06.92.12.13.18.3.18.47,0,.25-.13.48-.35.61-.7.41-1.11,1.08-1.11,1.81v.35c0,.18-.17.48-.28.55-.57.35-1.16.61-1.75.82v-.63c0-.41-.34-.75-.75-.75s-.75.34-.75.75v1.02c-.72.1-1.45.1-2.17,0v-1.02c0-.41-.34-.75-.75-.75s-.75.34-.75.75v.63c-.59-.21-1.18-.47-1.75-.82-.12-.07-.28-.37-.28-.55v-.47c0-.7-.42-1.36-1.06-1.66-.25-.12-.41-.37-.41-.64,0-.17.06-.34.18-.47.23-.26.26-.64.06-.92-.8-1.17-1.22-2.53-1.22-3.95,0-2.63.92-7.03,7.06-7.03s7.06,3.82,7.06,7.03c0,1.42-.42,2.79-1.22,3.95Z" stroke-width="0"/></svg>