<?xml version="1.0" encoding="UTF-8"?><svg id="e" xmlns="http://www.w3.org/2000/svg" viewBox="0 0 24 24"><path d="m19.79,11.37h-6.52c-.66,0-1.19-.53-1.19-1.19V3.66c0-.66.53-1.19,1.18-1.11,3.97.53,7.11,3.67,7.64,7.64.09.65-.45,1.18-1.11,1.18ZM9.05,3.85c.67-.14,1.25.41,1.25,1.09v7.31c0,.21.07.41.2.57l4.9,5.91c.43.52.34,1.31-.26,1.63-1.26.69-2.71,1.08-4.25,1.08-4.91,0-8.9-3.99-8.9-8.9,0-4.28,3.02-7.86,7.05-8.7Zm9.46,9.3h2.37c.69,0,1.23.58,1.09,1.25-.38,1.79-1.3,3.39-2.58,4.6-.46.43-1.17.34-1.57-.14l-3.13-3.77c-.64-.77-.09-1.94.91-1.94h2.9Z" fill="#444" stroke-width="0"/></svg>