<?xml version="1.0" encoding="UTF-8"?><svg id="b" xmlns="http://www.w3.org/2000/svg" viewBox="0 0 17.8 19.95"><g id="c"><g id="d"><path d="m7.04,1.4h3.72c.39,0,.7-.31.7-.7s-.31-.7-.7-.7h-3.72c-.39,0-.7.31-.7.7s.31.7.7.7Z" fill="#444" stroke-width="0"/><path d="m11.14,8.51s-.03-.02-.05-.04c-.28-.23-.57-.46-.84-.64-.24-.17-.5-.33-.77-.49-.02-.02-.04-.03-.06-.04-.45-.28-.87-.53-1.25-.67-.2-.07-.45-.13-.71-.11-.26.03-.5.12-.72.28-.43.33-.6.78-.69,1.25-.08.44-.11,1-.16,1.66v.05c-.02.41-.04.81-.04,1.18s.02.77.04,1.18v.05c.05.66.07,1.23.16,1.66.09.46.26.93.69,1.25.21.16.46.25.72.28.26.02.5-.04.71-.11.37-.14.8-.39,1.25-.67.02,0,.04-.02.06-.04.27-.16.53-.33.77-.49.27-.19.56-.41.84-.64l.05-.04c.46-.38.87-.72,1.17-1.06.33-.38.54-.81.54-1.37s-.21-.99-.54-1.37c-.3-.34-.71-.68-1.17-1.06Zm.11,2.89c-.2.23-.52.49-1.04.91-.27.22-.52.43-.76.59-.2.15-.44.3-.69.45-.52.33-.83.5-1.05.59-.06.02-.09.03-.11.03-.02-.02-.09-.08-.16-.39-.07-.34-.09-.81-.13-1.53-.02-.39-.04-.76-.04-1.1s.02-.71.04-1.1c.04-.73.07-1.19.13-1.53.07-.31.14-.37.16-.39.02,0,.06,0,.11.03.22.08.53.26,1.05.59.25.15.49.3.69.45.24.17.49.36.76.59.52.42.84.68,1.04.91.17.2.2.33.2.46s-.04.26-.2.46v-.02Z" fill="#444" stroke-width="0"/><path d="m8.9,19.95C3.24,19.95,0,16.7,0,11.05S3.24,2.15,8.9,2.15s8.9,3.24,8.9,8.9-3.24,8.9-8.9,8.9Zm0-16.3c-4.77,0-7.4,2.63-7.4,7.4s2.63,7.4,7.4,7.4,7.4-2.63,7.4-7.4-2.63-7.4-7.4-7.4Z" fill="#444" stroke-width="0"/></g></g></svg>