<?xml version="1.0" encoding="UTF-8"?><svg id="b" xmlns="http://www.w3.org/2000/svg" viewBox="0 0 21.57 19.05"><g id="c"><g id="d"><path d="m5.59,19.05c-2.11,0-3.42-.17-4.32-1.06C.18,16.93,0,15.11,0,11.69c.01-7.23,2.68-7.25,10.61-7.29h.18c.97,0,1.85-.02,2.65-.04,3.62-.07,5.62-.1,6.84,1.11,1.11,1.1,1.31,2.95,1.3,6.22-.02,7.3-1.49,7.3-9.54,7.29h-1.25c-1.2,0-2.25.02-3.18.04-.74.02-1.41.03-2.01.03ZM15.49,5.84c-.61,0-1.29.01-2.03.03-.8.01-1.69.03-2.66.03h-.18c-7.89.04-9.1.04-9.11,5.79,0,2.8.13,4.55.82,5.23.71.69,2.42.66,5.25.6.94-.02,2-.04,3.21-.04h1.25q8.01.02,8.03-5.79c0-2.72-.13-4.43-.85-5.14-.59-.58-1.81-.7-3.73-.7Z" fill="#444" stroke-width="0"/><path d="m4.8,4.48c-.41,0-.75.34-.75.75v2c0,.41.34.75.75.75s.75-.34.75-.75v-2c0-.41-.34-.75-.75-.75Z" fill="#444" stroke-width="0"/><path d="m4.8,10.48c-.41,0-.75.34-.75.75v1c0,.41.34.75.75.75s.75-.34.75-.75v-1c0-.41-.34-.75-.75-.75Z" fill="#444" stroke-width="0"/><path d="m4.8,15.48c-.41,0-.75.34-.75.75v2c0,.41.34.75.75.75s.75-.34.75-.75v-2c0-.41-.34-.75-.75-.75Z" fill="#444" stroke-width="0"/><path d="m14.71.25c-1.67-.7-3.62.13-7.16,1.65-.62.26-1.29.55-2.01.85C3.12,3.76,1.64,5.21.8,7.05h1.53c.76-1.2,2.02-2.18,3.78-2.91.73-.31,1.4-.59,2.03-.86,2.47-1.05,4.15-1.77,5.27-1.77.27,0,.51.04.72.13.76.32,1.43,1.32,2.35,3.52h1.62c-1.08-2.71-1.97-4.31-3.39-4.91Z" fill="#444" stroke-width="0"/></g></g></svg>