<svg xmlns="http://www.w3.org/2000/svg" viewBox="0 0 24 24"><path fill="#444" d="M2.81 9.98c.41 0 .75-.34.75-.75V6.92c0-1.88 1.52-3.41 3.39-3.41h2.3c.41 0 .75-.34.75-.75s-.34-.75-.75-.75h-2.3c-2.69 0-4.89 2.2-4.89 4.91v2.31c0 .41.34.75.75.75M17.06 2h-2.3c-.41 0-.75.34-.75.75s.34.75.75.75h2.3c1.87 0 3.39 1.53 3.39 3.41v2.31c0 .41.34.75.75.75s.75-.34.75-.75V6.91C21.95 4.2 19.76 2 17.06 2m4.13 12.95c-.41 0-.75.34-.75.75v1.39c0 1.88-1.52 3.41-3.39 3.41h-1.38c-.41 0-.75.34-.75.75s.34.75.75.75h1.38c2.69 0 4.89-2.2 4.89-4.91V15.7c0-.41-.34-.75-.75-.75M9.24 20.5h-2.3c-1.87 0-3.39-1.53-3.39-3.41v-2.31c0-.41-.34-.75-.75-.75s-.75.34-.75.75v2.31C2.05 19.8 4.24 22 6.94 22h2.3c.41 0 .75-.34.75-.75s-.34-.75-.75-.75m8.11-6.19v-1.56h1.09c.41 0 .75-.34.75-.75s-.34-.75-.75-.75h-1.09V9.69c0-2.27-1.25-3.52-3.51-3.52h-3.68c-2.26 0-3.51 1.25-3.51 3.52v1.56H5.56c-.41 0-.75.34-.75.75s.34.75.75.75h1.09v1.56c0 2.27 1.25 3.52 3.51 3.52h3.68c2.26 0 3.51-1.25 3.51-3.52M8.16 9.69c0-1.44.58-2.02 2.01-2.02h3.68c1.43 0 2.01.59 2.01 2.02v1.56H8.17V9.69Zm5.69 6.65h-3.68c-1.43 0-2.01-.59-2.01-2.02v-1.56h7.69v1.56c0 1.44-.58 2.02-2.01 2.02Z"/></svg>