<svg xmlns="http://www.w3.org/2000/svg" viewBox="0 0 24 24"><path fill="#5e656d" d="m20.52 17.03-.83-6.94c-.21-1.76-.65-3.48-3.27-3.85V5.06c0-1.8-1.25-3.06-3.05-3.06h-2.76C8.82 2 7.56 3.26 7.56 5.06v1.18c-2.63.37-3.07 2.09-3.26 3.85l-.83 6.94c-.19 1.6.09 2.84.84 3.7.75.85 1.95 1.28 3.55 1.28h8.26c1.59 0 2.78-.43 3.54-1.27.76-.85 1.04-2.09.86-3.7ZM10.62 3.5h2.76c.97 0 1.55.58 1.55 1.56v1.1H9.08v-1.1c0-.98.58-1.56 1.55-1.56Zm7.92 16.23c-.46.51-1.27.77-2.41.77H7.87c-1.15 0-1.97-.26-2.42-.77q-.69-.78-.48-2.52l.83-6.94c.15-1.3.26-2.23 1.77-2.51v.55c0 .41.34.75.75.75s.75-.34.75-.75v-.64h5.85v.64c0 .41.34.75.75.75s.75-.34.75-.75v-.55c1.52.28 1.63 1.21 1.78 2.51l.67 5.64H8.32c-.41 0-.75.34-.75.75s.34.75.75.75h10.72c.09 1.05-.07 1.84-.5 2.33Z"/></svg>