<svg xmlns="http://www.w3.org/2000/svg" viewBox="0 0 24 24"><path d="M20.37 22H3.63c-.39 0-.7-.31-.7-.7s.31-.7.7-.7h1.21c-.03-.12-.04-.25-.04-.39V5.3C4.8 3.48 6.28 2 8.1 2h7.82c1.82 0 3.3 1.48 3.3 3.3v14.81c0 .17-.02.33-.06.49h1.23c.39 0 .7.31.7.7s-.31.7-.7.7Zm-5.81-1.4h2.77c.27 0 .49-.22.49-.49V5.3a1.9 1.9 0 0 0-1.9-1.9H8.1a1.9 1.9 0 0 0-1.9 1.9v14.92c0 .21.17.39.39.39h2.87v-4.13c0-.8.65-1.46 1.46-1.46h2.21c.8 0 1.46.65 1.46 1.46v4.13Zm-3.66-4.19s-.06.03-.06.06v4.07l2.27.06.06-4.13zm3.89-3.72h-.93c-.39 0-.7-.31-.7-.7v-.93c0-.39.31-.7.7-.7h.93c.39 0 .7.31.7.7v.93c0 .39-.31.7-.7.7m-4.65 0h-.93c-.39 0-.7-.31-.7-.7v-.93c0-.39.31-.7.7-.7h.93c.39 0 .7.31.7.7v.93c0 .39-.31.7-.7.7m4.65-4.65h-.93c-.39 0-.7-.31-.7-.7v-.93c0-.39.31-.7.7-.7h.93c.39 0 .7.31.7.7v.93c0 .39-.31.7-.7.7m-4.65 0h-.93c-.39 0-.7-.31-.7-.7v-.93c0-.39.31-.7.7-.7h.93c.39 0 .7.31.7.7v.93c0 .39-.31.7-.7.7"/></svg>