<?xml version="1.0" encoding="UTF-8"?><svg id="c" xmlns="http://www.w3.org/2000/svg" viewBox="0 0 24 24"><path d="m11.55,9.24c-3.74,0-7.04,3.01-7.35,6.72-.12,1.45.34,2.82,1.3,3.87.97,1.06,2.32,1.64,3.81,1.64h4.32c1.66,0,3.12-.65,4.11-1.82.98-1.16,1.37-2.68,1.1-4.28-.57-3.37-3.84-6.12-7.28-6.12Zm5.04,9.43c-.7.83-1.76,1.29-2.96,1.29h-4.32c-1.06,0-2.02-.41-2.71-1.15-.67-.73-.99-1.7-.91-2.73.25-2.95,2.88-5.34,5.86-5.34,2.74,0,5.35,2.19,5.8,4.87.2,1.16-.08,2.25-.77,3.06Z" fill="#444" stroke-width="0"/><path d="m10.41,8.51c1.66,0,3-1.34,3-2.98s-1.35-2.98-3-2.98-3,1.34-3,2.98,1.35,2.98,3,2.98Zm0-4.47c.83,0,1.5.67,1.5,1.48s-.67,1.48-1.5,1.48-1.5-.67-1.5-1.48.67-1.48,1.5-1.48Z" fill="#444" stroke-width="0"/><path d="m16.56,9.58c1.41,0,2.55-1.14,2.55-2.54s-1.14-2.54-2.55-2.54-2.55,1.14-2.55,2.54,1.15,2.54,2.55,2.54Zm0-3.57c.58,0,1.05.47,1.05,1.04s-.47,1.04-1.05,1.04-1.05-.46-1.05-1.04.47-1.04,1.05-1.04Z" fill="#444" stroke-width="0"/><path d="m19.9,8.97c-1.16,0-2.1.94-2.1,2.09s.94,2.09,2.1,2.09,2.1-.94,2.1-2.09-.94-2.09-2.1-2.09Zm0,2.68c-.33,0-.6-.26-.6-.59s.27-.59.6-.59.6.26.6.59-.27.59-.6.59Z" fill="#444" stroke-width="0"/><path d="m7.1,8.83c0-1.4-1.15-2.54-2.55-2.54s-2.55,1.14-2.55,2.54,1.14,2.54,2.55,2.54,2.55-1.14,2.55-2.54Zm-3.6,0c0-.57.47-1.04,1.05-1.04s1.05.46,1.05,1.04-.47,1.04-1.05,1.04-1.05-.47-1.05-1.04Z" fill="#444" stroke-width="0"/></svg>