<svg xmlns="http://www.w3.org/2000/svg" viewBox="0 0 18.47 18.97"><g fill="#444"><path d="M6.53 17.5c-.72-.07-1.34-.19-1.88-.37h-.02c-2.48-.8-3.13-2.69-3.13-6.8 0-.97.04-1.82.13-2.55h5.22c.41 0 .75-.34.75-.75s-.34-.75-.75-.75H1.92c.46-1.53 1.37-2.39 3-2.83v.37c0 .41.34.75.75.75s.75-.34.75-.75v-.65c.84-.1 1.81-.14 2.94-.14s2.09.04 2.93.14v.65c0 .41.34.75.75.75s.75-.34.75-.75v-.37c1.21.33 2.02.89 2.54 1.8l.03.04c.18.34.62.46.97.3.27-.12.43-.39.43-.67 0-.09 0-.17-.05-.25-.03-.07-.1-.19-.14-.25-.76-1.29-1.97-2.07-3.78-2.49V.75c0-.41-.34-.75-.75-.75s-.75.34-.75.75v.93c-.86-.1-1.84-.15-2.93-.15s-2.07.04-2.94.14V.75c0-.41-.34-.75-.75-.75s-.75.34-.75.75v1.17C1.2 2.79 0 5.18 0 10.33c0 4.76 1.03 7.16 4.12 8.18l.02.01c.09.03.19.06.28.09h.03c.51.15 1.06.26 1.67.34h.07s.09.02.13.02a.748.748 0 0 0 .21-1.47"/><path d="m14.45 13.29-.87-.54a.34.34 0 0 1-.16-.29v-1.3c0-.38-.31-.69-.69-.69s-.69.31-.69.69v1.68c0 .35.18.68.48.87l1.19.75c.11.07.24.11.37.11a.685.685 0 0 0 .36-1.27Z"/><path d="M12.73 7.08c-3.16 0-5.74 2.59-5.74 5.77s2.58 5.77 5.74 5.77 5.74-2.59 5.74-5.77-2.58-5.77-5.74-5.77m0 10.17c-2.41 0-4.37-1.97-4.37-4.4s1.96-4.4 4.37-4.4 4.37 1.97 4.37 4.4-1.96 4.4-4.37 4.4"/></g></svg>