<svg xmlns="http://www.w3.org/2000/svg" viewBox="0 0 24 24"><path fill-rule="evenodd" d="M11.55 3.62C12.26 2.74 13.2 2 14.39 2s2.13.74 2.83 1.62c.72.89 1.28 2.04 1.72 3.15s.77 2.22.98 3.04c.11.41.19.76.24 1 .03.12.05.22.07.28l.02.08v.02c.71 3.68.42 7.22-2.45 9.51-1.01.81-2.27 1.12-3.42 1.21-3.33.26-6.02-.13-7.92-1.45-1.95-1.35-2.91-3.55-3.02-6.53-.03-1.34.25-2.66.82-3.83.3-.63.68-1.2 1.12-1.7a1.64 1.64 0 0 1 1.67-.5c.54.14 1.02.52 1.3 1.02.16.29.33.57.52.83.22-.82.53-1.91.97-3 .44-1.1 1.01-2.26 1.72-3.15Zm-.51 9.33c.34-.35.78-.62 1.29-.62s.95.27 1.28.62.6.81.81 1.24c.21.44.36.88.47 1.2.05.16.08.3.11.4.02.05.03.09.03.11v.03c.17.73.22 1.4.05 2-.17.62-.58 1.12-1.27 1.5-.94.51-2.11.51-3.05 0-.68-.37-1.1-.87-1.27-1.5-.17-.6-.12-1.27.05-2v.04-.09c0-.03.03-.06.03-.11.03-.1.07-.23.13-.39.11-.33.27-.76.48-1.2.22-.44.49-.89.83-1.24Z"/></svg>