<svg xmlns="http://www.w3.org/2000/svg" viewBox="0 0 19.87 20"><path fill="#444" d="M9.94 3.35c-.41 0-.75-.34-.75-.75V.75c0-.41.34-.75.75-.75s.75.34.75.75V2.6c0 .41-.34.75-.75.75m1.51 10.76a.74.74 0 0 1-.68-.44c-.17-.38 0-.82.37-.99a2.93 2.93 0 0 0 1.72-2.69c0-.79-.31-1.53-.86-2.09a2.88 2.88 0 0 0-2.07-.86.749.749 0 1 1 0-1.5c1.18 0 2.29.46 3.13 1.3.83.84 1.29 1.95 1.3 3.14 0 1.75-1.02 3.34-2.6 4.06-.1.05-.2.07-.31.07m7.67-3.37h-1.84c-.41 0-.75-.34-.75-.75s.34-.75.75-.75h1.84c.41 0 .75.34.75.75s-.34.75-.75.75M4.41 20a4.37 4.37 0 0 1-3.2-1.39A4.5 4.5 0 0 1 0 15.31c.06-1.2.61-2.33 1.5-3.12.21-.18.33-.44.33-.71V2.6c0-.77.33-1.49.92-1.98.58-.5 1.34-.71 2.1-.59 1.23.2 2.16 1.34 2.16 2.66v8.8c0 .26.12.52.32.7.37.32.68.7.92 1.13.68 1.18.78 2.59.28 3.86a4.49 4.49 0 0 1-2.85 2.63c-.42.13-.85.19-1.27.19M2.5 13.32a2.96 2.96 0 0 0-.99 2.07c-.04.81.25 1.59.81 2.2.73.79 1.9 1.11 2.92.79.89-.28 1.57-.9 1.9-1.75.33-.84.26-1.78-.19-2.56-.16-.28-.37-.53-.61-.75-.53-.46-.83-1.13-.83-1.83v-8.8c0-.59-.39-1.09-.9-1.18-.32-.05-.64.03-.89.24s-.39.52-.39.84v8.89c0 .7-.31 1.36-.84 1.83Zm12.63-7.81c-.19 0-.38-.07-.53-.22a.754.754 0 0 1 0-1.06l1.3-1.3c.29-.29.77-.29 1.06 0s.29.77 0 1.06l-1.3 1.3c-.15.15-.34.22-.53.22m1.3 11.77c-.19 0-.38-.07-.53-.22l-1.3-1.3a.754.754 0 0 1 0-1.06c.29-.29.77-.29 1.06 0l1.3 1.3c.29.29.29.77 0 1.06-.15.15-.34.22-.53.22"/></svg>