<svg xmlns="http://www.w3.org/2000/svg" width="24" height="24" viewBox="0 0 24 24"><path fill="#707575" d="M9.19 11.78h.27c2.64-.09 4.71-2.23 4.72-4.89 0-2.7-2.2-4.9-4.9-4.9s-4.9 2.2-4.9 4.9 2.11 4.8 4.81 4.89m-3.3-4.89c0-1.87 1.52-3.4 3.4-3.4s3.4 1.52 3.4 3.39c0 1.82-1.43 3.31-3.23 3.39h-.3A3.367 3.367 0 0 1 5.9 6.88Zm10.46 3.52H16c-.4.05-.67.4-.62.83.04.38.39.67.77.67h.21c2.17-.08 3.87-1.85 3.87-4.02s-1.8-4.02-4.02-4.02c-.41 0-.75.34-.75.75s.34.75.75.75c1.39 0 2.52 1.13 2.52 2.52s-1.05 2.44-2.37 2.52Zm-1.82 3.45c-2.8-1.87-7.37-1.87-10.19 0-1.31.88-2.03 2.08-2.03 3.37 0 1.3.72 2.49 2.03 3.36C5.7 21.5 7.51 22 9.43 22s3.73-.5 5.09-1.41c1.31-.88 2.03-2.08 2.03-3.37 0-1.3-.72-2.49-2.03-3.36Zm.53 3.36c0 .78-.48 1.54-1.36 2.12-2.31 1.55-6.21 1.54-8.52 0-.88-.58-1.36-1.33-1.36-2.11s.48-1.53 1.36-2.12c2.32-1.54 6.22-1.54 8.52 0 .88.58 1.36 1.33 1.36 2.11m5.23-3.05c-.57-.44-1.28-.76-2.09-.94a.8.8 0 0 0-.56.09.74.74 0 0 0-.23 1.03c.11.17.27.29.47.33.6.14 1.11.36 1.52.67.51.38.79.88.79 1.39s-.28 1.01-.8 1.4c-.42.32-.94.55-1.53.67a.74.74 0 0 0-.58.89c.07.35.38.6.73.6.05 0 .1 0 .15-.02.8-.17 1.54-.49 2.13-.95.89-.66 1.39-1.61 1.39-2.59s-.51-1.93-1.39-2.59Z"/></svg>