<svg width="24" height="24" viewBox="0 0 24 24" xmlns="http://www.w3.org/2000/svg">
  <path
    d="M16.5 12C16.5 11.7 16.56 11.41 16.67 11.14C16.78 10.87 16.95 10.62 17.16 10.41C17.37 10.2 17.62 10.04 17.89 9.92C18.16 9.81 18.46 9.75 18.75 9.75C19.05 9.75 19.34 9.81 19.61 9.92C19.88 10.03 20.13 10.2 20.34 10.41C20.55 10.62 20.71 10.87 20.83 11.14C20.94 11.41 21 11.71 21 12C21 12.6 20.76 13.17 20.34 13.59C19.92 14.01 19.35 14.25 18.75 14.25C18.15 14.25 17.58 14.01 17.16 13.59C16.74 13.17 16.5 12.6 16.5 12ZM14.25 12C14.25 12.3 14.19 12.59 14.08 12.86C13.97 13.13 13.8 13.38 13.59 13.59C13.38 13.8 13.13 13.96 12.86 14.08C12.59 14.19 12.29 14.25 12 14.25C11.7 14.25 11.41 14.19 11.14 14.08C10.87 13.97 10.62 13.8 10.41 13.59C10.2 13.38 10.04 13.13 9.92 12.86C9.81 12.59 9.75 12.29 9.75 12C9.75 11.4 9.99 10.83 10.41 10.41C10.83 9.99 11.4 9.75 12 9.75C12.6 9.75 13.17 9.99 13.59 10.41C14.01 10.83 14.25 11.4 14.25 12ZM7.5 12C7.5 12.3 7.44 12.59 7.33 12.86C7.22 13.13 7.05 13.38 6.84 13.59C6.63 13.8 6.38 13.96 6.11 14.08C5.84 14.19 5.54 14.25 5.25 14.25C4.95 14.25 4.66 14.19 4.39 14.08C4.12 13.97 3.87 13.8 3.66 13.59C3.45 13.38 3.29 13.13 3.17 12.86C3.06 12.59 3 12.29 3 12C3 11.4 3.24 10.83 3.66 10.41C4.08 9.99 4.65 9.75 5.25 9.75C5.85 9.75 6.42 9.99 6.84 10.41C7.26 10.83 7.5 11.4 7.5 12Z"
    fill="#444444" />
</svg>
