<?xml version="1.0" encoding="UTF-8"?><svg id="c" xmlns="http://www.w3.org/2000/svg" viewBox="0 0 24 24"><path d="m10.99,2c1.01,0,1.65,0,2.29.18.55.18,1.01.37,1.47.73s.92.92,1.47,1.74l.83,1.1h.83c.64.09,1.19.18,1.74.46.83.46,1.47,1.1,1.93,1.93.28.55.37,1.1.46,1.74v.46h-1.65c-1.93,0-3.49,1.56-3.49,3.49s1.56,3.49,3.49,3.49h1.56v.46c-.09.64-.18,1.19-.46,1.74-.46.83-1.1,1.47-1.93,1.93-.55.28-1.1.37-1.74.46s-1.47.09-2.48.09h-6.61c-1.01,0-1.83,0-2.48-.09s-1.19-.18-1.74-.46c-.83-.46-1.47-1.1-1.93-1.93-.28-.55-.37-1.1-.46-1.74s-.09-1.47-.09-2.48V4.48c0-1.38,1.19-2.48,2.48-2.48h6.51Zm11.01,10.28v3.58h-1.65c-1.1,0-2.02-.92-2.02-2.02s.92-2.02,2.02-2.02h1.56c0,.09.09.28.09.46ZM4.75,3.47c-.64,0-1.1.55-1.1,1.1,0,.64.55,1.1,1.1,1.1h10.55l-.18-.18c-.64-.92-.92-1.19-1.28-1.47-.28-.18-.64-.37-1.01-.46-.37-.09-.83-.09-1.93-.09h-6.15Z" fill="#444" fill-rule="evenodd" stroke-width="0"/></svg>