<svg xmlns="http://www.w3.org/2000/svg" viewBox="0 0 24 24"><g fill="#5e656d"><path d="M20.43 7.24c-1.16-1.25-2.67-1.22-3.88-1.2-.73.02-1.42.03-1.88-.23-.01-.01-.02-.01-.03-.02-.55-.32-.74-.68-.99-1.14-.28-.53-.64-1.19-1.57-1.7-.89-.47-1.86-.75-2.95-.82-.09 0-.18-.01-.28-.01-.1-.01-.21-.01-.32-.01-.79 0-1.64.1-2.57.29-2.54.52-4.18 2.76-4.18 5.7v6.01c0 5.52 2.47 7.26 6.14 7.78h1.11c.4 0 .72-.31.72-.69 0-.3-.19-.55-.47-.65-.17-.01-.33-.03-.49-.04-3.81-.35-5.52-1.68-5.52-6.4V8.1c0-1.76.78-3.8 2.99-4.25.83-.17 1.57-.25 2.26-.25q.6 0 1.14.09c.63.1 1.19.29 1.71.57.55.29.73.63.97 1.09h.01c.28.54.64 1.21 1.59 1.75.05.03.09.05.14.07.77.39 1.63.37 2.48.36h.02c1.1-.03 2.05-.04 2.76.72 1.1 1.19 1.38 2.92 1.45 4.44 0 .13.01.25.01.37.07.31.37.55.71.55.4 0 .72-.31.72-.69v-.93c-.13-1.59-.54-3.39-1.8-4.75"/><path d="M20.08 15.87c-.33-1.23-1.14-2.11-2.25-2.45-1.28-.39-2.76 0-3.68.96-.75.78-1.04 1.83-.84 2.96-.96.38-1.45 1.31-1.45 2.19 0 1.1.76 2.25 2.26 2.36h5.04c.77 0 1.51-.29 2.05-.8.89-.77 1.23-1.98.87-3.16-.31-1.02-1.05-1.77-2-2.05Zm.25 4.22c-.32.29-.76.49-1.19.45h-4.96c-.7-.05-.96-.58-.96-1.01s.25-.95.94-1.01c.07 0 .15 0 .23-.04a.68.68 0 0 0 .41-.86c-.42-1.16-.05-1.89.34-2.3.57-.59 1.5-.85 2.3-.6.53.17 1.22.62 1.41 1.84.05.3.29.52.59.56.76.1 1.21.68 1.36 1.21.15.52.12 1.25-.47 1.77Z"/></g></svg>