<?xml version="1.0" encoding="UTF-8"?><svg id="c" xmlns="http://www.w3.org/2000/svg" viewBox="0 0 24 24"><g id="d"><path d="m12,8.01c-2.5,0-3.99,1.49-3.99,3.99s1.49,3.99,3.99,3.99,3.99-1.49,3.99-3.99-1.49-3.99-3.99-3.99Zm0,6.65c-1.74,0-2.66-.92-2.66-2.66s.92-2.66,2.66-2.66,2.66.92,2.66,2.66-.92,2.66-2.66,2.66Z" fill="#707575" stroke-width="0"/><path d="m20.73,6.99c-.22-.39-.55-.71-.94-.94l-6.51-3.72c-.78-.45-1.79-.45-2.56,0l-6.52,3.72c-.39.22-.71.55-.94.94-.22.39-.34.83-.34,1.28v7.45c0,.45.12.89.34,1.28.22.39.55.71.94.94l6.51,3.72c.39.22.83.34,1.28.34s.89-.12,1.28-.34l6.52-3.72c.39-.22.71-.55.94-.94.22-.39.34-.83.34-1.28v-7.45c0-.45-.12-.89-.34-1.28Zm-1.05,8.73c0,.2-.05.4-.16.58-.1.18-.25.32-.42.42l-6.52,3.72c-.35.21-.81.21-1.17,0l-6.51-3.72c-.18-.1-.32-.25-.42-.42-.1-.18-.16-.38-.16-.58v-7.44c0-.2.05-.41.16-.58.1-.18.25-.32.42-.42l6.52-3.72c.18-.1.38-.16.58-.16s.4.05.58.16l6.51,3.72c.18.1.32.25.43.43.1.18.16.38.16.58v7.45Z" fill="#707575" stroke-width="0"/></g></svg>