<?xml version="1.0" encoding="UTF-8"?><svg id="b" xmlns="http://www.w3.org/2000/svg" viewBox="0 0 18.38 18.38"><g id="c"><path id="d" d="m9.72,16.04l1.04-1.04c.29-.29.76-.29,1.05,0h0c.29.3.29.77,0,1.06l-2.1,2.1c-.29.29-.76.29-1.05,0l-2.1-2.1c-.29-.29-.29-.77,0-1.06h0c.29-.3.76-.29,1.05,0l1.04,1.04c.29.29.76.29,1.05,0Zm-7.38-6.33l1.04,1.04c.29.29.29.76,0,1.05h0c-.29.3-.76.3-1.06.01L.22,9.72c-.29-.29-.29-.76,0-1.05l2.1-2.1c.29-.29.76-.29,1.05,0h0c.29.3.29.76,0,1.06l-1.04,1.04c-.29.29-.29.76,0,1.05Zm13.71-1.05l-1.04-1.05c-.29-.29-.29-.76,0-1.05h0c.29-.29.76-.3,1.06,0l2.1,2.1c.29.29.29.76,0,1.05l-2.1,2.1c-.29.29-.77.29-1.06,0h0c-.28-.3-.28-.76,0-1.05l1.04-1.04c.29-.29.29-.76,0-1.05Zm-7.39-6.33l-1.04,1.04c-.29.29-.76.29-1.05,0h0c-.3-.29-.3-.77,0-1.06L8.67.22c.29-.29.76-.29,1.05,0l2.1,2.1c.29.29.29.77,0,1.06h0c-.29.29-.76.29-1.05,0l-1.05-1.04c-.29-.29-.76-.29-1.05,0Z" fill="#444" stroke-width="0"/></g></svg>