<?xml version="1.0" encoding="UTF-8"?><svg id="c" xmlns="http://www.w3.org/2000/svg" viewBox="0 0 24 24"><path d="m2.24,2.28c.28-.28.74-.28,1.02,0l18.5,18.5c.28.28.28.74,0,1.02-.28.28-.74.28-1.02,0l-1.66-1.66c-.09.37-.28.74-.55,1.02-.46.46-1.11.65-1.76.74-.74.09-1.57.09-2.77.09h-4.07c-1.11,0-2.03,0-2.77-.09-.65-.09-1.29-.28-1.76-.74-.55-.55-.74-1.2-.65-1.85.09-.55.37-1.11.74-1.48.18-.18.28-.37.46-.55s.28-.37.37-.55c.18-.18.18-.37.28-.55-1.66-1.48-2.68-3.61-2.68-6.01,0-1.48.37-2.96,1.11-4.16l-2.77-2.77c-.28-.28-.28-.65,0-.92Zm5.46,14.8c-.09.18-.18.28-.28.46-.18.18-.28.46-.46.65s-.28.37-.46.55c-.28.37-.37.65-.46.83,0,.18,0,.37.28.65.09.09.28.18.92.28.55.09,1.39.09,2.59.09h4.07c1.2,0,1.94,0,2.59-.09.65-.09.83-.18.92-.28.28-.28.28-.55.28-.83-.09-.37-.28-.74-.55-1.2l-1.11-1.11c-1.2.74-2.59,1.11-4.16,1.11-1.48.09-2.87-.37-4.16-1.11Zm-1.66-10.08c-.46.92-.74,1.94-.74,3.14,0,2.13,1.02,3.98,2.5,5.27,1.11.92,2.59,1.48,4.16,1.48,1.11,0,2.22-.28,3.14-.74L6.03,6.99Zm5.92-4.99c4.44,0,8.14,3.61,8.14,8.14,0,1.48-.37,2.87-1.11,4.07-.18.37-.65.46-.92.28-.37-.18-.46-.65-.28-.92.55-1.02.92-2.13.92-3.33,0-3.7-2.96-6.66-6.66-6.66-1.2,0-2.4.37-3.33.92-.37.18-.74.09-.92-.28s-.09-.74.28-.92c1.02-.83,2.4-1.29,3.88-1.29Zm0,5.55c1.39,0,2.59,1.11,2.59,2.59,0,.37-.28.74-.74.74s-.74-.28-.74-.74c0-.65-.55-1.11-1.11-1.11-.37,0-.74-.28-.74-.74s.37-.74.74-.74Z" fill="#444" fill-rule="evenodd" stroke-width="0"/></svg>