<svg xmlns="http://www.w3.org/2000/svg" viewBox="0 0 24 24"><g fill="#5e656d"><path d="M16.6 2H7.4C4.25 2 2.05 4.21 2.05 7.38v1.85c0 .41.34.75.75.75s.75-.34.75-.75V7.38c0-2.35 1.51-3.88 3.85-3.88h9.19c2.34 0 3.85 1.52 3.85 3.88v1.85c0 .41.34.75.75.75s.75-.34.75-.75V7.38c0-3.16-2.2-5.38-5.35-5.38Zm4.59 12.02c-.41 0-.75.34-.75.75v1.85c0 2.35-1.51 3.88-3.85 3.88H7.4c-2.34 0-3.85-1.52-3.85-3.88v-1.85c0-.41-.34-.75-.75-.75s-.75.34-.75.75v1.85c0 3.16 2.2 5.38 5.35 5.38h9.19c3.15 0 5.35-2.21 5.35-5.38v-1.85c0-.41-.34-.75-.75-.75"/><path d="M10.49 17.94c.43.24.97.36 1.51.36s1.08-.12 1.51-.36l2.94-1.65c.9-.5 1.6-1.7 1.6-2.73v-3.14c0-1.05-.69-2.23-1.6-2.73l-2.94-1.64c-.87-.49-2.17-.49-3.03 0L7.54 7.69c-.9.5-1.6 1.7-1.6 2.73v3.14c0 1.05.69 2.23 1.6 2.73l2.94 1.65Zm5.23-2.95-2.94 1.64s-.03 0-.04.01v-3.91l3.8-2.22v3.06c0 .49-.4 1.18-.83 1.42Zm-4.5-7.62c.2-.11.48-.17.76-.17s.58.06.78.17l2.95 1.65c.06.03.12.09.17.14l-3.9 2.28-3.9-2.27c.06-.05.12-.11.18-.15l2.94-1.65Zm-3.77 3.15 3.8 2.21v3.91h-.02l-2.95-1.65c-.43-.24-.83-.91-.83-1.42z"/></g></svg>