<svg xmlns="http://www.w3.org/2000/svg" viewBox="0 0 16.98 17.76"><path fill="#444" fill-rule="evenodd" d="M8.49 0c-.46 0-.84.38-.84.84v5.87c0 .47.38.84.84.84s.84-.37.84-.84V.84c0-.46-.38-.84-.84-.84m5.15 2.1a.8.8 0 0 0-.63-.12c-.22.04-.41.17-.53.36s-.17.41-.12.63.18.41.36.53c1.71 1.12 2.58 3.05 2.58 5.76 0 2.2-.59 3.91-1.74 5.07-1.16 1.16-2.86 1.75-5.07 1.75s-3.91-.59-5.07-1.75c-1.15-1.16-1.74-2.86-1.74-5.08 0-2.7.87-4.63 2.57-5.75.25-.16.38-.43.38-.7a.83.83 0 0 0-.83-.84c-.16 0-.32.04-.46.14C1.16 3.52 0 5.99 0 9.25c0 2.68.75 4.78 2.24 6.27s3.58 2.24 6.25 2.24 4.77-.76 6.25-2.24 2.24-3.59 2.24-6.27c0-3.26-1.16-5.73-3.34-7.15"/></svg>