<svg xmlns="http://www.w3.org/2000/svg" viewBox="0 0 24 24"><path fill="#444" d="M22 12c0-.8-.67-1.2-2.22-1.84C21.32 9.53 22 9.13 22 8.32c0-.96-.95-1.34-3.23-2.24l-2.6-1.03C14.31 4.31 13.29 3.9 12 3.9s-2.32.41-4.17 1.15l-2.6 1.03C2.94 6.98 2 7.36 2 8.32c0 .8.67 1.2 2.22 1.84C2.68 10.79 2 11.19 2 12s.67 1.2 2.22 1.84C2.68 14.47 2 14.87 2 15.68c0 .96.95 1.34 3.23 2.24l2.6 1.03c1.86.74 2.88 1.15 4.17 1.15s2.32-.41 4.17-1.15l2.6-1.03c2.29-.9 3.23-1.28 3.23-2.24 0-.8-.67-1.2-2.22-1.84C21.32 13.21 22 12.81 22 12M5.78 7.48l2.6-1.03c1.86-.74 2.65-1.04 3.62-1.04s1.76.3 3.62 1.04l2.6 1.03c.77.31 1.57.62 2.01.85-.45.23-1.24.54-2.01.85l-2.6 1.03c-1.86.74-2.65 1.04-3.62 1.04s-1.76-.3-3.62-1.04l-2.6-1.03c-.77-.31-1.57-.62-2.01-.85.45-.23 1.24-.54 2.01-.85m12.43 9.04-2.6 1.03c-1.86.74-2.65 1.04-3.62 1.04s-1.76-.3-3.62-1.04l-2.6-1.03c-.77-.31-1.57-.62-2.01-.85.45-.23 1.24-.54 2.01-.85l.45-.18 1.59.63c1.86.74 2.88 1.15 4.17 1.15s2.32-.41 4.17-1.15l1.59-.63.45.18c.77.31 1.57.62 2.01.85-.45.23-1.24.54-2.01.85Zm0-3.67-2.6 1.03c-1.86.74-2.65 1.04-3.62 1.04s-1.76-.3-3.62-1.04l-2.6-1.03C5 12.54 4.2 12.23 3.76 12c.45-.23 1.24-.54 2.01-.85l.45-.18 1.59.63c1.86.74 2.88 1.15 4.17 1.15s2.32-.41 4.17-1.15l1.59-.63.45.18c.77.31 1.57.62 2.01.85-.45.23-1.24.54-2.01.85Z"/></svg>