<svg xmlns="http://www.w3.org/2000/svg" viewBox="0 0 24 24"><path fill-rule="evenodd" d="M8.44 2.34c.02-.27-1.27.4-1.76.87L3.27 6.48c-.64.61-1.05 1.42-1.11 2.31-.1 1.06-.16 2.15-.16 3.26 0 1.69.15 3.34.31 4.92.14 1.21.68 2.34 1.54 3.2.57.57 1.26 1 2.01 1.27.08.03.15-.04.15-.12-.22-2.02-.25-3.99.05-6.09.15-1.02.92-1.83 1.96-1.99 2.2-.33 5.06-.32 7.96 0h.04c1 .15 1.79.94 1.94 1.95.32 2.11.28 4.14.05 6.17 0 .06.05.1.1.08.77-.27 1.46-.7 2.05-1.28.86-.86 1.4-1.99 1.54-3.2.16-1.59.31-3.24.31-4.93s-.15-3.34-.31-4.92a5.4 5.4 0 0 0-1.54-3.2 5.3 5.3 0 0 0-2.43-1.4.16.16 0 0 0-.2.17c.14 1.52.16 3.02-.06 4.61a2.31 2.31 0 0 1-1.96 1.99c-1.7.24-3.35.24-5.05 0-1.02-.14-1.86-.94-2-1.96-.25-1.74-.21-3.34 0-5.01Zm6.91-.11c.15.01.26.13.28.28.17 1.56.21 3.03 0 4.57-.03.22-.19.38-.39.41-1.55.22-3.03.22-4.58 0a.47.47 0 0 1-.39-.39c-.22-1.57-.18-3.1.02-4.69.02-.15.15-.27.31-.27l4.75.1Zm-7.4 19.26.42.37 7.25.02.42-.37c.05-.05.09-.12.1-.19.24-1.97.27-3.87-.02-5.83a.46.46 0 0 0-.37-.39c-2.78-.31-5.46-.31-7.47 0-.2.03-.36.19-.4.41-.27 1.98-.24 3.85-.02 5.83 0 .06.04.12.08.16Z"/></svg>