<?xml version="1.0" encoding="UTF-8"?><svg id="c" xmlns="http://www.w3.org/2000/svg" viewBox="0 0 24 24"><path d="m18.35,16.2c-.24-.34-.7-.42-1.04-.19-.34.24-.42.71-.18,1.04.95,1.36,1.67,2.44,1.47,2.86-.02.05-.05.09-.07.13-.31.46-1.86.46-4.02.46h-5.01c-2.15,0-3.71,0-4.02-.46-.03-.04-.05-.09-.07-.13-.2-.42.52-1.5,1.47-2.86.24-.34.16-.81-.18-1.04-.34-.24-.81-.15-1.04.19-1.26,1.81-2.18,3.11-1.6,4.36.05.11.11.22.18.33.75,1.12,2.26,1.12,5.26,1.12h5.01c3,0,4.51,0,5.26-1.12.07-.1.13-.21.19-.33.58-1.24-.34-2.55-1.6-4.35Z" fill="#444" stroke-width="0"/><path d="m14.97,8.79c0-1.65-1.33-2.99-2.97-2.99s-2.97,1.34-2.97,2.99,1.33,2.99,2.97,2.99,2.97-1.34,2.97-2.99Zm-4.45,0c0-.82.66-1.49,1.47-1.49s1.47.67,1.47,1.49-.66,1.49-1.47,1.49-1.47-.67-1.47-1.49Z" fill="#444" stroke-width="0"/><path d="m12,17.94c1.11,0,2.22-.42,3.09-1.26,2.14-2.07,4.51-5.38,3.62-9.35-.82-3.63-3.96-5.25-6.71-5.25h0c-2.75,0-5.89,1.62-6.71,5.25h0c-.89,3.97,1.47,7.28,3.61,9.36.87.84,1.98,1.26,3.1,1.26ZM6.75,7.65c.68-3.01,3.25-4.08,5.24-4.08h0c2,0,4.57,1.07,5.24,4.08.74,3.29-1.33,6.14-3.2,7.94-1.15,1.11-2.95,1.11-4.1,0-1.86-1.81-3.93-4.66-3.19-7.95Z" fill="#444" stroke-width="0"/></svg>