<?xml version="1.0" encoding="UTF-8"?>
<svg id="b" xmlns="http://www.w3.org/2000/svg" viewBox="0 0 24 24">
  <path
    d="m7.76,7.33c.27.11.57.17.86.17.6,0,1.17-.24,1.59-.66.42-.42.66-.99.66-1.59,0-.6-.24-1.17-.66-1.59-.42-.42-.99-.66-1.59-.66-.3,0-.59.06-.86.17-.27.11-.52.28-.73.49-.21.21-.37.46-.49.73-.11.27-.17.57-.17.86,0,.3.06.59.17.86.11.27.28.52.49.73.21.21.46.37.73.49Zm1.72,2.59c-.27-.11-.57-.17-.86-.17-.6,0-1.17.24-1.59.66s-.66.99-.66,1.59c0,.6.24,1.17.66,1.59.42.42.99.66,1.59.66.3,0,.59-.06.86-.17.27-.11.52-.28.73-.49.21-.21.37-.46.49-.73.11-.27.17-.57.17-.86,0-.3-.06-.59-.17-.86-.11-.27-.28-.52-.49-.73-.21-.21-.46-.37-.73-.49Zm0,6.75c-.27-.11-.57-.17-.86-.17-.6,0-1.17.24-1.59.66s-.66.99-.66,1.59c0,.6.24,1.17.66,1.59.42.42.99.66,1.59.66.3,0,.59-.06.86-.17.27-.11.52-.28.73-.49.21-.21.37-.46.49-.73.11-.27.17-.57.17-.86,0-.3-.06-.59-.17-.86-.11-.27-.28-.52-.49-.73-.21-.21-.46-.37-.73-.49Zm5.03-9.34c.27.11.57.17.86.17.6,0,1.17-.24,1.59-.66.42-.42.66-.99.66-1.59,0-.6-.24-1.17-.66-1.59-.42-.42-.99-.66-1.59-.66-.3,0-.59.06-.86.17-.27.11-.52.28-.73.49-.21.21-.37.46-.49.73-.11.27-.17.57-.17.86s.06.59.17.86c.11.27.28.52.49.73.21.21.46.37.73.49Zm1.72,2.59c-.27-.11-.57-.17-.86-.17-.6,0-1.17.24-1.59.66-.42.42-.66.99-.66,1.59,0,.6.24,1.17.66,1.59.42.42.99.66,1.59.66.3,0,.59-.06.86-.17.27-.11.52-.28.73-.49.21-.21.37-.46.49-.73.11-.27.17-.57.17-.86,0-.3-.06-.59-.17-.86-.11-.27-.28-.52-.49-.73-.21-.21-.46-.37-.73-.49Zm0,6.75c-.27-.11-.57-.17-.86-.17-.6,0-1.17.24-1.59.66-.42.42-.66.99-.66,1.59,0,.6.24,1.17.66,1.59.42.42.99.66,1.59.66.3,0,.59-.06.86-.17.27-.11.52-.28.73-.49.21-.21.37-.46.49-.73.11-.27.17-.57.17-.86,0-.3-.06-.59-.17-.86-.11-.27-.28-.52-.49-.73s-.46-.37-.73-.49Z"
    fill="#444" fill-rule="evenodd" stroke-width="0" />
</svg>