<svg xmlns="http://www.w3.org/2000/svg" viewBox="0 0 24 24"><path fill="#444" d="M17 15.25c-1.05 0-1.98.51-2.57 1.29l-4.5-3.15c.2-.42.32-.89.32-1.39s-.12-.96-.32-1.39l4.5-3.15A3.22 3.22 0 0 0 17 8.75c1.79 0 3.25-1.46 3.25-3.25S18.79 2.25 17 2.25s-3.25 1.46-3.25 3.25c0 .2.02.38.06.57L9.07 9.39s-.04.05-.07.07c-.55-.44-1.24-.71-2-.71-1.79 0-3.25 1.46-3.25 3.25S5.21 15.25 7 15.25c.76 0 1.45-.27 2-.71.03.02.04.05.07.07l4.74 3.32c-.03.19-.06.37-.06.57 0 1.79 1.46 3.25 3.25 3.25s3.25-1.46 3.25-3.25-1.46-3.25-3.25-3.25m0-11.5c.96 0 1.75.79 1.75 1.75S17.96 7.25 17 7.25s-1.75-.79-1.75-1.75.79-1.75 1.75-1.75m-10 10c-.96 0-1.75-.79-1.75-1.75s.79-1.75 1.75-1.75 1.75.79 1.75 1.75-.79 1.75-1.75 1.75m10 6.5c-.96 0-1.75-.79-1.75-1.75s.79-1.75 1.75-1.75 1.75.79 1.75 1.75-.79 1.75-1.75 1.75"/></svg>