<svg xmlns="http://www.w3.org/2000/svg" viewBox="0 0 24 24"><path fill="#444" d="M21.08 18.09c-.22-.65-.83-1.09-1.51-1.09h-1.1c.14-.47.26-.97.34-1.5H21c.55 0 1-.45 1-1s-.45-1-1-1h-2.01c0-.13.01-.26.01-.4 0-.34-.02-.71-.04-1.1h.61c.69 0 1.3-.44 1.51-1.09l.86-2.59a1 1 0 0 0-.63-1.26 1 1 0 0 0-1.26.63l-.77 2.32H4.72l-.77-2.32a.99.99 0 0 0-1.26-.63c-.52.17-.81.74-.63 1.26l.86 2.59c.22.65.83 1.09 1.51 1.09h.61c-.03.39-.04.77-.04 1.1 0 .14 0 .27.01.4H3c-.55 0-1 .45-1 1s.45 1 1 1h2.19c.08.53.2 1.03.34 1.5h-1.1c-.69 0-1.3.44-1.51 1.09l-.86 2.59a1 1 0 0 0 .63 1.26 1 1 0 0 0 1.26-.63l.77-2.32H6.4c1 1.64 2.53 2.7 4.6 2.95v-6.95c0-.55.45-1 1-1s1 .45 1 1v6.95c2.07-.25 3.6-1.32 4.6-2.95h1.68l.77 2.32c.17.52.74.81 1.26.63.52-.17.81-.74.63-1.26z"/><path fill="#444" d="M18.19 8c-.29-.85-.69-1.65-1.19-2.37l1.09-2.18c.25-.49.05-1.09-.45-1.34s-1.09-.05-1.34.45l-.78 1.55c-.93-.67-2.07-1.1-3.52-1.1s-2.48.38-3.38 1L7.9 2.57c-.25-.49-.85-.69-1.34-.45s-.69.85-.45 1.34l1.01 2.02c-.56.76-.99 1.63-1.3 2.54H18.2Z"/></svg>