<?xml version="1.0" encoding="UTF-8"?><svg id="e" xmlns="http://www.w3.org/2000/svg" viewBox="0 0 24 24"><path d="m19.87,4.31c-.22-.09-5.28-2.31-7.87-2.31s-7.65,2.22-7.94,2.35c-.33.19-1.94,1.43-1.94,7.23,0,7.21,6.84,9.67,9.78,10.4.06.01.12.02.18.02s.12-.01.18-.02c2.26-.56,9.62-2.95,9.62-10.4,0-5.8-1.61-7.04-2.01-7.27Zm-7.86,12.04h-.02c-.43,0-.78-.37-.78-.79s.35-.8.78-.8.79.36.79.79-.34.79-.77.8Zm.78-3.96c0,.43-.35.79-.78.79s-.79-.36-.79-.79v-3.95c0-.43.35-.79.79-.79s.78.36.78.79v3.95Z" fill="#444" stroke-width="0"/></svg>