<svg xmlns="http://www.w3.org/2000/svg" viewBox="0 0 24 24"><g fill="#5e656d"><path d="M15.64 9.69a2.08 2.08 0 0 0-1.79-1.04h-.58v-1.4a.68.68 0 0 0-.68-.68H6.38a3.44 3.44 0 0 0-3.44 3.44v7.65a2.77 2.77 0 0 0 2.77 2.77h.12c.29.83 1.06 1.39 1.94 1.39s1.65-.55 1.94-1.39h1.64c.29.83 1.06 1.39 1.94 1.39s1.65-.55 1.94-1.39h.13c1.52 0 2.75-1.23 2.75-2.75v-3.39l-.12-.48-2.33-4.11Zm-11.34.34c0-1.15.94-2.09 2.09-2.09h5.5v6.26c0 .39-.32.7-.7.7H4.3zm3.45 10.42c-.38 0-.7-.32-.7-.7s.31-.7.7-.7.7.32.7.7-.31.7-.7.7m5.52 0c-.38 0-.7-.32-.7-.7s.31-.7.7-.7.69.32.69.7-.31.7-.69.7m3.45-2.79c0 .77-.63 1.4-1.4 1.4h-.11l-.03-.07s-.02-.06-.04-.09c-.04-.09-.08-.17-.15-.27 0-.02-.02-.04-.03-.05-.07-.1-.15-.2-.23-.28a.5.5 0 0 0-.07-.06l-.21-.18c-.03-.02-.06-.04-.11-.07l-.21-.12c-.04-.02-.08-.04-.12-.05-.08-.03-.16-.06-.25-.08h-.04s-.05-.02-.08-.03c-.28-.05-.49-.05-.77 0-.03 0-.05.01-.08.02h-.03c-.08.03-.17.06-.25.09-.04.02-.08.03-.12.05-.08.04-.15.08-.23.13l-.09.06c-.08.05-.15.11-.22.18l-.02.02s-.03.02-.04.04c-.08.09-.16.18-.23.28 0 .02-.02.03-.04.07-.05.08-.1.16-.14.25-.01.03-.02.06-.03.08l-.03.08H9.69l-.02-.04s-.03-.08-.05-.12a2 2 0 0 0-.15-.28c0-.01-.02-.03-.03-.04-.07-.1-.15-.2-.23-.28-.01-.01-.03-.03-.06-.05-.07-.06-.14-.12-.22-.18-.03-.02-.06-.04-.1-.07-.07-.04-.14-.08-.22-.12-.04-.02-.08-.04-.12-.05-.08-.03-.16-.06-.25-.08H8.2s-.05-.02-.08-.03c-.28-.05-.49-.05-.77 0-.03 0-.05.01-.08.02h-.04c-.08.03-.17.06-.24.09-.04.02-.08.03-.13.05-.07.04-.14.07-.24.13a1.3 1.3 0 0 0-.31.24c-.02.01-.03.03-.05.04-.08.08-.16.18-.23.28l-.04.08c-.05.08-.1.16-.13.25-.02.04-.03.08-.05.12l-.02.04h-.13c-.76 0-1.38-.62-1.38-1.38v-1.41h6.9c1.14 0 2.06-.93 2.06-2.06v-4.18h.58c.25 0 .49.14.61.35l.61 1.08H15c-.05.01-.09.03-.16.05-.03 0-.06.02-.09.03-.04.02-.08.04-.11.06l-.04.02s-.05.03-.07.04c-.03.02-.06.05-.12.09l-.02.02s-.04.03-.06.05c-.03.03-.05.06-.08.1l-.04.04s-.03.04-.05.06c-.02.03-.04.07-.06.1l-.03.07-.03.06c-.02.05-.04.11-.06.19 0 .02-.01.04-.02.06q-.03.135-.03.27v2.08c0 .76.62 1.38 1.38 1.38h1.38v1.4Zm0-2.77h-1.39v-2.1h.49l.89 1.58v.52Zm-1.06-10h-.04a.75.75 0 0 0-.74.76c.01.42.35.74.79.74.35 0 .74.26 1 .66.27.4.35.88.21 1.2a.75.75 0 0 0 .69 1.05c.3 0 .58-.19.68-.46.34-.79.21-1.8-.34-2.63s-1.39-1.32-2.25-1.32"/><path d="M20 4.83c-.98-1.46-2.49-2.45-4.05-2.64a.7.7 0 0 0-.54.14c-.16.12-.27.31-.29.51s.03.39.15.55.3.26.5.28c1.14.14 2.26.88 2.99 1.98.74 1.11 1 2.42.69 3.51a.752.752 0 0 0 .72.95c.33 0 .63-.22.72-.53.42-1.52.08-3.29-.89-4.75"/></g></svg>