<?xml version="1.0" encoding="UTF-8"?><svg id="c" xmlns="http://www.w3.org/2000/svg" viewBox="0 0 24 24"><path d="m18.74,15.54c-.56-3.36-3.79-6.1-7.2-6.1-3.7,0-6.96,3-7.28,6.7-.12,1.43.33,2.78,1.28,3.8.93,1.02,2.25,1.58,3.68,1.58h4.46c1.61,0,3.02-.63,3.98-1.76.96-1.13,1.34-2.64,1.09-4.22Z" fill="#444" stroke-width="0"/><path d="m10.36,8.06c1.54,0,2.79-1.25,2.79-2.79s-1.25-2.79-2.79-2.79-2.79,1.25-2.79,2.79,1.25,2.79,2.79,2.79Z" fill="#444" stroke-width="0"/><path d="m16.7,9.17c1.28,0,2.32-1.04,2.32-2.32s-1.04-2.32-2.32-2.32-2.32,1.04-2.32,2.32,1.04,2.32,2.32,2.32Z" fill="#444" stroke-width="0"/><path d="m20.14,12.88c1.03,0,1.86-.83,1.86-1.86s-.83-1.86-1.86-1.86-1.86.83-1.86,1.86.83,1.86,1.86,1.86Z" fill="#444" stroke-width="0"/><path d="m4.32,11.03c1.28,0,2.32-1.04,2.32-2.32s-1.04-2.32-2.32-2.32-2.32,1.04-2.32,2.32,1.04,2.32,2.32,2.32Z" fill="#444" stroke-width="0"/></svg>