<?xml version="1.0" encoding="UTF-8"?><svg id="b" xmlns="http://www.w3.org/2000/svg" viewBox="0 0 13.97 17"><g id="c"><path id="d" d="m12.47,16.25V5.69c0-.96-.32-1.92-.94-2.65-.86-1.01-1.92-1.53-3.2-1.54-1.12-.01-2.23.44-3.02,1.23s-1.22,1.8-1.22,2.96v4.59l1.31-1.31c.29-.29.76-.29,1.05,0h0c.29.29.29.76,0,1.05l-2.52,2.52c-.33.33-.87.33-1.2,0L.22,10.03c-.29-.29-.29-.76,0-1.05h0c.29-.29.76-.29,1.05,0l1.31,1.31v-4.59c0-1.58.55-2.93,1.66-4.03,1.11-1.11,2.45-1.66,4.03-1.66s2.93.55,4.03,1.66c1.11,1.11,1.66,2.45,1.66,4.03v10.56c0,.41-.34.75-.75.75h0c-.41,0-.75-.34-.75-.75Z" fill="#444" stroke-width="0"/></g></svg>