<svg xmlns="http://www.w3.org/2000/svg" viewBox="0 0 24 24"><g fill="#5e656d"><path d="M20.84 7.06c-.65-2.82-2.66-4.14-6.34-4.14h-5c-4.61 0-6.58 1.97-6.58 6.58v5c0 3.68 1.31 5.69 4.15 6.34.71.16 1.5.24 2.44.24h5c2.33 0 3.92-.49 5-1.55l.05-.03v-.03c1.05-1.08 1.53-2.66 1.53-4.98v-5c0-.91-.08-1.71-.24-2.44ZM9.38 4.42h5.12c2.82 0 4.21.76 4.78 2.59L7.01 19.28c-1.83-.57-2.58-1.96-2.58-4.77v-5c0-3.71 1.3-5.05 4.96-5.08Zm8.47 14.49c-.78.46-1.85.67-3.35.67h-5c-.25 0-.48 0-.67-.01l4.84-4.84zm-3.12-5.24 4.84-4.84c0 .2.01.42.01.67v5c0 1.47-.22 2.57-.67 3.35z"/><path d="M12.61 8.52C12.29 7.13 11.08 6.2 9.6 6.2s-2.69.93-3.01 2.32c-.31 1.35.22 2.73 1.54 3.99.4.37.92.58 1.47.58s1.06-.21 1.46-.58c1.32-1.26 1.86-2.64 1.55-3.99M10.2 11.6c-.17.16-.38.24-.6.24s-.43-.08-.6-.24c-.69-.66-1.46-1.68-1.19-2.81.23-1 1.11-1.35 1.79-1.35s1.57.35 1.79 1.35c.26 1.14-.5 2.16-1.19 2.81"/><path d="M9.62 10.03c.53 0 .97-.43.97-.96s-.43-.96-.97-.96-.96.43-.96.96.43.96.96.96"/></g></svg>