<svg xmlns="http://www.w3.org/2000/svg" viewBox="0 0 24 24"><path fill="#444" d="M21.62 9.25c-.41 0-.75.34-.75.75v4c0 .41.34.75.75.75s.75-.34.75-.75v-4c0-.41-.34-.75-.75-.75M19 7.84c-.91-3.79-3.53-3.79-8.67-3.79-4.86 0-7.48 0-8.51 3.23-.36 1.13-.53 2.66-.53 4.73s.17 3.62.54 4.75v.02c1.04 3.19 3.66 3.19 8.5 3.19 5.13 0 7.76 0 8.66-3.78l.01-.02c.25-1.06.37-2.42.37-4.16s-.12-3.1-.37-4.16Zm-7.9 6.63c-.06.28-.15.49-.2.64-.02.07-.06.13-.08.17-.01.02-.01.04-.02.05v.02l-.01.01c-.15.25-.41.39-.67.39a.73.73 0 0 1-.35-.09.775.775 0 0 1-.31-1.02c0-.02.02-.05.05-.09.04-.09.08-.24.14-.45.11-.42.23-1.11.23-2.1s-.12-1.68-.23-2.1c-.06-.21-.1-.36-.14-.45-.03-.04-.04-.07-.05-.09a.85.85 0 0 1-.08-.35c0-.27.14-.53.39-.67.35-.2.8-.07 1.02.3s.01.03.01.03c.01.01.01.03.02.05.02.04.06.1.08.17.05.15.14.36.2.64.14.55.28 1.36.28 2.47s-.14 1.92-.28 2.47M6.15 9.9c-.06-.21-.1-.36-.14-.45-.03-.04-.04-.07-.05-.09a.775.775 0 0 1 .31-1.02c.35-.2.8-.07 1.02.3s.01.03.01.03c.01.01.01.03.02.05.02.04.06.1.08.17.05.15.14.36.2.64.14.55.28 1.36.28 2.47s-.14 1.92-.28 2.47c-.06.28-.15.49-.2.64-.02.07-.06.13-.08.17-.01.02-.01.04-.02.05v.02l-.01.01c-.22.37-.67.5-1.02.3a.76.76 0 0 1-.39-.67c0-.12.03-.24.08-.35 0-.02.02-.05.05-.09.04-.09.08-.24.14-.45.11-.42.23-1.11.23-2.1s-.12-1.68-.23-2.1"/></svg>