<svg xmlns="http://www.w3.org/2000/svg" viewBox="0 0 24 24"><path fill="#5e656d" d="m21.42 9.62-.23-.38h-2.31c-.5 0-.9.4-.9.9v.65h-.42V9.2c0-.36-.29-.65-.65-.65h-.85a.78.78 0 0 1-.54-.21l-.42-.38c-.29-.25-.66-.39-1.04-.39h-1.15v-.64h.58V5.38H8.61v1.55h.58v.64H7.87c-.32 0-.62.12-.86.33l-.43.38c-.19.17-.44.26-.7.26H4.04v3.24h-.62v-1.67H1.87v4.88h1.55v-1.66h.62v3.24h3.27s.08.02.11.04l1.89 1.68c.23.2.52.31.82.31h6.99c.23 0 .42-.19.42-.42v-1.86h.42v.65c0 .49.4.9.9.9h2.31l.23-.38c.07-.12.71-1.27.71-3.94s-.64-3.82-.71-3.94ZM11.37 6.93v.64h-.61v-.64zm7.49 7.84h-2.42c-.23 0-.42.19-.42.42v1.69c0 .1-.08.17-.17.17h-5.5s-.08-.02-.12-.04l-2.12-1.88a.43.43 0 0 0-.28-.11H5.79c-.1 0-.17-.08-.17-.17V10.1h.21c.69 0 1.35-.25 1.87-.71.19-.17.44-.27.7-.27h5.03c.43 0 .84.16 1.16.44l.6.54h.84v1.82c0 .23.19.42.42.42h2.42c.38 0 .68-.31.68-.69v-.86h.69c.14.44.34 1.33.34 2.76s-.2 2.32-.34 2.76h-.69v-.86a.69.69 0 0 0-.68-.69Z"/></svg>