<?xml version="1.0" encoding="UTF-8"?><svg id="b" xmlns="http://www.w3.org/2000/svg" viewBox="0 0 24 24"><path d="m20.41,21.75H3.59c-.74,0-1.34-.6-1.34-1.34v-6.93c0-1.23,1-2.23,2.23-2.23h1.77v-6.19c0-1.55,1.26-2.81,2.81-2.81h5.89c1.55,0,2.81,1.26,2.81,2.81v6.19h1.77c1.23,0,2.23,1,2.23,2.23v6.93c0,.74-.6,1.34-1.34,1.34Zm-2.66-1.5h2.5v-6.77c0-.4-.33-.73-.73-.73h-1.77v7.5Zm-10,0h8.5V5.06c0-.72-.59-1.31-1.31-1.31h-5.89c-.72,0-1.31.59-1.31,1.31v15.19Zm-4,0h2.5v-7.5h-1.77c-.4,0-.73.33-.73.73v6.77Zm9.75-4.5h-3c-.41,0-.75-.34-.75-.75s.34-.75.75-.75h3c.41,0,.75.34.75.75s-.34.75-.75.75Zm0-4h-3c-.41,0-.75-.34-.75-.75s.34-.75.75-.75h3c.41,0,.75.34.75.75s-.34.75-.75.75Zm0-4h-3c-.41,0-.75-.34-.75-.75s.34-.75.75-.75h3c.41,0,.75.34.75.75s-.34.75-.75.75Z" stroke-width="0"/></svg>