<svg xmlns="http://www.w3.org/2000/svg" viewBox="0 0 24 24"><path fill="#444" fill-rule="evenodd" d="M21.43 9.73c-.39-1.65-2.11-1.73-3.49-1.8-.87-.04-1.77-.09-2.14-.48-.38-.39-.68-1.15-.97-1.89C14.26 4.13 13.62 2.5 12 2.5S9.74 4.13 9.17 5.56c-.29.74-.59 1.5-.97 1.89s-1.28.44-2.15.48c-1.38.07-3.1.15-3.49 1.8-.37 1.56.78 2.51 1.79 3.34.69.57 1.35 1.11 1.49 1.77.14.64-.07 1.47-.28 2.27-.35 1.38-.75 2.94.58 3.95.42.31.84.44 1.26.44.91 0 1.79-.58 2.54-1.08.7-.47 1.42-.95 2.04-.95s1.34.48 2.04.95c1.1.73 2.48 1.63 3.8.64 1.33-1.01.93-2.57.58-3.95-.21-.8-.42-1.63-.28-2.27.14-.66.8-1.2 1.49-1.77 1.01-.83 2.16-1.78 1.79-3.34Z"/></svg>