<svg xmlns="http://www.w3.org/2000/svg" viewBox="0 0 24 24"><g fill="#5e656d"><path d="m20.76 5.59-2.53-2.53c-.89-.9-2.07-1.39-3.34-1.39h-4.06c-1.27 0-2.47.49-3.36 1.39-.61.61-.96.96-1.16 1.77-.02.07-.04.14-.06.22v.05c0 .36.3.65.66.65.32 0 .59-.22.66-.52.14-.61.37-.78.83-1.24.65-.65 1.52-1.01 2.44-1.01h3.28c.48 0 .93.19 1.27.53.35.35.53.81.53 1.28v.82c0 .31.06.6.17.88.12.28.29.53.5.75.44.43 1.01.67 1.62.67h.82a1.81 1.81 0 0 1 1.81 1.81v3.26a3.44 3.44 0 0 1-2 3.13c-.24.1-.41.33-.41.6 0 .35.3.65.68.65.08 0 .15-.01.22-.04.06-.02.12-.05.17-.08.46-.22.88-.52 1.25-.9.9-.89 1.39-2.09 1.39-3.36V8.94c0-1.27-.49-2.46-1.38-3.35m-1.73.99h-.82c-.26 0-.5-.11-.69-.29a.9.9 0 0 1-.22-.32c-.04-.12-.07-.24-.07-.37v-.82c0-.36-.07-.69-.18-1.01.08.07.18.13.25.21l2.53 2.53c.08.08.14.17.21.25-.32-.11-.65-.18-1.01-.18"/><path d="m16.54 10.18-2.52-2.52a4.7 4.7 0 0 0-3.34-1.39H6.62c-1.27 0-2.47.49-3.36 1.39-.9.9-1.39 2.09-1.39 3.36v6.56c0 1.27.49 2.47 1.39 3.36.9.9 2.09 1.39 3.36 1.39h6.56c1.27 0 2.47-.49 3.36-1.39.9-.89 1.39-2.09 1.39-3.36v-4.04c0-1.27-.49-2.46-1.39-3.35Zm-.93.93c.08.08.14.17.21.25a3.1 3.1 0 0 0-1.01-.18h-.82c-.26 0-.51-.11-.7-.29a1 1 0 0 1-.28-.7v-.82c0-.35-.07-.69-.18-1.01.08.07.18.13.25.21l2.52 2.52Zm1.01 6.48c0 .92-.36 1.79-1.01 2.43s-1.52 1.01-2.43 1.01H6.62c-.92 0-1.79-.36-2.43-1.01a3.43 3.43 0 0 1-1.01-2.43v-6.56c0-.92.36-1.79 1.01-2.43s1.52-1.01 2.43-1.01H9.9c.48 0 .93.19 1.28.53s.52.8.52 1.28v.82c0 .3.06.6.17.88s.29.53.5.75c.43.43 1.01.67 1.62.67h.82c.48 0 .93.19 1.28.53s.52.8.52 1.28v3.28-.02Z"/></g></svg>