<?xml version="1.0" encoding="UTF-8"?><svg id="c" xmlns="http://www.w3.org/2000/svg" viewBox="0 0 24 24"><path d="m9.01,19.01c0-1.68,1.4-2.99,2.99-2.99s2.99,1.4,2.99,2.99-1.4,2.99-2.99,2.99-2.99-1.31-2.99-2.99Zm0-7.01c0-1.68,1.4-2.99,2.99-2.99s2.99,1.4,2.99,2.99-1.4,2.99-2.99,2.99-2.99-1.31-2.99-2.99Zm0-7.01c0-1.68,1.4-2.99,2.99-2.99s2.99,1.4,2.99,2.99-1.4,2.99-2.99,2.99-2.99-1.31-2.99-2.99Zm1.31,14.02c0,.93.75,1.68,1.68,1.68s1.68-.75,1.68-1.68-.75-1.68-1.68-1.68-1.68.75-1.68,1.68Zm0-7.01c0,.93.75,1.68,1.68,1.68s1.68-.75,1.68-1.68-.75-1.68-1.68-1.68-1.68.75-1.68,1.68Zm0-7.01c0,.93.75,1.68,1.68,1.68s1.68-.75,1.68-1.68-.75-1.68-1.68-1.68-1.68.75-1.68,1.68Z" fill="#444" stroke-width="0"/></svg>