<svg xmlns="http://www.w3.org/2000/svg" viewBox="0 0 24 24"><path fill="#444" d="M9.01 19.01c0-1.68 1.4-2.99 2.99-2.99s2.99 1.4 2.99 2.99S13.59 22 12 22s-2.99-1.31-2.99-2.99m0-7.01c0-1.68 1.4-2.99 2.99-2.99s2.99 1.4 2.99 2.99-1.4 2.99-2.99 2.99S9.01 13.68 9.01 12m0-7.01C9.01 3.31 10.41 2 12 2s2.99 1.4 2.99 2.99-1.4 2.99-2.99 2.99-2.99-1.31-2.99-2.99m1.31 14.02c0 .93.75 1.68 1.68 1.68s1.68-.75 1.68-1.68-.75-1.68-1.68-1.68-1.68.75-1.68 1.68m0-7.01c0 .93.75 1.68 1.68 1.68s1.68-.75 1.68-1.68-.75-1.68-1.68-1.68-1.68.75-1.68 1.68m0-7.01c0 .93.75 1.68 1.68 1.68s1.68-.75 1.68-1.68-.75-1.68-1.68-1.68-1.68.75-1.68 1.68"/></svg>