<?xml version="1.0" encoding="UTF-8"?><svg id="b" xmlns="http://www.w3.org/2000/svg" viewBox="0 0 18.72 19.12"><g id="c"><g id="d"><path d="m13.8,1.92s0,0,0,0V.75c0-.41-.34-.75-.75-.75s-.75.34-.75.75v.92c-.87-.1-1.85-.14-2.94-.14s-2.07.04-2.94.14v-.92c0-.41-.34-.75-.75-.75s-.75.34-.75.75v1.17s0,0,0,0C1.2,2.78,0,5.17,0,10.33c0,6.82,2.1,8.79,9.36,8.79h.23c.4-.01.74-.36.74-.76s-.3-.72-.69-.74h-.28c-.15,0-.3,0-.44-.01h-.02c-6.07-.06-7.4-1.43-7.4-7.28,0-.97.04-1.82.13-2.56h15.46c.08.64.12,1.36.12,2.18v.25s.01,0,.01.01c.07.34.37.6.73.6h.02c.41,0,.74-.33.75-.73v-.04c-.05-4.96-1.27-7.28-4.92-8.12Zm-8.88,1.52s0,0,0,0v.37c0,.41.34.75.75.75s.75-.34.75-.75v-.64c.84-.1,1.81-.14,2.94-.14s2.1.04,2.94.14v.64c0,.41.34.75.75.75s.75-.34.75-.75v-.37s0,0,0,0c1.63.44,2.53,1.3,3,2.83,0,0,0,0,0,0H1.92s0,0,0,0c.47-1.53,1.37-2.39,3-2.83Z" fill="#444" stroke-width="0"/><path d="m18.49,12.49c-.29-.29-.76-.3-1.05,0l-3.37,3.36c-.14.14-.37.14-.51,0l-1.3-1.29c-.14-.14-.34-.22-.52-.22-.2,0-.38.08-.53.22-.29.29-.29.76,0,1.05l2.09,2.09c.29.29.76.29,1.06,0l4.14-4.15c.29-.29.29-.76,0-1.05h-.01Z" fill="#444" stroke-width="0"/></g></g></svg>