<?xml version="1.0" encoding="UTF-8"?><svg id="b" xmlns="http://www.w3.org/2000/svg" viewBox="0 0 18 13.9"><g id="c"><path id="d" d="m3.87.23c-.3-.3-.79-.3-1.09,0L.21,2.8c-.29.31-.27.8.04,1.09.3.28.76.28,1.05,0l1.26-1.26v10.49c0,.43.35.77.77.77s.77-.35.77-.77V2.64l1.26,1.26c.31.29.8.27,1.09-.04.28-.3.28-.76,0-1.05L3.87.23Zm6.15.8c-.43,0-.77.35-.77.77s.35.77.77.77h7.21c.43,0,.77-.35.77-.77s-.35-.77-.77-.77h-7.21Zm-1.03,3.6c-.43,0-.77.35-.77.77s.35.77.77.77h5.15c.43,0,.77-.35.77-.77s-.35-.77-.77-.77h-5.15Zm0,3.6c-.43,0-.77.35-.77.77s.35.77.77.77h3.09c.43,0,.77-.35.77-.77s-.35-.77-.77-.77h-3.09Zm0,3.09c-.43,0-.77.35-.77.77s.35.77.77.77h1.03c.43,0,.77-.35.77-.77s-.35-.77-.77-.77h-1.03Z" fill="#444" stroke-width="0"/></g></svg>