<?xml version="1.0" encoding="UTF-8"?><svg id="b" xmlns="http://www.w3.org/2000/svg" viewBox="0 0 19.87 20"><g id="c"><g id="d"><path d="m9.94,3.35c-.41,0-.75-.34-.75-.75V.75c0-.41.34-.75.75-.75s.75.34.75.75v1.85c0,.41-.34.75-.75.75Z" fill="#444" stroke-width="0"/><path d="m11.45,14.11c-.28,0-.56-.16-.68-.44-.17-.38,0-.82.37-.99,1.05-.48,1.73-1.53,1.72-2.69,0-.79-.31-1.53-.86-2.09-.55-.56-1.29-.86-2.07-.86h0c-.41,0-.75-.34-.75-.75s.33-.75.75-.75h0c1.18,0,2.29.46,3.13,1.3.83.84,1.29,1.95,1.3,3.14,0,1.75-1.02,3.34-2.6,4.06-.1.05-.2.07-.31.07Z" fill="#444" stroke-width="0"/><path d="m19.12,10.74h-1.84c-.41,0-.75-.34-.75-.75s.34-.75.75-.75h1.84c.41,0,.75.34.75.75s-.34.75-.75.75Z" fill="#444" stroke-width="0"/><path d="m4.41,20c-1.19,0-2.37-.49-3.2-1.39C.37,17.7-.06,16.53,0,15.31c.06-1.2.61-2.33,1.5-3.12h0c.21-.18.33-.44.33-.71V2.6c0-.77.33-1.49.92-1.98C3.33.12,4.09-.09,4.85.03c1.23.2,2.16,1.34,2.16,2.66v8.8c0,.26.12.52.32.7.37.32.68.7.92,1.13.68,1.18.78,2.59.28,3.86-.5,1.26-1.54,2.22-2.85,2.63-.42.13-.85.19-1.27.19Zm-1.91-6.68c-.59.52-.95,1.27-.99,2.07-.04.81.25,1.59.81,2.2.73.79,1.9,1.11,2.92.79.89-.28,1.57-.9,1.9-1.75.33-.84.26-1.78-.19-2.56-.16-.28-.37-.53-.61-.75-.53-.46-.83-1.13-.83-1.83V2.69c0-.59-.39-1.09-.9-1.18-.32-.05-.64.03-.89.24-.25.21-.39.52-.39.84v8.89c0,.7-.31,1.36-.84,1.83h0Z" fill="#444" stroke-width="0"/><path d="m15.13,5.51c-.19,0-.38-.07-.53-.22-.29-.29-.29-.77,0-1.06l1.3-1.3c.29-.29.77-.29,1.06,0,.29.29.29.77,0,1.06l-1.3,1.3c-.15.15-.34.22-.53.22Z" fill="#444" stroke-width="0"/><path d="m16.43,17.28c-.19,0-.38-.07-.53-.22l-1.3-1.3c-.29-.29-.29-.77,0-1.06.29-.29.77-.29,1.06,0l1.3,1.3c.29.29.29.77,0,1.06-.15.15-.34.22-.53.22Z" fill="#444" stroke-width="0"/></g></g></svg>