<svg xmlns="http://www.w3.org/2000/svg" viewBox="0 0 24 24"><path fill="#444" d="M2.91 4.73h18.18c.5 0 .91.41.91.91s-.41.91-.91.91H2.91c-.5 0-.91-.41-.91-.91s.41-.91.91-.91m0 12.73h18.18c.5 0 .91.41.91.91s-.41.91-.91.91H2.91c-.5 0-.91-.41-.91-.91s.41-.91.91-.91m16.02-2.81-.16-.79H17l-.28.78H15.3c.91-2.18 1.59-3.81 2.03-4.86.12-.27.32-.41.62-.41h1.13l1.1 5.28zm-1.53-1.87h1.14l-.43-1.98zM8.25 9.37h1.43l-2.21 5.28H6.02c-.49-1.88-.85-3.28-1.08-4.19-.07-.28-.21-.47-.48-.57-.24-.08-.64-.21-1.2-.38v-.15h2.28c.39 0 .62.19.7.58l.56 2.99 1.43-3.57Zm3.39 0-1.13 5.28H9.15l1.13-5.28zm2.76-.1c.41 0 .92.13 1.21.24l-.24 1.09c-.27-.11-.7-.25-1.07-.25-.54 0-.87.23-.87.45 0 .35.57.53 1.17.91.68.44.76.83.76 1.25 0 .88-.76 1.75-2.33 1.75-.72-.01-.98-.07-1.56-.28l.25-1.14c.6.25.85.33 1.36.33.47 0 .87-.19.87-.52 0-.23-.14-.35-.67-.64-.52-.29-1.26-.69-1.25-1.49.01-1.03.99-1.72 2.37-1.72Z"/></svg>