<?xml version="1.0" encoding="UTF-8"?><svg id="b" xmlns="http://www.w3.org/2000/svg" viewBox="0 0 18 18"><g id="c"><path id="d" d="m0,17.1V.9c0-.5.4-.9.9-.9h0c.5,0,.9.4.9.9v16.2c0,.5-.4.9-.9.9h0c-.5,0-.9-.4-.9-.9Zm8.1,0v-2.45c0-.5.4-.9.9-.9h0c.5,0,.9.4.9.9v2.45c0,.5-.4.9-.9.9h0c-.5,0-.9-.4-.9-.9Zm8.1,0V.9c0-.5.4-.9.9-.9h0c.5,0,.9.4.9.9v16.2c0,.5-.4.9-.9.9h0c-.5,0-.9-.4-.9-.9Zm-8.1-6.88v-2.45c0-.5.4-.9.9-.9h0c.5,0,.9.4.9.9v2.45c0,.5-.4.9-.9.9h0c-.5,0-.9-.4-.9-.9Zm0-6.88V.9c0-.5.4-.9.9-.9h0c.5,0,.9.4.9.9v2.45c0,.5-.4.9-.9.9h0c-.5,0-.9-.4-.9-.9Z" fill="#444" stroke-width="0"/></g></svg>