<?xml version="1.0" encoding="UTF-8"?><svg id="e" xmlns="http://www.w3.org/2000/svg" viewBox="0 0 24 24"><path d="m21.29,13.29c.03-.05.05-.11.08-.16.11-.21.2-.42.28-.64.03-.07.05-.13.08-.2.09-.26.15-.53.2-.8.01-.07.02-.14.03-.21.04-.29.07-.59.07-.9,0,0,0,0,0,0h0c0-.31-.03-.61-.07-.9,0-.07-.02-.13-.03-.2-.05-.28-.12-.55-.2-.81-.02-.06-.05-.12-.07-.18-.09-.23-.18-.46-.3-.67-.02-.04-.04-.09-.07-.13-.14-.25-.3-.49-.47-.71-.03-.04-.06-.08-.09-.12-.19-.23-.38-.45-.6-.65-.21-.19-.47-.39-.75-.58-.03-.02-.06-.04-.09-.06-.49-.31-1.08-.6-1.8-.83-.03,0-.06-.02-.09-.03-.02,0-.04,0-.06,0-1.07-.31-2.39-.47-4.06-.32-1.92.17-3.61.52-5.04,1-.11-.21-.22-.42-.36-.61-.75-1.11-2.2-1.49-3.4-.87-.82.42-1.3.95-2.01,1.78-.37.43-.54.98-.49,1.52.12,1.2.49,2.27,1.15,3.33,0,.02,0,.04,0,.06s0,.04,0,.06c-.66,1.06-1.04,2.13-1.15,3.33-.05.53.13,1.09.5,1.52.7.83,1.19,1.36,2.01,1.78.39.2.8.29,1.21.29.85,0,1.68-.41,2.18-1.16.13-.2.25-.4.36-.61.42.14.87.27,1.34.39.04.83.14,1.71.31,2.79.14.91.84,1.61,1.72,1.73.51.07,1.01.11,1.52.11s1.04-.04,1.56-.11c.86-.12,1.54-.8,1.7-1.67.13-.78.21-1.57.26-2.38.26-.05.51-.11.74-.18,0,0,.01,0,.01,0,.03,0,.05-.02.08-.03.31-.09.59-.2.85-.32.05-.02.11-.05.16-.07.31-.15.59-.3.84-.46,0,0,0,0,0,0,.31-.2.57-.41.8-.61.22-.2.41-.42.6-.64.04-.05.07-.09.11-.14.17-.22.33-.45.46-.7Zm-.84-2.04c-.01.06-.03.11-.04.17-.06.24-.13.48-.22.7-.01.03-.03.07-.04.1-.23.51-.55.97-.97,1.36-.08.07-.16.15-.24.22-.07.06-.14.12-.22.17-.12.09-.24.17-.37.24-.07.04-.14.08-.21.12-.14.08-.29.15-.44.21-.05.02-.1.05-.15.07-.58-1.31-.87-2.73-.87-4.23s.29-2.92.87-4.23c.04.02.09.04.13.06.16.07.32.14.47.23.06.04.13.07.19.11.13.08.26.16.38.25.07.05.14.11.2.16.09.07.17.15.25.23.41.39.73.85.96,1.35.02.04.03.08.04.11.09.22.16.45.22.69.01.06.03.12.04.18.05.28.09.56.09.86,0,0,0,0,0,0,0,.29-.03.58-.09.86Zm-7.05-5.58c.99-.09,1.9-.06,2.72.09-.61,1.45-.93,3-.93,4.64s.32,3.19.93,4.64c-.15.03-.3.05-.45.06-.27.03-.55.05-.84.06-.1,0-.2,0-.3,0-.36,0-.73,0-1.12-.04-.46-.04-.91-.1-1.35-.16-.1-.01-.2-.03-.3-.05-.41-.06-.8-.14-1.18-.22-2.22-.48-3.94-1.26-4.94-2.23-.01,0-.02-.02-.03-.03-.1-.1-.19-.21-.28-.31-.04-.04-.07-.09-.1-.13-.07-.1-.14-.19-.2-.29-.06-.11-.12-.22-.17-.33-.04-.08-.07-.17-.1-.26-.04-.14-.08-.28-.09-.43-.01-.09-.03-.19-.03-.28s.02-.19.03-.28c.02-.15.05-.29.09-.43.03-.1.07-.19.11-.28.05-.1.09-.2.15-.3.06-.1.13-.2.21-.3.03-.04.06-.08.09-.12.09-.11.19-.22.29-.32,0,0,0,0,0,0,1.4-1.36,4.19-2.35,7.8-2.67Zm-9.65,2.55c-.15-.44-.24-.89-.29-1.36-.01-.13.04-.28.15-.41.65-.77,1-1.14,1.55-1.42.16-.08.34-.12.52-.12.37,0,.73.18.95.5.07.11.14.22.21.34-.02.01-.04.02-.06.03-.33.16-.64.32-.93.5-.02.01-.03.02-.05.04-.24.15-.46.31-.67.47-.09.07-.18.15-.27.22-.13.11-.25.22-.36.34-.08.08-.17.16-.24.25-.16.18-.3.36-.42.55-.02.03-.04.05-.06.07Zm3.08,6.83c-.06.12-.13.23-.21.34-.31.47-.96.63-1.46.37-.55-.29-.9-.65-1.55-1.42-.11-.12-.16-.27-.15-.41.05-.48.14-.93.29-1.36.02.02.04.05.05.07.13.19.27.38.43.56.07.08.15.16.23.24.12.12.24.24.38.35.09.07.17.15.26.22.22.17.45.33.7.49,0,0,.02.01.03.02.29.18.61.34.94.5.02,0,.03.02.05.03Zm8.3,1.61c-.05.65-.12,1.29-.23,1.93-.04.23-.21.41-.43.44-.89.13-1.76.13-2.65,0-.23-.03-.41-.23-.45-.48-.13-.84-.22-1.56-.27-2.22.69.12,1.42.22,2.18.29.38.03.74.05,1.1.05.04,0,.09,0,.13,0,.1,0,.18,0,.27-.01.12,0,.24,0,.35,0Z" fill="#444" stroke-width="0"/><path d="m6.78,11.09h2.46c.41,0,.75-.34.75-.75s-.34-.75-.75-.75h-2.46c-.41,0-.75.34-.75.75s.34.75.75.75Z" fill="#444" stroke-width="0"/></svg>