<svg xmlns="http://www.w3.org/2000/svg" viewBox="0 0 24 24"><g fill="#444"><path d="M4.64 11.96c.07 0 .15-.02.21-.06.05-.03.09-.07.13-.11.03-.04.06-.1.07-.15s.02-.11.01-.17c0-.06-.03-.11-.05-.16-.72-1.24-.77-2.27-.32-3.04.62-1.07 2.33-1.46 4.58-1.06.11.02.23 0 .32-.07.09-.06.16-.16.18-.27.01-.06 0-.11 0-.17a.3.3 0 0 0-.07-.15.35.35 0 0 0-.12-.12.4.4 0 0 0-.16-.06c-1.27-.23-2.44-.23-3.37.01-.97.25-1.7.75-2.11 1.46-.61 1.05-.55 2.38.32 3.9.04.07.09.12.16.16s.14.06.22.06m11.95-4.84c1.4.02 2.29.4 2.73 1.17.62 1.06.11 2.73-1.36 4.46-.05.06-.09.14-.1.22s0 .16.04.24c.03.07.09.14.16.18s.15.07.23.07c.06 0 .12-.01.18-.04s.11-.06.15-.11c.83-.98 1.41-1.98 1.66-2.9.27-.96.19-1.84-.22-2.54-.6-1.03-1.75-1.57-3.46-1.6a.423.423 0 0 0-.43.42.423.423 0 0 0 .42.43m-1.52 11.8a.4.4 0 0 0-.32-.05c-.11.03-.2.1-.26.19-.71 1.18-1.59 1.83-2.47 1.83-1.24 0-2.44-1.27-3.21-3.41a.43.43 0 0 0-.22-.24.47.47 0 0 0-.33-.02.4.4 0 0 0-.14.09.4.4 0 0 0-.14.29c0 .06 0 .11.02.17.43 1.21 1.02 2.21 1.7 2.89.7.71 1.5 1.09 2.32 1.09 1.19 0 2.33-.8 3.2-2.24.03-.05.05-.1.06-.16v-.17c0-.06-.04-.11-.07-.15-.03-.05-.08-.08-.12-.11Zm4.57-3.32c-.23 0-.46.05-.66.16s-.38.26-.51.45-.21.41-.23.64 0 .46.1.67c-1.82.85-5.21.21-8.35-1.59-1.43-.82-2.7-1.82-3.68-2.89-.08-.08-.18-.13-.3-.14s-.22.03-.31.11a.4.4 0 0 0-.14.29c0 .06 0 .11.03.17.02.05.05.1.09.14 1.03 1.13 2.38 2.19 3.89 3.05 1.75 1.01 3.58 1.68 5.28 1.95.5.08 1.01.12 1.52.13 1.01 0 1.87-.19 2.54-.56.18.11.39.18.61.2q.33.03.63-.09c.2-.08.38-.2.53-.36s.25-.35.31-.56.07-.43.03-.64-.13-.41-.26-.59c-.13-.17-.3-.31-.49-.41s-.41-.15-.62-.14Zm0 1.94c-.12 0-.24-.04-.34-.12a.5.5 0 0 0-.1-.1.48.48 0 0 1-.11-.34c0-.12.05-.24.12-.34a.56.56 0 0 1 .67-.15c.11.05.2.15.25.26s.07.24.04.36-.1.23-.19.31c-.1.08-.22.12-.34.12"/><path d="M4.44 15.6c.02-.92.54-2.04 1.46-3.18 1.01-1.24 2.47-2.44 4.1-3.38 1.45-.83 2.84-1.39 4.27-1.69.06-.01.11-.03.16-.06q.075-.045.12-.12c.03-.05.05-.1.06-.16s0-.11 0-.17-.03-.11-.07-.15a.35.35 0 0 0-.12-.12.4.4 0 0 0-.16-.06h-.17c-1.52.32-2.99.91-4.51 1.79-3.66 2.1-6.11 5.18-5.99 7.53-.28.18-.48.46-.58.78-.09.32-.07.66.07.97.14.3.38.55.68.69s.64.17.97.09c.32-.09.6-.29.79-.56a1.39 1.39 0 0 0-.19-1.81 1.42 1.42 0 0 0-.89-.39m-.08 1.94a.53.53 0 0 1-.3-.09.6.6 0 0 1-.2-.24.55.55 0 0 1-.03-.31c.02-.11.07-.2.15-.28s.17-.13.28-.15.21 0 .31.03c.1.04.18.11.24.2q.09.135.09.3c0 .14-.06.28-.16.39-.1.1-.24.16-.39.16Z"/><path d="M12.01 5.06a1.41 1.41 0 0 0 1.15-.6c.78.51 1.48 1.52 1.99 2.88.57 1.5.86 3.28.86 5.16 0 1.62-.23 3.15-.65 4.51-.02.05-.02.11-.02.17s.02.11.05.16.06.09.11.13c.04.04.09.06.15.08.11.03.23.02.33-.03s.18-.14.21-.25c.45-1.44.69-3.06.69-4.76 0-2.05-.34-3.99-.98-5.61-.63-1.59-1.48-2.71-2.49-3.27 0-.28-.1-.54-.26-.77s-.38-.4-.64-.5-.54-.12-.81-.06-.52.2-.71.39a1.41 1.41 0 0 0-.28 1.53c.11.25.29.47.52.62s.5.23.78.23Zm0-1.94q.165 0 .3.09c.09.06.16.15.2.24.04.1.05.21.03.31-.02.11-.07.2-.15.28s-.17.13-.28.15-.21 0-.31-.03a.52.52 0 0 1-.24-.2.53.53 0 0 1-.09-.3c0-.14.06-.28.16-.39.1-.1.24-.16.39-.16Zm-.23 8.34c-.26.05-.48.2-.64.41-.15.21-.22.47-.2.73.03.26.15.5.35.68.19.17.45.27.71.27.08 0 .15 0 .22-.02.14-.03.27-.08.38-.16.12-.08.22-.18.29-.3q.12-.18.15-.39c.03-.14.02-.28 0-.42-.03-.14-.09-.27-.17-.38-.08-.12-.18-.21-.3-.29a.9.9 0 0 0-.39-.15c-.14-.02-.28-.02-.42.01Z"/></g></svg>