<svg xmlns="http://www.w3.org/2000/svg" viewBox="0 0 24 24"><path fill="#444" d="M12 21.64c-4.27 0-7.75-3.36-7.75-7.5 0-2.53 1.28-4.88 3.43-6.28.3-.2.67-.22 1-.07.33.16.56.48.59.85.04.4.13.72.25.98.15-2.04.81-5.35 3.4-7.1.3-.2.67-.23 1-.07s.56.49.59.86c.14 1.71 1.12 2.87 2.26 4.21 1.39 1.63 2.97 3.49 2.97 6.62 0 4.14-3.48 7.5-7.75 7.5ZM7.91 9.55a5.99 5.99 0 0 0-2.16 4.59c0 3.31 2.8 6 6.25 6s6.25-2.69 6.25-6c0-2.58-1.27-4.07-2.61-5.65-1.04-1.22-2.11-2.48-2.49-4.22-2.29 2.2-2.18 6.38-2.16 6.88l.02.42-.39.32a.83.83 0 0 1-.82.06c-.47-.23-1.5-.87-1.89-2.4"/></svg>