<?xml version="1.0" encoding="UTF-8"?><svg id="b" xmlns="http://www.w3.org/2000/svg" viewBox="0 0 19 11.56"><g id="c"><path id="d" d="m19,4.5c0,.88-.5,1.68-1.51,2.42-.78.56-1.75,1.02-2.91,1.37t-.02.01c-.06.02-.13.04-.2.05-.03.01-.06.01-.09.01-.42,0-.75-.33-.75-.75,0-.3.18-.57.45-.69h.01c1.05-.32,1.88-.68,2.48-1.11.69-.49,1.04-.93,1.04-1.31,0-.56-.71-1.19-2.14-1.92-1.42-.72-3.38-1.08-5.86-1.08s-4.44.36-5.86,1.08c-1.43.73-2.14,1.36-2.14,1.92,0,.44.49.94,1.47,1.52.98.57,2.28.99,3.91,1.25l-1.14-1.13c-.29-.3-.29-.77,0-1.06.14-.15.34-.22.53-.22s.39.07.53.22l2.47,2.47c.36.37.36.95,0,1.31l-2.47,2.48c-.29.29-.77.29-1.06,0h0c-.29-.3-.29-.77-.01-1.06l1.29-1.31c.06-.06.02-.15-.05-.16-1.96-.28-3.59-.8-4.92-1.58-1.37-.79-2.05-1.7-2.05-2.73,0-1.23.92-2.29,2.75-3.17,1.84-.89,4.09-1.33,6.75-1.33s4.91.44,6.75,1.33c1.83.88,2.75,1.94,2.75,3.17Z" fill="#444" stroke-width="0"/></g></svg>