<svg xmlns="http://www.w3.org/2000/svg" viewBox="0 0 24 24"><path d="M6 3.78a.8.8 0 0 0-.27.18L2.88 6.81c-.08.07-.14.16-.18.26-.09.21-.09.44 0 .64q.06.15.18.27l2.85 2.85c.11.11.26.19.42.23.16.03.33.01.48-.05s.28-.17.37-.31c.09-.13.14-.29.14-.45V8.22h13.42c.22 0 .43-.09.58-.25.31-.3.31-.85 0-1.16a.83.83 0 0 0-.58-.24H7.14V4.54c0-.16-.05-.32-.14-.46a.86.86 0 0 0-.37-.31c-.1-.03-.21-.05-.31-.05a.8.8 0 0 0-.32.06m11.01 9.52c-.1.13-.14.29-.14.46v2.02H3.45a.88.88 0 0 0-.59.25 1 1 0 0 0-.18.26.85.85 0 0 0 .18.9c.16.16.36.24.59.24h13.42v2.03c0 .16.05.32.14.45.09.14.22.24.37.31.15.06.31.08.47.05a.8.8 0 0 0 .43-.23c3.06-3.06 3.09-3.1 3.09-3.43a.95.95 0 0 0-.24-.59l-2.85-2.85a1 1 0 0 0-.27-.17.7.7 0 0 0-.32-.06.66.66 0 0 0-.31.05.86.86 0 0 0-.37.31"/></svg>