<svg xmlns="http://www.w3.org/2000/svg" viewBox="0 0 18.71 19.12"><g fill="#444"><path d="M13.8 1.93V.75a.749.749 0 1 0-1.5 0v.93c-.88-.1-1.84-.15-2.94-.15s-2.06.05-2.93.15V.75a.749.749 0 1 0-1.5 0v1.18C1.21 2.78 0 5.17 0 10.33c0 6.33 1.81 8.48 7.86 8.76.37.02.75.03 1.15.03.37-.02.67-.3.7-.67v-.15c-.03-.39-.39-.68-.78-.68h-.12l-.04-.01c-.23 0-.44 0-.65-.01-5.4-.18-6.62-1.68-6.62-7.27 0-.93.04-1.73.12-2.44a.14.14 0 0 1 .14-.12h15.2c.07 0 .13.05.14.12.06.53.1 1.11.11 1.76v.08c.01.41.34.74.75.74s.75-.34.75-.75v-.07c-.11-4.69-1.36-6.91-4.91-7.72m2.79 4.34H2.13c-.09 0-.16-.1-.13-.19.48-1.41 1.38-2.21 2.93-2.63v.36a.749.749 0 1 0 1.5 0v-.64c.84-.1 1.8-.14 2.93-.14s2.1.04 2.94.14v.64a.749.749 0 1 0 1.5 0v-.36c1.55.42 2.44 1.22 2.92 2.63.03.09-.04.19-.13.19"/><path d="M18.47 13.29c.29-.29.29-.77 0-1.07s-.77-.29-1.07 0l-2.22 2.22-2.22-2.22a.767.767 0 0 0-1.07 0c-.3.29-.29.77 0 1.07l2.22 2.22-2.22 2.22c-.29.29-.29.77 0 1.07.15.15.34.22.53.22s.39-.07.53-.22l2.22-2.22 2.22 2.22c.15.15.34.22.53.22s.39-.07.53-.22c.29-.29.29-.77 0-1.07l-2.22-2.22h.02zm-8.95-3.4c-.43 0-.79.35-.79.79s.35.79.8.79.79-.35.79-.79-.35-.79-.8-.79m-4.06 0c-.43 0-.79.35-.79.79s.35.79.8.79.79-.35.79-.79-.35-.79-.8-.79m0 3.55c-.43 0-.79.35-.79.79s.35.79.8.79.79-.35.79-.79-.35-.79-.8-.79"/></g></svg>