<svg xmlns="http://www.w3.org/2000/svg" viewBox="0 0 24 24"><path d="M5.86 12.83H7.3c.29 0 .53.24.53.53v.61c0 .29-.24.53-.53.53H5.86c-.29 0-.53-.24-.53-.53v-.61c0-.29.24-.53.53-.53m4.17 1.67h1.44c.29 0 .53-.24.53-.53v-.61c0-.29-.24-.53-.53-.53h-1.44c-.29 0-.53.24-.53.53v.61c0 .29.24.53.53.53m-4.17 3.33H7.3c.29 0 .53-.24.53-.53v-.61c0-.29-.24-.53-.53-.53H5.86c-.29 0-.53.24-.53.53v.61c0 .29.24.53.53.53m4.17 0h1.44c.29 0 .53-.24.53-.53v-.61c0-.29-.24-.53-.53-.53h-1.44c-.29 0-.53.24-.53.53v.61c0 .29.24.53.53.53m-4.17-10H7.3c.29 0 .53-.24.53-.53v-.61c0-.29-.24-.53-.53-.53H5.86c-.29 0-.53.24-.53.53v.61c0 .29.24.53.53.53m4.17 0h1.44c.29 0 .53-.24.53-.53v-.61c0-.29-.24-.53-.53-.53h-1.44c-.29 0-.53.24-.53.53v.61c0 .29.24.53.53.53m-4.17 3.33H7.3c.29 0 .53-.24.53-.53v-.61c0-.29-.24-.53-.53-.53H5.86c-.29 0-.53.24-.53.53v.61c0 .29.24.53.53.53m4.17 0h1.44c.29 0 .53-.24.53-.53v-.61c0-.29-.24-.53-.53-.53h-1.44c-.29 0-.53.24-.53.53v.61c0 .29.24.53.53.53M22 8.66v12.7c0 .35-.29.64-.64.64H2.64c-.35 0-.64-.29-.64-.64V4.5A2.5 2.5 0 0 1 4.5 2h8.33a2.5 2.5 0 0 1 2.5 2.5v1.67h4.17a2.5 2.5 0 0 1 2.5 2.5Zm-8.33-4.17c0-.46-.37-.83-.83-.83H4.5c-.46 0-.83.37-.83.83v15.83h10V4.5Zm6.67 4.17c0-.46-.37-.83-.83-.83h-4.17v12.5h5zm-2.81 5.83h.61c.29 0 .53-.24.53-.53v-.61c0-.29-.24-.53-.53-.53h-.61c-.29 0-.53.24-.53.53v.61c0 .29.24.53.53.53m0 3.33h.61c.29 0 .53-.24.53-.53v-.61c0-.29-.24-.53-.53-.53h-.61c-.29 0-.53.24-.53.53v.61c0 .29.24.53.53.53m0-6.67h.61c.29 0 .53-.24.53-.53v-.61c0-.29-.24-.53-.53-.53h-.61c-.29 0-.53.24-.53.53v.61c0 .29.24.53.53.53"/></svg>