<?xml version="1.0" encoding="UTF-8"?><svg id="b" xmlns="http://www.w3.org/2000/svg" viewBox="0 0 19 19"><g id="c"><path id="d" d="m8.5,13.33l5.77-5.77c.29-.29.29-.76,0-1.05h0c-.29-.29-.76-.29-1.05,0l-5,5c-.08.08-.21.08-.29,0l-2.18-2.18c-.29-.29-.76-.29-1.05,0h0c-.29.29-.29.76,0,1.05l2.95,2.95c.23.23.61.23.85,0Zm1,5.67c-1.31,0-2.55-.25-3.71-.75-1.16-.5-2.16-1.18-3.02-2.03-.86-.85-1.53-1.86-2.03-3.02-.5-1.16-.75-2.39-.75-3.7s.25-2.55.75-3.71c.5-1.16,1.18-2.16,2.03-3.02s1.86-1.53,3.02-2.03c1.16-.5,2.39-.75,3.7-.75s2.55.25,3.71.75,2.16,1.18,3.02,2.03,1.53,1.86,2.03,3.02c.5,1.16.75,2.39.75,3.7s-.25,2.55-.75,3.71c-.5,1.16-1.18,2.16-2.03,3.02-.85.86-1.86,1.53-3.02,2.03-1.16.5-2.39.75-3.7.75Zm0-1.5c2.23,0,4.13-.78,5.68-2.33s2.33-3.44,2.33-5.68-.78-4.13-2.33-5.68-3.44-2.33-5.68-2.33-4.13.78-5.68,2.33-2.33,3.44-2.33,5.68.78,4.13,2.33,5.68,3.44,2.33,5.68,2.33Z" fill="#444" stroke-width="0"/></g></svg>