<?xml version="1.0" encoding="UTF-8"?><svg id="c" xmlns="http://www.w3.org/2000/svg" viewBox="0 0 24 24"><path d="m10.84,13.4v-.83c0-1.72-1.4-3.13-3.13-3.13h-.83c-.64,0-1.16.52-1.16,1.16v.44c0,1.94,1.58,3.51,3.51,3.51h.44c.64,0,1.16-.52,1.16-1.16Zm-1.4-.23h-.21c-1.17,0-2.12-.95-2.12-2.12v-.21h.59c.95,0,1.73.78,1.73,1.73v.59Z" stroke-width="0"/><path d="m17.94,9.78c-.34-.34-.76-.34-1.29-.34h-.36c-1.72,0-3.13,1.4-3.13,3.13v.36c0,.53,0,.95.34,1.29s.76.34,1.29.34h.36c1.72,0,3.13-1.4,3.13-3.13v-.36c0-.53,0-.95-.34-1.29Zm-1.05,1.65c0,.95-.78,1.73-1.73,1.73h-.36c-.08,0-.16,0-.23,0,0-.07,0-.15,0-.23v-.36c0-.95.78-1.73,1.73-1.73h.36c.08,0,.16,0,.23,0,0,.07,0,.15,0,.23v.36Z" stroke-width="0"/><path d="m12.93,16.88h-1.86c-.39,0-.7.31-.7.7s.31.7.7.7h1.86c.39,0,.7-.31.7-.7s-.31-.7-.7-.7Z" stroke-width="0"/><path d="m12,2C6.57,2,2.93,5.65,2.93,11.07s5.82,10.93,9.07,10.93,9.07-5.51,9.07-10.93S17.51,2,12,2Zm0,18.6c-2.41,0-7.67-4.79-7.67-9.53s3.01-7.67,7.67-7.67,7.67,2.94,7.67,7.67-5.26,9.53-7.67,9.53Z" stroke-width="0"/></svg>