<?xml version="1.0" encoding="UTF-8"?><svg id="d" xmlns="http://www.w3.org/2000/svg" viewBox="0 0 24 24"><path d="m19.55,5.78c-.06-.06-.06-.15,0-.21l2.23-2.23c.29-.29.29-.77,0-1.06s-.77-.29-1.06,0l-2.24,2.23c-.06.06-.15.06-.2,0l-2.24-2.23c-.29-.29-.77-.29-1.06,0s-.29.77,0,1.06l2.23,2.23c.06.06.06.15,0,.21l-2.23,2.23c-.29.29-.29.77,0,1.06.15.15.34.22.53.22s.38-.07.53-.22l2.24-2.23c.06-.06.15-.06.2,0l2.24,2.23c.15.15.34.22.53.22s.38-.07.53-.22c.29-.29.29-.77,0-1.06l-2.23-2.23Z" fill="#444" stroke-width="0"/><path d="m15.42,13.38c-.9.44-1.61.78-3.62-1.22-2.01-2-1.66-2.71-1.23-3.6.73-1.49,1.03-2.84-2.19-5.48-.78-.64-1.68-.89-2.57-.72-1.88.35-3.17,2.38-3.16,2.38-1.01,1.42-1.71,4.8,5.04,11.52,4.51,4.5,7.52,5.68,9.43,5.68.95,0,1.62-.29,2.07-.61.02-.01,2.1-1.29,2.45-3.21.16-.89-.09-1.78-.73-2.56-2.65-3.2-4-2.9-5.49-2.18Zm4.75,4.44c-.17,1.05-1.42,2.01-1.79,2.24-1.34.95-4.57.17-9.63-4.87C3.69,10.16,2.91,6.94,3.9,5.55c.2-.32,1.16-1.55,2.21-1.73.08-.01.16-.02.24-.02.37,0,.72.14,1.08.43,2.56,2.1,2.24,2.75,1.79,3.66-.66,1.35-1.04,2.77,1.52,5.32,2.56,2.55,3.98,2.17,5.33,1.51.91-.44,1.57-.76,3.68,1.78.35.43.49.86.42,1.31Z" fill="#444" stroke-width="0"/></svg>