<svg xmlns="http://www.w3.org/2000/svg" viewBox="0 0 24 24"><path d="M20.71 15.17c-.44 0-.79.35-.79.79v1.58a2.38 2.38 0 0 1-2.38 2.38h-1.58c-.44 0-.79.35-.79.79s.35.79.79.79h1.58c2.18 0 3.96-1.77 3.96-3.96v-1.58c0-.44-.35-.79-.79-.79M3.29 8.83c.44 0 .79-.35.79-.79V6.46a2.38 2.38 0 0 1 2.38-2.38h1.58c.44 0 .79-.35.79-.79s-.35-.79-.79-.79H6.46C4.28 2.5 2.5 4.27 2.5 6.46v1.58c0 .44.35.79.79.79m4.75 11.09H6.46a2.38 2.38 0 0 1-2.38-2.38v-1.58c0-.44-.35-.79-.79-.79s-.79.35-.79.79v1.58c0 2.19 1.77 3.96 3.96 3.96h1.58c.44 0 .79-.35.79-.79s-.35-.79-.79-.79m9.5-17.42h-1.58c-.44 0-.79.35-.79.79s.35.79.79.79h1.58a2.38 2.38 0 0 1 2.38 2.38v1.58c0 .44.35.79.79.79s.79-.35.79-.79V6.46c0-2.19-1.77-3.96-3.96-3.96m-5.56 8.85h.13c1.68-.06 3-1.42 3.01-3.11 0-1.72-1.4-3.12-3.12-3.12s-3.12 1.4-3.12 3.12 1.32 3.06 3.1 3.11M12 6.62c.89 0 1.62.73 1.62 1.62 0 .87-.67 1.57-1.52 1.62h-.16c-.87-.03-1.55-.74-1.55-1.62s.73-1.62 1.62-1.62Zm4.61 9.07c0-.87-.5-1.7-1.36-2.28-1.81-1.21-4.66-1.21-6.49 0-.87.58-1.36 1.41-1.36 2.29 0 .87.5 1.7 1.36 2.28.91.61 2.08.91 3.25.91s2.34-.3 3.25-.91c.87-.58 1.36-1.41 1.36-2.29Zm-2.19 1.04c-1.31.88-3.52.88-4.83 0-.45-.3-.69-.66-.69-1.03s.25-.74.69-1.04c1.31-.87 3.52-.87 4.83 0 .45.3.69.66.69 1.03s-.25.74-.69 1.04"/></svg>