<svg xmlns="http://www.w3.org/2000/svg" width="24" height="24" viewBox="0 0 24 24"><g fill="#707575"><path d="M19.14 14.35c-.15-.72-.58-1.24-.99-1.66a.4.4 0 0 0-.29-.13c-.12 0-.23.05-.32.15-.36.38-.75.86-.92 1.47-.15.53 0 1 .41 1.36.25.21.53.32.82.32.19 0 .38-.04.57-.13.46-.22.72-.61.75-1.13v-.1c0-.05 0-.1-.02-.14Zm-.93.42c-.06.1-.15.16-.27.19-.11.02-.23 0-.32-.06a.43.43 0 0 1-.18-.29c0-.05 0-.12.02-.18.07-.27.22-.5.4-.73.18.24.33.47.4.73.03.12.02.24-.04.34ZM6.36 9.38h-.91c-.15 0-.28.07-.38.19-.09.11-.13.25-.11.39.02.31.21.51.48.52h.92c.15 0 .29-.08.38-.2a.58.58 0 0 0 .11-.39c-.02-.31-.22-.52-.49-.52Z"/><path d="M17.87 6.74h-6.02v-.26c0-.36-.28-.66-.62-.66s-.62.3-.62.66v.26H9.09v-.26c0-.36-.28-.66-.62-.66s-.62.3-.62.66v.26H6.13C3.85 6.74 2 8.65 2 10.99v3.72c0 2.35 1.85 4.25 4.13 4.25h11.74c2.28 0 4.13-1.91 4.13-4.25v-3.72c0-2.35-1.85-4.25-4.13-4.25m-7.26 1.44v1.34H9.09V8.18zm-1.52 3.69v-1.03h1.52v1.03zm1.52 1.32v1.03H9.09v-1.03zm-1.52 2.35h1.52v1.16H9.09zm-5.69-.82V11c0-1.55 1.22-2.81 2.73-2.81h1.72v9.29s0 .03.01.05H6.13c-1.5 0-2.73-1.26-2.73-2.81m17.19 0c0 1.55-1.22 2.81-2.73 2.81h-6.03s.01-.03.01-.05V8.19h6.02c1.5 0 2.73 1.26 2.73 2.81z"/></g></svg>