<svg xmlns="http://www.w3.org/2000/svg" viewBox="0 0 24 24"><path fill="#444" d="M20.06 9.54c-1.39-.38-3.32-.82-3.97-.97-.36-.38-1.25-1.32-1.96-2.01-.67-.53-1.39-.8-2.13-.8H5.53c-.76 0-1.49.44-1.97 1.24L2.23 9.74c-.15.43-.23.89-.23 1.34v3.66c0 .96.7 1.67 1.67 1.67H4.9c.33 1.06 1.31 1.83 2.47 1.83s2.15-.77 2.47-1.83h4.3c.33 1.06 1.31 1.83 2.47 1.83s2.15-.77 2.47-1.83h1.23c.97 0 1.67-.7 1.67-1.67v-2.75c0-1.13-.84-2.19-1.94-2.46ZM7.37 16.75c-.61 0-1.1-.48-1.1-1.08s.49-1.08 1.1-1.08 1.1.49 1.1 1.08-.49 1.08-1.1 1.08m9.25 0c-.61 0-1.1-.48-1.1-1.08s.49-1.08 1.1-1.08 1.1.49 1.1 1.08-.49 1.08-1.1 1.08m3.88-2c0 .13-.02.17-.17.17H19.1c-.33-1.06-1.31-1.83-2.47-1.83s-2.15.78-2.47 1.83h-4.3c-.33-1.06-1.31-1.83-2.47-1.83s-2.15.78-2.47 1.83H3.69c-.15 0-.17-.04-.17-.17v-3.66c0-.29.05-.58.11-.77l1.26-2.6c.07-.11.31-.46.65-.46h6.47c.4 0 .79.16 1.14.42.82.82 2.01 2.08 2.02 2.09.1.11.24.19.39.22.02 0 2.5.55 4.14 1 .39.1.82.53.82 1.01v2.75Z"/></svg>