<?xml version="1.0" encoding="UTF-8"?><svg id="b" xmlns="http://www.w3.org/2000/svg" viewBox="0 0 24 24"><path d="m21.47,13.14c-.09-.92-.27-1.88-1.04-2.5-.24-.19-.37-.48-.44-.78l-.25-1.17h.58c.41,0,.75-.34.75-.75s-.34-.75-.75-.75h-.9l-.34-1.62c-.33-1.55-1.04-3.13-3.84-3.13h-6.49c-2.8,0-3.51,1.58-3.84,3.13l-.34,1.62h-.9c-.41,0-.75.34-.75.75s.34.75.75.75h.58l-.25,1.17c-.06.3-.2.59-.44.78-.77.62-.96,1.58-1.04,2.5l-.52,5.6c-.07.71.17,1.43.66,1.96.5.55,1.22.86,1.97.86h1.74c1.54,0,1.84-.91,2.02-1.46l.19-.55c.21-.62.25-.75,1.05-.75h4.74c.79,0,.81.07,1.05.75l.19.55c.18.54.49,1.46,2.02,1.46h1.74c.75,0,1.47-.31,1.97-.86.49-.53.73-1.25.66-1.96l-.52-5.6Zm-15.95-3.19l.86-4.07c.25-1.17.55-1.94,2.38-1.94h2.5v.49h-.64c-.41,0-.75.34-.75.75s.34.75.75.75h2.78c.41,0,.75-.34.75-.75s-.34-.75-.75-.75h-.64v-.49h2.5c1.83,0,2.13.77,2.37,1.94l.86,4.07H5.52Zm14.97,8.93c.03.3-.07.58-.27.81-.22.24-.53.37-.86.37h-1.74q-.46,0-.6-.44l-.19-.57c-.27-.78-.6-1.75-2.46-1.75h-4.74c-1.87,0-2.23,1.07-2.47,1.77l-.19.56q-.14.43-.6.43h-1.74c-.33,0-.64-.14-.86-.37-.21-.23-.3-.51-.27-.81l.52-5.6c.11-1.14.17-1.83,2.07-1.83h11.8c1.9,0,1.97.69,2.07,1.83l.52,5.6h0Z" fill="#444" stroke-width="0"/><path d="m9.22,13.63h-2.78c-.41,0-.75.34-.75.75s.34.75.75.75h2.78c.41,0,.75-.34.75-.75s-.34-.75-.75-.75Z" fill="#444" stroke-width="0"/><path d="m17.55,13.63h-2.78c-.41,0-.75.34-.75.75s.34.75.75.75h2.78c.41,0,.75-.34.75-.75s-.34-.75-.75-.75Z" fill="#444" stroke-width="0"/></svg>