<svg xmlns="http://www.w3.org/2000/svg" viewBox="0 0 24 24"><g fill="#444"><path d="M14.85 14.16c-.29-.3-.76-.3-1.06-.02l-1.66 1.61c-.07.07-.19.07-.27 0l-1.66-1.61a.746.746 0 0 0-1.06.02c-.29.3-.28.77.02 1.06l1.61 1.56c.08.08.08.2 0 .28l-1.61 1.56c-.3.29-.31.76-.02 1.06s.76.3 1.06.02l1.66-1.61c.07-.07.19-.07.27 0l1.66 1.61c.15.14.33.21.52.21s.39-.08.54-.23c.29-.3.28-.77-.02-1.06l-1.61-1.56a.193.193 0 0 1 0-.28l1.61-1.56c.3-.29.31-.76.02-1.06m-9.38-1.81c-.3.29-.31.76-.02 1.06.15.15.34.23.54.23s.38-.07.52-.21c3.38-3.28 7.79-3.28 10.97-.02.29.3.76.3 1.06.01s.3-.76.02-1.06c-3.8-3.91-9.06-3.92-13.08-.02Z"/><path d="M21.72 7.82c-6.08-4.98-13.36-4.98-19.44 0-.32.26-.37.73-.11 1.06.26.32.74.37 1.05.11 5.58-4.56 11.97-4.56 17.55 0a.744.744 0 0 0 1.05-.1.75.75 0 0 0-.11-1.06Z"/></g></svg>