<?xml version="1.0" encoding="UTF-8"?><svg id="c" xmlns="http://www.w3.org/2000/svg" viewBox="0 0 24 24"><g id="d"><g id="e"><path d="m14.4,12.19h-5.93c-.41,0-.75-.34-.75-.75s.34-.75.75-.75h5.93c.41,0,.75.34.75.75s-.34.75-.75.75Z" fill="#707575" stroke-width="0"/></g><g id="f"><path d="m21,21.75c-.19,0-.38-.07-.53-.22l-3.22-3.22c-.29-.29-.29-.77,0-1.06s.77-.29,1.06,0l3.22,3.22c.29.29.29.77,0,1.06-.15.15-.34.22-.53.22Z" fill="#707575" stroke-width="0"/></g><g id="g"><path d="m11.46,20.67c-5.85,0-9.21-3.36-9.21-9.21S5.61,2.25,11.46,2.25s9.21,3.36,9.21,9.21-3.36,9.21-9.21,9.21Zm0-16.92c-4.97,0-7.71,2.74-7.71,7.71s2.74,7.71,7.71,7.71,7.71-2.74,7.71-7.71-2.74-7.71-7.71-7.71Z" fill="#707575" stroke-width="0"/></g></g></svg>