<svg xmlns="http://www.w3.org/2000/svg" viewBox="0 0 24 24"><path fill="#5e656d" d="M19.52 7.23h.01l-3.39-3.4a.483.483 0 0 0-.67 0l-.39.39c-.18.18-.18.48 0 .67l1.78 1.78c-1.05.4-1.76 1.47-1.58 2.71.16 1.1 1.1 1.99 2.2 2.11.47.05.89-.03 1.27-.19v7.21c0 .55-.45 1-1 1s-1-.45-1-1v-4.5c0-1.1-.9-2-2-2h-1v-7c0-1.1-.9-2-2-2h-6c-1.1 0-2 .9-2 2v16h10v-7.5h1.5v4.86c0 1.31.94 2.5 2.24 2.63a2.5 2.5 0 0 0 2.76-2.49v-9.5c0-.69-.28-1.32-.73-1.77ZM11.56 19H5.95a.19.19 0 0 1-.19-.19V12.2c0-.11.09-.19.19-.19h5.61c.11 0 .19.09.19.19v6.61c0 .11-.09.19-.19.19m0-9H5.95a.19.19 0 0 1-.19-.19V5.2c0-.11.09-.19.19-.19h5.61c.11 0 .19.09.19.19v4.61c0 .11-.09.19-.19.19m6.19 0c-.55 0-1-.45-1-1s.45-1 1-1 1 .45 1 1-.45 1-1 1"/></svg>