<svg xmlns="http://www.w3.org/2000/svg" viewBox="0 0 24 24"><path fill="#444" d="M12 4.9h-.26v-.18c0-.35-.28-.62-.62-.62s-.62.28-.62.62v.18c-.52 0-1 .01-1.47.03v-.21c0-.35-.28-.62-.62-.62s-.62.28-.62.62v.27c-4.13.29-5.77 1.6-5.77 7.41 0 7.5 2.72 7.5 10 7.5s10 0 10-7.5-2.72-7.5-10-7.5Zm-1.51 1.5v1.67H9.02V6.42c.45-.01.94-.02 1.47-.02m-1.47 6.22v-1.01h1.47v1.01zm1.47 1.25v1.01H9.02v-1.01zm-1.47-3.51V9.31h1.47v1.05zm0 5.77h1.47v1.31H9.02zM3.5 12.39c0-4.59.67-5.66 4.27-5.92v11.84c-3.6-.25-4.27-1.33-4.27-5.92m8.5 6h-.26V6.4H12c7.37 0 8.5 0 8.5 6s-1.13 6-8.5 6Z"/><path fill="#444" d="M19.15 15.35c-.15-.72-.58-1.24-.99-1.66a.36.36 0 0 0-.29-.13c-.12 0-.23.05-.32.15-.36.38-.75.86-.92 1.47-.15.53 0 1 .41 1.36.25.21.53.32.82.32.19 0 .38-.04.57-.13.46-.22.72-.61.75-1.13v-.1c0-.05 0-.1-.02-.14h-.01Zm-.92.42h-.01c-.06.1-.15.16-.27.19-.11.02-.23 0-.32-.06a.45.45 0 0 1-.18-.29c0-.05 0-.12.02-.18.07-.27.22-.5.4-.73.18.24.33.47.4.73.03.12.02.24-.04.34M6.52 7.9h-.91c-.15 0-.28.07-.38.19-.09.11-.13.25-.11.39.02.31.21.51.48.52h.92c.15 0 .29-.08.38-.2.08-.11.12-.25.11-.39-.02-.31-.22-.52-.49-.52Z"/></svg>