<svg xmlns="http://www.w3.org/2000/svg" viewBox="0 0 24 24"><path fill="#444" d="M21.3 9.91c-.38 0-.7-.32-.7-.7V7.35c0-2.4-1.55-3.95-3.95-3.95h-9.3c-2.4 0-3.95 1.55-3.95 3.95v1.86c0 .38-.32.7-.7.7s-.7-.32-.7-.7V7.35C2 4.15 4.15 2 7.35 2h9.3C19.85 2 22 4.15 22 7.35v1.86c0 .38-.32.7-.7.7M16.65 22h-9.3C4.15 22 2 19.85 2 16.65v-1.86c0-.38.32-.7.7-.7s.7.32.7.7v1.86c0 2.4 1.55 3.95 3.95 3.95h9.3c2.4 0 3.95-1.55 3.95-3.95v-1.86c0-.38.32-.7.7-.7s.7.32.7.7v1.86c0 3.2-2.15 5.35-5.35 5.35"/><path fill="#444" d="m16.09 8.48-3.5-1.89c-.37-.2-.81-.2-1.18 0L7.9 8.48c-.25.14-.41.41-.41.71s.16.58.41.72l3.5 1.89a1.27 1.27 0 0 0 1.2 0l3.5-1.89c.25-.14.41-.41.41-.72s-.16-.57-.41-.71Zm-5.26 3.96-3.26-1.63a.8.8 0 0 0-.78.04c-.23.15-.37.4-.37.68v3.08c0 .53.3 1.01.77 1.25l3.26 1.63c.11.06.23.08.36.08q.225 0 .42-.12c.24-.15.38-.4.38-.68v-3.08c0-.53-.3-1-.78-1.25m6.37-1.59a.8.8 0 0 0-.78-.04l-3.26 1.63c-.47.24-.77.72-.77 1.25v3.08c0 .28.14.53.38.68q.195.12.42.12c.12 0 .24-.03.36-.08l3.26-1.63c.47-.24.77-.72.77-1.25v-3.08c0-.28-.14-.53-.38-.68"/></svg>