<?xml version="1.0" encoding="UTF-8"?><svg id="e" xmlns="http://www.w3.org/2000/svg" viewBox="0 0 24 24"><path d="m17.92,4.59c.22-1.31-.79-2.75-2.31-2.57-1.06.13-2.36.49-3.33,1.53-.4-.05-.81-.08-1.22-.08-2.4,0-4.61.88-6.25,2.31-.27-.33-.5-.69-.65-1.11-.21-.58-.85-.87-1.43-.66-.58.21-.87.85-.66,1.43.21.56.49,1.06.82,1.49.25.33.28.77.09,1.13-.62,1.13-.97,2.42-.97,3.79,0,1.45.4,2.82,1.1,4-.02.07-.04.15-.06.22l-.37,1.61c-.38,1.69.47,3.5,2.1,4.09s3.22-.07,4.03-1.37c.15-.24.45-.34.73-.29.5.08,1,.12,1.52.12.31,0,.62-.01.93-.04.27-.03.52.11.68.34.77,1.11,2.15,1.7,3.54,1.38,1.45-.34,2.46-1.57,2.61-2.98.03-.27.16-.51.4-.63l1.54-.78c.77-.39,1.25-1.17,1.25-2.03v-3.64c0-1.11-.8-2.05-1.86-2.24-.25-.04-.43-.25-.51-.48-.38-1.02-.96-1.96-1.71-2.75-.16-.17-.23-.39-.19-.62l.19-1.18Zm-5.95,3.21c0,.51-.41.93-.93.93h-2.25c-.51,0-.93-.41-.93-.93s.41-.93.93-.93h2.25c.51,0,.93.41.93.93Zm5.03,2.8c0-.51-.41-.93-.93-.93s-.93.41-.93.93v1.4c0,.51.41.93.93.93s.93-.41.93-.93v-1.4Z" fill="#444" fill-rule="evenodd" stroke-width="0"/></svg>