<?xml version="1.0" encoding="UTF-8"?><svg id="d" xmlns="http://www.w3.org/2000/svg" viewBox="0 0 24 24"><path d="m12,4.45c-.6,0-1.19.07-1.78.18l1.21-1.39c.27-.31.24-.79-.08-1.06-.31-.27-.79-.24-1.06.08l-2.66,3.07s0,.02-.01.03c0,0-.02.01-.02.02-.03.03-.03.07-.05.11-.02.04-.05.09-.06.13-.01.05-.01.1-.02.15,0,.05-.01.09,0,.14,0,.05.02.1.04.14.01.04.02.09.05.13.02.05.06.08.1.12.02.03.04.06.07.09,0,0,.02,0,.03.02,0,0,.01.02.02.02l3.1,2.28c.13.1.29.15.44.15.23,0,.46-.11.61-.31.25-.33.17-.8-.16-1.05l-1.74-1.28c.66-.16,1.32-.26,1.99-.26,3.98,0,7.22,3.26,7.22,7.27s-3.24,7.27-7.22,7.27-7.22-3.26-7.22-7.27c0-1.44.42-2.84,1.22-4.05.23-.35.13-.81-.21-1.04-.34-.23-.81-.13-1.04.21-.96,1.45-1.47,3.13-1.47,4.87,0,4.84,3.91,8.77,8.72,8.77s8.72-3.94,8.72-8.77-3.91-8.77-8.72-8.77Z" fill="#444" stroke-width="0"/></svg>