<svg xmlns="http://www.w3.org/2000/svg" viewBox="0 0 24 24"><path fill="#444" d="M4.99 9.01c1.68 0 2.99 1.4 2.99 2.99s-1.4 2.99-2.99 2.99S2 13.59 2 12s1.31-2.99 2.99-2.99m7.01 0c1.68 0 2.99 1.4 2.99 2.99s-1.4 2.99-2.99 2.99-2.99-1.4-2.99-2.99S10.32 9.01 12 9.01m7.01 0c1.68 0 2.99 1.4 2.99 2.99s-1.4 2.99-2.99 2.99-2.99-1.4-2.99-2.99 1.31-2.99 2.99-2.99M4.99 10.32c-.93 0-1.68.75-1.68 1.68s.75 1.68 1.68 1.68 1.68-.75 1.68-1.68-.75-1.68-1.68-1.68m7.01 0c-.93 0-1.68.75-1.68 1.68s.75 1.68 1.68 1.68 1.68-.75 1.68-1.68-.75-1.68-1.68-1.68m7.01 0c-.93 0-1.68.75-1.68 1.68s.75 1.68 1.68 1.68 1.68-.75 1.68-1.68-.75-1.68-1.68-1.68"/></svg>