<svg xmlns="http://www.w3.org/2000/svg" viewBox="0 0 24 24"><path fill="#444" d="M21.25 11.25h-2.03V9.71c0-.96 0-1.49-.29-1.98a2.24 2.24 0 0 0-.78-.78c-.5-.28-1.03-.28-1.99-.28s-1.5 0-1.99.28c-.32.19-.59.45-.78.77-.29.49-.29 1.02-.29 1.98v1.54h-2.2V7.86c0-.96 0-1.49-.29-1.98a2.24 2.24 0 0 0-.78-.78c-.5-.28-1.03-.28-1.99-.28s-1.5 0-1.99.28c-.32.19-.59.45-.78.78-.29.49-.29 1.02-.29 1.98v3.38H2.75c-.41 0-.75.34-.75.75s.34.75.75.75h2.03v3.38c0 .96 0 1.49.29 1.98.19.32.46.59.78.78.5.28 1.03.28 1.99.28s1.5 0 1.99-.28c.32-.19.59-.45.78-.77.29-.49.29-1.02.29-1.98v-3.38h2.2v1.54c0 .96 0 1.49.29 1.98.19.32.46.59.78.78.5.28 1.03.28 1.99.28s1.5 0 1.99-.28c.32-.19.59-.45.78-.78.29-.49.29-1.02.29-1.98v-1.54h2.03c.41 0 .75-.34.75-.75s-.34-.75-.75-.75M9.4 16.13c0 .63 0 1.08-.08 1.23-.06.1-.14.18-.23.23-.15.08-.61.08-1.24.08s-1.1 0-1.25-.08a.63.63 0 0 1-.23-.23c-.08-.14-.08-.6-.08-1.23V7.87c0-.63 0-1.08.08-1.23.06-.1.14-.18.23-.23.15-.09.61-.09 1.25-.09s1.1 0 1.25.08c.1.06.18.14.23.23.08.14.08.6.08 1.23v8.25Zm8.32-1.83c0 .63 0 1.08-.08 1.23-.06.1-.14.18-.23.23-.15.09-.61.09-1.25.09s-1.1 0-1.25-.08a.63.63 0 0 1-.23-.23c-.08-.14-.08-.6-.08-1.23V9.73c0-.63 0-1.08.08-1.23.06-.1.14-.18.23-.23.15-.08.61-.08 1.24-.08s1.1 0 1.25.08c.1.06.18.14.23.23.08.14.08.6.08 1.23v4.58Z"/></svg>