<svg xmlns="http://www.w3.org/2000/svg" viewBox="0 0 20 18.96"><path fill="#444" d="m12.9 7.88-.9.99c-.58.64-.9 1.46-.9 2.32l-.02 6.17c-.04.09-.15.12-.24.08l-1.85-.92-.09-.15v-5.18c0-.86-.32-1.69-.9-2.32L1.54 1.78s-.04-.07-.04-.11c0-.09.08-.17.17-.17h9.58a.749.749 0 1 0 0-1.5h-9.5C1.05 0 .37.39.12 1.05c-.24.62-.11 1.28.31 1.74l6.46 7.1c.33.36.51.83.51 1.31v5.17c0 .63.36 1.21.93 1.5l1.85.92c.24.12.49.17.74.17a1.67 1.67 0 0 0 1.68-1.67V11.2c0-.49.18-.95.51-1.31l.9-.99c.28-.31.26-.78-.05-1.06a.746.746 0 0 0-1.06.05Zm6.35-5.12h-1.89c-.08 0-.14-.06-.14-.14V.75a.749.749 0 1 0-1.5 0v1.87c0 .08-.06.14-.14.14h-1.89c-.41 0-.75.34-.75.75s.34.75.75.75h1.89c.08 0 .14.06.14.14v1.87c0 .41.34.75.75.75s.75-.34.75-.75V4.4c0-.08.06-.14.14-.14h1.89c.41 0 .75-.34.75-.75s-.34-.75-.75-.75"/></svg>