<?xml version="1.0" encoding="UTF-8"?><svg id="b" xmlns="http://www.w3.org/2000/svg" viewBox="0 0 20 18.96"><g id="c"><g id="d"><path d="m12.9,7.88l-.9.99c-.58.64-.9,1.46-.9,2.32l-.02,6.17c-.04.09-.15.12-.24.08l-1.85-.92-.09-.15v-5.18c0-.86-.32-1.69-.9-2.32L1.54,1.78s-.04-.07-.04-.11c0-.09.08-.17.17-.17h9.58c.41,0,.75-.34.75-.75S11.67,0,11.25,0H1.75C1.05,0,.37.39.12,1.05-.12,1.67.01,2.33.43,2.79l6.46,7.1c.33.36.51.83.51,1.31v5.17c0,.63.36,1.21.93,1.5l1.85.92c.24.12.49.17.74.17.62,0,1.21-.34,1.5-.92.12-.23.18-.49.18-.75v-6.09c0-.49.18-.95.51-1.31l.9-.99c.28-.31.26-.78-.05-1.06-.31-.28-.78-.26-1.06.05Z" fill="#444" stroke-width="0"/><path d="m19.25,2.76h-1.89c-.08,0-.14-.06-.14-.14V.75C17.22.34,16.89,0,16.47,0s-.75.34-.75.75v1.87c0,.08-.06.14-.14.14h-1.89c-.41,0-.75.34-.75.75s.34.75.75.75h1.89c.08,0,.14.06.14.14v1.87c0,.41.34.75.75.75s.75-.34.75-.75v-1.87c0-.08.06-.14.14-.14h1.89c.41,0,.75-.34.75-.75s-.34-.75-.75-.75Z" fill="#444" stroke-width="0"/></g></g></svg>