<svg xmlns="http://www.w3.org/2000/svg" viewBox="0 0 24 24"><circle cx="9.5" cy="6.5" r="4" fill="#444"/><ellipse cx="9.5" cy="17.5" fill="#444" rx="7" ry="4"/><path fill="#444" d="M21.5 17.5c0 1.55-1.79 2.83-4.07 2.99-.17.01-.27-.19-.16-.33.57-.74.94-1.63.94-2.65s-.37-1.92-.95-2.66c-.11-.14-.01-.34.16-.33 2.28.15 4.07 1.43 4.07 2.98ZM18.45 7.08A3.04 3.04 0 0 1 16 9.47c-.45.07-.89.04-1.29-.07-.12-.03-.17-.17-.12-.29.4-.78.63-1.67.63-2.61 0-1.03-.19-1.96-.66-2.81-.11-.2.58-.19.94-.19 1.84 0 3.3 1.67 2.95 3.58"/></svg>