<svg xmlns="http://www.w3.org/2000/svg" viewBox="0 0 24 24"><path fill="#444" d="M16.63 18.79c.12.35-.07.73-.42.84s-.73-.07-.84-.42l-.67-2c-.12-.35.07-.73.42-.84s.73.07.84.42zM12 16.33c-.37 0-.67.3-.67.67v2.67a.67.67 0 0 0 1.34 0V17c0-.37-.3-.67-.67-.67m-3.12.03a.656.656 0 0 0-.84.42l-.67 2c-.12.35.07.73.42.84.35.12.73-.07.84-.42l.67-2a.656.656 0 0 0-.42-.84M22 10.33c0 1.35-1.11 2.57-3.14 3.44C17.02 14.56 14.58 15 12 15s-5.02-.44-6.86-1.23C3.12 12.9 2 11.68 2 10.33c0-.7.31-1.73 1.76-2.71C4.68 7 5.93 6.5 7.4 6.16c.08-.02.15-.07.2-.14a5.31 5.31 0 0 1 7.25-1.55c.33.21.63.45.91.72q.39.39.69.84c.04.07.11.12.19.13 3.37.79 5.37 2.33 5.37 4.16m-14-1.26v.25c0 .31.21.58.51.65 1.15.25 2.32.38 3.49.37 1.17 0 2.34-.11 3.49-.36.3-.07.51-.34.51-.65v-.35c0-2.2-1.79-3.99-4-3.97h-.05c-2.18.03-3.95 1.85-3.95 4.07m12.67 1.26c0-.97-1.39-1.99-3.49-2.63.11.43.16.86.16 1.3v.33c0 .93-.65 1.74-1.56 1.94-1.24.27-2.51.41-3.78.4-1.27 0-2.54-.12-3.78-.4a1.99 1.99 0 0 1-1.56-1.94v-.25c0-.46.06-.93.18-1.38-2.12.64-3.51 1.66-3.51 2.64 0 1.58 3.56 3.33 8.67 3.33s8.67-1.76 8.67-3.33"/></svg>