<svg xmlns="http://www.w3.org/2000/svg" viewBox="0 0 24 24"><path fill="#5e656d" d="M3.75 17.45a.754.754 0 0 1-.53-1.29l5.68-5.54c.29-.28.76-.28 1.05 0l2.94 2.86c1.14-1.76 2.8-3.16 4.76-4.01l.6-.26-3.26-1.22a.76.76 0 0 1-.44-.97c.14-.39.58-.58.96-.44l4.96 1.86s.03.01.05.02c.29.12.47.4.48.7 0 .09-.01.18-.05.27 0 .01 0 .02-.01.03l-1.91 4.85c-.15.39-.59.57-.97.42a.737.737 0 0 1-.42-.97l1.26-3.19-.65.28a9.24 9.24 0 0 0-4.53 4.19c-.11.21-.31.36-.55.39a.75.75 0 0 1-.64-.2l-3.1-3.02-5.16 5.03a.75.75 0 0 1-.52.21"/></svg>