<svg xmlns="http://www.w3.org/2000/svg" viewBox="0 0 24 24"><path fill="#444" d="M12 7.25c-.41 0-.75.34-.75.75v3.84c0 .3.12.59.33.81l2.39 2.39c.29.29.77.29 1.06 0s.29-.77 0-1.06l-1.94-1.94a1.15 1.15 0 0 1-.34-.82V8.01c0-.41-.34-.75-.75-.75Z"/><path fill="#444" d="M12.13 2.26c-3.88 0-6.71 1.43-8.28 4.01L3.61 4.9a.75.75 0 0 0-.87-.61.75.75 0 0 0-.61.87l.53 3.06c.03.19.14.35.29.46.02.02.04.05.07.07.07.05.14.08.21.11.1.05.2.08.32.08.04 0 .08 0 .13-.01l3.06-.53a.75.75 0 0 0 .61-.87.745.745 0 0 0-.87-.61l-1.38.24.25-.35v-.02c1.38-1.7 3.83-3.03 6.76-3.03 5.31 0 8.24 2.93 8.24 8.25s-2.93 8.24-8.24 8.24c-4.71 0-7.54-2.31-8.12-6.54a1 1 0 0 0-.02-.17.6.6 0 0 0-.06-.19.9.9 0 0 0-.23-.29.4.4 0 0 0-.15-.1.77.77 0 0 0-.59 0c-.18.09-.33.25-.41.45-.02.08-.04.17-.04.26v.03c0 .09.01.17.04.25 0 .07.01.14.02.2.74 4.86 4.13 7.6 9.56 7.6 6.19 0 9.74-3.55 9.74-9.74s-3.53-9.75-9.72-9.75"/></svg>