<svg xmlns="http://www.w3.org/2000/svg" viewBox="0 0 24 24"><path fill="#444" fill-rule="evenodd" d="M12 2c2.14 0 3.35 0 4.37.37 1.58.56 2.88 1.77 3.63 3.26.47 1.02.56 2.23.84 4.28l.19 2.05c.19 1.4.28 2.51.28 3.35 0 .93 0 1.58-.28 2.33-.56 1.67-1.77 3.07-3.44 3.81-.65.28-1.4.37-2.23.47s-1.95.09-3.35.09-2.51 0-3.35-.09c-.93-.09-1.58-.19-2.23-.47-1.67-.74-2.88-2.14-3.44-3.81-.19-.65-.28-1.4-.28-2.33 0-.84.19-1.95.28-3.35l.19-2.05c.19-2.14.37-3.35.84-4.28.74-1.49 2.05-2.7 3.63-3.26C8.67 2 9.88 2 12.02 2Zm0 1.49c-2.23 0-3.16 0-3.91.28-1.21.47-2.23 1.3-2.79 2.51-.37.74-.47 1.67-.65 3.91l-.19 2.05c-.19 1.4-.28 2.51-.28 3.26 0 .84 0 1.4.19 1.77.47 1.3 1.4 2.42 2.7 2.98.47.19.93.28 1.77.37s1.86.09 3.26.09 2.51 0 3.26-.09c.84-.09 1.3-.19 1.77-.37 1.3-.56 2.23-1.67 2.7-2.98.19-.47.19-1.02.19-1.77 0-.84-.09-1.86-.28-3.26l-.19-2.05c-.28-2.23-.37-3.16-.65-3.91-.56-1.21-1.58-2.05-2.79-2.51-.93-.28-1.86-.28-4.09-.28Zm2.79 3.16c.37 0 .74.28.74.74v1.86a3.53 3.53 0 1 1-7.06 0V7.39c0-.37.28-.74.74-.74s.74.28.74.74v1.86c0 1.12.93 2.05 2.05 2.05s2.05-.93 2.05-2.05V7.39c0-.37.37-.74.74-.74"/></svg>