<svg xmlns="http://www.w3.org/2000/svg" viewBox="0 0 24 24"><path d="M7.84 7.4c-.02-.26-.06-.46-.14-.65-.2-.49-.58-.86-1.06-1.06-.18-.08-.38-.12-.65-.14-.18-.01-.4-.01-.71-.01H4.5c-.31 0-.52 0-.71.01-.26.02-.46.06-.64.14-.49.2-.86.58-1.06 1.06-.08.18-.12.38-.14.65-.01.19-.01.42-.01.71v.78c0 .28 0 .52.01.71.02.26.06.46.14.64.2.48.58.86 1.06 1.06.18.08.38.12.64.14.18.01.4.01.71.01h.78c.31 0 .52 0 .71-.01.26-.02.46-.06.65-.14.49-.2.86-.58 1.06-1.06.08-.19.12-.38.14-.64.01-.18.01-.4.01-.71v-.78c0-.31 0-.52-.01-.71m-1.48.65v1.44c0 .12-.02.16-.03.18a.47.47 0 0 1-.25.25c-.02 0-.06.02-.17.03-.15 0-.34.01-.62 0H3.91c-.12 0-.16-.02-.17-.03a.43.43 0 0 1-.25-.26c0-.01-.02-.05-.03-.17v-2c0-.12.02-.16.03-.17a.47.47 0 0 1 .25-.25c.02 0 .06-.02.18-.03h2c.12 0 .16.02.17.03.11.05.21.14.25.25 0 .02.02.06.03.17v.55Zm13.8 3.11h-9.49c-1.05 0-1.89-.85-1.89-1.89V7.74c0-1.05.85-1.89 1.89-1.89h9.49c1.05 0 1.89.85 1.89 1.89v1.53c0 1.05-.85 1.89-1.89 1.89m-9.88-3.41v1.52c0 .21.17.39.38.39h9.51c.21 0 .38-.16.38-.38V7.74a.38.38 0 0 0-.38-.38h-9.48c-.22 0-.41.17-.41.4ZM7.84 14.4c-.02-.26-.06-.46-.14-.65-.2-.49-.58-.86-1.06-1.06-.18-.08-.38-.12-.65-.14-.18-.01-.4-.01-.71-.01H4.5c-.31 0-.52 0-.71.01-.26.02-.46.06-.64.14-.49.2-.86.58-1.06 1.06-.08.18-.12.38-.14.65-.01.19-.01.42-.01.71v.78c0 .28 0 .52.01.71.02.26.06.46.14.64.2.48.58.86 1.06 1.06.18.08.38.12.64.14.18.01.4.01.71.01h.78c.31 0 .52 0 .71-.01.26-.02.46-.06.65-.14.49-.2.86-.58 1.06-1.06.08-.19.12-.38.14-.64.01-.18.01-.4.01-.71v-.78c0-.31 0-.52-.01-.71m-1.48.65v1.44c0 .12-.02.16-.03.18a.47.47 0 0 1-.25.25c-.02 0-.06.02-.17.03-.15 0-.34.01-.62 0H3.91c-.12 0-.16-.02-.17-.03a.43.43 0 0 1-.25-.26c0-.01-.02-.05-.03-.17v-2c0-.12.02-.16.03-.17a.47.47 0 0 1 .25-.25c.02 0 .06-.02.18-.03h2c.12 0 .16.02.17.03.11.05.21.14.25.25 0 .02.02.06.03.17v.55Zm13.8 3.11h-9.49c-1.05 0-1.89-.85-1.89-1.89v-1.53c0-1.05.85-1.89 1.89-1.89h9.49c1.05 0 1.89.85 1.89 1.89v1.53c0 1.05-.85 1.89-1.89 1.89m-9.88-3.41v1.52c0 .21.17.39.38.39h9.51c.21 0 .38-.16.38-.38v-1.54a.38.38 0 0 0-.38-.38h-9.48c-.22 0-.41.17-.41.4Z"/></svg>