<svg xmlns="http://www.w3.org/2000/svg" viewBox="0 0 24 24"><path fill="#444" d="M21.3 12.39h-9.9c-.25 0-.45.2-.45.45v6.96c0 .22.16.41.38.44l9.9 1.44c.27.04.51-.17.51-.44v-8.4c0-.25-.2-.45-.45-.45Zm-11.49 0H2.7c-.25 0-.45.2-.45.45v5.7c0 .22.16.41.38.44l7.12 1.03c.27.04.51-.17.51-.44v-6.73c0-.25-.2-.45-.45-.45M21.24 2.32l-9.9 1.41c-.22.03-.38.22-.38.44v7.07c0 .25.2.45.45.45h9.9c.25 0 .45-.2.45-.45V2.77c0-.27-.24-.48-.51-.44ZM9.75 3.96 2.63 4.98c-.22.03-.38.22-.38.44v5.83c0 .25.2.45.45.45h7.12c.25 0 .45-.2.45-.45V4.41c0-.27-.24-.48-.51-.44Z"/></svg>