<?xml version="1.0" encoding="UTF-8"?><svg id="e" xmlns="http://www.w3.org/2000/svg" viewBox="0 0 24 24"><path d="m12,6.18c-8.17,0-9.39,3.75-9.39,5.99,0,4.67,2.28,5.65,4.2,5.65,1.73,0,2.55-.73,3.21-1.31.57-.51.98-.88,1.98-.88s1.41.37,1.98.88c.66.58,1.48,1.31,3.21,1.31,1.92,0,4.2-.98,4.2-5.65,0-2.24-1.22-5.99-9.39-5.99Zm5.19,10.14c-1.16,0-1.62-.41-2.21-.94-.63-.55-1.41-1.25-2.98-1.25s-2.35.7-2.98,1.25c-.59.53-1.05.94-2.21.94-1.26,0-2.7-.47-2.7-4.15s4.29-4.49,7.89-4.49,7.89.78,7.89,4.49-1.44,4.15-2.7,4.15Z" fill="#444" stroke-width="0"/><path d="m14.76,9.09c-.41,0-.75.33-.75.75s.34.75.75.75c1.26,0,2.75.24,2.75,1.37,0,.41.34.75.75.75s.75-.34.75-.75c0-.86-.41-2.87-4.25-2.87Z" fill="#444" stroke-width="0"/></svg>