<svg xmlns="http://www.w3.org/2000/svg" viewBox="0 0 24 24"><path fill="#5e656d" d="m21.6 8.55-.26-2.57C20.95 3.15 19.68 2 16.94 2H7.06c-2.74 0-4.01 1.15-4.4 4.01l-.25 2.54c-.09.94.15 1.82.65 2.56-.01.06-.03.11-.03.17v4.15c0 4.54 2.01 6.57 6.53 6.57h4.95c4.52 0 6.53-2.03 6.53-6.57v-4.15c0-.08-.02-.14-.04-.21.48-.73.71-1.6.62-2.52Zm-1.75-2.39.26 2.54c.07.69-.13 1.34-.57 1.82-.43.47-1.04.73-1.72.73-1.13 0-2.18-.96-2.3-2.09 0-.1.01-.2 0-.3l-.53-5.36h1.94c1.97 0 2.63.6 2.91 2.66Zm-6.32 4.45c-.76.83-2.26.83-3.02 0-.38-.42-.56-.99-.5-1.6l.55-5.5h2.9l.58 5.81c-.02.49-.19.94-.5 1.29ZM3.89 8.7l.25-2.51c.29-2.08.94-2.68 2.92-2.68h1.98l-.56 5.66c-.11 1.13-1.16 2.09-2.29 2.09-.68 0-1.29-.26-1.72-.73-.44-.48-.64-1.13-.57-1.82Zm6.58 11.8v-1.56c0-1.12.43-1.56 1.55-1.56s1.55.44 1.55 1.56v1.56zm4.6-.03v-1.53c0-1.95-1.11-3.06-3.05-3.06S8.97 17 8.97 18.94v1.53c-3.26-.14-4.46-1.5-4.46-5.04v-3.06c.51.24 1.07.38 1.67.38 1.17 0 2.26-.59 2.97-1.48.08.12.16.24.25.35.67.73 1.6 1.14 2.62 1.14s1.95-.4 2.62-1.14c.09-.1.16-.21.23-.32.71.88 1.79 1.46 2.95 1.46.61 0 1.19-.15 1.7-.4v3.08c0 3.53-1.2 4.9-4.46 5.04Z"/></svg>