<?xml version="1.0" encoding="UTF-8"?><svg id="b" xmlns="http://www.w3.org/2000/svg" viewBox="0 0 18.71 19.13"><g id="c"><g id="d"><path d="m13.79,1.93V.75c0-.41-.34-.75-.75-.75s-.75.34-.75.75v.93c-.87-.1-1.84-.15-2.94-.15s-2.06.05-2.94.15v-.93c0-.41-.34-.75-.75-.75s-.75.34-.75.75v1.18C1.2,2.79,0,5.17,0,10.33c0,6.82,2.1,8.8,9.36,8.8s9.36-1.97,9.36-8.8c0-5.16-1.2-7.54-4.92-8.4Zm-8.87,1.52v.36c0,.41.34.75.75.75s.75-.34.75-.75v-.64c.84-.1,1.81-.14,2.94-.14s2.1.04,2.94.14v.64c0,.41.34.75.75.75s.75-.34.75-.75v-.36c2.71.74,3.42,2.62,3.42,6.88,0,1.36-.08,2.47-.26,3.39H1.76c-.19-.92-.26-2.03-.26-3.39,0-4.25.71-6.14,3.42-6.88Zm4.44,14.18c-4.08,0-6.14-.52-7.1-2.41h14.2c-.96,1.89-3.02,2.41-7.1,2.41Z" fill="#444" stroke-width="0"/><path d="m6.86,10.83c0,1.24.95,2.01,2.5,2.01s2.5-.77,2.5-2.01c0-.68-.35-1.27-.97-1.62.45-.31.73-.77.73-1.39,0-1.3-1.03-1.97-2.26-1.97s-2.27.67-2.27,1.97c0,.62.29,1.09.73,1.39-.61.36-.96.94-.96,1.62Zm2.5-3.73c.52,0,.9.29.9.79s-.38.8-.9.8-.9-.31-.9-.8.38-.79.9-.79Zm0,2.65c.66,0,1.14.33,1.14.92s-.48.93-1.14.93-1.14-.33-1.14-.93.48-.92,1.14-.92Z" fill="#444" stroke-width="0"/></g></g></svg>