<?xml version="1.0" encoding="UTF-8"?><svg id="b" xmlns="http://www.w3.org/2000/svg" viewBox="0 0 20.55 14.69"><g id="c"><g id="d"><path d="m17.77,0c.41,0,.75.33.75.75v11.4l.77-.77c.29-.29.76-.29,1.05,0h0c.29.29.29.76,0,1.05l-2.04,2.04c-.29.29-.76.29-1.05,0l-2.04-2.04c-.29-.29-.29-.77,0-1.06h0c.29-.3.76-.29,1.05,0l.75.75V.75c0-.41.33-.75.75-.75h0Z" fill="#444" stroke-width="0"/><path d="m2.02,12.07c-1.35-1.35-2.02-2.99-2.02-4.92S.67,3.57,2.02,2.22C3.38.87,5.01.19,6.94.19s3.57.68,4.92,2.03c1.35,1.35,2.03,2.99,2.03,4.92s-.68,3.57-2.03,4.92c-1.35,1.35-2.99,2.03-4.92,2.03-1.93,0-3.57-.68-4.92-2.03Zm8.78-1.06c1.06-1.06,1.59-2.35,1.59-3.87s-.53-2.81-1.59-3.87c-1.06-1.06-2.35-1.59-3.87-1.59s-2.81.53-3.86,1.59c-1.05,1.06-1.58,2.35-1.58,3.87,0,1.52.53,2.81,1.58,3.87,1.05,1.06,2.34,1.59,3.86,1.59s2.81-.53,3.87-1.59Z" fill="#444" stroke-width="0"/><path d="m9.62,9.91h0c.29-.3.29-.77,0-1.06l-1.72-1.74c-.14-.14-.22-.33-.22-.52v-2.56c0-.41-.33-.75-.75-.75h0c-.41,0-.75.33-.75.75v3.2c0,.2.08.39.22.53l2.15,2.15c.29.29.76.29,1.05,0Z" fill="#444" stroke-width="0"/></g></g></svg>