<svg xmlns="http://www.w3.org/2000/svg" viewBox="0 0 24 24"><path fill="#444" fill-rule="evenodd" d="M6.87 20.58A9.9 9.9 0 0 1 3.35 17a9.9 9.9 0 0 1-1.34-4.84l.14.03c2.95.58 6.3-.47 9.06-2.16.36-.22.72-.46 1.06-.71.41.52.78 1.04 1.08 1.56.36.63.69 1.37.99 2.16.02.04 0 .09-.04.11-.49.24-.97.5-1.43.79-2.79 1.7-5.17 4.18-5.99 6.64Zm9.39.46a9.97 9.97 0 0 1-8.04.21l.07-.21c.66-2 2.72-4.24 5.35-5.83.39-.24.8-.46 1.21-.67.25.83.47 1.67.65 2.46.24 1.02.42 1.94.53 2.61.06.33.1.6.13.78.01.09.03.16.03.21v.06l.05.37Z"/><path fill="#444" d="M16.27 14.08a.17.17 0 0 1 .1-.2c1.84-.68 3.71-.93 5.34-.58l.2.05c-.12.88-.36 1.75-.71 2.57a9.9 9.9 0 0 1-3.54 4.32v-.08c-.04-.19-.09-.47-.15-.81-.12-.68-.3-1.63-.55-2.69-.19-.81-.42-1.7-.69-2.59Zm-2.72-5.56a.16.16 0 0 1 .02-.23c1.67-1.45 2.98-3.15 3.55-4.84v-.03A9.8 9.8 0 0 1 20.65 7c.86 1.49 1.29 3.1 1.34 4.71 0 .07-.06.12-.13.11-1.92-.38-4.01-.07-6 .66-.07.03-.14 0-.17-.08-.31-.82-.66-1.6-1.05-2.27-.31-.54-.69-1.08-1.1-1.6ZM8.32 3.46c-.25-.2-.46-.36-.6-.46l-.02-.02a10 10 0 0 1 8.08-.23l-.08.23c-.47 1.38-1.59 2.88-3.11 4.19-.06.05-.16.05-.22-.01-.7-.75-1.43-1.45-2.1-2.05a39 39 0 0 0-1.95-1.64Zm2.1 5.29c-2.59 1.59-5.55 2.45-7.99 1.97l-.34-.07A10 10 0 0 1 6.28 3.8l.33.24.04.03s.09.06.15.11A38 38 0 0 1 9.25 6.2c.66.59 1.36 1.26 2.01 1.96-.28.19-.57.38-.86.57Z"/></svg>