<svg xmlns="http://www.w3.org/2000/svg" viewBox="0 0 24 24"><path fill="#444" fill-rule="evenodd" d="M17.92 4.59c.22-1.31-.79-2.75-2.31-2.57-1.06.13-2.36.49-3.33 1.53-.4-.05-.81-.08-1.22-.08-2.4 0-4.61.88-6.25 2.31-.27-.33-.5-.69-.65-1.11-.21-.58-.85-.87-1.43-.66s-.87.85-.66 1.43c.21.56.49 1.06.82 1.49.25.33.28.77.09 1.13a7.85 7.85 0 0 0 .13 7.79l-.06.22-.37 1.61c-.38 1.69.47 3.5 2.1 4.09S8 21.7 8.81 20.4c.15-.24.45-.34.73-.29.5.08 1 .12 1.52.12.31 0 .62-.01.93-.04.27-.03.52.11.68.34.77 1.11 2.15 1.7 3.54 1.38 1.45-.34 2.46-1.57 2.61-2.98.03-.27.16-.51.4-.63l1.54-.78a2.27 2.27 0 0 0 1.25-2.03v-3.64c0-1.11-.8-2.05-1.86-2.24-.25-.04-.43-.25-.51-.48a8.1 8.1 0 0 0-1.71-2.75.71.71 0 0 1-.19-.62l.19-1.18ZM11.97 7.8c0 .51-.41.93-.93.93H8.79c-.51 0-.93-.41-.93-.93s.41-.93.93-.93h2.25c.51 0 .93.41.93.93M17 10.6c0-.51-.41-.93-.93-.93s-.93.41-.93.93V12c0 .51.41.93.93.93s.93-.41.93-.93z"/></svg>