<svg xmlns="http://www.w3.org/2000/svg" viewBox="0 0 24 24"><g fill="#444"><path d="M20.81 14.32s-.01-.02-.03-.03l-.59-.59c-.51-.51-1.38-.51-1.89 0l-4.07 4.07q-.27.27-.42.63c-.1.23-.15.49-.15.74V20c0 .46.37.82.82.82h.86a1.96 1.96 0 0 0 1.37-.57l3.39-3.39.02-.02s.01-.01.02-.03l.64-.64c.25-.25.39-.59.39-.95s-.13-.66-.36-.91Zm-4.75 5.27c-.1.1-.2.18-.32.22-.12.05-.25.08-.38.08h-.76v-.76c0-.26.11-.52.29-.7l3.08-3.08 1.17 1.17-3.08 3.08Zm4.09-4.07-.33.33-1.17-1.17.33-.33a.42.42 0 0 1 .58 0l.59.59c.08.08.12.18.12.29s-.04.21-.11.28Zm-7.46-8.35c-1.19-.23-2.41.14-3.25.99-.84.84-1.21 2.04-.98 3.22.27 1.42 1.4 2.55 2.82 2.82 1.18.23 2.4-.13 3.26-.98.84-.84 1.21-2.04.98-3.22a3.565 3.565 0 0 0-2.82-2.82Zm.78 4.98c-.5.5-1.2.71-1.91.57-.81-.15-1.48-.82-1.63-1.63-.13-.7.07-1.39.57-1.88.4-.4.93-.61 1.48-.61 1-.01 1.87.69 2.06 1.67.13.7-.07 1.39-.57 1.88m4.96-1.47c0-.41-.34-.75-.75-.75s-.75.34-.75.76.34.75.76.75.75-.34.75-.76zM6.3 9.93c-.41 0-.75.34-.75.76s.34.75.76.75.75-.34.75-.76-.34-.75-.75-.75z"/><path d="M5.72 16.25c-.09-.89-.85-1.6-1.77-1.61-.35-.88-.45-2.14-.45-3.95s.1-2.95.41-3.83c.93-.05 1.67-.79 1.72-1.72 1.27-.45 3.26-.46 6.37-.46 2.95 0 4.88 0 6.16.39 0 .99.82 1.79 1.81 1.79h.12c.31.88.41 2.09.41 3.82 0 .44 0 .84-.03 1.21-.02.43.32.78.75.78.4 0 .73-.32.75-.72s.03-.81.03-1.25c0-7.5-2.72-7.5-10-7.5h-.01c-7.28-.01-10-.01-10 7.49 0 3.92.76 5.78 2.51 6.68.09.08.2.13.33.16 1.6.66 3.37.78 6.61.78h.77c.42 0 .75-.34.75-.75a.76.76 0 0 0-.75-.77h-.78c-2.96 0-4.44-.11-5.72-.54Z"/></g></svg>