<?xml version="1.0" encoding="UTF-8"?><svg id="b" xmlns="http://www.w3.org/2000/svg" viewBox="0 0 18.59 20.5"><g id="c"><g id="d"><path d="m13.78,1.98c-.26-1.97-1.74-1.98-2.57-1.98h-3.81c-.83,0-2.32,0-2.57,1.98C1.41,2.36,0,4.24,0,8.34v5.72c0,3.98,1.08,6.44,6.44,6.44h5.72c4.96,0,6.22-1.65,6.39-5.12,0-.39-.32-.71-.71-.71-.36,0-.64.25-.69.59h-.02c-.13,2.91-1.02,3.81-4.97,3.81h-5.72c-4.31,0-5.01-1.48-5.01-5.01v-5.72c0-3.67,1.14-4.67,3.4-4.93.31,1.82,1.74,1.83,2.56,1.83h3.81c1.96,0,2.46-.96,2.58-1.83,2.24.27,3.38,1.27,3.38,4.93v.17s0,0,0,0c0,0,0,0,0,0v.05s.01,0,.01,0c.03.37.33.66.7.66s.69-.3.71-.68h0v-.21c0-4.1-1.4-5.99-4.82-6.36Zm-2.57,1.83h-3.81c-.94,0-1.19,0-1.19-1.19s.25-1.19,1.19-1.19h3.81c.94,0,1.19,0,1.19,1.19,0,.94,0,1.19-1.19,1.19Z" fill="#444" stroke-width="0"/><path d="m17.1,12.85c.41,0,.75-.34.75-.75s-.34-.75-.75-.75h-7.19c-.07,0-.11-.09-.06-.14l2.27-2.28c.29-.29.29-.77,0-1.06-.29-.29-.77-.29-1.06,0l-3.67,3.7s-.02.03-.03.04c-.05.06-.1.12-.13.2-.03.08-.05.17-.05.26,0,.01,0,.02,0,.03s0,.02,0,.03c0,.09.02.17.05.26.03.08.08.14.13.2.01.01.02.03.03.04l3.67,3.7c.15.15.34.22.53.22s.38-.07.53-.22c.29-.29.3-.77,0-1.06l-2.27-2.28c-.05-.05-.01-.14.06-.14h7.19Z" fill="#444" stroke-width="0"/></g></g></svg>