<svg xmlns="http://www.w3.org/2000/svg" viewBox="0 0 24 24"><path fill="#5e656d" d="M18.02 22H5.98c-1 0-1.81-.82-1.81-1.82V3.82c0-1 .81-1.82 1.81-1.82h4.6c5.1 0 9.24 4.17 9.24 9.29v8.89c0 1-.81 1.82-1.81 1.82ZM5.98 3.5c-.17 0-.31.14-.31.32v16.37c0 .17.14.32.31.32h12.03c.17 0 .31-.14.31-.32v-8.54c0-1.35-1.09-2.45-2.43-2.45h-1.42c-1 0-1.81-.82-1.81-1.82V5.96c0-1.35-1.09-2.45-2.43-2.45H5.98Zm7.76.68c.27.53.42 1.14.42 1.77v1.42c0 .17.14.32.31.32h1.42c.63 0 1.23.15 1.76.42a7.8 7.8 0 0 0-3.91-3.93m1.08 13.55c-.41 0-.75-.34-.75-.75V12c0-.41.34-.75.75-.75s.75.34.75.75v4.98c0 .41-.34.75-.75.75m-2.83 0c-.41 0-.75-.34-.75-.75v-2.85c0-.41.34-.75.75-.75s.75.34.75.75v2.85c0 .41-.34.75-.75.75m-2.83 0c-.41 0-.75-.34-.75-.75v-.71c0-.41.34-.75.75-.75s.75.34.75.75v.71c0 .41-.34.75-.75.75"/></svg>