<svg xmlns="http://www.w3.org/2000/svg" viewBox="0 0 18.1 20.26"><path fill="#444" d="m1.51 3.62 3.72-2.33c.33-.2.43-.63.22-.96a.686.686 0 0 0-.96-.22L.77 2.44c-.33.2-.43.64-.22.96.2.33.63.43.96.22M12.87 1.3l3.72 2.33c.33.2.76.11.96-.22s.11-.76-.22-.96L13.61.12c-.33-.2-.76-.1-.96.22-.2.33-.11.76.22.96m-3.82.85C3.3 2.15 0 5.45 0 11.2s3.3 9.06 9.05 9.06 9.05-3.3 9.05-9.06-3.3-9.05-9.05-9.05m2.79 9.75H9.86c-.07 0-.12.06-.12.12V14c0 .39-.31.7-.7.7s-.7-.31-.7-.7v-1.98c0-.07-.06-.12-.12-.12H6.24c-.39 0-.7-.31-.7-.7s.31-.7.7-.7h1.98c.07 0 .12-.06.12-.12V8.4c0-.39.31-.7.7-.7s.7.31.7.7v1.98c0 .07.06.12.12.12h1.98c.39 0 .7.31.7.7s-.31.7-.7.7"/></svg>