<svg xmlns="http://www.w3.org/2000/svg" viewBox="0 0 24 24"><g fill="#5e656d"><path d="m15.06 10 7.47-7.47c.29-.29.29-.77 0-1.06s-.77-.29-1.06 0l-3.49 3.49C16.15 3.67 14.09 2.98 12 2.98c-3.75 0-7.31 2.2-9.74 6.03-1.05 1.65-1.05 4.34 0 6 .76 1.19 1.63 2.22 2.59 3.09l-3.38 3.38c-.29.29-.29.77 0 1.06.15.15.34.22.53.22s.38-.07.53-.22L10 15.07l5.06-5.06Zm-5.52 3.4a2.834 2.834 0 0 1 3.86-3.86zm-6.02.8c-.75-1.17-.75-3.22 0-4.38C5.68 6.43 8.77 4.49 12 4.49c1.7 0 3.38.54 4.9 1.56l-2.42 2.42c-.72-.51-1.58-.79-2.48-.79-2.39 0-4.33 1.94-4.33 4.33 0 .9.28 1.75.79 2.48l-2.55 2.55c-.88-.79-1.69-1.74-2.38-2.84Zm17.11-6.74a.747.747 0 1 0-1.16.94c.39.48.72.94 1.01 1.4.75 1.17.75 3.22 0 4.38-2.16 3.39-5.25 5.33-8.48 5.33-1.11 0-2.22-.23-3.29-.68a.75.75 0 0 0-.98.4c-.16.38.02.82.4.98 1.26.53 2.56.8 3.87.8 3.75 0 7.31-2.2 9.74-6.03 1.05-1.65 1.05-4.34 0-6-.32-.51-.68-1.01-1.11-1.54Z"/><path d="M14.77 12.56c-.2 1.1-1.12 2.01-2.22 2.22a.746.746 0 0 0 .14 1.48c.04 0 .09 0 .14-.01 1.73-.32 3.1-1.69 3.42-3.42.08-.41-.19-.8-.6-.87s-.8.19-.87.6Z"/></g></svg>