<?xml version="1.0" encoding="UTF-8"?>
<svg xmlns="http://www.w3.org/2000/svg" viewBox="0 0 24 24">
  <g id="f">
    <path
      d="m12.08,22c-.06,0-.12,0-.18-.02-2.94-.73-9.78-3.19-9.78-10.39,0-5.8,1.61-7.04,1.93-7.23.29-.13,5.35-2.35,7.94-2.35s7.65,2.22,7.87,2.31c.4.23,2.01,1.47,2.01,7.27,0,7.45-7.36,9.84-9.61,10.39-.06.01-.12.02-.18.02ZM4.83,5.65c-.19.19-1.2,1.42-1.2,5.94,0,6.01,5.77,8.2,8.46,8.89,2.63-.68,8.29-2.85,8.29-8.89,0-4.52-1.02-5.75-1.2-5.94-1.45-.63-5.32-2.15-7.17-2.15s-5.72,1.51-7.17,2.15Z"
      fill="#444" stroke-width="0" />
    <g id="g">
      <path
        d="m12.46,16c-.06,0-.12-.02-.17-.05-.14-.1-.18-.29-.08-.43.44-.64.77-1.35.98-2.1.05-.16.22-.26.38-.21.16.05.26.22.21.38-.23.81-.59,1.58-1.06,2.28-.06.09-.16.14-.26.14Zm-1.7-.3c-.07,0-.14-.02-.2-.07-.13-.11-.14-.31-.03-.43.91-1.06,1.41-2.41,1.4-3.8,0-.17.14-.31.31-.31h0c.17,0,.31.14.31.31,0,1.54-.55,3.03-1.55,4.2-.06.07-.15.11-.23.11Zm3.91-.61s-.08,0-.11-.02c-.16-.06-.24-.24-.17-.4.41-1.04.62-2.15.62-3.28,0-.55-.16-1.07-.46-1.53-.84-1.27-2.57-1.63-3.84-.78-.14.09-.33.05-.43-.09-.09-.14-.05-.33.09-.43,1.56-1.03,3.66-.6,4.69.96.37.56.56,1.2.56,1.87,0,1.21-.22,2.39-.67,3.51-.05.12-.16.19-.29.19Zm-5.17-.29c-.07,0-.15-.03-.21-.08-.13-.11-.14-.31-.02-.43.72-.79,1.12-1.82,1.12-2.89,0-1.02.83-1.85,1.85-1.85s1.85.83,1.85,1.85c0,.22,0,.45-.03.67-.01.17-.16.3-.33.28-.17-.01-.3-.16-.28-.33.02-.2.03-.41.03-.62,0-.68-.55-1.23-1.23-1.23s-1.23.55-1.23,1.23c0,1.23-.45,2.4-1.28,3.31-.06.07-.14.1-.23.1Zm-.82-1.46c-.06,0-.11-.02-.16-.05-.14-.09-.19-.28-.1-.43.28-.44.43-.95.42-1.47,0-.67.19-1.31.56-1.87.09-.14.29-.18.43-.09.14.09.18.28.09.43-.3.45-.46.98-.46,1.53,0,.64-.18,1.26-.52,1.8-.06.09-.16.14-.26.14Z"
        fill="#444" stroke-width="0" />
    </g>
  </g>
</svg>