<svg xmlns="http://www.w3.org/2000/svg" viewBox="0 0 24 24"><path fill="#323544" d="M12.8 11.32h-1.66a.19.19 0 0 1-.19-.19v-1.5c0-.1.08-.19.19-.19h1.66c.1 0 .19.08.19.19v1.5c0 .1-.08.19-.19.19m0-6.36h-1.68c-.1 0-.18.08-.18.18v1.55c0 .1.08.18.18.18h1.68c.1 0 .18-.08.18-.18V5.14c0-.1-.08-.18-.18-.18m2.45 4.55h-1.66c-.1 0-.19.08-.19.19v1.47c0 .1.08.19.19.19h1.66c.1 0 .19-.08.19-.19V9.7c0-.1-.08-.19-.19-.19m-4.88-2.29H8.71c-.1 0-.19.08-.19.19v1.5c0 .1.08.19.19.19h1.66c.1 0 .19-.08.19-.19v-1.5c0-.1-.08-.19-.19-.19m2.42 0h-1.66c-.1 0-.19.08-.19.19v1.5c0 .1.08.19.19.19h1.66c.1 0 .19-.08.19-.19v-1.5c0-.1-.08-.19-.19-.19m8.88 3.13c-.42-.3-1.33-.4-2.08-.29-.1.02-.19-.05-.21-.15-.14-.69-.58-1.28-1.23-1.82l-.45-.26-.26.45c-.55.87-.74 2.33-.13 3.26-.26.13-.81.36-1.49.36H2.48c-.23 0-.44.17-.46.4-.13 1.52.34 3.4 1.41 4.7 1.13 1.36 2.91 2.03 5.17 2.03 4.86 0 8.52-2.22 10.22-6.28.03-.07.09-.11.16-.11.69 0 2.06-.08 2.76-1.42.03-.03.23-.42.26-.55l-.32-.32ZM3.8 9.52c-.1 0-.19.08-.19.18v1.47c0 .1.08.19.19.19h1.66c.1 0 .19-.08.19-.19V9.64c0-.07-.06-.12-.12-.12H3.81Zm4.11 0H6.25c-.1 0-.19.08-.19.19v1.47c0 .1.08.19.19.19h1.66c.1 0 .19-.08.19-.19V9.71c0-.1-.08-.19-.19-.19m2.45 0H8.7c-.1 0-.19.08-.19.19v1.47c0 .1.08.19.19.19h1.66c.1 0 .19-.08.19-.19V9.71c0-.1-.08-.19-.19-.19M7.91 7.23H6.25c-.1 0-.19.08-.19.19v1.5c0 .1.08.19.19.19h1.66c.1 0 .19-.08.19-.19v-1.5c0-.1-.08-.19-.19-.19"/></svg>