<?xml version="1.0" encoding="UTF-8"?><svg id="d" xmlns="http://www.w3.org/2000/svg" viewBox="0 0 24 24"><path d="m15.94,2.48h-7.63c-2.66,0-6.29,0-6.29,5.36v.92c0,.41.34.75.75.75s.75-.34.75-.75v-.92c0-3.86,2.01-3.86,4.79-3.86h7.63c3.49,0,4.56.9,4.56,3.86v7.38c0,3.03-.83,3.86-3.87,3.86h-.92c-.41,0-.75.34-.75.75s.34.75.75.75h.92c3.86,0,5.37-1.5,5.37-5.36v-7.38c0-4.71-2.91-5.36-6.06-5.36Z" fill="#444" stroke-width="0"/><path d="m4.43,10.52c-.42-.06-.79.24-.84.65-.05.41.24.79.65.84,3.93.5,6.8,3.36,7.31,7.29.05.38.37.65.74.65.03,0,.06,0,.1,0,.41-.05.7-.43.65-.84-.6-4.63-3.98-8-8.61-8.59Z" fill="#444" stroke-width="0"/><path d="m3.44,13.62c-.41-.05-.79.24-.84.65s.24.79.65.84c2.79.35,4.83,2.39,5.19,5.18.05.38.37.65.74.65.03,0,.06,0,.1,0,.41-.05.7-.43.65-.84-.45-3.49-3-6.03-6.49-6.48Z" fill="#444" stroke-width="0"/><path d="m2.85,17.11c-.42-.06-.79.24-.84.65-.05.41.24.79.65.84,1.22.16,2.12,1.05,2.27,2.27.05.38.37.65.74.65.03,0,.06,0,.1,0,.41-.05.7-.43.65-.84-.25-1.91-1.65-3.31-3.57-3.56Z" fill="#444" stroke-width="0"/></svg>