<?xml version="1.0" encoding="UTF-8"?><svg id="d" xmlns="http://www.w3.org/2000/svg" viewBox="0 0 24 24"><path d="m12,22.01c-1.38,0-2.76-.52-3.84-1.56-2.72-2.64-5.72-6.83-4.59-11.85h0c1.03-4.55,4.97-6.59,8.43-6.59h0c3.46,0,7.4,2.04,8.43,6.6,1.13,5.02-1.88,9.21-4.6,11.84-1.07,1.04-2.45,1.56-3.83,1.56Zm-6.97-13.09c-.97,4.34,1.73,8.08,4.17,10.45,1.57,1.52,4.02,1.52,5.58,0,2.45-2.37,5.16-6.1,4.18-10.44-.9-4-4.31-5.43-6.97-5.43h0c-2.65,0-6.06,1.42-6.97,5.42Z" fill="#444" stroke-width="0"/><path d="m10.85,13.68h0c-.2,0-.39-.08-.53-.22l-1.38-1.39c-.29-.29-.29-.77,0-1.06.29-.29.77-.29,1.06,0l.85.85,3.14-3.17c.29-.29.77-.29,1.06,0,.29.29.3.77,0,1.06l-3.67,3.7c-.14.14-.33.22-.53.22Z" fill="#444" stroke-width="0"/></svg>