<svg xmlns="http://www.w3.org/2000/svg" viewBox="0 0 24 24"><path fill="#444" fill-rule="evenodd" d="M12 2c.38 0 .7.31.7.7v.96l4.71 2.35c.69.34 1.27.63 1.67.92.41.29.84.7.84 1.35s-.43 1.06-.84 1.35c-.41.28-.99.57-1.67.92L12.7 12.9v1.21c2.35.06 4.49.42 6.11.98.88.31 1.65.69 2.2 1.16.56.46.99 1.06.99 1.8s-.43 1.35-.99 1.8c-.56.46-1.32.85-2.2 1.16-1.78.62-4.19.99-6.81.99s-5.03-.37-6.81-.99c-.88-.31-1.65-.69-2.2-1.16-.56-.46-.99-1.06-.99-1.8s.43-1.35.99-1.8c.56-.46 1.32-.85 2.2-1.16 1.62-.57 3.76-.92 6.11-.98V2.7c0-.39.32-.7.7-.7m.7 3.46v5.63c0 .11.12.18.22.13l3.82-1.91c.74-.37 1.23-.62 1.54-.84.15-.1.21-.17.23-.2a.8.8 0 0 0-.23-.2c-.32-.22-.8-.46-1.54-.84l-3.82-1.91c-.1-.05-.22.02-.22.13Zm-1.4 10.03c-2.23.06-4.2.4-5.65.91-.8.28-1.4.6-1.79.91-.38.32-.47.57-.47.73s.09.41.47.73c.39.32.99.63 1.79.91 1.59.56 3.83.91 6.34.91s4.75-.36 6.34-.91c.8-.28 1.4-.6 1.79-.91.38-.32.47-.57.47-.73s-.09-.41-.47-.73c-.39-.32-.99-.63-1.79-.91-1.44-.51-3.41-.85-5.65-.91v2.08c0 .39-.32.7-.7.7s-.7-.31-.7-.7v-2.08Z"/></svg>