<?xml version="1.0" encoding="UTF-8"?>
<svg id="b" xmlns="http://www.w3.org/2000/svg" viewBox="0 0 24 24">
  <path d="m12,2c-.55,0-1,.45-1,1v3.08c.33-.05.66-.08,1-.08s.67.03,1,.08v-3.08c0-.55-.45-1-1-1Z" fill="#444"
    stroke-width="0" />
  <path d="m6.12,4.71l2.4,2.4c-.55.39-1.03.87-1.41,1.41l-2.4-2.4c-.39-.39-.39-1.02,0-1.41.39-.39,1.02-.39,1.41,0Z"
    fill="#444" stroke-width="0" />
  <path d="m3,11h3.08c-.05.33-.08.66-.08,1s.03.67.08,1h-3.08c-.55,0-1-.45-1-1s.45-1,1-1Z" fill="#444"
    stroke-width="0" />
  <path d="m4.71,18.12l2.51-2.51c.4.53.9,1,1.45,1.37l-2.55,2.55c-.39.39-1.02.39-1.41,0-.39-.39-.39-1.02,0-1.41Z"
    fill="#444" stroke-width="0" />
  <path d="m11,21v-3.08c.33.05.66.08,1,.08s.67-.03,1-.08v3.08c0,.55-.45,1-1,1s-1-.45-1-1Z" fill="#444"
    stroke-width="0" />
  <path d="m18.12,19.54l-2.64-2.64c.55-.39,1.03-.87,1.41-1.41l2.64,2.64c.39.39.39,1.02,0,1.41-.39.39-1.02.39-1.41,0Z"
    fill="#444" stroke-width="0" />
  <path d="m21,13h-3.08c.05-.33.08-.66.08-1s-.03-.67-.08-1h3.08c.55,0,1,.45,1,1s-.45,1-1,1Z" fill="#444"
    stroke-width="0" />
  <path d="m19.54,6.12l-2.55,2.55c-.37-.56-.84-1.05-1.37-1.45l2.5-2.5c.39-.39,1.02-.39,1.41,0,.39.39.39,1.02,0,1.41Z"
    fill="#444" stroke-width="0" />
  <path
    d="m11.37,15.95c2.7.41,5-1.88,4.58-4.58-.26-1.68-1.63-3.06-3.32-3.32-2.7-.41-5,1.88-4.58,4.58.26,1.68,1.63,3.06,3.32,3.32Z"
    fill="#444" stroke-width="0" />
</svg>