<?xml version="1.0" encoding="UTF-8"?><svg id="b" xmlns="http://www.w3.org/2000/svg" viewBox="0 0 24 24"><path d="m18.51,6.65H5.49c-2.25,0-3.49,1.24-3.49,3.49v3.72c0,2.25,1.24,3.49,3.49,3.49h13.02c2.25,0,3.49-1.24,3.49-3.49v-3.72c0-2.25-1.24-3.49-3.49-3.49Zm2.09,7.21c0,1.47-.63,2.09-2.09,2.09H5.49c-1.47,0-2.09-.63-2.09-2.09v-3.72c0-1.47.63-2.09,2.09-2.09h.23v3.02c0,.39.31.7.7.7s.7-.31.7-.7v-3.02h2.36l-.04,3.95c0,.39.31.7.69.7h0c.38,0,.69-.31.7-.69l.04-3.96h2.29v2.09c0,.39.31.7.7.7s.7-.31.7-.7v-2.09h2.33v3.95c0,.39.31.7.7.7s.7-.31.7-.7v-3.95h.23c1.47,0,2.09.63,2.09,2.09v3.72Z" fill="#444" stroke-width="0"/></svg>