<svg xmlns="http://www.w3.org/2000/svg" viewBox="0 0 24 24"><g fill="#444"><path d="M20.73 3.82c-.1-.4-.51-.65-.91-.55l-5.45 1.36A2.75 2.75 0 0 0 12 3.25c-1.52 0-2.75 1.23-2.75 2.75S10.48 8.75 12 8.75c.29 0 .57-.06.84-.14l1.08 1.62c-.41.48-.67 1.09-.67 1.77 0 .12.02.23.04.35l-2.16.93c-.5-.62-1.26-1.02-2.12-1.02-1.52 0-2.75 1.23-2.75 2.75s1.23 2.75 2.75 2.75 2.75-1.23 2.75-2.75c0-.12-.02-.23-.04-.35l2.16-.93c.5.62 1.26 1.02 2.12 1.02 1.52 0 2.75-1.23 2.75-2.75S17.52 9.25 16 9.25c-.29 0-.57.06-.84.14l-1.08-1.62c.39-.46.64-1.04.66-1.69l5.44-1.36c.4-.1.65-.51.55-.91ZM9 16.25a1.25 1.25 0 1 1 0-2.5 1.25 1.25 0 0 1 0 2.5M10.75 6a1.25 1.25 0 1 1 2.5 0 1.25 1.25 0 0 1-2.5 0m6.5 6a1.25 1.25 0 1 1-2.5 0 1.25 1.25 0 0 1 2.5 0"/><path d="M21.25 20.44H12c-4.15 0-6.23 0-7.37-1.13-1.13-1.13-1.13-3.2-1.13-7.32V2.81c0-.41-.34-.75-.75-.75S2 2.4 2 2.81V12c0 4.54 0 6.81 1.58 8.38 1.57 1.56 3.86 1.56 8.42 1.56h9.25c.41 0 .75-.34.75-.75s-.34-.75-.75-.75"/></g></svg>