<svg xmlns="http://www.w3.org/2000/svg" viewBox="0 0 24 24"><g fill="#5e656d"><path d="m23.15 12.13-1.71-3-1.71-3c-.5-.85-1.41-1.38-2.39-1.38h-1.09V2.5c0-.41-.34-.75-.75-.75H8.38a4.9 4.9 0 0 0-2.98-1c-1.08.02-2.09.4-2.94 1.1a4.75 4.75 0 0 0-1.7 3.76c.02.88.28 1.72.75 2.43.06.1.15.22.25.35v9.11c0 2.07 1.68 3.75 3.75 3.75h.37c.33 1.15 1.38 2 2.63 2s2.3-.85 2.63-2h2.73c.33 1.15 1.38 2 2.63 2s2.3-.85 2.63-2h.37c2.07 0 3.75-1.68 3.75-3.75v-5c0-.13-.03-.26-.1-.37m-1.4 1.62H19.5c-.14 0-.25-.11-.25-.25v-3c0-.14.11-.25.25-.25h.85l1.4 2.45zm-7-10.5v9.25c0 .69-.56 1.25-1.25 1.25H3.25V9.69c.06.03.12.06.19.09.06.03.12.06.18.08.26.11.53.21.81.27.05.01.1.02.16.03q.405.075.81.09c.03 0 .06.01.1.01h.12c1.17-.02 2.27-.47 3.07-1.24.37-.31.69-.7.94-1.14.44-.75.67-1.61.64-2.48 0-.31-.05-.6-.11-.9 0-.04-.02-.09-.03-.13a5 5 0 0 0-.27-.79c-.02-.05-.05-.1-.07-.15-.03-.06-.05-.12-.08-.17h5.06ZM3.41 3.01a3.28 3.28 0 0 1 2.02-.76h.06c.8 0 1.56.29 2.16.81.69.6 1.08 1.44 1.1 2.37.02.59-.14 1.17-.45 1.7-.16.29-.37.55-.63.77-.56.53-1.3.84-2.1.85-1.01.03-1.89-.38-2.52-1.14-.11-.12-.2-.25-.29-.39-.31-.48-.49-1.04-.5-1.64-.02-1 .4-1.93 1.16-2.56ZM8.5 21.75a1.25 1.25 0 1 1 0-2.5 1.25 1.25 0 0 1 0 2.5m8 0a1.25 1.25 0 1 1 0-2.5 1.25 1.25 0 0 1 0 2.5m5.25-4.25c0 1.24-1.01 2.25-2.25 2.25h-.35c-.02-.07-.05-.14-.08-.21-.02-.05-.03-.1-.06-.15-.06-.13-.13-.26-.2-.38l-.03-.06c-.09-.13-.2-.26-.31-.37-.04-.04-.08-.07-.11-.1-.08-.08-.17-.15-.26-.21-.05-.04-.1-.07-.15-.1-.09-.06-.18-.11-.28-.15a3 3 0 0 0-.5-.17c-.05-.01-.1-.03-.16-.04-.17-.03-.34-.05-.51-.05s-.35.02-.51.05c-.05.01-.1.03-.16.04-.11.03-.22.06-.33.1-.06.02-.11.05-.17.07-.1.05-.19.1-.28.15-.05.03-.1.06-.15.1-.09.07-.18.14-.26.21-.04.03-.08.07-.11.1-.11.12-.22.24-.31.37l-.03.06c-.08.12-.15.24-.2.38l-.06.15c-.03.07-.06.14-.08.21h-2.71c-.02-.07-.05-.14-.08-.21-.02-.05-.03-.1-.06-.15-.06-.13-.13-.26-.2-.38l-.03-.06c-.09-.13-.2-.26-.31-.37-.04-.04-.08-.07-.11-.1-.08-.08-.17-.15-.26-.21-.05-.04-.1-.07-.15-.1-.09-.06-.18-.11-.28-.15a3 3 0 0 0-.5-.17c-.05-.01-.1-.03-.16-.04-.17-.03-.34-.05-.51-.05s-.35.02-.51.05c-.05.01-.1.03-.16.04-.11.03-.22.06-.33.1-.06.02-.11.05-.17.07-.1.05-.19.1-.28.15-.05.03-.1.06-.15.1-.09.07-.18.14-.26.21-.04.03-.08.07-.11.1-.11.12-.22.24-.31.37l-.03.06c-.08.12-.15.24-.2.38l-.06.15c-.03.07-.06.14-.08.21h-.35c-1.24 0-2.25-1.01-2.25-2.25v-2.25h10.25c1.52 0 2.75-1.23 2.75-2.75V6.25h1.09c.45 0 .86.24 1.09.63l1.07 1.87c-.08 0-.15.01-.22.02-.04 0-.09 0-.13.01-.09.02-.18.05-.26.08-.02 0-.04.01-.06.02-.09.04-.18.09-.26.14-.01 0-.02.01-.03.02-.09.06-.18.13-.25.21-.15.15-.27.33-.36.53 0 .01-.01.02-.02.03-.09.21-.14.44-.14.68v3c0 .96.79 1.75 1.75 1.75h2.25v2.25Z"/><path d="M4.43 7.03c.14.14.33.21.52.21s.38-.07.52-.21l2.09-2.02c.3-.29.31-.76.02-1.06a.746.746 0 0 0-1.06-.02L4.95 5.45l-.49-.46a.746.746 0 0 0-1.06.03c-.29.3-.27.77.03 1.06l1.01.96Z"/></g></svg>