<?xml version="1.0" encoding="UTF-8"?><svg id="a" xmlns="http://www.w3.org/2000/svg" viewBox="0 0 24 24"><path d="m19.41,3.06c-.96-1.06-2.35-1.06-4.88-1.06h-.84c-2.52,0-3.91,0-4.88,1.06-.33.36-.53.77-.67,1.26-1.83,0-2.9.07-3.67.92-.81.89-.81,2.16-.81,4.45v4.62c0,2.3,0,3.56.81,4.45.77.85,1.84.92,3.67.92.14.49.35.9.67,1.26.96,1.06,2.35,1.06,4.88,1.06h.84c2.52,0,3.91,0,4.88-1.06.94-1.03.94-2.44.94-5.24v-7.4c0-2.81,0-4.21-.94-5.24Zm-.56,12.64c0,2.34,0,3.63-.54,4.23-.5.55-1.46.57-3.77.57h-.84c-2.31,0-3.27-.02-3.77-.57-.54-.6-.54-1.89-.54-4.23,0-.41-.34-.75-.75-.75s-.75.34-.75.75c0,.99,0,1.8.04,2.49-1.38-.01-2.01-.07-2.34-.43-.42-.46-.42-1.52-.42-3.44v-4.62c0-1.92,0-2.98.42-3.44.33-.36.96-.42,2.34-.43-.04.69-.04,1.5-.04,2.49,0,.41.34.75.75.75s.75-.34.75-.75c0-2.34,0-3.63.54-4.23.5-.55,1.46-.57,3.77-.57h.84c2.31,0,3.27.02,3.77.57.54.6.54,1.89.54,4.23v7.4Z" fill="#444" stroke-width="0"/><path d="m15.24,11.74h0s-.02-.04-.03-.06h0c-.03-.07-.08-.13-.13-.19l-2.1-2.31c-.28-.31-.75-.33-1.06-.05-.31.28-.33.75-.05,1.06l.96,1.06h-5.9c-.41,0-.75.34-.75.75s.34.75.75.75h5.9l-.96,1.06c-.28.31-.26.78.05,1.06.14.13.33.2.51.2.2,0,.41-.08.55-.24l2.1-2.31c.05-.06.1-.12.13-.19h0s.02-.04.03-.06h0c.02-.06.04-.13.04-.19,0-.02,0-.04,0-.07h0s0-.05,0-.07c0-.07-.02-.13-.04-.19Z" fill="#444" stroke-width="0"/></svg>