<?xml version="1.0" encoding="UTF-8"?>
<svg xmlns="http://www.w3.org/2000/svg" viewBox="0 0 24 24">
  <g id="f">
    <path
      d="m12.08,22c-.06,0-.12,0-.18-.02-2.94-.73-9.78-3.19-9.78-10.39,0-5.8,1.61-7.04,1.93-7.23.29-.13,5.35-2.35,7.94-2.35s7.65,2.22,7.87,2.31c.4.23,2.01,1.47,2.01,7.27,0,7.45-7.36,9.84-9.61,10.39-.06.01-.12.02-.18.02ZM4.83,5.65c-.19.19-1.2,1.42-1.2,5.94,0,6.01,5.77,8.2,8.46,8.89,2.63-.68,8.29-2.85,8.29-8.89,0-4.52-1.02-5.75-1.2-5.94-1.45-.63-5.32-2.15-7.17-2.15s-5.72,1.51-7.17,2.15Z"
      fill="#444" stroke-width="0" />
    <path
      d="m12.01,17.04c-.46,0-.84-.38-.84-.84s.37-.84.83-.84.84.38.84.84-.38.84-.84.84h.01Zm-.01-3.16c-.46,0-.84-.38-.84-.84s.38-.84.84-.84c.36,0,.69-.11.99-.31s.53-.47.66-.8.17-.68.11-1.03c-.07-.35-.24-.67-.49-.92-.25-.25-.57-.42-.92-.48-.35-.07-.71-.03-1.03.11s-.61.37-.8.66c-.2.29-.31.64-.31.99,0,.46-.38.84-.84.84s-.84-.38-.84-.84c0-.69.2-1.36.59-1.93.38-.57.93-1.01,1.56-1.27s1.33-.34,2.01-.2c.67.14,1.29.46,1.78.95s.82,1.11.95,1.78c.14.68.06,1.37-.2,2.01-.26.63-.71,1.18-1.28,1.56-.57.38-1.24.59-1.93.59v-.02Z"
      fill="#444" stroke-width="0" />
  </g>
</svg>