<?xml version="1.0" encoding="UTF-8"?><svg id="b" xmlns="http://www.w3.org/2000/svg" viewBox="0 0 18.72 18.96"><g id="c"><g id="d"><path d="m10.85,18.13c0-.45-.37-.82-.82-.78-.25.02-.5.03-.75.03-1.97,0-3.71-.65-5.17-1.92-1.3-1.14-2.14-2.55-2.51-4.2-.08-.36-.38-.61-.73-.61h-.13c-.22,0-.43.1-.57.27-.15.18-.2.41-.15.64.41,1.96,1.4,3.65,2.94,5.02,1.79,1.58,3.91,2.38,6.32,2.38.29,0,.58-.02.86-.04.4-.04.71-.38.71-.79h0Z" fill="#444" stroke-width="0"/><path d="m17.93,9.45c.47,0,.83-.41.78-.88-.09-.98-.32-1.92-.71-2.79-.49-1.14-1.17-2.16-2.03-3.01-.85-.85-1.86-1.53-3-2.03-1.15-.49-2.39-.74-3.7-.74-1.4,0-2.75.29-4,.88-1.2.56-2.25,1.35-3.13,2.34-.03.04-.09.05-.13.04-.05-.02-.08-.07-.08-.12v-1.67c0-.41-.34-.74-.74-.74h-.11c-.4,0-.74.33-.74.74v4.12c0,.4.33.73.73.73h4.13c.41,0,.74-.33.74-.73v-.11c0-.41-.33-.74-.74-.74h-1.98s-.09-.03-.11-.07c-.02-.05-.02-.1.02-.14.75-.89,1.65-1.61,2.67-2.13,1.07-.54,2.24-.82,3.47-.82,2.19,0,4.07.77,5.6,2.3,1.34,1.35,2.1,2.96,2.26,4.82.04.42.36.75.78.75h0Z" fill="#444" stroke-width="0"/><path d="m11.3,10.18l-.84-.84c-.12-.11-.19-.27-.19-.44v-4.24c0-.41-.33-.74-.73-.74h-.11c-.41,0-.74.33-.74.74v4.83c0,.2.08.39.22.53l1.28,1.27c.14.14.32.22.52.22s.38-.08.52-.22l.07-.06c.28-.29.28-.76,0-1.05Z" fill="#444" stroke-width="0"/><path d="m12.62,17.28h0c-.29-.29-.29-.76,0-1.05l1.46-1.46c.07-.07.07-.18,0-.24l-1.46-1.46c-.29-.29-.29-.76,0-1.04h0c.29-.29.76-.29,1.04,0l1.46,1.46c.07.07.18.07.24,0l1.46-1.46c.29-.29.76-.29,1.04,0h0c.29.29.29.76,0,1.04l-1.44,1.46c-.07.07-.07.17,0,.24l1.44,1.46c.29.29.28.75,0,1.04h0c-.29.29-.75.29-1.04,0l-1.46-1.44c-.07-.07-.17-.07-.24,0l-1.46,1.44c-.29.29-.75.28-1.04,0Z" fill="#444" stroke-width="0"/></g></g></svg>