<svg xmlns="http://www.w3.org/2000/svg" viewBox="0 0 24 24"><path fill="#444" fill-rule="evenodd" d="M2.7 2c-.39 0-.7.31-.7.7s.31.7.7.7h1.61c.14 0 .25.11.25.25v6.96c0 2.85 0 4.28.93 5.16.93.89 2.44.89 5.44.89h.37v3.19c0 .06-.03.11-.09.14l-1.39.69c-.35.17-.48.59-.31.94s.59.48.94.31l1.48-.74s.1-.02.14 0l1.48.74c.34.17.76.03.94-.31.17-.34.03-.76-.31-.94l-1.39-.69c-.05-.03-.09-.08-.09-.14v-3.19h.37c3.01 0 4.51 0 5.44-.89s.93-2.31.93-5.16V3.64c0-.14.11-.25.25-.25h1.61c.39 0 .7-.31.7-.7s-.31-.7-.7-.7H2.7Zm12.59 6.25c.27.27.27.71 0 .99l-1.23 1.23c-.13.13-.28.28-.42.39-.16.12-.4.26-.71.26s-.54-.13-.71-.26c-.14-.11-.29-.25-.42-.39l-.57-.57-.16-.16-.16.16-1.2 1.2c-.27.27-.71.27-.99 0a.706.706 0 0 1 0-.99l1.23-1.23c.13-.13.28-.28.42-.39.16-.12.4-.26.71-.26s.54.13.71.26c.14.11.29.25.42.39l.57.57.16.16.16-.16 1.2-1.2c.27-.27.71-.27.99 0"/></svg>