<svg xmlns="http://www.w3.org/2000/svg" viewBox="0 0 24 24"><path fill="#707575" d="M11.46 15.17c-.41 0-.75-.34-.75-.75V8.49c0-.41.34-.75.75-.75s.75.34.75.75v5.93c0 .41-.34.75-.75.75"/><path fill="#707575" d="M14.42 12.21H8.49c-.41 0-.75-.34-.75-.75s.34-.75.75-.75h5.93c.41 0 .75.34.75.75s-.34.75-.75.75M21 21.75c-.19 0-.38-.07-.53-.22l-3.22-3.22c-.29-.29-.29-.77 0-1.06s.77-.29 1.06 0l3.22 3.22c.29.29.29.77 0 1.06-.15.15-.34.22-.53.22"/><path fill="#707575" d="M11.46 20.67c-5.85 0-9.21-3.36-9.21-9.21s3.36-9.21 9.21-9.21 9.21 3.36 9.21 9.21-3.36 9.21-9.21 9.21m0-16.92c-4.97 0-7.71 2.74-7.71 7.71s2.74 7.71 7.71 7.71 7.71-2.74 7.71-7.71-2.74-7.71-7.71-7.71"/></svg>