<?xml version="1.0" encoding="UTF-8"?><svg id="b" xmlns="http://www.w3.org/2000/svg" viewBox="0 0 20 18.97"><g id="c"><g id="d"><path d="m10.92,18.97c-.25,0-.5-.06-.74-.17l-1.85-.92c-.57-.28-.93-.86-.93-1.49v-5.18c0-.49-.18-.95-.51-1.31L.43,2.79c-.28-.31-.43-.71-.43-1.12C0,.75.75,0,1.67,0h16.65c.42,0,.81.15,1.12.43.33.3.53.71.55,1.15.02.45-.13.87-.43,1.21l-6.46,7.1c-.33.36-.51.83-.51,1.31v6.1c0,.26-.06.51-.18.75-.29.59-.89.92-1.5.92ZM1.67,1.5c-.1,0-.17.08-.17.17,0,.04.02.08.04.11l6.46,7.1c.58.64.9,1.46.9,2.32v5.18c0,.06.04.12.09.15l1.85.92c.09.04.19,0,.24-.08l.02-6.17c0-.86.32-1.69.9-2.32l6.46-7.1s.04-.09.04-.12c0-.03-.01-.08-.06-.12-.03-.03-.08-.05-.12-.05H1.67Z" fill="#444" stroke-width="0"/></g></g></svg>