<?xml version="1.0" encoding="UTF-8"?><svg id="d" xmlns="http://www.w3.org/2000/svg" viewBox="0 0 24 24"><path d="m19.95,5.41c-.23-.35-.7-.44-1.04-.21-.34.23-.44.7-.21,1.04,2.31,3.45,2.31,8.08,0,11.53-.23.34-.14.81.21,1.04.13.08.27.12.42.12.24,0,.48-.11.62-.33,2.65-3.94,2.65-9.24,0-13.19Z" fill="#444" fill-rule="evenodd" stroke-width="0"/><path d="m16.51,7.61c-.36.2-.49.66-.29,1.02,1.15,2.09,1.15,4.67,0,6.75-.2.36-.07.82.29,1.02.11.06.24.09.36.09.26,0,.52-.14.66-.39,1.4-2.52,1.4-5.66,0-8.19-.2-.37-.66-.5-1.02-.3Z" fill="#444" fill-rule="evenodd" stroke-width="0"/><path d="m12.29,5.12c-1.71-1.02-3.28.19-4.42,1.07-.47.36-.91.7-1.25.81-.46.15-.85.19-1.24.24-.67.08-1.36.16-2.11.8-1.21,1.03-1.21,2.66-1.21,3.97,0,1.3,0,2.93,1.21,3.96.75.64,1.44.72,2.11.8.38.05.78.09,1.24.24.34.12.78.46,1.25.81.83.64,1.89,1.45,3.07,1.45.45,0,.91-.12,1.39-.4,1.37-.97,1.85-2.77,1.85-6.86s-.47-5.89-1.88-6.89Z" fill="#444" fill-rule="evenodd" stroke-width="0"/></svg>