<?xml version="1.0" encoding="UTF-8"?><svg id="b" xmlns="http://www.w3.org/2000/svg" viewBox="0 0 17.88 7.49"><g id="c"><path id="d" d="m17.13,2.99h-4.49s-.05.01-.07.01c-.34-1.71-1.86-3.01-3.67-3.01s-3.33,1.29-3.67,3.01c-.03,0-.05-.01-.07-.01H.75c-.41,0-.75.34-.75.75s.34.75.75.75h4.41s.05-.01.07-.01c.34,1.71,1.86,3.01,3.67,3.01s3.33-1.29,3.67-3.01c.03,0,.05.01.07.01h4.49c.41,0,.75-.34.75-.75s-.34-.75-.75-.75Zm-8.23,2.99c-1.24,0-2.24-1.01-2.24-2.24s1.01-2.24,2.24-2.24,2.24,1.01,2.24,2.24-1.01,2.24-2.24,2.24Z" fill="#444" stroke-width="0"/></g></svg>