<?xml version="1.0" encoding="UTF-8"?><svg id="b" xmlns="http://www.w3.org/2000/svg" viewBox="0 0 18.69 18.66"><g id="c"><path id="d" d="m13.49,8.79l-3.59-3.59c-.3-.3-.77-.3-1.06,0l-3.6,3.59c-.29.29-.3.77-.01,1.06h.01c.29.3.77.3,1.06,0l1.97-1.98c.13-.12.35-.03.35.15v5.19c0,.42.33.75.75.75s.75-.33.75-.75v-5.19c0-.18.21-.27.34-.15l1.96,1.97c.15.15.34.22.53.22s.38-.07.53-.22c.3-.29.3-.77.01-1.06Zm4.65-3.1c-.21-.51-.46-1-.75-1.46-.04-.07-.08-.13-.13-.2,0-.01-.02-.03-.03-.04-.14-.13-.33-.22-.54-.22-.41,0-.74.32-.76.73v.03c0,.07.01.13.03.19.02.08.05.14.1.21.02.03.04.06.06.1.25.39.45.8.63,1.23.19.46.34.95.44,1.44.08.36.37.62.74.62h.01c.48,0,.84-.45.74-.92-.13-.58-.31-1.16-.54-1.71Zm-.06,4.63h-.15c-.37,0-.65.25-.73.61,0,.01,0,.04,0,.04-.1.48-.26.96-.44,1.41-.19.47-.42.91-.69,1.33-.03.05-.06.1-.07.15-.02.03-.03.07-.04.1,0,.05-.02.11-.02.17v.02c0,.21.08.39.22.52.13.14.32.22.52.22.24,0,.45-.11.57-.28.05-.05.09-.11.11-.17.31-.47.57-.96.78-1.49.24-.57.42-1.15.54-1.75,0-.05.01-.1.01-.15,0-.36-.25-.66-.6-.73ZM14.61,1.39c-.51-.33-1.05-.61-1.62-.84-.5-.21-1.01-.37-1.53-.48,0,0-.28-.04-.41-.06-.39.01-.7.31-.7.71v.03c0,.09.03.18.06.26.04.09.09.16.16.23.1.11.23.2.39.24.5.11.99.26,1.47.46.47.21.92.44,1.35.72.3.2.71.16.96-.1h.01c.33-.36.26-.91-.14-1.17Zm.1,14.7h-.01c-.26-.27-.66-.28-.96-.08-.43.28-.88.52-1.35.71-.48.19-.97.34-1.47.44-.05,0-.09.02-.13.04-.18.07-.33.2-.4.36-.02.03-.03.05-.04.08-.01.03-.02.07-.03.1,0,.05-.02.09-.02.14v.02c.01.42.33.73.75.73h.01s.09-.01.13-.01c.61-.12,1.2-.3,1.78-.53.56-.22,1.1-.49,1.61-.82.41-.26.48-.84.13-1.18ZM8.33.52c-.12-.35-.47-.57-.82-.51-.04.01-.08.01-.12.03-.57.12-1.13.3-1.67.51-.56.23-1.09.5-1.6.83-.41.26-.47.83-.13,1.17h.01c.26.27.66.29.96.09.42-.28.86-.52,1.33-.71.45-.18.92-.33,1.4-.44,0,.01.03,0,.04-.01.22-.05.41-.18.52-.36.04-.08.07-.16.09-.25.01-.04.01-.08.01-.13v-.07s-.01-.1-.02-.15Zm-.05,17.21s-.01-.06-.03-.09c-.01-.04-.03-.08-.05-.11-.1-.18-.27-.31-.49-.36t-.02,0c-.5-.11-.98-.26-1.44-.46-.46-.2-.9-.44-1.32-.72-.02,0-.04-.03-.07-.03-.11-.07-.24-.1-.37-.1h-.01s-.09,0-.14.02c-.1.02-.19.05-.27.11-.04.03-.08.06-.11.1-.04.03-.07.07-.09.1-.08.12-.13.27-.13.42,0,.16.05.3.13.42.06.1.16.18.26.24.49.33,1.01.6,1.55.83.51.21,1.03.38,1.57.5l.32.07c.17,0,.3-.06.42-.15.1-.06.17-.16.23-.27.06-.11.08-.22.08-.35v-.02s-.01-.09-.02-.14ZM2.76,4.36s-.02-.09-.04-.13c-.02-.07-.06-.14-.11-.19-.01-.02-.03-.04-.05-.06l-.09-.08c-.15-.11-.35-.16-.54-.13-.04.01-.08.01-.12.03-.14.04-.23.12-.32.22-.04.06-.08.1-.12.17-.32.47-.59.96-.8,1.5-.23.56-.41,1.14-.54,1.73-.01.05-.02.1-.02.15,0,.42.33.75.75.75h.01c.09,0,.18-.02.26-.05.01,0,.01-.01.02-.01.09-.04.17-.1.24-.17.03-.03.05-.06.08-.09.04-.07.09-.12.11-.19.02-.03.02-.08.03-.11.1-.49.25-.98.44-1.44.18-.44.4-.86.65-1.26.03-.04.05-.08.07-.12.01-.02.02-.03.02-.05.03-.05.05-.11.06-.17,0-.05.02-.11.02-.16v-.07s0-.05-.01-.07Zm0,9.61s-.01-.06-.03-.09c-.02-.06-.04-.12-.08-.17-.27-.42-.5-.86-.69-1.33-.19-.46-.34-.95-.44-1.44-.08-.36-.37-.62-.74-.62h-.01c-.48,0-.84.45-.74.92.13.58.31,1.16.54,1.71.23.56.51,1.1.84,1.6.13.2.36.33.62.33.42,0,.74-.32.75-.74h0c0-.06-.01-.12-.02-.17Z" fill="#444" stroke-width="0"/></g></svg>