<svg xmlns="http://www.w3.org/2000/svg" width="24" height="24" viewBox="0 0 24 24"><g fill="#707575"><path d="M19.23 5.44c-.71-.71-1.61-1.22-2.75-1.57V2.79c0-.43-.35-.79-.79-.79s-.79.35-.79.79v.75c-.86-.13-1.81-.2-2.91-.2s-2.04.07-2.9.2V2.8c0-.43-.35-.79-.79-.79s-.79.35-.79.79v1.08c-1.15.34-2.05.86-2.76 1.57-1.45 1.45-2.1 3.68-2.1 7.23s.65 5.78 2.1 7.23 3.68 2.1 7.23 2.1 5.78-.65 7.23-2.1 2.1-3.68 2.1-7.23-.65-5.78-2.1-7.23ZM8.31 6.58c.43 0 .79-.35.79-.79v-.67c.82-.14 1.78-.21 2.9-.21s2.08.07 2.91.21v.67c0 .43.35.79.79.79s.79-.35.79-.79v-.26c.67.26 1.21.59 1.64 1.02.53.53.92 1.24 1.19 2.15H4.69c.27-.91.66-1.62 1.19-2.15.43-.43.97-.77 1.64-1.03v.27c0 .43.35.79.79.79m11.3 3.7c.09.71.14 1.49.14 2.39 0 3.1-.51 4.99-1.64 6.12s-3.02 1.64-6.12 1.64-4.98-.51-6.12-1.64-1.64-3.02-1.64-6.12c0-.9.05-1.69.14-2.39z"/><path d="M16.07 13.9c.43 0 .79-.35.79-.79s-.35-.79-.8-.79-.79.35-.79.79.35.79.8.79m-4.06 0c.43 0 .79-.35.79-.79s-.35-.79-.8-.79-.79.35-.79.79.35.79.8.79m-4.06 0c.43 0 .79-.35.79-.79s-.35-.79-.8-.79-.79.35-.79.79.35.79.8.79m8.12 3.55c.43 0 .79-.35.79-.79s-.35-.79-.8-.79-.79.35-.79.79.35.79.8.79m-4.06 0c.43 0 .79-.35.79-.79s-.35-.79-.8-.79-.79.35-.79.79.35.79.8.79m-4.06 0c.43 0 .79-.35.79-.79s-.35-.79-.8-.79-.79.35-.79.79.35.79.8.79"/></g></svg>