<svg xmlns="http://www.w3.org/2000/svg" viewBox="0 0 24 24"><path fill="#444" d="M18.88 5.85a2.16 2.16 0 0 0-.78-.78c-.5-.29-1.02-.29-1.98-.29h-3.38V2.76c0-.41-.34-.75-.75-.75s-.75.34-.75.75v2.02H7.86c-.96 0-1.49 0-1.98.29-.32.19-.59.46-.78.78-.28.5-.28 1.03-.28 1.99s0 1.5.28 1.99c.19.32.45.59.78.78.5.29 1.02.29 1.98.29h3.38v2.2H9.7c-.96 0-1.49 0-1.98.29-.32.19-.59.46-.78.78-.28.5-.28 1.03-.28 1.99s0 1.5.28 1.99c.19.32.45.59.78.78.5.29 1.02.29 1.98.29h1.54v2.02c0 .41.34.75.75.75s.75-.34.75-.75v-2.02h1.54c.96 0 1.49 0 1.98-.29.32-.19.59-.46.78-.78.28-.5.28-1.03.28-1.99s0-1.5-.28-1.99a2.16 2.16 0 0 0-.78-.78c-.5-.29-1.02-.29-1.98-.29h-1.54v-2.2h3.38c.96 0 1.49 0 1.98-.29.32-.19.59-.46.78-.78.28-.5.28-1.03.28-1.99s0-1.5-.28-1.99m-3.37 8.84c.09.06.17.14.23.23.08.15.08.61.08 1.25s0 1.1-.08 1.25c-.06.1-.14.18-.23.23-.14.08-.6.08-1.23.08H9.7c-.63 0-1.08 0-1.23-.08a.8.8 0 0 1-.23-.23c-.08-.15-.08-.61-.08-1.25s0-1.1.08-1.25c.06-.1.14-.18.23-.23.14-.08.6-.08 1.23-.08h4.58c.63 0 1.08 0 1.23.08m2.06-5.6c-.06.1-.14.18-.23.23-.14.08-.6.08-1.23.08H7.87c-.63 0-1.08 0-1.23-.08a.8.8 0 0 1-.23-.23c-.08-.15-.08-.61-.08-1.25s0-1.1.08-1.25c.06-.1.14-.18.23-.23.14-.08.6-.08 1.23-.08h8.25c.63 0 1.08 0 1.23.08.09.06.17.14.23.23.08.15.08.61.08 1.25s0 1.1-.08 1.25Z"/></svg>