<svg xmlns="http://www.w3.org/2000/svg" viewBox="0 0 24 24"><path fill="#333" d="M10.98 9.34c.27.27.63.42 1.02.42s.75-.15 1.01-.42l2.16-2.19c.55-.55.55-1.45 0-2.01l-2.16-2.19c-.56-.56-1.47-.56-2.03 0L8.82 5.14a1.43 1.43 0 0 0 0 2.01zm-.83-3.41 1.63-1.64c.12-.12.32-.12.44 0l1.63 1.64c.12.12.12.31 0 .43L12.22 8c-.12.12-.32.12-.44 0l-1.63-1.64a.3.3 0 0 1 0-.43m10.81 5.52L18.8 9.26a1.423 1.423 0 0 0-2.02 0l-2.16 2.19a1.43 1.43 0 0 0 0 2.01l2.16 2.19a1.423 1.423 0 0 0 2.02 0l2.16-2.19c.55-.55.55-1.46 0-2.01m-1.33 1.22L18 14.31c-.12.12-.32.12-.44 0l-1.63-1.64a.3.3 0 0 1 0-.43l1.63-1.64c.12-.12.32-.12.44 0l1.63 1.64c.12.12.12.31 0 .43m-6.61 1.99c-.56-.56-1.47-.56-2.03 0l-2.16 2.19a1.43 1.43 0 0 0 0 2.01l2.16 2.19c.27.27.63.42 1.02.42s.75-.15 1.01-.42l2.16-2.19c.55-.55.55-1.45 0-2.01zm.83 3.41-1.63 1.64c-.12.12-.32.12-.44 0l-1.63-1.64a.3.3 0 0 1 0-.43L11.78 16c.12-.12.32-.12.44 0l1.63 1.64c.12.12.12.31 0 .43M9.39 11 7.23 8.81a1.423 1.423 0 0 0-2.02 0L3.05 11a1.43 1.43 0 0 0 0 2.01l2.16 2.19a1.423 1.423 0 0 0 2.02 0l2.16-2.19c.55-.55.55-1.46 0-2.01m-1.33 1.22-1.63 1.64c-.12.12-.32.12-.44 0l-1.63-1.64a.3.3 0 0 1 0-.43l1.63-1.64c.12-.12.32-.12.44 0l1.63 1.64c.12.12.12.31 0 .43"/></svg>