<?xml version="1.0" encoding="UTF-8"?><svg id="b" xmlns="http://www.w3.org/2000/svg" viewBox="0 0 24 24"><path d="m13.58,5.55c.85-1.13,1.8-2.29,3.45-3.27,1.3-.77,2.8.13,3,1.5.25,1.72.43,3.89.21,5.7-.06.52.14,1.03.52,1.38l.53.49c.45.42.73,1.02.71,1.67-.12,2.71-.98,4.99-2.69,6.58-1.71,1.59-4.17,2.4-7.3,2.4s-5.6-.81-7.31-2.4c-1.71-1.59-2.57-3.87-2.69-6.58-.03-.65.25-1.25.71-1.67l.53-.48c.38-.35.59-.86.52-1.38-.22-1.8-.04-3.96.21-5.68.2-1.39,1.73-2.28,3.04-1.5,1.62.97,2.57,2.12,3.4,3.23,0,.01.02.02.03.01.36-.06.89-.12,1.56-.12s1.18.06,1.54.12h.04Zm1.39,4.53c-.51,0-.93.41-.93.93v.74c0,.51.41.93.93.93s.93-.41.93-.93v-.74c0-.51-.41-.93-.93-.93Zm-5.93,0c-.51,0-.93.41-.93.93v.74c0,.51.41.93.93.93s.93-.41.93-.93v-.74c0-.51-.41-.93-.93-.93Zm1.22,4.82c.23.53.66.95.98,1.2-.06.12-.2.28-.43.36-.24.09-.55.07-.85-.23-.29-.29-.76-.29-1.05,0-.29.29-.29.76,0,1.05.73.73,1.64.85,2.39.58.25-.09.49-.22.7-.4.21.17.45.31.7.4.75.26,1.66.15,2.39-.58.29-.29.29-.76,0-1.05-.29-.29-.76-.29-1.05,0-.3.3-.61.32-.85.23-.23-.08-.37-.23-.43-.36.32-.25.75-.67.98-1.2.13-.31.1-.65-.07-.92-.15-.25-.38-.38-.57-.44-.24-.08-.64-.16-1.11-.16s-.86.08-1.11.16c-.19.06-.42.19-.57.44-.17.27-.2.61-.07.92Z" fill-rule="evenodd" stroke-width="0"/></svg>