<svg xmlns="http://www.w3.org/2000/svg" viewBox="0 0 24 24"><path fill="#444" fill-rule="evenodd" d="M10 2.62c-.68 0-1.26.38-1.55.94a.11.11 0 0 1-.1.06c-.66 0-1.17.04-1.62.22-.57.22-1.07.6-1.43 1.09-.37.49-.54 1.13-.78 2l-.04.17-.52 2.96c-.18.13-.34.28-.48.46-.9 1.15-.47 2.87.38 6.3.55 2.18.82 3.27 1.64 3.91.81.64 1.93.64 4.18.64h4.64c2.25 0 3.37 0 4.18-.64.82-.64 1.09-1.73 1.64-3.91.85-3.43 1.28-5.15.38-6.3-.14-.18-.3-.33-.49-.46l-.51-2.96-.04-.17c-.24-.87-.41-1.5-.78-2-.36-.49-.86-.87-1.43-1.09-.45-.18-.96-.21-1.62-.22a.11.11 0 0 1-.1-.06c-.29-.56-.87-.94-1.55-.94zm8.16 6.86c.13.02.24-.1.22-.23l-.31-1.82c-.29-1.04-.39-1.37-.56-1.6-.2-.26-.47-.47-.77-.59-.22-.09-.49-.11-1.15-.12-.28.59-.88 1-1.58 1h-4c-.7 0-1.3-.41-1.58-1-.66 0-.93.03-1.15.12-.3.12-.57.32-.77.59-.17.23-.27.56-.56 1.6l-.31 1.82c-.02.13.08.25.22.23.97-.11 2.22-.11 3.84-.11h4.64c1.62 0 2.87 0 3.84.11ZM8 12.62c.41 0 .75.34.75.75v4c0 .41-.34.75-.75.75s-.75-.34-.75-.75v-4c0-.41.34-.75.75-.75m8.75.75c0-.41-.34-.75-.75-.75s-.75.34-.75.75v4c0 .41.34.75.75.75s.75-.34.75-.75zM12 12.62c.41 0 .75.34.75.75v4c0 .41-.34.75-.75.75s-.75-.34-.75-.75v-4c0-.41.34-.75.75-.75"/></svg>