<?xml version="1.0" encoding="UTF-8"?><svg id="d" xmlns="http://www.w3.org/2000/svg" viewBox="0 0 24 24"><path d="m15.59,14.95h-7.22c-.41,0-.75.34-.75.75s.34.75.75.75h7.22c.41,0,.75-.34.75-.75s-.34-.75-.75-.75Z" fill="#444" stroke-width="0"/><path d="m15.59,11.19h-7.22c-.41,0-.75.34-.75.75s.34.75.75.75h7.22c.41,0,.75-.34.75-.75s-.34-.75-.75-.75Z" fill="#444" stroke-width="0"/><path d="m8.38,8.93h2.75c.41,0,.75-.34.75-.75s-.34-.75-.75-.75h-2.75c-.41,0-.75.34-.75.75s.34.75.75.75Z" fill="#444" stroke-width="0"/><path d="m12,2C5.25,2,2.86,4.62,2.86,12s2.39,10,9.14,10,9.14-2.62,9.14-10S18.75,2,12,2Zm0,18.5c-5.86,0-7.64-1.99-7.64-8.5S6.14,3.5,12,3.5s7.64,1.99,7.64,8.5-1.79,8.5-7.64,8.5Z" fill="#444" stroke-width="0"/></svg>