<svg xmlns="http://www.w3.org/2000/svg" viewBox="0 0 24 24"><g fill="#5e656d"><path d="M15 11.45H8c-.41 0-.75.34-.75.75s.34.75.75.75h7c.41 0 .75-.34.75-.75s-.34-.75-.75-.75m-2.62 4H8c-.41 0-.75.34-.75.75s.34.75.75.75h4.38c.41 0 .75-.34.75-.75s-.34-.75-.75-.75"/><path d="M16.7 3.33c-.27-2.07-1.83-2.08-2.7-2.08h-4c-.87 0-2.43 0-2.7 2.08C3.73 3.72 2.25 5.7 2.25 10v6c0 4.17 1.13 6.75 6.75 6.75h6c5.62 0 6.75-2.58 6.75-6.75v-6c0-4.3-1.47-6.28-5.05-6.67M10 2.75h4c.99 0 1.25 0 1.25 1.25 0 .99 0 1.25-1.25 1.25h-4c-.99 0-1.25 0-1.25-1.25S9.01 2.75 10 2.75M20.25 16c0 3.7-.73 5.25-5.25 5.25H9c-4.52 0-5.25-1.55-5.25-5.25v-6c0-3.85 1.2-4.9 3.57-5.17.33 1.91 1.83 1.92 2.68 1.92h4c2.06 0 2.58-1.01 2.71-1.92 2.35.28 3.54 1.33 3.54 5.17z"/></g></svg>