<svg xmlns="http://www.w3.org/2000/svg" viewBox="0 0 24 24"><path fill="#5e656d" d="M13.1 21.64h-.64c-.44 0-.8-.36-.8-.8v-1.55c0-.66-.57-1.19-1.27-1.19s-1.27.53-1.27 1.19v1.55c0 .44-.36.8-.8.8h-1.1c-1.67 0-2.5 0-3.26-.37-.67-.33-1.21-.85-1.56-1.5-.39-.74-.39-1.56-.39-3.17v-1.5c0-.44.36-.8.8-.8h1.38c.83 0 1.5-.63 1.5-1.41s-.67-1.41-1.5-1.41H2.81c-.44 0-.8-.36-.8-.8 0-1.34 0-2.02.28-2.66.37-.85 1.05-1.51 1.93-1.86.65-.26 1.35-.26 2.73-.26h.12v-.53c0-1.66 1.39-3.01 3.1-3.01s3.1 1.35 3.1 3.01v.53h.12c1.39 0 2.08 0 2.73.26.87.35 1.57 1.02 1.93 1.86.21.5.26 1.02.27 1.86h.58c1.71 0 3.1 1.35 3.1 3.01s-1.39 3.01-3.1 3.01h-.58v.7c0 1.62 0 2.43-.39 3.17-.35.65-.89 1.17-1.56 1.5-.76.37-1.59.37-3.26.37Zm-9.5-5.75v.7c0 1.31 0 2.03.21 2.42.18.35.49.64.85.81.42.21 1.18.21 2.56.21h.3v-.75c0-1.54 1.29-2.79 2.87-2.79s2.87 1.25 2.87 2.79v.75c1.28 0 1.99 0 2.4-.21.37-.18.67-.46.85-.82.21-.39.21-1.11.21-2.42v-1.5c0-.44.36-.8.8-.8h1.38c.83 0 1.5-.63 1.5-1.41s-.67-1.41-1.5-1.41h-1.38c-.44 0-.8-.36-.8-.8 0-1.09 0-1.69-.14-2.02-.19-.45-.58-.82-1.05-1.01-.37-.15-1-.15-2.14-.15h-.92c-.44 0-.8-.36-.8-.8V5.35c0-.78-.67-1.41-1.5-1.41s-1.5.63-1.5 1.41v1.33c0 .44-.36.8-.8.8h-.92c-1.15 0-1.78 0-2.14.15-.48.19-.86.55-1.06 1.01-.1.24-.13.62-.14 1.22h.58c1.71 0 3.1 1.35 3.1 3.01s-1.39 3.01-3.1 3.01h-.58Z"/></svg>