<?xml version="1.0" encoding="UTF-8"?><svg id="b" xmlns="http://www.w3.org/2000/svg" viewBox="0 0 18 13.9"><g id="c"><path id="d" d="m2.78,13.67c.3.3.79.3,1.09,0l2.57-2.57c.31-.29.33-.78.04-1.09-.29-.31-.78-.33-1.09-.04-.01.01-.03.03-.04.04l-1.26,1.26V.77c0-.43-.35-.77-.77-.77s-.77.35-.77.77v10.49l-1.26-1.26c-.31-.29-.8-.27-1.09.04-.28.3-.28.76,0,1.05l2.57,2.57Zm6.47-1.58c0,.43.35.77.77.77h7.21c.43,0,.77-.35.77-.77s-.35-.77-.77-.77h-7.21c-.43,0-.77.35-.77.77m-1.03-3.6c0,.43.35.77.77.77h5.15c.43,0,.77-.35.77-.77s-.35-.77-.77-.77h-5.15c-.43,0-.77.35-.77.77m0-3.6c0,.43.35.77.77.77h3.09c.43,0,.77-.35.77-.77s-.35-.77-.77-.77h-3.09c-.43,0-.77.35-.77.77m0-3.09c0,.43.35.77.77.77h1.03c.43,0,.77-.35.77-.77s-.35-.77-.77-.77h-1.03c-.43,0-.77.35-.77.77" fill="#444" stroke-width="0"/></g></svg>