<svg xmlns="http://www.w3.org/2000/svg" viewBox="0 0 24 24"><path fill="#444" d="M12.25 21.25c-2.72 0-5.04-1.07-6.54-3.02-1.88-2.43-2.34-5.92-1.32-9.82.9-3.44 3.99-5.66 7.86-5.66s6.96 2.22 7.86 5.66c.11.4-.13.81-.54.92a.753.753 0 0 1-.92-.54c-.88-3.35-4-4.54-6.41-4.54S6.71 5.44 5.83 8.79c-.89 3.4-.51 6.5 1.06 8.53 1.23 1.59 3.08 2.43 5.36 2.43 3.02 0 5.18-1.94 5.53-3.82.19-1.05-.18-1.95-1.07-2.61a.2.2 0 0 0-.31.12c-.36 1.45-1.28 2.56-2.64 3.14-1.64.7-3.57.44-4.71-.64-.92-.88-1.04-2.18-.32-3.33.93-1.48 3.16-2.47 6.21-1.68a3.05 3.05 0 0 0-1.78-2.14c-1.09-.47-2.38-.32-3.08.34-.3.29-.78.27-1.06-.03-.29-.3-.27-.77.03-1.06 1.13-1.08 3.07-1.34 4.71-.64 1.61.69 2.6 2.12 2.78 3.97 0 .07.05.12.11.15 2 .97 2.97 2.68 2.61 4.66-.45 2.45-3.06 5.05-7 5.05Zm.64-9.09c-1.42 0-2.44.54-2.88 1.25-.33.53-.3 1.07.09 1.44.7.66 1.99.81 3.08.34.62-.27 1.62-.93 1.85-2.49.02-.1-.05-.21-.15-.24-.72-.21-1.39-.31-1.98-.31Z"/></svg>