<svg xmlns="http://www.w3.org/2000/svg" viewBox="0 0 24 24"><g fill="#444"><path d="M17.75 19.11c-.12 0-.23.01-.34.04l-.45-.46c-.34-.34-.53-.8-.53-1.28v-.79c0-.41-.34-.75-.75-.75s-.75.34-.75.75v.79c0 .88.34 1.71.96 2.34l.46.46a1.44 1.44 0 0 0 1.4 1.78c.79 0 1.44-.65 1.44-1.44s-.65-1.44-1.44-1.44m-9.43-3.23c-.41 0-.75.34-.75.75v.79c0 .48-.19.94-.53 1.28l-.45.46a1.447 1.447 0 0 0-1.78 1.4c0 .79.65 1.44 1.44 1.44a1.447 1.447 0 0 0 1.4-1.78l.46-.46c.62-.62.96-1.46.96-2.34v-.79c0-.41-.34-.75-.75-.75m4.43 3.44v-2.7c0-.41-.34-.75-.75-.75s-.75.34-.75.75v2.7a1.44 1.44 0 0 0 .75 2.67c.79 0 1.44-.65 1.44-1.44 0-.52-.28-.98-.69-1.23"/><path d="M16.61 6.12A5.94 5.94 0 0 0 10.97 2C7.72 2 5.08 4.65 5.08 7.9c0 .19.01.39.03.58C3.27 9.2 2 11.02 2 13.03c0 2.26 1.55 4.14 3.65 4.68.06.02.12.04.19.05.03.01.07.01.11.01.17 0 .32-.05.44-.14.2-.13.33-.36.33-.62a.77.77 0 0 0-.61-.75c-1.47-.34-2.58-1.66-2.58-3.23 0-1.56 1.09-2.91 2.6-3.26.42-.09.68-.51.59-.92-.07-.31-.1-.62-.11-.93a4.38 4.38 0 0 1 4.36-4.38c2.07 0 3.86 1.47 4.27 3.49.07.35.48.61.85.61 2.4 0 4.36 1.96 4.36 4.36 0 1.82-1.14 3.38-2.73 4.02-.04.02-.07.04-.11.05a.777.777 0 0 0 0 1.38.7.7 0 0 0 .61.04c.03-.01.05-.02.08-.03C20.46 16.6 22 14.47 22 12c0-3.09-2.38-5.62-5.39-5.88"/></g></svg>