<svg xmlns="http://www.w3.org/2000/svg" viewBox="0 0 24 24"><path d="M11.35 4.92c-.26-.64-.76-1.14-1.4-1.4-.24-.1-.5-.15-.85-.18-.28-.02-.63-.02-1.06-.02h-1.2c-.43 0-.78 0-1.06.02-.35.02-.62.08-.85.18-.64.27-1.14.76-1.4 1.4-.1.24-.15.5-.18.85-.02.28-.02.63-.02 1.06v1.2c0 .43 0 .77.02 1.06.02.35.08.62.18.85.27.64.76 1.14 1.4 1.4.24.1.5.15.85.18.28.02.63.02 1.06.02h1.2c.43 0 .78 0 1.06-.02.35-.02.62-.08.85-.18.64-.26 1.14-.76 1.4-1.4.1-.24.15-.5.18-.85.02-.28.02-.63.02-1.06v-1.2c0-.43 0-.78-.02-1.06-.02-.35-.08-.62-.18-.85m-1.24 1.93v1.17c0 .43 0 .74-.02.98-.01.19-.04.31-.07.4-.12.28-.34.51-.62.62-.09.04-.21.06-.4.07-.24.02-.53.02-.98.02H6.85c-.43 0-.74 0-.97-.02a1.5 1.5 0 0 1-.4-.07 1.1 1.1 0 0 1-.62-.62c-.04-.09-.06-.21-.07-.4-.02-.24-.02-.54-.02-.98V6.85c0-.43 0-.74.02-.98.01-.19.04-.32.07-.4.12-.28.34-.51.62-.62.09-.04.21-.06.4-.07.24-.02.54-.01.98-.02h1.17c.44 0 .74 0 .98.02.19.01.31.04.4.07.28.12.51.34.62.62.04.09.06.21.07.4.02.24.02.54.02.98Zm1.24 7.2c-.26-.63-.77-1.14-1.4-1.4-.24-.1-.5-.15-.85-.18-.28-.02-.63-.02-1.06-.02h-1.2c-.43 0-.78 0-1.06.02-.35.02-.62.08-.85.18-.63.26-1.14.77-1.4 1.4-.1.24-.15.5-.18.85-.02.28-.02.63-.02 1.06v1.2c0 .43 0 .78.02 1.06.02.35.08.62.18.85.26.64.76 1.14 1.4 1.4.24.1.5.15.85.18.28.02.63.02 1.06.02h1.2c.43 0 .78 0 1.06-.02.35-.02.62-.08.85-.18.64-.27 1.14-.76 1.4-1.4.1-.24.15-.5.18-.85.02-.28.02-.63.02-1.06v-1.2c0-.43 0-.77-.02-1.06-.02-.35-.08-.62-.18-.85m-1.24 1.93v1.17c0 .43 0 .74-.02.97-.01.19-.04.31-.07.4-.12.29-.34.51-.62.62-.06.03-.16.06-.4.07-.24.02-.53.02-.98.02H6.85c-.43 0-.74 0-.97-.02a1.5 1.5 0 0 1-.4-.07c-.29-.12-.51-.34-.62-.63-.04-.09-.06-.21-.07-.4-.02-.24-.02-.54-.02-.97v-1.17c0-.43 0-.74.02-.97.01-.19.04-.31.07-.4.12-.29.34-.51.62-.62.09-.04.21-.06.4-.07.24-.02.54-.02.98-.02h1.17c.43 0 .74 0 .98.02.19.01.31.04.4.07.28.12.51.34.62.63.04.09.06.21.07.4.02.24.02.54.02.97Zm10.55-10.2c-.02-.35-.08-.62-.18-.85-.26-.63-.77-1.14-1.4-1.4-.24-.1-.5-.15-.85-.18-.28-.02-.63-.02-1.06-.02h-1.2c-.43 0-.77 0-1.06.02-.35.02-.61.08-.85.18-.63.26-1.14.77-1.4 1.4-.1.24-.15.5-.18.85-.02.28-.02.63-.02 1.06v1.2c0 .43 0 .77.02 1.06.02.35.08.62.18.85.26.63.77 1.14 1.4 1.4.24.1.5.15.85.18.28.02.63.02 1.06.02h1.2c.43 0 .78 0 1.06-.02.35-.02.62-.08.86-.18.63-.26 1.14-.77 1.4-1.4.1-.24.15-.5.18-.85.02-.28.02-.63.02-1.06v-1.2c0-.43 0-.77-.02-1.06Zm-1.42 1.07v1.17c0 .43 0 .74-.02.98-.01.19-.04.31-.07.4-.12.28-.34.51-.62.62-.09.04-.21.06-.4.07-.24.02-.54.02-.97.02h-1.17c-.42 0-.74 0-.97-.02-.19-.01-.32-.04-.4-.07A1.1 1.1 0 0 1 14 9.4c-.04-.09-.06-.21-.07-.4-.01-.24-.01-.54-.01-.98V6.85c0-.44 0-.74.01-.98.01-.19.04-.31.07-.4.12-.28.34-.51.62-.62.09-.04.21-.06.4-.07.24-.02.56-.02.97-.02h1.17c.43 0 .74 0 .97.02.19.01.32.04.4.07.28.12.51.34.62.62.04.09.06.21.07.4.02.24.02.54.02.98m1.24 7.2c-.26-.64-.76-1.14-1.4-1.4-.24-.1-.5-.15-.85-.18-.28-.02-.63-.02-1.06-.02h-1.2c-.43 0-.77 0-1.06.02-.35.02-.61.08-.85.18-.63.26-1.14.77-1.4 1.4-.1.24-.15.5-.18.85-.02.28-.02.63-.02 1.06v1.2c0 .43 0 .78.02 1.06.02.35.08.62.18.85.26.64.76 1.14 1.4 1.4.24.1.5.15.85.18.28.02.63.02 1.06.02h1.2c.43 0 .78 0 1.06-.02.35-.02.62-.08.86-.18.64-.27 1.14-.76 1.4-1.4.1-.24.15-.5.18-.85.02-.28.02-.63.02-1.06v-1.2c0-.43 0-.77-.02-1.06-.02-.35-.08-.62-.18-.85Zm-1.24 1.93v1.17c0 .43 0 .74-.02.98-.01.19-.04.31-.07.4-.12.29-.34.51-.62.62-.09.04-.22.06-.4.07-.24.02-.54.02-.97.02h-1.17c-.42 0-.74 0-.97-.02-.19-.01-.32-.04-.4-.07-.29-.12-.51-.34-.62-.63-.04-.09-.06-.21-.07-.4-.01-.24-.01-.54-.01-.98v-1.17c0-.44 0-.74.01-.97.01-.19.04-.31.07-.4.12-.29.34-.51.62-.62.09-.04.21-.06.4-.07.24-.02.56-.01.97-.02h1.17c.43 0 .74 0 .97.02.19.01.32.04.4.07.29.12.51.34.62.63.04.09.06.21.07.4.02.24.02.54.02.97"/></svg>