<svg xmlns="http://www.w3.org/2000/svg" viewBox="0 0 24 24"><path fill="#5e656d" d="m21.9 11.63-1.58-2.79-1.58-2.79a2.63 2.63 0 0 0-2.26-1.32h-.95V2.69c0-.41-.34-.75-.75-.75H6.45C4 1.94 2 3.95 2 6.41v10.24c0 1.95 1.58 3.54 3.53 3.54h.3c.32 1.07 1.3 1.86 2.48 1.86s2.15-.79 2.48-1.86h2.44c.32 1.07 1.31 1.86 2.48 1.86s2.15-.79 2.48-1.86h.3c1.94 0 3.53-1.59 3.53-3.54v-4.66c0-.13-.03-.26-.1-.37Zm-1.4 1.48h-2.03c-.09 0-.17-.08-.17-.18v-2.79c0-.1.08-.18.17-.18h.76l1.27 2.24zm-17-6.7a2.96 2.96 0 0 1 2.95-2.97h7.58V12c0 .61-.49 1.11-1.1 1.11H3.5zm4.8 14.15c-.61 0-1.1-.5-1.1-1.11s.49-1.11 1.1-1.11 1.1.5 1.1 1.11-.49 1.11-1.1 1.11m7.4 0c-.61 0-1.1-.5-1.1-1.11s.49-1.11 1.1-1.11 1.1.5 1.1 1.11-.49 1.11-1.1 1.11m4.8-3.91c0 1.13-.91 2.04-2.03 2.04h-.28c-.02-.06-.04-.11-.06-.16l-.06-.15c-.05-.11-.11-.21-.17-.31-.02-.03-.04-.07-.06-.1a2 2 0 0 0-.29-.35c-.03-.03-.06-.05-.09-.08-.08-.08-.17-.15-.27-.22-.04-.03-.09-.06-.14-.09l-.27-.15c-.05-.02-.1-.05-.16-.07-.1-.04-.2-.07-.31-.1-.05-.01-.1-.03-.15-.04-.16-.03-.32-.05-.48-.05s-.33.02-.48.05c-.05 0-.1.02-.15.04-.11.03-.21.06-.31.1-.05.02-.1.04-.15.07-.09.04-.19.09-.27.15-.04.03-.09.05-.13.08-.1.07-.19.15-.27.23-.03.02-.05.05-.08.07-.11.11-.21.23-.29.36-.02.03-.03.06-.05.09-.06.1-.12.21-.17.32l-.06.15c-.02.06-.05.11-.06.17h-2.42c-.02-.06-.04-.11-.06-.17l-.06-.15c-.05-.11-.11-.22-.17-.32-.02-.03-.03-.06-.05-.09-.09-.13-.19-.25-.29-.36-.02-.03-.05-.05-.08-.07-.09-.08-.18-.16-.27-.23a1 1 0 0 0-.13-.08q-.135-.09-.27-.15c-.05-.02-.1-.05-.15-.07-.1-.04-.21-.07-.31-.1-.05-.01-.1-.03-.14-.04-.16-.03-.32-.05-.48-.05s-.33.02-.48.05c-.05 0-.1.02-.15.04-.11.03-.21.06-.31.1-.05.02-.1.04-.16.07q-.135.06-.27.15c-.05.03-.09.06-.14.09-.09.07-.18.14-.27.22-.03.03-.06.05-.09.08-.11.11-.2.23-.29.35-.02.03-.04.06-.06.1-.06.1-.12.2-.17.31l-.06.15c-.02.06-.05.11-.06.16h-.28a2.04 2.04 0 0 1-2.03-2.04v-2.04h9.42c1.43 0 2.6-1.17 2.6-2.61V6.23h.95c.39 0 .76.22.96.56l.95 1.67s-.09.01-.13.02c-.05 0-.1.01-.15.02-.06.01-.11.03-.17.05-.05.02-.09.03-.13.05-.05.02-.1.06-.16.09-.04.02-.08.04-.12.07-.05.03-.09.07-.14.11-.03.03-.07.06-.1.09-.04.04-.08.09-.12.14-.03.04-.06.07-.08.11-.04.05-.06.11-.09.17-.02.04-.04.07-.06.11-.03.07-.04.13-.06.2 0 .04-.02.07-.03.11q-.03.165-.03.33v2.79c0 .93.75 1.68 1.67 1.68h2.03v2.04Z"/></svg>