<?xml version="1.0" encoding="UTF-8"?><svg id="c" xmlns="http://www.w3.org/2000/svg" viewBox="0 0 24 24"><g id="d"><path d="m12,2.5C5.96,2.5,2.5,5.96,2.5,12s3.46,9.5,9.5,9.5,9.5-3.46,9.5-9.5S18.04,2.5,12,2.5Zm0,17.45c-5.13,0-7.95-2.82-7.95-7.95s2.82-7.95,7.95-7.95,7.95,2.82,7.95,7.95-2.82,7.95-7.95,7.95Z" fill="#707575" stroke-width="0"/><path d="m16.86,7.14c-.44-.44-1.06-.61-1.66-.46l-4.05,1.01c-1.71.43-3.03,1.75-3.46,3.46l-1.01,4.05c-.15.6.02,1.22.46,1.66.33.34.77.52,1.23.52.14,0,.29-.02.43-.06l4.05-1.01c1.71-.43,3.03-1.75,3.46-3.46l1.01-4.05c.15-.6-.02-1.22-.46-1.66Zm-2.01,5.35c-.29,1.17-1.19,2.07-2.36,2.36l-4.06,1.02c-.12.03-.19-.03-.23-.07-.04-.03-.1-.12-.07-.24l1.02-4.05c.29-1.17,1.19-2.07,2.36-2.36l4.05-1.02h.01s.04-.01.06-.01c.08,0,.14.05.17.08.04.03.1.12.07.24l-1.02,4.05Z" fill="#707575" stroke-width="0"/><circle cx="12" cy="12" r="1" fill="#707575" stroke-width="0"/></g></svg>