<svg xmlns="http://www.w3.org/2000/svg" width="24" height="24" viewBox="0 0 24 24"><g fill="#707575"><rect width="4.5" height="1.5" x="9.75" y="14.75" rx=".75" ry=".75"/><rect width="6.5" height="1.5" x="8.75" y="10.76" rx=".75" ry=".75"/><path d="M18.86 7.46h-.04c-.36.02-.64.27-.71.6-.01.06-.01.12-.01.18l-.67 9.97a2.18 2.18 0 0 1-2.18 2.04h-6.5a2.18 2.18 0 0 1-2.18-2.04L5.9 8.23v-.06a.74.74 0 0 0-.74-.69h-.04c-.4.01-.71.34-.72.75v.08l.67 10a3.686 3.686 0 0 0 3.68 3.44h6.5c1.94 0 3.55-1.5 3.68-3.44l.66-9.96v-.17a.747.747 0 0 0-.74-.72Zm2.88-1.53a.77.77 0 0 0-.63-.61c-.17-.03-.35-.05-.52-.07-1.31-.19-2.59-.32-3.84-.4-.29-.22-.52-.52-.64-.89l-.03-.08a2.375 2.375 0 0 0-2.25-1.63h-3.66c-1.02 0-1.93.66-2.25 1.63l-.03.09c-.13.37-.36.68-.66.9-1.69.12-2.97.28-3.7.38-.37.05-.6.08-.65.09-.32.05-.56.3-.62.61 0 .02-.01.05-.01.08a.75.75 0 0 0 .75.8h.12c.01 0 .18-.03.48-.07.54-.07 1.52-.19 2.81-.3 2.84-.24 7.23-.42 12 .06.68.07 1.36.14 2.05.24l.43.06c.41.06.79-.22.85-.63.01-.05.01-.11.01-.16-.01-.03-.01-.06-.01-.09ZM9.21 4.76l.16-.47c.15-.33.31-.61.73-.63h4c.26-.01.48.17.53.55l.16.53c-2.04-.08-3.93-.05-5.58.02"/></g></svg>