<?xml version="1.0" encoding="UTF-8"?><svg id="b" xmlns="http://www.w3.org/2000/svg" viewBox="0 0 18.1 20.26"><g id="c"><g id="d"><path d="m1.51,3.62l3.72-2.33c.33-.2.43-.63.22-.96C5.25,0,4.82-.1,4.49.11L.77,2.44c-.33.2-.43.64-.22.96.2.33.63.43.96.22Z" fill="#444" stroke-width="0"/><path d="m12.87,1.3l3.72,2.33c.33.2.76.11.96-.22s.11-.76-.22-.96L13.61.12c-.33-.2-.76-.1-.96.22-.2.33-.11.76.22.96Z" fill="#444" stroke-width="0"/><path d="m9.05,2.15C3.3,2.15,0,5.45,0,11.2s3.3,9.06,9.05,9.06,9.05-3.3,9.05-9.06S14.8,2.15,9.05,2.15Zm1.07,9.14l1.4,1.4c.27.28.27.72,0,.99-.28.27-.72.27-.99,0l-1.4-1.4c-.05-.05-.17,0-.17,0l-1.4,1.4c-.28.27-.72.27-.99,0-.27-.28-.27-.72,0-.99l1.4-1.4s0-.17,0-.17l-1.4-1.4c-.27-.28-.28-.72,0-.99.28-.27.72-.27.99,0l1.4,1.4c.05.05.17,0,.17,0l1.4-1.4c.28-.27.72-.28.99,0,.27.28.27.72,0,.99l-1.4,1.4s0,.17,0,.17Z" fill="#444" stroke-width="0"/></g></g></svg>