<?xml version="1.0" encoding="UTF-8"?><svg id="b" xmlns="http://www.w3.org/2000/svg" viewBox="0 0 19.92 14.81"><g id="c"><g id="d"><path d="m8.5,14.81c-.22,0-.44-.05-.65-.15l-1.41-.7c-.5-.25-.8-.74-.8-1.3v-3.95c0-.33-.12-.64-.34-.88L.38,2.42c-.24-.27-.38-.61-.38-.97C0,.65.65,0,1.46,0h12.69c.36,0,.71.13.97.37.29.26.46.62.48,1s-.11.76-.37,1.05l-4.92,5.41c-.22.24-.34.55-.34.88v4.65c0,.22-.05.45-.15.65-.26.51-.77.8-1.3.8Zm-1.36-2.18l1.38.69-.06-4.6c0-.7.26-1.37.73-1.89L14.11,1.42l-12.66.08,4.95,5.32c.47.52.73,1.19.73,1.89v3.91Z" fill="#444" stroke-width="0"/><path d="m14.72,4.56c0,.43.35.78.78.78h3.64c.43,0,.78-.35.78-.78s-.35-.78-.78-.78h-3.64c-.43,0-.78.35-.78.78Z" fill="#444" stroke-width="0"/><path d="m19.14,6.81h-5.46c-.43,0-.78.35-.78.78s.35.78.78.78h5.46c.43,0,.78-.35.78-.78s-.35-.78-.78-.78Z" fill="#444" stroke-width="0"/><path d="m17.91,9.62h-6.06c-.43,0-.79.35-.79.78s.36.78.79.78h6.06c.43,0,.78-.35.78-.78s-.35-.78-.78-.78Z" fill="#444" stroke-width="0"/><path d="m14.88,12.65h-3.03c-.43,0-.79.35-.79.78s.36.78.79.78h3.03c.43,0,.78-.35.78-.78s-.35-.78-.78-.78Z" fill="#444" stroke-width="0"/></g></g></svg>