<svg xmlns="http://www.w3.org/2000/svg" viewBox="0 0 24 24"><path fill="#444" d="M22.25 14.46s0-.09-.01-.13l-.54-2.93-.43-2.33c-.02-.77-.32-1.51-.86-2.07-.58-.58-1.37-.91-2.19-.89s-2.92 0-2.92 0v-.05c0-1.02-.83-1.83-1.84-1.83H3.6c-.48 0-.95.19-1.3.53s-.54.81-.55 1.29v9.68c0 .49.2.96.55 1.3s.81.53 1.3.52.12 0 .12 0c.13.5.38.97.77 1.35.56.56 1.31.86 2.07.86.38 0 .77-.08 1.14-.23.86-.36 1.48-1.1 1.7-1.98h4.75c.13.5.38.97.77 1.35.56.56 1.31.86 2.07.86.38 0 .77-.08 1.14-.23.89-.37 1.51-1.15 1.72-2.06.57-.13 1.09-.41 1.51-.83.58-.58.9-1.37.89-2.18m-2.91-6.4c.29.3.45.7.44 1.12 0 .05 0 .11.01.16l.27 1.46h-4.77V7.62h2.93c.42 0 .82.15 1.11.45Zm-15.75 8c-.09 0-.17-.03-.24-.1a.35.35 0 0 1-.1-.24V6.07c0-.09.04-.17.1-.24.06-.06.15-.1.24-.1h9.86c.18 0 .34.15.34.33v9.99H9.38c-.13-.5-.39-.96-.75-1.32-.55-.55-1.29-.85-2.06-.85-1.2 0-2.26.71-2.72 1.82-.05.12-.08.23-.12.35H3.6Zm3.52 2.09c-.54.23-1.16.11-1.57-.31a1.437 1.437 0 0 1 1.01-2.46c.38 0 .74.15 1.01.42.26.26.42.63.42 1v.01c0 .58-.34 1.11-.88 1.33Zm10.43 0c-.54.23-1.16.11-1.57-.31a1.437 1.437 0 0 1 1.01-2.46c.38 0 .74.15 1.01.42s.42.63.42 1.01c0 .59-.34 1.11-.88 1.34Zm2.23-2.22c-.14-.45-.38-.87-.71-1.2-.55-.55-1.29-.85-2.06-.85-.62 0-1.21.2-1.7.54v-2.13h5.04l.41 2.22c0 .4-.17.79-.45 1.08-.15.15-.32.27-.51.35Z"/></svg>