<svg xmlns="http://www.w3.org/2000/svg" viewBox="0 0 24 24"><path fill="#444" fill-rule="evenodd" d="M22 5.66c0-1.36-1.08-2.53-2.51-2.48-1.06.04-2.44.15-3.51.47-.93.28-1.97.82-2.78 1.29-.76.44-1.69.47-2.47.05-.93-.49-2.15-1.07-3.21-1.35-.89-.24-2.02-.35-2.94-.41C3.13 3.14 2 4.32 2 5.72v10.37c0 1.43 1.16 2.54 2.53 2.63.89.06 1.9.16 2.64.36.92.24 2.07.79 2.99 1.28 1.15.61 2.54.61 3.68 0 .92-.49 2.06-1.03 2.99-1.28.75-.2 1.75-.31 2.64-.36 1.37-.09 2.53-1.2 2.53-2.63zm-2.46-1.08c.57-.02 1.06.45 1.06 1.08v10.43c0 .64-.53 1.19-1.22 1.24-.91.06-2.03.17-2.91.4-1.09.29-2.35.89-3.29 1.39-.16.08-.32.15-.49.2V6.94c0-.2.14-.36.33-.42.3-.09.6-.21.88-.38.79-.46 1.72-.93 2.48-1.16.88-.26 2.12-.37 3.16-.41ZM11.3 6.99c0-.21-.15-.37-.35-.42-.3-.08-.6-.19-.88-.34-.91-.48-2.01-1-2.91-1.23-.76-.2-1.77-.31-2.67-.36-.59-.04-1.1.44-1.1 1.09V16.1c0 .64.53 1.19 1.22 1.24.91.06 2.03.17 2.91.4 1.09.29 2.35.89 3.29 1.39.16.08.32.15.49.2z"/></svg>