<svg xmlns="http://www.w3.org/2000/svg" viewBox="0 0 24 24"><path d="M21.74 2.69a.8.8 0 0 0-.16-.24s0-.01-.01-.02c0 0-.02 0-.03-.02-.07-.06-.15-.12-.23-.16a.9.9 0 0 0-.27-.06h-6.03c-.44 0-.8.36-.8.8s.36.8.8.8h4.07l-4.63 4.63c-.31.31-.31.82 0 1.13.16.16.36.23.57.23s.41-.08.57-.23l4.63-4.63v4.07c0 .44.36.8.8.8s.8-.36.8-.8V3c0-.1-.02-.21-.06-.31ZM4.93 3.8H9c.44 0 .8-.36.8-.8s-.36-.8-.8-.8H2.97c-.09 0-.19.02-.27.06-.08.03-.15.09-.22.14-.01.01-.03.02-.04.03s-.02.03-.03.05c-.06.06-.11.13-.14.21-.04.1-.06.2-.06.31v6c0 .44.36.8.8.8s.8-.36.8-.8V4.93l4.63 4.63c.16.16.36.23.57.23s.41-.08.57-.23c.31-.31.31-.82 0-1.13zm4.64 10.63a.803.803 0 0 0-1.13 0l-4.63 4.63v-4.07c0-.44-.36-.8-.8-.8s-.8.36-.8.8v6c0 .1.02.21.06.31.04.09.09.16.15.23 0 0 .01.02.02.03 0 0 .01 0 .02.01a.78.78 0 0 0 .55.22h6c.44 0 .8-.36.8-.8s-.36-.8-.8-.8H4.94l4.63-4.63c.31-.31.31-.82 0-1.13M21 14.2c-.44 0-.8.36-.8.8v4.07l-4.63-4.63c-.31-.31-.82-.31-1.13 0s-.31.82 0 1.13l4.63 4.63H15c-.44 0-.8.36-.8.8s.36.8.8.8h6a.79.79 0 0 0 .8-.8v-6c0-.44-.36-.8-.8-.8"/></svg>