<svg xmlns="http://www.w3.org/2000/svg" viewBox="0 0 24 24"><path fill="#444" fill-rule="evenodd" d="M13.95 3.46c-.67 0-1.22.55-1.22 1.22s.55 1.22 1.22 1.22 1.22-.55 1.22-1.22-.55-1.22-1.22-1.22m-2.68 1.22a2.68 2.68 0 1 1 5.36 0 2.68 2.68 0 0 1-5.36 0m-.32 4.4a1.85 1.85 0 0 0-2.75.53c-.54.95-.14 2.16.86 2.6l3.02 1.32c1.3.57 1.89 2.07 1.34 3.37l-.74 1.73a.73.73 0 0 1-1.34-.58l.74-1.73a1.12 1.12 0 0 0-.58-1.46l-3.02-1.32a3.304 3.304 0 0 1-1.55-4.66c1-1.76 3.34-2.21 4.93-.95l2.11 1.68c.16.13.35.19.56.19h3.82c.4 0 .73.33.73.73s-.33.73-.73.73h-3.82c-.53 0-1.05-.18-1.47-.51l-2.11-1.68Zm-4.8 7.07c-1.21 0-2.2.98-2.2 2.2s.98 2.2 2.2 2.2 2.2-.98 2.2-2.2-.98-2.2-2.2-2.2m-3.66 2.2c0-2.02 1.64-3.66 3.66-3.66s3.66 1.64 3.66 3.66-1.64 3.66-3.66 3.66-3.66-1.64-3.66-3.66m15.37-2.2c-1.21 0-2.2.98-2.2 2.2s.98 2.2 2.2 2.2 2.2-.98 2.2-2.2-.98-2.2-2.2-2.2m-3.66 2.2c0-2.02 1.64-3.66 3.66-3.66s3.66 1.64 3.66 3.66-1.64 3.66-3.66 3.66-3.66-1.64-3.66-3.66"/></svg>