<svg xmlns="http://www.w3.org/2000/svg" viewBox="0 0 24 24"><path d="M19.53 6.94H16.7c-.1-.55-.44-.94-.87-.94h-1.32c-.44 0-.77.39-.87.94h-.09c-.1-.55-.43-.94-.87-.94h-1.32c-.44 0-.77.39-.87.94h-.09c-.1-.55-.43-.94-.87-.94H8.21c-.44 0-.77.39-.87.94H4.51c-1.47 0-2.63 1.72-2.63 3.91v3.18c0 2.19 1.15 3.91 2.63 3.91h15.05c1.47 0 2.62-1.72 2.62-3.91v-3.18c0-2.19-1.15-3.91-2.62-3.91ZM14.5 6.8h1.29s0 .06.01.14h-1.31V6.8Zm-3.16 0h1.29s0 .06.01.14h-1.31V6.8Zm-3.16 0h1.29s0 .06.01.14H8.17V6.8Zm12.47 7.22c0 1.47-.67 2.41-1.12 2.41H4.48c-.46 0-1.13-.94-1.13-2.41v-3.18c0-1.47.67-2.41 1.13-2.41h15.05c.46 0 1.12.94 1.12 2.41z"/><path d="M8.1 7.54h1.5v9.61H8.1zm6.27.18h1.5v9.61h-1.5z"/></svg>