<svg xmlns="http://www.w3.org/2000/svg" viewBox="0 0 24 24"><path fill="#5e656d" d="M19 12.75c0-.41-.34-.75-.75-.75s-.75.34-.75.75v1.09l-4.53-4.91a.77.77 0 0 0-.62-.24c-.23.02-.44.15-.57.35l-1.7 2.77-3.77-4.09a.755.755 0 0 0-1.06-.04c-.3.28-.32.76-.04 1.06l4.44 4.82c.16.17.39.26.62.24s.44-.15.57-.35l1.7-2.77 4 4.34h-1.06c-.41 0-.75.34-.75.75s.34.75.75.75h2.78c.1 0 .19-.02.28-.06.04-.02.07-.04.11-.07.04-.02.08-.04.12-.07v-.01c.04-.04.07-.09.1-.13.02-.04.05-.07.07-.1.01-.03.01-.07.02-.1.02-.06.04-.12.04-.18v-3.02Z"/></svg>