<?xml version="1.0" encoding="UTF-8"?><svg id="e" xmlns="http://www.w3.org/2000/svg" viewBox="0 0 24 24"><path d="m19.36,4.63c-1.77-1.77-4.31-2.64-7.36-2.64s-5.59.86-7.36,2.64c-1.77,1.77-2.64,4.31-2.64,7.36,0,1.34.17,2.58.5,3.7,0,.01,0,.02,0,.03.61,2,1.76,3.59,3.41,4.67,1.64,1.07,3.7,1.59,6.08,1.59s4.44-.52,6.08-1.59c1.03-.67,1.86-1.54,2.49-2.58.17-.28.33-.58.47-.89.17-.38.33-.78.45-1.2,0,0,0-.02,0-.03.34-1.12.51-2.37.51-3.71,0-3.05-.86-5.59-2.64-7.36ZM4.35,14.24c-.13-.68-.2-1.43-.2-2.24,0-2.66.74-4.59,2.01-5.85,1.26-1.26,3.19-2.01,5.85-2.01s4.59.74,5.85,2.01c1.26,1.26,2.01,3.19,2.01,5.85,0,.82-.07,1.56-.2,2.24-1.94-.23-3.86-.38-5.77-.43l2.72-4.53c.3-.51.14-1.17-.37-1.47-.51-.3-1.17-.14-1.47.37l-3.37,5.61c-2.34.02-4.68.18-7.05.46Z" fill="#444" fill-rule="evenodd" stroke-width="0"/></svg>