<?xml version="1.0" encoding="UTF-8"?><svg id="d" xmlns="http://www.w3.org/2000/svg" viewBox="0 0 24 24"><path d="m16.79,15.48H7.2c-.41,0-.75-.34-.75-.75s.34-.75.75-.75h9.59c.41,0,.75.34.75.75s-.34.75-.75.75Zm3.5-8.22c-1.1-1.18-2.5-1.15-3.73-1.13-.77.01-1.5.03-2.03-.27-.64-.37-.87-.78-1.13-1.27-.29-.53-.61-1.14-1.49-1.61-1.63-.88-3.54-1.05-6.01-.54C3.47,2.93,1.89,5.1,1.89,7.95v6.07c0,7.27,4.19,7.84,10.11,7.84s10.11-.58,10.11-7.86c0-1.79,0-4.77-1.82-6.73Z" fill="#444" fill-rule="evenodd" stroke-width="0"/></svg>