<?xml version="1.0" encoding="UTF-8"?><svg id="b" xmlns="http://www.w3.org/2000/svg" viewBox="0 0 16.69 11"><g id="c"><path id="d" d="m0,10.25h0c0-.41.34-.75.75-.75h10.71c.41,0,.75.34.75.75h0c0,.41-.34.75-.75.75H.75c-.41,0-.75-.34-.75-.75Zm15.42-.73l-3.26-3.25c-.43-.43-.43-1.12,0-1.55l3.26-3.24c.29-.29.76-.29,1.05,0h0c.29.29.29.76,0,1.06l-2.59,2.57c-.21.21-.21.56,0,.77l2.6,2.58c.29.29.29.76,0,1.05h0c-.29.29-.76.29-1.05,0ZM0,5.5h0c0-.41.34-.75.75-.75h7.79c.41,0,.75.34.75.75h0c0,.41-.34.75-.75.75H.75c-.41,0-.75-.34-.75-.75ZM0,.75h0c0-.41.34-.75.75-.75h10.71c.41,0,.75.34.75.75h0c0,.41-.34.75-.75.75H.75c-.41,0-.75-.34-.75-.75Z" fill="#444" stroke-width="0"/></g></svg>