<?xml version="1.0" encoding="UTF-8"?><svg id="b" xmlns="http://www.w3.org/2000/svg" viewBox="0 0 20.24 8.25"><g id="c"><path d="m3.28,6.25c-2.39-.86-3.28-1.18-3.28-2.13s.89-1.27,3.28-2.13l2.64-.95c1.88-.68,2.91-1.05,4.2-1.05s2.32.37,4.2,1.05l2.63.95c2.39.86,3.29,1.18,3.29,2.13s-.89,1.27-3.28,2.13l-2.64.95c-1.88.68-2.91,1.05-4.2,1.05s-2.32-.37-4.2-1.05l-2.63-.95m.51-1.41l2.63.95c1.83.66,2.67.96,3.69.96s1.86-.3,3.69-.96l2.63-.95c.73-.26,1.43-.52,1.89-.72-.46-.2-1.16-.45-1.89-.71l-2.64-.95c-1.83-.66-2.67-.96-3.69-.96s-1.86.3-3.69.96l-2.63.95c-.73.26-1.43.52-1.89.72.46.2,1.16.45,1.89.71" fill="#444" stroke-width="0"/></g></svg>