<svg xmlns="http://www.w3.org/2000/svg" viewBox="0 0 24 24"><path fill="#444" fill-rule="evenodd" d="M10.66 13.24c.45.27.72.75.72 1.27v7.31h-.09c-.53-.09-1.06-.44-1.86-.89l-4.61-2.75c-.71-.44-1.24-.71-1.59-1.15-.27-.35-.53-.71-.71-1.15-.18-.53-.18-1.06-.18-1.95V9.85c0-.62 0-1.06.09-1.51l8.23 4.89Zm10.91-4.71c.09.44.09.89.09 1.51v4.08c0 .8 0 1.42-.18 1.95-.18.44-.35.8-.71 1.15-.35.44-.89.71-1.59 1.15l-4.61 2.75c-.8.44-1.24.8-1.86.89h-.09v-7.76c0-.24.13-.46.33-.58l8.62-5.12Zm-2.3-2.75c.71.44 1.24.71 1.59 1.15.09.09.18.27.27.35l-8.25 4.9c-.43.26-.97.26-1.41 0l-1.54-.89c-.71-.41-.72-1.43-.02-1.85l6.93-4.2c.45-.27 1.01-.28 1.47-.01l.94.55Zm-7.95-3.7s.09-.03.13-.04c.43-.08.93-.07 1.35.01.53.09 1.06.44 1.86.89l1.59.97-8.53 5.17a1.3 1.3 0 0 1-1.37 0l-3.21-1.9c.09-.09.18-.27.27-.35.35-.44.89-.71 1.59-1.15l4.61-2.75c.68-.42 1.2-.69 1.71-.86Z"/></svg>