<svg xmlns="http://www.w3.org/2000/svg" viewBox="0 0 24 24"><path fill="#444" d="M12 2C5.64 2 2 5.65 2 12s3.64 10 10 10 10-3.65 10-10S18.36 2 12 2m0 18.5c-5.48 0-8.5-3.02-8.5-8.5S6.52 3.5 12 3.5s8.5 3.02 8.5 8.5-3.02 8.5-8.5 8.5"/><path fill="#444" d="M12 5.57c-4.03 0-6.43 2.4-6.43 6.43s2.4 6.43 6.43 6.43 6.43-2.4 6.43-6.43-2.4-6.43-6.43-6.43m4.37 3.77-1.57.63c-.72.29-1.53-.07-1.82-.79-.06-.16-.1-.34-.1-.51V7.13c1.69.19 2.86.94 3.49 2.21m-3.25 2.26c-.11.21-.2.44-.26.67-.07.23-.11.47-.13.71-.48-.1-.98-.1-1.46 0a3.9 3.9 0 0 0-.39-1.38c.42-.17.81-.42 1.12-.75.31.33.7.58 1.12.75m-1.99-4.47v1.54c0 .77-.63 1.4-1.41 1.4-.18 0-.35-.03-.51-.1l-1.57-.63c.63-1.27 1.8-2.02 3.49-2.21M7.08 12c0-.34.03-.66.07-.97l1.21.49a1.86 1.86 0 0 1 .8 2.85l-.91 1.2c-.77-.83-1.18-2.02-1.18-3.57Zm2.64 4.54.89-1.18a1.807 1.807 0 0 1 2.8 0l.88 1.18c-.65.25-1.41.39-2.29.39s-1.64-.14-2.29-.39Zm6.04-.96-.52-.69-.39-.52a1.866 1.866 0 0 1 .8-2.85l1.21-.49c.04.31.07.62.07.97 0 1.56-.41 2.75-1.18 3.58Z"/></svg>