<?xml version="1.0" encoding="UTF-8"?><svg id="b" xmlns="http://www.w3.org/2000/svg" viewBox="0 0 24 24"><path d="m21.3,9.91c-.38,0-.7-.32-.7-.7v-1.86c0-2.4-1.55-3.95-3.95-3.95H7.35c-2.4,0-3.95,1.55-3.95,3.95v1.86c0,.38-.32.7-.7.7s-.7-.32-.7-.7v-1.86c0-3.2,2.15-5.35,5.35-5.35h9.3c3.2,0,5.35,2.15,5.35,5.35v1.86c0,.38-.32.7-.7.7Z" fill="#444" stroke-width="0"/><path d="m16.65,22H7.35c-3.2,0-5.35-2.15-5.35-5.35v-1.86c0-.38.32-.7.7-.7s.7.32.7.7v1.86c0,2.4,1.55,3.95,3.95,3.95h9.3c2.4,0,3.95-1.55,3.95-3.95v-1.86c0-.38.32-.7.7-.7s.7.32.7.7v1.86c0,3.2-2.15,5.35-5.35,5.35Z" fill="#444" stroke-width="0"/><path d="m16.09,8.48l-3.5-1.89c-.37-.2-.81-.2-1.18,0l-3.51,1.89c-.25.14-.41.41-.41.71s.16.58.41.72l3.5,1.89c.19.1.39.15.6.15s.41-.05.6-.15l3.5-1.89c.25-.14.41-.41.41-.72s-.16-.57-.41-.71Z" fill="#444" stroke-width="0"/><path d="m10.83,12.44l-3.26-1.63c-.25-.12-.54-.11-.78.04-.23.15-.37.4-.37.68v3.08c0,.53.3,1.01.77,1.25l3.26,1.63c.11.06.23.08.36.08.15,0,.29-.04.42-.12.24-.15.38-.4.38-.68v-3.08c0-.53-.3-1-.78-1.25Z" fill="#444" stroke-width="0"/><path d="m17.2,10.85c-.24-.15-.53-.16-.78-.04l-3.26,1.63c-.47.24-.77.72-.77,1.25v3.08c0,.28.14.53.38.68.13.08.27.12.42.12.12,0,.24-.03.36-.08l3.26-1.63c.47-.24.77-.72.77-1.25v-3.08c0-.28-.14-.53-.38-.68Z" fill="#444" stroke-width="0"/></svg>