<svg xmlns="http://www.w3.org/2000/svg" viewBox="0 0 24 24"><path d="M10.84 13.4v-.83c0-1.72-1.4-3.13-3.13-3.13h-.83c-.64 0-1.16.52-1.16 1.16v.44c0 1.94 1.58 3.51 3.51 3.51h.44c.64 0 1.16-.52 1.16-1.16Zm-1.4-.23h-.21c-1.17 0-2.12-.95-2.12-2.12v-.21h.59c.95 0 1.73.78 1.73 1.73v.59Zm8.5-3.39c-.34-.34-.76-.34-1.29-.34h-.36c-1.72 0-3.13 1.4-3.13 3.13v.36c0 .53 0 .95.34 1.29s.76.34 1.29.34h.36c1.72 0 3.13-1.4 3.13-3.13v-.36c0-.53 0-.95-.34-1.29m-1.05 1.65c0 .95-.78 1.73-1.73 1.73h-.59v-.59c0-.95.78-1.73 1.73-1.73h.59zm-3.96 5.45h-1.86c-.39 0-.7.31-.7.7s.31.7.7.7h1.86c.39 0 .7-.31.7-.7s-.31-.7-.7-.7"/><path d="M12 2c-5.43 0-9.07 3.65-9.07 9.07S8.75 22 12 22s9.07-5.51 9.07-10.93S17.51 2 12 2m0 18.6c-2.41 0-7.67-4.79-7.67-9.53S7.34 3.4 12 3.4s7.67 2.94 7.67 7.67S14.41 20.6 12 20.6"/></svg>