<svg xmlns="http://www.w3.org/2000/svg" width="24" height="24" viewBox="0 0 24 24"><g fill="#707575"><path d="M12 8.88c-2.2 0-4 1.79-4 4s1.79 4 4 4 3.99-1.79 3.99-4-1.79-4-3.99-4m2.3 4a2.3 2.3 0 0 1-4.6 0c0-1.27 1.03-2.29 2.3-2.29s2.3 1.03 2.3 2.29"/><path d="M21.15 8.29c-.63-1.31-1.72-2.15-3.43-2.62-.18-.06-.34-.16-.46-.29 0 0-.04-.05-.17-.29l-.1-.19a7 7 0 0 0-.25-.48c-.26-.48-.7-1.15-1.47-1.47-.32-.13-.79-.23-1.45-.29-.54-.05-1.17-.07-1.83-.08-.66 0-1.29.03-1.83.08-.65.06-1.12.16-1.43.28-.77.31-1.21.99-1.47 1.47-.09.17-.19.35-.26.51-.03.06-.06.12-.08.17-.12.24-.17.29-.17.3-.12.13-.28.23-.45.29-1.72.48-2.81 1.31-3.44 2.62-.62 1.3-.71 3-.71 4.65 0 2.86.29 4.92 1.73 6.37 1.45 1.46 3.95 2.11 8.12 2.11s6.67-.65 8.12-2.11c1.44-1.45 1.73-3.52 1.73-6.37 0-1.65-.08-3.35-.71-4.65Zm-.99 4.65c0 2.42-.21 4.14-1.24 5.18-1.09 1.1-3.28 1.61-6.92 1.61s-5.83-.51-6.92-1.61c-1.03-1.04-1.24-2.75-1.24-5.18 0-1.98.16-3.12.54-3.92.41-.86 1.12-1.38 2.36-1.72h.03c.33-.11.8-.33 1.22-.78.18-.19.31-.43.43-.67.04-.08.08-.15.11-.22v-.02c.08-.13.14-.25.21-.38.22-.41.42-.63.63-.72.11-.05.42-.11.95-.16.49-.05 1.1-.08 1.7-.07.59 0 1.16.02 1.63.07.53.05.84.12.95.17.21.09.42.32.64.73.08.14.14.27.21.4l.11.22c.12.23.25.47.43.66.41.45.89.67 1.22.77h.03c1.25.35 1.96.87 2.37 1.73.38.8.54 1.94.54 3.92Z"/><path d="M16.91 8.53a.85.85 0 1 0 .01 1.7c.48 0 .85-.38.85-.85s-.38-.85-.86-.85"/></g></svg>