<svg xmlns="http://www.w3.org/2000/svg" viewBox="0 0 24 24"><path fill="#444" d="M3.63 21.1a.62.62 0 0 1-.44-.18.64.64 0 0 1-.17-.59c.19-.79.88-3.41 1.61-4.14.88-.88 2.41-.88 3.29 0 .91.91.91 2.38 0 3.29-.73.73-3.36 1.42-4.14 1.61-.05.01-.1.02-.15.02Zm2.65-4.35c-.29 0-.56.11-.76.32-.26.26-.67 1.37-1 2.52 1.16-.34 2.27-.75 2.52-1 .42-.42.42-1.1 0-1.52-.2-.2-.47-.32-.76-.32m5.36 3.97c-.45 0-.89-.19-1.21-.55-.46-.52-.54-1.25-.21-1.85l.96-1.78c-.47-.25-.66-.74-.84-1.17-.16-.39-.32-.8-.67-1.14-.35-.35-.75-.51-1.14-.67-.45-.18-.96-.39-1.2-.9l-1.66.85c-.59.32-1.32.24-1.84-.22s-.69-1.17-.43-1.81l.42-1.06a5.42 5.42 0 0 1 4.47-3.41L10 6.82q.135-.015.27.03c.12-.13.25-.26.38-.39 3.45-3.45 8.45-4.27 9.77-2.96 1.31 1.31.49 6.31-2.96 9.77-.18.18-.36.35-.54.52.02.07.02.15.01.22l-.19 1.71a5.45 5.45 0 0 1-3.41 4.48l-1.06.42q-.3.12-.6.12Zm.95-4.17-1.27 2.36c-.12.21 0 .37.05.43s.2.18.42.1l1.06-.42a4.18 4.18 0 0 0 2.63-3.45l.07-.68c-.76.57-1.55 1.04-2.33 1.41-.23.11-.44.19-.63.25m-4.1-4.71c-.05.21-.03.28-.03.29.03.06.37.2.54.27.44.18 1.03.42 1.56.94.53.53.77 1.13.94 1.56.07.17.21.51.27.54 0 0 .06.02.24-.02h.03c.14-.03.35-.11.65-.25 1.32-.62 2.65-1.58 3.86-2.79 3.21-3.21 3.57-7.39 2.96-8s-4.79-.25-8 2.96C10.3 8.55 9.34 9.88 8.72 11.2c-.13.27-.2.47-.23.6v.03Zm.65-3.67-.72.08a4.21 4.21 0 0 0-3.45 2.63l-.42 1.06c-.09.22.04.37.1.42s.22.16.43.05l2.29-1.18c.06-.17.14-.36.23-.55.39-.84.91-1.69 1.54-2.51m6.82 1.4a1.62 1.62 0 1 1 0-3.24 1.62 1.62 0 0 1 0 3.24m0-2a.38.38 0 1 0 0 .76.38.38 0 0 0 0-.76"/></svg>