<?xml version="1.0" encoding="UTF-8"?><svg id="c" xmlns="http://www.w3.org/2000/svg" viewBox="0 0 24 24"><path d="m11.95,13.2h-4c-.5,0-.8.3-.8.8s.4.8.8.8h4c.5,0,.8-.3.8-.8s-.4-.8-.8-.8Z" fill="#444" stroke-width="0"/><path d="m15.95,9.2H7.95c-.5,0-.8.3-.8.8s.4.8.8.8h8c.5,0,.8-.3.8-.8s-.4-.8-.8-.8Z" fill="#444" stroke-width="0"/><path d="m19.99,5.99c-1.33-1.77-3.23-3.06-5.36-3.64-1.86-.51-3.79-.47-5.62.1s-3.44,1.65-4.67,3.12c-1.23,1.47-2.01,3.24-2.25,5.14-.25,1.9.06,3.83.88,5.56.12.25.15.56.08.84l-.34,1.31c-.11.4-.11.82,0,1.21.11.4.32.76.61,1.05.29.29.65.5,1.05.6.4.1.82.1,1.2,0l1.31-.34c.29-.06.58-.03.87.11,1.29.6,2.7.92,4.13.94l.03.02c2.63,0,5.16-1.02,7.05-2.87,1.89-1.84,2.99-4.35,3.05-6.99.03-2.21-.68-4.41-2.01-6.17Zm-2.2,11.95c-1.59,1.55-3.69,2.41-5.9,2.41-1.2-.01-2.37-.28-3.43-.77-.41-.2-.85-.31-1.3-.31h-.01c-.22.01-.46.04-.68.09l-1.33.34c-.12.03-.24.03-.37,0-.11-.03-.22-.09-.32-.18-.09-.08-.15-.19-.18-.32s-.03-.25,0-.38l.34-1.32c.17-.65.1-1.35-.19-1.95-1.4-2.95-.95-6.44,1.15-8.94,1.03-1.23,2.38-2.13,3.91-2.61,1.53-.48,3.16-.51,4.7-.09,1.79.49,3.37,1.56,4.49,3.04,1.12,1.48,1.71,3.31,1.68,5.15-.06,2.21-.98,4.3-2.56,5.84Z" fill="#444" stroke-width="0"/></svg>