<svg xmlns="http://www.w3.org/2000/svg" viewBox="0 0 24 24"><path d="M18.94 21.25H5.06C3.37 21.25 2 19.87 2 18.18V12c0-1.11.6-2.12 1.54-2.66v-.43c0-1.11.6-2.12 1.54-2.66v-.43c0-1.69 1.37-3.07 3.06-3.07h7.71c1.69 0 3.06 1.38 3.06 3.07v.43c.94.54 1.54 1.55 1.54 2.67v.43c.94.54 1.54 1.55 1.54 2.66v6.18c0 1.69-1.37 3.07-3.06 3.07ZM4.53 10.53c-.62.22-1.03.82-1.03 1.47v6.18c0 .86.7 1.57 1.56 1.57h13.88c.86 0 1.56-.7 1.56-1.57V12c0-.66-.41-1.25-1.03-1.47h-.02c-.16-.06-.34-.08-.51-.08H5.06c-.18 0-.35.03-.5.08 0 0-.02 0-.03.01Zm14.41-1.59h.02v-.02c0-.66-.41-1.25-1.03-1.47h-.03c-.16-.06-.33-.08-.51-.08H6.6c-.18 0-.35.03-.51.08h-.03c-.62.22-1.03.82-1.03 1.47v.02h13.9ZM17.4 5.85h.02v-.02c0-.86-.7-1.57-1.56-1.57H8.15c-.86 0-1.56.7-1.56 1.57v.02z"/></svg>