<svg xmlns="http://www.w3.org/2000/svg" viewBox="0 0 24 24"><path fill="#444" d="M4 15.39v2.19c0 2.44 1.98 4.43 4.43 4.43h7.15c2.44 0 4.43-1.98 4.43-4.43v-2.19a.39.39 0 0 0-.39-.39H4.39a.39.39 0 0 0-.39.39M19.57 13c.24 0 .43-.19.43-.43V10c0-1.75-1.14-3.23-2.71-3.77a.42.42 0 0 1-.29-.39V4c0-1.1-.9-2-2-2H9c-1.1 0-2 .9-2 2v1.84c0 .18-.12.33-.29.39C5.14 6.77 4 8.25 4 10v2.57c0 .24.19.43.43.43h15.15ZM9.33 4h5.33c.18 0 .33.15.33.33v1.33c0 .18-.15.33-.33.33h-1.37c-.15 0-.29-.09-.33-.23a.997.997 0 0 0-1.94 0c-.03.14-.18.23-.32.23H9.45c-.31 0-.45-.15-.45-.33V4.33c0-.18.15-.33.33-.33"/></svg>