<?xml version="1.0" encoding="UTF-8"?><svg id="b" xmlns="http://www.w3.org/2000/svg" viewBox="0 0 18.71 19.13"><g id="c"><path id="d" d="m13.79,1.93V.75c0-.41-.34-.75-.75-.75s-.75.34-.75.75v.93c-.87-.1-1.84-.15-2.94-.15s-2.06.05-2.93.15v-.93c0-.41-.34-.75-.75-.75s-.75.34-.75.75v1.18C1.2,2.79,0,5.17,0,10.33c0,6.82,2.1,8.8,9.36,8.8s9.36-1.97,9.36-8.8c0-5.16-1.2-7.54-4.92-8.4Zm-8.87,1.52v.36c0,.41.34.75.75.75s.75-.34.75-.75v-.64c.84-.1,1.81-.14,2.93-.14s2.1.04,2.94.14v.64c0,.41.34.75.75.75s.75-.34.75-.75v-.36c1.62.44,2.53,1.3,2.99,2.82H1.93c.46-1.52,1.37-2.38,2.99-2.82Zm-3.42,6.88c0-.97.04-1.81.13-2.55h15.45c.09.74.13,1.58.13,2.55,0,.79-.03,1.49-.08,2.13-.42.61-1.3.69-2.65.82-1.9.18-4.72.44-5.03,4.36-.03,0-.06,0-.1,0-6.46,0-7.86-1.3-7.86-7.3Zm9.46,7.26c.24-2.5,1.7-2.64,3.66-2.82.73-.07,1.51-.14,2.17-.43-.68,2.28-2.32,3.09-5.83,3.25Z" fill="#444" stroke-width="0"/></g></svg>