<svg xmlns="http://www.w3.org/2000/svg" viewBox="0 0 24 24"><g fill="#5e656d"><path d="M15.25 14.6c0 .44.36.8.8.8h1.8c.44 0 .8-.36.8-.8s-.36-.8-.8-.8h-1.8c-.44 0-.8.36-.8.8m-9.1-.8c-.44 0-.8.36-.8.8s.36.8.8.8h1.8c.44 0 .8-.36.8-.8s-.36-.8-.8-.8zm4.95 0c-.44 0-.8.36-.8.8s.36.8.8.8h1.8c.44 0 .8-.36.8-.8s-.36-.8-.8-.8zm-.16-1.64c.25.4.63.63 1.04.64H12c.25 0 .7-.08 1.05-.61.43-.64 1.13-1.51 1.72-2.01 1.1-.94 1.63-2.03 1.63-3.35 0-2.37-1.97-4.3-4.4-4.3s-4.4 1.93-4.4 4.3c0 1.31.53 2.41 1.63 3.34.57.48 1.28 1.32 1.71 1.99M12 4.12c1.54 0 2.8 1.21 2.8 2.7 0 .84-.33 1.5-1.07 2.13-.61.52-1.26 1.29-1.73 1.93-.5-.7-1.17-1.45-1.74-1.93-.74-.63-1.07-1.29-1.07-2.13 0-1.49 1.26-2.7 2.8-2.7Z"/><path d="M12.01 7.59c.44 0 .8-.36.8-.8s-.36-.8-.8-.8-.8.36-.8.8.36.8.8.8m8.46 1.04c-.52-.45-1.16-.73-2.02-.89-.43-.09-.85.2-.93.64-.08.43.21.85.64.93.58.11.97.27 1.27.53.75.64.78 1.82.78 4.66s-.03 4.02-.78 4.66c-.83.71-2.43.71-5.62.71h-3.6c-3.19 0-4.8 0-5.62-.71-.75-.64-.78-1.82-.78-4.66s.03-4.02.78-4.66c.3-.26.69-.42 1.27-.53.43-.08.72-.5.64-.93s-.5-.73-.93-.64c-.86.16-1.5.44-2.02.89-1.33 1.14-1.33 2.82-1.33 5.87s0 4.73 1.33 5.87c1.28 1.1 3.08 1.1 6.67 1.1h3.6c3.59 0 5.39 0 6.67-1.1 1.33-1.14 1.33-2.82 1.33-5.87s0-4.73-1.33-5.87Z"/></g></svg>