<svg xmlns="http://www.w3.org/2000/svg" viewBox="0 0 24 24"><path fill="#444" d="M21.99 14.81c-.06-.47-.29-.87-.7-1.2l-.02-.02h-.02v-.02l-.22-.16-.03-.03c-.01 0-.02-.01-.03-.01-.69-.41-1.83-.7-3.57-.08-.42-.7-.46-1.26-.18-2.12.05-.15 0-.25-.14-.31-.3-.13-.71-.06-1 .01-.14.04-.22.11-.24.23-.18.86-.72 1.64-1.23 2.4l-.03.04c-.32-.67-.25-1.2-.03-1.85.04-.13 0-.22-.11-.28-.34-.18-.85-.06-1.06 0-.26.08-.54.77-.85 1.61-.08.21-.15.39-.19.47-.1.2-.19.42-.28.65-.22.53-.47 1.14-.82 1.51-.13-.28.07-.73.27-1.16.23-.51.45-1 .2-1.31a.44.44 0 0 0-.15-.12.5.5 0 0 0-.42-.01c.03-.22.03-.39-.04-.61-.09-.3-.33-.47-.66-.46-.75.02-1.39.58-1.79 1.05-.27.31-.86.55-1.38.76-.21.09-.4.17-.56.24-.26-.22-.59-.44-.94-.68-.98-.66-2.08-1.4-2.12-2.41-.05-1.49 1.64-2.54 3.12-3.3 1.12-.57 2.1-.95 2.98-1.16 1.24-.29 2.29-.23 3.12.17.45.22.66.7.53 1.2-.35 1.29-1.81 2.17-3.05 2.57-.75.24-1.39.34-1.95.31-.71-.04-1.28-.4-1.53-.55a.5.5 0 0 0-.13-.07h-.08c-.02 0-.04.02-.06.04-.05.06-.03.16-.01.2.24.63.74 1.02 1.47 1.18.24.05.49.07.73.07 1.73 0 3.93-1 4.74-1.82.55-.56.95-1.13 1.12-2.12.17-1.04-.53-1.76-1.25-2.09-1.74-.8-3.72-.49-5.07-.08-1.58.48-3.22 1.34-4.49 2.38-1.57 1.28-2.13 2.46-1.68 3.53.46 1.09 1.59 1.77 2.67 2.43.35.21.69.42.99.63-.09.04-.18.09-.28.13-.91.44-1.95.94-2.52 1.76-.42.6-.5 1.2-.23 1.77.14.31.39.52.74.62.18.05.37.08.56.07.68 0 1.42-.27 1.83-.53.72-.45 1.18-1.05 1.38-1.79.18-.66.13-1.31-.12-1.9l.88-.44c-.42 1.41-.1 2.25.26 2.71.13.17.37.27.63.28.26 0 .51-.09.65-.26.26-.32.45-.7.63-1.08 0 .25 0 .5.09.71.08.19.2.32.36.36.17.05.37 0 .56-.12.87-.59 1.46-2.01 1.93-3.16.07-.16.13-.32.2-.46.12.42.28.83.49 1.21.05.08.04.12-.02.19-.09.1-.23.23-.36.36-.42.4-.95.9-1.02 1.34-.03.18.09.34.28.37.57.11 1.25-.05 1.82-.44.52-.35.72-.84.59-1.45-.13-.59.17-1.32.88-2.17.12.49.27.89.49 1.23-.52.46-1.24 1.08-1.12 1.84 0 .07.03.14.07.2s.09.12.15.16.14.07.21.09c.08.01.15.01.23 0 .68-.14 1.2-.43 1.57-.88s.24-.95.11-1.33c.98-.26 1.85-.26 2.66.02.46.16.78.41.97.77.24.45.11.86-.36 1.16-.14.09-.21.15-.22.22v.05c0 .02.02.03.03.04.05.04.22.12.61-.12.35-.22.56-.52.61-.9.01-.1.01-.21 0-.31Zm-15.61.98v.05c-.06.57-.36 1.07-.87 1.48-.32.26-.67.42-.99.45-.22.02-.38 0-.47-.09q-.105-.09-.12-.27c-.06-1 1.5-1.98 2.38-2.31.06.22.09.46.07.69m4-2.81c-.14.82-.57 2.38-1.23 2.98-.03.03-.06.04-.07.04s-.02-.02-.03-.04c-.22-.51-.14-1.38.2-2.06.26-.52.63-.87 1.04-.98h.05c.01 0 .03 0 .04.01v.06Zm3.26 3c-.12.13-.3.11-.26.06l.63-.67c-.05.23-.2.42-.38.61Zm2.63-.58c-.06.03-.13.05-.19.05-.02-.35.33-.75.66-1.02.09.37-.1.76-.47.96Z"/></svg>