<?xml version="1.0" encoding="UTF-8"?><svg id="b" xmlns="http://www.w3.org/2000/svg" viewBox="0 0 7.35 18.74"><g id="c"><path id="d" d="m7.29,15.37c-.04.1-.1.19-.18.27l-2.85,2.85c-.07.08-.16.14-.26.18-.21.09-.44.09-.64,0-.1-.04-.19-.1-.27-.18L.24,15.64c-.11-.11-.19-.26-.23-.42-.03-.16-.01-.33.05-.48s.17-.28.31-.37c.13-.09.29-.14.45-.14h1.89c.08,0,.14-.06.14-.14V.81c0-.22.09-.43.25-.58.3-.31.85-.31,1.16,0,.15.15.24.36.24.58v13.28c0,.08.06.14.14.14h1.89c.16,0,.32.05.46.14.14.09.24.22.31.37.03.1.05.21.05.31,0,.12-.02.22-.06.32Z" fill="#444" stroke-width="0"/></g></svg>