<svg xmlns="http://www.w3.org/2000/svg" viewBox="0 0 24 24"><path fill="#444" fill-rule="evenodd" d="M21.44 3.75a4.5 4.5 0 0 0-1.19-1.19c-1.11-.75-2.53-.67-4.23-.21-1.71.45-3.94 1.34-6.82 2.49l-.05.02s-.08.04-.12.05c-1.14.46-1.87.75-2.45 1.26-.15.13-.28.26-.41.41-.51.58-.8 1.31-1.26 2.45 0 .04-.03.08-.05.12l-.02.05c-1.15 2.88-2.04 5.11-2.49 6.82-.46 1.7-.54 3.12.21 4.23.32.47.72.87 1.19 1.19 1.11.75 2.53.66 4.23.21 1.71-.45 3.94-1.34 6.82-2.49l.05-.02s.08-.04.12-.05c1.14-.45 1.87-.75 2.45-1.26.15-.13.28-.26.41-.41.51-.58.8-1.31 1.26-2.45 0-.04.03-.08.05-.12l.02-.05c1.15-2.88 2.04-5.11 2.49-6.82.46-1.7.54-3.12-.21-4.23m-1.13 3.87c-.43 1.62-1.29 3.77-2.47 6.72-.52 1.29-.72 1.78-1.05 2.16-.09.1-.19.2-.29.28-.38.34-.87.54-2.16 1.06-2.95 1.18-5.1 2.04-6.72 2.47-1.64.43-2.52.36-3.08-.02-.33-.22-.61-.5-.83-.83-.38-.56-.45-1.44-.02-3.08.43-1.62 1.29-3.77 2.47-6.72.52-1.29.72-1.78 1.05-2.16.09-.1.19-.2.29-.29.38-.33.87-.53 2.16-1.05 2.95-1.18 5.1-2.04 6.72-2.47 1.64-.43 2.52-.36 3.08.02.33.22.61.5.83.83.38.56.45 1.44.02 3.08"/><path fill="#444" fill-rule="evenodd" d="M12 8.51c-1.93 0-3.49 1.56-3.49 3.49s1.56 3.49 3.49 3.49 3.49-1.56 3.49-3.49S13.93 8.51 12 8.51m0 5.58c-1.16 0-2.09-.93-2.09-2.09s.93-2.09 2.09-2.09 2.09.93 2.09 2.09-.93 2.09-2.09 2.09"/></svg>