<?xml version="1.0" encoding="UTF-8"?><svg id="c" xmlns="http://www.w3.org/2000/svg" viewBox="0 0 24 24"><g id="d"><path d="m17.98,15.33c-.11-.1-.22-.2-.34-.28-.72-.54-1.7-.83-2.68-.84h-3.08l1.33-1.17c.31-.27.34-.75.07-1.06-.27-.31-.75-.34-1.06-.07l-2.16,1.89c-.32.28-.52.7-.53,1.13,0,0,0,0,0,0-.01.46.18.9.53,1.2l2.16,1.87c.14.12.32.18.49.18.21,0,.42-.09.57-.26.27-.31.24-.79-.07-1.06l-1.35-1.17h3.11c.57,0,1.42.17,1.95.69.3.29.49.68.55,1.16l-.04.65c-.05.86-.61,1.58-1.37,1.88-.08.04-.16.06-.25.09-.09.02-.18.04-.28.05-.09.01-.18.02-.28.02h-6.5c-.31,0-.61-.07-.88-.19-.73-.32-1.25-1.01-1.3-1.85l-.67-9.98v-.06c-.03-.39-.35-.69-.74-.69h-.04c-.18,0-.35.08-.47.19-.15.14-.24.34-.25.56v.08s.67,10,.67,10c.1,1.47,1.05,2.69,2.34,3.19.42.16.87.25,1.34.25h6.57c.24-.01.48-.03.71-.08,1.37-.28,2.98-1.36,2.98-3.66,0-.16-.01-.32-.03-.47-.08-.89-.43-1.64-1-2.21Z" fill="#707575" stroke-width="0"/><path d="m18.86,7.46h-.04c-.36.02-.64.27-.71.6-.01.06-.01.12-.01.18l-.32,3.7c-.03.41.28.77.7.8.41.02.76-.28.79-.69v-.07l.32-3.63s0-.1,0-.15v-.02c-.02-.41-.35-.72-.74-.72Z" fill="#707575" stroke-width="0"/><path d="m21.74,5.93c-.06-.31-.31-.56-.63-.61-.17-.03-.35-.05-.52-.07-1.31-.19-2.59-.32-3.84-.4-.29-.22-.52-.52-.64-.89l-.03-.08c-.32-.97-1.23-1.63-2.25-1.63h-3.66c-1.02,0-1.93.66-2.25,1.63l-.03.09c-.13.37-.36.68-.66.9-1.1.08-2.03.17-2.75.26-.38.04-.7.09-.95.12-.26.03-.45.06-.55.08-.05,0-.08.01-.1.01-.32.05-.56.3-.62.61,0,.02-.01.05-.01.08,0,.06,0,.12.01.18.06.36.38.62.74.62.03,0,.06,0,.09,0h.03s.18-.03.48-.07c.24-.03.57-.07.98-.12.5-.06,1.12-.12,1.83-.18,1.53-.13,3.52-.24,5.78-.24,1.91,0,4.03.08,6.22.3.68.07,1.36.14,2.05.24.14.02.29.04.43.06.41.06.79-.22.85-.63.01-.05.01-.11.01-.16-.01-.03-.01-.06-.01-.09Zm-12.53-1.17l.16-.47c.15-.33.31-.61.73-.63h4c.26-.01.48.17.53.55l.16.53c-2.04-.08-3.93-.05-5.58.02Z" fill="#707575" stroke-width="0"/></g></svg>