<?xml version="1.0" encoding="UTF-8"?><svg id="b" xmlns="http://www.w3.org/2000/svg" viewBox="0 0 18.71 19.13"><g id="c"><g id="d"><path d="m13.79,1.93V.75c0-.41-.34-.75-.75-.75s-.75.34-.75.75v.93c-.87-.1-1.84-.15-2.94-.15s-2.06.05-2.94.15v-.93c0-.41-.34-.75-.75-.75s-.75.34-.75.75v1.18C1.2,2.79,0,5.17,0,10.33c0,6.82,2.1,8.8,9.36,8.8s9.36-1.97,9.36-8.8c0-5.16-1.2-7.54-4.92-8.4Zm-8.87,1.52v.36c0,.41.34.75.75.75s.75-.34.75-.75v-.64c.84-.1,1.81-.14,2.94-.14s2.1.04,2.94.14v.64c0,.41.34.75.75.75s.75-.34.75-.75v-.36c1.62.44,2.53,1.3,2.99,2.82H1.93c.46-1.52,1.37-2.38,2.99-2.82Zm4.44,14.18c-6.46,0-7.86-1.3-7.86-7.3,0-.97.04-1.81.13-2.55h15.45c.09.74.13,1.58.13,2.55,0,6-1.4,7.3-7.86,7.3Z" fill="#444" stroke-width="0"/><path d="m5.29,9.76c-.45,0-.79.35-.79.79s.35.79.8.79.79-.35.79-.79-.35-.79-.8-.79Z" fill="#444" stroke-width="0"/><path d="m5.29,13.31c-.45,0-.79.35-.79.79s.35.79.8.79.79-.35.79-.79-.35-.79-.8-.79Z" fill="#444" stroke-width="0"/><path d="m13.41,9.76c-.45,0-.79.35-.79.79s.35.79.8.79.79-.35.79-.79-.35-.79-.8-.79Z" fill="#444" stroke-width="0"/><path d="m13.41,13.31c-.45,0-.79.35-.79.79s.35.79.8.79.79-.35.79-.79-.35-.79-.8-.79Z" fill="#444" stroke-width="0"/><path d="m9.35,9.76c-.45,0-.79.35-.79.79s.35.79.8.79.79-.35.79-.79-.35-.79-.8-.79Z" fill="#444" stroke-width="0"/><path d="m9.35,13.31c-.45,0-.79.35-.79.79s.35.79.8.79.79-.35.79-.79-.35-.79-.8-.79Z" fill="#444" stroke-width="0"/></g></g></svg>