<?xml version="1.0" encoding="UTF-8"?><svg id="c" xmlns="http://www.w3.org/2000/svg" viewBox="0 0 24 24"><path d="m19.99,5.99c-1.33-1.78-3.23-3.06-5.36-3.64-1.86-.51-3.8-.47-5.62.1-1.83.57-3.44,1.65-4.67,3.12-1.24,1.47-2.01,3.24-2.26,5.14-.24,1.9.06,3.83.88,5.56.12.25.15.56.08.83l-.33,1.31c-.12.4-.12.81,0,1.21.11.4.32.76.61,1.05.28.29.65.5,1.05.6.4.11.81.11,1.2,0l1.31-.33c.28-.06.58-.03.86.11,1.3.6,2.71.92,4.13.94l.03.02c2.64,0,5.17-1.03,7.05-2.87,1.89-1.84,2.99-4.34,3.05-6.98.03-2.22-.68-4.41-2.01-6.17ZM7.15,14c0-.5.3-.8.8-.8h4c.4,0,.8.3.8.8s-.3.8-.8.8h-4c-.4,0-.8-.3-.8-.8Zm.8-3.2c-.4,0-.8-.3-.8-.8s.3-.8.8-.8h8c.4,0,.8.3.8.8s-.3.8-.8.8H7.95Z" fill="#444" stroke-width="0"/></svg>