<?xml version="1.0" encoding="UTF-8"?><svg id="d" xmlns="http://www.w3.org/2000/svg" viewBox="0 0 24 24"><path d="m13.46,9.35h3.38c.41,0,.75-.34.75-.75s-.34-.75-.75-.75h-3.38c-.41,0-.75.34-.75.75s.34.75.75.75Z" fill="#444" stroke-width="0"/><path d="m16.85,13.2H7.17c-.41,0-.74.34-.74.75s.34.75.76.75h9.66c.41,0,.75-.34.75-.75s-.34-.75-.75-.75Z" fill="#444" stroke-width="0"/><path d="m16.6,20.5H7.41c-.41,0-.75.34-.75.75s.34.75.75.75h9.19c.41,0,.75-.34.75-.75s-.34-.75-.75-.75Z" fill="#444" stroke-width="0"/><path d="m7.59,9.58c.55,0,1-.45,1-1s-.45-1-1-1h0c-.55,0-1,.45-1,1s.45,1,1,1Z" fill="#444" stroke-width="0"/><path d="m10.63,9.58c.55,0,1-.45,1-1s-.45-1-1-1h0c-.55,0-1,.45-1,1s.45,1,1,1Z" fill="#444" stroke-width="0"/><path d="m12.08,1.89C4.46,1.89,1.89,1.89,1.89,10.43s2.57,8.53,10.18,8.53,10.18,0,10.18-8.53S19.7,1.89,12.08,1.89Zm0,15.57c-7.53,0-8.68,0-8.68-7.03s1.16-7.03,8.68-7.03,8.68,0,8.68,7.03-1.16,7.03-8.68,7.03Z" fill="#444" stroke-width="0"/></svg>