<svg xmlns="http://www.w3.org/2000/svg" viewBox="0 0 24 24"><path fill="#444" d="M20.06 5.4a.755.755 0 0 0-1.04-.21c-.34.23-.44.7-.21 1.04 2.31 3.45 2.31 8.08 0 11.52-.23.34-.14.81.21 1.04a.75.75 0 0 0 1.04-.2c2.69-4 2.69-9.18 0-13.19"/><path fill="#444" d="M16.63 7.61c-.36.2-.49.66-.29 1.02a7.04 7.04 0 0 1 0 6.75c-.2.36-.07.82.29 1.02q.18.09.36.09c.26 0 .52-.14.66-.39 1.4-2.52 1.4-5.66 0-8.2-.2-.36-.65-.5-1.02-.29M12.54 4.9c-1.85-1.1-3.57.22-4.7 1.08-.43.33-.88.67-1.18.77-.43.14-.82.19-1.19.23-.7.08-1.43.17-2.24.86-1.3 1.1-1.3 2.87-1.29 4.15 0 1.29 0 3.05 1.29 4.15.81.69 1.54.78 2.24.86.37.04.75.09 1.19.23.3.1.74.44 1.18.77.82.63 1.94 1.49 3.22 1.49.49 0 1-.13 1.53-.44 1.44-1.03 1.96-2.88 1.96-7.07s-.49-6.03-2.01-7.1Zm-.77 12.91c-.91.54-1.79-.04-3.02-.98-.56-.43-1.08-.83-1.62-1.01-.58-.19-1.05-.25-1.48-.3-.61-.07-.98-.12-1.45-.51-.77-.65-.77-1.9-.76-3.01 0-1.11 0-2.36.76-3.01.47-.4.84-.44 1.45-.51.42-.05.9-.11 1.48-.3.54-.18 1.06-.58 1.62-1.01.92-.7 1.64-1.21 2.31-1.21.23 0 .45.06.67.19.82.58 1.32 1.76 1.32 5.85s-.51 5.26-1.27 5.81Z"/></svg>