<?xml version="1.0" encoding="UTF-8"?><svg id="b" xmlns="http://www.w3.org/2000/svg" viewBox="0 0 24 24"><path d="m21.63,14.66l-.41,1.86c-.71,3.2-3.22,5.48-6.84,5.48h-4.76c-3.62,0-6.13-2.28-6.84-5.48l-.41-1.86c-.2-.91.34-1.94,1.21-2.29l1.42-.57,5.51-2.21c.48-.19.99-.29,1.49-.29s1.01.1,1.49.29l5.51,2.21,1.42.57c.87.35,1.41,1.38,1.21,2.29Z" fill="#444" stroke-width="0"/><path d="m19,8v1.44c0,.35-.36.6-.69.46l-4.27-1.71c-1.31-.51-2.77-.51-4.09.01l-4.26,1.71c-.33.14-.69-.11-.69-.46v-1.45c0-1.65,1.35-3,3-3h8c1.65,0,3,1.35,3,3Z" fill="#444" stroke-width="0"/><path d="m14.5,5h-5v-2c0-.55.45-1,1-1h3c.55,0,1,.45,1,1v2Z" fill="#444" stroke-width="0"/></svg>