<?xml version="1.0" encoding="UTF-8"?><svg id="a" xmlns="http://www.w3.org/2000/svg" viewBox="0 0 24 24"><path d="m21.81,9.6c-.55-1.43-1.94-2.38-3.47-2.38h-1.09v-1.19c.39-.02.7-.34.7-.74s-.33-.74-.74-.74h-6.17c-.41,0-.74.33-.74.74s.31.72.7.74v1.19h-5.33c-1.53,0-2.93.96-3.47,2.38-.93,2.41-.93,5.06,0,7.46.55,1.43,1.94,2.38,3.47,2.38h12.66c1.53,0,2.93-.96,3.47-2.38.93-2.41.93-5.06,0-7.46Zm-9.33-2.38v-1.19h3.3v1.19h-3.3Zm-6.31,9.49c.41,0,.74-.33.74-.74v-.85h2.08v.85c0,.41.33.74.74.74s.74-.33.74-.74v-7.28h7.88c.92,0,1.77.58,2.1,1.44.78,2.04.78,4.37,0,6.41h0c-.33.86-1.17,1.44-2.1,1.44H5.67c-.92,0-1.77-.58-2.1-1.44-.78-2.04-.78-4.37,0-6.41.29-.77,1-1.31,1.86-1.42v7.26c0,.41.33.74.74.74Zm.74-3.06v-.73h2.08v.73h-2.08Zm0-2.21v-.73h2.08v.73h-2.08Zm0-2.21v-.54h2.08v.54h-2.08Z" fill="#444" stroke-width="0"/></svg>