<svg xmlns="http://www.w3.org/2000/svg" viewBox="0 0 24 24"><path fill="#444" d="M13.12 8.9h-.03c-.29.02-.53.22-.59.51v.13l-.45 6.72c-.04.71-.63 1.26-1.34 1.26H6.32c-.71 0-1.3-.55-1.34-1.26l-.45-6.72v-.05c-.02-.33-.29-.58-.65-.58-.33 0-.6.28-.61.63l.45 6.8a2.61 2.61 0 0 0 2.6 2.44h4.38c1.37 0 2.51-1.07 2.61-2.44l.45-6.72V9.5a.635.635 0 0 0-.62-.61Zm1.53-1.61c-.1-.02-.21-.03-.31-.04h-.04c-.84-.13-1.7-.22-2.56-.27-.17-.14-.29-.32-.36-.52l-.02-.05c-.23-.71-.89-1.18-1.63-1.18H7.26c-.74 0-1.4.48-1.63 1.18l-.02.06c-.07.21-.2.39-.37.53-.85.06-1.68.15-2.46.25l-.13.02c-.18.02-.29.04-.31.04-.26.04-.47.25-.52.53v.05c-.02.35.24.65.59.67h.18c.05 0 .15-.02.28-.04.62-.08 1.24-.15 1.89-.2 1.9-.16 4.84-.28 8.09.04.44.05.9.09 1.35.16l.29.04a.624.624 0 0 0 .71-.53v-.22a.66.66 0 0 0-.53-.51Zm-4.48-.4c-1.1-.04-2.22-.03-3.41.01l.04-.13c.11-.24.19-.34.38-.35h2.7c.12 0 .2.1.22.28l.06.19Zm11.34 1.99h-4.67c-.39 0-.7.31-.7.7s.31.7.7.7h4.67c.39 0 .7-.31.7-.7s-.31-.7-.7-.7m-.94 4h-3.73c-.39 0-.7.31-.7.7s.31.7.7.7h3.73c.39 0 .7-.31.7-.7s-.31-.7-.7-.7m-1.86 4h-1.87c-.39 0-.7.31-.7.7s.31.7.7.7h1.87c.39 0 .7-.31.7-.7s-.31-.7-.7-.7"/></svg>