<svg xmlns="http://www.w3.org/2000/svg" viewBox="0 0 24 24"><path d="M12 21.5c-1.19 0-2.36-.39-3.31-1.11L6.1 18.45a6.7 6.7 0 0 1-1.94-2.32c-.46-.91-.7-1.93-.7-2.94V7.56c0-.79.25-1.55.72-2.18a3.63 3.63 0 0 1 1.87-1.33l3.97-1.25c1.29-.4 2.65-.4 3.93 0l3.98 1.25c.75.23 1.4.69 1.87 1.33s.72 1.39.72 2.18v5.63c0 1.02-.24 2.04-.7 2.94-.45.91-1.13 1.71-1.94 2.32l-2.59 1.94c-.94.71-2.12 1.11-3.31 1.11Zm0-17.45c-.51 0-1.01.08-1.51.23L6.52 5.53a2.14 2.14 0 0 0-1.5 2.03v5.62c0 .78.19 1.55.53 2.25s.86 1.31 1.48 1.78l2.59 1.94c1.36 1.03 3.39 1.03 4.75 0l2.59-1.94a5.16 5.16 0 0 0 1.48-1.77c.35-.69.53-1.47.54-2.25V7.57c0-.46-.14-.89-.42-1.26-.27-.37-.65-.64-1.08-.77L13.5 4.29c-.49-.15-1-.23-1.5-.23Zm-5.71.74"/><path d="M12.01 16.79c-.44 0-.8-.36-.8-.8s.35-.8.79-.8.8.36.8.8-.36.8-.8.8zm-.01-3c-.44 0-.8-.36-.8-.8s.36-.8.8-.8c.34 0 .66-.1.94-.29s.5-.45.63-.76.16-.65.1-.98a1.73 1.73 0 0 0-.47-.87c-.24-.24-.54-.4-.87-.46-.33-.07-.67-.03-.98.1s-.58.35-.76.63c-.19.28-.29.61-.29.94 0 .44-.36.8-.8.8s-.8-.36-.8-.8c0-.66.19-1.29.56-1.83.36-.54.88-.96 1.48-1.21s1.26-.32 1.91-.19c.64.13 1.23.44 1.69.9s.78 1.05.9 1.69c.13.65.06 1.3-.19 1.91-.25.6-.67 1.12-1.22 1.48-.54.36-1.18.56-1.83.56z"/></svg>