<svg xmlns="http://www.w3.org/2000/svg" width="24" height="24" data-name="Icons-2"><path d="M21.67 19.95h-.72v-5.6c0-2.39-1.72-2.56-4.34-2.56h-4.64V5.24c0-2.01-.68-2.68-2.68-2.68H5.42c-2.01 0-2.68.68-2.68 2.68v14.72h-.4c-.41 0-.75.34-.75.75s.34.75.75.75h19.33c.41 0 .75-.34.75-.75s-.34-.75-.75-.75zM4.23 5.23q0-1.18 1.18-1.18h3.87q1.18 0 1.18 1.18v14.72H8.09v-1.18c0-.41-.34-.75-.75-.75s-.75.34-.75.75v1.18H4.22V5.23zm7.73 14.72v-6.66h4.64c2.84 0 2.84.25 2.84 1.06v5.6h-7.49z"/><path d="M6.38 11.3h1.93c.41 0 .75-.34.75-.75s-.34-.75-.75-.75H6.38c-.41 0-.75.34-.75.75s.34.75.75.75m0-3.38h1.93c.41 0 .75-.34.75-.75s-.34-.75-.75-.75H6.38c-.41 0-.75.34-.75.75s.34.75.75.75m1.93 6.76c.41 0 .75-.34.75-.75s-.34-.75-.75-.75H6.38c-.41 0-.75.34-.75.75s.34.75.75.75z"/></svg>