<?xml version="1.0" encoding="UTF-8"?><svg id="b" xmlns="http://www.w3.org/2000/svg" viewBox="0 0 24 24"><path d="m8.4,20.23c-.2,0-.39-.08-.55-.23l-1.46-1.46s-.08-.03-.11,0l-1.46,1.46c-.3.3-.79.3-1.09,0s-.3-.79,0-1.09l1.46-1.46s.03-.08,0-.11l-1.46-1.46c-.3-.3-.3-.79,0-1.09s.79-.3,1.09,0l1.46,1.46s.08.03.11,0l1.46-1.46c.3-.3.79-.3,1.09,0s.3.79,0,1.09l-1.46,1.46s-.03.08,0,.11l1.46,1.46c.3.3.3.79,0,1.09-.15.15-.35.23-.55.23Zm11.83-.51h-5.14c-.43,0-.77-.35-.77-.77s.35-.77.77-.77h5.14c.43,0,.77.35.77.77s-.35.77-.77.77Zm0-3.09h-5.14c-.43,0-.77-.35-.77-.77s.35-.77.77-.77h5.14c.43,0,.77.35.77.77s-.35.77-.77.77Zm-2.57-6.17c-.43,0-.77-.35-.77-.77v-1.77s-.01-.03-.03-.03h-1.77c-.43,0-.77-.35-.77-.77s.35-.77.77-.77h1.77s.03-.01.03-.03v-1.77c0-.43.35-.77.77-.77s.77.35.77.77v1.77s.01.03.03.03h1.77c.43,0,.77.35.77.77s-.35.77-.77.77h-1.77s-.03.01-.03.03v1.77c0,.43-.35.77-.77.77Zm-8.74-2.57H3.77c-.43,0-.77-.35-.77-.77s.35-.77.77-.77h5.14c.43,0,.77.35.77.77s-.35.77-.77.77Z" stroke-width="0"/></svg>