<?xml version="1.0" encoding="UTF-8"?><svg id="c" xmlns="http://www.w3.org/2000/svg" viewBox="0 0 24 24"><path d="m18.92,4.56c-1.69-1.49-4.7-2.16-6.92-2.16s-5.21.74-6.91,2.15c-1.62,1.34-3.63,5.04-2.96,7.55.24.89.9,2.01,2.73,2.33h.02c-.04.45-.06.89-.06,1.32,0,.02,0,.03,0,.05,0,.01,0,.03,0,.04,0,.19.02.37.03.55,0,.1,0,.2.02.3.03.26.07.51.12.74,0,.02,0,.04.01.06.05.25.12.48.2.7,0,0,0,0,0,0,1.17,3.28,4.85,3.37,6.8,3.42,3.34,0,7.18-.66,7.18-5.77,0-.01,0-.03,0-.04,0-.02,0-.03,0-.05,0-.43-.02-.87-.06-1.32h.02c1.83-.32,2.49-1.45,2.73-2.33.67-2.51-1.34-6.21-2.94-7.53Zm1.49,7.15c-.11.43-.39,1.02-1.47,1.23h0c-.4-2.69-1.18-5.11-1.22-5.24-.13-.39-.55-.61-.94-.48-.39.13-.61.55-.48.95,0,.03.73,2.29,1.13,4.78h0l.09.83c.08.69.16,1.41.16,2.03-.02,3.11-1.51,4.22-5.68,4.22-3.93,0-5.48-.98-5.66-3.7,0-.03,0-.07,0-.1,0-.14-.01-.28-.01-.42,0-.62.08-1.33.16-2.03l.09-.8c.4-2.49,1.12-4.78,1.13-4.81.12-.39-.09-.82-.49-.94-.39-.12-.82.09-.94.49-.04.14-.82,2.58-1.22,5.24h0c-1.08-.21-1.36-.8-1.47-1.23-.48-1.79,1.15-4.92,2.47-6.01,1.41-1.17,4.12-1.8,5.95-1.8,1.94,0,4.6.61,5.95,1.8,1.32,1.09,2.94,4.21,2.47,6.01Z" fill="#444" stroke-width="0"/><path d="m14.59,10.06c-.41,0-.75.34-.75.75v.74c0,.41.34.75.75.75s.75-.34.75-.75v-.74c0-.41-.34-.75-.75-.75Z" fill="#444" stroke-width="0"/><path d="m9.58,10.06c-.41,0-.75.34-.75.75v.74c0,.41.34.75.75.75s.75-.34.75-.75v-.74c0-.41-.34-.75-.75-.75Z" fill="#444" stroke-width="0"/><path d="m12.97,14.61c-.29-.11-.6-.11-1.05-.11-.23,0-.47.03-.66.06-.07.01-.13.02-.17.02-.41,0-.75.34-.75.75,0,.2.08.39.21.52.21.42.55.73.76.92l.09.08c.14.14.33.22.53.22h.17c.15,0,.29-.04.41-.12.17-.11.74-.53,1.03-1.25.04-.09.05-.19.05-.28,0-.39-.26-.71-.62-.8Z" fill="#444" stroke-width="0"/></svg>