<svg xmlns="http://www.w3.org/2000/svg" viewBox="0 0 24 24"><path fill="#444" d="M11.91 2c4.44 0 8.15 3.61 8.15 8.15 0 2.41-1.02 4.54-2.59 6.02.56.74 1.02 1.39 1.3 1.85s.46 1.02.46 1.48c0 .74-.37 1.48-1.02 1.94-.37.28-.93.46-1.48.46-.56.09-1.3.09-2.22.09h-5c-.93 0-1.67 0-2.22-.09s-1.11-.19-1.48-.46c-.65-.46-.93-1.2-1.02-1.94 0-.56.19-1.02.46-1.48s.74-1.11 1.3-1.85c-1.67-1.48-2.59-3.61-2.59-6.02C3.77 5.71 7.48 2 11.92 2Zm4.35 15c-1.3.83-2.78 1.3-4.35 1.3s-3.06-.46-4.35-1.3c-.56.74-.93 1.3-1.2 1.76s-.28.65-.28.74c0 .37.19.65.46.83.09.09.28.19.74.19h9.26c.46 0 .74-.09.74-.19.28-.19.46-.56.46-.83 0-.09 0-.28-.28-.74s-.65-1.02-1.2-1.76M11.91 3.48c-3.7 0-6.67 2.96-6.67 6.67s2.96 6.67 6.67 6.67 6.67-2.96 6.67-6.67-2.96-6.67-6.67-6.67m0 4.07c1.39 0 2.59 1.11 2.59 2.59s-1.11 2.59-2.59 2.59-2.59-1.11-2.59-2.59 1.2-2.59 2.59-2.59m0 1.48c-.65 0-1.11.56-1.11 1.11s.56 1.11 1.11 1.11 1.11-.56 1.11-1.11-.46-1.11-1.11-1.11"/></svg>