<svg xmlns="http://www.w3.org/2000/svg" viewBox="0 0 24 24"><g fill="#444"><path d="M11.93 20.43h-.23c-6.76 0-8.22-1.35-8.22-7.62 0-1.01.04-1.9.14-2.68h16.17c.04.36.07.73.09 1.14.02.42.36.75.77.75.44 0 .78-.36.78-.77v-.04c-.25-4.29-1.62-6.38-5.09-7.18V2.79a.781.781 0 0 0-1.56 0v.97c-.91-.09-1.93-.15-3.07-.15s-2.16.04-3.07.15v-.97a.781.781 0 0 0-1.56 0v1.23c-3.89.9-5.15 3.4-5.15 8.8 0 7.13 2.2 9.19 9.79 9.19h.25c.43-.01.76-.36.76-.78s-.35-.78-.78-.78ZM7.05 5.6v.39a.781.781 0 0 0 1.56 0v-.67c.88-.1 1.89-.15 3.07-.15s2.19.04 3.07.15v.67a.781.781 0 0 0 1.56 0v-.38c1.69.46 2.64 1.36 3.13 2.95H3.92c.49-1.6 1.43-2.5 3.14-2.96Zm11.44 12.08c-.37 0-.67.3-.67.67v.85a.67.67 0 0 0 1.34 0v-.85c0-.37-.3-.67-.67-.67"/><path d="M20.9 16.11v-.42c-.01-.64-.27-1.25-.73-1.69-.45-.45-1.05-.68-1.72-.69-1.3.01-2.36 1.08-2.38 2.38v.42c-.81.47-1.18 1.3-1.18 2.59 0 2.19 1.04 3.07 3.6 3.07s3.61-.89 3.61-3.07c0-1.3-.38-2.12-1.19-2.59Zm-2.41 4.33c-1.96 0-2.27-.41-2.27-1.74 0-1.07.26-1.37.67-1.53.04-.01.09-.03.12-.04.32-.12.81-.17 1.48-.17s1.15.05 1.42.14l.13.05c.46.18.72.48.72 1.55 0 .66-.07 1.1-.4 1.37-.32.26-.89.37-1.87.37m.75-5.49c.21.2.32.47.32.75q-.48-.06-1.08-.06c-.6 0-.76.02-1.09.06.01-.59.49-1.06 1.08-1.07.29 0 .55.12.76.31Z"/></g></svg>