<?xml version="1.0" encoding="UTF-8"?><svg id="b" xmlns="http://www.w3.org/2000/svg" viewBox="0 0 19.79 19.79"><g id="c"><g id="d"><path d="m9.89,0C3.61,0,0,3.61,0,9.89s3.61,9.89,9.89,9.89,9.89-3.61,9.89-9.89S16.18,0,9.89,0Zm0,18.29c-5.41,0-8.39-2.98-8.39-8.39S4.48,1.5,9.89,1.5s8.39,2.98,8.39,8.39-2.98,8.39-8.39,8.39Z" fill="#444" stroke-width="0"/><path d="m14.53,9.14H5.25c-.41,0-.75.34-.75.75s.34.75.75.75h9.28c.41,0,.75-.34.75-.75s-.34-.75-.75-.75Z" fill="#444" stroke-width="0"/></g></g></svg>