<?xml version="1.0" encoding="UTF-8"?><svg id="b" xmlns="http://www.w3.org/2000/svg" viewBox="0 0 18.01 15.38"><g id="c"><path d="m11.43.64c-1.5-.85-3.34-.85-4.84,0L1.01,3.77c-1.35.76-1.35,2.7,0,3.45l5.58,3.14c1.5.84,3.34.84,4.84,0l5.58-3.14c1.35-.76,1.34-2.7,0-3.45L11.43.64Z" fill="#444" stroke-width="0"/><path d="m.88,8.75c-.23-.13-.52-.04-.64.19-.48.9-.23,2.11.77,2.67l5.58,3.14c1.5.84,3.34.84,4.84,0l5.58-3.14c1-.56,1.26-1.78.77-2.67-.12-.23-.41-.32-.64-.19l-5.03,2.82c-1.93,1.08-4.27,1.08-6.2,0L.88,8.75Z" fill="#444" stroke-width="0"/></g></svg>