<svg xmlns="http://www.w3.org/2000/svg" viewBox="0 0 19.4 17.93"><path fill="#444" d="M18.59 7.42h-2.22c-.45 0-.81.36-.81.81s.36.81.81.81h1.38l-.05.34c-.49 3.31-3.01 6.02-6.27 6.74a.76.76 0 0 1-.63-.15.79.79 0 0 1-.29-.6V6.49c0-.29.18-.56.46-.69.77-.36 1.36-1.03 1.62-1.84.26-.83.16-1.7-.28-2.47A3.03 3.03 0 0 0 9.39.02c-.94.11-1.77.63-2.26 1.42s-.6 1.74-.29 2.62c.27.76.85 1.4 1.59 1.74.28.13.46.4.46.69v8.88c0 .23-.11.45-.29.6-.18.14-.41.2-.63.15-3.26-.72-5.78-3.43-6.27-6.74l-.05-.34h1.38c.45 0 .81-.36.81-.81s-.36-.81-.81-.81H.81c-.45 0-.81.36-.81.81 0 2.59 1.01 5.02 2.84 6.86a9.65 9.65 0 0 0 6.86 2.84c5.35 0 9.7-4.35 9.7-9.7 0-.45-.36-.81-.81-.81M8.29 3.04c0-.77.63-1.41 1.41-1.41s1.41.64 1.41 1.41-.63 1.42-1.41 1.42-1.41-.64-1.41-1.42"/></svg>