<?xml version="1.0" encoding="UTF-8"?><svg id="c" xmlns="http://www.w3.org/2000/svg" viewBox="0 0 24 24"><g id="d"><path d="m19.89,8.78c-.76-2.44-2.51-4.06-5.08-4.71-.85-.22-1.79-.33-2.81-.33s-1.96.11-2.81.33c-2.57.65-4.32,2.27-5.08,4.71-.32.95-.48,2.03-.48,3.22s.16,2.27.48,3.22c.76,2.44,2.51,4.06,5.08,4.71.85.22,1.79.33,2.81.33s1.96-.11,2.81-.33c2.57-.65,4.32-2.27,5.08-4.71.32-.95.48-2.03.48-3.22s-.16-2.27-.48-3.22Zm-1.47,6.24c-.63,1.71-1.87,2.86-3.66,3.42-.01,0-.02.01-.03,0-.8.26-1.71.38-2.73.38s-1.93-.12-2.73-.38c-.01.01-.02,0-.03,0-1.79-.56-3.03-1.71-3.66-3.42-.33-.87-.5-1.87-.5-3.02s.17-2.15.5-3.02c.63-1.71,1.87-2.86,3.66-3.42.01,0,.02-.01.03,0,.8-.26,1.71-.38,2.73-.38s1.93.12,2.73.38c.01-.01.02,0,.03,0,1.79.56,3.03,1.71,3.66,3.42.33.87.5,1.87.5,3.02s-.17,2.15-.5,3.02Z" fill="#707575" stroke-width="0"/><path d="m17.25,11.25c-.04-.45-.13-.88-.26-1.27-.49-1.55-1.61-2.58-3.24-3-1.05-.27-2.45-.27-3.5,0-1.64.42-2.75,1.46-3.24,3-.13.39-.22.82-.26,1.27-.03.24-.04.49-.04.75s0,.51.04.75c.04.45.13.88.26,1.26.49,1.55,1.6,2.59,3.24,3.01.53.13,1.12.2,1.75.2s1.22-.07,1.75-.2c1.64-.42,2.75-1.46,3.24-3,.13-.39.22-.82.26-1.27.03-.24.04-.49.04-.75s0-.51-.04-.75Zm-1.5,2.1v.02c-.04.12-.08.24-.12.36-.34.91-.98,1.54-1.91,1.87h0s-.14.04-.14.04c-.13.04-.26.08-.4.11-.35.07-.73.11-1.17.11s-.82-.04-1.17-.11c-.14-.03-.27-.07-.4-.11l-.14-.05h0c-.93-.32-1.58-.95-1.91-1.86-.04-.12-.08-.24-.12-.36v-.02c-.11-.4-.17-.85-.17-1.35s.06-.94.17-1.35v-.02c.04-.12.08-.24.12-.36.33-.91.98-1.53,1.91-1.86l.15-.05c.15-.05.3-.08.46-.11.33-.07.7-.11,1.11-.11s.78.04,1.11.11c.16.03.31.06.46.11l.15.05c.93.33,1.58.95,1.91,1.86.04.12.08.24.12.36v.02c.11.41.17.86.17,1.35s-.06.95-.17,1.35Z" fill="#707575" stroke-width="0"/><path d="m8.41,5.55c-.41,0-.75-.34-.75-.75v-1.8c0-.41.34-.75.75-.75s.75.34.75.75v1.8c0,.41-.34.75-.75.75Z" fill="#707575" stroke-width="0"/><path d="m12.07,4.96c-.41,0-.82.25-.82-.16v-1.8c0-.41.34-.75.75-.75s.75.34.75.75v1.8c0,.41-.26.16-.68.16Z" fill="#707575" stroke-width="0"/><path d="m15.6,5.55c-.41,0-.75-.34-.75-.75v-1.8c0-.41.34-.75.75-.75s.75.34.75.75v1.8c0,.41-.34.75-.75.75Z" fill="#707575" stroke-width="0"/><path d="m21,9.15h-1.8c-.41,0-.75-.34-.75-.75s.34-.75.75-.75h1.8c.41,0,.75.34.75.75s-.34.75-.75.75Z" fill="#707575" stroke-width="0"/><path d="m21,12.75h-1.8c-.41,0-.11-.39-.11-.81s-.31-.69.11-.69h1.8c.41,0,.75.34.75.75s-.34.75-.75.75Z" fill="#707575" stroke-width="0"/><path d="m21,16.35h-1.8c-.41,0-.75-.34-.75-.75s.34-.75.75-.75h1.8c.41,0,.75.34.75.75s-.34.75-.75.75Z" fill="#707575" stroke-width="0"/><path d="m15.6,21.75c-.41,0-.75-.34-.75-.75v-1.8c0-.41.34-.75.75-.75s.75.34.75.75v1.8c0,.41-.34.75-.75.75Z" fill="#707575" stroke-width="0"/><path d="m12.01,21.75c-.41,0-.75-.34-.75-.75v-1.8c0-.41.38-.24.8-.24s.7-.18.7.24v1.8c0,.41-.34.75-.75.75Z" fill="#707575" stroke-width="0"/><path d="m8.41,21.75c-.41,0-.75-.34-.75-.75v-1.8c0-.41.34-.75.75-.75s.75.34.75.75v1.8c0,.41-.34.75-.75.75Z" fill="#707575" stroke-width="0"/><path d="m4.8,9.15h-1.8c-.41,0-.75-.34-.75-.75s.34-.75.75-.75h1.8c.41,0,.75.34.75.75s-.34.75-.75.75Z" fill="#707575" stroke-width="0"/><path d="m4.8,12.75h-1.8c-.41,0-.75-.34-.75-.75s.34-.75.75-.75h1.8c.41,0-.36.34-.36.75s.77.75.36.75Z" fill="#707575" stroke-width="0"/><path d="m4.8,16.35h-1.8c-.41,0-.75-.34-.75-.75s.34-.75.75-.75h1.8c.41,0,.75.34.75.75s-.34.75-.75.75Z" fill="#707575" stroke-width="0"/></g></svg>