<?xml version="1.0" encoding="UTF-8"?><svg id="e" xmlns="http://www.w3.org/2000/svg" viewBox="0 0 24 24"><path d="m20.98,11.01s-.71-.05-1.73-.11c-.07-.88-.16-1.91-.31-2.75-.13-.8-.38-1.85-.72-3.12-.38-1.39-1.55-2.38-2.98-2.52-1.32-.13-2.4-.19-3.21-.19s-1.9.06-3.21.19c-1.44.14-2.61,1.13-2.98,2.52-.34,1.27-.59,2.32-.72,3.12-.14.84-.24,1.87-.31,2.74-1.05.06-1.76.11-1.78.11-.41.03-.73.39-.7.8.03.41.42.74.8.7.04,0,2.6-.18,5.31-.28,0,0,0,0,0,0,.21,0,.43-.02.65-.02.06,0,.11,0,.17,0,.18,0,.36-.01.54-.02.1,0,.2,0,.3,0,.15,0,.29,0,.44-.01.15,0,.3,0,.44,0,.1,0,.2,0,.3,0,.25,0,.49,0,.72,0s.48,0,.73,0c.1,0,.2,0,.3,0,.15,0,.3,0,.45,0,.14,0,.28,0,.43.01.11,0,.21,0,.32,0,.17,0,.35.01.52.02.07,0,.13,0,.2,0,2.93.1,5.9.31,5.94.31.02,0,.03,0,.05,0,.39,0,.72-.3.75-.7.03-.41-.28-.77-.7-.8Zm-14.67-.19c.06-.79.15-1.69.27-2.41.12-.74.36-1.77.69-2.98.21-.78.87-1.34,1.68-1.42h0c1.25-.12,2.31-.19,3.07-.19s1.8.06,3.07.19c.81.08,1.47.64,1.68,1.42.33,1.21.56,2.24.69,2.98.12.72.21,1.62.27,2.41-.18,0-.37-.02-.55-.03-.09,0-.17,0-.26-.01-.3-.01-.6-.03-.92-.04-.3-.01-.6-.02-.91-.04-.13,0-.26,0-.39-.01-.42-.01-.84-.03-1.25-.04-.04,0-.08,0-.12,0-.47,0-.92-.02-1.34-.02s-.86,0-1.31.01c-.04,0-.08,0-.13,0-.4,0-.81.02-1.22.03-.13,0-.27,0-.4.01-.31.01-.62.02-.93.04-.26.01-.5.02-.76.03-.19,0-.37.02-.55.03-.13,0-.27.01-.39.02Z" fill="#444" stroke-width="0"/><path d="m16.41,14.46c-1.72,0-2.91.79-3.38,2.16-.67-.2-1.38-.2-2.04,0-.46-1.41-1.65-2.22-3.39-2.22-2.26,0-3.61,1.35-3.61,3.61s1.35,3.61,3.61,3.61,3.54-1.3,3.6-3.46c.52-.22,1.1-.22,1.62,0,.03,2.21,1.37,3.53,3.6,3.53s3.61-1.35,3.61-3.61-1.35-3.61-3.61-3.61Zm-8.82,5.66c-1.42,0-2.11-.69-2.11-2.11s.69-2.11,2.11-2.11,2.11.69,2.11,2.11-.69,2.11-2.11,2.11Zm8.82.06c-1.42,0-2.11-.69-2.11-2.11s.69-2.11,2.11-2.11,2.11.69,2.11,2.11-.69,2.11-2.11,2.11Z" fill="#444" stroke-width="0"/></svg>