<svg xmlns="http://www.w3.org/2000/svg" viewBox="0 0 24 24"><path fill="#444" d="M6.67 13.99a.747.747 0 0 0 .57-1.24C3.1 7.9 3.99 5.81 4.39 5.23c.18-.3 1.14-1.54 2.18-1.72.45-.08.87.06 1.29.41 2.53 2.09 2.21 2.75 1.77 3.65-.31.64-.69 1.43-.37 2.55.12.4.53.62.93.51.4-.12.63-.53.51-.93-.16-.54 0-.89.28-1.48.72-1.48 1.02-2.83-2.17-5.46-.78-.64-1.66-.89-2.55-.72-1.88.36-3.13 2.38-3.13 2.38-.84 1.19-1.56 3.98 2.97 9.3.15.17.36.26.57.26Zm14.52 1.21c-2.62-3.19-4.01-2.86-5.44-2.17-.8.39-1.45.68-3.02-.71l8.06-8.1c.29-.29.29-.77 0-1.06a.754.754 0 0 0-1.06 0L2.26 20.72c-.29.29-.29.77 0 1.06.15.15.34.22.53.22s.38-.07.53-.22l5.33-5.36c4.17 4.04 6.98 5.13 8.78 5.13.94 0 1.6-.29 2.04-.61.02-.01 2.08-1.28 2.43-3.17.17-.9-.08-1.78-.72-2.57Zm-.75 2.26c-.18 1.04-1.4 1.98-1.78 2.22-.43.32-2.89 1.55-8.95-4.33l1.96-1.96c2.19 1.96 3.5 1.6 4.74.99.9-.44 1.55-.76 3.62 1.77.35.43.49.86.41 1.31"/></svg>