<svg xmlns="http://www.w3.org/2000/svg" viewBox="0 0 24 24"><path fill="#444" fill-rule="evenodd" d="M7.26 10.07a.752.752 0 0 1 1.49.14v.46c2.12.64 4.38.64 6.5 0v-.46a.752.752 0 0 1 1.49-.14c1.1-.55 2.42-1.4 4.52-2.77.05-.03.11-.06.17-.08-.15-.32-.35-.59-.59-.84-.99-.99-2.49-1.14-5.19-1.17-.08 0-.16-.05-.19-.13-.57-1.35-1.9-2.29-3.45-2.29s-2.88.95-3.45 2.29c-.03.08-.11.13-.19.13-2.7.02-4.2.18-5.19 1.17-.24.24-.44.52-.59.84.06.02.11.05.17.08 2.1 1.36 3.42 2.22 4.52 2.77ZM12 4.3c.74 0 1.4.36 1.81.92h-3.62A2.24 2.24 0 0 1 12 4.3"/><path fill="#444" fill-rule="evenodd" d="M21.85 8.8s-.06-.06-.1-.04c-2.23 1.45-3.67 2.38-5 2.95v.49c0 .41-.34.75-.75.75s-.74-.33-.75-.73c-2.13.56-4.37.56-6.5 0 0 .41-.34.73-.75.73s-.75-.34-.75-.75v-.49c-1.34-.57-2.77-1.5-5-2.95-.04-.02-.09 0-.1.04C2 9.89 2 11.31 2 13.21c0 3.77 0 5.66 1.17 6.83s3.06 1.17 6.83 1.17h4c3.77 0 5.66 0 6.83-1.17S22 16.98 22 13.21c0-1.89 0-3.31-.15-4.41"/></svg>