<svg xmlns="http://www.w3.org/2000/svg" viewBox="0 0 18.71 19.13"><path fill="#444" d="M13.79 1.93V.75c0-.41-.34-.75-.75-.75s-.75.34-.75.75v.93c-.87-.1-1.84-.15-2.94-.15s-2.06.05-2.93.15V.75c0-.41-.34-.75-.75-.75s-.75.34-.75.75v1.18C1.2 2.79 0 5.17 0 10.33c0 6.82 2.1 8.8 9.36 8.8s9.36-1.97 9.36-8.8c0-5.16-1.2-7.54-4.92-8.4ZM4.92 3.45v.36c0 .41.34.75.75.75s.75-.34.75-.75v-.64c.84-.1 1.81-.14 2.93-.14s2.1.04 2.94.14v.64c0 .41.34.75.75.75s.75-.34.75-.75v-.36c1.55.42 2.45 1.23 2.93 2.63.03.09-.04.19-.13.19H2.13c-.1 0-.17-.1-.13-.19.48-1.41 1.38-2.21 2.93-2.63Zm4.43 14.18c-6.46 0-7.86-1.3-7.86-7.3 0-.92.04-1.72.12-2.43 0-.07.07-.12.14-.12h15.2c.07 0 .13.05.14.12.08.71.12 1.51.12 2.43 0 6-1.4 7.3-7.86 7.3"/></svg>