<?xml version="1.0" encoding="UTF-8"?><svg id="b" xmlns="http://www.w3.org/2000/svg" viewBox="0 0 24 24"><path d="m19,7c-.14,0-.25.11-.25.25v4.75c0,.41-.34.75-.75.75s-.75-.34-.75-.75v-4.75c0-.14-.11-.25-.25-.25h-2c-.14,0-.25.11-.25.25v2.35c0,.41-.34.75-.75.75s-.75-.34-.75-.75v-2.35c0-.14-.11-.25-.25-.25h-1.96c-.14,0-.25.11-.25.25l-.04,4.76c0,.41-.34.74-.75.74h-.01c-.41,0-.74-.34-.74-.76l.04-4.74c0-.14-.11-.25-.25-.25h-2.04c-.14,0-.25.11-.25.25v3.55c0,.41-.34.75-.75.75s-.75-.34-.75-.75v-3.55c0-.14-.11-.25-.25-.25-1.66,0-3,1.34-3,3v4c0,1.66,1.34,3,3,3h14c1.66,0,3-1.34,3-3v-4c0-1.66-1.34-3-3-3Z" fill="#444" stroke-width="0"/></svg>