<?xml version="1.0" encoding="UTF-8"?><svg id="b" xmlns="http://www.w3.org/2000/svg" viewBox="0 0 17.5 18.5"><g id="c"><path id="d" d="m17.5,3.3c0-1.82-1.53-3.3-3.42-3.3s-3.42,1.48-3.42,3.3c0,1.57,1.14,2.88,2.67,3.21v.19c0,.99-.86,1.8-1.92,1.8h-5.33c-1.06,0-1.92-.81-1.92-1.8v-.19c1.52-.33,2.67-1.64,2.67-3.21,0-1.82-1.53-3.3-3.42-3.3S0,1.48,0,3.3c0,1.57,1.14,2.88,2.67,3.21v.19c0,1.82,1.53,3.3,3.42,3.3h1.78c.08,0,.14.06.14.14v1.75c0,.06-.04.11-.1.13-1.47.37-2.57,1.66-2.57,3.19,0,1.82,1.53,3.3,3.42,3.3s3.42-1.48,3.42-3.3c0-1.54-1.09-2.82-2.57-3.19-.06-.01-.1-.06-.1-.12v-1.65c0-.18.06-.24.14-.24h1.78c1.88,0,3.42-1.48,3.42-3.3v-.19c1.52-.33,2.67-1.64,2.67-3.21ZM1.5,3.3c0-.99.86-1.8,1.92-1.8s1.92.81,1.92,1.8-.86,1.8-1.92,1.8-1.92-.81-1.92-1.8Zm9.17,11.9c0,.99-.86,1.8-1.92,1.8s-1.92-.81-1.92-1.8.86-1.8,1.92-1.8,1.92.81,1.92,1.8Zm3.42-10.1c-1.06,0-1.92-.81-1.92-1.8s.86-1.8,1.92-1.8,1.92.81,1.92,1.8-.86,1.8-1.92,1.8Z" fill="#444" stroke-width="0"/></g></svg>