<svg xmlns="http://www.w3.org/2000/svg" viewBox="0 0 24 24"><g fill="#5e656d"><path d="M12 13.23c1.2 0 2.17-.98 2.17-2.18s-1.37-2.63-1.64-2.91a.774.774 0 0 0-1.06 0c-.27.27-1.64 1.71-1.64 2.91s.98 2.18 2.17 2.18m0-3.42c.37.48.67.98.67 1.24 0 .37-.3.68-.67.68s-.67-.3-.67-.68c0-.26.3-.76.67-1.24"/><path d="M20.35 12c0-.46-.17-1.11-.95-1.76V5.75c.57-.35.95-.79.95-1.36 0-2.58-7.5-2.65-8.35-2.65s-8.35.07-8.35 2.65c0 .57.38 1.01.95 1.36v4.49c-.78.64-.95 1.3-.95 1.76 0 .68.36 1.26.95 1.75v3.14c-.78.64-.95 1.3-.95 1.76 0 2.36 4.2 3.6 8.35 3.6s8.35-1.24 8.35-3.6c0-.46-.17-1.11-.95-1.76v-3.14c.59-.49.95-1.07.95-1.75M12 3.25c3.76 0 6.22.69 6.78 1.15-.56.46-3.01 1.15-6.78 1.15S5.78 4.86 5.22 4.4c.56-.46 3.01-1.15 6.78-1.15m0 3.8c.53 0 3.63-.03 5.9-.67v4.24c0 .25.12.48.33.62.39.27.62.54.62.76 0 .84-2.73 2.1-6.85 2.1S5.15 12.84 5.15 12c0-.22.23-.49.62-.76.21-.14.33-.37.33-.62V6.38c2.27.64 5.37.67 5.9.67m6.23 10.84c.39.27.62.54.62.76 0 .84-2.73 2.1-6.85 2.1s-6.85-1.26-6.85-2.1c0-.22.23-.49.62-.76.21-.14.33-.37.33-.62v-2.66c1.59.65 3.75.99 5.9.99s4.31-.34 5.9-.99v2.66c0 .25.12.48.33.62"/></g></svg>