<svg xmlns="http://www.w3.org/2000/svg" viewBox="0 0 24 24"><path d="M14.85 9.98h4.75a.83.83 0 0 0 .77-.52c.06-.15.08-.31.04-.47a.9.9 0 0 0-.22-.43L18.4 6.77l2.73-2.74c.16-.16.25-.37.25-.58s-.09-.43-.25-.59a.88.88 0 0 0-.58-.24.87.87 0 0 0-.58.24L17.22 5.6l-1.79-1.79a.8.8 0 0 0-.26-.17.9.9 0 0 0-.31-.06h-.02c-.11 0-.21.01-.31.05-.15.06-.28.17-.37.31a.83.83 0 0 0-.14.46v4.75c0 .22.09.43.25.58.15.16.36.25.58.25M5.6 6.77 3.81 8.56c-.11.12-.19.27-.22.43a.8.8 0 0 0 .35.84c.13.1.29.14.45.15h4.75c.22 0 .43-.09.58-.25.16-.15.25-.36.25-.58V4.4a.83.83 0 0 0-.14-.46.86.86 0 0 0-.37-.31.7.7 0 0 0-.32-.05c-.22 0-.42.08-.58.23L6.77 5.6 4.03 2.86a.95.95 0 0 0-.58-.24h-.01a.9.9 0 0 0-.58.24c-.15.16-.24.37-.24.59s.09.42.25.58zm3.55 7.26H4.4a.8.8 0 0 0-.77.51c-.06.15-.08.31-.04.47.03.16.11.31.22.43l1.79 1.78-.08.09-2.66 2.66c-.15.16-.24.37-.24.58s.09.43.25.59c.07.07.16.13.26.17.1.05.22.06.32.07a.9.9 0 0 0 .58-.24l2.75-2.74 1.78 1.79c.08.07.17.13.27.17.1.05.21.07.32.06.12.01.22-.01.32-.05a.86.86 0 0 0 .37-.31c.09-.13.14-.29.14-.46v-4.75c0-.22-.09-.43-.25-.58a.8.8 0 0 0-.58-.24m9.25 3.19 1.78-1.78c.12-.12.2-.27.23-.43.04-.16.02-.32-.04-.47a.85.85 0 0 0-.3-.37.86.86 0 0 0-.46-.14h-4.75c-.22 0-.43.08-.58.24-.16.15-.25.36-.25.58v4.75c0 .16.05.32.14.46s.22.24.37.31c.1.04.22.06.32.05.22 0 .42-.08.58-.23l1.79-1.79.09.09 2.65 2.65c.08.07.17.13.27.17.1.05.2.05.32.07a.9.9 0 0 0 .58-.24c.15-.16.24-.37.24-.59s-.09-.42-.25-.58z"/></svg>