<svg xmlns="http://www.w3.org/2000/svg" width="24" height="24" viewBox="0 0 24 24"><path fill="#707575" d="M11.91 11.78h.27c2.64-.09 4.71-2.23 4.72-4.89 0-2.7-2.2-4.9-4.9-4.9s-4.9 2.2-4.9 4.9 2.11 4.8 4.81 4.89m-3.3-4.89c0-1.87 1.52-3.4 3.4-3.4s3.4 1.52 3.4 3.39c0 1.82-1.43 3.31-3.23 3.39-.13-.01-.26 0-.3 0a3.367 3.367 0 0 1-3.26-3.39Zm8.48 6.97c-2.8-1.87-7.37-1.87-10.18 0H6.9c-1.3.89-2.02 2.08-2.02 3.37 0 1.3.72 2.49 2.03 3.36C8.27 21.5 10.08 22 12 22s3.73-.5 5.09-1.41c1.31-.88 2.03-2.08 2.03-3.37 0-1.3-.72-2.49-2.03-3.36m.53 3.36c0 .78-.48 1.54-1.36 2.13-2.31 1.55-6.21 1.54-8.52 0-.88-.58-1.36-1.33-1.36-2.11s.48-1.53 1.36-2.12c2.32-1.54 6.22-1.54 8.52 0 .88.58 1.36 1.33 1.36 2.11Z"/></svg>