<?xml version="1.0" encoding="UTF-8"?><svg id="d" xmlns="http://www.w3.org/2000/svg" viewBox="0 0 24 24"><path d="m15.18,12.87c-.19-.08-.41-.04-.55.1l-4.51,4.51c-.1.11-.16.26-.14.41.01.14.09.28.22.36.55.37,1.28.78,2.11.78.43,0,.9-.11,1.38-.4,1.18-.84,1.69-2.32,1.8-5.28,0-.21-.11-.4-.3-.48Z" fill="#444" fill-rule="evenodd" stroke-width="0"/><path d="m20.21,3.8c-.29-.3-.77-.3-1.06,0l-3.96,3.96c-.27-1.3-.75-2.11-1.55-2.68-1.68-1-3.23.19-4.36,1.05-.46.36-.9.69-1.22.8-.45.15-.84.19-1.21.24-.66.08-1.34.16-2.09.8-1.21,1.02-1.2,2.69-1.19,3.9,0,1.21-.02,2.88,1.19,3.91.6.5,1.15.65,1.68.73l-2.63,2.63c-.29.3-.29.77,0,1.06.15.15.34.22.53.22s.38-.07.53-.22l15.34-15.34c.29-.29.29-.77,0-1.06Z" fill="#444" fill-rule="evenodd" stroke-width="0"/></svg>