<svg xmlns="http://www.w3.org/2000/svg" viewBox="0 0 24 24"><path fill="#444" d="M17.48 8.61c-1.64 0-3.02 1.09-3.4 2.56-.02.07-.07.12-.15.13-1.26.05-3.96-.11-5.91-2.13-.07-.07-.04-.2.05-.24 1.16-.55 1.96-1.71 1.96-3.04 0-1.87-1.57-3.39-3.51-3.39S3.01 4.02 3.01 5.89c0 1.57 1.12 2.9 2.63 3.28.06.02.11.07.11.14v5.4c0 .07-.05.12-.11.14-1.51.38-2.63 1.7-2.63 3.28 0 1.87 1.57 3.39 3.51 3.39s3.51-1.52 3.51-3.39c0-1.57-1.12-2.9-2.63-3.28-.06-.02-.11-.07-.11-.14v-3.76c0-.13.14-.19.24-.11 2.26 1.89 5.06 2.06 6.45 2 .07 0 .11.04.13.1.42 1.41 1.76 2.45 3.36 2.45 1.93 0 3.51-1.52 3.51-3.39s-1.57-3.39-3.51-3.39ZM4.56 5.89c0-1.02.88-1.85 1.97-1.85s1.97.83 1.97 1.85-.88 1.85-1.97 1.85-1.97-.83-1.97-1.85M8.5 18.11c0 1.02-.88 1.85-1.97 1.85s-1.97-.83-1.97-1.85.88-1.85 1.97-1.85 1.97.83 1.97 1.85m8.99-4.26c-1.09 0-1.97-.83-1.97-1.85s.88-1.85 1.97-1.85 1.97.83 1.97 1.85-.88 1.85-1.97 1.85"/></svg>