<svg xmlns="http://www.w3.org/2000/svg" viewBox="0 0 19.51 19.5"><g fill="#444"><path d="M7.92 12.85c-.06-.06-.06-.15 0-.2l2.37-2.37c.29-.29.29-.77 0-1.06s-.77-.29-1.06 0l-2.37 2.37c-.06.06-.15.06-.2 0L3.41 8.34a1.81 1.81 0 0 0-1.74-.48c-.64.16-1.13.63-1.32 1.26A8.03 8.03 0 0 0 4 18.4c1.24.73 2.65 1.1 4.07 1.1.79 0 1.58-.12 2.35-.35.61-.19 1.07-.67 1.23-1.3s-.02-1.29-.48-1.75zm2.28 4.63c-.02.07-.07.18-.21.23-1.74.53-3.65.31-5.23-.61a6.53 6.53 0 0 1-2.97-7.55c.05-.17.19-.22.25-.24.02 0 .05-.01.08-.01.07 0 .15.02.23.1l3.88 3.88 3.88 3.88c.12.12.1.27.09.32M8.76 4c-.41 0-.75.34-.75.75s.34.75.75.75c2.26 0 5.25 2.99 5.25 5.25 0 .41.34.75.75.75s.75-.34.75-.75C15.51 7.66 11.85 4 8.76 4"/><path d="M16.17 3.48C14.01 1.27 11.3 0 8.76 0a.749.749 0 1 0 0 1.5c2.15 0 4.46 1.1 6.34 3.02 1.82 1.86 2.91 4.19 2.91 6.23 0 .41.34.75.75.75s.75-.34.75-.75c0-2.42-1.25-5.14-3.34-7.27"/></g></svg>