<?xml version="1.0" encoding="UTF-8"?><svg id="b" xmlns="http://www.w3.org/2000/svg" viewBox="0 0 24 24"><path d="m6.15,6.15c-1.26,1.26-2.01,3.19-2.01,5.85s.75,4.59,2.01,5.85,3.19,2.01,5.85,2.01,4.59-.75,5.85-2.01c1.26-1.26,2.01-3.19,2.01-5.85,0-.59.48-1.07,1.07-1.07s1.07.48,1.07,1.07c0,3.05-.86,5.59-2.64,7.36-1.77,1.77-4.31,2.64-7.37,2.64s-5.59-.86-7.36-2.64c-1.77-1.77-2.64-4.31-2.64-7.36s.86-5.59,2.64-7.37c1.77-1.77,4.31-2.64,7.36-2.64.59,0,1.07.48,1.07,1.07s-.48,1.07-1.07,1.07c-2.66,0-4.59.75-5.85,2.01Zm5.47,1.12c.13.58-.23,1.15-.81,1.28-.82.19-1.38.56-1.75,1.08-.38.53-.63,1.3-.63,2.37,0,1.29.36,2.14.89,2.68.53.53,1.39.89,2.68.89,1.12,0,1.91-.27,2.44-.69.52-.41.9-1.03,1.06-1.95.1-.58.65-.98,1.23-.88.58.1.98.65.88,1.23-.23,1.35-.84,2.49-1.85,3.28-1.01.78-2.3,1.14-3.76,1.14-1.68,0-3.15-.48-4.19-1.52-1.04-1.04-1.52-2.51-1.52-4.19,0-1.39.32-2.63,1.03-3.62.72-1,1.76-1.64,3.02-1.92.58-.13,1.15.23,1.28.81Zm4.32,2.65c-.17-.03-.35.02-.48.14l-2.7,2.7c-.42.42-1.1.42-1.52,0-.42-.42-.42-1.1,0-1.52l2.56-2.56c.21-.21.29-.52.26-.82-.13-1.12.25-2.25,1.07-3.07l2.27-2.27c.18-.19.45-.26.71-.2.25.06.46.25.53.5l.29.95c.19.62.68,1.11,1.3,1.3l.95.29c.25.08.44.28.5.53.06.25-.01.52-.2.71l-2.27,2.27c-.86.86-2.09,1.24-3.27,1.04Z" fill-rule="evenodd" stroke-width="0"/></svg>