<svg xmlns="http://www.w3.org/2000/svg" viewBox="0 0 24 24"><path fill="#444" d="M21.3 2H2.7c-.39 0-.7.31-.7.7s.31.7.7.7h1.16v7.21c0 2.95 0 4.58 1.15 5.67 1.14 1.08 2.74 1.08 5.93 1.08h.37v2.42c0 .1-.06.2-.15.25l-1.32.66c-.35.17-.49.59-.31.94.12.24.37.39.62.39.1 0 .21-.02.31-.07l1.43-.71c.08-.04.17-.04.25 0l1.43.71c.1.05.21.07.31.07.26 0 .5-.14.62-.39.17-.34.03-.76-.31-.94l-1.32-.66a.28.28 0 0 1-.15-.25v-2.42h.37c3.19 0 4.79 0 5.92-1.08 1.15-1.09 1.15-2.72 1.15-5.67V3.4h1.16c.39 0 .7-.31.7-.7s-.31-.7-.7-.7Zm-2.56 8.6c0 2.83-.03 4-.72 4.65-.73.69-2.15.69-4.96.69h-2.13c-2.82 0-4.23 0-4.97-.69-.69-.65-.72-1.83-.72-4.65V3.57c0-.1.08-.17.17-.17h13.14c.1 0 .17.08.17.17v7.03Z"/><path fill="#444" d="M9.21 11.3c.18 0 .36-.07.49-.2l1.2-1.2.16-.16.16.16.55.55c.37.37.67.67 1.15.67s.78-.3 1.15-.67l1.2-1.2c.27-.27.27-.71 0-.99s-.71-.27-.99 0l-1.2 1.2-.16.16-.16-.16-.55-.55c-.37-.37-.67-.67-1.15-.67s-.78.3-1.15.67l-1.2 1.2c-.27.27-.27.71 0 .99.14.14.31.2.49.2Z"/></svg>