<svg xmlns="http://www.w3.org/2000/svg" viewBox="0 0 24 24"><path fill="#444" d="M12 2c-.55 0-1 .45-1 1v3.08c.33-.05.66-.08 1-.08s.67.03 1 .08V3c0-.55-.45-1-1-1M6.12 4.71l2.4 2.4a5.9 5.9 0 0 0-1.41 1.41l-2.4-2.4a.996.996 0 1 1 1.41-1.41M3 11h3.08c-.05.33-.08.66-.08 1s.03.67.08 1H3c-.55 0-1-.45-1-1s.45-1 1-1m1.71 7.12 2.51-2.51c.4.53.9 1 1.45 1.37l-2.55 2.55a.996.996 0 1 1-1.41-1.41M11 21v-3.08c.33.05.66.08 1 .08s.67-.03 1-.08V21c0 .55-.45 1-1 1s-1-.45-1-1m7.12-1.46-2.64-2.64a5.9 5.9 0 0 0 1.41-1.41l2.64 2.64a.996.996 0 1 1-1.41 1.41M21 13h-3.08c.05-.33.08-.66.08-1s-.03-.67-.08-1H21c.55 0 1 .45 1 1s-.45 1-1 1m-1.46-6.88-2.55 2.55c-.37-.56-.84-1.05-1.37-1.45l2.5-2.5a.996.996 0 1 1 1.41 1.41Zm-8.17 9.83c2.7.41 5-1.88 4.58-4.58-.26-1.68-1.63-3.06-3.32-3.32-2.7-.41-5 1.88-4.58 4.58.26 1.68 1.63 3.06 3.32 3.32"/></svg>