<svg xmlns="http://www.w3.org/2000/svg" viewBox="0 0 24 24"><path fill="#444" d="M22.12 12c0-.72-.53-1.08-1.84-1.59-.09-.03-.09-.16 0-.19 1.31-.51 1.84-.87 1.84-1.59 0-.94-.89-1.27-3.29-2.13l-2.63-.95C14.32 4.87 13.29 4.5 12 4.5s-2.32.37-4.2 1.05l-2.64.95c-2.39.86-3.28 1.18-3.28 2.13 0 .72.53 1.08 1.84 1.59.09.03.09.16 0 .19-1.31.51-1.84.87-1.84 1.59s.53 1.08 1.84 1.59c.09.03.09.16 0 .19-1.31.51-1.84.87-1.84 1.59 0 .94.89 1.27 3.29 2.13l2.63.95c1.88.68 2.91 1.05 4.2 1.05s2.32-.37 4.2-1.05l2.64-.95c2.39-.86 3.28-1.18 3.28-2.13 0-.72-.53-1.08-1.84-1.59-.09-.03-.09-.16 0-.19 1.31-.51 1.84-.87 1.84-1.59M5.67 9.34c-.73-.26-1.43-.52-1.89-.71.46-.2 1.16-.45 1.89-.72l2.63-.95C10.13 6.3 10.97 6 11.99 6s1.86.3 3.69.96l2.64.95c.73.26 1.43.52 1.89.71-.46.2-1.16.45-1.89.72l-2.63.95c-1.83.66-2.67.96-3.69.96s-1.86-.3-3.69-.96l-2.63-.95m12.65 6.75-2.63.95c-1.83.66-2.67.96-3.69.96s-1.86-.3-3.69-.96l-2.64-.95c-.73-.26-1.43-.52-1.89-.71.46-.2 1.16-.45 1.89-.72l.48-.17 1.64.59c1.88.68 2.91 1.05 4.2 1.05s2.32-.37 4.2-1.05l1.64-.59.49.18c.73.26 1.43.52 1.89.71-.46.2-1.16.45-1.89.72Zm0-3.38-2.63.95c-1.83.66-2.67.96-3.69.96s-1.86-.3-3.69-.96l-2.64-.95c-.73-.26-1.43-.52-1.89-.71.46-.2 1.16-.45 1.89-.72l.48-.17 1.64.59c1.88.68 2.91 1.05 4.2 1.05s2.32-.37 4.2-1.05l1.64-.59.49.18c.73.26 1.43.52 1.89.71-.46.2-1.16.45-1.89.72Z"/></svg>