<svg xmlns="http://www.w3.org/2000/svg" viewBox="0 0 24 24"><path fill="#444" fill-rule="evenodd" d="M20.21 18.33a.91.91 0 0 0-.72-.6c-3.09-.46-5.76-2.32-7.31-5.09-1.6-2.84-1.8-6.19-.58-9.22a.94.94 0 0 0-.14-.97c-.09-.1-.22-.2-.42-.2-.05 0-.11.01-.17.02-4.19 1.16-7.12 5.1-7.12 9.57 0 5.47 4.32 9.91 9.63 9.91 2.51 0 4.88-.98 6.68-2.77.24-.24.2-.51.15-.65m-3.29 1.06c-1.11.55-2.3.83-3.54.83-4.5 0-8.15-3.76-8.15-8.38 0-2.82 1.37-5.44 3.66-6.99.14-.1.32-.1.46 0s.22.26.19.43c-.5 2.79-.02 5.68 1.36 8.14 1.34 2.39 3.47 4.24 5.98 5.2.16.07.27.22.27.39s-.08.32-.23.39Z"/></svg>