<svg xmlns="http://www.w3.org/2000/svg" viewBox="0 0 24 24"><path fill="#444" d="M11.31 11.27c-2.56 0-4.63-2.08-4.63-4.63s2.08-4.63 4.63-4.63 4.63 2.08 4.63 4.63-2.08 4.63-4.63 4.63m0-7.8a3.171 3.171 0 0 0 0 6.34 3.171 3.171 0 0 0 0-6.34m0 18.53c-4.24 0-7.56-2.04-7.56-4.63s3.32-4.63 7.56-4.63c2.68 0 5.09.82 6.46 2.19a.727.727 0 1 1-1.03 1.03c-1.08-1.09-3.16-1.76-5.42-1.76-3.31 0-6.1 1.45-6.1 3.17s2.79 3.17 6.1 3.17c1.16 0 2.28-.18 3.26-.51.38-.13.8.07.93.46.13.38-.07.8-.46.93-1.13.38-2.42.59-3.73.59Z"/><path fill="#444" d="M18.14 20.94c-.4 0-.73-.33-.73-.73v-.65h-.65c-.4 0-.73-.33-.73-.73s.33-.73.73-.73h.65v-.65c0-.4.33-.73.73-.73s.73.33.73.73v.65h.65c.4 0 .73.33.73.73s-.33.73-.73.73h-.65v.65c0 .4-.33.73-.73.73"/></svg>