<svg xmlns="http://www.w3.org/2000/svg" viewBox="0 0 24 24"><path fill="#707575" d="M21.87 7.49v-.01c.04-.42-.34-.65-.76-.65-.33 0-.6.21-.71.5-.04.15-.06.18-.11.33-.06.2-.14.41-.24.61-.14.3-.32.6-.52.9-.1.14-.2.28-.3.41-.02.01-.02.02-.03.03-.11.15-.23.29-.37.43-.02.02-.04.04-.06.07-.16.15-.32.31-.49.47-.01.01-.03.02-.04.04a10.5 10.5 0 0 1-1.87 1.3c-.71.37-1.48.67-2.3.86-.69.17-1.38.25-2.07.25s-1.42-.09-2.09-.25c-.82-.19-1.59-.49-2.3-.86-.23-.13-.45-.26-.67-.4-.21-.13-.42-.28-.62-.43a8.5 8.5 0 0 1-1.6-1.55c-.1-.12-.19-.25-.27-.37-.1-.15-.2-.3-.29-.45s-.17-.3-.23-.45a10 10 0 0 1-.24-.61c-.02-.05-.03-.1-.04-.15-.03-.09-.06-.17-.07-.26 0-.01-.01-.02-.02-.03-.12-.24-.37-.4-.66-.4s-.54.16-.66.4c-.07.11-.1.24-.1.37 0 .03 0 .07.01.1 0 .08.03.15.06.22 0 .01.01.03.01.04.04.13.08.26.13.39.11.3.24.6.4.89.07.13.14.26.22.39.14.23.3.46.47.68.12.16.25.33.39.49.1.12.21.22.32.33l-1.53 1.53c-.29.29-.29.77 0 1.06.14.15.34.22.53.22s.39-.07.53-.22l1.56-1.56h.01c.39.31.82.61 1.27.86.64.39 1.35.7 2.09.94l-.65 2.25c-.11.4.12.81.51.93.07.02.14.03.2.03.33 0 .64-.22.73-.55l.66-2.27q.255.06.51.09c.17.03.35.05.52.06.11.01.21.02.31.02.2.01.4.02.6.02s.38-.01.58-.02c.1 0 .2 0 .31-.02.17-.01.35-.03.52-.06.11-.01.22-.04.34-.06l.65 2.22c.12.4.53.62.93.51a.76.76 0 0 0 .51-.93l-.63-2.16c.8-.25 1.56-.58 2.25-1 .41-.23.81-.5 1.17-.78l1.47 1.47c.29.29.77.29 1.06 0 .14-.14.22-.34.22-.53s-.08-.39-.22-.53l-1.41-1.41c.09-.1.18-.18.26-.28.1-.11.19-.21.28-.32s.18-.22.25-.33c.17-.22.33-.45.47-.68.09-.13.16-.26.22-.39.12-.22.22-.44.31-.65.07-.18.14-.35.19-.53.03-.08.06-.17.08-.25l.06-.28c0-.01 0-.02.01-.03Z"/></svg>