<?xml version="1.0" encoding="UTF-8"?><svg id="b" xmlns="http://www.w3.org/2000/svg" viewBox="0 0 18.7 19.12"><g id="c"><g id="d"><path d="m13.79,1.93V.75c0-.41-.34-.75-.75-.75s-.75.34-.75.75v.93s0,0,0,0c-.87-.1-1.84-.14-2.93-.14s-2.07.04-2.94.14v-.93c0-.41-.34-.75-.75-.75s-.75.34-.75.75v1.18s0,0,0,0C1.2,2.79,0,5.17,0,10.33c0,6.22,1.74,8.42,7.55,8.76.35.01.73.03,1.12.03h.03c.38-.03.68-.34.68-.74v-.02c0-.39-.31-.72-.69-.74-.16,0-.31,0-.45,0-5.48-.16-6.74-1.65-6.74-7.28,0-.97.04-1.81.13-2.55,0,0,0,0,0,0h15.46s0,0,0,0c.06.48.09,1.02.11,1.61.01.41.34.74.75.74s.75-.33.75-.74v-.02c-.16-4.49-1.43-6.63-4.91-7.44Zm-8.87,1.52s0,0,0,0v.37c0,.41.34.75.75.75s.75-.34.75-.75v-.64c.83-.1,1.81-.14,2.94-.14s2.09.04,2.93.14c0,0,0,0,0,0v.64c0,.41.34.75.75.75s.75-.34.75-.75v-.37c1.63.44,2.53,1.3,3,2.83H1.92c.47-1.53,1.37-2.39,3-2.83Z" fill="#444" stroke-width="0"/><path d="m17.48,16.63s-.04-.03-.06-.04c.72-1.08.9-2.38.38-3.33-.51-.94-1.23-1.65-2.04-2.04-1.21-.56-2.65-.22-3.73.87-1.12,1.13-1.5,2.67-.94,3.84.42.92,1.15,1.65,2.06,2.08.43.2.88.3,1.33.3.68,0,1.36-.23,1.95-.67,0,0,0,.02.02.03l.9.9c.15.15.33.22.52.22s.37-.07.52-.22c.28-.28.29-.75,0-1.03l-.91-.91Zm-1.56-.5c-.31.32-1.12,1.01-2.16.53h0c-.6-.27-1.07-.75-1.35-1.35-.28-.62-.02-1.52.65-2.19.37-.37.92-.7,1.49-.7.19,0,.4.04.59.12.53.25,1.02.75,1.37,1.4.31.56.04,1.52-.59,2.19Z" fill="#444" stroke-width="0"/></g></g></svg>