<svg xmlns="http://www.w3.org/2000/svg" viewBox="0 0 24 24"><path fill="#444" d="M19.87 4.31C19.65 4.22 14.59 2 12 2S4.35 4.22 4.06 4.35c-.33.19-1.94 1.43-1.94 7.23 0 7.21 6.84 9.67 9.78 10.4.06.01.12.02.18.02s.12-.01.18-.02c2.26-.56 9.62-2.95 9.62-10.4 0-5.8-1.61-7.04-2.01-7.27M8.68 13.33s-.11-.01-.16-.04a.32.32 0 0 1-.1-.43c.28-.44.43-.95.43-1.47 0-.67.19-1.32.56-1.87.09-.14.29-.18.43-.09.14.1.18.29.08.43-.3.45-.46.98-.46 1.53 0 .64-.17 1.26-.52 1.8a.29.29 0 0 1-.26.14m2.31 2.26c-.06.07-.15.11-.23.11-.07 0-.14-.03-.2-.08a.303.303 0 0 1-.04-.43 5.84 5.84 0 0 0 1.41-3.8c0-.17.14-.31.31-.31s.3.14.3.31a6.36 6.36 0 0 1-1.55 4.2m3.07-3.53a.32.32 0 0 1-.34.28.32.32 0 0 1-.28-.34c.02-.2.03-.41.03-.61 0-.68-.55-1.23-1.23-1.23S11 10.71 11 11.39c.01 1.22-.45 2.4-1.27 3.31-.06.06-.15.1-.23.1-.07 0-.15-.03-.21-.08a.324.324 0 0 1-.02-.44c.72-.79 1.12-1.82 1.12-2.89s.83-1.85 1.85-1.85 1.84.83 1.84 1.85c0 .22-.01.45-.02.67m.9 2.84c-.05.12-.17.19-.29.19-.04 0-.07-.01-.11-.02a.3.3 0 0 1-.17-.4c.41-1.05.62-2.15.62-3.28a2.774 2.774 0 0 0-4.3-2.32c-.14.1-.34.06-.43-.08a.317.317 0 0 1 .09-.43 3.385 3.385 0 0 1 5.25 2.83c0 1.21-.22 2.39-.66 3.51"/></svg>