<?xml version="1.0" encoding="UTF-8"?><svg id="e" xmlns="http://www.w3.org/2000/svg" viewBox="0 0 24 24"><path d="m2.81,9.98c.41,0,.75-.34.75-.75v-2.31c0-1.88,1.52-3.41,3.39-3.41h2.3c.41,0,.75-.34.75-.75s-.34-.75-.75-.75h-2.3c-2.69,0-4.89,2.2-4.89,4.91v2.31c0,.41.34.75.75.75Z" fill="#444" stroke-width="0"/><path d="m17.06,2h-2.3c-.41,0-.75.34-.75.75s.34.75.75.75h2.3c1.87,0,3.39,1.53,3.39,3.41v2.31c0,.41.34.75.75.75s.75-.34.75-.75v-2.31c0-2.71-2.19-4.91-4.89-4.91Z" fill="#444" stroke-width="0"/><path d="m21.19,14.95c-.41,0-.75.34-.75.75v1.39c0,1.88-1.52,3.41-3.39,3.41h-1.38c-.41,0-.75.34-.75.75s.34.75.75.75h1.38c2.69,0,4.89-2.2,4.89-4.91v-1.39c0-.41-.34-.75-.75-.75Z" fill="#444" stroke-width="0"/><path d="m9.24,20.5h-2.3c-1.87,0-3.39-1.53-3.39-3.41v-2.31c0-.41-.34-.75-.75-.75s-.75.34-.75.75v2.31c0,2.71,2.19,4.91,4.89,4.91h2.3c.41,0,.75-.34.75-.75s-.34-.75-.75-.75Z" fill="#444" stroke-width="0"/><path d="m17.35,14.31v-1.56h1.09c.41,0,.75-.34.75-.75s-.34-.75-.75-.75h-1.09v-1.56c0-2.27-1.25-3.52-3.51-3.52h-3.68c-2.26,0-3.51,1.25-3.51,3.52v1.56h-1.09c-.41,0-.75.34-.75.75s.34.75.75.75h1.09v1.56c0,2.27,1.25,3.52,3.51,3.52h3.68c2.26,0,3.51-1.25,3.51-3.52Zm-9.19-4.62c0-1.44.58-2.02,2.01-2.02h3.68c1.43,0,2.01.59,2.01,2.02v1.56h-7.69v-1.56Zm5.69,6.65h-3.68c-1.43,0-2.01-.59-2.01-2.02v-1.56h7.69v1.56c0,1.44-.58,2.02-2.01,2.02Z" fill="#444" stroke-width="0"/></svg>