<?xml version="1.0" encoding="UTF-8"?><svg id="b" xmlns="http://www.w3.org/2000/svg" viewBox="0 0 17.5 18.5"><g id="c"><g id="d"><path d="m6.83,3.3c0-1.82-1.53-3.3-3.42-3.3S0,1.48,0,3.3c0,1.53,1.09,2.82,2.56,3.19.07.02.11.07.11.14v5.24c0,.07-.05.12-.11.14-1.47.37-2.56,1.66-2.56,3.19,0,1.82,1.53,3.3,3.42,3.3s3.42-1.48,3.42-3.3c0-1.53-1.09-2.82-2.55-3.19-.07-.02-.11-.07-.11-.14v-5.24c0-.07.05-.12.11-.14,1.47-.37,2.55-1.66,2.55-3.19Zm-5.33,0c0-.99.86-1.8,1.92-1.8s1.92.81,1.92,1.8-.86,1.8-1.92,1.8-1.92-.81-1.92-1.8Zm3.83,11.9c0,.99-.86,1.8-1.92,1.8s-1.92-.81-1.92-1.8.86-1.8,1.92-1.8,1.92.81,1.92,1.8Z" fill="#444" stroke-width="0"/><path d="m14.8,11.98c.01-.06,0,.06,0,0l.04-6.12c0-1.35-1.13-2.45-2.53-2.45h-2.67c-.41,0-.75.34-.75.75s.34.75.75.75h2.67c.57,0,1.03.43,1.03.95l.04,6.13c0,.06-.01-.06,0,0-1.54.32-2.7,1.64-2.7,3.23,0,1.82,1.53,3.3,3.42,3.3s3.42-1.48,3.42-3.3c0-1.58-1.16-2.91-2.7-3.23Zm-.71,5.02c-1.06,0-1.92-.81-1.92-1.8s.86-1.8,1.92-1.8,1.92.81,1.92,1.8-.86,1.8-1.92,1.8Z" fill="#444" stroke-width="0"/></g></g></svg>