<?xml version="1.0" encoding="UTF-8"?><svg id="b" xmlns="http://www.w3.org/2000/svg" viewBox="0 0 20.24 11.62"><g id="c"><path d="m18.32,5.88c-.06-.02-.06-.11,0-.13,1.36-.53,1.92-.89,1.92-1.62,0-.94-.89-1.27-3.29-2.13l-2.63-.95c-1.88-.68-2.91-1.05-4.2-1.05s-2.32.37-4.2,1.05l-2.64.95C.89,2.86,0,3.18,0,4.12c0,.73.55,1.09,1.92,1.62.06.02.06.11,0,.13-1.36.53-1.92.89-1.92,1.62,0,.94.89,1.27,3.29,2.13l2.63.95c1.88.68,2.91,1.05,4.2,1.05s2.32-.37,4.2-1.05l2.64-.95c2.39-.86,3.28-1.18,3.28-2.13,0-.73-.55-1.09-1.92-1.62Zm-14.53-1.04c-.73-.26-1.43-.52-1.89-.71.46-.2,1.16-.45,1.89-.72l2.63-.95c1.83-.66,2.67-.96,3.69-.96s1.86.3,3.69.96l2.64.95c.73.26,1.43.52,1.89.71-.46.2-1.16.45-1.89.72l-2.63.95c-1.83.66-2.67.96-3.69.96s-1.86-.3-3.69-.96l-2.63-.95m12.65,3.38l-2.63.95c-1.83.66-2.67.96-3.69.96s-1.86-.3-3.69-.96l-2.64-.95c-.73-.26-1.43-.52-1.89-.71.46-.2,1.16-.45,1.89-.72l.48-.17,1.64.59c1.88.68,2.91,1.05,4.2,1.05s2.32-.37,4.2-1.05l1.64-.59.49.18c.73.26,1.43.52,1.89.71-.46.2-1.16.45-1.89.72Z" fill="#444" stroke-width="0"/></g></svg>