<?xml version="1.0" encoding="UTF-8"?><svg id="b" xmlns="http://www.w3.org/2000/svg" viewBox="0 0 24 24"><path d="m21.58,7.2c-.13-1.18-.68-2.29-1.53-3.13-.85-.84-1.97-1.37-3.16-1.51-.14-.02-.29-.03-.44-.05,0,0,0,0,0,0-.1-.01-.21-.02-.31-.03-.18-.02-.36-.04-.54-.05-.24-.02-.48-.04-.73-.06-.14-.01-.28-.02-.42-.03-.28-.02-.58-.04-.87-.05-.11,0-.22-.01-.34-.02-.4-.02-.81-.03-1.23-.03h0s0,0,0,0c-.44,0-.89.01-1.35.03-.15,0-.31.02-.46.03-.23.01-.45.02-.69.04-.01,0-.02,0-.03,0-.17.01-.32.02-.49.03-.84.07-1.66.44-2.29,1.04l-3.31,3.14c-.64.61-1.04,1.42-1.11,2.28-.1,1.17-.15,2.21-.15,3.17,0,1.69.15,3.3.31,4.8.13,1.18.68,2.29,1.53,3.13.85.84,1.97,1.37,3.16,1.51.59.06,1.2.12,1.82.18.01,0,.03,0,.04,0,.07,0,.13,0,.2.01.34.03.69.05,1.04.07.14,0,.3.02.43.03.34.01.68.02,1.02.02.11,0,.23,0,.34,0s.22,0,.33,0c.35,0,.69-.01,1.03-.02.13,0,.27-.02.41-.02.36-.02.72-.04,1.07-.07.07,0,.12,0,.19-.01.01,0,.03,0,.04,0,.62-.05,1.24-.11,1.83-.18,1.19-.14,2.31-.67,3.16-1.51.85-.84,1.39-1.95,1.53-3.14.15-1.42.31-3.1.31-4.8s-.15-3.3-.31-4.8Zm-5.81.18c-.04.35-.31.64-.63.68-1.47.2-2.9.2-4.37,0-.33-.04-.61-.34-.66-.71-.15-1.12-.16-2.25-.05-3.55.11,0,.24-.02.35-.02.12,0,.24-.01.36-.02.42-.02.83-.03,1.23-.03,0,0,0,0,0,0,.79,0,1.57.04,2.34.09.06,0,.12,0,.18.01.45.03.88.08,1.31.12.09,1.24.07,2.33-.07,3.42Zm-7.4,11.99c-.08-1.12-.07-2.16,0-3.18.08-1.01.83-1.8,1.79-1.89.62-.06,1.22-.09,1.83-.09s1.25.03,1.88.09c.94.09,1.69.87,1.77,1.86.08,1.02.08,2.07,0,3.2-.03.39-.32.69-.71.75-.15.01-.29.03-.44.04-.04,0-.08,0-.11,0-.78.06-1.58.09-2.39.09s-1.61-.04-2.39-.09c-.03,0-.07,0-.1,0-.16-.01-.3-.03-.45-.04-.37-.05-.66-.36-.69-.75Zm11.72-2.74c-.1.84-.48,1.64-1.09,2.24-.52.52-1.2.86-1.92,1.01.03-.13.06-.26.07-.4.09-1.21.08-2.33,0-3.43-.14-1.72-1.46-3.08-3.12-3.23-1.35-.13-2.65-.13-3.99,0-1.68.16-3.01,1.53-3.14,3.26-.09,1.09-.09,2.21,0,3.4,0,.14.03.28.07.41-.73-.15-1.41-.5-1.94-1.02h0c-.61-.6-1-1.39-1.09-2.23-.16-1.45-.3-3.02-.3-4.63,0-.92.05-1.91.14-3.04.04-.5.27-.97.65-1.32l3.31-3.14c.24-.23.53-.4.83-.5-.09,1.27-.07,2.44.08,3.55.14,1.04.94,1.87,1.94,2,.8.11,1.59.16,2.39.16s1.58-.05,2.38-.16c.99-.13,1.78-.95,1.91-1.98.14-1.09.17-2.19.09-3.4.62.18,1.19.51,1.65.96.61.6,1,1.39,1.09,2.23.16,1.45.3,3.02.3,4.64s-.15,3.18-.3,4.63Z" stroke-width="0"/></svg>