<svg xmlns="http://www.w3.org/2000/svg" viewBox="0 0 24 24"><g fill="#5e656d"><path d="M11.77 20.5c-.74 0-1.41-.21-1.9-.59l-3.95-2.97c-.69-.52-1.29-1.72-1.29-2.58V7.49c0-.82.67-1.79 1.43-2.08l4.58-1.74c.59-.22 1.66-.22 2.24 0l4.58 1.73c.76.29 1.43 1.27 1.43 2.09v3.17c0 .41.34.75.75.75s.75-.34.75-.75V7.49c0-1.45-1.06-2.99-2.4-3.5l-4.58-1.73c-.92-.35-2.37-.35-3.3 0L5.53 4c-1.35.51-2.4 2.04-2.4 3.49v6.87c0 1.32.83 2.98 1.89 3.78l3.94 2.96c.74.58 1.74.9 2.81.9.41 0 .75-.34.75-.75s-.34-.75-.75-.75"/><path d="m20.69 19.98-1.13-1.13c.52-.74.81-1.69.81-2.86 0-2.87-1.65-4.52-4.52-4.52s-4.52 1.65-4.52 4.52 1.65 4.52 4.52 4.52c1.17 0 2.13-.29 2.86-.81l1.14 1.14c.11.11.26.17.42.17s.31-.06.42-.18a.61.61 0 0 0 0-.85m-4.84-.68c-2.17 0-3.32-1.15-3.32-3.32s1.15-3.32 3.32-3.32 3.32 1.15 3.32 3.32-1.15 3.32-3.32 3.32"/></g></svg>