<?xml version="1.0" encoding="UTF-8"?><svg id="b" xmlns="http://www.w3.org/2000/svg" viewBox="0 0 17.45 20"><g id="c"><g id="d"><path d="m8.7,2.45c-.6,0-1.19.07-1.78.18l1.21-1.39c.27-.31.24-.79-.08-1.06-.31-.27-.79-.24-1.06.08,0,0,0,0,0,0l-2.66,3.07s0,.02-.01.03c0,0-.02.01-.02.02-.03.03-.03.07-.05.11s-.05.09-.06.13c-.01.05-.01.1-.02.15,0,.05-.01.09,0,.14,0,.05.02.1.04.14.01.04.02.09.05.13.02.05.06.08.1.12.02.03.04.06.07.09,0,0,.02,0,.03.02,0,0,.01.02.02.02l3.1,2.28c.13.1.29.15.44.15.23,0,.46-.11.61-.31.25-.33.17-.8-.16-1.05l-1.74-1.28c.66-.16,1.32-.26,1.99-.26,3.98,0,7.22,3.26,7.22,7.27s-3.24,7.27-7.22,7.27S1.5,15.25,1.5,11.24c0-1.44.42-2.84,1.22-4.05.23-.35.13-.81-.21-1.04-.35-.23-.81-.13-1.04.21C.51,7.8,0,9.49,0,11.23,0,16.07,3.91,20,8.72,20s8.72-3.94,8.72-8.77S13.54,2.45,8.72,2.45h-.02Z" fill="#444" stroke-width="0"/><path d="m10.69,11.54c-.11-.24-.27-.44-.46-.61-.19-.17-.42-.3-.66-.38-.24-.09-.5-.13-.77-.13-.3,0-.53.03-.71.1-.07.03-.13.05-.19.08l.09-.96h2.2c.09,0,.16-.03.22-.09.06-.06.09-.14.09-.23v-.54c0-.09-.03-.17-.09-.22-.06-.06-.14-.09-.22-.09h-3.01c-.09,0-.17.03-.23.09-.07.06-.11.14-.11.24l-.28,2.75c0,.08.03.16.09.21.06.06.13.09.21.09h.74c.09,0,.17-.03.25-.08l.17-.13c.06-.04.13-.08.22-.11.08-.03.19-.05.32-.05.18,0,.34.04.48.11.14.07.24.17.32.29.08.12.12.27.12.45,0,.2-.04.37-.13.5-.08.14-.19.23-.33.3-.24.12-.56.14-.84.04-.11-.04-.21-.11-.3-.19-.08-.09-.15-.2-.2-.35-.03-.09-.08-.15-.14-.19-.06-.04-.13-.05-.21-.05h-.74c-.08,0-.15.02-.21.07-.07.06-.1.14-.09.22.01.3.11.58.28.85.17.26.43.48.77.64.33.16.74.24,1.21.24s.87-.08,1.21-.25c.34-.17.62-.41.81-.72.19-.31.29-.67.29-1.08,0-.3-.06-.57-.17-.81Z" fill="#444" stroke-width="0"/></g></g></svg>