<svg xmlns="http://www.w3.org/2000/svg" viewBox="0 0 24 24"><path fill="#444" d="M21.39 15.63c.33-1.08.51-2.29.51-3.63 0-6.19-3.61-9.74-9.89-9.74S2.11 5.81 2.11 12c0 1.34.18 2.55.51 3.63v.04c.01.03.03.06.04.1 1.06 3.32 3.64 5.36 7.48 5.85l.28.03c.51.05 1.03.09 1.59.09s1.08-.04 1.59-.09l.28-.03c3.84-.49 6.42-2.53 7.48-5.85.01-.03.03-.06.04-.1v-.04ZM12 3.76c5.41 0 8.39 2.93 8.39 8.24 0 .96-.1 1.83-.29 2.63-2.27-.28-4.53-.44-6.77-.49l3.18-5.21a.75.75 0 0 0-1.28-.78l-3.65 5.97c-2.55.02-5.1.18-7.69.5-.19-.8-.29-1.67-.29-2.63.01-5.3 2.99-8.23 8.4-8.23m7.56 12.46c-.09.18-.18.36-.28.53-.12.21-.25.4-.39.59a6 6 0 0 1-.59.69c-.1.1-.21.2-.32.29-.18.16-.37.31-.58.45-.15.1-.29.2-.45.3-.13.07-.26.14-.4.21-.17.09-.35.16-.53.24-.12.05-.24.1-.37.15-.3.11-.61.2-.94.27l-.31.06c-.27.05-.55.1-.83.13-.12.01-.23.03-.35.04-.39.04-.79.06-1.22.06s-.82-.02-1.22-.06c-.12-.01-.23-.02-.35-.04-.29-.03-.56-.08-.83-.13l-.31-.06c-.33-.08-.64-.17-.94-.27-.13-.04-.24-.1-.37-.15-.18-.07-.36-.15-.53-.24-.13-.07-.27-.14-.4-.21a3.5 3.5 0 0 1-.45-.3c-.2-.14-.39-.29-.58-.45-.11-.1-.22-.19-.32-.29a6 6 0 0 1-.59-.69c-.14-.19-.27-.38-.39-.59-.1-.17-.2-.34-.28-.53l-.06-.15c2.53-.3 5.03-.45 7.53-.45.03 0 .06.01.09.01.02 0 .03-.01.05-.01 2.51 0 5.03.15 7.57.45z"/></svg>