<svg xmlns="http://www.w3.org/2000/svg" viewBox="0 0 24 24"><g fill="#5e656d"><path d="M18.73 18.11c1.25-1.54 1.91-3.65 1.91-6.24 0-.27-.01-.54-.03-.8 0-.08-.01-.17-.02-.25a.67.67 0 0 0-.27-.41.7.7 0 0 0-.33-.14.76.76 0 0 0-.61.14q-.135.12-.21.3h-.01s-.02.07-.02.1c0 .02-.01.03-.02.04v.02c-.02.23.02.6.02 1 0 4.97-2.74 7.71-7.71 7.71s-7.71-2.74-7.71-7.71 2.74-7.71 7.71-7.71c.28 0 .55.01.82.03h.23c.18-.01.34-.09.47-.22l.02-.02c.12-.14.18-.3.19-.46a.66.66 0 0 0-.3-.63c-.09-.06-.18-.1-.28-.13-.05-.01-.1-.02-.15-.02-.32-.03-.65-.05-1-.05-5.85 0-9.21 3.36-9.21 9.21s3.36 9.21 9.21 9.21c2.59 0 4.7-.66 6.24-1.91l2.77 2.77c.15.15.34.22.53.22s.38-.07.53-.22c.29-.29.29-.77 0-1.06z"/><path d="M11.85 6.81c0 .31.2.59.49.7l.84.31c1.07.39 1.51.56 1.79.84.27.27.44.71.84 1.78l.31.84c.11.29.39.49.7.49s.59-.2.7-.49l.31-.84c.39-1.07.57-1.51.84-1.79.28-.27.72-.45 1.79-.84l.84-.31c.29-.11.49-.39.49-.7s-.2-.59-.49-.7l-.84-.31c-1.07-.39-1.51-.56-1.79-.84-.27-.27-.45-.72-.84-1.78l-.31-.84c-.11-.29-.39-.49-.7-.49s-.59.2-.7.49l-.32.85c-.39 1.06-.56 1.5-.84 1.77-.27.27-.72.44-1.78.84l-.84.31c-.29.11-.49.39-.49.7Zm4.17-.79c.34-.34.56-.74.79-1.3.23.56.45.96.79 1.3s.74.56 1.3.8c-.56.23-.96.45-1.3.79s-.56.74-.79 1.3c-.23-.56-.45-.96-.79-1.3s-.74-.56-1.3-.79c.56-.23.96-.45 1.3-.79Z"/></g></svg>