<svg xmlns="http://www.w3.org/2000/svg" viewBox="0 0 24 24"><path fill="#444" d="M10.46 21.86c-1.96 0-3.92-.06-5.86-.19-1.07-.13-1.82-.82-1.98-1.77l-.06-.19-.03-.1c-.09-.47-.17-.92-.26-1.36-.09-.45-.17-.9-.26-1.37-.05-.26.04-.53.24-.7s.48-.23.73-.15c.06.02.12.03.21.04.7.06 1.43-.21 1.94-.75.49-.51.72-1.18.64-1.85-.09-.73-.41-1.7-2.16-1.7-.19 0-.48 0-.63.05a.75.75 0 0 1-.97-.85c.17-.96.35-1.9.52-2.75.01-.07.04-.13.07-.19l.06-.11c.28-.87 1.03-1.54 1.89-1.66h.1c.68 0 1.48-.05 2.29-.11-.01-.11-.02-.23-.02-.34 0-2.29 1.38-3.66 3.69-3.66s3.69 1.37 3.69 3.66c0 .11 0 .23-.02.34.77.06 1.48.1 2.03.1 1.1.13 1.84.79 2.02 1.71l.03.07c.03.06.05.12.07.19.12.59.26 1.33.36 2.07 1.97.18 3.16 1.47 3.19 3.53.02.99-.36 1.93-1.06 2.64-.58.59-1.33.97-2.14 1.09-.1.75-.25 1.49-.37 2.09l-.11.35c-.25.88-1.02 1.57-1.9 1.7-1.99.13-3.98.2-5.96.2Zm-6.47-2.58.07.21s.03.1.03.15c.05.39.38.51.64.55 3.8.25 7.69.25 11.53 0 .24-.04.53-.32.63-.66l.1-.29c.12-.61.29-1.53.39-2.39.04-.44.42-.77.86-.77.63 0 1.2-.24 1.63-.68.42-.42.64-.98.63-1.56-.03-1.43-.76-2.1-2.24-2.08-.18-.02-.35-.06-.49-.17l-.13-.1a.72.72 0 0 1-.26-.49c-.09-.82-.25-1.69-.39-2.38l-.04-.08c-.04-.08-.06-.16-.08-.25-.05-.39-.38-.51-.64-.55-.63.01-1.59-.07-2.6-.14l-.3-.02a.748.748 0 0 1-.66-.98c.07-.2.13-.55.13-.79 0-1.47-.7-2.16-2.19-2.16s-2.19.69-2.19 2.16c0 .25.07.54.15.84.05.21.01.44-.12.62s-.33.29-.55.31c-1.09.08-2.23.17-3.19.17-.28.06-.55.33-.64.65-.01.05-.03.09-.05.13l-.04.08c-.11.53-.21 1.08-.32 1.65 2.06.02 3.37 1.12 3.6 3.02.14 1.12-.25 2.24-1.05 3.07-.69.71-1.59 1.14-2.55 1.21.03.13.05.27.08.4.08.43.17.87.25 1.32m14.88-2.29V17z"/></svg>