<?xml version="1.0" encoding="UTF-8"?><svg id="b" xmlns="http://www.w3.org/2000/svg" viewBox="0 0 24 24"><path d="m12.36,2.13c-.03-.13-.23-.13-.35-.13-3.1,0-5.62.87-7.37,2.62-1.75,1.75-2.62,4.27-2.62,7.38,0,.36.01.72.04,1.06.04.61.42,1.15.98,1.41l.56.26h0c1.27.62,2.67.31,3.53-.56.31-.31.45-.76.45-1.2v-2.04c0-.89.36-1.75.99-2.38.63-.63,1.49-.99,2.38-.99.42,0,.82-.17,1.12-.46.39-.39.6-.97.66-1.73.06-.76-.04-1.61-.17-2.44l-.19-.81ZM2.7,16.29c-.48-.21,1.08,2.23,1.93,3.08,1.75,1.75,4.27,2.62,7.37,2.62,1.67,0,3.16-.25,4.47-.75.19-.07.31-.26.31-.46v-2.77c0-.23-.09-.46-.26-.62-.17-.16-.38-.26-.62-.26-.9,0-1.76-.35-2.38-.99-.63-.63-.99-1.49-.99-2.38s.36-1.75.99-2.38c.51-.51,1.2-.81,1.88-.98.7-.17,1.47-.23,2.22-.21,1.45.03,3,.36,3.97.86l.39.17c-.13-2.75-1-5-2.6-6.6-1.32-1.31-3.07-2.13-5.17-2.46h0l.08.47c.14.85.27,1.88.2,2.87-.08.99-.37,2.05-1.17,2.86-.63.63-1.49.99-2.38.99-.42,0-.82.17-1.12.46-.29.3-.46.7-.46,1.12v2.23c0,.58-.14,1.17-.46,1.64-1.29,1.87-3.86,2.61-6.08,1.54l-.13-.06Zm16.69,3.08c-.26.26-.83.89-.82.62v-1.98c0-.71-.28-1.38-.78-1.88-.5-.5-1.18-.78-1.88-.78-.42,0-.82-.17-1.12-.46-.3-.3-.47-.7-.47-1.12s.17-.82.47-1.12c.2-.2.54-.38,1.05-.51.51-.12,1.11-.18,1.75-.16,1.3.03,2.56.33,3.22.67,0,0,.03.02.05.02l.54.24c.34.15.55.5.51.87-.28,2.29-1.12,4.19-2.51,5.59Z" fill-rule="evenodd" stroke-width="0"/></svg>