<?xml version="1.0" encoding="UTF-8"?><svg id="c" xmlns="http://www.w3.org/2000/svg" viewBox="0 0 24 24"><path d="m12,2c-4.02,0-8.09,1.21-8.09,3.52v12.95c0,2.31,4.07,3.52,8.09,3.52.41,0,.75-.34.75-.75s-.34-.75-.75-.75c-4.27,0-6.59-1.34-6.59-2.02v-4.34c1.55.92,4.08,1.39,6.59,1.39.41,0,.75-.34.75-.75s-.34-.75-.75-.75c-4.27,0-6.59-1.34-6.59-2.02v-4.34c1.55.92,4.08,1.39,6.59,1.39s5.05-.47,6.59-1.39v4.34c0,.41.34.75.75.75s.75-.34.75-.75v-6.48c0-2.31-4.07-3.52-8.09-3.52Zm0,5.55c-4.27,0-6.59-1.34-6.59-2.02s2.33-2.02,6.59-2.02,6.59,1.34,6.59,2.02-2.33,2.02-6.59,2.02Z" stroke-width="0"/><path d="m7.63,10.21c-.4-.12-.82.1-.93.5-.12.4.1.81.5.94.59.18,1.25.32,1.94.43.04,0,.08,0,.11,0,.36,0,.68-.27.74-.64.06-.41-.22-.79-.63-.85-.62-.1-1.21-.22-1.73-.38Z" stroke-width="0"/><path d="m7.63,16.69c-.4-.12-.82.1-.93.5-.12.4.1.81.5.94.59.18,1.24.32,1.94.43.04,0,.08,0,.11,0,.36,0,.68-.27.74-.64.06-.41-.22-.79-.63-.85-.63-.1-1.21-.23-1.73-.38Z" stroke-width="0"/><path d="m18.75,18.31l-.96,1.22v-5.68c0-.41-.34-.75-.75-.75s-.75.34-.75.75v5.68l-.96-1.22c-.25-.32-.73-.38-1.05-.13-.33.26-.38.73-.13,1.05l1.08,1.38c.68.86,1.08,1.39,1.81,1.39s1.13-.52,1.81-1.38l1.08-1.38c.26-.33.2-.8-.13-1.05-.33-.26-.8-.2-1.05.13Z" stroke-width="0"/></svg>