<?xml version="1.0" encoding="UTF-8"?><svg id="b" xmlns="http://www.w3.org/2000/svg" viewBox="0 0 24 24"><path d="m12.11,16.02c-.38,0-.69.31-.69.69v.92c0,.38.31.69.69.69s.69-.31.69-.69v-.92c0-.38-.31-.69-.69-.69Z" fill="#444" stroke-width="0"/><path d="m12.11,19.7c-.38,0-.69.31-.69.69v.92c0,.38.31.69.69.69s.69-.31.69-.69v-.92c0-.38-.31-.69-.69-.69Z" fill="#444" stroke-width="0"/><path d="m4,16.96c-.38-.09-.74.14-.84.51l-.92,3.68c-.09.37.14.74.51.84.06,0,.11.02.17.02.31,0,.59-.21.67-.52l.92-3.68c.09-.37-.14-.74-.51-.84Z" fill="#444" stroke-width="0"/><path d="m21.75,20.92l-.92-3.68c-.09-.38-.47-.6-.84-.51-.38.09-.6.47-.51.84l.92,3.68c.08.31.36.52.67.52.06,0,.11,0,.17-.02.38-.09.6-.47.51-.84Z" fill="#444" stroke-width="0"/><path d="m6.16,6.45h12.02c.27,0,.5-.22.5-.5s-.23-.51-.51-.51h-.68l-.26-1.2c-.24-1.17-.74-2.24-2.73-2.24h-4.68c-1.99,0-2.48,1.08-2.72,2.25l-.26,1.2h-.68c-.27,0-.5.22-.5.5s.22.5.5.5Z" fill="#444" stroke-width="0"/><path d="m16.43,7.45H7.91c-2.14,0-2.43,1.18-2.54,2.27l-.38,4.06c-.05.51.12,1.01.47,1.4.36.39.86.61,1.39.61h1.25c1.09,0,1.29-.62,1.43-1.03l.14-.4c.16-.46.19-.57.79-.57h3.42c.6,0,.62.06.79.57l.14.4c.13.41.34,1.03,1.42,1.03h1.25c.52,0,1.03-.22,1.39-.61.35-.38.51-.89.47-1.4l-.37-4.06c-.1-1.1-.4-2.27-2.54-2.27Zm-6.26,3.67h-2c-.28,0-.5-.23-.5-.5s.23-.5.5-.5h2c.28,0,.5.23.5.5s-.23.5-.51.5Zm6,0h-2c-.28,0-.5-.23-.5-.5s.23-.5.5-.5h2c.28,0,.5.23.5.5s-.22.5-.5.5Z" fill="#444" stroke-width="0"/></svg>