<?xml version="1.0" encoding="UTF-8"?><svg id="e" xmlns="http://www.w3.org/2000/svg" viewBox="0 0 24 24"><path d="m19.67,9.29c-.38-1.06-.99-2.04-1.78-2.84-.14-.14-.21-.33-.18-.53l.21-1.24c.11-.69-.11-1.4-.59-1.91-.48-.5-1.15-.73-1.83-.64-1.37.18-2.46.69-3.18,1.51-.42-.05-.84-.08-1.26-.08-2.56,0-4.86.98-6.51,2.55-.42-.39-.84-.92-1.09-1.58-.15-.39-.58-.58-.96-.44-.39.14-.59.58-.44.96.3.8.81,1.54,1.5,2.18-.98,1.32-1.55,2.92-1.55,4.63,0,1.39.38,2.75,1.09,3.96-.02.07-.04.14-.06.21l-.36,1.59c-.21.9-.11,1.88.38,2.67.65,1.04,1.73,1.62,2.93,1.62.13,0,.25,0,.38-.02,1.01-.1,1.9-.68,2.44-1.55.14-.22.38-.35.64-.31.85.14,1.72.17,2.59.08.24-.02.45.09.58.29.77,1.16,2.18,1.73,3.58,1.41,1.58-.36,2.69-1.8,2.64-3.38l1.91-.96c.77-.38,1.25-1.17,1.25-2.02v-3.6c0-1.12-.83-2.06-1.87-2.21-.21-.03-.39-.15-.46-.36Zm.83,6.16c0,.29-.16.55-.42.68l-1.91.96c-.53.26-.86.79-.84,1.35.03.9-.58,1.71-1.47,1.91-.85.2-1.75-.23-2.13-1.02-.26-.54-.85-.85-1.49-.76-1.17.17-2.38.08-3.5-.24-.2-.06-.42-.01-.59.09-.18.1-.31.3-.36.5-.18.78-.83,1.38-1.58,1.46-.67.06-1.27-.16-1.68-.63-.4-.46-.56-1.08-.43-1.68l.39-1.71c.03-.12.06-.23.11-.34.1-.23.08-.5-.06-.71-.69-1.04-1.05-2.24-1.05-3.46,0-1.59.62-3.06,1.64-4.22.02-.02.05-.03.07-.05.01-.02.01-.04.02-.05,1.39-1.51,3.48-2.47,5.82-2.47.36,0,.72.02,1.07.07.46.06.91-.11,1.24-.46.54-.57,1.3-.91,2.33-1.05.28-.04.47.11.56.2.16.17.23.39.19.62l-.26,1.55c-.08.46.08.93.42,1.26.83.81,1.43,1.79,1.75,2.84.19.63.77.98,1.43,1.01.4.02.72.35.72.76v3.59Z" fill="#444" stroke-width="0"/><path d="m11.05,7.09h-2.25c-.41,0-.75.34-.75.75s.34.75.75.75h2.25c.41,0,.75-.34.75-.75s-.34-.75-.75-.75Z" fill="#444" stroke-width="0"/><path d="m16.07,9.86c-.41,0-.75.34-.75.75v1.39c0,.41.34.75.75.75s.75-.34.75-.75v-1.39c0-.41-.34-.75-.75-.75Z" fill="#444" stroke-width="0"/></svg>