<svg xmlns="http://www.w3.org/2000/svg" viewBox="0 0 24 24"><path fill="#444" fill-rule="evenodd" d="M8.84 11.29c-1.39 0-2.51-1.12-2.51-2.51s1.13-2.51 2.51-2.51 2.51 1.13 2.51 2.51-1.13 2.51-2.51 2.51m0-3.52c-.56 0-1.01.45-1.01 1.01s.45 1.01 1.01 1.01 1.01-.45 1.01-1.01-.45-1.01-1.01-1.01"/><path fill="#444" fill-rule="evenodd" d="M21.87 14.6c.09-.79.13-1.66.13-2.6 0-7.38-2.62-10-10-10S2 4.62 2 12s2.62 10 10 10c6.32 0 9.14-1.91 9.83-7.09.03-.1.05-.2.04-.31M12 3.5c-6.51 0-8.5 1.99-8.5 8.5 0 2.34.26 4.09.89 5.38.56-.97 1.45-2.24 2.52-2.75 1.12-.53 2.02-.2 2.89.11.64.23 1.31.47 2.23.47.71 0 1.11-.63 1.72-1.66.62-1.06 1.39-2.38 2.96-2.38 1.71 0 2.91.85 3.78 1.71 0-.29.01-.58.01-.89 0-6.51-1.99-8.5-8.5-8.5Zm8.32 11.41c-.05-.06-.11-.12-.16-.18h-.01c-.81-.92-1.83-2.05-3.44-2.05-.68 0-1.07.62-1.66 1.63-.63 1.07-1.41 2.41-3.01 2.41-1.18 0-2.04-.31-2.74-.56-.82-.3-1.21-.42-1.74-.17-.8.37-1.68 1.74-2.19 2.75 1.31 1.27 3.43 1.76 6.64 1.76 5.42 0 7.71-1.38 8.32-5.59Z"/></svg>