<?xml version="1.0" encoding="UTF-8"?><svg id="c" xmlns="http://www.w3.org/2000/svg" viewBox="0 0 24 24"><path d="m10.9,2c1.01,0,1.65,0,2.29.18.55.18,1.01.37,1.47.73s.92.92,1.47,1.74l.83,1.1h.83c.64.09,1.19.18,1.74.46.83.46,1.47,1.1,1.93,1.93.28.55.37,1.1.46,1.74s.09,1.47.09,2.48v2.94c0,1.01,0,1.83-.09,2.48s-.18,1.19-.46,1.74c-.46.83-1.1,1.47-1.93,1.93-.55.28-1.1.37-1.74.46-.64.09-1.47.09-2.48.09h-6.61c-1.01,0-1.83,0-2.48-.09s-1.19-.18-1.74-.46c-.83-.46-1.47-1.1-1.93-1.93-.28-.55-.37-1.1-.46-1.74s-.09-1.47-.09-2.48V4.48c0-1.38,1.19-2.48,2.48-2.48h6.42ZM3.56,15.21c0,1.01,0,1.74.09,2.39,0,.55.09.92.28,1.19.28.55.73,1.01,1.28,1.28.28.18.64.28,1.19.28.55.09,1.28.09,2.39.09h6.61c1.01,0,1.74,0,2.39-.09.55-.09.92-.09,1.19-.28.55-.28,1.01-.73,1.28-1.28.18-.28.28-.64.28-1.19v-.37h-.28c-1.93,0-3.49-1.56-3.49-3.49s1.56-3.49,3.49-3.49h.18v-.37c0-.55-.09-.92-.28-1.19-.28-.55-.73-1.01-1.28-1.28-.28-.18-.64-.28-1.19-.28-.55-.09-1.28-.09-2.39-.09H4.66c-.46,0-.83-.09-1.1-.28v8.44Zm16.7-3.49c-1.1,0-2.02.92-2.02,2.02s.92,2.02,2.02,2.02h.18v-4.04h-.18ZM4.66,3.47c-.64,0-1.1.55-1.1,1.1s.55,1.1,1.1,1.1h10.55l-.18-.18c-.64-.92-.92-1.19-1.28-1.47-.28-.18-.64-.37-1.01-.46s-.83-.09-1.93-.09h-6.15Z" fill="#444" fill-rule="evenodd" stroke-width="0"/></svg>