<svg xmlns="http://www.w3.org/2000/svg" viewBox="0 0 24 24"><g fill="#444"><path d="M18.05 17.66a.693.693 0 0 0-.89.41c-.41 1.12-1.56 1.88-2.87 1.88H6.48c-1.7 0-3.08-1.38-3.08-3.08v-5.2c.05-.6.48-1.24 1.04-1.54.34-.18.46-.6.28-.94a.683.683 0 0 0-.94-.28c-.99.53-1.68 1.57-1.77 2.71v5.26c0 2.47 2.01 4.47 4.47 4.47h7.81c1.89 0 3.56-1.12 4.17-2.79a.693.693 0 0 0-.41-.89Zm-.89-10.74-2.17 1.73c-.46.37-1.3.37-1.76 0l-2.16-1.72a.676.676 0 0 0-.94.08l-.02.02a.686.686 0 0 0 .12.96l2.17 1.73c.47.37 1.08.58 1.72.58s1.25-.21 1.72-.58l2.17-1.73a.68.68 0 0 0-.84-1.07Z"/><path d="M20.96 4.47a4.5 4.5 0 0 0-1.03-.89c-1.23-.78-2.98-.93-5.77-.93s-4.52.15-5.77.93c-.4.25-.74.55-1.03.89-.83 1.01-1.13 2.33-1.13 5.05s.3 4.05 1.13 5.05c.29.34.63.64 1.03.89 1.23.78 2.98.93 5.77.93s4.52-.15 5.77-.93c.4-.25.75-.55 1.03-.89.88-1.07 1.04-2.48 1.04-5.05s-.15-3.99-1.04-5.05m-.42 5.05c0 2.27-.11 3.48-.74 4.24-.2.24-.43.44-.7.6-.84.52-2.09.7-4.95.7s-4.1-.18-4.94-.7a3.3 3.3 0 0 1-.7-.6c-.61-.73-.83-1.84-.83-4.24s.22-3.51.83-4.24c.2-.24.43-.44.7-.6.83-.51 2.12-.7 4.94-.7s4.11.18 4.95.7c.29.19.52.39.7.6.63.76.74 1.97.74 4.24"/></g></svg>