<?xml version="1.0" encoding="UTF-8"?><svg id="b" xmlns="http://www.w3.org/2000/svg" viewBox="0 0 24 24"><path d="m20.37,21.75H3c-.41,0-.75-.34-.75-.75V4.94c0-1.49,1.21-2.69,2.69-2.69h6.11c1.49,0,2.69,1.21,2.69,2.69v6.51c.3-.13.64-.21.99-.21h3.63c1.86,0,3.38,1.52,3.38,3.38v5.74c0,.76-.62,1.38-1.38,1.38Zm-6.62-1.5h6.5v-5.62c0-1.04-.84-1.88-1.88-1.88h-3.63c-.55,0-.99.44-.99.99v6.51Zm-10,0h8.5V4.94c0-.66-.54-1.19-1.19-1.19h-6.11c-.66,0-1.19.54-1.19,1.19v15.31Zm5.25-4.5h-2c-.41,0-.75-.34-.75-.75s.34-.75.75-.75h2c.41,0,.75.34.75.75s-.34.75-.75.75Zm0-4h-2c-.41,0-.75-.34-.75-.75s.34-.75.75-.75h2c.41,0,.75.34.75.75s-.34.75-.75.75Zm0-4h-2c-.41,0-.75-.34-.75-.75s.34-.75.75-.75h2c.41,0,.75.34.75.75s-.34.75-.75.75Z" stroke-width="0"/></svg>