<?xml version="1.0" encoding="UTF-8"?><svg id="b" xmlns="http://www.w3.org/2000/svg" viewBox="0 0 18.11 20.25"><g id="c"><g id="d"><path d="m1.51,3.62l3.72-2.33c.33-.2.43-.63.22-.96C5.25,0,4.82-.1,4.49.11L.77,2.44c-.33.2-.43.64-.22.96.2.33.63.43.96.22Z" fill="#444" stroke-width="0"/><path d="m12.87,1.3l3.72,2.33c.33.2.76.11.96-.22.2-.33.11-.76-.22-.96L13.61.12c-.33-.2-.76-.1-.96.22-.2.33-.11.76.22.96Z" fill="#444" stroke-width="0"/><path d="m9.05,20.25C3.3,20.25,0,16.95,0,11.2S3.3,2.15,9.05,2.15s9.05,3.3,9.05,9.05-3.3,9.05-9.05,9.05Zm0-16.61c-4.87,0-7.55,2.68-7.55,7.55s2.68,7.55,7.55,7.55,7.55-2.68,7.55-7.55-2.68-7.55-7.55-7.55Z" fill="#444" stroke-width="0"/><path d="m11.84,10.45h-5.58c-.39,0-.7.31-.7.7s.31.7.7.7h5.58c.39,0,.7-.31.7-.7s-.31-.7-.7-.7Z" fill="#444" stroke-width="0"/></g></g></svg>