<svg xmlns="http://www.w3.org/2000/svg" viewBox="0 0 24 24"><g fill="#444"><path d="M12.08 22c-.06 0-.12 0-.18-.02-2.94-.73-9.78-3.19-9.78-10.39 0-5.8 1.61-7.04 1.93-7.23.29-.13 5.35-2.35 7.94-2.35s7.65 2.22 7.87 2.31c.4.23 2.01 1.47 2.01 7.27 0 7.45-7.36 9.84-9.61 10.39-.06.01-.12.02-.18.02M4.83 5.65c-.19.19-1.2 1.42-1.2 5.94 0 6.01 5.77 8.2 8.46 8.89 2.63-.68 8.29-2.85 8.29-8.89 0-4.52-1.02-5.75-1.2-5.94-1.45-.63-5.32-2.15-7.17-2.15S6.29 5.01 4.84 5.65Z"/><path d="m13.08 11.72 1.38-1.39c.29-.29.29-.77 0-1.06a.754.754 0 0 0-1.06 0l-1.37 1.38-1.42-1.43a.754.754 0 0 0-1.06 0c-.29.29-.3.77 0 1.06l1.43 1.44-1.47 1.48c-.29.29-.29.77 0 1.06.15.15.34.22.53.22s.39-.07.53-.22l1.47-1.48 1.42 1.43c.15.15.34.22.53.22s.38-.07.53-.22c.29-.29.3-.77 0-1.06l-1.43-1.44Z"/></g></svg>