<svg xmlns="http://www.w3.org/2000/svg" viewBox="0 0 19.03 19.11"><g fill="#444"><path d="M18.68 9.03v.04c0 .41-.33.74-.75.74s-.72-.32-.74-.73c-.21-4.93-1.85-6.05-7.83-6.05-6.46 0-7.86 1.29-7.86 7.3 0 5.55 1.2 7.07 6.48 7.26.01 0 0 0 0 0l.63.03c.41 0 .75.34.75.75s-.3.71-.68.74h-.25C1.91 18.94 0 16.85 0 10.33s2.1-8.8 9.36-8.8c6.77 0 9.05 1.73 9.32 7.5"/><path d="M5.67 4.56c-.41 0-.75-.34-.75-.75V.75c0-.41.34-.75.75-.75s.75.34.75.75v3.06c0 .41-.34.75-.75.75m7.38 0c-.41 0-.75-.34-.75-.75V.75c0-.41.34-.75.75-.75s.75.34.75.75v3.06c0 .41-.34.75-.75.75M1.25 6.28h16.23v1.5H1.25zm13.97 5.06c.08-.12.12-.26.11-.41a.6.6 0 0 0-.22-.43.624.624 0 0 0-.89.07l-1.05 1.22-.12.19s-.03.06-.04.11v.12l-.01.06.03.14s.02.09.04.1l.28.3 1.16.86c.26.2.68.14.88-.13.1-.14.14-.3.12-.47a.64.64 0 0 0-.25-.41l-.05-.04c1.42.02 2.56 1.19 2.56 2.62s-1.17 2.62-2.6 2.62-2.6-1.18-2.6-2.62v-.17c0-.42 0-.51.22-.94.19-.29.11-.68-.18-.87s-.68-.11-.89.22c-.33.72-.4 1.02-.4 1.76 0 2.14 1.73 3.88 3.86 3.88s3.86-1.74 3.86-3.88-1.71-3.86-3.82-3.88Z"/></g></svg>