<svg xmlns="http://www.w3.org/2000/svg" viewBox="0 0 24 24"><g fill="#5e656d"><path d="M13.84 7.55c-.41 0-.75.34-.75.75v4.62c0 .41.34.75.75.75s.75-.34.75-.75V8.3c0-.41-.34-.75-.75-.75m3.68 0c-.41 0-.75.34-.75.75v4.62c0 .41.34.75.75.75s.75-.34.75-.75V8.3c0-.41-.34-.75-.75-.75M6.48 12.17c-.41 0-.75.34-.75.75v3.7c0 .41.34.75.75.75s.75-.34.75-.75v-3.7c0-.41-.34-.75-.75-.75"/><path d="M18.44 2h-5.52c-1.62 0-2.71.65-3.2 1.85H7.4a2.6 2.6 0 0 0-2.59 2.6V7.6c-1.78.26-2.76 1.46-2.76 3.47v7.4c0 2.27 1.25 3.52 3.51 3.52h12.87c2.26 0 3.51-1.25 3.51-3.52V5.52c0-2.27-1.25-3.52-3.51-3.52ZM6.31 6.45c0-.61.49-1.1 1.09-1.1h2.01v2.19h-3.1v-1.1ZM5.56 20.5c-1.43 0-2.01-.59-2.01-2.02v-7.4c0-1.44.58-2.03 2.01-2.03h3.85v9.43c0 .25.02.49.05.72 0 .06.02.12.03.18q.045.27.12.51c.01.04.02.09.04.13.06.17.13.33.22.48zm9.02 0v-2.95c0-.09.08-.17.17-.17h1.84c.09 0 .17.08.17.17v2.95zm5.85-2.02c0 1.44-.58 2.02-2.01 2.02h-.17v-2.95c0-.92-.75-1.67-1.67-1.67h-1.84c-.92 0-1.67.75-1.67 1.67v2.95h-.17c-1.43 0-2.01-.59-2.01-2.02V5.52c0-.16.01-.3.02-.44.01-.11.03-.2.05-.29v-.01c.19-.9.79-1.28 1.93-1.28h5.52c1.43 0 2.01.59 2.01 2.02v12.95Z"/></g></svg>