<?xml version="1.0" encoding="UTF-8"?><svg id="c" xmlns="http://www.w3.org/2000/svg" viewBox="0 0 24 24"><path d="m18.3,17.28c.19.28.37.46.46.74.28.46.56,1.02.46,1.48,0,.74-.37,1.48-1.02,1.94-.37.28-.93.46-1.48.46-.56.09-1.3.09-2.22.09h-5c-.93,0-1.67,0-2.22-.09s-1.11-.19-1.48-.46c-.56-.46-.93-1.2-1.02-1.94,0-.56.19-1.02.46-1.48.09-.19.28-.46.46-.74,1.67,1.48,3.89,2.41,6.3,2.41,2.41-.09,4.63-.93,6.3-2.41ZM12,2c4.44,0,8.15,3.61,8.15,8.15s-3.61,8.15-8.15,8.15S3.85,14.69,3.85,10.15,7.56,2,12,2Zm0,6.3c-1.02,0-1.85.83-1.85,1.85s.83,1.85,1.85,1.85,1.85-.83,1.85-1.85-.83-1.85-1.85-1.85Z" fill="#444" stroke-width="0"/></svg>