<?xml version="1.0" encoding="UTF-8"?><svg id="e" xmlns="http://www.w3.org/2000/svg" viewBox="0 0 24 24"><path d="m6.43,10.75h11.32c-.35-3.08-1.97-4.22-5.66-4.22s-5.3,1.14-5.67,4.22Z" fill="#444" fill-rule="evenodd" stroke-width="0"/><path d="m21.34,12.07H2.66c-.36,0-.66.3-.66.66s.3.66.66.66h.55c.04.57.08,1.11.17,1.59v.04c.56,3.32,2.3,5.05,5.64,5.6.04,0,.08,0,.11,0,.32,0,.59-.23.65-.56.05-.35-.19-.7-.55-.76-2.82-.47-4.09-1.75-4.55-4.55,0-.02,0-.03,0-.04-.07-.4-.11-.85-.14-1.33h1.86c.27,3.38,1.86,4.61,5.7,4.61s5.43-1.24,5.7-4.61h1.66c-.03.49-.07.95-.14,1.37v.04c-.47,2.78-1.75,4.05-4.55,4.52-.36.06-.6.41-.54.76.05.33.33.56.65.56.04,0,.08,0,.11,0,3.36-.56,5.1-2.3,5.65-5.65v-.04c.08-.47.12-1,.16-1.55h.55c.37,0,.66-.3.66-.66s-.29-.66-.66-.66Z" fill="#444" fill-rule="evenodd" stroke-width="0"/><path d="m3.92,9.78s.07,0,.11,0c.32,0,.6-.23.65-.56.46-2.78,1.77-4.1,4.55-4.55.36-.06.61-.4.55-.76-.06-.36-.4-.61-.76-.55-3.36.55-5.1,2.29-5.65,5.65-.06.36.19.7.55.76Z" fill="#444" fill-rule="evenodd" stroke-width="0"/><path d="m14.77,4.68c2.78.46,4.1,1.78,4.55,4.55.05.33.33.56.65.56.04,0,.07,0,.11,0,.36-.06.61-.4.55-.76-.55-3.36-2.29-5.1-5.65-5.65-.36-.06-.7.19-.76.55-.06.36.19.7.55.76Z" fill="#444" fill-rule="evenodd" stroke-width="0"/></svg>