<svg xmlns="http://www.w3.org/2000/svg" viewBox="0 0 24 24"><path fill="#323544" fill-rule="evenodd" d="M4.25 3.88C3.01 3.88 2 4.89 2 6.13v9.75c0 1.24 1.01 2.25 2.25 2.25H5c.1 0 .19.07.24.16.45 1.08 1.52 1.84 2.77 1.84s2.3-.75 2.76-1.83c.04-.1.14-.17.25-.17h10.24c.41 0 .75-.34.75-.75s-.34-.75-.75-.75h-1v-7.5c0-2.9-2.35-5.25-5.25-5.25zm6.93 12.75h7.2c.21 0 .37-.17.37-.37V9.13c0-2.07-1.68-3.75-3.75-3.75H4.25c-.41 0-.75.34-.75.75v9.75c0 .41.34.75.75.75h.59c.12 0 .22-.09.25-.2.32-1.32 1.5-2.3 2.92-2.3s2.59.97 2.91 2.28c.03.13.14.22.27.22Zm-4.68.5c0-.83.67-1.5 1.5-1.5s1.5.67 1.5 1.5-.67 1.5-1.5 1.5-1.5-.67-1.5-1.5"/></svg>