<svg xmlns="http://www.w3.org/2000/svg" viewBox="0 0 24 24"><path fill="#5e656d" d="M7.84 2H5.13C3.44 2 2.06 3.39 2.06 5.09v2.72c0 1.7 1.38 3.09 3.07 3.09h2.71c1.7 0 3.07-1.39 3.07-3.09V5.09C10.91 3.39 9.53 2 7.84 2m1.57 5.81c0 .88-.71 1.59-1.57 1.59H5.13c-.87 0-1.57-.71-1.57-1.59V5.09c0-.88.71-1.59 1.57-1.59h2.71c.87 0 1.57.71 1.57 1.59zM18.87 2h-2.71c-1.7 0-3.07 1.39-3.07 3.09v2.72c0 1.7 1.38 3.09 3.07 3.09h2.71c1.69 0 3.07-1.39 3.07-3.09V5.09c0-1.7-1.38-3.09-3.07-3.09m1.57 5.81c0 .88-.71 1.59-1.57 1.59h-2.71c-.87 0-1.57-.71-1.57-1.59V5.09c0-.88.71-1.59 1.57-1.59h2.71c.87 0 1.57.71 1.57 1.59zm-1.57 5.29h-2.71c-1.7 0-3.07 1.39-3.07 3.09v2.72c0 1.7 1.38 3.09 3.07 3.09h2.71c1.69 0 3.07-1.39 3.07-3.09v-2.72c0-1.7-1.38-3.09-3.07-3.09m1.57 5.81c0 .88-.71 1.59-1.57 1.59h-2.71c-.87 0-1.57-.71-1.57-1.59v-2.72c0-.88.71-1.59 1.57-1.59h2.71c.87 0 1.57.71 1.57 1.59zM7.84 13.1H5.13c-1.69 0-3.07 1.39-3.07 3.09v2.72c0 1.7 1.38 3.09 3.07 3.09h2.71c1.7 0 3.07-1.39 3.07-3.09v-2.72c0-1.7-1.38-3.09-3.07-3.09m1.57 5.81c0 .88-.71 1.59-1.57 1.59H5.13c-.87 0-1.57-.71-1.57-1.59v-2.72c0-.88.71-1.59 1.57-1.59h2.71c.87 0 1.57.71 1.57 1.59z"/></svg>