<?xml version="1.0" encoding="UTF-8"?><svg id="c" xmlns="http://www.w3.org/2000/svg" viewBox="0 0 24 24"><path d="m21.48,15.62c-1.21-2.37-2.97-5.35-4.86-8.18-.34-.47-.51-.96-.51-1.48v-1.9c.35.03.69.05,1.04.09.03,0,.06,0,.09,0,.38,0,.7-.28.74-.67.05-.41-.25-.78-.66-.83-2.32-.27-4.61-.34-6.9-.26-.05,0-.1,0-.15,0-.48.02-.97.04-1.45.08-.06,0-.12,0-.19.01-.01,0-.02,0-.03,0-.59.05-1.19.09-1.79.15-.41.05-.71.42-.66.83.05.41.43.71.83.66.32-.04.64-.05.96-.08v1.9c0,.52-.17,1.01-.52,1.49-1.56,2.25-3.1,4.81-4.3,7.09-.21.36-.42.71-.65,1.08-.48.98-.49,2.12-.02,3.12.48,1.04,1.41,1.81,2.56,2.1,2.33.53,4.63.8,6.93.8.01,0,.03,0,.04,0s.03,0,.04,0c2.29,0,4.58-.26,6.9-.79,1.17-.24,2.13-.98,2.63-2.04.49-1.03.46-2.2-.07-3.19Zm-16.03,3.77c-.7-.18-1.26-.64-1.56-1.27-.28-.6-.27-1.25,0-1.82.19-.39.42-.81.64-1.22.25-.44.52-.87.76-1.3l.45-.79c.16-.27.46-.44.78-.44.05,0,.09,0,.14,0,3.59.5,7.08.5,10.67,0,.38-.05.75.12.93.44.56.99,1.26,2.22,1.79,3.31.31.58.33,1.26.05,1.86-.29.62-.87,1.07-1.59,1.21-2.21.5-4.38.75-6.55.76-2.17,0-4.33-.25-6.52-.75Zm3.19-11.07c.53-.73.79-1.52.79-2.36v-2.02c1.71-.1,3.47-.1,5.17,0v2.02c0,.84.27,1.63.78,2.33.61.92,1.2,1.85,1.77,2.77,0,0-.01,0-.02,0-3.45.48-6.8.48-10.26,0-.01,0-.02,0-.03,0,.59-.94,1.18-1.87,1.79-2.74Z" fill="#444" stroke-width="0"/></svg>