<svg xmlns="http://www.w3.org/2000/svg" viewBox="0 0 24 24"><path d="M7.83 2.4h-2.5C3.71 2.4 2.4 3.71 2.4 5.33v2.5c0 1.62 1.31 2.94 2.93 2.94h2.5c1.62 0 2.94-1.32 2.94-2.94v-2.5c0-1.62-1.32-2.93-2.94-2.93m1.24 5.43c0 .68-.56 1.24-1.24 1.24h-2.5c-.68 0-1.23-.56-1.23-1.24v-2.5c0-.68.55-1.23 1.23-1.23h2.5c.68 0 1.24.55 1.24 1.23zm9.6-5.43h-2.5c-1.62 0-2.94 1.31-2.94 2.93v2.5c0 1.62 1.32 2.94 2.94 2.94h2.5c1.62 0 2.93-1.32 2.93-2.94v-2.5c0-1.62-1.31-2.93-2.93-2.93m1.23 5.43c0 .68-.55 1.24-1.23 1.24h-2.5c-.68 0-1.24-.56-1.24-1.24v-2.5c0-.68.56-1.23 1.24-1.23h2.5c.68 0 1.23.55 1.23 1.23zm-12.07 5.4h-2.5c-1.62 0-2.93 1.32-2.93 2.94v2.5c0 1.62 1.31 2.93 2.93 2.93h2.5c1.62 0 2.94-1.31 2.94-2.93v-2.5c0-1.62-1.32-2.94-2.94-2.94m1.24 5.44c0 .68-.56 1.23-1.24 1.23h-2.5c-.68 0-1.23-.55-1.23-1.23v-2.5c0-.68.55-1.24 1.23-1.24h2.5c.68 0 1.24.56 1.24 1.24zm5.87-5.34h-.83c-.41 0-.75.33-.75.75v.83c0 .41.34.75.75.75h.83c.42 0 .75-.34.75-.75v-.83c0-.42-.33-.75-.75-.75"/><rect width="2.34" height="2.33" x="13.33" y="19.17" rx=".75" ry=".75"/><path d="M20.75 13.33h-.83c-.42 0-.75.34-.75.75v.84c0 .41.33.75.75.75h.83c.41 0 .75-.34.75-.75v-.84c0-.41-.34-.75-.75-.75m-3.33 2.99c-.61 0-1.1.49-1.1 1.1s.49 1.1 1.1 1.1 1.1-.5 1.1-1.1-.5-1.1-1.1-1.1"/></svg>