<?xml version="1.0" encoding="UTF-8"?><svg id="b" xmlns="http://www.w3.org/2000/svg" viewBox="0 0 17.45 20"><g id="c"><g id="d"><path d="m8.7,2.45c-.6,0-1.19.07-1.78.18l1.21-1.39c.27-.31.24-.79-.08-1.06-.31-.27-.79-.24-1.06.08,0,0,0,0,0,0l-2.66,3.07s0,.02-.01.03c0,0-.02.01-.02.02-.03.03-.03.07-.05.11s-.05.09-.06.13c-.01.05-.01.1-.02.15,0,.05-.01.09,0,.14,0,.05.02.1.04.14.01.04.02.09.05.13.02.05.06.08.1.12.02.03.04.06.07.09,0,0,.02,0,.03.02,0,0,.01.02.02.02l3.1,2.28c.13.1.29.15.44.15.23,0,.46-.11.61-.31.25-.33.17-.8-.16-1.05l-1.74-1.28c.66-.16,1.32-.26,1.99-.26,3.98,0,7.22,3.26,7.22,7.27s-3.24,7.27-7.22,7.27S1.5,15.25,1.5,11.24c0-1.44.42-2.84,1.22-4.05.23-.35.13-.81-.21-1.04-.35-.23-.81-.13-1.04.21C.51,7.8,0,9.49,0,11.23,0,16.07,3.91,20,8.72,20s8.72-3.94,8.72-8.77S13.54,2.45,8.72,2.45h-.02Z" fill="#444" stroke-width="0"/><path d="m7.54,11.04c-.25-.12-.54-.19-.87-.22h-.1s1.38-1.43,1.38-1.43c.03-.03.05-.06.07-.1.02-.04.03-.08.03-.13v-.48c0-.06-.02-.11-.06-.14-.04-.04-.08-.06-.14-.06h-3.43c-.06,0-.11.02-.14.06-.03.04-.05.09-.05.14v.53c0,.05.02.1.05.14.04.04.08.06.14.06h2.29l-1.43,1.4s-.05.06-.08.1c-.02.04-.04.09-.04.14v.34c0,.06.02.11.06.14s.08.05.14.05h.82c.31,0,.56.06.74.19.18.13.26.33.26.61s-.09.5-.28.65-.44.23-.76.23c-.16,0-.31-.02-.46-.05s-.27-.09-.38-.18-.19-.2-.24-.34c-.03-.06-.06-.11-.1-.13-.04-.02-.08-.03-.14-.03h-.72s-.09.01-.12.04c-.03.03-.05.07-.05.12,0,.17.05.34.14.52.09.17.22.33.4.48.18.15.4.27.68.36.27.09.59.14.97.14.43,0,.8-.07,1.14-.21s.59-.34.78-.6c.19-.26.28-.57.28-.93s-.07-.63-.21-.86c-.14-.23-.34-.4-.59-.52Z" fill="#444" stroke-width="0"/><path d="m13.48,10.53c-.01-.29-.06-.57-.15-.83s-.22-.48-.39-.68c-.17-.19-.39-.34-.66-.46-.27-.11-.59-.17-.96-.17s-.69.06-.95.17c-.27.11-.49.26-.66.46-.17.19-.3.42-.4.68s-.14.53-.15.83c0,.15,0,.31-.01.49,0,.18,0,.35,0,.52s0,.33.01.48c.02.29.07.57.15.83.08.26.21.49.38.68s.39.35.66.46c.27.11.59.17.97.17s.7-.06.97-.17c.27-.11.49-.27.66-.46s.3-.43.38-.68c.09-.26.13-.53.14-.83.01-.14.02-.3.02-.48v-.52c0-.18,0-.34-.02-.49Zm-1.13.98c0,.16,0,.31-.02.47,0,.39-.09.7-.25.92-.16.23-.42.34-.76.34s-.59-.11-.75-.34c-.17-.23-.25-.53-.26-.92,0-.15,0-.31,0-.47,0-.16,0-.32,0-.48,0-.16,0-.31,0-.46,0-.38.1-.68.26-.92.16-.23.41-.35.76-.35s.6.12.76.35c.16.23.25.54.25.92.01.14.02.3.02.46v.48Z" fill="#444" stroke-width="0"/></g></g></svg>