<svg xmlns="http://www.w3.org/2000/svg" viewBox="0 0 24 24"><path fill="#444" d="M21.25 13.27c-.9 0-1.21-.69-1.21-1.27s.32-1.27 1.21-1.27c.41 0 .75-.34.75-.75 0-5.28-.48-7.11-10-7.11S2 4.69 2 9.98c0 .41.34.75.75.75.9 0 1.21.69 1.21 1.27s-.32 1.27-1.21 1.27c-.41 0-.75.34-.75.75 0 5.28.48 7.11 10 7.11s10-1.83 10-7.11c0-.41-.34-.75-.75-.75M12 19.63c-8.07 0-8.48-.97-8.5-4.95 1.29-.33 1.96-1.51 1.96-2.68S4.79 9.65 3.5 9.32c.02-3.98.43-4.95 8.5-4.95s8.48.97 8.5 4.95c-1.29.33-1.96 1.51-1.96 2.68s.67 2.35 1.96 2.68c-.02 3.98-.43 4.95-8.5 4.95"/><path fill="#444" d="M13.99 10.17c-.11 0-.27-.01-.37-.03-.05-.08-.11-.23-.15-.33-.19-.45-.55-1.28-1.47-1.28s-1.28.83-1.47 1.28c-.04.1-.11.25-.15.33-.09.02-.25.02-.37.03-.51.02-1.45.07-1.69.99-.22.86.45 1.37.81 1.64.1.08.26.18.27.18 0 .07-.05.26-.08.39-.12.42-.37 1.31.43 1.86.25.17.5.23.73.23.47 0 .88-.25 1.15-.41.12-.08.31-.19.37-.2.07.01.26.13.39.2.4.24 1.13.69 1.88.18.79-.55.55-1.43.43-1.86-.04-.13-.09-.32-.11-.33.04-.05.19-.17.29-.25.36-.27 1.03-.78.81-1.65-.24-.92-1.18-.97-1.69-.99Zm-.85 2.48c-.1.42.01.81.1 1.13 0 .02 0 .03.01.05-.04-.02-.07-.04-.1-.06-.31-.19-.69-.42-1.15-.42s-.85.23-1.15.42c-.03.02-.07.04-.1.06 0-.02 0-.04.01-.05.09-.32.2-.71.1-1.13-.11-.47-.46-.76-.75-.98.41-.02.9-.05 1.27-.39.26-.25.4-.58.53-.87.03-.06.06-.14.09-.21.03.07.07.15.09.21.13.29.27.62.53.87.36.34.86.37 1.27.39-.29.22-.64.51-.75.98"/></svg>