<svg xmlns="http://www.w3.org/2000/svg" viewBox="0 0 24 24"><path d="M21.13 7.76a.9.9 0 0 0-.2-.4L17.97 4a.87.87 0 0 0-1.22-.08c-.36.32-.39.86-.08 1.22l.27.31v3.07c0 1.05.85 1.9 1.9 1.9h.84c.05.71.08 1.57.08 2.59 0 1.18-.21 3.43-.31 4.39-.03.28-.04.47-.05.54-.03.46-.34.93-.88.93-.48 0-.88-.39-.88-.88v-.43c0-1.33-1-2.43-2.29-2.59.06-.91.1-1.91.1-2.98 0-4.28-.64-7.42-.66-7.56a.87.87 0 0 0-.65-.67c-.1-.02-2.43-.57-5.17-.57s-5.08.54-5.17.57c-.33.08-.58.34-.65.67-.03.13-.66 3.31-.66 7.55s.64 7.42.66 7.56c.07.33.32.59.65.67.1.02 2.42.56 5.17.56s5.07-.53 5.17-.56c.33-.08.58-.34.65-.67.02-.08.23-1.15.41-2.85.41.08.71.44.71.86v.3c0 1.35.97 2.57 2.3 2.72 1.53.17 2.81-.98 2.9-2.54 0-.06.02-.23.04-.49.1-1.07.31-3.3.31-4.56 0-3.38-.36-5.17-.37-5.25ZM8.99 4.94c1.59 0 3.05.2 3.93.35.18.03.32.17.35.35.1.63.23 1.59.33 2.77.02.25-.18.47-.43.47H4.82c-.25 0-.45-.22-.43-.47.1-1.18.23-2.14.33-2.77.03-.18.17-.32.35-.35.88-.15 2.34-.35 3.93-.35Zm0 14.11c-1.58 0-3.04-.2-3.92-.35a.435.435 0 0 1-.36-.37c-.19-1.2-.48-3.52-.48-6.33 0-.47.05-1.38.02-1.38h9.47s.02.91.02 1.38c0 2.79-.29 5.13-.48 6.33-.03.19-.17.34-.36.37-.88.15-2.33.35-3.92.35Z"/></svg>