<?xml version="1.0" encoding="UTF-8"?><svg id="e" xmlns="http://www.w3.org/2000/svg" viewBox="0 0 24 24"><path d="m19.9,12c0,.78.46,1.56,1.5,1.56.28,0,.5.22.5.5,0,5.29-.45,6.97-9.9,6.97s-9.9-1.67-9.9-6.97c0-.28.22-.5.5-.5.47,0,.85-.16,1.12-.47.24-.28.38-.67.38-1.09,0-.77-.46-1.56-1.49-1.56-.28,0-.5-.22-.5-.5,0-5.29.45-6.97,9.9-6.97s9.9,1.67,9.9,6.97c0,.28-.22.5-.5.5-1.03,0-1.5.78-1.5,1.56Zm-8.9-2.58c.17-.36.44-.82,1-.82s.83.46,1,.82c.04.1.09.19.13.29h0c.04.1.08.19.12.27.08.17.16.3.24.37.05.05.16.1.36.12.13.02.27.02.42.03.07,0,.14,0,.22.01.22.01.47.04.68.12.23.09.42.26.5.55.07.27,0,.51-.12.7-.12.18-.3.33-.46.46-.05.04-.1.07-.14.11-.11.09-.22.17-.31.25-.13.12-.2.22-.22.32-.03.11-.02.25.02.43.02.09.04.18.07.27v.05c.04.08.06.16.08.25.05.19.09.42.06.63-.03.23-.15.44-.38.6-.48.33-.96.09-1.31-.11-.07-.04-.14-.08-.2-.12-.11-.07-.21-.13-.32-.18-.17-.08-.3-.13-.42-.13s-.26.05-.42.13c-.11.06-.21.12-.32.18-.06.04-.13.08-.2.12-.35.2-.83.44-1.31.11-.23-.16-.34-.37-.38-.6-.03-.21.01-.44.06-.63.02-.08.04-.17.07-.25v-.05c.04-.1.06-.19.08-.27.04-.18.05-.32.02-.43-.02-.1-.09-.2-.22-.32-.09-.09-.2-.17-.32-.25-.04-.03-.09-.07-.14-.11-.16-.12-.34-.27-.46-.46-.13-.19-.19-.43-.12-.7.07-.29.27-.46.49-.55.21-.09.46-.11.68-.12.08,0,.15,0,.22-.01.15,0,.29-.01.42-.03.19-.03.3-.07.36-.12.08-.08.16-.2.24-.37.04-.08.08-.17.12-.26h0c.04-.1.08-.2.13-.29Z" fill="#444" fill-rule="evenodd" stroke-width="0"/></svg>