<svg xmlns="http://www.w3.org/2000/svg" viewBox="0 0 24 24"><path fill="#444" d="M10.51 15.71c.96.38 2.02.38 2.98 0l.7-.28c.19-.08.31-.26.31-.46v-2.13c0-.3-.24-.53-.53-.53h-3.93c-.3 0-.53.24-.53.53v2.13c0 .2.12.39.31.46l.7.28Z"/><path fill="#444" d="m20.79 13.73-4.64 1.39c-.1.03-.17.12-.19.22-.13.66-.58 1.22-1.22 1.48l-.7.28a5.53 5.53 0 0 1-4.08 0l-.7-.28c-.64-.25-1.09-.81-1.22-1.47-.02-.11-.1-.2-.2-.23l-4.62-1.39c-.1-.03-.2.05-.2.15.04 3.03.23 5.79 1.31 6.75 1.32 1.17 3.44 1.17 7.68 1.17s6.36 0 7.68-1.17c1.07-.96 1.27-3.72 1.31-6.75 0-.1-.1-.18-.2-.15Zm.54-7.82c-.13-.16-.28-.3-.44-.43-.82-.67-2.05-.67-4.5-.67h-.84s0-.07-.01-.1c-.52-1.45-1.91-2.5-3.54-2.5s-3.02 1.05-3.54 2.5c-.01.03 0 .07-.01.1h-.84c-2.45 0-3.68 0-4.5.67-.16.13-.31.28-.44.43C2 6.74 2 7.96 2 10.41c0 .62 0 .93.15 1.17.03.05.06.09.1.13.19.21.49.3 1.08.48l4.47 1.34c.1.03.2-.05.2-.15v-.59c0-1.1.9-2 2-2h4c1.1 0 2 .9 2 2v.59c0 .11.1.18.2.15l4.47-1.34c.59-.18.89-.27 1.08-.48.04-.04.07-.09.1-.13.15-.24.15-.55.15-1.17 0-2.45 0-3.68-.67-4.5M12 3.7c.82 0 1.53.44 1.93 1.1h-3.85c.39-.66 1.1-1.1 1.93-1.1Z"/></svg>