<svg xmlns="http://www.w3.org/2000/svg" viewBox="0 0 24 24"><path fill="#444" d="M21.49 8.85c-.98-4.17-4.03-6.59-8.73-6.82-.06 0-.12-.01-.18-.01-.19-.01-.38-.01-.58-.01s-.39 0-.58.01c-.06 0-.12.01-.18.01-4.7.23-7.75 2.65-8.73 6.82-.23.96-.34 2.01-.34 3.15s.11 2.19.34 3.15c.98 4.17 4.03 6.59 8.73 6.82.06 0 .12.01.18.01.19.01.38.01.58.01s.39 0 .58-.01c.06 0 .12-.01.18-.01 4.7-.23 7.75-2.65 8.73-6.82.23-.96.34-2.01.34-3.15s-.11-2.19-.34-3.15m-6.67 5.97c-.27.27-.72.27-.99 0l-2.32-2.33a.75.75 0 0 1-.21-.51v-3.7c0-.39.32-.7.7-.7s.7.31.7.7v3.2c0 .15.06.29.16.39l1.96 1.96c.27.28.27.72 0 .99"/></svg>