<svg xmlns="http://www.w3.org/2000/svg" viewBox="0 0 24 24"><g fill="#5e656d"><path d="m19.2 4.52-5.12-2.11a5.57 5.57 0 0 0-4.17 0L4.79 4.52c-.98.4-1.75 1.54-1.75 2.6v4.06c0 4.88 3.48 9.39 8.27 10.73a2.5 2.5 0 0 0 1.34 0c4.79-1.33 8.27-5.84 8.27-10.73V7.12c0-1.06-.76-2.2-1.73-2.6Zm.23 6.66c0 4.22-3.02 8.13-7.17 9.28a1 1 0 0 1-.54 0c-4.16-1.16-7.17-5.06-7.17-9.28V7.12c0-.46.39-1.04.81-1.21l5.12-2.11a3.95 3.95 0 0 1 3.02 0l5.12 2.11c.42.17.81.76.81 1.21z"/><path d="M12 8.01a2.6 2.6 0 0 0-2.59 2.6c0 1.17.78 2.15 1.84 2.48v2.15c0 .41.34.75.75.75s.75-.34.75-.75v-2.15a2.605 2.605 0 0 0 1.84-2.48A2.6 2.6 0 0 0 12 8.01m0 3.7c-.6 0-1.09-.49-1.09-1.1s.49-1.1 1.09-1.1 1.09.49 1.09 1.1-.49 1.1-1.09 1.1"/></g></svg>