<?xml version="1.0" encoding="UTF-8"?><svg id="d" xmlns="http://www.w3.org/2000/svg" viewBox="0 0 24 24"><path d="m7.49,18.09s0,0,0,0c.76.76,1.56,1.14,2.37,1.14h0c.81,0,1.6-.38,2.35-1.13l5.52-5.55c.63-.63.63-1.66,0-2.29l-6.69-6.73s-.02-.04-.04-.06l-1.23-1.24c-.29-.29-.77-.29-1.06,0-.29.29-.3.77,0,1.06l.7.71-5.61,5.64c-1.52,1.53-1.52,3.22,0,4.76l3.68,3.7Zm3.67-1.05c-.46.46-.89.69-1.29.69h0c-.4,0-.85-.24-1.31-.7l-3.68-3.7c-.23-.23-.4-.45-.52-.67l11.65-.51-4.86,4.89Zm-.69-11.98l5.55,5.59-11.53.51c.1-.15.23-.31.39-.47l5.59-5.63Z" fill="#444" stroke-width="0"/><path d="m16.26,20.5H4.35c-.41,0-.75.34-.75.75s.34.75.75.75h11.92c.41,0,.75-.34.75-.75s-.34-.75-.75-.75Z" fill="#444" stroke-width="0"/><path d="m19.43,14.28c-.29-.31-.82-.31-1.11,0-.32.35-1.89,2.14-1.89,3.5s1.1,2.46,2.45,2.46,2.45-1.1,2.45-2.46-1.58-3.15-1.89-3.5Zm-.55,4.45c-.52,0-.95-.43-.95-.96,0-.41.46-1.17.95-1.81.48.64.95,1.4.95,1.81,0,.53-.42.96-.95.96Z" fill="#444" stroke-width="0"/></svg>