<svg xmlns="http://www.w3.org/2000/svg" viewBox="0 0 24 24"><path fill="#444" d="M17.5 8.62c-1.93 0-3.5 1.51-3.5 3.38 0 1.11.56 2.1 1.43 2.72.07.05.09.14.03.2-.73.84-2.38 2.23-5.45 2.43-.07 0-.13-.04-.14-.1-.33-1.17-1.29-2.09-2.52-2.38a.14.14 0 0 1-.11-.13V9.29c0-.06.04-.12.1-.13 1.52-.37 2.65-1.69 2.65-3.27 0-1.86-1.57-3.38-3.5-3.38s-3.5 1.51-3.5 3.38c0 1.58 1.13 2.9 2.65 3.27.06.01.1.07.1.13v5.45c0 .06-.04.12-.1.13-1.52.37-2.65 1.69-2.65 3.27 0 1.86 1.57 3.38 3.5 3.38 1.62 0 2.98-1.07 3.38-2.51.02-.08.1-.14.18-.15 4.33-.27 6.35-2.6 6.97-3.51.16.02.31.05.47.05 1.93 0 3.5-1.51 3.5-3.38s-1.57-3.38-3.5-3.38ZM4.49 5.87c0-1.03.9-1.88 2-1.88s2 .84 2 1.88-.9 1.88-2 1.88-2-.84-2-1.88m2 14.12c-1.1 0-2-.84-2-1.88s.9-1.88 2-1.88 2 .84 2 1.88-.9 1.88-2 1.88m11.01-6.12c-1.1 0-2-.84-2-1.88s.9-1.88 2-1.88 2 .84 2 1.88-.9 1.88-2 1.88"/></svg>