<?xml version="1.0" encoding="UTF-8"?><svg id="b" xmlns="http://www.w3.org/2000/svg" viewBox="0 0 24 24"><path d="m14.05,11.73c.38-1.58-1-2.96-2.58-2.58-.74.18-1.35.79-1.53,1.53-.38,1.58,1,2.96,2.58,2.58.75-.18,1.36-.79,1.53-1.53Z" fill="#444" stroke-width="0"/><path d="m6.24,18.12c-.17,0-.36-.07-.49-.19-1.87-1.73-2.94-4.18-2.94-6.73C2.8,6.13,6.93,2,12,2s9.2,4.13,9.2,9.2c0,2.56-1.03,4.93-2.9,6.7-.29.27-.75.26-1.02-.03-.27-.29-.26-.75.03-1.02,1.58-1.48,2.45-3.48,2.45-5.64,0-4.27-3.48-7.75-7.75-7.75s-7.75,3.48-7.75,7.75c0,2.18.88,4.18,2.48,5.67.29.27.31.73.04,1.02-.14.14-.34.22-.53.22Z" fill="#444" stroke-width="0"/><path d="m15.86,15.54c-.17,0-.36-.07-.49-.19-.29-.27-.31-.73-.03-1.02.8-.85,1.24-1.97,1.24-3.12,0-2.53-2.05-4.57-4.57-4.57s-4.57,2.05-4.57,4.57c0,1.17.44,2.27,1.24,3.12.27.29.26.75-.03,1.02-.29.28-.75.26-1.02-.03-1.05-1.12-1.64-2.58-1.64-4.12,0-3.32,2.7-6.01,6.01-6.01s6.01,2.7,6.01,6.01c0,1.53-.58,3-1.64,4.12-.14.14-.34.22-.53.22Z" fill="#444" stroke-width="0"/><path d="m10.36,16.85l-1.39,1.73c-1.1,1.38-.12,3.42,1.64,3.42h2.77c1.76,0,2.75-2.04,1.64-3.41l-1.39-1.73c-.83-1.06-2.43-1.06-3.27,0Z" fill="#444" stroke-width="0"/></svg>