<svg xmlns="http://www.w3.org/2000/svg" viewBox="0 0 24 24"><path fill="#444" fill-rule="evenodd" d="M7.76 7.33a2.25 2.25 0 0 0 2.45-.49A2.248 2.248 0 0 0 8.62 3a2.23 2.23 0 0 0-1.59.66c-.21.21-.37.46-.49.73a2.27 2.27 0 0 0 0 1.72c.11.27.28.52.49.73s.46.37.73.49m1.72 2.59a2.25 2.25 0 0 0-2.45.49 2.248 2.248 0 0 0 1.59 3.84 2.23 2.23 0 0 0 1.59-.66c.21-.21.37-.46.49-.73a2.27 2.27 0 0 0 0-1.72c-.11-.27-.28-.52-.49-.73s-.46-.37-.73-.49m0 6.75a2.25 2.25 0 0 0-2.45.49A2.248 2.248 0 0 0 8.62 21a2.23 2.23 0 0 0 1.59-.66c.21-.21.37-.46.49-.73a2.27 2.27 0 0 0 0-1.72c-.11-.27-.28-.52-.49-.73s-.46-.37-.73-.49m5.03-9.34a2.25 2.25 0 0 0 2.45-.49A2.248 2.248 0 0 0 15.37 3a2.23 2.23 0 0 0-1.59.66c-.21.21-.37.46-.49.73-.11.27-.17.57-.17.86s.06.59.17.86.28.52.49.73.46.37.73.49m1.72 2.59a2.25 2.25 0 0 0-2.45.49 2.248 2.248 0 0 0 1.59 3.84 2.23 2.23 0 0 0 1.59-.66c.21-.21.37-.46.49-.73a2.27 2.27 0 0 0 0-1.72c-.11-.27-.28-.52-.49-.73s-.46-.37-.73-.49m0 6.75a2.25 2.25 0 0 0-2.45.49A2.248 2.248 0 0 0 15.37 21a2.23 2.23 0 0 0 1.59-.66c.21-.21.37-.46.49-.73a2.27 2.27 0 0 0 0-1.72c-.11-.27-.28-.52-.49-.73s-.46-.37-.73-.49"/></svg>