<svg xmlns="http://www.w3.org/2000/svg" viewBox="0 0 24 24"><path fill="#444" fill-rule="evenodd" d="M21.05 18.28c-.19-.56-.72-.94-1.31-.94h-1.17c-.08 0-.15-.04-.2-.1a.3.3 0 0 1-.04-.24c.15-.48.28-1 .37-1.53.01-.07.03-.13.09-.17.05-.04.37 0 .37 0h2.04c.42 0 .77-.35.77-.77s-.35-.77-.77-.77h-2.02a.28.28 0 0 1-.22-.07.3.3 0 0 1-.07-.19c.01-.07.01-.14.02-.21 0-.09.01-.18.01-.27 0-.27-.01-.63-.03-1.03 0-.07.03-.14.07-.19.07-.06.17-.09.27-.08h.52c.59.01 1.11-.37 1.31-.93l.88-2.65a.764.764 0 0 0-.48-.97.757.757 0 0 0-.97.48l-.79 2.37c-.04.1-.13.17-.25.17l-.4.03c-.14.01-.27-.07-.3-.2-.26-1.24-.67-2.83-1.66-4.16-.04-.05-.07-.09-.11-.13l-.07-.1c-.06-.07-.07-.17-.03-.27l1.11-2.24c.19-.38.04-.84-.34-1.02a.765.765 0 0 0-1.03.34l-.82 1.65c-.03.06-.09.11-.17.13a.24.24 0 0 1-.2-.04c-1.04-.77-2.21-1.16-3.47-1.16-1.18 0-2.27.35-3.25 1.02-.06.05-.14.06-.21.04s-.13-.06-.16-.13l-.76-1.51a.763.763 0 0 0-1.03-.34c-.17.09-.32.25-.38.44-.07.19-.05.4.04.58l1.03 2.06c.04.09.03.19-.03.28l-.05.06c-.09.11-.17.21-.26.34-.97 1.33-1.39 2.92-1.66 4.16-.03.13-.24.19-.38.18h-.31a.31.31 0 0 1-.25-.18l-.79-2.37a.75.75 0 0 0-.38-.44.76.76 0 0 0-.59-.04c-.4.13-.61.56-.48.97l.88 2.65c.19.56.72.94 1.31.94h.56c.09-.01.16.02.22.07.04.05.07.12.07.19-.02.4-.03.77-.03 1.03 0 .08.01.17.01.27.01.07.01.14.01.21.01.07-.02.14-.07.19s-.13.08-.21.07H2.79c-.42 0-.77.35-.77.77s.35.77.77.77h2.04s.24-.03.37.01c.05.04.08.09.09.16.09.53.21 1.04.37 1.53.02.08.01.16-.04.24-.05.06-.12.1-.2.1H4.25c-.59 0-1.11.38-1.31.94l-.88 2.65c-.13.4.08.84.48.97.19.06.41.05.59-.04.17-.09.32-.25.38-.44l.79-2.37c.04-.1.13-.17.25-.17h1.31s.56-.02.66.1c1.27 1.56 2.58 2.71 4.5 2.97.55.07 1.39.07 1.94 0 1.92-.27 3.46-1.27 4.51-2.99.11-.16.65-.09.65-.09h1.31c.11 0 .2.07.25.17l.79 2.37c.06.19.2.35.38.44s.4.1.59.04c.4-.13.61-.57.48-.97l-.88-2.65ZM7.54 7.79c.18-.41.38-.76.59-1.05 1.07-1.48 2.32-2.2 3.82-2.2s2.81.75 3.89 2.22c.21.29.41.62.6 1.03.03.08.03.17-.02.25-.04.07-.12.11-.21.11H7.77a.26.26 0 0 1-.21-.11.27.27 0 0 1-.01-.25Zm7.39 11.77c-.49.36-1.22.7-1.84.85-.02.01-.04.01-.06.01-.06 0-.11-.02-.16-.05a.25.25 0 0 1-.09-.2v-5.13c0-.42-.35-.76-.77-.76s-.77.34-.77.76v5.12c0 .08-.03.15-.09.2-.05.04-.13.06-.2.05-.62-.12-1.34-.45-1.88-.85-1.57-1.2-2.44-3.52-2.44-6.54 0-.74.06-2.16.21-3.1.02-.12.13-.24.26-.24h9.81c.11 0 .21.08.25.19 0 .01.02.08.02.08.14.94.2 2.34.2 3.06 0 3.03-.87 5.35-2.44 6.54Z"/></svg>