<?xml version="1.0" encoding="UTF-8"?><svg id="e" xmlns="http://www.w3.org/2000/svg" viewBox="0 0 24 24"><path d="m21.34,7.22c-.67-.73-2.64.41-3.95,1.3-.21.14-.3.39-.25.63.16.84.24,1.79.24,2.85s-.08,1.98-.23,2.82c-.05.25.06.5.27.64,1.03.7,2.47,1.55,3.34,1.55.25,0,.45-.07.58-.22.88-.93.88-8.63,0-9.58Z" fill="#444" fill-rule="evenodd" stroke-width="0"/><path d="m8.99,4.99c-5.16,0-6.99,1.84-6.99,7.01s1.83,7,6.99,7,6.97-1.83,6.97-7-1.82-7.01-6.97-7.01Z" fill="#444" fill-rule="evenodd" stroke-width="0"/></svg>