<svg xmlns="http://www.w3.org/2000/svg" viewBox="0 0 24 24"><path fill="#444" d="M21.91 11.54c-.71-5.48-5.73-9.34-11.2-8.63-4.99.65-8.72 4.9-8.71 9.93 0 2.75 1.12 5.38 3.13 7.26.76.7 1.76 1.09 2.79 1.07h8.14c1.09 0 2.14-.43 2.92-1.19a9.97 9.97 0 0 0 2.93-8.44m-4.09 7.25c-.47.46-1.1.72-1.76.72H7.93c-.61.01-1.2-.21-1.65-.62a8.26 8.26 0 0 1-2.61-6.05c0-2.37 1.01-4.63 2.78-6.21a8.2 8.2 0 0 1 5.54-2.12c.97 0 1.94.16 2.87.48 2.42.84 4.32 2.85 5.08 5.29.98 3.13.07 6.37-2.12 8.5ZM8.5 16.41c.33.32.33.85.01 1.18s-.85.33-1.18.01a6.676 6.676 0 0 1-.1-9.43 6.66 6.66 0 0 1 5.71-1.93c.46.07.77.49.71.94s-.47.77-.92.71h-.02c-1.65-.24-3.36.31-4.44 1.58-1.87 2.21-1.57 5.17.23 6.94m10.09-4.52a6.63 6.63 0 0 1-1.94 5.71c-.33.32-.86.32-1.18-.01a.836.836 0 0 1 .01-1.18 4.98 4.98 0 0 0 1.45-4.28c-.07-.46.25-.88.71-.94.46-.07.88.25.94.71Zm-4.91.45s-.07.12-.05.19c.18.87-.34 1.73-1.2 1.98-.9.25-1.84-.28-2.09-1.18a1.7 1.7 0 0 1 1.98-2.12c.07.01.14 0 .19-.05l3.07-3.07c.32-.33.85-.34 1.18-.02s.34.85.02 1.18l-.02.02-3.07 3.07Z"/></svg>