<svg xmlns="http://www.w3.org/2000/svg" viewBox="0 0 24 24"><path fill="#444" d="M22.4 18.83h-.47V5.87c0-1.1-1.55-1.45-2.06-1.57-1.19-.24-2.42-.36-3.63-.34-1.22-.02-2.44.1-3.63.34-.51.12-2.06.47-2.06 1.57v.21c-.92-.13-1.85-.19-2.78-.19a.61.61 0 0 0-.59-.5c-.3 0-.56.23-.6.52-.5.02-1 .07-1.5.14v-.06c0-.33-.27-.6-.6-.6s-.6.27-.6.6v.28c-1.22.32-1.84.83-1.84 1.52v11.03h-.43c-.33 0-.6.27-.6.6s.27.6.6.6H22.4c.33 0 .6-.27.6-.6s-.27-.6-.6-.6Zm-18.52 0h-.64V7.84c.05-.05.23-.17.64-.3zm2.69 0H5.08v-.24h1.49zm0-1.44H5.08v-.4h1.49zm0-1.61H5.08v-.4h1.49zm0-1.61H5.08v-.4h1.49zm0-1.61H5.08v-.4h1.49zm0-1.61H5.08v-.4h1.49zm0-1.61H5.08v-.4h1.49zm0-1.61H5.08v-.46c.49-.07.99-.13 1.49-.15zm5.45 11.1H7.97a.2.2 0 0 1-.2-.2V7.29c0-.11.09-.2.2-.2 1.03 0 2.05.1 3.08.3h.05c.81.2 1.06.4 1.12.46v10.79a.2.2 0 0 1-.2.2Zm8.52 0h-6.95a.18.18 0 0 1-.18-.18V7.8q0-.99-1.68-1.47v-.42c.2-.23 1.7-.74 4.49-.74 2.59 0 4.07.44 4.43.69.05.03.06.09.06.14v12.66c0 .1-.08.18-.18.18Z"/><path fill="#444" d="m16.62 10.36-.02-.02a.615.615 0 0 0-.73 0c-.44.33-1.45 1.23-1.44 2.34a1.81 1.81 0 1 0 3.62 0c0-1.08-.98-1.98-1.43-2.33Zm-.38 3.28c-.53 0-.95-.43-.95-.96 0-.63.61-1.23.95-1.53.34.29.96.9.96 1.53 0 .53-.43.95-.95.95Z"/></svg>