<svg xmlns="http://www.w3.org/2000/svg" viewBox="0 0 24 24"><path fill="#444" d="M11.55 9.24c-3.74 0-7.04 3.01-7.35 6.72-.12 1.45.34 2.82 1.3 3.87.97 1.06 2.32 1.64 3.81 1.64h4.32c1.66 0 3.12-.65 4.11-1.82.98-1.16 1.37-2.68 1.1-4.28C18.27 12 15 9.25 11.56 9.25Zm5.04 9.43c-.7.83-1.76 1.29-2.96 1.29H9.31c-1.06 0-2.02-.41-2.71-1.15-.67-.73-.99-1.7-.91-2.73.25-2.95 2.88-5.34 5.86-5.34 2.74 0 5.35 2.19 5.8 4.87.2 1.16-.08 2.25-.77 3.06ZM10.41 8.51c1.66 0 3-1.34 3-2.98s-1.35-2.98-3-2.98-3 1.34-3 2.98 1.35 2.98 3 2.98m0-4.47c.83 0 1.5.67 1.5 1.48S11.24 7 10.41 7s-1.5-.67-1.5-1.48.67-1.48 1.5-1.48m6.15 5.54c1.41 0 2.55-1.14 2.55-2.54S17.97 4.5 16.56 4.5s-2.55 1.14-2.55 2.54 1.15 2.54 2.55 2.54m0-3.57c.58 0 1.05.47 1.05 1.04s-.47 1.04-1.05 1.04-1.05-.46-1.05-1.04.47-1.04 1.05-1.04m3.34 2.96c-1.16 0-2.1.94-2.1 2.09s.94 2.09 2.1 2.09 2.1-.94 2.1-2.09-.94-2.09-2.1-2.09m0 2.68c-.33 0-.6-.26-.6-.59s.27-.59.6-.59.6.26.6.59-.27.59-.6.59"/><path fill="#444" d="M7.1 8.83c0-1.4-1.15-2.54-2.55-2.54S2 7.43 2 8.83s1.14 2.54 2.55 2.54S7.1 10.23 7.1 8.83m-3.6 0c0-.57.47-1.04 1.05-1.04s1.05.46 1.05 1.04-.47 1.04-1.05 1.04S3.5 9.4 3.5 8.83"/></svg>