<svg xmlns="http://www.w3.org/2000/svg" viewBox="0 0 24 24"><g fill="#444"><path d="m12.13 12.67-1.43 4.17-1.11 3.18.23.06h.01c.7.19 1.43.28 2.15.28.36 0 .73-.02 1.08-.08.48-.06.95-.16 1.41-.31.11-.03.23-.07.34-.11-.12-.26-.38-.84-.4-.87l-2.3-6.32ZM4.37 8.71c-.44.98-.73 2.19-.73 3.29 0 .27.01.55.04.82.3 3.1 2.3 5.7 5.05 6.87.11.05.23.1.35.14L5.03 8.72c-.35-.01-.41 0-.66 0Z"/><path d="M19.58 8.49c-.19-.4-.41-.79-.66-1.16l-.22-.31A8.3 8.3 0 0 0 15 4.21c-.96-.38-1.98-.57-3.01-.57a8.34 8.34 0 0 0-6.51 3.12c-.28.35-.54.72-.76 1.11h1.47c.79 0 2-.1 2-.1.41-.03.45.57.05.62 0 0-.41.05-.86.07l2.74 8.14 1.65-4.93-1.17-3.2c-.41-.02-.79-.07-.79-.07-.41-.02-.36-.64.04-.62 0 0 1.24.1 1.98.1.79 0 2-.1 2-.1.4-.03.46.57.05.62 0 0-.4.05-.86.07l2.71 8.08.75-2.51c.38-.97.57-1.78.57-2.42 0-.93-.34-1.57-.62-2.07-.38-.62-.74-1.14-.74-1.76 0-.69.52-1.34 1.26-1.34h.1c1.14-.03 1.51 1.1 1.56 1.87v.03c.02.31 0 .54 0 .82 0 .76-.14 1.61-.57 2.69l-1.7 4.91-.97 2.86c.08-.03.15-.07.23-.11 2.47-1.19 4.27-3.57 4.64-6.39a8.4 8.4 0 0 0-.69-4.65Z"/><path d="M12 2.95c2.09 0 4.11.72 5.73 2.05a9 9 0 0 1 3.14 5.21c.41 2.05.11 4.17-.86 6.02a9.07 9.07 0 0 1-4.48 4.12c-2.21.94-4.71.95-6.93.05-2.23-.9-4-2.65-4.94-4.87a9.05 9.05 0 0 1-.05-6.93 9.04 9.04 0 0 1 8.4-5.65Zm0-.7c-5.38 0-9.75 4.37-9.75 9.75s4.37 9.75 9.75 9.75 9.75-4.37 9.75-9.75S17.38 2.25 12 2.25"/></g></svg>