<svg xmlns="http://www.w3.org/2000/svg" viewBox="0 0 24 24"><path d="M5.09 21.5c-.41 0-.75-.34-.75-.75V4.37c0-.35.15-.69.44-.89 2.63-1.78 6-.74 7.58.14 2.73 1.22 5.1.4 5.76.11a1.1 1.1 0 0 1 1.04.09c.31.2.49.54.49.91v9.94c.01.27-.12.54-.37.68-1.28.74-4.32 1.6-7.59.13-.2-.11-3.36-1.84-5.85-.37v5.64c0 .41-.34.75-.75.75m3.05-8.47c1.68 0 3.27.58 4.22 1.11 2.21.99 4.32.66 5.53.21.16-.06.25-.21.25-.38V5.86c0-.27-.25-.46-.51-.4a9.02 9.02 0 0 1-5.96-.51C10.43 4.26 8 3.47 6.04 4.46c-.14.07-.22.22-.22.37v8.04c0 .28.27.46.54.39.58-.17 1.18-.24 1.76-.24Z"/></svg>