<svg xmlns="http://www.w3.org/2000/svg" viewBox="0 0 24 24"><path fill="#444" fill-rule="evenodd" d="M18.87 5.16A9.67 9.67 0 0 0 12 2.33c-5.35 0-9.71 4.34-9.71 9.66 0 1.64.42 3.25 1.21 4.68.05.1.07.21.04.31l-1.15 4.17c-.08.3.19.57.49.49l4.32-1.13c.1-.03.2-.01.3.03 1.39.72 2.93 1.1 4.5 1.1 5.35 0 9.71-4.33 9.71-9.66 0-1.27-.25-2.53-.73-3.7a9.5 9.5 0 0 0-2.11-3.13ZM12 20.03a8.1 8.1 0 0 1-4.12-1.13l-.29-.17-2.62.69c-.19.05-.36-.13-.31-.32l.7-2.54-.09-.15c-.57-.91-1.01-1.91-1.2-2.97-.9-5.07 3.01-9.49 7.94-9.49 2.14 0 4.18.84 5.7 2.35a8.1 8.1 0 0 1 2.37 5.69c0 4.43-3.62 8.03-8.07 8.03Zm4.43-6.01c-.24-.12-1.44-.71-1.66-.79s-.38-.12-.55.12c-.16.24-.63.78-.77.95-.14.16-.28.18-.53.06-.24-.12-1.02-.38-1.95-1.2-.72-.64-1.21-1.43-1.35-1.67s-.02-.37.11-.49c.11-.11.24-.28.36-.42s.16-.24.24-.4.04-.3-.02-.42-.55-1.31-.75-1.79c-.2-.47-.4-.41-.55-.41h-.47a.85.85 0 0 0-.64.3c-.22.24-.85.83-.85 2.01s.87 2.34.99 2.5 1.71 2.6 4.14 3.65q.675.285 1.38.51c.58.18 1.11.16 1.53.1.47-.07 1.44-.58 1.64-1.15.2-.56.2-1.05.14-1.15s-.22-.16-.47-.28Z"/></svg>