<?xml version="1.0" encoding="UTF-8"?><svg id="f" xmlns="http://www.w3.org/2000/svg" viewBox="0 0 24 24"><path d="m8.42,17.25c-1.24,0-2.25,1.01-2.25,2.25s1.01,2.25,2.25,2.25,2.25-1.01,2.25-2.25-1.01-2.25-2.25-2.25Zm0,3c-.41,0-.75-.34-.75-.75s.34-.75.75-.75.75.34.75.75-.34.75-.75.75Z" fill="#444" stroke-width="0"/><path d="m17.42,17.25c-1.24,0-2.25,1.01-2.25,2.25s1.01,2.25,2.25,2.25,2.25-1.01,2.25-2.25-1.01-2.25-2.25-2.25Zm0,3c-.41,0-.75-.34-.75-.75s.34-.75.75-.75.75.34.75.75-.34.75-.75.75Z" fill="#444" stroke-width="0"/><path d="m19.17,13.38c.56-.37.81-.94,1.22-1.9l.43-1.01c.88-2.06,1.37-3.2.7-4.21-.67-1.01-1.9-1.01-4.15-1.01H6.73c-.06,0-.11-.05-.12-.11-.06-.52-.19-.93-.46-1.31-.52-.72-1.3-.98-2.73-1.46l-.26-.09c-.39-.13-.82.08-.95.48-.13.39.08.82.48.95l.26.09c1.21.4,1.76.6,1.99.91.23.31.24.89.24,2.17v2.62c0,2.94,0,4.55,1.1,5.65,1.1,1.1,2.71,1.1,5.65,1.1h8c.41,0,.75-.34.75-.75s-.34-.75-.75-.75h-8c-2.62,0-3.93,0-4.59-.66-.1-.1-.18-.21-.25-.34h9.86c1.04,0,1.67,0,2.23-.37Zm-12.5-3.88h0v-2.69s.03-.06.06-.06h10.64c1.55,0,2.68,0,2.9.34.22.34-.22,1.37-.83,2.8l-.43,1.01c-.3.69-.48,1.11-.66,1.23-.19.12-.65.12-1.4.12H6.81s-.09-.03-.09-.08c-.05-.69-.05-1.56-.05-2.67Z" fill="#444" stroke-width="0"/></svg>