<?xml version="1.0" encoding="UTF-8"?><svg id="c" xmlns="http://www.w3.org/2000/svg" viewBox="0 0 24 24"><path d="m12.93,2c1.4,0,2.71.75,3.55,1.87.37.65,1.12,1.03,1.78,1.21h.09c2.15.47,3.64,2.34,3.64,4.49v3.55c0,1.68,0,2.9-.09,3.93-.09,1.03-.28,1.87-.84,2.62-.37.56-.84,1.03-1.4,1.4-.75.47-1.59.75-2.62.84-1.03.09-2.34.09-3.93.09h-2.24c-1.68,0-2.9,0-3.93-.09s-1.87-.37-2.62-.84c-.56-.37-1.03-.84-1.4-1.4-.47-.75-.75-1.59-.84-2.62s-.09-2.34-.09-3.93v-3.55c0-2.15,1.5-4.02,3.64-4.49h.09c.75-.19,1.4-.56,1.78-1.21.75-1.21,2.15-1.87,3.55-1.87h1.87Zm-.93,7.29c-2.06,0-3.74,1.68-3.74,3.74s1.68,3.74,3.74,3.74,3.74-1.68,3.74-3.74-1.68-3.74-3.74-3.74Z" fill="#444" stroke-width="0"/></svg>