<svg xmlns="http://www.w3.org/2000/svg" viewBox="0 0 24 24"><g fill="#5e656d"><path d="M20.95 14.43V9.38c0-1.55-1.06-3.35-2.41-4.1l-4.91-2.74c-1.27-.72-3.27-.72-4.54 0L4.18 5.28c-1.35.75-2.41 2.56-2.41 4.11v5.24c0 1.55 1.06 3.35 2.41 4.1l4.91 2.74c.64.36 1.46.54 2.27.54s1.63-.18 2.27-.54l1.18-.65c.79.73 1.84 1.19 2.99 1.19 1.07 0 2.11-.39 2.92-1.11.96-.85 1.5-2.06 1.5-3.34s-.49-2.32-1.28-3.12Zm-10.34 6a3 3 0 0 1-.79-.27l-4.91-2.74c-.87-.49-1.64-1.79-1.64-2.79V9.39c0-.21.04-.43.1-.66l7.24 4.21v7.48Zm.75-8.78L4.04 7.39c.26-.34.55-.62.87-.79l4.91-2.74c.41-.23.97-.35 1.53-.35s1.13.12 1.54.35L17.8 6.6c.31.17.61.46.87.79zm2.09 6.71c0 .05.02.1.03.15.05.25.13.48.22.71.02.06.05.11.08.17.03.07.06.15.1.22l-.98.54c-.22.13-.49.21-.79.27v-7.48l7.24-4.22c.06.23.1.45.1.66v4.04c-.21-.09-.44-.15-.67-.2-.08-.02-.16-.03-.24-.04a7 7 0 0 0-.47-.05c-.09 0-.18-.03-.27-.03-.4 0-.79.07-1.17.18h-.03c-.16.05-.32.1-.47.16-.07.03-.14.06-.22.1-.11.05-.22.1-.33.17-.19.11-.37.23-.55.37a4.4 4.4 0 0 0-1.58 4.27Zm6.28 1.41c-.54.48-1.23.74-1.93.74-.94 0-1.77-.46-2.31-1.16-.06-.07-.12-.15-.18-.25l-.03-.06c-.11-.19-.19-.39-.26-.59a2.8 2.8 0 0 1-.15-.88c0-.9.4-1.74 1.1-2.3.81-.65 1.89-.79 2.82-.46.02 0 .04 0 .05.02.11.04.21.1.32.15.06.03.12.06.17.09a2.95 2.95 0 0 1 1.4 2.5c0 .85-.36 1.65-1 2.21Z"/><path d="M18.03 15.64c-.41 0-.75.34-.75.75v.96l-.79.48a.748.748 0 0 0 .39 1.39c.13 0 .27-.03.39-.11l1.15-.69c.22-.14.36-.38.36-.64v-1.39c0-.41-.34-.75-.75-.75"/></g></svg>