<?xml version="1.0" encoding="UTF-8"?><svg id="b" xmlns="http://www.w3.org/2000/svg" viewBox="0 0 19.5 19.5"><g id="c"><g id="d"><path d="m.75,5.5c.41,0,.75-.34.75-.75v-.8c0-1.35,1.1-2.45,2.45-2.45h.8c.41,0,.75-.34.75-.75s-.34-.75-.75-.75h-.8C1.77,0,0,1.77,0,3.95v.8c0,.41.34.75.75.75Z" fill="#444" stroke-width="0"/><path d="m15.55,0h-.8c-.41,0-.75.34-.75.75s.34.75.75.75h.8c1.35,0,2.45,1.1,2.45,2.45v.8c0,.41.34.75.75.75s.75-.34.75-.75v-.8c0-2.18-1.77-3.95-3.95-3.95Z" fill="#444" stroke-width="0"/><path d="m18.75,14c-.41,0-.75.34-.75.75v.8c0,1.35-1.1,2.45-2.45,2.45h-.8c-.41,0-.75.34-.75.75s.34.75.75.75h.8c2.18,0,3.95-1.77,3.95-3.95v-.8c0-.41-.34-.75-.75-.75Z" fill="#444" stroke-width="0"/><path d="m4.75,18h-.8c-1.35,0-2.45-1.1-2.45-2.45v-.8c0-.41-.34-.75-.75-.75s-.75.34-.75.75v.8c0,2.18,1.77,3.95,3.95,3.95h.8c.41,0,.75-.34.75-.75s-.34-.75-.75-.75Z" fill="#444" stroke-width="0"/><path d="m14.35,12.2c.25-.33.18-.8-.15-1.05-.33-.25-.8-.18-1.05.14-.01.02-1.32,1.7-3.4,1.7s-3.38-1.67-3.4-1.7c-.25-.33-.72-.4-1.05-.15-.33.25-.4.72-.15,1.05.07.09,1.76,2.3,4.6,2.3s4.53-2.21,4.6-2.3Z" fill="#444" stroke-width="0"/><path d="m6.76,7.5c.41,0,.75-.34.75-.75s-.34-.75-.75-.75h0c-.41,0-.75.34-.75.75s.34.75.75.75Z" fill="#444" stroke-width="0"/><path d="m12.76,7.5c.41,0,.75-.34.75-.75s-.34-.75-.75-.75h0c-.41,0-.75.34-.75.75s.34.75.75.75Z" fill="#444" stroke-width="0"/></g></g></svg>