<svg xmlns="http://www.w3.org/2000/svg" viewBox="0 0 24 24"><g fill="#444"><path d="m21.12 16.85-2.65-2.65a.78.78 0 0 0-.53-.22h-.01c-.09 0-.19.02-.27.06-.07.03-.13.08-.19.12-.02.01-.04.02-.05.03l-2.75 2.72c-.29.29-.3.77 0 1.06.15.15.34.22.53.22s.38-.07.53-.22l1.48-1.46v3.45c0 .41.34.75.75.75s.75-.34.75-.75v-3.43l1.37 1.37c.29.29.77.29 1.06 0s.29-.77 0-1.06Zm-8.43-9.58c-1.19-.23-2.41.14-3.25.99-.84.84-1.21 2.04-.98 3.22.27 1.42 1.4 2.55 2.82 2.82 1.18.23 2.4-.13 3.26-.98.84-.84 1.21-2.04.98-3.22a3.565 3.565 0 0 0-2.82-2.82Zm.78 4.98c-.5.5-1.2.71-1.91.57-.81-.15-1.48-.82-1.63-1.63-.13-.7.07-1.39.57-1.88.4-.4.93-.61 1.48-.61 1-.01 1.87.69 2.06 1.67.13.7-.07 1.39-.57 1.88m4.96-1.47c0-.41-.34-.75-.75-.75s-.75.34-.75.76.34.75.76.75.75-.34.75-.76zM6.3 10.03c-.41 0-.75.34-.75.76s.34.75.76.75.75-.34.75-.76-.34-.75-.75-.75z"/><path d="M5.72 16.34c-.09-.89-.85-1.6-1.77-1.61-.35-.88-.45-2.14-.45-3.95s.1-2.95.41-3.83c.93-.05 1.67-.79 1.72-1.72 1.27-.45 3.26-.46 6.37-.46 2.95 0 4.88 0 6.16.39 0 .99.82 1.79 1.81 1.79h.12c.31.88.41 2.09.41 3.82 0 .44 0 .84-.03 1.21-.02.43.32.78.75.78.4 0 .73-.32.75-.72s.03-.81.03-1.25c0-7.5-2.72-7.5-10-7.5h-.01c-7.28-.01-10-.01-10 7.49 0 3.92.76 5.78 2.51 6.68.09.08.2.13.33.16 1.6.66 3.37.78 6.61.78h.77c.42 0 .75-.34.75-.75a.76.76 0 0 0-.75-.77h-.78c-2.96 0-4.44-.11-5.72-.54Z"/></g></svg>