<?xml version="1.0" encoding="UTF-8"?>
<svg id="b" xmlns="http://www.w3.org/2000/svg" viewBox="0 0 24 24">
  <path d="m12.75,3v2.79c-.25-.02-.5-.04-.75-.04s-.5.02-.75.04v-2.79c0-.41.34-.75.75-.75s.75.34.75.75Z" fill="#444"
    stroke-width="0" />
  <path
    d="m8.14,7.08c-.39.31-.75.67-1.06,1.06l-2.2-2.2c-.29-.29-.29-.76,0-1.06.15-.14.34-.22.53-.22.2,0,.39.08.53.22l2.2,2.2Z"
    fill="#444" stroke-width="0" />
  <path d="m5.75,12c0,.25.01.5.04.75h-2.79c-.41,0-.75-.34-.75-.75s.34-.75.75-.75h2.79c-.03.25-.04.5-.04.75Z" fill="#444"
    stroke-width="0" />
  <path d="m8.28,17.02l-2.34,2.34c-.28.28-.77.28-1.06,0-.29-.29-.29-.77,0-1.06l2.31-2.31c.32.39.69.73,1.09,1.03Z"
    fill="#444" stroke-width="0" />
  <path d="m12.75,18.21v2.79c0,.41-.34.75-.75.75s-.75-.34-.75-.75v-2.79c.5.05,1,.05,1.5,0Z" fill="#444"
    stroke-width="0" />
  <path
    d="m19.58,18.83c0,.2-.08.39-.22.53-.29.29-.77.29-1.06,0l-2.44-2.44c.39-.31.75-.67,1.06-1.06l2.44,2.44c.14.14.22.33.22.53Z"
    fill="#444" stroke-width="0" />
  <path d="m21.75,12c0,.41-.34.75-.75.75h-2.79c.03-.25.04-.5.04-.75s-.01-.5-.04-.75h2.79c.41,0,.75.34.75.75Z"
    fill="#444" stroke-width="0" />
  <path
    d="m19.58,5.41c0,.2-.08.39-.22.53l-2.34,2.34c-.3-.4-.64-.77-1.03-1.09l2.31-2.31c.29-.29.77-.29,1.06,0,.14.15.22.33.22.53Z"
    fill="#444" stroke-width="0" />
  <path
    d="m12,8.25c-2.07,0-3.75,1.68-3.75,3.75s1.68,3.75,3.75,3.75,3.75-1.68,3.75-3.75-1.68-3.75-3.75-3.75Zm0,6c-1.24,0-2.25-1.01-2.25-2.25s1.01-2.25,2.25-2.25,2.25,1.01,2.25,2.25-1.01,2.25-2.25,2.25Z"
    fill="#444" fill-rule="evenodd" stroke-width="0" />
</svg>