<?xml version="1.0" encoding="UTF-8"?><svg id="e" xmlns="http://www.w3.org/2000/svg" viewBox="0 0 24 24"><path d="m4.94,12.14h-1.09c-.32,0-.59.26-.59.58s.26.58.59.58h1.09c.32,0,.59-.26.59-.58s-.26-.58-.59-.58Z" fill="#444" stroke-width="0"/><path d="m4.94,9.82h-1.57c-.32,0-.59.26-.59.58s.26.58.59.58h1.57c.32,0,.59-.26.59-.58s-.26-.58-.59-.58Z" fill="#444" stroke-width="0"/><path d="m21.99,13.77l-.41-2.26h0s-.33-1.8-.33-1.8c0-.59-.23-1.16-.65-1.59-.45-.46-1.06-.71-1.7-.71h0s-2.21,0-2.21,0v-.04h0c0-.37-.15-.73-.41-.99-.27-.27-.63-.42-1.01-.42h-7.52c-.38,0-.74.15-1.01.42-.27.26-.41.62-.41.99h0v7.48h0c0,.37.15.73.41.99.25.25.59.38.94.4.27,1.02,1.19,1.78,2.3,1.8h.03c1.11,0,2.06-.76,2.33-1.78h3.3c.27,1.01,1.19,1.77,2.3,1.78h.03c1.16,0,2.14-.82,2.37-1.91.98-.31,1.68-1.21,1.66-2.28,0-.03,0-.06,0-.09Zm-11.99,2.77c-.5,0-.91-.41-.91-.9,0-.49.42-.89.91-.89.25,0,.49.1.66.28.17.17.27.4.26.64-.01.49-.44.84-.93.87Zm5.52-1.44h-3.16c-.1-.42-.31-.82-.62-1.13-.45-.46-1.06-.71-1.72-.72-1.13,0-2.07.78-2.34,1.82-.03-.01-.07-.01-.1-.04-.05-.05-.07-.11-.07-.18h0v-7.48h0c0-.07.03-.13.07-.18.05-.05.11-.07.18-.07h7.51c.07,0,.13.03.18.07.05.05.07.11.07.18h0v4.24s0,0,0,.02v3.48Zm1.17-6.53h2.22c.32,0,.63.13.85.35.22.23.34.54.33.85,0,.04,0,.09,0,.13l.2,1.13h-3.61v-2.46Zm1.28,7.98h-.01c-.5,0-.91-.41-.91-.9s.42-.89.91-.89c.25,0,.49.1.66.28.17.17.27.4.26.64-.01.48-.42.87-.92.87Zm2.28-1.65c-.12-.34-.3-.66-.56-.92-.46-.46-1.06-.71-1.72-.72-.47,0-.9.14-1.28.37v-1.43h3.81l.31,1.71c0,.42-.23.78-.56.99Z" fill="#444" stroke-width="0"/><path d="m5.04,7.5h-2.45c-.32,0-.59.26-.59.58s.26.58.59.58h2.45c.32,0,.59-.26.59-.58s-.26-.58-.59-.58Z" fill="#444" stroke-width="0"/></svg>