<svg xmlns="http://www.w3.org/2000/svg" viewBox="0 0 17.5 18.5"><path fill="#444" d="M17.5 3.3c0-1.82-1.53-3.3-3.42-3.3s-3.42 1.48-3.42 3.3c0 1.57 1.14 2.88 2.67 3.21v.19c0 .99-.86 1.8-1.92 1.8H6.08c-1.06 0-1.92-.81-1.92-1.8v-.19c1.52-.33 2.67-1.64 2.67-3.21C6.83 1.48 5.3 0 3.41 0S0 1.48 0 3.3c0 1.57 1.14 2.88 2.67 3.21v.19c0 1.82 1.53 3.3 3.42 3.3h1.78c.08 0 .14.06.14.14v1.75c0 .06-.04.11-.1.13-1.47.37-2.57 1.66-2.57 3.19 0 1.82 1.53 3.3 3.42 3.3s3.42-1.48 3.42-3.3c0-1.54-1.09-2.82-2.57-3.19a.12.12 0 0 1-.1-.12v-1.65c0-.18.06-.24.14-.24h1.78c1.88 0 3.42-1.48 3.42-3.3v-.19c1.52-.33 2.67-1.64 2.67-3.21Zm-16 0c0-.99.86-1.8 1.92-1.8s1.92.81 1.92 1.8-.86 1.8-1.92 1.8S1.5 4.29 1.5 3.3m9.17 11.9c0 .99-.86 1.8-1.92 1.8s-1.92-.81-1.92-1.8.86-1.8 1.92-1.8 1.92.81 1.92 1.8m3.42-10.1c-1.06 0-1.92-.81-1.92-1.8s.86-1.8 1.92-1.8 1.92.81 1.92 1.8-.86 1.8-1.92 1.8"/></svg>