<?xml version="1.0" encoding="UTF-8"?><svg id="b" xmlns="http://www.w3.org/2000/svg" viewBox="0 0 17.21 20"><g id="c"><path id="d" d="m7.77.89l.08.1c.37.49,1.15.49,1.52,0l.08-.1c.89-1.18,2.71-1.18,3.6,0l.48.64c.06.08.15.12.27.12.12,0,.21-.06.25-.14.44-.73,1.24-.93,1.89-.77.65.16,1.27.72,1.27,1.59v15.35c0,.87-.62,1.43-1.27,1.59-.65.16-1.45-.04-1.89-.77-.05-.08-.13-.13-.25-.14-.12,0-.21.04-.27.12l-.48.64c-.89,1.18-2.71,1.18-3.6,0l-.08-.1c-.37-.49-1.15-.49-1.52,0l-.08.1c-.89,1.18-2.71,1.18-3.6,0l-.48-.64c-.06-.08-.15-.12-.27-.12-.12,0-.21.06-.25.14-.44.73-1.24.93-1.89.77-.65-.16-1.27-.72-1.27-1.59V2.32C0,1.45.62.89,1.27.73c.65-.16,1.45.04,1.89.77.05.08.13.13.25.14.12,0,.21-.04.27-.12l.48-.64c.89-1.18,2.71-1.18,3.6,0Zm-1.12.84c-.33-.44-1.04-.44-1.37,0l-.48.64c-.72.96-2.23.89-2.84-.15-.07-.11-.19-.17-.35-.13-.08.02-.13.06-.17.09-.03.03-.05.07-.05.14v15.35c0,.07.02.11.05.14.03.04.09.07.17.09.16.04.29-.02.35-.13.61-1.04,2.12-1.1,2.84-.15l.48.64c.33.44,1.04.44,1.37,0l.08-.1c.92-1.23,2.83-1.23,3.75,0l.08.1c.33.44,1.04.44,1.37,0l.48-.64c.72-.96,2.23-.89,2.84.15.07.11.19.17.35.13.08-.02.13-.06.17-.09.03-.03.05-.07.05-.14V2.32c0-.07-.02-.11-.05-.14-.03-.04-.09-.07-.17-.09-.16-.04-.29.02-.35.13-.61,1.04-2.12,1.1-2.84.15l-.48-.64c-.33-.44-1.04-.44-1.37,0l-.08.1c-.92,1.23-2.83,1.23-3.75,0l-.08-.1Zm-1.33,11.56c-.27-.27-.27-.71,0-.99l5.58-5.58c.27-.27.71-.27.99,0,.27.27.27.71,0,.99l-5.58,5.58c-.27.27-.71.27-.99,0Zm6.07-1.42h0c.51,0,.93.42.93.93s-.42.93-.93.93h0c-.51,0-.93-.42-.93-.93s.42-.93.93-.93Zm-5.57-5.58h0c.51,0,.93.42.93.93s-.42.93-.93.93h0c-.51,0-.93-.42-.93-.93s.42-.93.93-.93Z" fill="#444" stroke-width="0"/></g></svg>