<svg xmlns="http://www.w3.org/2000/svg" width="24" height="24" viewBox="0 0 24 24"><g fill="#707575"><path d="m14.03 10.58-1.46-1.46-.57-.58-.57.58-1.46 1.46c-.59.6-.87 1.39-.83 2.18v.03c.04.68.31 1.36.83 1.87a2.87 2.87 0 0 0 4.06 0c.53-.52.8-1.21.84-1.9v-.02c.03-.78-.26-1.57-.84-2.16m-3 1.06.97-.98.97.98c.54.54.54 1.42 0 1.96-.26.26-.6.4-.97.4s-.71-.14-.97-.4c-.54-.54-.54-1.42 0-1.96m-3.57 7.19c-2.2-1.46-3.65-3.97-3.65-6.81s1.48-5.41 3.73-6.87l.04-.03c.08-.05.14-.12.18-.2.1-.14.15-.31.15-.49 0-.48-.38-.86-.85-.86h-.04c-.1.01-.19.02-.27.06l-.06.03c-.08.05-.16.1-.24.16 0 0-.01 0-.01.01C3.82 5.61 2.1 8.62 2.1 12.02s1.75 6.46 4.4 8.23q.21.15.48.15c.14 0 .28-.04.4-.1 0 0 .01 0 .01-.01.26-.14.44-.42.44-.75 0-.03 0-.06-.01-.09a.83.83 0 0 0-.36-.62"/><path d="M8.96 16.02a5 5 0 0 1-1.99-4c0-1.64 1.08-3.03 2.17-4.18l.02-.02c.02-.03.05-.06.06-.09v-.02c.09-.13.16-.27.16-.44 0-.43-.34-.77-.77-.77-.14 0-.27.05-.38.12h-.02s-.03.02-.05.03C6.48 7.85 5.4 9.81 5.4 12.02s.99 4 2.54 5.19c.04.04.17.15.17.15.13.07.28.12.44.12.2 0 .39-.08.53-.2l.01-.01c.12-.12.21-.28.24-.46.01-.04.01-.08.01-.12 0-.22-.09-.41-.22-.55a.6.6 0 0 0-.16-.12m8.66-12.14s-.1-.09-.16-.12a.85.85 0 0 0-.45-.13c-.12 0-.23.02-.33.07-.01 0-.02 0-.02.01a.86.86 0 0 0-.51.78c0 .06 0 .12.02.17.04.23.18.42.36.54 2.21 1.46 3.66 3.98 3.66 6.82s-1.49 5.42-3.75 6.88l-.13.1c-.16.16-.26.36-.26.6 0 .42.34.78.77.83.04.01.08.01.12.01.18 0 .37-.07.5-.15.01-.01 0 0 0 0 2.69-1.77 4.46-4.82 4.46-8.27s-1.69-6.36-4.28-8.14"/><path d="M15.88 6.66s0 .01 0 0a.9.9 0 0 0-.46-.13c-.16 0-.3.04-.43.12-.22.14-.37.38-.37.66 0 .03 0 .07.01.1 0 .02 0 .04.01.06.01.05.02.1.04.15.04.09.29.33.32.37 1.23.91 2.03 2.36 2.03 4.02s-.85 3.2-2.14 4.12c-.14.14-.23.34-.23.55 0 .03.01.1.01.1 0 .02 0 .03.01.05.03.17.12.33.24.44.01 0 0 0 0 0 .14.12.33.2.53.2.17 0 .32-.05.44-.13.05-.03.1-.08.14-.12 1.57-1.19 2.57-3.08 2.57-5.21s-1.06-4.14-2.72-5.35"/></g></svg>