<?xml version="1.0" encoding="UTF-8"?><svg id="b" xmlns="http://www.w3.org/2000/svg" viewBox="0 0 16 11.21"><g id="c"><path id="d" d="m12.8,4c0-.44-.36-.8-.8-.8H2.73l1.84-1.83c.31-.31.31-.82,0-1.14S3.74-.08,3.43.24L.23,3.44c-.23.23-.29.57-.17.87.12.3.41.49.74.5h11.2c.44,0,.8-.36.8-.8m3.14,2.9c-.12-.3-.41-.49-.74-.5H4c-.44,0-.8.36-.8.8s.36.8.8.8h9.27l-1.84,1.83c-.31.31-.32.82,0,1.13,0,0,0,0,0,0,.31.31.82.32,1.13,0,0,0,0,0,0,0l3.2-3.2c.23-.23.29-.57.17-.87" fill="#444" stroke-width="0"/></g></svg>