<?xml version="1.0" encoding="UTF-8"?><svg id="d" xmlns="http://www.w3.org/2000/svg" viewBox="0 0 24 24"><path d="m19.46,6.41l-2.82-2.84c-1.01-1.01-2.35-1.57-3.78-1.57h-4.53c-3.15,0-5.34,2.21-5.34,5.38v9.25c0,3.16,2.2,5.38,5.34,5.38h7.35c3.15,0,5.34-2.21,5.34-5.38v-6.41c0-1.44-.55-2.79-1.56-3.8Zm.06,10.21c0,2.35-1.51,3.88-3.84,3.88h-7.35c-2.33,0-3.84-1.52-3.84-3.88V7.38c0-2.35,1.51-3.88,3.84-3.88h4.53c1.03,0,2,.4,2.72,1.13l2.82,2.84c.72.73,1.12,1.7,1.12,2.75v6.41Z" fill="#444" stroke-width="0"/><path d="m10.23,13.31c-.29-.29-.77-.29-1.06,0l-1.84,1.85c-.29.29-.29.77,0,1.06l1.84,1.85c.15.15.34.22.53.22s.38-.07.53-.22c.29-.29.3-.77,0-1.06l-1.31-1.32,1.31-1.32c.29-.29.29-.77,0-1.06Z" fill="#444" stroke-width="0"/><path d="m14.83,13.31c-.29-.29-.77-.29-1.06,0-.29.29-.3.77,0,1.06l1.31,1.32-1.31,1.32c-.29.29-.29.77,0,1.06.15.15.34.22.53.22s.39-.07.53-.22l1.84-1.85c.29-.29.29-.76,0-1.06l-1.84-1.85Z" fill="#444" stroke-width="0"/></svg>