<svg xmlns="http://www.w3.org/2000/svg" viewBox="0 0 24 24"><path fill="#444" d="M13.25 22h-2.5c-3.36 0-5.21 0-6.51-1.35-1.27-1.31-1.45-3.25-1.82-7.13l-.21-2.27c-.2-2.1-.28-2.96.22-3.57.29-.36.7-.57 1.14-.61.81-.07 1.41.61 2.71 2.1.32.36.64.73.76.79.11-.1.34-.57.56-1.03l2.06-4.24c.85-1.74 1.31-2.7 2.34-2.7s1.5.96 2.34 2.7l2.06 4.24c.22.46.45.93.56 1.02.12-.05.45-.42.76-.77 1.31-1.5 1.92-2.18 2.72-2.11.44.04.84.25 1.13.61.5.6.42 1.47.22 3.56l-.21 2.26-.75-.07.75.08c-.36 3.87-.55 5.82-1.82 7.13-1.31 1.35-3.16 1.35-6.51 1.35ZM3.65 8.6s-.04.03-.06.05c-.1.22 0 1.31.11 2.47l.21 2.26c.33 3.54.5 5.3 1.4 6.23.83.86 2.19.89 5.44.89h2.5c3.25 0 4.61-.03 5.44-.89.9-.93 1.07-2.7 1.4-6.22l.75.06-.75-.07.21-2.25c.11-1.16.21-2.26.1-2.5 0 0-.02-.02-.04-.03-.26.16-.87.85-1.5 1.58-.67.76-1.03 1.18-1.62 1.28-.34.05-.67 0-.98-.16-.52-.26-.76-.77-1.21-1.7l-2.06-4.24c-.38-.77-.76-1.57-.99-1.82-.23.24-.62 1.04-.99 1.82L8.95 9.6c-.45.92-.7 1.43-1.21 1.7-.3.15-.64.21-.97.16-.59-.1-.95-.51-1.61-1.27-.64-.73-1.24-1.42-1.51-1.58Zm16.76-.03"/><path fill="#444" d="M14.76 18.3H9.24c-.41 0-.75-.34-.75-.75s.34-.75.75-.75h5.52c.41 0 .75.34.75.75s-.34.75-.75.75"/></svg>