<?xml version="1.0" encoding="UTF-8"?><svg id="a" xmlns="http://www.w3.org/2000/svg" viewBox="0 0 24 24"><g id="b"><path d="m20.15,5.36s-.04-.04-.07-.05c-1.53-1.18-4.11-1.18-8.08-1.18-1.14,0-2.17,0-3.09.03-.76.02-1.4.06-1.96.13-.13,0-.25.03-.36.05-.15.02-.29.04-.42.07-.96.17-1.72.47-2.32.96-.05.03-.1.07-.15.12-.05.05-.11.1-.15.15-.81.82-1.27,2.08-1.45,4.02-.02.17-.03.35-.04.54-.01.14-.02.28-.03.43-.01.18-.02.37-.02.56-.01.26-.01.54-.01.82,0,3.63.53,5.59,1.85,6.65.02.02.04.03.07.05,1.27.83,3.12,1.16,6.23,1.16h3.85c.41,0,.75-.33.75-.75,0-.36-.26-.66-.6-.73-.65.01-1.36.01-2.15.01h-.01c-3.68,0-5.81,0-7.01-.8t-.02-.01c-1.01-.69-1.36-1.93-1.45-4.23-.01-.41-.02-.86-.02-1.35s0-.91.02-1.32h16.97c.01.41.02.84.02,1.32,0,.41.34.75.75.75s.75-.34.75-.75c0-3.63-.53-5.59-1.85-6.65Zm-15.87,1.77s0-.02,0-.02c.25-.36.57-.64.98-.85.5-.25,1.08-.41,2-.51,1.18-.13,2.72-.13,4.73-.13,3.67,0,5.8,0,7,.79.01,0,.03,0,.04.02.77.52,1.15,1.38,1.33,2.77H3.63c.11-.89.32-1.57.65-2.07Z" fill="#444" stroke-width="0"/><path d="m21.57,18.14l-.75-.67c.33-.5.53-1.07.53-1.7,0-1.8-1.58-3.26-3.53-3.26s-3.52,1.46-3.52,3.26,1.58,3.26,3.52,3.26c.7,0,1.35-.2,1.91-.52l.83.75c.14.13.32.19.5.19.2,0,.41-.08.56-.25.28-.31.25-.78-.05-1.06Zm-3.74-.61c-1.12,0-2.02-.79-2.02-1.76s.91-1.76,2.02-1.76,2.03.79,2.03,1.76-.91,1.76-2.03,1.76Z" fill="#444" stroke-width="0"/><path d="m12.92,16.1h-.46c-.41,0-.75-.34-.75-.75s.34-.75.75-.75h.46c.41,0,.75.34.75.75s-.34.75-.75.75Z" fill="#444" stroke-width="0"/><path d="m10.15,16.1h-3.7c-.41,0-.75-.34-.75-.75s.34-.75.75-.75h3.7c.41,0,.75.34.75.75s-.34.75-.75.75Z" fill="#444" stroke-width="0"/></g></svg>