<svg xmlns="http://www.w3.org/2000/svg" viewBox="0 0 24 24"><path fill="#323544" d="m6.95 18.18-.32-.68zc-.23.11-.51.09-.72-.04a.75.75 0 0 1-.35-.63v-2c0-.3-.19-.58-.48-.66a4.64 4.64 0 0 1-3.34-5.24c.3-1.84 1.74-3.37 3.57-3.75 2.99-.62 5.62 1.64 5.62 4.52s-1.05 4.8-2.12 6.03a7.9 7.9 0 0 1-1.97 1.65c-.06.04-.11.06-.15.08-.02 0-.03.02-.04.02h-.01Zm10.75 0-.32-.68zc-.23.11-.51.09-.72-.04a.75.75 0 0 1-.35-.63v-2c0-.3-.19-.58-.48-.66a4.64 4.64 0 0 1-3.34-5.24c.3-1.84 1.74-3.37 3.57-3.75C19.37 5.24 22 7.5 22 10.38s-1.05 4.8-2.12 6.03a7.9 7.9 0 0 1-1.97 1.65c-.06.04-.11.06-.15.08-.02 0-.03.02-.04.02h-.01Z"/></svg>