<svg xmlns="http://www.w3.org/2000/svg" viewBox="0 0 24 24"><path fill="#5e656d" d="M21.19 20.5h-.17v-5.73c0-5-4.05-9.07-9.02-9.07s-9.02 4.07-9.02 9.07v5.73h-.17c-.41 0-.75.34-.75.75s.34.75.75.75H21.2c.41 0 .75-.34.75-.75s-.34-.75-.75-.75Zm-16.72 0v-5.73c0-4.18 3.38-7.57 7.52-7.57s7.52 3.4 7.52 7.57v5.73H4.48ZM12 4.42c.41 0 .75-.34.75-.75v-.92c0-.41-.34-.75-.75-.75s-.75.34-.75.75v.92c0 .41.34.75.75.75M5.03 6.05c.15.15.34.22.53.22s.38-.07.53-.22c.29-.29.29-.77 0-1.06l-.92-.92c-.29-.29-.77-.29-1.06 0s-.29.77 0 1.06zm13.41.22c.19 0 .38-.07.53-.22l.92-.92c.29-.29.29-.77 0-1.06a.754.754 0 0 0-1.06 0l-.92.92c-.29.29-.29.77 0 1.06.15.15.34.22.53.22"/></svg>