<svg xmlns="http://www.w3.org/2000/svg" viewBox="0 0 24 24"><g fill="#444"><path d="M21.99 11.25c-.07-3.14-.61-4.9-1.83-5.89s-.04-.04-.07-.05c-1.53-1.18-4.11-1.18-8.08-1.18-1.14 0-2.17 0-3.09.03-.76.02-1.4.06-1.96.13-.13.01-.25.03-.36.05-.15.02-.29.04-.42.07-.9.16-1.63.43-2.21.88-.04.02-.07.05-.11.08q-.075.045-.15.12c-.075.075-.11.1-.15.15-.81.82-1.27 2.08-1.45 4.02-.02.17-.03.35-.04.54l-.03.43c-.01.18-.02.37-.02.56-.01.26-.01.53-.01.81v.02c0 3.6.53 5.56 1.83 6.62l.02.02s.04.03.07.05l.21.12c.29.18.61.33.98.45.11.04.23.07.35.11.13.04.27.08.42.11.14.03.28.06.43.09.52.1 1.09.17 1.74.22q.945.06 2.1.06h1.49c.37-.04.67-.36.67-.74a.75.75 0 0 0-.6-.73h-.01c-3.5 0-5.55-.02-6.72-.8h-.02s-.05-.04-.07-.06c-.96-.69-1.29-1.93-1.38-4.17-.01-.2-.01-.42-.01-.64-.01-.23-.01-.46-.01-.71s0-.47.01-.69c0-.22 0-.42.01-.63h16.97c.01.41.02.84.02 1.32 0 .41.34.75.75.75s.75-.34.75-.75c0-.26 0-.52-.01-.76ZM3.63 9.2c.11-.89.32-1.57.65-2.07v-.02c.25-.36.57-.64.98-.85.5-.25 1.08-.41 2-.51 1.18-.13 2.72-.13 4.73-.13 3.67 0 5.8 0 7 .79.01 0 .03 0 .04.02.77.52 1.15 1.38 1.33 2.77z"/><path d="M10.15 16.1h-3.7c-.41 0-.75-.34-.75-.75s.34-.75.75-.75h3.7c.41 0 .75.34.75.75s-.34.75-.75.75m9.25 3.32c-.41 0-.75-.34-.75-.75v-3.32l-.6.54a.755.755 0 0 1-1.01-1.12l1.84-1.66q.075-.075.18-.12c.02 0 .03-.02.05-.02.08-.03.16-.05.25-.05h.02c.08 0 .16.02.23.05s.04.02.06.03q.09.045.18.12l1.84 1.66c.31.28.33.75.05 1.06s-.75.33-1.06.05l-.6-.54v3.32c0 .41-.34.75-.75.75Zm-1.76-2.92a.734.734 0 0 0-1.05-.05l-.6.54v-3.32a.749.749 0 1 0-1.5 0v3.31l-.6-.53a.746.746 0 1 0-1 1.11l.92.83.92.83h.01c.06.06.11.1.18.13.02.01.04.02.05.02h.01c.06.03.12.04.19.05h.13c.07-.01.14-.02.21-.05h.01s.02-.01.03-.02c.07-.03.14-.07.2-.13l1.84-1.66c.31-.28.33-.75.05-1.06"/></g></svg>