<svg xmlns="http://www.w3.org/2000/svg" viewBox="0 0 18.11 20.25"><g fill="#444"><path d="m1.51 3.62 3.72-2.33c.33-.2.43-.63.22-.96a.686.686 0 0 0-.96-.22L.77 2.44c-.33.2-.43.64-.22.96.2.33.63.43.96.22M12.87 1.3l3.72 2.33c.33.2.76.11.96-.22s.11-.76-.22-.96L13.61.12c-.33-.2-.76-.1-.96.22-.2.33-.11.76.22.96M9.05 20.25C3.3 20.25 0 16.95 0 11.2s3.3-9.05 9.05-9.05 9.05 3.3 9.05 9.05-3.3 9.05-9.05 9.05m0-16.61c-4.87 0-7.55 2.68-7.55 7.55s2.68 7.55 7.55 7.55 7.55-2.68 7.55-7.55-2.68-7.55-7.55-7.55"/><path d="M10.66 8.97s-.03-.02-.04-.03c-.26-.21-.52-.42-.76-.59-.22-.14-.46-.3-.7-.44-.02 0-.04-.03-.05-.04-.41-.24-.79-.48-1.13-.6-.18-.07-.4-.12-.63-.1-.24.02-.46.1-.65.24-.38.29-.54.72-.62 1.13-.07.4-.1.91-.14 1.5v.05c-.03.37-.04.73-.04 1.07s0 .7.04 1.07v.05c.04.6.06 1.1.14 1.5.08.43.24.84.62 1.13.19.14.41.24.65.25.24 0 .45-.04.63-.1.34-.13.72-.36 1.13-.61.02 0 .04-.02.05-.04.24-.14.48-.3.7-.44.24-.17.5-.38.76-.59l.04-.03c.42-.34.8-.65 1.06-.96.3-.34.49-.73.49-1.24s-.19-.9-.49-1.24c-.26-.31-.64-.62-1.06-.96Zm.1 2.62c-.18.21-.47.45-.93.83-.24.2-.48.38-.7.53-.18.14-.4.27-.62.41-.47.29-.75.45-.95.53-.05.02-.08.03-.1.03-.02-.02-.08-.07-.14-.35-.05-.31-.08-.73-.12-1.39-.02-.35-.04-.7-.04-1s.02-.64.04-1c.04-.65.06-1.08.12-1.39.06-.28.13-.34.14-.35.02 0 .05 0 .1.03.2.07.48.24.95.53.23.14.44.27.62.41.22.14.45.33.7.53.46.38.75.62.93.83.15.18.19.29.19.42s-.04.24-.19.42Z"/></g></svg>