<?xml version="1.0" encoding="UTF-8"?><svg id="b" xmlns="http://www.w3.org/2000/svg" viewBox="0 0 20 16.67"><g id="c"><path id="d" d="m14.63,15.13c.12.35-.07.73-.42.84s-.73-.07-.84-.42l-.67-2c-.12-.35.07-.73.42-.84s.73.07.84.42l.67,2Zm-4.63-2.46c-.37,0-.67.3-.67.67v2.67c0,.37.3.67.67.67s.67-.3.67-.67v-2.67c0-.37-.3-.67-.67-.67m-3.12.03c-.35-.12-.73.07-.84.42,0,0,0,0,0,0l-.67,2c-.12.35.07.73.42.84.35.12.73-.07.84-.42l.67-2c.12-.35-.07-.73-.42-.84,0,0,0,0,0,0m13.12-6.03c0,1.35-1.11,2.57-3.14,3.44-1.84.79-4.28,1.23-6.86,1.23s-5.02-.44-6.86-1.23c-2.02-.87-3.14-2.09-3.14-3.44,0-.7.31-1.73,1.76-2.71.92-.62,2.17-1.12,3.64-1.46.08-.02.15-.07.2-.14C7.19-.02,10.4-.72,12.84.82c.33.21.63.45.91.72.26.26.49.54.69.84.04.07.11.12.19.13,3.37.79,5.37,2.33,5.37,4.16m-14-1.26v.25c0,.31.21.58.51.65,1.15.25,2.32.38,3.49.37,1.17,0,2.34-.11,3.49-.36.3-.07.51-.34.51-.65v-.35c0-2.2-1.79-3.99-4-3.97h-.05c-2.18.03-3.95,1.85-3.95,4.07m12.67,1.26c0-.97-1.39-1.99-3.49-2.63.11.43.16.86.16,1.3v.33c0,.93-.65,1.74-1.56,1.94-1.24.27-2.51.41-3.78.4-1.27,0-2.54-.12-3.78-.4-.91-.2-1.56-1.01-1.56-1.94v-.25c0-.46.06-.93.18-1.38-2.12.64-3.51,1.66-3.51,2.64,0,1.58,3.56,3.33,8.67,3.33s8.67-1.76,8.67-3.33" fill="#444" stroke-width="0"/></g></svg>