<?xml version="1.0" encoding="UTF-8"?><svg id="e" xmlns="http://www.w3.org/2000/svg" viewBox="0 0 24 24"><path d="m21.97,10.68H2.03c-.02.41-.03.85-.03,1.32,0,7.88,2.52,7.88,10,7.88s10,0,10-7.88c0-.47-.01-.91-.03-1.32Zm-13.01,5.17h-1.01c-.45,0-.81-.36-.81-.81s.36-.81.81-.81h1.01c.45,0,.81.36.81.81s-.36.81-.81.81Zm7.09,0h-3.54c-.45,0-.81-.36-.81-.81s.36-.81.81-.81h3.54c.45,0,.81.36.81.81s-.36.81-.81.81Zm-4.05-11.73c-6.45,0-9.21,0-9.85,5.06h19.7c-.64-5.06-3.4-5.06-9.85-5.06Z" fill="#444" stroke-width="0"/></svg>