<?xml version="1.0" encoding="UTF-8"?><svg id="b" xmlns="http://www.w3.org/2000/svg" viewBox="0 0 18.59 20.5"><g id="c"><g id="d"><path d="m13.3,8.5h-4c-.41,0-.75.34-.75.75s.34.75.75.75h4c.41,0,.75-.34.75-.75s-.34-.75-.75-.75Z" fill="#444" stroke-width="0"/><path d="m13.3,13.5h-4c-.41,0-.75.34-.75.75s.34.75.75.75h4c.41,0,.75-.34.75-.75s-.34-.75-.75-.75Z" fill="#444" stroke-width="0"/><path d="m5.31,8.5h0c-.41,0-.75.34-.75.75s.34.75.75.75.75-.34.75-.75-.34-.75-.75-.75Z" fill="#444" stroke-width="0"/><path d="m5.31,13.5h0c-.41,0-.75.34-.75.75s.34.75.75.75.75-.34.75-.75-.34-.75-.75-.75Z" fill="#444" stroke-width="0"/><path d="m13.78,1.98c-.26-1.97-1.74-1.98-2.57-1.98h-3.81c-.83,0-2.32,0-2.57,1.98C1.41,2.36,0,4.24,0,8.34v5.72c0,3.98,1.08,6.44,6.44,6.44h5.72c5.36,0,6.44-2.46,6.44-6.44v-5.72c0-4.1-1.4-5.99-4.82-6.36Zm-6.39-.55h3.81c.94,0,1.19,0,1.19,1.19,0,.94,0,1.19-1.19,1.19h-3.81c-.94,0-1.19,0-1.19-1.19s.25-1.19,1.19-1.19Zm9.77,12.63c0,3.53-.7,5.01-5.01,5.01h-5.72c-4.31,0-5.01-1.48-5.01-5.01v-5.72c0-3.67,1.14-4.67,3.4-4.93.31,1.82,1.74,1.83,2.56,1.83h3.81c1.96,0,2.46-.96,2.58-1.83,2.24.27,3.38,1.27,3.38,4.93v5.72Z" fill="#444" stroke-width="0"/></g></g></svg>