<?xml version="1.0" encoding="UTF-8"?><svg id="d" xmlns="http://www.w3.org/2000/svg" viewBox="0 0 24 24"><path d="m14.53,10.33h-1.78v-1.79c0-.41-.34-.75-.75-.75s-.75.34-.75.75v1.79h-1.78c-.41,0-.75.34-.75.75s.34.75.75.75h1.78v1.79c0,.41.34.75.75.75s.75-.34.75-.75v-1.79h1.78c.41,0,.75-.34.75-.75s-.34-.75-.75-.75Z" fill="#444" stroke-width="0"/><path d="m20.43,8.6c-1.02-4.56-4.97-6.6-8.43-6.6h0c-3.46,0-7.4,2.04-8.43,6.59h0c-1.13,5.02,1.87,9.22,4.59,11.85,1.08,1.04,2.46,1.56,3.84,1.56s2.76-.52,3.83-1.56c2.72-2.63,5.73-6.82,4.6-11.84Zm-5.65,10.77c-1.56,1.52-4.01,1.52-5.58,0-2.44-2.37-5.15-6.11-4.17-10.45.9-4,4.32-5.42,6.97-5.42h0c2.65,0,6.07,1.42,6.97,5.43.98,4.34-1.74,8.07-4.18,10.44Z" fill="#444" stroke-width="0"/></svg>