<svg xmlns="http://www.w3.org/2000/svg" viewBox="0 0 19 11.56"><path fill="#444" d="M19 4.5c0 .88-.5 1.68-1.51 2.42-.78.56-1.75 1.02-2.91 1.37l-.02.01c-.06.02-.13.04-.2.05-.03.01-.06.01-.09.01-.42 0-.75-.33-.75-.75 0-.3.18-.57.45-.69h.01c1.05-.32 1.88-.68 2.48-1.11.69-.49 1.04-.93 1.04-1.31 0-.56-.71-1.19-2.14-1.92-1.42-.72-3.38-1.08-5.86-1.08s-4.44.36-5.86 1.08C2.21 3.31 1.5 3.94 1.5 4.5c0 .44.49.94 1.47 1.52.98.57 2.28.99 3.91 1.25L5.74 6.14a.754.754 0 0 1 0-1.06c.14-.15.34-.22.53-.22s.39.07.53.22l2.47 2.47c.36.37.36.95 0 1.31L6.8 11.34c-.29.29-.77.29-1.06 0a.764.764 0 0 1-.01-1.06l1.29-1.31c.06-.06.02-.15-.05-.16-1.96-.28-3.59-.8-4.92-1.58C.68 6.44 0 5.53 0 4.5c0-1.23.92-2.29 2.75-3.17C4.59.44 6.84 0 9.5 0s4.91.44 6.75 1.33C18.08 2.21 19 3.27 19 4.5"/></svg>