<?xml version="1.0" encoding="UTF-8"?><svg id="b" xmlns="http://www.w3.org/2000/svg" viewBox="0 0 18.1 18.32"><g id="c"><g id="d"><path d="m11.34,7.06c-.33-.19-.75-.11-.99.2l-.52.69c-.24.32-.45.6-.6.9-.12.25-.21.53-.27.81-.06.31-.06.64-.06,1.05v3.86c0,.21,0,.33-.01.41v.09c-.02.09-.05.15-.09.2l-.09.08c-.06.05-.15.11-.29.21l-1.57,1.08v-5.91c0-.42,0-.76-.06-1.08-.06-.27-.15-.55-.27-.8-.14-.3-.34-.56-.59-.89l-.05-.06-2-2.64c-.07-.09-.08-.22-.03-.32.05-.1.15-.17.27-.17h4.84c.43,0,.77-.34.77-.77h0c0-.43-.34-.77-.77-.77H2.34l-.06-.08c-.27-.35-.44-.59-.57-.79-.11-.17-.15-.27-.16-.31v-.07c0-.11.04-.22.12-.3l.04-.04.05-.02c.1-.03.2-.04.3-.05.3-.03.7-.03,1.38-.03h7.02c.42,0,.77-.34.77-.77s-.34-.77-.77-.77H3.4c-.59,0-1.1,0-1.49.03-.36.04-.81.11-1.17.41C.27.82.01,1.38,0,1.99c0,.47.22.87.41,1.18.21.33.52.74.87,1.2l.06.08,3.31,4.37c.33.43.42.55.49.69.06.14.11.28.14.43.03.15.03.31.03.86v5.48c0,.26,0,.52.02.73.02.22.07.5.25.75.24.33.61.54,1.01.56.33.02.59-.1.79-.21.17-.1.37-.23.56-.37l1.38-.94c.24-.17.49-.35.68-.58.16-.21.28-.44.35-.69.09-.28.09-.59.09-.89v-3.84c0-.57,0-.71.03-.86.03-.15.08-.3.15-.43.06-.14.15-.26.48-.69l.47-.67c.26-.36.15-.87-.24-1.1h0Z" fill="#444" stroke-width="0"/><path d="m16.26,3.31c-.05-.05-.05-.14,0-.2l1.62-1.62c.29-.29.29-.77,0-1.06-.29-.29-.77-.29-1.06,0l-1.62,1.62c-.05.05-.14.05-.2,0l-1.62-1.62c-.29-.29-.77-.29-1.06,0-.29.29-.29.77,0,1.06l1.62,1.62c.05.05.05.14,0,.2l-1.62,1.62c-.29.29-.29.77,0,1.06.15.15.34.22.53.22s.38-.07.53-.22l1.62-1.62c.05-.05.14-.05.2,0l1.62,1.62c.15.15.34.22.53.22s.38-.07.53-.22c.29-.29.29-.77,0-1.06l-1.62-1.62Z" fill="#444" stroke-width="0"/></g></g></svg>