<svg xmlns="http://www.w3.org/2000/svg" viewBox="0 0 24 24"><g fill="#5e656d"><path d="M16.17 3.88H7.83C4.16 3.88 3.04 5 3.04 8.67v6.67c0 3.68 1.12 4.79 4.79 4.79h8.33c3.67 0 4.79-1.12 4.79-4.79V8.67c0-3.68-1.12-4.79-4.79-4.79Zm3.54 11.46c0 2.98-.56 3.54-3.54 3.54H7.83c-2.98 0-3.54-.57-3.54-3.54V8.67c0-2.98.56-3.54 3.54-3.54h8.33c2.98 0 3.54.57 3.54 3.54v6.67Z"/><path d="M17.83 8.04h-4.17c-.34 0-.62.28-.62.62s.28.62.62.62h4.17c.34 0 .62-.28.62-.62s-.28-.62-.62-.62m0 3.34H14.5c-.34 0-.62.28-.62.62s.28.62.62.62h3.33c.34 0 .62-.28.62-.62s-.28-.62-.62-.62m0 3.33h-1.67c-.34 0-.62.28-.62.62s.28.62.62.62h1.67c.34 0 .62-.28.62-.62s-.28-.62-.62-.62m-8.95-2.77h.13c1.11-.04 1.99-.95 2.01-2.08 0-1.15-.93-2.08-2.08-2.08s-2.07.94-2.07 2.08.88 2.05 2.02 2.09Zm.06-2.85a.772.772 0 0 1 .03 1.54H8.9c-.4-.01-.72-.36-.72-.77s.34-.77.76-.77m2.01 3.92c-1.09-.74-2.82-.75-3.93 0-.55.37-.87.91-.87 1.49s.32 1.12.87 1.49 1.26.56 1.97.56 1.41-.19 1.96-.56.87-.91.87-1.49-.32-1.12-.87-1.49m-.74 1.89c-.65.44-1.81.44-2.46 0-.18-.12-.29-.27-.29-.4s.1-.28.29-.4c.66-.44 1.81-.44 2.46 0 .18.12.29.27.29.4s-.11.28-.29.4"/></g></svg>