<?xml version="1.0" encoding="UTF-8"?><svg id="d" xmlns="http://www.w3.org/2000/svg" viewBox="0 0 24 24"><path d="m18.16,11.8c0,.41-.34.75-.75.75s-.75-.34-.75-.75.34-.75.75-.75.75.34.75.75Zm-2.7.06c0,1,.81,1.81,1.81,1.81h4.46c.04-.53.07-1.08.07-1.67,0-.7-.03-1.34-.09-1.95h-4.44c-1,0-1.81.81-1.81,1.81Z" fill="#444" fill-rule="evenodd" stroke-width="0"/><path d="m11.65,8.64h-4.06c-.41,0-.75-.34-.75-.75s.34-.75.75-.75h4.06c.41,0,.75.34.75.75s-.34.75-.75.75Zm5.62,6.53c-1.83,0-3.31-1.49-3.31-3.31s1.49-3.31,3.31-3.31h4.21c-.88-4.05-3.67-5.59-9.48-5.59C4.76,2.96,2.2,5.33,2.2,12s2.57,9.04,9.8,9.04c5.94,0,8.73-1.6,9.54-5.87h-4.27Z" fill="#444" fill-rule="evenodd" stroke-width="0"/></svg>