<svg xmlns="http://www.w3.org/2000/svg" viewBox="0 0 24 24"><path fill="#444" d="M5.46 18.64c-.18 0-.36-.06-.5-.19C3.05 16.73 2 14.44 2 12s1.05-4.73 2.96-6.45a.755.755 0 0 1 1.01 1.12C4.38 8.1 3.51 9.99 3.51 12.01s.87 3.9 2.46 5.33c.31.28.33.75.05 1.06-.15.16-.35.25-.56.25Zm13.08 0a.755.755 0 0 1-.51-1.31c1.59-1.43 2.46-3.32 2.46-5.34s-.87-3.9-2.46-5.33a.746.746 0 0 1-.05-1.06c.28-.31.75-.33 1.06-.06C20.95 7.26 22 9.55 22 11.99s-1.05 4.73-2.96 6.45c-.14.13-.32.19-.5.19Zm-3.27-2.95a.755.755 0 0 1-.51-1.31c.71-.64 1.11-1.49 1.11-2.39s-.39-1.75-1.11-2.39a.746.746 0 0 1-.05-1.06c.28-.31.75-.33 1.06-.06 1.03.93 1.6 2.17 1.6 3.5s-.57 2.57-1.6 3.5c-.14.13-.32.19-.5.19Zm-6.54 0c-.18 0-.36-.06-.5-.19-1.03-.93-1.6-2.17-1.6-3.5s.57-2.57 1.6-3.5a.755.755 0 0 1 1.01 1.12c-.71.64-1.11 1.49-1.11 2.39s.39 1.75 1.11 2.39c.31.28.33.75.05 1.06-.15.16-.35.25-.56.25ZM12 12.75c-.41 0-.75-.34-.75-.75s.34-.75.75-.75.75.33.75.74c0 .42-.34.76-.75.76"/></svg>