<svg xmlns="http://www.w3.org/2000/svg" viewBox="0 0 24 24"><path fill="#444" d="M3 6.5v-2c0-.46 0-.7.04-.89.16-.79.78-1.41 1.57-1.57C4.8 2 5.04 2 5.5 2s.7 0 .89.04c.79.16 1.41.78 1.57 1.57.04.19.04.43.04.89v.25h8V4.5c0-.46 0-.7.04-.89.16-.79.78-1.41 1.57-1.57.19-.04.43-.04.89-.04s.7 0 .89.04c.79.16 1.41.78 1.57 1.57.04.19.04.43.04.89v2c0 .46 0 .7-.04.89-.16.79-.78 1.41-1.57 1.57-.19.04-.43.04-.89.04s-.7 0-.89-.04c-.79-.16-1.41-.78-1.57-1.57C16 7.2 16 6.96 16 6.5v-.25H8v.25c0 .46 0 .7-.04.89-.16.79-.78 1.41-1.57 1.57C6.2 9 5.96 9 5.5 9s-.7 0-.89-.04c-.79-.16-1.41-.78-1.57-1.57C3 7.2 3 6.96 3 6.5m0 13v-2c0-.46 0-.7.04-.89.16-.79.78-1.41 1.57-1.57.19-.04.43-.04.89-.04s.7 0 .89.04c.79.16 1.41.78 1.57 1.57.04.19.04.43.04.89v.25h8v-.25c0-.46 0-.7.04-.89.16-.79.78-1.41 1.57-1.57.19-.04.43-.04.89-.04s.7 0 .89.04c.79.16 1.41.78 1.57 1.57.04.19.04.43.04.89v2c0 .46 0 .7-.04.89-.16.79-.78 1.41-1.57 1.57-.19.04-.43.04-.89.04s-.7 0-.89-.04c-.79-.16-1.41-.78-1.57-1.57-.04-.19-.04-.43-.04-.89v-.25H8v.25c0 .46 0 .7-.04.89-.16.79-.78 1.41-1.57 1.57-.19.04-.43.04-.89.04s-.7 0-.89-.04c-.79-.16-1.41-.78-1.57-1.57C3 20.2 3 19.96 3 19.5"/><path fill="#444" fill-rule="evenodd" d="M12.39 8.86c.35.21.47.67.25 1.03l-.82 1.36h1.68c.27 0 .52.15.65.38.14.23.13.52-.01.75l-1.5 2.5a.746.746 0 1 1-1.28-.77l.82-1.36H10.5c-.27 0-.52-.14-.65-.38a.74.74 0 0 1 .01-.76l1.5-2.5c.21-.36.67-.47 1.03-.26Z"/></svg>