<?xml version="1.0" encoding="UTF-8"?><svg id="b" xmlns="http://www.w3.org/2000/svg" viewBox="0 0 24 24"><path d="m5.25,7.5c-.6,0-1.17-.24-1.59-.66-.42-.42-.66-.99-.66-1.59s.24-1.17.66-1.59c.42-.42.99-.66,1.59-.66s1.17.24,1.59.66c.42.42.66.99.66,1.59s-.24,1.17-.66,1.59c-.42.42-.99.66-1.59.66Zm0,6.75c-.6,0-1.17-.24-1.59-.66-.42-.42-.66-.99-.66-1.59s.24-1.17.66-1.59c.42-.42.99-.66,1.59-.66s1.17.24,1.59.66c.42.42.66.99.66,1.59s-.24,1.17-.66,1.59c-.42.42-.99.66-1.59.66Zm0,6.75c-.6,0-1.17-.24-1.59-.66-.42-.42-.66-.99-.66-1.59s.24-1.17.66-1.59c.42-.42.99-.66,1.59-.66s1.17.24,1.59.66c.42.42.66.99.66,1.59s-.24,1.17-.66,1.59c-.42.42-.99.66-1.59.66Zm6.75-13.5c-.6,0-1.17-.24-1.59-.66-.42-.42-.66-.99-.66-1.59s.24-1.17.66-1.59c.42-.42.99-.66,1.59-.66s1.17.24,1.59.66c.42.42.66.99.66,1.59s-.24,1.17-.66,1.59c-.42.42-.99.66-1.59.66Zm0,6.75c-.6,0-1.17-.24-1.59-.66s-.66-.99-.66-1.59.24-1.17.66-1.59.99-.66,1.59-.66,1.17.24,1.59.66.66.99.66,1.59-.24,1.17-.66,1.59-.99.66-1.59.66Zm0,6.75c-.6,0-1.17-.24-1.59-.66-.42-.42-.66-.99-.66-1.59s.24-1.17.66-1.59c.42-.42.99-.66,1.59-.66s1.17.24,1.59.66c.42.42.66.99.66,1.59s-.24,1.17-.66,1.59c-.42.42-.99.66-1.59.66Zm6.75-13.5c-.6,0-1.17-.24-1.59-.66-.42-.42-.66-.99-.66-1.59s.24-1.17.66-1.59c.42-.42.99-.66,1.59-.66s1.17.24,1.59.66c.42.42.66.99.66,1.59s-.24,1.17-.66,1.59c-.42.42-.99.66-1.59.66Zm0,6.75c-.6,0-1.17-.24-1.59-.66-.42-.42-.66-.99-.66-1.59s.24-1.17.66-1.59c.42-.42.99-.66,1.59-.66s1.17.24,1.59.66c.42.42.66.99.66,1.59s-.24,1.17-.66,1.59c-.42.42-.99.66-1.59.66Zm0,6.75c-.6,0-1.17-.24-1.59-.66-.42-.42-.66-.99-.66-1.59s.24-1.17.66-1.59c.42-.42.99-.66,1.59-.66s1.17.24,1.59.66c.42.42.66.99.66,1.59s-.24,1.17-.66,1.59c-.42.42-.99.66-1.59.66Z" fill="#444" fill-rule="evenodd" stroke-width="0"/></svg>