<svg xmlns="http://www.w3.org/2000/svg" viewBox="0 0 19.31 19.31"><path fill="#444" d="m18.6 10.35-2.37-2.37a.48.48 0 0 1-.12-.43c.16-.86-.08-1.78-.75-2.44l-.05-.05 1.97-1.97c.29-.29.29-.77 0-1.06s-.77-.29-1.06 0L14.25 4l-.05-.05c-.66-.66-1.58-.91-2.44-.75-.16.03-.31 0-.43-.12L8.96.71c-.94-.94-2.48-.94-3.42 0L3.9 2.35c-.94.94-.94 2.48 0 3.42l2.37 2.37c.11.11.15.27.12.43-.16.86.08 1.78.75 2.44l1.17 1.17c.54.54 1.24.81 1.95.81.25 0 .5-.05.74-.11l2.55 2.55c.46.46 1.06.71 1.71.71s1.25-.25 1.71-.71l1.64-1.64c.94-.94.94-2.48 0-3.42ZM4.96 3.41 6.6 1.77c.36-.36.94-.36 1.3 0l2.19 2.19c.06.06.06.15 0 .2L7.35 6.9c-.06.06-.15.06-.2 0L4.96 4.71a.917.917 0 0 1 0-1.3m4.4 7.7L8.19 9.94a1.25 1.25 0 0 1 0-1.77L11.36 5c.24-.24.57-.37.89-.37s.64.12.89.37l1.17 1.17c.49.49.49 1.28 0 1.77l-3.17 3.17c-.49.49-1.28.49-1.77 0Zm8.18 1.6-1.64 1.64c-.36.36-.94.36-1.3 0l-2.19-2.19c-.06-.06-.06-.15 0-.2l2.74-2.74c.06-.06.15-.06.2 0l2.19 2.19c.36.36.36.94 0 1.3m-16.79-.9c-.41 0-.75.34-.75.75s.34.75.75.75c2.6 0 5.25 2.65 5.25 5.25 0 .41.34.75.75.75s.75-.34.75-.75c0-3.41-3.34-6.75-6.75-6.75"/></svg>