<svg xmlns="http://www.w3.org/2000/svg" viewBox="0 0 17.21 20"><path fill="#444" d="M10.98 0c1.27 0 2.3 0 3.1.11.84.11 1.54.35 2.1.91s.8 1.27.91 2.1c.11.81.11 1.83.11 3.1v10.01c0 .66 0 1.23-.06 1.67-.07.46-.23.96-.73 1.26-.71.43-1.5.14-1.97-.09-.26-.13-.51-.28-.72-.42-.08-.05-.15-.1-.22-.14-.11-.07-.2-.13-.29-.18-.25-.15-.4-.24-.51-.29-.1-.05-.13-.05-.14-.05s-.04 0-.13.04c-.12.05-.27.14-.54.3l-1.91 1.14c-.23.14-.45.27-.65.36-.22.1-.45.18-.73.18s-.52-.08-.73-.18c-.2-.09-.41-.22-.65-.36l-1.91-1.14c-.25-.15-.4-.24-.51-.29-.1-.05-.13-.05-.14-.05s-.04 0-.13.04c-.12.05-.27.14-.54.3-.08.05-.17.11-.29.18-.06.04-.14.09-.22.14-.21.13-.46.29-.72.42-.47.23-1.26.52-1.97.09-.5-.3-.66-.81-.73-1.26C0 17.46 0 16.89 0 16.23v-10c0-1.27 0-2.3.11-3.1.11-.84.35-1.54.91-2.1.56-.57 1.27-.81 2.1-.92C3.93 0 4.95 0 6.22 0h4.75ZM3.31 1.49c-.68.09-1.04.26-1.3.52s-.43.62-.52 1.3c-.09.7-.1 1.63-.1 2.97v9.9c0 .73 0 1.19.05 1.51.02.15.05.23.07.26v.01c.04.02.2.06.63-.15.19-.09.39-.21.58-.34.05-.03.11-.07.17-.11.13-.09.27-.18.38-.24l.07-.04c.43-.26.85-.51 1.36-.49.26 0 .48.08.69.18.18.09.39.21.61.34l1.91 1.13c.27.16.42.25.55.31.11.05.14.05.14.05s.04 0 .14-.05c.12-.06.28-.15.55-.31l1.89-1.12.07-.04c.43-.26.85-.51 1.36-.49.26 0 .48.08.69.18.18.09.39.21.61.34h.02c.11.08.25.17.38.26.06.04.12.08.17.11.19.13.39.25.58.34.43.21.59.17.63.15v-.01c.02-.03.04-.11.07-.26.05-.32.05-.79.05-1.51V6.28c0-1.33 0-2.27-.1-2.97-.09-.68-.26-1.04-.52-1.3s-.62-.43-1.3-.52c-.7-.09-1.63-.1-2.97-.1H6.27c-1.33 0-2.27 0-2.97.1Zm2.01 10.86a.706.706 0 0 1 0-.99l5.58-5.58c.27-.27.71-.27.99 0 .27.27.27.71 0 .99l-5.58 5.58c-.27.27-.71.27-.99 0m6.07-1.42c.51 0 .93.42.93.93s-.42.93-.93.93-.93-.42-.93-.93.42-.93.93-.93M5.82 5.35c.51 0 .93.42.93.93s-.42.93-.93.93-.93-.42-.93-.93.42-.93.93-.93"/></svg>