<svg xmlns="http://www.w3.org/2000/svg" viewBox="0 0 24 24"><path fill="#444" d="M12 18.65c-.41 0-.75.34-.75.75v1.85c0 .41.34.75.75.75s.75-.34.75-.75V19.4c0-.41-.34-.75-.75-.75m0-3.7c-.41 0-.75.34-.75.75v1.85c0 .41.34.75.75.75s.75-.34.75-.75V15.7c0-.41-.34-.75-.75-.75m9.89-10.06c.03-.08.05-.17.05-.26v-.06c0-.09-.02-.18-.05-.26a.7.7 0 0 0-.12-.18c-.02-.02-.02-.04-.04-.06l-1.84-1.85a.754.754 0 0 0-1.06 0c-.29.29-.3.77 0 1.06l.57.57h-.96c-2.82 0-5.26 1.65-6.44 4.03-1.18-2.38-3.61-4.03-6.44-4.03H4.6l.57-.57c.29-.29.29-.77 0-1.06a.754.754 0 0 0-1.06 0L2.27 4.07s-.03.04-.04.06c-.05.06-.09.11-.12.18-.03.08-.05.17-.05.26v.06c0 .09.02.18.05.26.03.07.07.12.12.18.02.02.02.04.04.06l1.84 1.85c.15.15.34.22.53.22s.38-.07.53-.22c.29-.29.3-.77 0-1.06l-.57-.57h.96c3.13 0 5.69 2.57 5.69 5.73v2.77c0 .41.34.75.75.75s.75-.34.75-.75v-2.77c0-3.16 2.55-5.73 5.69-5.73h.96l-.57.57c-.29.29-.29.77 0 1.06.15.15.34.22.53.22s.39-.07.53-.22l1.84-1.85s.03-.04.04-.06c.05-.06.09-.11.12-.18"/></svg>