<svg xmlns="http://www.w3.org/2000/svg" viewBox="0 0 24 24"><path fill="#444" d="M17.69 19.88H7.02C4.25 19.88 2 17.63 2 14.86a4.99 4.99 0 0 1 2.86-4.53 5.74 5.74 0 0 1 4.27-6.02c2.82-.74 5.71.77 6.77 3.42.53-.06 1.06 0 1.57.18 1.65.58 2.61 2.25 2.37 3.92 1.32.76 2.17 2.19 2.17 3.75 0 1.15-.45 2.23-1.27 3.05-.81.81-1.89 1.26-3.04 1.26ZM10.57 5.64c-.35 0-.71.04-1.06.14-2.15.56-3.5 2.71-3.08 4.89.07.37-.14.75-.51.87a3.5 3.5 0 0 0-2.41 3.33c0 1.93 1.57 3.51 3.51 3.51h10.67c.75 0 1.45-.29 1.98-.82s.82-1.23.82-1.98c0-1.16-.72-2.21-1.81-2.62a.76.76 0 0 1-.45-.96 2.09 2.09 0 0 0-1.28-2.66c-.43-.15-.9-.16-1.34-.02-.2.06-.42.04-.6-.06a.76.76 0 0 1-.37-.47c-.49-1.89-2.21-3.15-4.08-3.15Z"/></svg>