<svg xmlns="http://www.w3.org/2000/svg" viewBox="0 0 24 24"><path fill="#444" d="M14.05 11.73a2.12 2.12 0 1 0-1.53 1.53c.75-.18 1.36-.79 1.53-1.53"/><path fill="#444" d="M6.24 18.12c-.17 0-.36-.07-.49-.19a9.2 9.2 0 0 1-2.94-6.73C2.8 6.13 6.93 2 12 2s9.2 4.13 9.2 9.2c0 2.56-1.03 4.93-2.9 6.7-.29.27-.75.26-1.02-.03a.725.725 0 0 1 .03-1.02 7.65 7.65 0 0 0 2.45-5.64c0-4.27-3.48-7.75-7.75-7.75s-7.75 3.48-7.75 7.75c0 2.18.88 4.18 2.48 5.67.29.27.31.73.04 1.02-.14.14-.34.22-.53.22Z"/><path fill="#444" d="M15.86 15.54c-.17 0-.36-.07-.49-.19a.716.716 0 0 1-.03-1.02c.8-.85 1.24-1.97 1.24-3.12 0-2.53-2.05-4.57-4.57-4.57s-4.57 2.05-4.57 4.57c0 1.17.44 2.27 1.24 3.12.27.29.26.75-.03 1.02-.29.28-.75.26-1.02-.03a6 6 0 0 1-1.64-4.12c0-3.32 2.7-6.01 6.01-6.01s6.01 2.7 6.01 6.01c0 1.53-.58 3-1.64 4.12-.14.14-.34.22-.53.22Zm-5.5 1.31-1.39 1.73C7.87 19.96 8.85 22 10.61 22h2.77c1.76 0 2.75-2.04 1.64-3.41l-1.39-1.73a2.08 2.08 0 0 0-3.27 0Z"/></svg>