<svg xmlns="http://www.w3.org/2000/svg" viewBox="0 0 24 24"><path fill="#444" d="M4.77 3.54h2.14c.44 0 .85 0 1.18.04.37.05.75.17 1.07.48.32.32.43.7.48 1.07.04.33.04.74.04 1.18v3.42l2.33-1.17c.53-.26.99-.49 1.37-.63.4-.14.88-.24 1.36-.03.16.07.32.16.45.28.4.34.53.81.58 1.23l.03.32 2.15-1.07c.62-.31 1.16-.58 1.61-.73.47-.15 1.04-.24 1.57.09s.71.87.78 1.36c.07.47.07 1.07.07 1.77v4.49c0 .92 0 1.69-.08 2.3-.09.64-.28 1.22-.74 1.69-.47.47-1.05.66-1.69.74-.61.08-1.38.08-2.3.08H6.82c-.92 0-1.69 0-2.3-.08-.64-.09-1.23-.28-1.69-.74-.47-.47-.66-1.05-.74-1.69-.08-.61-.08-1.38-.08-2.3V6.32c0-.44 0-.85.04-1.18.05-.37.17-.75.48-1.07s.7-.43 1.07-.48c.33-.04.74-.04 1.18-.04Zm4.92 7.91v7.47h7.44c.99 0 1.65 0 2.15-.07.47-.06.68-.17.81-.31.13-.13.24-.34.31-.81.07-.5.07-1.16.07-2.15v-4.37c0-.77 0-1.26-.05-1.6-.02-.16-.05-.24-.07-.27-.04 0-.12 0-.27.06-.33.11-.77.32-1.45.67l-3.19 1.59a.77.77 0 0 1-1.12-.68c0-.65 0-1.07-.04-1.36a.8.8 0 0 0-.06-.26.2.2 0 0 0-.05-.03c-.02 0-.1 0-.26.06-.28.1-.65.28-1.23.57L9.7 11.45Zm-6.15 4.14c0 .99 0 1.65.07 2.15.06.47.17.68.31.81.13.13.34.24.81.31.5.07 1.16.07 2.15.07h1.28V8.16H3.54v7.44Zm4.62-9.23c0-.51 0-.81-.03-1.02a.5.5 0 0 0-.04-.17v-.01h-.01c-.02 0-.07-.02-.17-.04-.22-.03-.52-.03-1.02-.03H4.84c-.51 0-.81 0-1.02.03-.1.01-.15.03-.17.04h-.01v.01c0 .02-.02.07-.04.17-.03.22-.03.52-.03 1.02v.26h4.62v-.26Z"/></svg>