<svg xmlns="http://www.w3.org/2000/svg" viewBox="0 0 24 24"><g fill="#444"><path d="M12 2C5.74 2 2.15 5.64 2.15 12S5.74 22 12 22s9.85-3.65 9.85-10S18.26 2 12 2m2.6 14.49c-.53.41-1.17.65-1.84.76v.82c0 .42-.35.76-.76.76s-.76-.34-.76-.76v-.82c-.67-.11-1.31-.36-1.84-.76l-.89-.66a.762.762 0 0 1 .91-1.22l.89.67c.26.19.59.33.93.42v-2.88a.18.18 0 0 0-.14-.17c-.6-.12-1.15-.37-1.6-.73-.72-.57-1.12-1.35-1.12-2.2s.39-1.63 1.12-2.2c.51-.4 1.1-.65 1.74-.76v-.83c0-.42.35-.76.76-.76s.76.34.76.76v.83c.63.1 1.23.36 1.74.76l.42.33c.33.26.38.73.12 1.06a.75.75 0 0 1-1.06.12l-.42-.33c-.24-.18-.51-.31-.8-.4v2.86c0 .08.06.15.14.17.63.12 1.21.37 1.7.74.76.57 1.19 1.38 1.19 2.22s-.43 1.65-1.19 2.21Z"/><path d="M9.89 9.72c0 .36.2.73.55 1.01.23.18.5.31.8.4V8.31c-.29.09-.56.22-.8.4-.36.28-.55.65-.55 1.01m4.38 4.54c0 .36-.21.72-.58 1-.26.21-.59.34-.93.43v-2.85c.35.1.68.23.93.42.37.28.58.64.58 1"/></g></svg>