<?xml version="1.0" encoding="UTF-8"?><svg id="b" xmlns="http://www.w3.org/2000/svg" viewBox="0 0 17.45 20"><g id="c"><g id="d"><g id="e"><path d="m8.7,2.45c-.6,0-1.19.07-1.78.18l1.21-1.39c.27-.31.24-.79-.08-1.06-.31-.27-.79-.24-1.06.08,0,0,0,0,0,0l-2.66,3.07s0,.02-.01.03c0,0-.02.01-.02.02-.03.03-.03.07-.05.11s-.05.09-.06.13c-.01.05-.01.1-.02.15,0,.05-.01.09,0,.14,0,.05.02.1.04.14.01.04.02.09.05.13.02.05.06.08.1.12.02.03.04.06.07.09,0,0,.02,0,.03.02,0,0,.01.02.02.02l3.1,2.28c.13.1.29.15.44.15.23,0,.46-.11.61-.31.25-.33.17-.8-.16-1.05l-1.74-1.28c.66-.16,1.32-.26,1.99-.26,3.98,0,7.22,3.26,7.22,7.27s-3.24,7.27-7.22,7.27S1.5,15.25,1.5,11.24c0-1.44.42-2.84,1.22-4.05.23-.35.13-.81-.21-1.04-.35-.23-.81-.13-1.04.21C.51,7.8,0,9.49,0,11.23,0,16.07,3.91,20,8.72,20s8.72-3.94,8.72-8.77S13.54,2.45,8.72,2.45h-.02Z" fill="#444" stroke-width="0"/></g><path d="m6.61,14.21c-.06,0-.11-.02-.14-.06-.04-.04-.05-.08-.05-.14v-4.14l-1.22.94s-.1.04-.14.04c-.05,0-.09-.04-.13-.08l-.34-.43s-.04-.1-.04-.15c0-.05.04-.1.08-.13l1.79-1.38s.06-.04.1-.05.07,0,.1,0h.7c.05,0,.1.02.14.06s.06.08.06.14v5.22c0,.05-.02.1-.06.14-.04.04-.08.06-.14.06h-.73Z" fill="#444" stroke-width="0"/><path d="m10.72,14.29c-.38,0-.7-.06-.97-.17-.27-.11-.49-.27-.66-.46s-.3-.43-.38-.68c-.09-.26-.14-.53-.15-.83,0-.14,0-.3-.01-.48s0-.35,0-.52c0-.18,0-.34.01-.49.01-.29.06-.57.15-.83s.22-.48.4-.68c.17-.19.39-.34.66-.46.27-.11.58-.17.95-.17s.69.06.96.17c.27.11.49.26.66.46.17.19.3.42.39.68s.14.53.15.83c.01.15.02.31.02.49v.52c0,.17,0,.33-.02.48-.01.29-.06.57-.14.83-.08.26-.21.49-.38.68s-.39.35-.66.46c-.27.11-.59.17-.97.17Zm0-.92c.35,0,.6-.11.76-.34.16-.23.25-.53.25-.92.01-.15.02-.31.02-.47v-.48c0-.16,0-.31-.02-.46,0-.38-.09-.68-.25-.92-.16-.23-.42-.35-.76-.35s-.59.12-.76.35c-.16.23-.25.54-.26.92,0,.14,0,.3,0,.46,0,.16,0,.32,0,.48,0,.16,0,.31,0,.47,0,.39.1.7.26.92.17.23.42.34.75.34Z" fill="#444" stroke-width="0"/></g></g></svg>