<svg xmlns="http://www.w3.org/2000/svg" viewBox="0 0 18.1 20.26"><g fill="#444"><path d="m1.51 3.62 3.72-2.33c.33-.2.43-.63.22-.96a.686.686 0 0 0-.96-.22L.77 2.44c-.33.2-.43.64-.22.96.2.33.63.43.96.22M12.87 1.3l3.72 2.33c.33.2.76.11.96-.22s.11-.76-.22-.96L13.61.12c-.33-.2-.76-.1-.96.22-.2.33-.11.76.22.96M9.82 9.93c-.24-.2-.48-.38-.69-.53-.18-.14-.4-.27-.63-.41-.47-.29-.75-.45-.95-.52a.3.3 0 0 0-.1-.03c-.02.02-.08.07-.14.35-.06.31-.08.74-.12 1.39-.02.35-.04.7-.04 1s.02.64.04.99c.04.65.06 1.08.12 1.39.06.28.12.33.14.35.02 0 .05-.01.1-.03.2-.07.48-.23.95-.52.23-.14.45-.27.63-.41.21-.14.45-.33.69-.53.47-.38.76-.62.94-.83.15-.18.19-.29.19-.41 0-.13-.04-.24-.19-.42-.18-.21-.47-.45-.94-.83"/><path d="M9.05 2.15C3.3 2.15 0 5.45 0 11.2s3.3 9.06 9.05 9.06 9.05-3.3 9.05-9.06-3.3-9.05-9.05-9.05m2.67 10.27c-.27.3-.65.61-1.06.96l-.04.02c-.26.21-.52.42-.76.59-.22.15-.46.3-.7.44-.01.02-.03.03-.05.04-.41.25-.79.48-1.13.61-.18.06-.4.11-.64.1a1.2 1.2 0 0 1-.65-.26c-.38-.29-.54-.7-.62-1.13-.08-.4-.1-.9-.14-1.5v-.05c-.03-.37-.04-.73-.04-1.06s0-.7.04-1.07v-.05c.04-.6.06-1.1.14-1.5.08-.42.24-.84.62-1.13.19-.15.41-.23.65-.25s.46.03.64.1c.34.12.72.36 1.13.6.02.01.04.03.05.04.24.14.48.29.7.44a16 16 0 0 1 .8.62c.41.34.79.65 1.06.95.3.35.49.74.49 1.25s-.19.89-.49 1.24"/></g></svg>