<?xml version="1.0" encoding="UTF-8"?><svg id="b" xmlns="http://www.w3.org/2000/svg" viewBox="0 0 17.2 19.88"><g id="c"><g id="d"><path d="m15.93.65c-.65-.16-1.45.04-1.89.78-.04.07-.13.13-.25.13-.12.01-.22-.04-.27-.11l-.37-.49c-.94-1.25-2.8-1.28-3.78-.06h-.01c-.37.49-1.15.49-1.52.01h-.01c-.98-1.23-2.84-1.2-3.78.05l-.37.49c-.05.07-.15.12-.27.11-.12,0-.21-.06-.25-.13-.44-.74-1.24-.94-1.89-.78-.65.16-1.27.72-1.27,1.59v15.36c0,.87.62,1.43,1.27,1.59.65.16,1.45-.04,1.89-.78.04-.07.13-.13.25-.13.12-.01.22.04.27.11l.37.49c.94,1.25,2.8,1.28,3.78.06h.01c.37-.49,1.15-.49,1.52-.01l.06.07c.95,1.19,2.77,1.16,3.69-.06l.41-.55c.05-.07.15-.12.27-.11.12,0,.21.06.25.13.44.74,1.24.94,1.89.78.65-.16,1.27-.72,1.27-1.59V2.24c0-.87-.62-1.43-1.27-1.59Zm-.12,16.95c0,.07-.02.11-.05.14-.03.04-.09.07-.17.09-.15.04-.28,0-.35-.13-.61-1.03-2.12-1.1-2.84-.15l-.48.65c-.33.43-1.04.43-1.37,0h0c-.95-1.35-2.95-1.35-3.9,0h0c-.33.43-1.04.43-1.37,0l-.48-.65c-.72-.95-2.23-.88-2.84.15-.07.12-.2.17-.35.13-.08-.02-.14-.05-.17-.09-.03-.03-.05-.07-.05-.14V2.24c0-.07.02-.11.05-.14.03-.04.09-.07.17-.09.15-.04.28,0,.35.13.61,1.03,2.12,1.1,2.84.15l.48-.65c.33-.43,1.04-.43,1.37,0h0c.95,1.35,2.95,1.35,3.9,0h0c.33-.43,1.04-.43,1.37,0l.48.65c.72.95,2.23.88,2.84-.15.07-.12.2-.17.35-.13.08.02.14.05.17.09.03.03.05.07.05.14v15.36Z" fill="#444" stroke-width="0"/><path d="m3.6,6.99h10c.41,0,.75-.33.75-.75s-.34-.75-.75-.75H3.6c-.41,0-.75.34-.75.75s.34.75.75.75Z" fill="#444" stroke-width="0"/><path d="m13.6,9.19H3.6c-.41,0-.75.33-.75.75s.34.75.75.75h10c.41,0,.75-.34.75-.75s-.34-.75-.75-.75Z" fill="#444" stroke-width="0"/><path d="m13.6,12.88H3.6c-.41,0-.75.34-.75.75s.34.75.75.75h10c.41,0,.75-.34.75-.75s-.34-.75-.75-.75Z" fill="#444" stroke-width="0"/></g></g></svg>