<?xml version="1.0" encoding="UTF-8"?><svg id="b" xmlns="http://www.w3.org/2000/svg" viewBox="0 0 13.29 18.59"><g id="c"><g id="d"><path d="m9.79,12.5v-1.11c0-.08-.06-.14-.14-.14h-1.11c-.41,0-.75-.34-.75-.75h0c0-.41.34-.75.75-.75h1.11c.08,0,.14-.06.14-.14v-1.11c0-.41.34-.75.75-.75h0c.41,0,.75.34.75.75v1.11c0,.08.06.14.14.14h1.11c.41,0,.75.34.75.75h0c0,.41-.34.75-.75.75h-1.11c-.08,0-.14.06-.14.14v1.11c0,.41-.34.75-.75.75h0c-.41,0-.75-.34-.75-.75Z" fill="#444" stroke-width="0"/><path id="e" d="m6.17,17.18s-.04-.02-.06-.03c-1.34-.74-2.41-1.74-3.22-3.03-.9-1.42-1.35-2.99-1.35-4.7,0-1.38.31-2.68.92-3.9.57-1.14,1.36-2.1,2.35-2.9.09-.07.23-.01.23.11v3.05c0,.42.34.75.75.75s.75-.33.75-.75V.75c0-.42-.34-.75-.75-.75H.75c-.41,0-.75.33-.75.75s.34.75.75.75h2.73c.13,0,.18.15.09.23-1.07.93-1.91,2.03-2.53,3.3C.37,6.41.04,7.88.04,9.43c0,2.13.59,4.06,1.77,5.79.94,1.39,2.13,2.47,3.59,3.24.04.03.09.06.14.07.08.04.18.06.28.06.34,0,.64-.23.72-.56.02-.06.03-.12.03-.19,0-.28-.16-.53-.4-.66Z" fill="#444" stroke-width="0"/></g></g></svg>