<svg xmlns="http://www.w3.org/2000/svg" width="24" height="24" viewBox="0 0 24 24"><path fill="#707575" d="M21.12 8.81c-.09-.36-.2-.7-.32-1.03-.85-2.21-2.43-3.78-4.66-4.61-.33-.12-.67-.22-1.02-.31-.94-.24-1.99-.36-3.12-.36s-2.23.13-3.19.38c-.36.09-.7.2-1.03.32C5.57 4.05 4 5.63 3.17 7.86c-.12.33-.22.67-.31 1.02-.24.94-.36 1.99-.36 3.12s.13 2.23.38 3.19c.09.36.2.7.32 1.03.85 2.21 2.43 3.78 4.66 4.61.33.12.67.22 1.02.31h.01c.94.24 1.98.36 3.11.36s2.23-.13 3.2-.38c.35-.09.69-.2 1.02-.32 2.21-.85 3.78-2.43 4.61-4.66.12-.33.22-.67.31-1.02.24-.94.36-1.99.36-3.12s-.13-2.23-.38-3.19M8.15 4.75c.45-.19.92-.34 1.44-.45.73-.17 1.54-.25 2.41-.25s1.63.08 2.34.24c.52.1 1 .24 1.45.44.82.33 1.53.79 2.11 1.38l-3.97 3.31c-.09-.06-.19-.13-.29-.18-.1-.06-.21-.11-.32-.15s-.22-.07-.33-.1c-.61-.16-1.39-.16-1.99 0-.12.03-.23.07-.35.11-.1.04-.2.09-.3.14-.1.06-.19.12-.28.18h-.01L6.1 6.11c.57-.57 1.25-1.03 2.05-1.36M13.7 12c0 .14-.01.28-.04.4 0 .05 0 .09-.02.14-.02.13-.05.22-.09.32-.13.33-.35.55-.68.68-.05.02-.09.04-.14.05-.06.02-.12.04-.18.05-.31.08-.74.08-1.1 0a.8.8 0 0 1-.18-.05.5.5 0 0 1-.13-.04c-.33-.13-.55-.35-.68-.68-.04-.1-.08-.2-.1-.32-.01-.05-.02-.1-.02-.15-.03-.12-.04-.25-.04-.4 0-.14.01-.27.04-.4 0-.05 0-.1.02-.15.02-.12.05-.21.09-.31.13-.33.35-.55.68-.68.05-.02.09-.04.14-.05.03-.01.05-.02.08-.03s.06-.01.1-.02c.16-.04.34-.06.55-.06s.38.02.55.06c.07.01.13.03.18.05.05.01.09.02.13.04.33.13.55.35.68.68.04.1.08.2.1.32.01.05.02.1.02.15.03.12.04.25.04.4m-9.65 0c0-.84.08-1.63.24-2.34.1-.52.24-1 .44-1.45.13-.32.29-.61.46-.9l3.94 3.27h.01s-.04.07-.05.1A3.9 3.9 0 0 0 8.87 12c0 .35.04.7.12 1 .03.12.07.23.11.35l.03.06-3.94 3.28c-.16-.27-.32-.54-.44-.84-.19-.45-.34-.92-.45-1.44-.17-.73-.25-1.54-.25-2.41m11.8 7.25c-.45.19-.92.34-1.44.45-.73.17-1.54.25-2.41.25s-1.63-.08-2.34-.24c-.52-.1-1-.24-1.45-.44-.82-.33-1.53-.79-2.11-1.38l3.97-3.31c.09.06.19.13.29.18.1.06.21.11.32.15s.22.07.33.1l.07.02c.28.06.59.1.92.1.36 0 .7-.04 1.01-.13.11-.02.22-.06.34-.1.1-.04.2-.09.3-.14.1-.06.19-.12.28-.18h.01l3.96 3.31c-.57.57-1.25 1.03-2.05 1.36m3.86-4.91c-.1.52-.24 1-.44 1.45-.13.32-.29.61-.46.9l-3.94-3.28s.03-.06.04-.09a3.8 3.8 0 0 0 .22-1.32c0-.36-.04-.7-.13-1.01-.02-.11-.06-.22-.1-.34l-.03-.06 3.94-3.28c.16.27.32.54.44.84.19.45.34.92.45 1.44.17.73.25 1.54.25 2.41s-.08 1.63-.24 2.34"/></svg>