<?xml version="1.0" encoding="UTF-8"?><svg id="b" xmlns="http://www.w3.org/2000/svg" viewBox="0 0 20.76 14.91"><g id="c"><g id="d"><path d="m16.21,10.39h0c.29-.3.29-.77,0-1.07l-1.94-1.94c-.14-.14-.22-.33-.22-.53v-2.49c0-.41-.34-.75-.75-.75h0c-.41,0-.75.34-.75.75v3.11c0,.2.08.39.22.53l2.37,2.39c.29.29.77.3,1.06,0Z" fill="#444" stroke-width="0"/><rect x="1" y="2.71" width="3.81" height="1.5" rx=".75" ry=".75" fill="#444" stroke-width="0"/><rect x="0" y="6.71" width="4.81" height="1.5" rx=".75" ry=".75" fill="#444" stroke-width="0"/><rect x="1" y="10.71" width="3.81" height="1.5" rx=".75" ry=".75" fill="#444" stroke-width="0"/><path d="m13.31,0c-4.11,0-7.46,3.34-7.46,7.46s3.34,7.46,7.46,7.46,7.46-3.34,7.46-7.46S17.42,0,13.31,0Zm6.15,7.46c0,3.39-2.76,6.15-6.15,6.15s-6.15-2.76-6.15-6.15S9.92,1.31,13.31,1.31s6.15,2.76,6.15,6.15Z" fill="#444" stroke-width="0"/></g></g></svg>