<?xml version="1.0" encoding="UTF-8"?><svg id="b" xmlns="http://www.w3.org/2000/svg" viewBox="0 0 20 17.3"><g id="c"><g id="d"><path d="m10,8.83c-.65,0-1.17.53-1.17,1.17s.53,1.17,1.17,1.17,1.17-.53,1.17-1.17-.53-1.17-1.17-1.17m-2.58,1.17c0-1.43,1.16-2.58,2.58-2.58s2.58,1.16,2.58,2.58-1.16,2.58-2.58,2.58-2.58-1.16-2.58-2.58h0" fill="#444" fill-rule="evenodd" stroke-width="0"/><path d="m10,5.07c-2.72,0-4.93,2.21-4.93,4.93,0,1.31.52,2.56,1.44,3.48.28.27.29.72.02,1-.27.28-.72.29-1,.02,0,0-.01-.01-.02-.02-2.48-2.48-2.48-6.49,0-8.96,2.48-2.48,6.49-2.48,8.96,0,2.48,2.48,2.48,6.49,0,8.96-.28.27-.73.25-1-.04-.25-.27-.25-.69,0-.96,1.93-1.92,1.93-5.05,0-6.97-.92-.93-2.18-1.44-3.49-1.44" fill="#444" fill-rule="evenodd" stroke-width="0"/><path d="m10,1.41c-4.74,0-8.59,3.85-8.59,8.59,0,2.28.91,4.46,2.52,6.08.28.27.3.71.04,1s-.71.3-1,.04c-.01-.01-.02-.02-.04-.04-3.91-3.9-3.91-10.24,0-14.14,3.9-3.91,10.24-3.91,14.14,0,3.91,3.9,3.91,10.24,0,14.14h0c-.28.27-.73.25-1-.03-.25-.27-.25-.69,0-.96,3.36-3.36,3.36-8.8,0-12.15-1.61-1.61-3.8-2.52-6.08-2.52" fill="#444" fill-rule="evenodd" stroke-width="0"/></g></g></svg>