<?xml version="1.0" encoding="UTF-8"?><svg id="b" xmlns="http://www.w3.org/2000/svg" viewBox="0 0 19.7 20"><g id="c"><g id="d"><path d="m9.85,0C3.59,0,0,3.64,0,10s3.59,10,9.85,10,9.85-3.65,9.85-10S16.11,0,9.85,0Zm2.6,14.49c-.53.41-1.17.65-1.84.76v.82c0,.42-.35.76-.76.76s-.76-.34-.76-.76v-.82c-.67-.11-1.31-.36-1.84-.76l-.89-.66c-.33-.25-.4-.73-.15-1.06.25-.34.73-.41,1.06-.16l.89.67c.26.19.59.33.93.42v-2.88c0-.08-.06-.15-.14-.17-.6-.12-1.15-.37-1.6-.73-.72-.57-1.12-1.35-1.12-2.2s.39-1.63,1.12-2.2c.51-.4,1.1-.65,1.74-.76v-.83c0-.42.35-.76.76-.76s.76.34.76.76v.83c.63.1,1.23.36,1.74.76l.42.33c.33.26.38.73.12,1.06-.26.33-.73.38-1.06.12l-.42-.33c-.24-.18-.51-.31-.8-.4v2.86c0,.08.06.15.14.17.63.12,1.21.37,1.7.74h0c.76.57,1.19,1.38,1.19,2.22s-.43,1.65-1.19,2.21Z" fill="#444" stroke-width="0"/><path d="m7.74,7.72c0,.36.2.73.55,1.01.23.18.5.31.8.4v-2.82c-.29.09-.56.22-.8.4-.36.28-.55.65-.55,1.01Z" fill="#444" stroke-width="0"/><path d="m12.12,12.26c0,.36-.21.72-.58,1h0c-.26.21-.59.34-.93.43v-2.85c.35.1.68.23.93.42.37.28.58.64.58,1Z" fill="#444" stroke-width="0"/></g></g></svg>