<svg xmlns="http://www.w3.org/2000/svg" viewBox="0 0 18.76 18.96"><g fill="#444"><path d="M.17 10.92c.14-.17.35-.27.57-.27h.13c.35 0 .65.25.73.61.37 1.65 1.21 3.06 2.51 4.2 1.46 1.27 3.2 1.92 5.17 1.92 2.19 0 4.07-.77 5.6-2.3 1.52-1.53 2.3-3.41 2.3-5.6s-.78-4.07-2.3-5.6c-1.53-1.53-3.41-2.3-5.6-2.3-1.23 0-2.4.28-3.47.82a8.6 8.6 0 0 0-2.67 2.13c-.04.04-.04.09-.02.14.02.04.06.07.11.07h1.98c.41 0 .74.33.74.74v.11c0 .4-.33.73-.74.73H1.09c-.4 0-.74-.33-.74-.73V1.47c0-.41.34-.74.74-.74h.11c.4 0 .74.33.74.74v1.67c0 .05.03.1.08.12.04 0 .1 0 .13-.04.88-.99 1.93-1.78 3.13-2.34C6.53.29 7.88 0 9.28 0c1.31 0 2.55.25 3.7.74 1.14.5 2.15 1.18 3 2.03.86.85 1.54 1.87 2.03 3.01.5 1.14.75 2.39.75 3.7s-.25 2.56-.75 3.7a9.5 9.5 0 0 1-2.03 3.01c-.85.85-1.86 1.53-3 2.03-1.15.49-2.39.74-3.7.74-2.41 0-4.53-.8-6.32-2.38C1.42 15.21.43 13.52.02 11.56c-.05-.23 0-.46.15-.64"/><path d="m13.41 12.29-2.95-2.95a.6.6 0 0 1-.19-.44V4.66c0-.41-.33-.74-.73-.74h-.11c-.41 0-.74.33-.74.74v4.83c0 .2.08.39.22.53l3.39 3.38a.726.726 0 0 0 1.04 0l.07-.06c.28-.29.28-.76 0-1.05"/></g></svg>