<?xml version="1.0" encoding="UTF-8"?><svg id="c" xmlns="http://www.w3.org/2000/svg" viewBox="0 0 24 24"><path d="m17.69,19.88H7.02c-2.77,0-5.02-2.25-5.02-5.02,0-1.96,1.12-3.71,2.86-4.53-.23-2.74,1.55-5.31,4.27-6.02,2.82-.74,5.71.77,6.77,3.42.53-.06,1.06,0,1.57.18,1.65.58,2.61,2.25,2.37,3.92,1.32.76,2.17,2.19,2.17,3.75,0,1.15-.45,2.23-1.27,3.05-.81.81-1.89,1.26-3.04,1.26Zm-7.12-14.24c-.35,0-.71.04-1.06.14-2.15.56-3.5,2.71-3.08,4.89.07.37-.14.75-.51.87-1.44.48-2.41,1.81-2.41,3.33,0,1.93,1.57,3.51,3.51,3.51h10.67c.75,0,1.45-.29,1.98-.82.53-.53.82-1.23.82-1.98,0-1.16-.72-2.21-1.81-2.62-.39-.15-.58-.57-.45-.96.38-1.08-.19-2.28-1.28-2.66-.43-.15-.9-.16-1.34-.02-.2.06-.42.04-.6-.06-.18-.1-.32-.27-.37-.47-.49-1.89-2.21-3.15-4.08-3.15Z" fill="#444" stroke-width="0"/></svg>