<?xml version="1.0" encoding="UTF-8"?><svg id="b" xmlns="http://www.w3.org/2000/svg" viewBox="0 0 19.5 19.5"><g id="c"><g id="d"><path d="m.75,5.5c-.41,0-.75-.34-.75-.75v-.8C0,1.77,1.77,0,3.95,0h.8c.41,0,.75.34.75.75s-.34.75-.75.75h-.8c-1.35,0-2.45,1.1-2.45,2.45v.8c0,.41-.34.75-.75.75Z" fill="#444" stroke-width="0"/><path d="m18.75,5.5c-.41,0-.75-.34-.75-.75v-.8c0-1.35-1.1-2.45-2.45-2.45h-.8c-.41,0-.75-.34-.75-.75s.34-.75.75-.75h.8c2.18,0,3.95,1.77,3.95,3.95v.8c0,.41-.34.75-.75.75Z" fill="#444" stroke-width="0"/><path d="m15.55,19.5h-.8c-.41,0-.75-.34-.75-.75s.34-.75.75-.75h.8c1.35,0,2.45-1.1,2.45-2.45v-.8c0-.41.34-.75.75-.75s.75.34.75.75v.8c0,2.18-1.77,3.95-3.95,3.95Z" fill="#444" stroke-width="0"/><path d="m4.75,19.5h-.8c-2.18,0-3.95-1.77-3.95-3.95v-.8c0-.41.34-.75.75-.75s.75.34.75.75v.8c0,1.35,1.1,2.45,2.45,2.45h.8c.41,0,.75.34.75.75s-.34.75-.75.75Z" fill="#444" stroke-width="0"/></g></g></svg>