<?xml version="1.0" encoding="UTF-8"?><svg id="e" xmlns="http://www.w3.org/2000/svg" viewBox="0 0 24 24"><path d="m13.09,10.61c0,.61-.49,1.1-1.09,1.1s-1.09-.49-1.09-1.1.49-1.1,1.09-1.1,1.09.49,1.09,1.1Z" fill="#444" stroke-width="0"/><path d="m19.87,4.31c-.22-.09-5.28-2.31-7.87-2.31s-7.65,2.22-7.94,2.35c-.33.19-1.94,1.43-1.94,7.23,0,7.21,6.84,9.67,9.78,10.4.06.01.12.02.18.02s.12-.01.18-.02c2.26-.56,9.62-2.95,9.62-10.4,0-5.8-1.61-7.04-2.01-7.27Zm-7.12,8.78v2.15c0,.41-.34.75-.75.75s-.75-.34-.75-.75v-2.15c-1.06-.33-1.84-1.31-1.84-2.48,0-1.43,1.16-2.6,2.59-2.6s2.59,1.17,2.59,2.6c0,1.17-.78,2.15-1.84,2.48Z" fill="#444" stroke-width="0"/></svg>