<svg xmlns="http://www.w3.org/2000/svg" viewBox="0 0 24 24"><g fill="#5e656d"><path d="M20.95 14.43V9.38c0-1.55-1.06-3.35-2.41-4.11l-4.91-2.74c-1.27-.72-3.27-.72-4.54 0L4.18 5.27c-1.35.75-2.41 2.56-2.41 4.11v5.24c0 1.55 1.06 3.35 2.41 4.11l4.91 2.74c.64.36 1.46.54 2.27.54s1.63-.18 2.27-.54l1.16-.65c.8.75 1.88 1.18 3.01 1.18h.09c1.08-.03 2.11-.45 2.88-1.17.34-.31.64-.69.85-1.06.41-.7.62-1.5.6-2.31-.03-1.14-.48-2.2-1.28-3.01ZM4.91 6.59l4.91-2.74c.41-.23.97-.35 1.53-.35s1.13.12 1.54.35l4.91 2.74c.31.17.61.46.87.79l-7.31 4.26-7.32-4.26c.26-.34.55-.62.87-.79m0 10.83c-.87-.49-1.64-1.79-1.64-2.79V9.39c0-.21.04-.43.1-.66l7.24 4.21v7.48a3 3 0 0 1-.79-.27l-4.91-2.74Zm7.98 2.74c-.22.13-.49.21-.78.27v-7.48l7.24-4.22c.06.23.1.45.1.66v4.04c-.25-.1-.52-.17-.79-.22l-.18-.03c-.16-.02-.33-.04-.49-.04-.1 0-.19-.02-.29-.02-.85.02-1.66.29-2.37.77-.1.07-.2.13-.3.2-.02.02-.05.03-.07.05a4.4 4.4 0 0 0-1.57 3.37v.11c0 .08.01.15.02.22 0 .1.01.19.02.29s.04.21.06.31c.02.08.03.17.06.25l.09.29c.03.08.06.17.09.25.04.09.08.19.13.28.02.03.03.06.04.09l-.98.54Zm7.83-2.67c.01.53-.12 1.05-.4 1.53-.14.25-.33.49-.56.7-.52.49-1.18.76-1.9.78-.99.03-1.93-.48-2.47-1.31-.02-.04-.05-.07-.08-.11-.04-.07-.06-.15-.1-.22-.08-.16-.17-.33-.22-.51-.03-.09-.03-.18-.04-.28-.03-.17-.07-.33-.07-.51 0-.08.01-.15.02-.23.01-.15.02-.3.05-.44 0-.04.03-.08.04-.12.05-.17.1-.34.17-.5.02-.03.04-.06.06-.1.08-.16.17-.32.29-.46.02-.03.05-.05.08-.08.12-.14.25-.28.39-.4.95-.76 2.27-.83 3.28-.25.01 0 .03.01.04.02.12.07.24.16.35.25.06.05.13.09.18.14.57.54.89 1.28.91 2.07Z"/><path d="m18.69 16.06-1.4 1.36-.41-.39a.746.746 0 0 0-1.06.02c-.29.3-.28.77.02 1.06l.93.89a.75.75 0 0 0 1.04 0l1.92-1.87c.3-.29.3-.76.02-1.06-.29-.3-.76-.3-1.06-.01"/></g></svg>