<?xml version="1.0" encoding="UTF-8"?><svg id="d" xmlns="http://www.w3.org/2000/svg" viewBox="0 0 24 24"><path d="m15.59,12.69h-7.22c-.41,0-.75-.34-.75-.75s.34-.75.75-.75h7.22c.41,0,.75.33.75.75s-.34.75-.75.75Zm0,3.76h-7.22c-.41,0-.75-.34-.75-.75s.34-.75.75-.75h7.22c.41,0,.75.33.75.75s-.34.75-.75.75Zm-7.22-9.02h2.76c.41,0,.75.33.75.75s-.34.75-.75.75h-2.76c-.41,0-.75-.34-.75-.75s.34-.75.75-.75Zm3.62-5.18C5.43,2.25,3.11,4.8,3.11,12s2.33,9.75,8.89,9.75,8.89-2.55,8.89-9.75S18.56,2.25,12,2.25Z" fill="#444" fill-rule="evenodd" stroke-width="0"/></svg>