<?xml version="1.0" encoding="UTF-8"?><svg id="b" xmlns="http://www.w3.org/2000/svg" viewBox="0 0 24 24"><path d="m11.11,2.31c0-.17-.14-.31-.31-.31h-1.61c-.54,0-1.13.11-1.65.46-1.19.79-2.06,1.91-2.63,2.8-.24.38-.69.97-.42.96l6.31.05c.17,0,.31-.14.31-.31v-3.64Zm1.79,3.64c0,.17.14.31.31.31h6.46c.21,0-.3-.62-.57-1.01-.56-.89-1.43-2.01-2.62-2.8-.52-.34-1.12-.46-1.65-.46h-1.61c-.17,0-.31.14-.31.31v3.64ZM3.73,16c-.25-1.64-.52-4.5-.02-7.54.04-.24.24-.41.48-.41,2.27,0,13.34,0,15.61,0,.24,0,.44.18.48.41.5,3.04.23,5.9-.02,7.54-.18,1.2-1.14,2.08-2.31,2.21-.61.11-1.21.22-1.06.1.62-.86.72-2,.25-2.96-.84-1.66-2.42-3.21-4.1-3.97-.67-.3-1.42-.3-2.09,0-1.67.76-3.26,2.31-4.09,3.97-.48.96-.38,2.1.24,2.96.24.3-.69.03-1.05-.04-1.26-.38-2.14-1.07-2.32-2.27Zm8.27,6c-.59,0-1.07-.48-1.07-1.07v-3.44c-.43.04-.86.1-1.3.19-.4.08-.81-.08-1.06-.4s-.29-.76-.11-1.13c.55-1.1,1.55-2.16,2.63-2.82.56-.34,1.26-.34,1.82,0,1.08.66,2.08,1.72,2.63,2.82.18.36.14.8-.11,1.13-.25.32-.66.48-1.06.4-.44-.09-.87-.15-1.3-.19v3.44c0,.59-.48,1.07-1.07,1.07Z" fill-rule="evenodd" stroke-width="0"/></svg>