<svg xmlns="http://www.w3.org/2000/svg" viewBox="0 0 24 24"><g fill="#444"><path d="M7.94 2.54c-.4 0-.72.32-.72.72V5c0 .4.32.72.72.72s.72-.32.72-.72V3.26c0-.4-.32-.72-.72-.72m3.46 0c-.4 0-.72.32-.72.72V5c0 .4.4.16.79.16s.65.24.65-.16V3.26c0-.4-.32-.72-.72-.72m3.47 0c-.4 0-.72.32-.72.72V5c0 .4.32.72.72.72s.72-.32.72-.72V3.26c0-.4-.32-.72-.72-.72m5.21 5.21h-1.74c-.4 0-.72.32-.72.72s.32.72.72.72h1.74c.4 0 .72-.32.72-.72s-.32-.72-.72-.72M7.94 18.16c-.4 0-.72.32-.72.72v1.74c0 .4.32.72.72.72s.72-.32.72-.72v-1.74c0-.4-.32-.72-.72-.72M4.46 7.75H2.72c-.4 0-.72.32-.72.72s.32.72.72.72h1.74c.4 0 .72-.32.72-.72s-.32-.72-.72-.72m0 3.47H2.72c-.4 0-.72.32-.72.72s.32.72.72.72h1.74c.4 0-.34-.32-.34-.72s.74-.72.34-.72m0 3.47H2.72c-.4 0-.72.32-.72.72s.32.72.72.72h1.74c.4 0 .72-.32.72-.72s-.32-.72-.72-.72m12.25-.29c-1.38 0-2.23.86-2.23 2.23s.86 2.23 2.23 2.23 2.23-.86 2.23-2.23-.86-2.23-2.23-2.23m1.16 2.23c0 .78-.38 1.16-1.16 1.16s-1.16-.38-1.16-1.16.38-1.16 1.16-1.16 1.16.38 1.16 1.16"/><path d="m21.8 15.89-1.9-3.32c-.13-.23-.32-.42-.55-.55s-.49-.2-.75-.2h-3.8c-.26 0-.52.07-.75.2s-.42.32-.55.55l-1.9 3.32c-.13.23-.2.49-.2.75s.07.52.2.75l1.9 3.32c.13.23.32.42.55.55s.49.2.75.2h3.8c.26 0 .52-.07.75-.2s.42-.32.55-.55l1.9-3.32c.26-.46.26-1.04 0-1.5m-.91.75c0 .07-.02.14-.05.2l-1.9 3.32c-.04.06-.09.11-.14.14-.06.03-.13.05-.2.05h-3.8c-.07 0-.14-.02-.2-.05a.3.3 0 0 1-.14-.14l-1.9-3.32a.41.41 0 0 1 0-.4l1.9-3.32c.04-.06.09-.11.14-.14.06-.03.13-.05.2-.05h3.8c.07 0 .14.02.2.05s.11.08.14.14l1.9 3.32c.03.06.05.13.05.2m-7.8-9.54c-1.01-.26-2.36-.26-3.37 0-1.58.4-2.65 1.41-3.12 2.89-.13.38-.21.79-.25 1.22-.03.23-.04.47-.04.72s0 .49.04.72c.04.43.13.85.25 1.21.3.93.81 1.66 1.54 2.17.07.06.13.11.21.14s.16.05.26.05c.21 0 .4-.11.52-.26a.68.68 0 0 0 0-.8c-.03-.04-.07-.07-.11-.11-.53-.34-.88-.84-1.11-1.46-.04-.12-.08-.23-.12-.35v-.02c-.11-.39-.16-.82-.16-1.3s.06-.91.16-1.3v-.02c.04-.12.08-.23.12-.35.32-.88.94-1.48 1.84-1.79l.14-.05c.14-.05.29-.08.44-.11.32-.07.67-.11 1.07-.11s.75.04 1.07.11c.15.03.3.06.44.11l.14.05c.6.21 1.08.55 1.43 1.02.03.04.06.08.1.11.12.11.27.16.43.16s.32-.06.43-.16c.14-.13.23-.31.23-.51 0-.18-.08-.36-.19-.48-.56-.74-1.38-1.25-2.4-1.51Z"/><path d="M19.04 8.94c0-.06-.03-.11-.05-.16-.12-.37-.25-.7-.41-1.03-.65-1.3-1.66-2.28-2.98-2.91-.44-.22-.93-.4-1.45-.53h-.04c-.62-.16-1.28-.26-1.99-.3-.24 0-.47-.02-.72-.02s-.48 0-.72.02c-.7.04-1.37.13-1.99.3h-.03c-.52.13-1 .31-1.45.52a6.28 6.28 0 0 0-2.99 2.92c-.17.35-.32.7-.43 1.09-.04.12-.08.23-.1.36-.19.63-.3 1.3-.34 2.02q-.03.345-.03.72c0 .375 0 .49.03.72.04.72.14 1.4.34 2.02.02.13.06.24.1.36.12.39.26.74.43 1.09.65 1.3 1.66 2.29 2.99 2.92.44.21.93.39 1.45.52h.03c.04 0 .09.02.13.03.04 0 .07.02.11.02h.21c.35-.05.62-.35.62-.69s-.27-.65-.62-.69c-.13-.03-.37-.1-.38-.1-1.73-.54-2.92-1.65-3.53-3.3-.32-.84-.48-1.8-.48-2.91s.16-2.07.48-2.91c.61-1.65 1.8-2.76 3.53-3.3h.03c.77-.25 1.65-.37 2.63-.37s1.86.12 2.63.37h.03c1.73.54 2.92 1.65 3.53 3.3.02.06.05.13.07.18.04.16.14.3.27.4.11.09.25.13.4.13.16 0 .31-.05.42-.13a.71.71 0 0 0 .29-.56v-.11Z"/></g></svg>