<?xml version="1.0" encoding="UTF-8"?><svg id="a" xmlns="http://www.w3.org/2000/svg" viewBox="0 0 24 24"><path d="m14.29,22.08h-7.71c-2.15,0-3.9-1.65-3.9-3.67v-10.4c0-2.02,1.75-3.67,3.9-3.67h5.66c1.75,0,3.08.33,4.06.98,1.25.83,1.88,2.14,1.88,3.87v9.22c0,2.02-1.75,3.67-3.9,3.67ZM6.57,5.83c-1.32,0-2.4.97-2.4,2.17v10.4c0,1.2,1.08,2.17,2.4,2.17h7.71c1.32,0,2.4-.97,2.4-2.17v-9.22c0-1.22-.4-2.08-1.22-2.63-.73-.49-1.78-.73-3.13-.73h-5.76Z" fill="#444" stroke-width="0"/><path d="m17.27,1.92h-8.08c-2.07,0-3.76,1.31-4,2.99h1.51c.25-.85,1.27-1.49,2.49-1.49h8.08c1.41,0,2.55.85,2.55,1.89v9.41c0,.97-.99,1.76-2.25,1.87v1.5c2.09-.13,3.75-1.58,3.75-3.37V5.31c0-1.87-1.82-3.39-4.05-3.39Z" fill="#444" stroke-width="0"/><path d="m15,9.87c-.49,0-.78-.2-.94-.36-.4-.41-.39-.96-.38-1.48.01-.65,0-1.1-.34-1.44-.33-.34-1.16-.75-3.2-.75v-1.5c2.09,0,3.49.39,4.28,1.2.81.82.78,1.85.77,2.53,0,.1,0,.21,0,.31h2.25v1.5h-2.43Z" fill="#444" stroke-width="0"/><path d="m9.11,7.05h-1.86c-1.09,0-1.98.89-1.98,1.98v1.86c0,1.08.89,1.97,1.98,1.97h1.86c1.09,0,1.97-.89,1.97-1.97v-1.86c0-1.09-.88-1.98-1.97-1.98Zm.71,3.84c0,.39-.32.7-.71.7h-1.86c-.39,0-.71-.31-.71-.7v-1.86c0-.39.32-.71.71-.71h1.86c.39,0,.71.32.71.71v1.86Z" fill="#444" stroke-width="0"/><path d="m12.51,15.85h-6.61c-.41,0-.63.32-.63.63s.22.63.63.63h6.61c.41,0,.63-.32.63-.63s-.22-.63-.63-.63" fill="#444" stroke-width="0"/><path d="m5.27,14.71c0,.31.22.63.63.63h6.61c.41,0,.63-.32.63-.63s-.22-.63-.63-.63h-6.61c-.18,0-.35.07-.47.21-.1.11-.16.27-.16.43h0Z" fill="#444" stroke-width="0"/><path d="m12.51,17.57h-6.61c-.41,0-.63.32-.63.63s.22.63.63.63h6.61c.41,0,.63-.32.63-.63s-.22-.63-.63-.63" fill="#444" stroke-width="0"/></svg>