<svg xmlns="http://www.w3.org/2000/svg" width="24" height="24"><g fill="#707575"><path d="M21.04 8.51c-.18-.65-.43-1.24-.73-1.79l-.19-.34c-.07-.11-.14-.22-.21-.32-1.36-1.98-3.54-3.19-6.43-3.48-.47-.06-.97-.08-1.48-.08-.44 0-.87.02-1.28.06-2.9.25-5.11 1.4-6.5 3.32-.53.73-.94 1.56-1.22 2.5-.33 1.08-.5 2.29-.5 3.62s.16 2.52.49 3.59c.13.45.3.89.49 1.29.18.38.39.74.62 1.07 1.35 1.98 3.53 3.18 6.42 3.47.47.06.97.08 1.48.08.44 0 .87-.02 1.28-.06 2.9-.25 5.11-1.4 6.51-3.32.07-.1.14-.21.21-.32.3-.45.55-.95.76-1.49.09-.21.16-.42.23-.64.34-1.09.51-2.32.51-3.67 0-1.28-.15-2.45-.46-3.49m-7.02 11.27c-.55.1-1.14.16-1.77.16-.08.01-.17.01-.25.01-.14 0-.28 0-.41-.01-.63-.02-1.22-.08-1.77-.19-1.67-.32-3-1.03-3.94-2.11-.86-.95-1.42-2.18-1.67-3.67-.11-.61-.16-1.27-.16-1.97 0-.77.06-1.49.2-2.15.27-1.48.86-2.69 1.74-3.62.97-1.04 2.31-1.72 3.99-2.01.55-.1 1.14-.16 1.77-.16.08-.01.17-.01.25-.01.14 0 .28 0 .41.01.63.02 1.22.08 1.77.2 1.67.31 3 1.02 3.94 2.1.86.95 1.42 2.18 1.67 3.67.11.61.16 1.27.16 1.97 0 .77-.06 1.49-.2 2.15-.27 1.48-.86 2.69-1.74 3.62-.97 1.04-2.31 1.72-3.99 2.01"/><path d="M12.5 16.75c-.41 0-.75-.34-.75-.75v-3.9c.01-.22 0-.31-.01-.34h-.24c-.41 0-.74-.32-.75-.73 0-.41.32-.76.73-.77.58-.02 1.03.15 1.34.47.33.34.46.81.43 1.43v3.85c0 .41-.34.75-.75.75ZM12.26 9c-.55 0-1-.45-1-1s.44-1 1-1c.55 0 1 .45 1 1s-.45 1-1 1"/></g></svg>