<svg xmlns="http://www.w3.org/2000/svg" viewBox="0 0 24 24"><path fill="#5e656d" d="M20.99 19.47c-.2-.02-.73-.2-1.14-.36-.35-.14-.7-.28-1.05-.37.84-1.25 1.49-2.63 1.87-3.65.14-.4.28-.77.08-1.21-.19-.42-.56-.58-.98-.76l-1.66-.71-.16-2.04c-.13-1.66-.21-2.57-.95-3.23-.33-.3-.71-.45-1.18-.54l-.08-.65c-.16-1.19-.25-1.91-.85-2.43-.59-.5-1.29-.5-2.57-.5h-.63c-1.28 0-1.98 0-2.57.5-.6.51-.7 1.23-.85 2.42l-.08.65c-.47.09-.85.25-1.18.54-.74.66-.82 1.57-.95 3.24L5.9 12.4l-1.66.71c-.42.18-.79.33-.98.76-.2.44-.06.81.09 1.22.38 1.02 1.03 2.4 1.88 3.66-.25.09-.5.2-.74.31-.5.23-.97.44-1.42.41-.4-.03-.77.28-.8.69s.28.77.69.8c.85.07 1.57-.27 2.15-.54.34-.16.69-.32.9-.32.29 0 .85.22 1.3.4.61.24 1.18.46 1.68.46h.02c.59-.04 1.17-.24 1.72-.47.45-.19.92-.39 1.29-.39s.84.2 1.29.39c.54.23 1.1.47 1.63.47h.22c.76 0 1.41-.3 1.95-.55.34-.16.69-.32.9-.32.29 0 .83.21 1.3.4.62.24 1.19.49 1.71.46.41 0 .75-.35.74-.76s-.31-.73-.76-.74ZM9.75 6.15c.1-.81.17-1.34.33-1.48.17-.15.74-.15 1.6-.15h.63c.86 0 1.43 0 1.6.15.16.14.23.67.34 1.48l.04.34H9.7l.04-.34Zm-2.21 4.34c.11-1.37.17-1.98.45-2.23.3-.27 1.04-.27 2.39-.27h3.23c1.35 0 2.09 0 2.39.27.28.25.34.86.45 2.23l.1 1.25-3.52-1.5c-.83-.36-1.25-.35-2.07 0l-3.52 1.5.1-1.26Zm9.28 8.39s-.02.02-.03.04c-.11.05-.22.1-.32.15-.49.23-.95.44-1.48.41-.29-.01-.71-.18-1.12-.35-.56-.24-1.2-.51-1.88-.51s-1.32.27-1.88.51c-.41.17-.83.35-1.13.35h-.01c-.23 0-.73-.2-1.14-.36-.23-.09-.47-.18-.7-.26-1.42-1.71-2.25-3.86-2.4-4.27 0-.02-.01-.03-.02-.04a.3.3 0 0 0 .08-.04l6.74-2.87c.18-.08.39-.17.44-.17.06 0 .25.09.45.17l6.74 2.87s.06.02.08.04c0 .01-.01.03-.02.04-.15.42-1 2.58-2.43 4.3Z"/></svg>