<?xml version="1.0" encoding="UTF-8"?><svg id="b" xmlns="http://www.w3.org/2000/svg" viewBox="0 0 21.24 21.06"><g id="c"><g id="d"><path d="m17.01,1.69v-.92c0-.43-.35-.77-.77-.77s-.77.34-.77.77v.66c-.72-.08-1.51-.12-2.4-.12s-1.68.04-2.4.12v-.66c0-.43-.34-.77-.77-.77s-.77.34-.77.77v.91c-3.08.75-4.23,2.75-4.23,7.32,0,5.97,1.84,7.69,8.17,7.69s8.17-1.72,8.17-7.69c0-4.56-1.14-6.56-4.23-7.31Zm-7.88,1.57v.14c0,.42.35.77.77.77s.77-.35.77-.77v-.44c.65-.07,1.44-.11,2.4-.11s1.75.04,2.4.11v.44c0,.42.34.77.77.77s.77-.35.77-.77v-.14c1.19.36,1.89,1.02,2.28,2.13H6.87c.38-1.12,1.06-1.77,2.26-2.13Zm3.94,11.89c-5.46,0-6.64-1.09-6.64-6.15,0-.77.04-1.45.1-2.06h13.06c.07.6.11,1.28.11,2.06,0,5.06-1.18,6.15-6.63,6.15Z" fill="#444" stroke-width="0"/><path d="m14,18.19c-.2,0-.37.08-.51.2h0c-.91.79-2.47,1.13-5.32,1.13-5.52,0-6.63-1.03-6.63-6.15,0-.78.03-1.46.09-2.07h1.38c.43,0,.77-.34.77-.77s-.34-.77-.77-.77h-1.04c.3-.9.63-1.37,1.39-1.74h0c.13-.09.23-.21.29-.35.04-.09.06-.19.06-.3s-.02-.21-.06-.3c-.12-.28-.39-.48-.71-.48-.1,0-.2.02-.28.05-.02.01-.04.02-.05.03-.06.04-.12.07-.18.11-1.73,1.06-2.42,3.03-2.42,6.59,0,5.97,1.83,7.69,8.17,7.69,3.09,0,5.02-.43,6.24-1.46,0,0,.01-.01.02-.01.05-.04.09-.08.13-.12.01,0,.01-.01.01-.01.12-.13.19-.31.19-.51,0-.21-.08-.4-.22-.54-.14-.14-.33-.22-.54-.22Z" fill="#444" stroke-width="0"/></g></g></svg>