<?xml version="1.0" encoding="UTF-8"?><svg id="b" xmlns="http://www.w3.org/2000/svg" viewBox="0 0 20 14.34"><g id="c"><path id="d" d="m19.36,4.09v-.12c-.25-2.26-2.15-3.97-4.44-3.97H5.08C2.79,0,.89,1.71.65,3.97v.12c-.12.88-.65,5.33-.65,6.75,0,1.93,1.58,3.5,3.53,3.5,1.23,0,1.86-.63,2.37-1.14l.41-.4c.79-.78,1.83-1.21,2.94-1.21h1.5c1.11,0,2.15.43,2.94,1.21l.41.41c.51.5,1.14,1.13,2.37,1.13,1.95,0,3.53-1.57,3.53-3.5,0-1.39-.49-5.52-.64-6.75Zm-4.56,1.25c0-.42.34-.75.75-.75h.01c.41,0,.75.33.75.75s-.34.75-.75.75-.76-.34-.76-.75Zm-1.27,1.83c0,.41-.33.75-.75.75s-.75-.34-.75-.75.33-.75.75-.75.75.34.75.75Zm-9.08-.17c-.41,0-.75-.33-.75-.75s.34-.75.75-.75h1.1v-1.08c0-.42.34-.75.75-.75s.75.33.75.75v1.08h1.1c.41,0,.75.34.75.75s-.34.75-.75.75h-1.1v1.09c0,.41-.34.75-.75.75s-.75-.34-.75-.75v-1.09h-1.1Z" fill="#444" stroke-width="0"/></g></svg>