<?xml version="1.0" encoding="UTF-8"?><svg id="c" xmlns="http://www.w3.org/2000/svg" viewBox="0 0 24 24"><path d="m21.76,10.43c-.37-4.72-3.63-8.15-7.97-8.34-.28,0-.56-.02-.84-.04-.93-.07-1.89-.09-2.76.04-3.94.18-8.02,3.21-8.02,7.97,0,.95.08,2.88.36,4.12,0,0,0,.01,0,.02.8,3.14,2.56,4.88,5.21,5.16.09.01.16.1.19.19.23.82.64,1.44.96,1.82.34.41.83.63,1.33.63.04,0,.09,0,.13,0,.61-.05,1.18-.41,1.56-1.04l.04-.09c.12-.18.3-.28.49-.29.1,0,.32.02.55.32l.05.05c.44.5,1.04.78,1.7.76.65-.02,1.26-.34,1.61-.81l.15-.16c.16-.21.36-.26.51-.26.2,0,.39.09.48.21.41.63,1.12.98,1.82.9.66-.07,1.21-.49,1.43-1.06.18-.36.28-.77.36-1.1l.05-.2c.59-2.98.79-5.86.61-8.8Zm-2.07,8.47l-.04.18c-.06.27-.14.57-.27.84-.04.11-.11.17-.21.18-.12,0-.29-.04-.44-.27-.39-.53-1.02-.85-1.69-.85-.71-.01-1.3.3-1.65.77l-.15.16c-.14.19-.33.29-.53.3-.18.02-.38-.08-.55-.28l-.02-.02c-.42-.55-1.06-.85-1.74-.83-.68.02-1.31.38-1.74,1.04l-.05.11c-.12.19-.27.26-.37.27-.05,0-.12,0-.2-.09-.21-.26-.5-.69-.66-1.26-.2-.7-.77-1.2-1.47-1.28-2-.22-3.28-1.54-3.92-4.03-.22-.97-.32-2.63-.32-3.78,0-3.86,3.35-6.32,6.66-6.48.8-.12,1.65-.1,2.51-.04.31.02.62.03.91.04,3.53.16,6.2,3.02,6.5,6.95.17,2.8-.02,5.55-.57,8.37Z" fill="#444" stroke-width="0"/><path d="m12.51,9.18c-.42,0-.76.34-.76.76v1.9c0,.42.34.76.76.76s.76-.34.76-.76v-1.9c0-.42-.34-.76-.76-.76Z" fill="#444" stroke-width="0"/><path d="m18.01,9.18c-.42,0-.76.34-.76.76v1.9c0,.42.34.76.76.76s.76-.34.76-.76v-1.9c0-.42-.34-.76-.76-.76Z" fill="#444" stroke-width="0"/></svg>