<svg xmlns="http://www.w3.org/2000/svg" viewBox="0 0 16.18 20.01"><g fill="#444"><path d="M14.33 1.91C13.08.7 11.53 0 10.09 0H4.05C1.82 0 0 1.83 0 4.08v11.85c0 2.25 1.82 4.08 4.05 4.08h8.08c2.23 0 4.05-1.83 4.05-4.08V5.43c0-1.07-.71-2.41-1.85-3.52m.11 2.66-1.57.03c-.91.02-1.14-.15-1.19-.2-.11-.11-.1-.49-.09-.85.01-.61-.02-1.25-.3-1.81.69.24 1.39.65 2 1.25.57.55.93 1.1 1.15 1.59Zm-2.3 13.93H4.05c-1.41 0-2.55-1.16-2.55-2.58V3.45c0-1.07.88-1.95 1.95-1.95h4.32c2.36.26 2.34.96 2.32 2.01-.01.61-.03 1.38.53 1.94.44.44 1.12.65 2.12.65h.16l1.71-.03s.08.04.08.08v9.78c0 1.42-1.14 2.58-2.55 2.58Z"/><path d="M6.09 11.76h-2c-.41 0-.75-.34-.75-.75s.34-.75.75-.75h2c.41 0 .75.34.75.75s-.34.75-.75.75m6 0h-2c-.41 0-.75-.34-.75-.75s.34-.75.75-.75h2c.41 0 .75.34.75.75s-.34.75-.75.75m-6 4h-2c-.41 0-.75-.34-.75-.75s.34-.75.75-.75h2c.41 0 .75.34.75.75s-.34.75-.75.75m6 0h-2c-.41 0-.75-.34-.75-.75s.34-.75.75-.75h2c.41 0 .75.34.75.75s-.34.75-.75.75"/></g></svg>