<?xml version="1.0" encoding="UTF-8"?><svg id="b" xmlns="http://www.w3.org/2000/svg" viewBox="0 0 24 24"><path d="m19.99,6.99s-.02-.04-.03-.06c0-.01,0-.02,0-.03,0,0,0,0,0-.01,0,0,0,0,0,0-.08-.21-1.24-2.98-3.55-4.46-.42-.27-.95-.42-1.53-.42h-5.74c-.58,0-1.1.14-1.53.42-2.31,1.49-3.47,4.25-3.55,4.46,0,0,0,0,0,0,0,0,0,.01,0,.01,0,.01,0,.03,0,.04,0,0,0,0,0,0,0,.02-.02.04-.02.06-.92,3.66-.55,7.31-.25,9.16.17,1.09,1.04,1.91,2.16,2.04.03,0,.06,0,.09,0,.37,0,.7-.28.74-.66.05-.41-.25-.78-.66-.83-.44-.05-.79-.37-.85-.79-.26-1.64-.58-4.78.1-7.99h13.33c.68,3.21.36,6.35.1,7.99-.07.42-.41.74-.85.79-.41.05-.71.42-.66.83.05.41.42.71.83.66,1.11-.13,1.98-.95,2.16-2.04.3-1.85.66-5.5-.25-9.16Zm-11.58-3.31c.23-.15.52-.18.72-.18h2.12v2.92h-5.3c.49-.84,1.31-2.01,2.46-2.74Zm4.34,2.74v-2.92h2.12c.2,0,.49.03.72.18,1.14.73,1.97,1.9,2.46,2.74h-5.29Z" stroke-width="0"/><path d="m13.06,13.38c-.64-.43-1.47-.43-2.12,0-1.08.73-2.05,1.81-2.59,2.89-.19.37-.04.82.34,1.01.37.19.82.03,1.01-.34.33-.67.91-1.36,1.56-1.91v6.21c0,.41.34.75.75.75s.75-.34.75-.75v-6.21c.65.55,1.22,1.24,1.56,1.91.13.26.4.41.67.41.11,0,.23-.03.33-.08.37-.19.52-.64.34-1.01-.54-1.08-1.51-2.16-2.59-2.89Z" stroke-width="0"/></svg>