<?xml version="1.0" encoding="UTF-8"?><svg id="e" xmlns="http://www.w3.org/2000/svg" viewBox="0 0 24 24"><path d="m12,2.36c-1.05,0-2.34.17-3.59.51-1.24.34-2.46.88-3.35,1.63-.57.48-1.18,1.26-1.7,2.15-.52.89-.96,1.93-1.19,2.94-.23,1-.26,2.02.11,2.86.26.6.71,1.08,1.36,1.38.22-2.05.7-4.25,1.04-5.53.1-.38.49-.61.88-.5.38.1.61.49.5.88-.37,1.38-.89,3.85-1.06,5.96,0,.02,0,.04,0,.06-.04.46-.06.91-.06,1.35,0,2.34.78,3.79,2.13,4.62,1.3.81,3.07.99,4.94.99s3.64-.18,4.94-.99c1.34-.83,2.13-2.28,2.13-4.62,0-.44-.02-.89-.06-1.35,0-.02,0-.04,0-.06-.17-2.11-.69-4.58-1.06-5.96-.1-.38.12-.77.5-.88.38-.1.77.12.88.5.35,1.29.82,3.49,1.04,5.53.66-.31,1.1-.78,1.36-1.38.36-.84.33-1.86.11-2.86-.23-1.01-.67-2.04-1.19-2.94-.52-.89-1.12-1.67-1.7-2.15-.89-.75-2.11-1.28-3.35-1.63-1.24-.35-2.54-.51-3.58-.51Zm3.39,8.11c0-.49-.4-.89-.89-.89s-.89.4-.89.89v.71c0,.49.4.89.89.89s.89-.4.89-.89v-.71Zm-5.89-.89c.49,0,.89.4.89.89v.71c0,.49-.4.89-.89.89s-.89-.4-.89-.89v-.71c0-.49.4-.89.89-.89Zm4.02,5.86c-.24.56-.75,1-1.04,1.19-.29.19-.67.19-.96,0-.29-.19-.8-.63-1.04-1.19-.11-.24-.08-.51.05-.72.12-.19.3-.3.45-.35.22-.07.58-.14,1.01-.14s.79.08,1.01.14c.15.05.33.15.45.35.13.21.16.48.05.72Z" fill="#444" fill-rule="evenodd" stroke-width="0"/></svg>