<?xml version="1.0" encoding="UTF-8"?><svg id="e" xmlns="http://www.w3.org/2000/svg" viewBox="0 0 24 24"><path d="m12.71,8.49c-1.19-.23-2.41.14-3.25.99-.84.84-1.21,2.04-.98,3.22.27,1.42,1.4,2.55,2.82,2.82.23.04.46.07.7.07.95,0,1.88-.37,2.56-1.05.84-.84,1.21-2.04.98-3.22-.27-1.42-1.4-2.55-2.82-2.82Zm.78,4.98c-.5.5-1.2.71-1.91.57-.81-.15-1.48-.82-1.63-1.63-.13-.7.07-1.39.57-1.88.4-.4.93-.61,1.48-.61.14,0,.28.01.43.04.81.15,1.48.82,1.63,1.63h0c.13.7-.07,1.39-.57,1.88Z" fill="#444" stroke-width="0"/><path d="m18.45,12c0-.41-.34-.75-.75-.75h0c-.41,0-.75.34-.75.76s.34.75.76.75.75-.34.75-.76Z" fill="#444" stroke-width="0"/><path d="m6.32,11.25h0c-.41,0-.75.34-.75.76s.34.75.76.75.75-.34.75-.76-.34-.75-.75-.75Z" fill="#444" stroke-width="0"/><path d="m12,4.5c-7.28,0-10,0-10,7.5,0,3.92.76,5.78,2.51,6.68.09.08.2.13.33.16,1.6.66,3.93.67,7.17.67,7.28,0,10,0,10-7.5s-2.72-7.5-10-7.5Zm-6.28,13.07c-.09-.9-.85-1.61-1.77-1.62-.35-.88-.45-2.14-.45-3.95s.1-2.95.41-3.83c.93-.04,1.67-.79,1.72-1.72,1.27-.45,3.26-.46,6.37-.46,2.95,0,4.88,0,6.16.39.01.99.82,1.79,1.81,1.79h.12c.31.88.41,2.09.41,3.82,0,1.81-.11,3.07-.45,3.95h-.07c-.95,0-1.72.73-1.8,1.66-1.28.39-3.22.39-6.18.39s-5,0-6.28-.43Z" fill="#444" stroke-width="0"/></svg>