<?xml version="1.0" encoding="UTF-8"?><svg id="e" xmlns="http://www.w3.org/2000/svg" viewBox="0 0 24 24"><path d="m16.86,16.62h-.1c-.41,0-.74-.33-.74-.74s.33-.74.74-.74h.1c.41,0,.74.32.74.74s-.33.74-.74.74Zm-1.7-3.36h-.1c-.41,0-.74-.32-.74-.74s.33-.74.74-.74h.1c.41,0,.74.33.74.74s-.33.74-.74.74Zm-4.32,1.65h-1.06v1.02c0,.41-.33.74-.74.74s-.74-.32-.74-.74v-1.02h-1.06c-.41,0-.74-.32-.74-.74s.33-.74.74-.74h1.06v-1.01c0-.41.33-.74.74-.74s.74.32.74.74v1.01h1.06c.41,0,.74.33.74.74s-.33.74-.74.74Zm2.48-8.45v-.53c-.02-1.48-1.22-2.72-2.72-2.67h-1c-.14,0-.27-.06-.37-.16-.1-.1-.16-.23-.16-.37,0-.4-.35-.76-.74-.73-.41,0-.73.33-.73.75.01,1.1.91,1.99,2,1.99h1.02c.67,0,1.23.54,1.23,1.21v.5c-7.16.03-9.72,2.07-9.72,7.78s2.59,7.78,9.88,7.78,9.88-2.04,9.88-7.78c0-5.39-2.27-7.51-8.57-7.76Z" fill="#444" fill-rule="evenodd" stroke-width="0"/></svg>