<svg xmlns="http://www.w3.org/2000/svg" viewBox="0 0 24 24"><path fill="#444" d="M20.21 12.79c.23 0 .42-.07.57-.23.15-.15.22-.34.22-.56s-.07-.41-.22-.56a.74.74 0 0 0-.57-.23h-1.15V4.59h1.15c.23 0 .42-.07.57-.23.15-.15.22-.34.22-.56s-.07-.41-.22-.56a.74.74 0 0 0-.57-.23H3.79a.74.74 0 0 0-.57.23c-.15.15-.22.34-.22.56s.07.41.22.56c.15.16.34.23.57.23h1.16v6.62H3.79a.74.74 0 0 0-.57.23c-.15.15-.22.34-.22.56s.07.41.22.56c.15.16.34.23.57.23h1.16v6.62H3.79a.74.74 0 0 0-.57.23c-.15.15-.22.34-.22.56s.07.41.22.56c.15.16.34.23.57.23H20.2c.23 0 .42-.07.57-.23.15-.15.22-.34.22-.56s-.07-.41-.22-.56a.74.74 0 0 0-.57-.23h-1.15v-6.62h1.15Zm-2.74-1.59h-.26a.77.77 0 0 0-.79.79.77.77 0 0 0 .79.79h.26v6.41c0 .12-.1.21-.22.21H6.77c-.13 0-.22-.1-.22-.21v-6.41h.26a.77.77 0 0 0 .79-.79.77.77 0 0 0-.79-.79h-.26V4.79c0-.12.1-.21.22-.21h10.47c.13 0 .22.1.22.21v6.41Z"/><path fill="#444" d="M12 8.87c-.16 0-.31.05-.45.13h.9a.9.9 0 0 0-.45-.13m2.43 2.35c-.28-.35-.85-1.03-1.72-2.03a.8.8 0 0 0-.26-.19h-.9c-.09.05-.18.11-.26.19-.86 1-1.43 1.68-1.72 2.03-.39.49-.58 1.06-.58 1.72 0 .82.3 1.52.88 2.1.58.57 1.3.86 2.12.86s1.54-.29 2.12-.86c.58-.58.88-1.28.88-2.1 0-.66-.2-1.23-.58-1.71Zm-1.04 3.06c-.77.75-2 .75-2.76 0-.38-.37-.56-.81-.56-1.34 0-.42.11-.76.35-1.06.27-.34.8-.96 1.59-1.89.8.93 1.33 1.56 1.6 1.89.23.29.35.64.35 1.05 0 .53-.19.97-.56 1.34Z"/></svg>