<?xml version="1.0" encoding="UTF-8"?>
<svg id="b" xmlns="http://www.w3.org/2000/svg" viewBox="0 0 24 24">
  <path
    d="m11.4,7.5h1.2c.22,0,.4-.18.4-.4v-3.7c0-.22.18-.4.4-.4h1.33c1.03,0,1.93.7,2.17,1.7l4.06,14.9c.02.09.03.18.03.27,0,.62-.5,1.12-1.12,1.12h-6.51c-.2,0-.37-.17-.37-.37v-3.73c0-.22-.18-.4-.4-.4h-1.2c-.22,0-.4.18-.4.4v3.73c0,.2-.17.37-.37.37h-6.51c-.09,0-.18-.01-.27-.03-.6-.15-.97-.76-.82-1.36L7.09,4.7c.25-1,1.15-1.7,2.17-1.7h1.33c.22,0,.4.18.4.4v3.7c0,.22.18.4.4.4Zm1.2,2.25h-1.2c-.22,0-.4.18-.4.4v3.7c0,.22.18.4.4.4h1.2c.22,0,.4-.18.4-.4v-3.7c0-.22-.18-.4-.4-.4Z"
    fill="#444" fill-rule="evenodd" stroke-width="0" />
</svg>