<svg xmlns="http://www.w3.org/2000/svg" viewBox="0 0 19 19"><path fill="#444" d="m8.5 13.33 5.77-5.77a.742.742 0 1 0-1.05-1.05l-5 5c-.08.08-.21.08-.29 0L5.75 9.33a.742.742 0 1 0-1.05 1.05l2.95 2.95c.23.23.61.23.85 0m1 5.67c-1.31 0-2.55-.25-3.71-.75a9.7 9.7 0 0 1-3.02-2.03c-.86-.85-1.53-1.86-2.03-3.02s-.75-2.39-.75-3.7.25-2.55.75-3.71 1.18-2.16 2.03-3.02S4.63 1.24 5.79.74s2.39-.75 3.7-.75 2.55.25 3.71.75 2.16 1.18 3.02 2.03 1.53 1.86 2.03 3.02.75 2.39.75 3.7-.25 2.55-.75 3.71a9.7 9.7 0 0 1-2.03 3.02c-.85.86-1.86 1.53-3.02 2.03s-2.39.75-3.7.75m0-1.5c2.23 0 4.13-.78 5.68-2.33s2.33-3.44 2.33-5.68-.78-4.13-2.33-5.68-3.44-2.33-5.68-2.33-4.13.78-5.68 2.33-2.33 3.44-2.33 5.68.78 4.13 2.33 5.68S7.26 17.5 9.5 17.5"/></svg>