<svg xmlns="http://www.w3.org/2000/svg" viewBox="0 0 24 24"><path fill="#444" d="m14.48 11.2-.2.22c-.58.64-.89 1.46-.89 2.32l-.02 6.38a.2.2 0 0 1-.27.09l-1.9-.95-.11-.17v-5.35c0-.86-.32-1.69-.9-2.32L3.55 4.1s-.05-.08-.05-.13c0-.11.09-.2.2-.2h9.04c.41 0 .75-.34.75-.75s-.34-.75-.75-.75H3.79c-.72 0-1.41.4-1.67 1.07-.24.63-.1 1.3.32 1.76l6.64 7.31c.33.36.51.83.51 1.31v5.35c0 .64.36 1.23.94 1.52l1.9.95c.24.12.5.18.75.18.62 0 1.22-.34 1.52-.93.12-.23.18-.5.18-.76v-6.3c0-.49.18-.95.5-1.31l.2-.22c.28-.31.26-.78-.05-1.06a.746.746 0 0 0-1.06.05Zm5.62-5.19c-.09-.08-.09-.22 0-.31l1.68-1.68c.29-.29.29-.77 0-1.06a.754.754 0 0 0-1.06 0l-1.69 1.68c-.08.08-.22.08-.31 0l-1.69-1.68a.754.754 0 0 0-1.06 0c-.29.29-.29.77 0 1.06l1.68 1.68c.09.08.09.22 0 .31l-1.68 1.68c-.29.29-.29.77 0 1.06.15.15.34.22.53.22s.38-.07.53-.22l1.69-1.68c.08-.08.22-.08.31 0l1.69 1.68c.15.15.34.22.53.22s.38-.07.53-.22c.29-.29.29-.77 0-1.06z"/></svg>