<svg xmlns="http://www.w3.org/2000/svg" viewBox="0 0 24 24"><path fill="#444" d="M12 2C7.89 2 5.09 4.13 3.56 5.74V3.68c0-.41-.34-.75-.75-.75s-.75.34-.75.75v4.28c0 .11.04.21.09.3s.12.17.21.24q.105.075.24.12c.07.02.14.02.21.03h4.07c.41 0 .75-.34.75-.75s-.34-.75-.75-.75H4.31C5.55 5.74 8.12 3.51 12 3.51c4.66 0 8.44 3.81 8.44 8.5 0 3.86-2.59 7.24-6.29 8.22a.75.75 0 0 0-.53.92c.09.34.39.56.72.56.06 0 .13 0 .19-.02 4.36-1.16 7.41-5.13 7.41-9.67 0-5.51-4.46-10-9.94-10ZM4 14.71c-.29-.87-.44-1.78-.44-2.71 0-.41-.34-.75-.75-.75s-.75.34-.75.75c0 1.09.17 2.16.52 3.19a.75.75 0 0 0 .95.47c.39-.13.6-.56.47-.95m1.28 2.43a.75.75 0 0 0-1.2.9 9.9 9.9 0 0 0 2.34 2.23c.13.09.28.13.42.13.24 0 .47-.11.62-.33.23-.34.15-.81-.2-1.04a8.3 8.3 0 0 1-1.98-1.9ZM12 20.5c-.77 0-1.53-.1-2.26-.31-.4-.11-.81.12-.92.52s.12.81.52.92c.86.24 1.76.36 2.66.36.41 0 .75-.34.75-.75s-.34-.75-.75-.75Z"/></svg>