<svg xmlns="http://www.w3.org/2000/svg" width="24" height="24" viewBox="0 0 24 24"><path d="M2.96 9.16c.39 0 .66-.09.84-.27.16-.17.24-.42.23-.74-.01-.33 0-.66 0-.99v-.33c0-.32-.08-.54-.25-.7-.03-.03-.06-.06-.1-.09-.2-.13-.4-.18-.66-.18h-.03c-.26 0-1.06 0-1.06.93v1.33c-.01.34.06.59.23.77s.43.27.79.27zm-.29-1.28v-.8c0-.28.1-.33.31-.33.1 0 .18.01.22.06.05.05.07.14.07.27v.81c0 .14-.02.24-.07.3-.04.04-.13.07-.24.07-.1 0-.17-.01-.22-.06-.05-.06-.08-.16-.07-.32m1.99 3.03h-.32c-.3-.01-.53.05-.68.19-.16.15-.24.37-.25.69-.01.49.02.77.2.96.19.2.51.23 1.08.23h.15c.59 0 .88-.03 1.06-.21s.19-.48.19-.85c0-.91-.24-1-1.23-1h-.19Zm.67 1.02c0 .08 0 .23-.03.27-.05.05-.33.05-.49.05h-.09c-.23 0-.45 0-.51-.07-.04-.04-.04-.18-.04-.32 0-.13.04-.17.06-.18.04-.04.11-.06.22-.06h.36q.52 0 .52.29Z"/><path d="M21.51 14.48c-.06-.19-.19-.33-.33-.45l-.05-.04c-.57-.49-1.08-.25-1.3-.04-.03 0-.05.01-.06 0-.09-.05-.13-.39-.15-.58v-.06c-.05-.32-.09-.64-.13-.96-.09-.66-.18-1.35-.24-2.02-.07-.84-.48-1.35-1.26-1.54a15.64 15.64 0 0 0-7.1-.13c-.89.19-1.36.74-1.43 1.69-.05.63-.13 1.28-.22 1.9-.04.33-.09.65-.13.98H3.26c-.07 0-.12-.05-.12-.12v-.36c-.02-.5-.04-1.01.04-1.5.04-.27.19-.59.61-.59h.01c1.05 0 1.17-.58 1.21-1.25 0-.03 0-.05.04-.1l3.56.05q.03-.09 0-.18c.02-.9.3-1.64.8-2.15.42-.42.99-.66 1.7-.74.16-.02.34-.02.5-.02h5.45c.16 0 .32 0 .48.02 1.47.16 2.38 1.05 2.54 2.51.02.14.03.29.03.43.26-.13.6-.23.98-.25 0-.13-.02-.26-.04-.39-.08-.67-.31-1.26-.66-1.76a3.1 3.1 0 0 0-.83-.83c-.51-.36-1.12-.59-1.81-.68-.23-.02-.46-.04-.69-.04h-2.11c0-.1-.02-.19-.03-.28-.07-.61-.28-1.14-.59-1.59-.2-.3-.46-.55-.75-.75-.46-.33-1.02-.53-1.64-.62-.21-.02-.42-.04-.62-.04H6.43c-.23 0-.46.01-.67.04-.63.08-1.18.29-1.63.62-.13.1-.24.19-.36.3-.12.12-.23.24-.33.39-.37.51-.59 1.14-.65 1.87v.08c.04-.01.09-.01.13-.01.29 0 .56.1.76.27.01-.82.27-1.5.73-1.96.38-.38.9-.6 1.54-.67.15-.01.3-.02.45-.02h4.93c.14 0 .29 0 .43.02 1.33.14 2.15.95 2.3 2.27v.09h-1.62c-.09-.04-.17-.08-.27-.1-2.15-.53-4.31-.57-6.42-.11-.8.17-1.23.67-1.29 1.53-.04.57-.12 1.15-.2 1.72-.04.33-.09.66-.13.99-.03.27-.1.39-.15.42-.03.01-.07 0-.13-.02-.04-.02-.1-.05-.17-.06-.21-.03-.6-.05-.89.21-.22.2-.37.49-.43.69-.1.33-.12.78-.12.92-.01 1.32-.03 2.81 0 4.26v.35a1.08 1.08 0 0 0 1.08 1.08h1.1c.59 0 1.07-.47 1.08-1.06v-.21c0-.1.08-.17.18-.17h1.35v.03c-.02 1.46-.04 3.11 0 4.71v.38a1.196 1.196 0 0 0 1.19 1.19h1.22c.65 0 1.18-.52 1.19-1.17v-.24c0-.11.09-.19.2-.19h7.11c.09 0 .16.08.16.17v.24c0 .66.53 1.19 1.19 1.19h1.22c.33 0 .63-.13.85-.37.03-.03.05-.05.07-.08.17-.21.26-.47.26-.74v-.33c.01-1.72.01-3.23 0-4.62 0-.26-.07-.95-.2-1.38ZM5.23 7.83c.07-.57.14-1.1.25-1.63.02-.07.27-.23.53-.29.9-.19 1.79-.28 2.68-.28.33 0 .67.04 1 .07-.2.09-.4.18-.57.31-.14.11-.27.21-.39.34-.13.13-.25.27-.36.43-.35.49-.58 1.08-.68 1.75-.82.02-1.18-.03-2.52-.18l.06-.51Zm5.1 3.89c.08-.63.15-1.22.28-1.8.02-.08.3-.26.59-.32.99-.21 1.98-.31 2.96-.31 1.21 0 2.4.16 3.57.47.19.05.45.38.52.66.11.42.14.86.19 1.34.01.16.03.33.06.48-2.61.36-5.24.36-8.25.04.02-.19.05-.37.07-.56ZM4.64 16.1c0 .15-.12.26-.26.26h-.91a.3.3 0 0 1-.3-.3v-.38h1.47zm-1.49-1.37v-.52h4.28c-.12.17-.22.36-.27.51v.02H3.15Zm6.53 6.13c0 .16-.13.29-.29.29h-1c-.18 0-.33-.15-.33-.33v-.42h1.63v.46Zm11.01-.1c0 .21-.17.39-.39.39h-.85a.37.37 0 0 1-.37-.37v-.38h1.61zm0-1.43H8.03l-.01-.57h12.67zm.04-1.78c0 .07-.06.13-.13.13H8.16c-.07 0-.13-.06-.13-.13v-.39c-.03-.55-.04-1.12.04-1.66.05-.3.2-.65.68-.65h.01c1.16 0 1.29-.64 1.34-1.38 0-.03 0-.06.04-.11h8.46s.03 0 .03.02c.02.08.05.2.06.31.01.43.11.72.31.9s.49.25.9.22c.22-.02.41.04.55.16.16.14.26.37.27.64.03.53.02 1.05.01 1.61v.32Z"/><path d="M21.81 9.86c-.19-.2-.47-.29-.85-.29-.88 0-1.18.35-1.19 1.35v1.22c0 .69.39 1.05 1.15 1.05h.01c.4 0 .69-.1.88-.29.17-.18.26-.44.26-.77v-1.2c.02-.31.02-.77-.26-1.06Zm-.63 2.27c-.05.05-.14.08-.26.08s-.19-.02-.24-.07c-.06-.06-.09-.18-.08-.35v-.88c0-.3.11-.36.34-.36.12 0 .19.02.24.07s.08.16.08.3v.89c0 .16-.02.27-.08.33ZM8.73 9.83s-.06-.07-.11-.1c-.22-.15-.44-.19-.73-.19h-.03c-.29 0-1.17 0-1.17 1.03v1.47c-.02.38.07.66.25.85.19.2.48.3.88.3h.02c.43 0 .73-.1.93-.3.18-.19.26-.46.25-.82-.02-.36 0-.73 0-1.1v-.36c0-.35-.09-.6-.27-.78Zm-.63 2.29s-.15.08-.27.07c-.11 0-.19-.02-.24-.07-.06-.07-.09-.18-.08-.35v-.89c0-.31.11-.36.34-.36.11 0 .2.02.24.07.06.06.08.16.08.3v.89c0 .16-.02.27-.08.33Zm8.03 1.69h-3.46c-.59 0-1.07.48-1.07 1.07v1.45c0 .59.48 1.07 1.07 1.07h3.46c.59 0 1.07-.48 1.07-1.07v-1.45c0-.59-.48-1.07-1.07-1.07m-.05 2.4c0 .12-.1.22-.21.22h-2.94c-.12 0-.22-.1-.22-.22v-1.22c0-.12.1-.21.21-.21h2.94c.12 0 .21.1.21.22v1.22Zm-6.17-1.09h-.56c-.34-.01-.58.05-.75.21-.18.16-.26.41-.27.76-.01.54.02.85.22 1.06.21.22.57.26 1.19.26h.16c.65 0 .97-.04 1.17-.24s.21-.53.21-.94c-.01-1-.27-1.11-1.36-1.11Zm.49 1.42c-.06.06-.36.06-.54.06h-.1c-.25 0-.5 0-.56-.07-.05-.05-.05-.2-.04-.35 0-.14.05-.18.06-.2.04-.04.13-.06.24-.06h.4q.57 0 .57.32c0 .08 0 .26-.04.3Zm8.7-1.33h-.56c-.34-.01-.58.05-.75.21s-.26.41-.27.76c-.01.54.02.86.22 1.06.21.22.57.26 1.19.26h.16c.65 0 .97-.04 1.17-.24s.21-.53.21-.94c0-1-.26-1.11-1.36-1.11Zm.49 1.42c-.06.06-.36.06-.55.06h-.1c-.25 0-.5 0-.56-.07-.04-.05-.05-.2-.04-.35 0-.1.02-.16.06-.2s.13-.06.24-.06h.41q.57 0 .57.32c0 .08 0 .26-.04.3Z"/></svg>