<svg xmlns="http://www.w3.org/2000/svg" viewBox="0 0 24 24"><path fill="#5e656d" d="M21 21.59c-.41 0-.75-.34-.75-.75v-6.63c0-.41.34-.75.75-.75s.75.34.75.75v6.63c0 .41-.34.75-.75.75m-4.5 0c-.41 0-.75-.34-.75-.75V6.47c0-.41.34-.75.75-.75s.75.34.75.75v14.37c0 .41-.34.75-.75.75m-4.5 0c-.41 0-.75-.34-.75-.75v-9.95c0-.41.34-.75.75-.75s.75.34.75.75v9.95c0 .41-.34.75-.75.75m-4.5 0c-.41 0-.75-.34-.75-.75V3.16c0-.41.34-.75.75-.75s.75.34.75.75v17.69c0 .41-.34.75-.75.75Zm-4.5 0c-.41 0-.75-.34-.75-.75V8.68c0-.41.34-.75.75-.75s.75.34.75.75v12.16c0 .41-.34.75-.75.75"/></svg>