<?xml version="1.0" encoding="UTF-8"?><svg id="b" xmlns="http://www.w3.org/2000/svg" viewBox="0 0 20 20"><g id="c"><path id="d" d="m3.93,1.14C6.04.09,8.51,0,10,0s3.96.09,6.07,1.14c1.07.53,2.06,1.33,2.79,2.49s1.14,2.64,1.14,4.52c0,4.33-1.87,7.31-4.05,9.19-.98.84-2.09,1.53-3.28,2.03-1.03.42-1.98.64-2.67.64s-1.64-.22-2.67-.64c-1.19-.5-2.3-1.18-3.28-2.03C1.87,15.45,0,12.48,0,8.15c0-1.87.42-3.36,1.14-4.52.72-1.16,1.72-1.95,2.79-2.49m1.43,5.34c.66.04,1.41.29,2.03.94.62.65.89,1.49.98,2.24.07.56.04,1.1-.03,1.51-.05.33-.35.66-.67.75-.4.11-.82.15-1.24.13-.77-.04-1.5-.38-2.03-.94-.62-.65-.89-1.49-.98-2.24-.07-.54-.05-1.08.05-1.61.05-.28.25-.52.53-.61.44-.14.9-.19,1.36-.16m9.22,0c-.77.04-1.5.38-2.03.94-.62.65-.89,1.49-.98,2.24-.07.56-.04,1.09.03,1.5.06.36.31.66.66.76s.78.16,1.24.12c.77-.04,1.5-.38,2.03-.94.62-.65.89-1.49.98-2.24.07-.54.05-1.08-.05-1.61-.05-.28-.25-.52-.53-.61-.44-.14-.9-.19-1.36-.16" fill="#444" fill-rule="evenodd" stroke-width="0"/></g></svg>