<svg xmlns="http://www.w3.org/2000/svg" viewBox="0 0 24 24"><g fill="#444"><path d="M9.15 20.45c-.76-.07-1.41-.2-1.98-.39h-.02c-2.62-.84-3.3-2.84-3.3-7.17 0-1.02.04-1.92.14-2.69h5.5c.44 0 .79-.35.79-.79s-.35-.79-.79-.79H4.3c.49-1.61 1.44-2.52 3.16-2.98v.39c0 .44.35.79.79.79s.79-.35.79-.79v-.68c.88-.11 1.91-.15 3.1-.15s2.2.04 3.09.15v.68c0 .44.35.79.79.79s.79-.35.79-.79v-.39c1.27.35 2.13.94 2.67 1.9l.03.04c.19.36.65.49 1.02.32a.78.78 0 0 0 .45-.71c0-.09-.01-.18-.05-.26-.03-.07-.11-.2-.15-.26-.8-1.36-2.08-2.18-3.98-2.62V2.81c0-.44-.35-.79-.79-.79s-.79.35-.79.79v.98c-.91-.11-1.94-.16-3.09-.16s-2.18.04-3.1.15v-.97c0-.44-.35-.79-.79-.79s-.79.35-.79.79v1.23c-3.92.92-5.19 3.44-5.19 8.87 0 5.02 1.09 7.55 4.34 8.63l.02.01c.09.03.2.06.3.09h.03c.54.16 1.12.27 1.76.36h.07s.09.02.14.02c.38 0 .72-.25.79-.64a.8.8 0 0 0-.57-.91Z"/><path d="m17.49 16.01-.91-.57a.36.36 0 0 1-.17-.31v-1.37c0-.4-.32-.72-.72-.72s-.72.32-.72.72v1.77c0 .37.19.72.51.92l1.25.79c.12.08.25.11.38.11a.727.727 0 0 0 .38-1.34"/><path d="M15.69 9.47c-3.34 0-6.05 2.73-6.05 6.09s2.72 6.09 6.05 6.09 6.05-2.73 6.05-6.09-2.72-6.09-6.05-6.09m0 10.72c-2.54 0-4.6-2.08-4.6-4.64s2.07-4.64 4.6-4.64 4.6 2.08 4.6 4.64-2.07 4.64-4.6 4.64"/></g></svg>