<?xml version="1.0" encoding="UTF-8"?><svg id="b" xmlns="http://www.w3.org/2000/svg" viewBox="0 0 24 24"><path d="m20.63,3.36c-1.08-1.08-2.85-1.29-4.97-.58l-8.49,2.83h0c-3.96,1.33-4.79,3-4.79,4.18,0,1.17.83,2.85,4.79,4.17,1.36.45,2.43,1.53,2.89,2.89,1.32,3.96,3,4.8,4.17,4.8h0c1.17,0,2.85-.83,4.17-4.79l2.83-8.49c.7-2.13.49-3.9-.59-4.98Zm-.83,4.51l-2.83,8.49c-.92,2.78-2.03,3.77-2.75,3.77-.72,0-1.82-.99-2.75-3.77-.24-.71-.61-1.36-1.08-1.93l3.83-3.84c.29-.29.29-.77,0-1.06s-.77-.29-1.06,0l-3.86,3.87c-.5-.37-1.06-.67-1.66-.87-2.78-.92-3.77-2.02-3.77-2.74,0-.72.99-1.82,3.77-2.75l8.49-2.83c1.53-.51,2.79-.43,3.44.22.66.65.74,1.91.23,3.45Z" fill="#444" stroke-width="0"/></svg>