<svg xmlns="http://www.w3.org/2000/svg" viewBox="0 0 24 24"><path fill="#444" fill-rule="evenodd" d="M2 3.98c0 .39.31.7.7.7h18.6c.39 0 .7-.31.7-.7s-.31-.7-.7-.7H2.7c-.39 0-.7.31-.7.7"/><path fill="#444" d="M7.81 7.7c-.87 0-1.3 0-1.63.19-.21.12-.39.3-.51.51-.19.32-.19.76-.19 1.63v8.37c0 .87 0 1.3.19 1.63.12.21.3.39.51.51.32.19.76.19 1.63.19s1.3 0 1.63-.19c.21-.12.39-.3.51-.51.19-.32.19-.76.19-1.63v-8.37c0-.87 0-1.3-.19-1.63-.12-.21-.3-.39-.51-.51-.32-.19-.76-.19-1.63-.19m8.38 0c-.87 0-1.3 0-1.63.19-.21.12-.39.3-.51.51-.19.32-.19.76-.19 1.63v5.58c0 .87 0 1.3.19 1.63.12.21.3.39.51.51.32.19.76.19 1.63.19s1.3 0 1.63-.19c.21-.12.39-.3.51-.51.19-.32.19-.76.19-1.63v-5.58c0-.87 0-1.3-.19-1.63-.12-.21-.3-.39-.51-.51-.32-.19-.76-.19-1.63-.19"/></svg>