<svg xmlns="http://www.w3.org/2000/svg" viewBox="0 0 18.1 18.32"><path fill="#444" d="M11.34 7.06a.765.765 0 0 0-.99.2l-.52.69c-.24.32-.45.6-.6.9-.12.25-.21.53-.27.81-.06.31-.06.64-.06 1.05v3.86c0 .21 0 .33-.01.41v.09c-.02.09-.05.15-.09.2l-.09.08c-.06.05-.15.11-.29.21l-1.57 1.08v-5.91c0-.42 0-.76-.06-1.08a3.8 3.8 0 0 0-.27-.8c-.14-.3-.34-.56-.59-.89l-.05-.06-2-2.64a.31.31 0 0 1-.03-.32c.05-.1.15-.17.27-.17h4.84c.43 0 .77-.34.77-.77s-.34-.77-.77-.77H2.34l-.06-.08c-.27-.35-.44-.59-.57-.79-.11-.17-.15-.27-.16-.31v-.07c0-.11.04-.22.12-.3l.04-.04.05-.02c.1-.03.2-.04.3-.05.3-.03.7-.03 1.38-.03h7.02a.77.77 0 0 0 0-1.54H3.4c-.59 0-1.1 0-1.49.03C1.55.07 1.1.14.74.44.27.82.01 1.38 0 1.99c0 .47.22.87.41 1.18.21.33.52.74.87 1.2l.06.08 3.31 4.37c.33.43.42.55.49.69.06.14.11.28.14.43s.03.31.03.86v5.48c0 .26 0 .52.02.73.02.22.07.5.25.75.24.33.61.54 1.01.56.33.02.59-.1.79-.21.17-.1.37-.23.56-.37l1.38-.94c.24-.17.49-.35.68-.58.16-.21.28-.44.35-.69.09-.28.09-.59.09-.89V10.8c0-.57 0-.71.03-.86s.08-.3.15-.43c.06-.14.15-.26.48-.69l.47-.67c.26-.36.15-.87-.24-1.1Zm4.92-3.75c-.05-.05-.05-.14 0-.2l1.62-1.62c.29-.29.29-.77 0-1.06a.754.754 0 0 0-1.06 0L15.2 2.05c-.05.05-.14.05-.2 0L13.38.43a.754.754 0 0 0-1.06 0c-.29.29-.29.77 0 1.06l1.62 1.62c.05.05.05.14 0 .2l-1.62 1.62c-.29.29-.29.77 0 1.06.15.15.34.22.53.22s.38-.07.53-.22L15 4.37c.05-.05.14-.05.2 0l1.62 1.62c.15.15.34.22.53.22s.38-.07.53-.22c.29-.29.29-.77 0-1.06z"/></svg>