<?xml version="1.0" encoding="UTF-8"?><svg id="b" xmlns="http://www.w3.org/2000/svg" viewBox="0 0 24 24"><path d="m10.16,22c-.19,0-.34-.04-.46-.08-.39-.15-1.03-.61-1.03-2.07v-5.55c0-.2-.16-.36-.36-.36h-1.72c-1.25,0-1.71-.6-1.88-.95-.16-.36-.32-1.1.51-2.06l6.95-7.96c.96-1.1,1.75-1.02,2.13-.88.39.14,1.03.61,1.03,2.07v5.54c0,.2.16.36.36.36h1.72c1.26,0,1.72.6,1.89.96.16.36.31,1.11-.52,2.06l-6.94,7.95c-.67.76-1.25.96-1.68.96Zm-4.07-9.62s.2.06.49.06h2.83c.41,0,.75.34.75.75v6.66c0,.33.04.52.08.62.09-.05.25-.16.46-.41l6.94-7.95c.23-.27.28-.44.28-.48,0,.02-.16-.05-.51-.05h-2.83c-.41,0-.75-.34-.75-.75v-6.66c0-.33-.04-.52-.08-.62-.09.05-.25.16-.46.41l-6.94,7.95c-.23.27-.28.44-.27.48,0,0,0,0,.01,0Z" fill="#444" stroke-width="0"/></svg>