<?xml version="1.0" encoding="UTF-8"?><svg id="b" xmlns="http://www.w3.org/2000/svg" viewBox="0 0 17.67 20.01"><g id="c"><g id="d"><path d="m15.82,1.91c-1.25-1.21-2.8-1.91-4.24-1.91h-6.04C3.31,0,1.49,1.83,1.49,4.08v1.88c0,.41.34.75.75.75s.75-.34.75-.75v-2.51c0-1.07.88-1.95,1.95-1.95h4.32c2.36.26,2.34.96,2.32,2.01-.01.61-.03,1.38.53,1.94.44.44,1.12.65,2.12.65h.16l1.71-.03s.05.05.08.08v9.78c0,1.42-1.14,2.58-2.55,2.58h0-.31c-.36.07-.64.37-.64.74h0c0,.38.28.68.64.73l.3.02c2.23,0,4.05-1.83,4.05-4.08V5.43c0-1.07-.71-2.41-1.85-3.52Zm-1.46,2.69c-.91.02-1.14-.15-1.19-.2-.11-.11-.1-.49-.09-.85.01-.61-.02-1.25-.3-1.81.69.24,1.39.65,2,1.25.57.55.92,1.09,1.14,1.58l-1.56.03Z" fill="#444" stroke-width="0"/><path d="m12.55,10.62h0c-.44-1.49-1.69-2.74-3.18-3.18-1.15-.34-1.95-.3-2.52.12-.68.51-.76,1.42-.76,2.05v1.67c0,1.71.82,2.62,2.36,2.62h1.92c.64,0,1.54-.08,2.05-.76.42-.56.46-1.36.12-2.52Zm-1.13,1.77l-.02.03c-.11.11-.38.22-1.02.22h-1.92c-.74,0-1.11-.21-1.11-1.37v-1.67c0-.7.14-.96.26-1.05.09-.07.24-.1.43-.1.25,0,.58.06.98.18,1.08.32,2.01,1.26,2.33,2.33.28.94.17,1.29.07,1.42Z" fill="#444" stroke-width="0"/><path d="m11.17,14.54c-.16-.03-.33,0-.47.09-.14.09-.23.23-.26.4-.49,2.46-2.85,4.06-5.33,3.66-1.92-.31-3.49-1.87-3.81-3.8-.4-2.48,1.2-4.82,3.64-5.32.34-.07.56-.4.49-.73-.07-.33-.39-.56-.73-.48C1.6,8.98-.43,11.94.08,15.09c.4,2.45,2.39,4.44,4.84,4.83.32.05.64.08.97.08,2.8,0,5.23-1.99,5.78-4.73.03-.16,0-.33-.09-.47-.09-.14-.23-.23-.4-.26Z" fill="#444" stroke-width="0"/></g></g></svg>