<?xml version="1.0" encoding="UTF-8"?><svg id="a" xmlns="http://www.w3.org/2000/svg" viewBox="0 0 24 24"><path d="m19.77,8.05l-3.64-.1c-.17-.01-.32.04-.44.15-.12.11-.19.26-.19.42l-.02,4.6h-.87c.09-.16.16-.33.2-.52.15-.72.23-1.47.22-2.21,0-.65-.08-1.31-.21-1.96-.18-.88-.94-1.53-1.84-1.53h-.64s0-.75,0-.75c0-.23-.21-.42-.47-.42h-2.33c-.26,0-.47.19-.47.42v.75h-1.58v-.72c0-.23-.21-.42-.47-.42h-2.34c-.26,0-.47.19-.47.42v.72h-.48c-.79,0-1.49.5-1.77,1.24s-.42,1.44-.44,2.2c-.02.88.13,1.75.46,2.58.04.1.1.17.15.26-.2.09-.34.29-.34.52v2.17c0,.32.26.57.57.57h1.11c.04,1.01.87,1.82,1.9,1.82.85,0,1.56-.56,1.81-1.32.25.76.96,1.32,1.8,1.32,1.02,0,1.85-.81,1.9-1.82h5.19c.16.89.94,1.56,1.87,1.56s1.71-.68,1.87-1.56h2.13c.32,0,.58-.26.58-.57v-5.06c0-1.51-1.23-2.75-2.73-2.76Zm-6.09,4.32c-.07.33-.37.58-.71.58H3.7c-.3,0-.56-.18-.67-.45-.27-.69-.4-1.4-.38-2.13.01-.63.14-1.26.38-1.86.11-.27.37-.45.67-.45h9.27c.34,0,.64.24.71.58.12.59.19,1.18.19,1.77,0,.65-.06,1.32-.19,1.97Zm7.67-.52l-4.72-.06v-2.51s.02-.06.05-.08c.02-.02.05-.03.09-.03l2.91.03h.04c.73.06,1.6.4,1.63,1.62v1.03Zm-3.43,3.51c.42,0,.75.34.75.75s-.34.75-.75.75-.75-.34-.75-.75.34-.75.75-.75Zm0-1.15c-.76,0-1.41.45-1.71,1.09h-5.67c-.34-.5-.92-.83-1.57-.83s-1.23.33-1.57.83h-.47c-.34-.5-.92-.83-1.57-.83s-1.23.33-1.57.83h-.86v-1.02h13.11s0,0,.01,0c.32,0,.58-.26.58-.57v-.92s4.6.06,4.6.06c.07,0,.12.06.12.12v2.21c0,.06-.05.12-.12.12h-1.59c-.31-.64-.96-1.09-1.71-1.09Zm-12.57,1.41c.42,0,.75.34.75.75s-.34.75-.75.75-.75-.34-.75-.75.34-.75.75-.75Zm3.61,0c.42,0,.75.34.75.75s-.34.75-.75.75-.75-.34-.75-.75.34-.75.75-.75Zm1.03-9.04h1.39v.33h-1.39v-.33Zm-4.86.03h1.4v.3h-1.4v-.3Z" fill="#444" stroke-width="0"/></svg>