<svg xmlns="http://www.w3.org/2000/svg" viewBox="0 0 24 24"><path fill="#444" d="M3.73 5.17c.34-.46.75-.85 1.21-1.18.79-.55 1.75-.87 2.98-1.05v18.12c-1.23-.18-2.19-.5-2.98-1.05-.46-.33-.87-.72-1.21-1.18C2.69 17.43 2.5 15.51 2.5 12s.19-5.43 1.23-6.83m15.22-1.18s.08.07.12.1c.03.03.06.06.09.08.37.29.71.62 1 1 .99 1.32 1.34 3.11 1.34 6.83s-.35 5.51-1.34 6.83c-.28.38-.62.7-.99.99-.03.03-.07.06-.1.09-.04.03-.08.07-.12.1-.11.07-.23.14-.34.2-.73.43-1.61.7-2.7.85-1.09.16-2.39.2-3.96.2-.94 0-1.78-.02-2.53-.06V2.8c.75-.04 1.59-.06 2.53-.06 3.39 0 5.51.2 7 1.25M11.62 12c0 .2.08.39.22.53l2.13 2.13c.14.15.33.22.53.22.21 0 .39-.07.54-.22.14-.14.22-.32.22-.53s-.08-.39-.22-.53l-1.3-1.3a.417.417 0 0 1 0-.6l1.29-1.3c.29-.3.29-.77 0-1.06a.745.745 0 0 0-1.06 0l-2.13 2.13a.75.75 0 0 0-.22.53"/></svg>