<?xml version="1.0" encoding="UTF-8"?><svg id="c" xmlns="http://www.w3.org/2000/svg" viewBox="0 0 24 24"><path d="m18.86,7.46h-.04c-.36.02-.64.27-.71.6-.01.06-.01.12-.01.18l-.67,9.97c-.07,1.15-1.03,2.04-2.18,2.04h-6.5c-1.15,0-2.11-.89-2.18-2.04l-.67-9.98v-.06c-.03-.39-.35-.69-.74-.69h-.04c-.4.01-.71.34-.72.75v.08s.67,10,.67,10c.13,1.94,1.74,3.44,3.68,3.44h6.5c1.94,0,3.55-1.5,3.68-3.44l.66-9.96s0-.1,0-.15v-.02c-.02-.41-.35-.72-.74-.72Z" fill="#707575" stroke-width="0"/><path d="m21.74,5.93c-.06-.31-.31-.56-.63-.61-.17-.03-.35-.05-.52-.07-1.31-.19-2.59-.32-3.84-.4-.29-.22-.52-.52-.64-.89l-.03-.08c-.32-.97-1.23-1.63-2.25-1.63h-3.66c-1.02,0-1.93.66-2.25,1.63l-.03.09c-.13.37-.36.68-.66.9-1.69.12-2.97.28-3.7.38-.37.05-.6.08-.65.09-.32.05-.56.3-.62.61,0,.02-.01.05-.01.08,0,.06,0,.12.01.18.06.36.38.62.74.62.04,0,.08,0,.12,0,.01,0,.18-.03.48-.07.54-.07,1.52-.19,2.81-.3h0c2.84-.24,7.23-.42,12,.06h0c.68.07,1.36.14,2.05.24.14.02.29.04.43.06.41.06.79-.22.85-.63.01-.05.01-.11.01-.16-.01-.03-.01-.06-.01-.09Zm-12.53-1.17l.16-.47c.15-.33.31-.61.73-.63h4c.26-.01.48.17.53.55l.16.53c-2.04-.08-3.93-.05-5.58.02Z" fill="#707575" stroke-width="0"/><path d="m12,17.75c.41,0,.75-.34.75-.75v-6.46c.24.28.47.58.62.76.24.31.45.57.6.72.29.3.76.3,1.06.02.3-.29.3-.76.02-1.06-.12-.12-.29-.35-.49-.6-.98-1.24-1.73-2.13-2.55-2.13s-1.57.88-2.55,2.13c-.2.26-.37.48-.49.6-.29.3-.28.77.02,1.06.3.29.77.28,1.06-.02.14-.15.35-.41.6-.72.15-.19.38-.48.62-.77v6.47c0,.41.34.75.75.75Z" fill="#707575" stroke-width="0"/></svg>