<?xml version="1.0" encoding="UTF-8"?><svg id="c" xmlns="http://www.w3.org/2000/svg" viewBox="0 0 24 24"><path d="m11.25,2.07c.44-.09.98-.09,1.42,0,.53.09,1.06.44,1.86.89l4.61,2.75c.71.44,1.24.71,1.6,1.15.27.35.53.71.71,1.15.18.53.18,1.06.18,1.95v4.08c0,.8,0,1.42-.18,1.95-.18.44-.35.8-.71,1.15-.35.44-.89.71-1.6,1.15l-4.61,2.75c-.8.44-1.24.8-1.86.89-.44.09-.98.09-1.42,0-.53-.09-1.06-.44-1.77-.89l-4.61-2.75c-.71-.44-1.24-.71-1.6-1.15-.27-.35-.53-.71-.71-1.15-.18-.53-.18-1.06-.18-1.95v-4.08c0-.8,0-1.42.18-1.95.18-.44.35-.8.71-1.15.35-.44.89-.71,1.6-1.15l4.61-2.75c.71-.44,1.24-.71,1.77-.89Zm-7.36,6.39c-.09.27-.09.62-.09,1.51v4.08c0,.89,0,1.24.09,1.51s.18.53.44.71c.18.18.44.35,1.24.89l4.61,2.75c.62.35.98.53,1.15.62v-7.72l-7.36-4.52c-.09.09-.09.18-.09.18Zm8.78,4.35v7.72c.27-.09.53-.27,1.15-.62l4.61-2.75c.8-.44,1.06-.62,1.24-.89.18-.18.35-.44.44-.71s.09-.62.09-1.51v-4.08c0-.89,0-1.24-.09-1.51q0-.09-.09-.18l-7.36,4.52Zm-3.64-2.93l2.93,1.77,7.1-4.35c-.18-.09-.35-.27-.71-.44l-2.22-1.33-7.1,4.35Zm3.37-6.47c-.27-.09-.53-.09-.89,0-.27.09-.62.27-1.42.71l-4.61,2.75c-.27.18-.53.27-.71.44l2.93,1.77,7.1-4.35-1.06-.62c-.8-.44-1.06-.62-1.33-.71Z" fill="#444" fill-rule="evenodd" stroke-width="0"/></svg>