<?xml version="1.0" encoding="UTF-8"?><svg id="b" xmlns="http://www.w3.org/2000/svg" viewBox="0 0 19.5 19.47"><g id="c"><g id="d"><path d="m19.36,8.06c-.66-3.9-3.73-7.08-7.61-7.86-3.34-.66-6.64.38-8.91,2.7,0,0-1.6,1.83-1.6,2.25,0,.29.24.52.52.52h3.94c.46-.01.8-.37.8-.81,0-.44-.37-.79-.81-.79h-1.78c1.53-1.58,3.64-2.47,5.84-2.47,5.03,0,9,4.58,7.99,9.78-.62,3.17-3.18,5.72-6.35,6.35-5.2,1.02-9.78-2.96-9.78-7.99,0-.46-.37-.8-.81-.8s-.79.38-.79.8h.02c.01,5.36,4.37,9.73,9.74,9.73,5.92,0,10.62-5.31,9.6-11.41" fill="#444" stroke-width="0"/><path d="m9.73,4.09c-.41,0-.73.32-.73.73v4.53c0,.27.16.53.41.64l3.62,1.82c.36.18.8.03.98-.33.18-.36.03-.8-.33-.98h0l-3.23-1.61v-4.08c0-.41-.32-.73-.73-.73h0Z" fill="#444" stroke-width="0"/></g></g></svg>