<?xml version="1.0" encoding="UTF-8"?><svg id="b" xmlns="http://www.w3.org/2000/svg" viewBox="0 0 15.75 18.32"><g id="c"><path id="d" d="m15.34,3.17c.19-.31.41-.71.41-1.18,0-.6-.27-1.17-.74-1.55-.36-.3-.81-.37-1.17-.41-.39-.03-.9-.03-1.49-.03H3.4c-.59,0-1.1,0-1.49.03-.36.04-.81.11-1.17.41C.27.82.01,1.38,0,1.99c0,.47.22.87.41,1.18.21.33.52.74.87,1.2l.06.08,3.31,4.37c.33.43.42.55.49.69.06.14.11.28.14.43.03.15.03.31.03.86v5.48c0,.26,0,.52.02.73.02.22.07.5.25.75.24.33.61.54,1.01.56.33.02.59-.1.79-.21.17-.1.37-.23.56-.37l1.38-.94c.24-.17.49-.35.68-.58.16-.21.28-.44.35-.69.09-.28.09-.59.09-.89v-3.84c0-.57,0-.71.03-.86.03-.15.08-.3.15-.43.06-.14.15-.26.48-.69l3.39-4.47c.35-.46.64-.85.85-1.18Zm-3.46,2.07l-2.05,2.7c-.24.32-.45.6-.6.9-.12.25-.21.53-.27.81-.06.31-.06.64-.06,1.05v3.86c0,.21,0,.33-.01.41v.09c-.02.09-.05.15-.09.2l-.09.08c-.06.05-.15.11-.29.21l-1.57,1.08v-5.91c0-.42,0-.76-.06-1.08-.06-.27-.15-.55-.27-.8-.14-.3-.34-.56-.59-.89l-.05-.06-2-2.64c-.07-.09-.08-.22-.03-.32.05-.1.15-.17.27-.17h7.53c.11,0,.21.07.26.17.05.1.04.22-.03.31Zm2.33-3.24v.04s-.06.14-.17.31c-.12.2-.29.42-.57.79l-.06.08H2.34l-.06-.08c-.27-.35-.44-.59-.57-.79-.11-.17-.15-.27-.16-.31v-.04s-.01-.03-.01-.03c.01-.11.05-.22.13-.3l.04-.04.05-.02c.1-.03.2-.04.3-.05.3-.03.7-.03,1.38-.03h8.87c.65,0,1.08,0,1.39.03.09,0,.19.02.29.05l.05.02.04.04c.08.08.12.19.13.3v.03Z" fill="#444" stroke-width="0"/></g></svg>