<?xml version="1.0" encoding="UTF-8"?><svg id="e" xmlns="http://www.w3.org/2000/svg" viewBox="0 0 24 24"><path d="m19.8,5.76c-1.48-1.19-3.67-1.82-6.53-1.57-1.74.16-3.36.46-4.77.92-.17.06-.35-.02-.44-.18-.06-.1-.12-.2-.19-.3-.71-1.09-2.24-1.51-3.39-.91-.83.43-1.34,1-1.99,1.77-.34.4-.54.93-.49,1.49.12,1.22.5,2.3,1.15,3.34,0,.02,0,.04,0,.06s0,.04,0,.06c-.65,1.04-1.03,2.11-1.15,3.34-.05.57.15,1.1.49,1.49.65.77,1.16,1.34,1.99,1.77,1.16.6,2.68.18,3.39-.91.07-.1.13-.2.19-.3.09-.16.27-.24.44-.18,1.41.45,3.03.76,4.77.92,2.86.25,5.05-.38,6.53-1.57,1.49-1.19,2.2-2.89,2.2-4.61s-.71-3.42-2.2-4.61Zm-10.56,5.46h-2.46c-.49,0-.89-.4-.89-.89s.4-.89.89-.89h2.46c.49,0,.89.4.89.89s-.4.89-.89.89Zm9.22,2.09c-.25.2-.55.39-.9.56-.57.27-1.23-.08-1.36-.7-.18-.9-.27-1.83-.27-2.8s.09-1.9.27-2.8c.12-.62.78-.97,1.36-.7.35.16.65.35.9.56.94.76,1.4,1.82,1.4,2.94s-.45,2.19-1.4,2.94Z" fill="#444" stroke-width="0"/><path d="m13.11,18.33c-1.16-.1-2.28-.27-3.34-.51.04.31.09.62.14.93.13.85.79,1.58,1.69,1.7,1.03.14,2.04.14,3.07,0,.87-.13,1.52-.81,1.66-1.64.03-.18.06-.37.09-.55-1.03.15-2.13.18-3.31.08Z" fill="#444" stroke-width="0"/></svg>