<svg xmlns="http://www.w3.org/2000/svg" viewBox="0 0 24 24"><g fill="#323544"><path d="M17.83 20.05H5.78c-.12 0-.22-.1-.22-.22v-4.27a.87.87 0 0 0-.87-.87h-.1a.87.87 0 0 0-.87.87v5.66c0 .33.27.6.6.6h14.86c.33 0 .6-.27.6-.6v-5.66a.87.87 0 0 0-1.74 0v4.27c0 .12-.1.22-.22.22Zm-3.21-17.7-.03.02c-.39.29-.47.83-.18 1.22l4.27 5.75c.29.39.83.47 1.22.18l.03-.02c.39-.29.47-.83.18-1.22l-4.27-5.75a.866.866 0 0 0-1.22-.18m-3.14 3.01-.02.02c-.31.37-.26.92.11 1.23l5.5 4.58c.37.31.92.26 1.23-.11l.02-.02c.31-.37.26-.92-.11-1.23l-5.5-4.58a.873.873 0 0 0-1.23.11"/><path d="M15.37 16.47H8.21a.87.87 0 0 0-.87.87v.03c0 .48.39.87.87.87h7.16c.48 0 .87-.39.87-.87v-.03a.87.87 0 0 0-.87-.87m1.32-4.65-6.46-3.06a.86.86 0 0 0-1.16.42l-.03.07c-.21.44-.02.96.42 1.16l6.48 3.03c.44.2.96.01 1.16-.42l.02-.03a.87.87 0 0 0-.42-1.15Zm-.94 2.28-7.03-1.51c-.46-.1-.92.19-1.03.65l-.02.07c-.11.48.19.95.67 1.05l7.04 1.48c.47.1.94-.21 1.03-.68v-.04c.1-.47-.2-.92-.66-1.03Z"/></g></svg>