<svg xmlns="http://www.w3.org/2000/svg" viewBox="0 0 24 24"><g fill="#5e656d"><path d="M19.5 8.69c-.67-1.08-1.79-1.64-3.85-2.67l-1.75-.88c-.8-.4-1.24-.62-1.75-.74-.46-.11-.92-.12-1.67-.12-.05-1.63-.73-2.29-2.38-2.29s-2.38.69-2.39 2.45c-.44.11-.79.29-1.1.6-.76.76-.76 1.8-.76 3.69v6.95c0 2.73 0 4.24 1.03 5.28 1.03 1.03 2.54 1.03 5.28 1.03h3.71c2.73 0 4.24 0 5.28-1.03 1.03-1.03 1.03-2.54 1.03-5.27v-2.37c0-2.29 0-3.56-.67-4.63ZM8.09 3.5c.81 0 .88.01.89.79H7.2c0-.78.08-.79.89-.79m10.57 12.19c0 2.58-.02 3.64-.59 4.21s-1.64.59-4.21.59h-3.71c-2.58 0-3.64-.02-4.21-.59s-.59-1.64-.59-4.22V8.73c0-1.6.01-2.32.32-2.63s1.03-.32 2.63-.32h1.96c.81 0 1.22 0 1.55.08s.7.26 1.42.62l1.75.88c1.86.93 2.8 1.4 3.24 2.11s.44 1.76.44 3.84v2.37Z"/><path d="M12.51 12.36a.756.756 0 0 0-1.03 0c-.35.33-2.09 2.03-2.09 3.44s1.17 2.49 2.6 2.49 2.6-1.12 2.6-2.49-1.74-3.12-2.09-3.44ZM12 16.79c-.61 0-1.1-.44-1.1-.99 0-.4.51-1.16 1.1-1.82.56.63 1.1 1.41 1.1 1.82 0 .54-.5.99-1.1.99m4.5-7.33-3.71-1.85a.754.754 0 0 0-1.01.34c-.19.37-.04.82.34 1.01l3.71 1.85a.74.74 0 0 0 1-.33c.19-.37.04-.82-.34-1.01Z"/></g></svg>