<?xml version="1.0" encoding="UTF-8"?><svg id="b" xmlns="http://www.w3.org/2000/svg" viewBox="0 0 24 24"><path d="m6.83,4.45c.35-.04.69-.08,1.04-.11v1.31c0,.56-.18,1.11-.5,1.59-1.63,2.41-3.52,5.62-4.97,8.54-1.09,2.2.15,4.79,2.53,5.37,4.75,1.14,9.4,1.14,14.15,0,2.38-.57,3.62-3.16,2.53-5.37-1.45-2.92-3.33-6.13-4.97-8.54-.32-.48-.5-1.03-.5-1.59v-1.31c.35.03.69.07,1.04.11.59.07,1.12-.35,1.19-.94.07-.59-.35-1.12-.94-1.19-.62-.07-1.25-.13-1.87-.18-.03,0-.06,0-.09-.01-1.15-.09-2.29-.13-3.43-.13-1.81,0-3.63.11-5.46.32-.59.07-1.01.6-.94,1.19.07.59.6,1.01,1.19.94Zm9.83,7.36c.15-.02.23-.19.15-.31-.66-1.1-1.32-2.14-1.95-3.06-.55-.81-.87-1.78-.87-2.79v-1.08c0-.21-.17-.39-.38-.39-.52-.02-1.05-.03-1.57-.03-.55,0-1.1.01-1.65.03-.21,0-.38.18-.38.39v1.08c0,1.01-.32,1.98-.87,2.79-.62.92-1.29,1.97-1.95,3.07-.08.13,0,.29.15.31,3.13.38,6.19.38,9.31,0Z" fill-rule="evenodd" stroke-width="0"/></svg>