<svg xmlns="http://www.w3.org/2000/svg" viewBox="0 0 24 24"><g fill="#5e656d"><path d="m4.43 8.98 5.85 2.6c.43.19.97.29 1.52.29s1.08-.1 1.51-.29l5.85-2.6c1.49-.66 1.71-1.56 1.71-2.05s-.22-1.39-1.71-2.04l-5.85-2.6c-.87-.39-2.17-.39-3.03 0l-5.85 2.6c-1.49.66-1.71 1.56-1.71 2.05s.22 1.39 1.71 2.04"/><path d="m4.16 13.81 6.73 3a2.67 2.67 0 0 0 2.21 0l6.73-3c1.03-.45 1.83-1.69 1.83-2.82 0-.41-.34-.75-.75-.75s-.75.34-.75.75c0 .54-.45 1.23-.94 1.45l-6.74 3c-.31.14-.67.14-.99 0l-6.73-3c-.49-.22-.94-.91-.94-1.45 0-.41-.34-.75-.75-.75s-.75.34-.75.75c0 1.13.81 2.36 1.83 2.82Z"/><path d="M20.92 15.2c-.41 0-.75.34-.75.75 0 .62-.37 1.19-.94 1.45l-6.74 3c-.31.14-.67.14-.99 0l-6.73-3c-.57-.26-.94-.83-.94-1.45 0-.41-.34-.75-.75-.75s-.75.34-.75.75c0 1.21.72 2.32 1.83 2.82l6.73 3c.36.16.73.23 1.11.23s.75-.08 1.1-.24l6.73-3c1.11-.5 1.83-1.6 1.83-2.82 0-.41-.34-.75-.75-.75Z"/></g></svg>