<svg xmlns="http://www.w3.org/2000/svg" viewBox="0 0 24 24"><path d="m20.41 5.12-1.53-1.53c-1.16-1.15-3.16-1.15-4.32 0L4.04 14.11c-.43.43-.76.93-.99 1.49s-.35 1.15-.35 1.75v2.21c0 .46.18.9.51 1.23s.77.51 1.23.51h2.21c.61 0 1.19-.12 1.75-.35s1.06-.56 1.49-.99l8.79-8.79s.01 0 .02-.01 0-.01.01-.02l1.69-1.69c.57-.58.89-1.35.89-2.16s-.32-1.58-.89-2.16ZM8.76 18.83c-.28.28-.6.5-.97.65-.36.15-.75.23-1.14.23H4.44s-.08-.02-.1-.04a.13.13 0 0 1-.04-.1v-2.21c0-.39.08-.78.23-1.14s.37-.69.64-.97L13.41 7 17 10.59zM19.28 8.31l-1.14 1.14-3.59-3.59 1.14-1.14c.28-.27.64-.43 1.03-.43s.76.15 1.03.42l1.53 1.53c.27.28.43.64.43 1.03s-.15.75-.42 1.03Z"/></svg>