<svg xmlns="http://www.w3.org/2000/svg" viewBox="0 0 24 24"><path d="M12 13.23c-.46 0-.84.37-.84.84v2.19c0 .46.38.84.84.84s.84-.37.84-.84v-2.19c0-.46-.38-.84-.84-.84"/><path d="M17.33 8.85V7.26a5.32 5.32 0 0 0-1.61-3.75c-1.01-.98-2.32-1.5-3.79-1.51a5.31 5.31 0 0 0-5.26 5.25v1.6c-2.11.99-3.05 2.88-3.05 6.14C3.62 20.1 5.89 22 12 22s8.38-1.9 8.38-7.01c0-3.25-.94-5.15-3.05-6.14m-5.32 11.47c-5.2 0-6.7-1.2-6.7-5.34 0-2.78.67-4.12 2.39-4.78.08-.02.15-.04.21-.07.96-.33 2.26-.48 4.11-.48s3.15.15 4.1.47a.6.6 0 0 0 .2.07c1.73.67 2.4 2.01 2.4 4.79 0 4.14-1.5 5.34-6.7 5.34ZM15.66 8.3c-1.01-.22-2.2-.33-3.65-.33s-2.65.11-3.65.33V7.26a3.63 3.63 0 0 1 3.6-3.59h.03c.99 0 1.88.36 2.57 1.04.7.68 1.09 1.59 1.1 2.56z"/></svg>