<svg xmlns="http://www.w3.org/2000/svg" viewBox="0 0 24 24"><path d="M17.01 10.7c-.44 0-.79.36-.79.8s.36.8.8.8.8-.36.8-.8-.36-.8-.8-.8Z"/><path d="M20.69 8.31A3.77 3.77 0 0 0 18 7.2h-.2V6c0-1.01-.4-1.97-1.11-2.69A3.77 3.77 0 0 0 14 2.2h-4c-1.02 0-1.97.4-2.69 1.11C6.59 4.03 6.2 4.98 6.2 6v1.2H6c-1.02 0-1.97.4-2.69 1.11C2.59 9.03 2.2 9.98 2.2 11v3c0 1.02.4 1.97 1.11 2.69.72.72 1.67 1.11 2.69 1.11h.2v.7c0 .88.34 1.71.97 2.33.62.62 1.45.97 2.33.97h5c.88 0 1.71-.34 2.33-.97.62-.62.97-1.45.97-2.33v-.7h.2c1.01 0 1.97-.4 2.69-1.11S21.8 15.02 21.8 14v-3c0-1.01-.4-1.97-1.11-2.69M7.8 6c0-.59.23-1.14.65-1.56s.97-.64 1.56-.64h4c.59 0 1.14.23 1.56.65s.64.98.64 1.56v1.2H7.8v-1.2Zm8.4 12.5c0 .45-.18.88-.5 1.2s-.75.5-1.2.5h-5c-.45 0-.88-.18-1.2-.5s-.5-.75-.5-1.2v-1.9c0-.21.09-.42.23-.57.15-.15.35-.23.57-.23h6.8c.21 0 .42.09.57.23.15.15.23.36.23.57zm4-4.5c0 .59-.23 1.14-.64 1.56-.42.42-.97.64-1.56.64h-.24c-.08-.49-.31-.95-.66-1.3-.45-.45-1.06-.7-1.7-.7H8.6c-.63 0-1.25.26-1.7.7-.35.35-.58.81-.66 1.3H6c-.58 0-1.15-.24-1.56-.65A2.17 2.17 0 0 1 3.8 14v-3c0-.59.23-1.14.65-1.56s.97-.64 1.56-.64h12c.59 0 1.14.23 1.56.65s.64.98.64 1.56v3Z"/></svg>