<?xml version="1.0" encoding="UTF-8"?>
<svg xmlns="http://www.w3.org/2000/svg" viewBox="0 0 24 24">
  <path
    d="m18.77,5.8l-4.79-2.76c-1.23-.71-2.74-.71-3.97,0l-4.79,2.76c-1.23.71-1.98,2.02-1.99,3.44v5.53c0,1.42.76,2.73,1.99,3.44l4.79,2.76c1.23.71,2.74.71,3.97,0l4.79-2.76c1.23-.71,1.98-2.02,1.99-3.44v-5.53c0-1.42-.76-2.73-1.99-3.44Zm-7.97-1.39c.74-.43,1.65-.43,2.38,0l4.79,2.76c.12.08.24.16.34.26l-4.92,2.84c-.87.5-1.93.5-2.8,0l-4.92-2.84c.11-.1.22-.19.34-.26l4.79-2.76Zm-4.79,12.42c-.74-.43-1.19-1.21-1.19-2.07v-5.53c0-.14.02-.29.06-.43l4.92,2.84c.43.25.91.42,1.4.5v7.6c-.14-.04-.27-.1-.4-.16l-4.79-2.76Zm13.15-2.07c0,.85-.45,1.64-1.19,2.07l-4.79,2.76c-.13.07-.26.12-.4.16v-7.6c.49-.09.97-.26,1.4-.5l4.92-2.84c.03.14.05.28.06.43v5.53Z" />
</svg>