<?xml version="1.0" encoding="UTF-8"?><svg id="Figma_Icons" xmlns="http://www.w3.org/2000/svg" viewBox="0 0 24 24"><defs><style>.cls-1{fill:#707575;stroke-width:0px;}</style></defs><g id="cc-color-swatch-linear"><path class="cls-1" d="m6.51,18.3c.44,0,.8-.36.8-.8s-.36-.8-.8-.8h0c-.44,0-.79.36-.79.8s.36.8.8.8Z"/><path class="cls-1" d="m20.55,14.46c-.81-.81-1.88-1.26-3.03-1.26h-.67l.47-.48c.81-.81,1.25-1.89,1.25-3.03s-.45-2.22-1.25-3.03c-.81-.81-1.89-1.25-3.03-1.25s-2.22.44-3.03,1.25l-.45.45v-.62c0-1.15-.45-2.23-1.26-3.04s-1.89-1.26-3.04-1.26-2.23.45-3.04,1.26c-.81.81-1.26,1.89-1.26,3.04v11.02c0,.57.11,1.12.33,1.65.22.52.54.99.94,1.39.41.4.88.71,1.41.92.51.21,1.05.31,1.6.31,0,0,0,0,0,0s0,0,0,0h11.03c1.13,0,2.23-.46,3.03-1.26.81-.81,1.25-1.89,1.25-3.04s-.45-2.23-1.25-3.04Zm-8.16-6.66c1.02-1.01,2.79-1.01,3.8,0,.5.5.79,1.19.79,1.9s-.28,1.39-.79,1.9l-5.38,5.44v-7.66l1.58-1.59Zm-8.58-1.3c0-.71.29-1.41.79-1.91.51-.51,1.19-.79,1.91-.79s1.4.28,1.91.79.79,1.2.79,1.91v2.55h0v8.45c0,.36-.07.7-.2,1.03-.13.33-.33.62-.58.87-.25.25-.54.45-.87.58-.33.14-.68.21-1.04.21-.06,0-.12-.01-.18-.02-.3-.02-.59-.07-.87-.19-.33-.14-.62-.33-.87-.58-.25-.25-.45-.55-.58-.88-.14-.33-.21-.68-.21-1.04V6.5Zm15.61,12.91c-.5.5-1.19.79-1.9.79h-7.59l5.34-5.4h2.25c.72,0,1.39.28,1.9.79.51.51.79,1.19.79,1.91s-.29,1.41-.79,1.91Z"/></g></svg>