<svg xmlns="http://www.w3.org/2000/svg" width="17" height="16" fill="none"><mask id="a" width="17" height="16" x="0" y="0" maskUnits="userSpaceOnUse" style="mask-type:alpha"><path fill="#D9D9D9" d="M.827 0h16v16h-16z"/></mask><g mask="url(#a)"><path fill="#fff" d="M8.827 14q-2.516 0-4.259-1.742-1.74-1.74-1.74-4.258 0-2.3 1.5-3.992T8.16 2.033a.64.64 0 0 1 .65.3q.234.35-.016.734A3.44 3.44 0 0 0 8.227 5q0 1.5 1.05 2.55t2.55 1.05a3.6 3.6 0 0 0 1.934-.567.64.64 0 0 1 .716-.025q.367.21.317.659-.233 2.3-1.958 3.816Q11.11 14 8.827 14"/></g></svg>