<?xml version="1.0" encoding="UTF-8"?><svg id="Figma_Icons" xmlns="http://www.w3.org/2000/svg" viewBox="0 0 24 24"><defs><style>.cls-1{fill:#707575;stroke-width:0px;}</style></defs><g id="cc-palete-color-bold"><path class="cls-1" d="m12,2.4c-2.37,0-9.6,0-9.6,9.6s7.23,9.6,9.6,9.6c.34,0,.68-.01,1.01-.03,1.95-.1,3.49-1.74,3.48-3.73,0-.48.06-.71.09-.79.08-.03.29-.07.76-.07.11,0,.21,0,.31.01.07,0,.15.01.23.01,1.86,0,3.46-1.47,3.64-3.33.05-.53.08-1.09.08-1.67,0-9.6-7.23-9.6-9.6-9.6Zm7.93,11.11c-.11,1.06-1,1.89-2.05,1.89-.05,0-.09,0-.14,0-.13-.01-.26-.01-.4-.01-1.59,0-2.45.39-2.45,2.45v.02c0,1.13-.86,2.07-1.97,2.13-.3.01-.61.02-.92.02-3.72,0-8-.91-8-8S8.28,4,12,4s8,.91,8,8c0,.53-.02,1.04-.07,1.51Z"/><path class="cls-1" d="m15.69,8.26c-.72,0-1.31.6-1.31,1.32s.59,1.32,1.31,1.32,1.32-.59,1.32-1.32-.59-1.32-1.32-1.32Zm0,1.89c-.31,0-.57-.25-.57-.57s.26-.57.57-.57.57.26.57.57-.25.57-.57.57Z"/><path class="cls-1" d="m11.44,6.49c-.72,0-1.32.59-1.32,1.32s.6,1.31,1.32,1.31,1.32-.59,1.32-1.31-.59-1.32-1.32-1.32Zm0,1.89c-.31,0-.56-.26-.56-.57s.25-.57.56-.57.57.25.57.57-.25.57-.57.57Z"/><path class="cls-1" d="m9.46,10.42c0-.73-.59-1.32-1.32-1.32s-1.32.59-1.32,1.32.59,1.32,1.32,1.32,1.32-.6,1.32-1.32Zm-1.89,0c0-.32.25-.57.57-.57s.57.25.57.57-.26.57-.57.57-.57-.26-.57-.57Z"/><path class="cls-1" d="m8.92,13.38c-.73,0-1.32.59-1.32,1.31s.59,1.32,1.32,1.32,1.32-.59,1.32-1.32-.6-1.31-1.32-1.31Zm0,1.88c-.32,0-.57-.25-.57-.57s.25-.57.57-.57.57.26.57.57-.26.57-.57.57Z"/></g></svg>