<?xml version="1.0" encoding="UTF-8"?><svg id="Icons-2" xmlns="http://www.w3.org/2000/svg" viewBox="0 0 24 24"><path id="cc-radar" d="m20.93,7.96c-.18-.4-.66-.58-1.06-.4-.4.18-.58.66-.4,1.06.48,1.05.73,2.22.73,3.37,0,1.89-.66,3.74-1.86,5.2-1.2,1.46-2.88,2.47-4.74,2.84-1.85.37-3.8.08-5.47-.81-1.67-.89-2.99-2.34-3.71-4.09-.73-1.75-.82-3.71-.27-5.52.55-1.81,1.72-3.39,3.29-4.44,1.57-1.05,3.47-1.53,5.36-1.35,1.62.16,3.15.8,4.4,1.82l-1.73,1.73c-.85-.65-1.87-1.07-2.94-1.18-1.33-.14-2.68.2-3.79.95-1.11.74-1.94,1.86-2.33,3.14-.39,1.28-.32,2.67.19,3.9.51,1.24,1.44,2.27,2.62,2.9.85.45,1.79.69,2.74.69.38,0,.75-.04,1.13-.11,1.31-.26,2.5-.97,3.35-2.01.85-1.04,1.32-2.34,1.32-3.68v-.48c0-.44-.36-.8-.8-.8s-.8.36-.8.8v.48c0,.97-.34,1.92-.95,2.67-.62.75-1.48,1.27-2.43,1.46-.95.19-1.95.04-2.8-.42-.85-.46-1.53-1.2-1.9-2.1-.37-.9-.42-1.9-.14-2.83.28-.93.88-1.73,1.69-2.27.81-.54,1.78-.78,2.75-.69.71.07,1.38.32,1.96.72l-1.76,1.76c-.18-.06-.37-.1-.57-.1-.99,0-1.8.81-1.8,1.8s.81,1.8,1.8,1.8,1.8-.81,1.8-1.8c0-.2-.04-.39-.1-.57l5.23-5.23s0,0,0,0c.08-.08.14-.17.17-.26.07-.18.07-.38,0-.56,0-.01,0-.03,0-.04-.02-.05-.06-.09-.09-.14-.03-.04-.05-.09-.08-.12,0,0,0,0,0,0,0,0,0,0,0,0,0,0,0,0,0,0-1.6-1.6-3.72-2.6-5.97-2.82-2.25-.22-4.53.35-6.4,1.61-1.88,1.26-3.27,3.14-3.93,5.31-.66,2.16-.54,4.51.33,6.59.87,2.09,2.44,3.83,4.44,4.89,1.43.76,3.02,1.15,4.62,1.15.64,0,1.28-.06,1.91-.19,2.22-.44,4.23-1.65,5.66-3.4,1.43-1.75,2.22-3.96,2.22-6.22,0-1.38-.3-2.77-.87-4.03Z" style="fill:#707575; stroke-width:0px;"/></svg>