<svg xmlns="http://www.w3.org/2000/svg" width="17" height="16" fill="none"><mask id="a" width="17" height="16" x="0" y="0" maskUnits="userSpaceOnUse" style="mask-type:alpha"><path fill="#fff" d="M.827 0h16v16h-16z"/></mask><g mask="url(#a)"><path fill="#fff" d="M8.827 2.667a.64.64 0 0 1-.475-.192A.64.64 0 0 1 8.16 2v-.667q0-.283.192-.475a.65.65 0 0 1 .475-.191q.283 0 .475.191a.65.65 0 0 1 .192.475V2a.65.65 0 0 1-.192.475.65.65 0 0 1-.475.192m0 12.666a.64.64 0 0 1-.475-.192.64.64 0 0 1-.192-.474V14q0-.283.192-.475a.64.64 0 0 1 .475-.192q.283 0 .475.192a.65.65 0 0 1 .192.475v.667a.64.64 0 0 1-.192.474.65.65 0 0 1-.475.192m6-6.666a.64.64 0 0 1-.475-.192A.64.64 0 0 1 14.16 8q0-.283.192-.475a.65.65 0 0 1 .475-.192h.667q.284 0 .474.192A.65.65 0 0 1 16.16 8a.64.64 0 0 1-.192.475.64.64 0 0 1-.474.192zm-12.667 0a.64.64 0 0 1-.474-.192A.64.64 0 0 1 1.494 8q0-.283.192-.475a.65.65 0 0 1 .474-.192h.667q.283 0 .475.192A.65.65 0 0 1 3.494 8a.65.65 0 0 1-.192.475.65.65 0 0 1-.475.192zM12.827 4a.62.62 0 0 1-.183-.459q0-.274.183-.474l.233-.25a.6.6 0 0 1 .467-.2q.284 0 .483.2.2.2.2.483 0 .284-.2.483l-.25.234a.67.67 0 0 1-.466.183.64.64 0 0 1-.467-.2m-9.183 9.183a.66.66 0 0 1-.2-.483q0-.284.2-.483l.25-.234a.67.67 0 0 1 .466-.183.64.64 0 0 1 .467.2.66.66 0 0 1 .192.467.58.58 0 0 1-.192.466l-.233.25a.6.6 0 0 1-.467.2.66.66 0 0 1-.483-.2m9.4 0-.234-.25a.67.67 0 0 1-.183-.466.64.64 0 0 1 .2-.467.66.66 0 0 1 .467-.192.58.58 0 0 1 .466.192l.25.233q.2.183.2.467t-.2.483a.66.66 0 0 1-.483.2.66.66 0 0 1-.483-.2M3.894 4l-.25-.233a.6.6 0 0 1-.2-.467q0-.284.2-.483a.66.66 0 0 1 .483-.2q.284 0 .483.2l.234.25a.67.67 0 0 1 .183.466.64.64 0 0 1-.2.467.62.62 0 0 1-.459.183A.68.68 0 0 1 3.894 4m4.933 8q-1.666 0-2.833-1.167Q4.827 9.667 4.827 8t1.167-2.833T8.827 4t2.833 1.167Q12.827 6.333 12.827 8t-1.167 2.833Q10.494 12 8.827 12"/></g></svg>