<?xml version="1.0" encoding="UTF-8"?><svg id="Icons-2" xmlns="http://www.w3.org/2000/svg" viewBox="0 0 24 24"><g id="cc-stars"><path d="m15.67,12.67c.3-.09.5-.36.5-.67s-.21-.58-.5-.67l-2.64-.76c-1.16-.33-2.06-1.23-2.39-2.39l-.75-2.64c-.09-.3-.36-.5-.67-.5s-.58.21-.67.5l-.76,2.64c-.33,1.16-1.23,2.06-2.39,2.39l-2.64.75c-.3.09-.5.36-.5.67s.21.58.5.67l2.64.76c1.16.33,2.06,1.23,2.39,2.39l.75,2.64c.09.3.36.5.67.5s.58-.21.67-.5l.75-2.64h0c.33-1.16,1.23-2.06,2.39-2.39l2.64-.75Zm-3.02-.58c-1.63.47-2.88,1.72-3.35,3.35l-.09.3-.09-.3c-.47-1.63-1.72-2.88-3.34-3.34l-.3-.09.3-.09c1.63-.47,2.88-1.72,3.34-3.34l.09-.3.09.3c.47,1.63,1.72,2.88,3.34,3.34l.3.09-.3.09Z" style="fill:#707575; stroke-width:0px;"/><path d="m21.21,5.76l-.96-.24c-.87-.22-1.55-.9-1.77-1.77l-.24-.96c-.08-.31-.36-.53-.67-.53s-.6.22-.67.53l-.24.96c-.22.87-.9,1.55-1.77,1.77l-.96.24c-.31.08-.53.36-.53.67s.22.6.53.67l.96.24c.87.22,1.55.9,1.77,1.77l.24.96c.08.31.36.53.67.53s.6-.22.67-.53l.24-.96c.22-.87.9-1.55,1.77-1.77l.96-.24c.31-.08.53-.36.53-.67s-.22-.6-.53-.67Zm-3.65,1.98c-.32-.53-.77-.98-1.3-1.3.53-.32.98-.77,1.3-1.3.32.53.77.98,1.3,1.3-.53.32-.98.77-1.3,1.3Z" style="fill:#707575; stroke-width:0px;"/><path d="m19.18,17.6l-1.1-.36c-.41-.14-.74-.47-.88-.88l-.37-1.1c-.1-.28-.36-.48-.66-.48s-.57.19-.66.48l-.37,1.1c-.14.41-.47.74-.88.88l-1.1.37c-.28.1-.48.36-.48.66s.19.57.48.66l1.1.36c.41.14.74.47.88.88l.37,1.1c.1.28.36.48.66.48s.57-.19.66-.48l.36-1.1c.14-.41.47-.74.88-.88l1.1-.37c.28-.1.48-.36.48-.66s-.19-.57-.48-.66Zm-3,1.51c-.22-.34-.51-.63-.85-.85.34-.22.63-.51.85-.85.22.34.51.63.85.85-.34.22-.63.51-.85.85Z" style="fill:#707575; stroke-width:0px;"/></g></svg>