<?xml version="1.0" encoding="UTF-8"?>
<svg xmlns="http://www.w3.org/2000/svg" viewBox="0 0 24 24">
  <g>
    <path
      d="m14.2,11.69c-.44.25-.91.42-1.41.51v9.3c.42-.08.83-.23,1.2-.44l4.81-2.78c1.23-.71,1.99-2.03,2-3.46v-5.56c0-.43-.07-.85-.21-1.25l-6.39,3.68Z" />
    <path
      d="m10.6,10.31c.87.5,1.94.5,2.81,0l6.39-3.68c-.28-.32-.62-.6-.99-.82l-4.81-2.78c-1.24-.71-2.76-.71-3.99,0l-4.81,2.78c-.36.21-.68.47-.96.78l6.36,3.72Z" />
    <path
      d="m11.2,12.2c-.49-.09-.97-.26-1.41-.51l-6.37-3.72c-.15.42-.22.85-.23,1.3v5.56c0,1.43.76,2.74,2,3.46l4.81,2.78c.37.21.78.36,1.2.44v-9.3Z" />
  </g>
</svg>