<?xml version="1.0" encoding="UTF-8"?><svg id="Figma_Icons" xmlns="http://www.w3.org/2000/svg" viewBox="0 0 24 24"><defs><style>.cls-1{fill:#707575;stroke-width:0px;}</style></defs><g id="cc-color-swatch-bold"><path class="cls-1" d="m8.2,3.45c-.31-.3-.68-.55-1.08-.72-.41-.16-.85-.24-1.29-.23-.88,0-1.72.35-2.35.97-.62.62-.97,1.46-.98,2.34v12.24c-.02.78.24,1.54.72,2.15.48.61,1.16,1.04,1.92,1.21.23.05.46.08.69.08.88,0,1.73-.35,2.35-.97.62-.62.97-1.47.97-2.35V5.83c0-.44-.08-.87-.25-1.27-.16-.41-.4-.78-.7-1.1Zm-1.73,15.37c-.17.17-.4.27-.65.28-.19,0-.37-.05-.53-.15-.15-.11-.27-.25-.34-.43-.07-.17-.09-.37-.06-.55.04-.18.13-.35.26-.48.13-.13.3-.22.48-.26.18-.03.37-.01.53.06.17.07.31.19.42.34.11.16.16.34.16.53,0,.25-.1.49-.28.66Z"/><path class="cls-1" d="m17.7,10.76c.17-.41.26-.84.26-1.28s-.09-.88-.26-1.28c-.18-.41-.43-.78-.75-1.09-.32-.31-.69-.55-1.09-.72-.41-.17-.84-.26-1.28-.26-.89,0-1.74.33-2.37.95l-1.62,1.62v9.39l6.39-6.23c.31-.31.56-.68.73-1.09Z"/><path class="cls-1" d="m20.52,15.82c-.62-.62-1.46-.97-2.34-.97h-2.18l-6.65,6.65h8.83c.44,0,.87-.09,1.28-.25.4-.17.77-.41,1.08-.73.31-.31.55-.68.72-1.09.17-.41.25-.84.25-1.28,0-.88-.36-1.72-.98-2.34Z"/></g></svg>