<?xml version="1.0" encoding="UTF-8"?><svg id="Figma_Icons" xmlns="http://www.w3.org/2000/svg" viewBox="0 0 24 24"><defs><style>.cls-1{fill:#707575;stroke-width:0px;}</style></defs><path id="cc-palete-color-bold" class="cls-1" d="m12,2.5C7.58,2.5,2.5,3.58,2.5,12s5.08,9.5,9.5,9.5c.37,0,.74,0,1.09-.03,1.32-.07,2.34-1.18,2.34-2.53v-.02c0-2.45,1.02-2.91,2.91-2.91.16,0,.32,0,.48.01,1.31.09,2.46-.92,2.59-2.23.06-.56.08-1.16.08-1.79,0-8.42-5.08-9.5-9.5-9.5Zm-5.97,7.63c0-.72.58-1.3,1.3-1.3s1.3.58,1.3,1.3-.58,1.3-1.3,1.3-1.3-.58-1.3-1.3Zm2.15,6.34c-.72,0-1.3-.58-1.3-1.3s.58-1.3,1.3-1.3,1.3.58,1.3,1.3-.58,1.3-1.3,1.3Zm3.25-8.1c-.72,0-1.3-.58-1.3-1.3s.58-1.3,1.3-1.3,1.3.58,1.3,1.3-.58,1.3-1.3,1.3Zm4.85,2.12c-.72,0-1.3-.58-1.3-1.3s.58-1.3,1.3-1.3,1.3.58,1.3,1.3-.58,1.3-1.3,1.3Z"/></svg>