<?xml version="1.0" encoding="UTF-8"?><svg id="Figma_Icons" xmlns="http://www.w3.org/2000/svg" viewBox="0 0 24 24"><defs><style>.cls-1{fill:#707575;stroke-width:0px;}</style></defs><path id="cc-bell-diagonal-linear" class="cls-1" d="m19.02,14.64l-2.99,4.87c-.66,1.09-1.79,1.81-3.06,1.96-.16.02-.33.03-.5.03-.85,0-1.68-.27-2.37-.76-1.66,1.24-4.01.91-5.25-.75-.98-1.31-1-3.11-.04-4.44l-1.04-1.04c-1.63-1.63-1.63-4.27,0-5.89.23-.23.48-.43.76-.6l4.57-2.82c2.54-1.63,5.83-1.45,8.18.44l1.31-1.31c.3-.31.8-.32,1.12-.02.31.3.32.8.02,1.12,0,0-.01.01-.02.02l-1.31,1.31c1.8,2.25,2.05,5.38.64,7.89h0Zm-10.13,5l-2.94-2.94c-.47.85-.32,1.9.37,2.58.69.66,1.73.8,2.58.36Zm7.85-12.35c-1.81-1.83-4.66-2.14-6.82-.75l-4.57,2.82c-1.21.75-1.59,2.34-.84,3.56.11.17.23.33.37.47l5.77,5.77c1.01,1.01,2.65,1.01,3.66,0,.14-.14.27-.3.38-.48l2.97-4.85c1.19-2.14.82-4.82-.91-6.55h0Zm1.01,14.21c-.44,0-.79-.35-.79-.79,0-.25.12-.49.33-.64,1.39-1.04,2.32-2.57,2.62-4.28.09-.43.51-.7.93-.62.43.09.7.51.62.93,0,0,0,.02,0,.02-.39,2.08-1.54,3.95-3.24,5.22-.14.1-.3.15-.47.15ZM3.3,7.04c-.44,0-.79-.36-.79-.8,0-.17.05-.33.15-.47,1.29-1.73,3.19-2.89,5.31-3.27.43-.09.85.19.93.62.09.43-.19.85-.62.93-1.74.29-3.31,1.24-4.36,2.66-.15.2-.38.32-.63.32h0Z"/></svg>