<?xml version="1.0" encoding="UTF-8"?>
<svg id="Icons-2" xmlns="http://www.w3.org/2000/svg" viewBox="0 0 24 24">
  <defs>
    <style>
      .cls-1 {
        fill: #707575;
        stroke-width: 0px;
      }
    </style>
  </defs>
  <g id="cc-floppy-disk">
    <path class="cls-1" d="m20.11,6.98s0,0,0,0l-3.08-3.08c-1.09-1.09-2.53-1.69-4.08-1.69h-4.95c-1.55,0-3.01.6-4.1,1.7-1.1,1.1-1.7,2.55-1.7,4.1v8c0,1.55.6,3.01,1.7,4.1,1.1,1.1,2.55,1.7,4.1,1.7h8c1.55,0,3.01-.6,4.1-1.7,1.1-1.09,1.7-2.55,1.7-4.1v-4.93c0-1.55-.6-3-1.69-4.09Zm.09,9.02c0,1.12-.44,2.18-1.23,2.97-.79.79-1.85,1.23-2.97,1.23h-3.2v-2.2c0-.44-.36-.8-.8-.8s-.8.36-.8.8v2.2h-3.2c-1.12,0-2.18-.44-2.97-1.23-.79-.79-1.23-1.85-1.23-2.97v-8c0-1.12.44-2.18,1.23-2.97.79-.79,1.85-1.23,2.97-1.23h4.95c1.11,0,2.16.44,2.95,1.23l3.08,3.08c.79.79,1.23,1.85,1.23,2.96v4.93Z"/>
    <path class="cls-1" d="m12,9.2c-1.54,0-2.8,1.26-2.8,2.8s1.26,2.8,2.8,2.8,2.8-1.26,2.8-2.8-1.26-2.8-2.8-2.8Zm0,4c-.66,0-1.2-.54-1.2-1.2s.54-1.2,1.2-1.2,1.2.54,1.2,1.2-.54,1.2-1.2,1.2Z"/>
  </g>
</svg>