<?xml version="1.0" encoding="UTF-8"?><svg id="Icons-2" xmlns="http://www.w3.org/2000/svg" viewBox="0 0 24 24"><g id="cc-duplicate"><path d="m17,7.2h-.2v-.2c0-1.26-.51-2.5-1.41-3.39-.89-.89-2.13-1.41-3.39-1.41h-5c-1.28,0-2.49.5-3.39,1.41-.91.91-1.41,2.11-1.41,3.39v5c0,1.28.5,2.49,1.41,3.39.91.91,2.11,1.41,3.39,1.41h.2v.2c0,2.65,2.15,4.8,4.8,4.8h5c2.65,0,4.8-2.15,4.8-4.8v-5c0-2.65-2.15-4.8-4.8-4.8ZM7,15.2c-.85,0-1.66-.33-2.26-.94s-.94-1.41-.94-2.26v-5c0-.84.34-1.67.94-2.26s1.41-.94,2.26-.94h5c.84,0,1.67.34,2.26.94.6.6.94,1.42.94,2.26v.2h-3.2c-2.65,0-4.8,2.15-4.8,4.8v3.2h-.2Zm13.2,1.8c0,1.76-1.44,3.2-3.2,3.2h-5c-1.76,0-3.2-1.44-3.2-3.2v-5c0-1.76,1.44-3.2,3.2-3.2h5c1.76,0,3.2,1.44,3.2,3.2v5Z" style="fill:#707575; stroke-width:0px;"/><path d="m17,13.7h-1.7v-1.7c0-.44-.36-.8-.8-.8s-.8.36-.8.8v1.7h-1.7c-.44,0-.8.36-.8.8s.36.8.8.8h1.7v1.7c0,.44.36.8.8.8s.8-.36.8-.8v-1.7h1.7c.44,0,.8-.36.8-.8s-.36-.8-.8-.8Z" style="fill:#707575; stroke-width:0px;"/></g></svg>