<?xml version="1.0" encoding="UTF-8"?><svg id="Figma_Icons" xmlns="http://www.w3.org/2000/svg" viewBox="0 0 24 24"><defs><style>.cls-1{fill:#707575;stroke-width:0px;}</style></defs><path id="cc-pen-linear" class="cls-1" d="m20.41,5.12l-1.53-1.53c-1.16-1.15-3.16-1.15-4.32,0L4.04,14.11c-.43.43-.76.93-.99,1.49-.23.56-.35,1.15-.35,1.75v2.21c0,.46.18.9.51,1.23.33.33.77.51,1.23.51h2.21c.61,0,1.19-.12,1.75-.35.56-.23,1.06-.56,1.49-.99l8.79-8.79s.01,0,.02-.01,0-.01.01-.02l1.69-1.69h0c.57-.58.89-1.35.89-2.16s-.32-1.58-.89-2.16Zm-11.65,13.71c-.28.28-.6.5-.97.65-.36.15-.75.23-1.14.23h-2.21s-.08-.02-.1-.04c-.03-.03-.04-.06-.04-.1v-2.21c0-.39.08-.78.23-1.14.15-.36.37-.69.64-.97L13.41,7l3.59,3.59-8.24,8.24Zm10.52-10.52l-1.14,1.14-3.59-3.59,1.14-1.14c.28-.27.64-.43,1.03-.43s.76.15,1.03.42l1.53,1.53c.27.28.43.64.43,1.03s-.15.75-.42,1.03Z"/></svg>