<?xml version="1.0" encoding="UTF-8"?><svg id="Camada_5" xmlns="http://www.w3.org/2000/svg" viewBox="0 0 24 24"><path d="m18.92,19.72H5.08c-1.59,0-2.88-1.29-2.88-2.88V7.15c0-1.59,1.29-2.88,2.88-2.88h13.85c1.59,0,2.88,1.29,2.88,2.88v9.69c0,1.59-1.29,2.88-2.88,2.88ZM3.8,9.97v6.87c0,.7.57,1.28,1.28,1.28h13.85c.7,0,1.28-.57,1.28-1.28v-6.87l-6.69,4.12c-.93.57-2.09.57-3.02,0l-6.69-4.12Zm0-2.59c0,.44.23.86.61,1.09l6.92,4.26c.41.25.93.25,1.34,0l6.92-4.26c.37-.23.61-.65.61-1.09v-.22c0-.7-.57-1.28-1.28-1.28H5.08c-.7,0-1.28.57-1.28,1.28v.23Z" fill="#707575" stroke-width="0"/></svg>