<?xml version="1.0" encoding="UTF-8"?><svg id="uuid-2c02cdb5-235f-4332-94a7-02b0b581cd63" xmlns="http://www.w3.org/2000/svg" width="24" height="24" viewBox="0 0 24 24"><g id="uuid-36ccc026-9877-4492-b332-bea42752d4d9"><path d="m21.16,11.16c-.46,0-.84.38-.84.84,0,6.37-1.94,8.32-8.32,8.32s-8.32-1.94-8.32-8.32S5.63,3.68,12,3.68c.46,0,.84-.38.84-.84s-.38-.84-.84-.84C4.62,2,2,4.62,2,12s2.62,10,10,10,10-2.62,10-10c0-.46-.38-.84-.84-.84Z" fill="#707575" stroke-width="0"/><path d="m9.11,15.56c.1.21.29.37.5.44,0,0,.69.23,1.61.23s2.24-.23,3.23-1.35l4.61-5.21s.07-.06.1-.1c.03-.03.06-.07.07-.09l1.05-1.18c1.18-1.33,1.05-3.37-.28-4.54-.64-.57-1.48-.86-2.33-.8-.86.05-1.64.44-2.22,1.08l-5.83,6.58c-1.85,2.09-.59,4.84-.53,4.95Zm9.79-10.55c.63.56.69,1.53.13,2.17l-.57.64-2.3-2.04.57-.64c.27-.31.65-.49,1.06-.52.4-.02.8.11,1.11.38Zm-7.99,6.71l4.14-4.68,2.3,2.04-4.14,4.68c-.81.91-2.11.82-2.7.72-.21-.66-.4-1.85.4-2.76Z" fill="#707575" stroke-width="0"/></g></svg>