<?xml version="1.0" encoding="UTF-8"?><svg id="uuid-de8fac78-09dd-441f-9ddf-fd718bd505b3" xmlns="http://www.w3.org/2000/svg" width="24" height="24" viewBox="0 0 24 24"><path id="uuid-50087437-c638-4fd1-bcfc-793ad0d3fd59" d="m21.96,14.4c-.16-.72-.59-1.33-1.21-1.72l-1.07-.68,1.07-.68c.34-.22.63-.51.84-.84.39-.62.52-1.36.37-2.07s-.59-1.33-1.21-1.72l-6.2-3.95c-1.55-.99-3.55-.99-5.1,0l-6.2,3.95c-.34.22-.62.5-.84.84-.81,1.28-.44,2.98.84,3.8l1.07.68-1.07.68c-.34.21-.63.51-.84.84-.39.62-.52,1.36-.36,2.07s.59,1.33,1.21,1.72l6.2,3.95c.77.49,1.66.74,2.55.74s1.78-.25,2.55-.74l6.2-3.95c.34-.21.63-.51.84-.84.39-.62.52-1.36.37-2.07ZM3.67,8.33c.1-.16.23-.28.38-.38l6.2-3.95c.53-.34,1.14-.51,1.75-.51s1.22.17,1.75.51l6.2,3.95c.28.18.48.46.55.78.07.33.01.66-.17.94-.1.15-.23.28-.38.38l-6.2,3.95c-1.06.68-2.43.68-3.49,0l-6.2-3.95c-.58-.37-.75-1.14-.38-1.73Zm16.66,7.34c-.1.15-.23.28-.38.38l-6.2,3.95c-1.06.68-2.43.67-3.49,0l-6.2-3.95c-.28-.18-.48-.46-.55-.78s-.01-.66.17-.94c.1-.16.23-.28.38-.38l1.66-1.06,3.73,2.38h0c.77.49,1.66.74,2.55.74s1.78-.25,2.55-.74l3.73-2.38,1.66,1.06c.28.18.48.46.55.78.07.33.01.66-.17.94Z" fill="#707575" stroke-width="0"/></svg>