<?xml version="1.0" encoding="UTF-8"?><svg id="Figma_Icons" xmlns="http://www.w3.org/2000/svg" viewBox="0 0 24 24"><defs><style>.cls-1{fill:#707575;stroke-width:0px;}</style></defs><g id="cc-document-linear"><path class="cls-1" d="m2.8,12.46l8.65,5.19c.34.21.77.21,1.11,0l8.65-5.19c.38-.23.5-.72.27-1.1-.23-.38-.72-.5-1.1-.27h0l-8.19,4.91c-.12.07-.27.07-.38,0L3.62,11.09c-.38-.23-.87-.1-1.1.27-.23.38-.1.87.27,1.1Z"/><path class="cls-1" d="m20.38,14.74h0l-8.19,4.91c-.12.07-.27.07-.38,0L3.62,14.74c-.38-.23-.87-.1-1.1.27-.23.38-.1.87.27,1.1l8.65,5.19c.34.21.77.21,1.11,0l8.65-5.19c.38-.23.5-.72.27-1.1-.23-.38-.72-.5-1.1-.27Z"/><path class="cls-1" d="m2.8,9l7.98,4.79c.37.22.79.34,1.22.34.43,0,.85-.12,1.22-.34l7.98-4.79c.11-.07.21-.16.27-.27.23-.38.11-.87-.27-1.1l-7.98-4.79c-.75-.45-1.69-.45-2.45,0L2.8,7.63c-.11.07-.21.16-.27.27-.23.38-.11.87.27,1.1Zm8.8-4.79c.25-.15.55-.15.8,0l6.84,4.1-6.84,4.1c-.25.15-.55.15-.8,0l-6.84-4.1,6.84-4.1Z"/></g></svg>