<?xml version="1.0" encoding="UTF-8"?><svg id="uuid-21dd6738-9212-4b9c-975f-aaa6a78381c6" xmlns="http://www.w3.org/2000/svg" width="24" height="24" viewBox="0 0 24 24"><g id="uuid-2c2b9369-caa7-420d-a51f-8155ac54f84c"><path d="m13.94,16.16l-1.47,1.47c-1.74,1.74-4.69,1.84-6.36.03-.77-.83-1.15-1.88-1.15-2.93,0-1.1.42-2.21,1.27-3.05l1.62-1.62c.27-.27.27-.71,0-.98s-.71-.27-.98,0l-1.62,1.62c-1.11,1.11-1.67,2.57-1.67,4.03,0,1.41.53,2.83,1.57,3.93,2.22,2.33,6.07,2.2,8.34-.07l1.44-1.44c.27-.27.27-.71,0-.98s-.71-.27-.98,0Z" fill="#707575" stroke-width="0"/><path d="m10.52,5.42l-1.44,1.44c-.27.27-.27.71,0,.98s.71.27.98,0l1.47-1.47c1.74-1.74,4.69-1.84,6.36-.03.77.83,1.15,1.88,1.15,2.93,0,1.1-.42,2.21-1.27,3.05l-1.62,1.62c-.27.27-.27.71,0,.98s.71.27.98,0l1.62-1.62c1.11-1.11,1.67-2.57,1.67-4.03,0-1.41-.53-2.83-1.57-3.93-2.22-2.33-6.07-2.2-8.34.07Z" fill="#707575" stroke-width="0"/><path d="m8.24,15.76c.27.27.71.27.98,0l6.54-6.54c.27-.27.27-.71,0-.98s-.71-.27-.98,0l-6.54,6.54c-.27.27-.27.71,0,.98Z" fill="#707575" stroke-width="0"/></g><path d="m5.52,8.17c-.05.49-.58.66-.9.61-.21-.05-.41-.08-.64-.12-.58-.11-1.25-.23-1.88-.38-.47-.11-.47-.53-.44-.78.05-.31.33-.54.66-.55.03,0,.07,0,.1,0,.85.12,1.7.28,2.51.44.37.09.63.42.59.77Z" fill="#707575" stroke-width="0"/><path d="m22.32,16.5c-.08.39-.36.59-.72.54-.83-.12-1.71-.28-2.6-.48-.37-.09-.57-.42-.52-.77s.38-.62.88-.57c.21.04.43.08.66.12.59.11,1.25.23,1.88.38.51.12.46.59.41.78Z" fill="#707575" stroke-width="0"/><path d="m8.52,4.88c.08.49-.25.76-.51.82-.19.04-.65.09-.8-.4-.28-1-.48-1.9-.62-2.75-.06-.36.15-.62.55-.71.05-.01.11-.02.17-.02.25,0,.48.1.57.4.2.65.33,1.32.48,1.96.05.24.1.47.15.69Z" fill="#707575" stroke-width="0"/><path d="m17.4,21.35c.07.38-.17.74-.55.82-.35.07-.73-.18-.82-.56-.18-.75-.37-1.55-.52-2.37-.06-.27,0-.5.13-.68.12-.15.31-.23.53-.25.25,0,.59.21.67.54.23.92.41,1.73.56,2.49Z" fill="#707575" stroke-width="0"/></svg>