<?xml version="1.0" encoding="UTF-8"?><svg id="Figma_Icons" xmlns="http://www.w3.org/2000/svg" viewBox="0 0 24 24"><defs><style>.cls-1{fill:#707575;stroke-width:0px;}</style></defs><g id="cc-layer-bold"><path class="cls-1" d="m20.4,11.11h0l-8.27,4.96c-.08.05-.18.05-.26,0L3.6,11.11c-.38-.23-.87-.1-1.1.27-.23.38-.1.87.27,1.1l8.71,5.23c.32.19.71.19,1.03,0l8.71-5.23c.38-.23.5-.72.27-1.1s-.72-.5-1.1-.27Z"/><path class="cls-1" d="m20.4,14.77h0l-8.27,4.96c-.08.05-.18.05-.26,0L3.6,14.77c-.38-.23-.87-.1-1.1.27-.23.38-.1.87.27,1.1l8.68,5.21c.34.2.75.2,1.09,0l8.68-5.21c.38-.23.5-.72.27-1.1-.23-.38-.72-.5-1.1-.27Z"/><path class="cls-1" d="m2.78,9.01l8,4.8c.75.45,1.7.45,2.45,0l8-4.8c.38-.23.5-.72.27-1.1-.07-.11-.16-.21-.27-.27l-8-4.8c-.75-.45-1.7-.45-2.45,0L2.78,7.64c-.38.23-.5.72-.27,1.1.07.11.16.21.27.27Z"/></g></svg>