<?xml version="1.0" encoding="UTF-8"?><svg id="uuid-675d17ac-096d-4aba-88bf-1c421b3face5" xmlns="http://www.w3.org/2000/svg" width="24" height="24" viewBox="0 0 24 24"><g id="uuid-b320cae1-7700-4ef2-82cb-10ed49abf9b8"><path d="m12,19c-.89,0-1.78-.25-2.55-.74h0l-6.2-3.95c-.62-.39-1.05-1.01-1.21-1.72-.16-.72-.03-1.45.36-2.07.22-.34.5-.62.84-.84l6.2-3.95c1.55-.99,3.55-.99,5.1,0l6.2,3.95c1.28.81,1.66,2.52.84,3.8-.22.34-.51.63-.85.84l-6.2,3.95c-.77.49-1.66.74-2.55.74Zm0-12.51c-.61,0-1.21.17-1.75.51l-6.2,3.95c-.16.1-.28.23-.38.38-.18.28-.24.62-.17.94.07.33.27.6.55.78l6.2,3.95c1.06.68,2.43.68,3.49,0l6.2-3.95c.16-.1.28-.23.38-.38.37-.58.2-1.36-.38-1.73l-6.2-3.95c-.53-.34-1.14-.51-1.75-.51Z" fill="#707575" stroke-width="0"/></g></svg>