<svg xmlns="http://www.w3.org/2000/svg" width="24" height="24"><g fill="#707575"><path d="M13.09 14.32H10.9c-.46 0-.84.37-.84.84s.38.84.84.84h2.19c.46 0 .84-.37.84-.84s-.37-.84-.84-.84"/><path d="M12 7.98c-1.46 0-2.66.11-3.66.33V7.27a3.66 3.66 0 0 1 3.61-3.6H12c1.6 0 3.04 1.07 3.49 2.59.13.44.6.69 1.04.56.21-.06.39-.21.5-.41s.13-.42.06-.64c-.67-2.23-2.76-3.78-5.1-3.78h-.07a5.33 5.33 0 0 0-5.27 5.25v1.61c-2.1.99-3.04 2.88-3.04 6.13 0 5.11 2.27 7.01 8.38 7.01s8.38-1.9 8.38-7.01-2.27-7.01-8.38-7.01Zm0 12.35c-5.2 0-6.7-1.2-6.7-5.34 0-2.78.67-4.12 2.4-4.79.06-.01.12-.04.17-.06.96-.33 2.27-.49 4.13-.49 5.2 0 6.7 1.2 6.7 5.34s-1.5 5.34-6.7 5.34"/></g></svg>