<?xml version="1.0" encoding="UTF-8"?>
<svg id="Icons-2" xmlns="http://www.w3.org/2000/svg" viewBox="0 0 24 24">
  <defs>
    <style>
      .cls-1 {
        fill: #707575;
        stroke-width: 0px;
      }
    </style>
  </defs>
  <g id="cc-note-edit">
    <path class="cls-1" d="m9.45,20.16c-1.07.1-2.15,0-3.19-.26-.37-.16-.71-.39-.99-.67-.29-.29-.51-.62-.67-.99-.27-1.04-.36-2.12-.26-3.26v-3.99c0-3.54,0-5.32.93-6.25.93-.93,2.71-.93,6.25-.93h1c2.64,0,3.96,0,4.76.53.35.24.65.54.89.89.54.81.54,2.13.54,4.77,0,.44.36.8.8.8s.8-.36.8-.8c0-2.96,0-4.44-.81-5.66-.35-.52-.8-.97-1.33-1.32-1.21-.8-2.69-.8-5.65-.8h-1c-3.98,0-5.98,0-7.38,1.4-1.4,1.4-1.4,3.4-1.4,7.38v3.92c-.11,1.28,0,2.56.33,3.8,0,.03.02.07.03.1.24.59.59,1.11,1.04,1.56.45.45.97.8,1.56,1.04.03.01.06.02.1.03.92.25,1.86.37,2.8.37.33,0,.66-.02,1-.05.44-.04.76-.43.72-.87-.04-.44-.43-.76-.87-.72Z"/>
    <path class="cls-1" d="m8.53,7.19c-.44,0-.8.36-.8.8s.36.8.8.8h5.99c.44,0,.8-.36.8-.8s-.36-.8-.8-.8h-5.99Z"/>
    <path class="cls-1" d="m13.32,12.98c0-.44-.36-.8-.8-.8h-3.99c-.44,0-.8.36-.8.8s.36.8.8.8h3.99c.44,0,.8-.36.8-.8Z"/>
    <path class="cls-1" d="m21.14,15.19c-.1-.22-.23-.42-.42-.62l-.83-.83c-.18-.18-.39-.33-.7-.46-.22-.07-.45-.11-.71-.11-.24,0-.48.05-.75.16-.24.1-.45.25-.62.43l-3.59,3.58c-.25.26-.45.56-.59.9-.14.34-.21.7-.21,1.07v1.16c0,.34.14.66.38.9.24.24.56.38.92.38h1.17c.37,0,.73-.07,1.07-.21.34-.14.64-.34.9-.6l3.59-3.6c.16-.18.29-.38.4-.62.1-.24.15-.5.15-.75s-.05-.51-.16-.78Zm-1.46.9c-.03.06-.06.12-.09.14l-3.57,3.58h0c-.11.11-.24.2-.37.25-.15.06-.31.09-.47.09h-.87v-.84c0-.16.03-.32.09-.46.06-.15.15-.29.26-.39l3.58-3.57s.08-.07.1-.08c.06-.02.12-.04.16-.04.07,0,.13.01.12,0,.05.02.09.05.13.09l.82.82s.08.1.1.14c.02.05.03.1.03.15s0,.1-.02.12Z"/>
  </g>
</svg>