<?xml version="1.0" encoding="UTF-8"?><svg id="uuid-c7031638-b174-4e85-a69b-b1254c323ca1" xmlns="http://www.w3.org/2000/svg" width="24" height="24" viewBox="0 0 24 24"><path id="uuid-1b9cb104-c680-4965-aad6-ead33c1a2a1d" d="m18.42,10.65h-3.14c-1.06,0-1.92-.86-1.92-1.92v-3.14c0-.75-.61-1.35-1.35-1.35s-1.35.61-1.35,1.35v3.14c0,1.06-.86,1.92-1.92,1.92h-3.14c-.75,0-1.35.61-1.35,1.35s.61,1.35,1.35,1.35h3.14c1.06,0,1.92.86,1.92,1.92v3.14c0,.75.61,1.35,1.35,1.35s1.35-.61,1.35-1.35v-3.14c0-1.06.86-1.92,1.92-1.92h3.14c.75,0,1.35-.61,1.35-1.35s-.61-1.35-1.35-1.35Z" fill="#707575" stroke-width="0"/></svg>