<?xml version="1.0" encoding="UTF-8"?><svg id="uuid-ea5fc0cf-d3f8-4a6c-a60b-4c163acf195d" xmlns="http://www.w3.org/2000/svg" width="24" height="24" viewBox="0 0 24 24"><path id="uuid-98efb995-f41b-4315-8739-b069422fe07d" d="m18.42,10.4h-3.14c-.92,0-1.67-.75-1.67-1.67v-3.14c0-.88-.72-1.6-1.6-1.6s-1.6.72-1.6,1.6v3.14c0,.92-.75,1.67-1.67,1.67h-3.14c-.88,0-1.6.72-1.6,1.6s.72,1.6,1.6,1.6h3.14c.92,0,1.67.75,1.67,1.67v3.14c0,.88.72,1.6,1.6,1.6s1.6-.72,1.6-1.6v-3.14c0-.92.75-1.67,1.67-1.67h3.14c.88,0,1.6-.72,1.6-1.6s-.72-1.6-1.6-1.6Z" fill="#707575" stroke-width="0"/></svg>