<?xml version="1.0" encoding="UTF-8"?>
<svg id="Icons-2" xmlns="http://www.w3.org/2000/svg" viewBox="0 0 24 24">
  <defs>
    <style>
      .cls-1 {
        fill: #707575;
        stroke-width: 0px;
      }
    </style>
  </defs>
  <g id="cc-printer">
    <path class="cls-1" d="m17.01,10.7h0c-.44,0-.79.36-.79.8s.36.8.8.8.8-.36.8-.8-.36-.8-.8-.8Z"/>
    <path class="cls-1" d="m20.69,8.31c-.72-.72-1.67-1.11-2.69-1.11h-.2v-1.2c0-1.01-.4-1.97-1.11-2.69-.72-.72-1.67-1.11-2.69-1.11h-4c-1.02,0-1.97.4-2.69,1.11-.72.72-1.11,1.67-1.11,2.69v1.2h-.2c-1.02,0-1.97.4-2.69,1.11-.72.72-1.11,1.67-1.11,2.69v3c0,1.02.4,1.97,1.11,2.69.72.72,1.67,1.11,2.69,1.11h.2v.7c0,.88.34,1.71.97,2.33.62.62,1.45.97,2.33.97h5c.88,0,1.71-.34,2.33-.97.62-.62.97-1.45.97-2.33v-.7h.2c1.01,0,1.97-.4,2.69-1.11s1.11-1.67,1.11-2.69v-3c0-1.01-.4-1.97-1.11-2.69Zm-12.89-2.31c0-.59.23-1.14.65-1.56.42-.42.97-.64,1.56-.64h4c.59,0,1.14.23,1.56.65s.64.98.64,1.56v1.2H7.8v-1.2Zm8.4,12.5c0,.45-.18.88-.5,1.2s-.75.5-1.2.5h-5c-.45,0-.88-.18-1.2-.5-.32-.32-.5-.75-.5-1.2v-1.9c0-.21.09-.42.23-.57.15-.15.35-.23.57-.23h6.8c.21,0,.42.09.57.23.15.15.23.36.23.57v1.9Zm4-4.5c0,.59-.23,1.14-.64,1.56-.42.42-.97.64-1.56.64h-.24c-.08-.49-.31-.95-.66-1.3-.45-.45-1.06-.7-1.7-.7h-6.8c-.63,0-1.25.26-1.7.7-.35.35-.58.81-.66,1.3h-.24c-.58,0-1.15-.24-1.56-.65-.42-.42-.64-.97-.64-1.55v-3c0-.59.23-1.14.65-1.56.42-.42.97-.64,1.56-.64h12c.59,0,1.14.23,1.56.65s.64.98.64,1.56v3Z"/>
  </g>
</svg>