<?xml version="1.0" encoding="UTF-8"?><svg id="uuid-b75c7ac0-0b11-4c48-b4f4-cb059f458fd3" xmlns="http://www.w3.org/2000/svg" width="24" height="24" viewBox="0 0 24 24"><g id="uuid-6a3a3b16-ebbb-4c0b-8516-33731efe7318"><path d="m12,21.75c-5.38,0-9.75-4.37-9.75-9.75,0-2.54.98-4.94,2.7-6.73h-1.45c-.41,0-.75-.34-.75-.75s.34-.75.75-.75h3.49s.05,0,.07,0c.11,0,.2.04.29.08.09.05.18.12.24.2.06.07.1.15.12.24,0,0,0,0,0,0h0c.02.08.03.15.03.23v3.47c0,.41-.34.75-.75.75s-.75-.34-.75-.75v-1.92c-1.59,1.54-2.5,3.66-2.5,5.92,0,4.55,3.7,8.25,8.25,8.25.62,0,1.24-.07,1.83-.2.4-.09.8.16.9.57.09.4-.16.81-.57.9-.71.16-1.44.24-2.17.24Zm4.98-1.5s-.04,0-.06,0c-.11,0-.21-.04-.3-.09-.09-.05-.17-.12-.24-.2-.05-.07-.1-.15-.12-.24h0c-.02-.08-.03-.15-.03-.23v-3.49c0-.41.34-.75.75-.75s.75.34.75.75v1.94c1.6-1.54,2.52-3.67,2.52-5.94,0-4.55-3.7-8.25-8.25-8.25-.62,0-1.24.07-1.83.2-.41.09-.81-.16-.9-.57-.09-.4.16-.81.57-.9.71-.16,1.44-.24,2.17-.24,5.38,0,9.75,4.37,9.75,9.75,0,2.55-.99,4.95-2.71,6.75h1.46c.41,0,.75.34.75.75s-.34.75-.75.75h-3.52Z" fill="#707575" stroke-width="0"/></g></svg>