<?xml version="1.0" encoding="UTF-8"?><svg id="uuid-eba7d40d-5895-461c-ad55-77fa509f2981" xmlns="http://www.w3.org/2000/svg" width="24" height="24" viewBox="0 0 24 24"><g id="uuid-156b7371-b914-4e45-bec1-ea645587d7fa"><path d="m15.24,21.75h-6.48c-2.13,0-3.2,0-4.13-.47-.82-.42-1.48-1.08-1.9-1.9-.47-.93-.47-2-.47-4.13v-6.48c0-2.13,0-3.2.47-4.13.42-.82,1.08-1.48,1.9-1.9.93-.47,2-.47,4.13-.47h5.35c.94,0,1.41,0,1.91.12.44.11.87.28,1.26.52.44.27.79.62,1.43,1.26l1.13,1.13c.64.64,1,1,1.27,1.44.24.39.41.81.52,1.26.12.5.12,1,.12,1.91v5.35c0,2.13,0,3.21-.47,4.13-.42.82-1.08,1.48-1.9,1.9-.93.47-2,.47-4.13.47Zm-6.09-1.5h5.7v-4.47c0-.83,0-1.33-.11-1.56-.1-.2-.26-.36-.46-.46-.23-.12-.73-.12-1.56-.12h-1.44c-.83,0-1.33,0-1.56.12-.2.1-.36.26-.46.46-.11.23-.11.73-.11,1.56v4.47Zm2.13-8.1h1.44c1.09,0,1.69,0,2.24.28.48.24.87.63,1.11,1.12.28.54.28,1.14.28,2.24v4.47c1.18-.01,1.87-.06,2.34-.31.54-.28.97-.71,1.25-1.25.31-.61.31-1.56.31-3.45v-5.35c0-.82,0-1.23-.08-1.56-.07-.29-.18-.57-.34-.82-.18-.29-.47-.58-1.05-1.16l-1.12-1.13c-.58-.58-.87-.87-1.16-1.05-.26-.16-.53-.27-.82-.34-.33-.08-.74-.08-1.56-.08h-5.35c-1.89,0-2.84,0-3.45.31-.54.27-.97.71-1.25,1.25-.31.61-.31,1.56-.31,3.45v6.48c0,1.89,0,2.84.31,3.45.27.54.71.97,1.25,1.25.48.24,1.16.3,2.34.31v-4.47c0-1.09,0-1.69.28-2.24.25-.48.63-.87,1.12-1.11.54-.28,1.15-.28,2.24-.28Zm4.32-3h-7.2c-.41,0-.75-.34-.75-.75s.34-.75.75-.75h7.2c.41,0,.75.34.75.75s-.34.75-.75.75Z" fill="#707575" stroke-width="0"/></g></svg>