<?xml version="1.0" encoding="UTF-8"?>
<svg id="Icons-2" xmlns="http://www.w3.org/2000/svg" viewBox="0 0 24 24">
  <defs>
    <style>
      .cls-1 {
        fill: #707575;
        stroke-width: 0px;
      }
    </style>
  </defs>
  <g id="cc-send">
    <path class="cls-1" d="m6.29,21.55c-.3,0-.6-.03-.9-.1-.83-.19-1.56-.62-2.13-1.25-.57-.63-.92-1.41-1.02-2.26-.1-.85.06-1.69.46-2.43l1.7-3.17c.06-.1.08-.22.08-.34s-.03-.24-.09-.34l-1.7-3.16c-.4-.75-.56-1.59-.46-2.44s.45-1.62,1.02-2.26c.57-.63,1.3-1.07,2.13-1.25.83-.19,1.68-.11,2.46.21l10.8,4.48c.94.39,1.74,1.05,2.3,1.9.56.85.86,1.84.85,2.86,0,1.01-.29,2-.85,2.86-.56.85-1.36,1.51-2.3,1.9l-10.8,4.48c-.5.21-1.03.31-1.56.31Zm0-17.5c-.18,0-.37.02-.55.06-.5.11-.95.38-1.3.76-.35.39-.56.86-.62,1.38s.04,1.03.28,1.49l1.7,3.16c.18.34.28.72.28,1.1s-.09.76-.27,1.1l-1.7,3.17c-.25.46-.34.97-.28,1.49.06.52.28.99.62,1.38.35.38.79.65,1.3.76.5.11,1.02.07,1.49-.13l10.8-4.48c.64-.27,1.19-.72,1.58-1.31.39-.59.59-1.27.59-1.97,0-.71-.2-1.39-.59-1.98-.39-.59-.94-1.04-1.58-1.31L7.23,4.24s0,0,0,0c-.3-.13-.62-.19-.95-.19Z"/>
    <path class="cls-1" d="m13.5,12.8h-4c-.44,0-.8-.36-.8-.8s.36-.8.8-.8h4c.44,0,.8.36.8.8s-.36.8-.8.8Z"/>
  </g>
</svg>