<?xml version="1.0" encoding="UTF-8"?><svg id="uuid-bc2833e7-4401-447e-b7ca-1fc117e6ef10" xmlns="http://www.w3.org/2000/svg" width="24" height="24" viewBox="0 0 24 24"><g id="uuid-a75065f4-8b2d-49b6-8858-86677d9eefc2"><path d="m18.86,7.21h-.04c-.36.02-.64.27-.71.6-.01.06-.01.12-.01.18l-.21,3.18c0,.24.11.45.28.58.13.11.29.17.47.17s.34-.06.47-.17c.16-.13.27-.32.28-.55v-.04l.2-3.06s0-.1,0-.15v-.02c-.02-.41-.35-.72-.74-.72Z" fill="#707575" stroke-width="0"/><path d="m21.74,5.68c-.06-.31-.31-.56-.63-.61-.17-.03-.35-.05-.52-.07-1.31-.19-2.59-.32-3.84-.4-.29-.22-.52-.52-.64-.89l-.03-.08c-.32-.97-1.23-1.63-2.25-1.63h-3.66c-1.02,0-1.93.66-2.25,1.63l-.03.09c-.13.37-.36.68-.66.9-1.69.12-2.97.28-3.7.38-.37.05-.6.08-.65.09-.32.05-.56.3-.62.61,0,.02-.01.05-.01.08,0,.06,0,.12.01.18.06.36.38.62.74.62.04,0,.08,0,.12,0,.01,0,.18-.03.48-.07.54-.07,1.52-.19,2.81-.3,1.53-.13,3.52-.24,5.78-.24,1.91,0,4.03.08,6.22.3.68.07,1.36.14,2.05.24.14.02.29.04.43.06.41.06.79-.22.85-.63.01-.05.01-.11.01-.16-.01-.03-.01-.06-.01-.09Zm-12.53-1.17l.16-.47c.15-.33.31-.61.73-.63h4c.26-.01.48.17.53.55l.16.53c-2.04-.08-3.93-.05-5.58.02Z" fill="#707575" stroke-width="0"/><path d="m9.4,20h-.65c-1.15,0-2.11-.89-2.18-2.04l-.67-9.98v-.06c-.03-.39-.35-.69-.74-.69h-.04c-.4.01-.71.34-.72.75v.08s.67,10,.67,10c.13,1.94,1.74,3.44,3.68,3.44h.65c.13,0,.25-.04.35-.1.22-.13.37-.37.37-.65s-.15-.52-.37-.65c-.1-.06-.22-.1-.35-.1Z" fill="#707575" stroke-width="0"/><line x1="19.6" y1="13.72" x2="12.6" y2="20.72" fill="none" stroke="#707575" stroke-linecap="round" stroke-linejoin="round" stroke-width="1.5"/><line x1="19.6" y1="20.72" x2="12.6" y2="13.72" fill="none" stroke="#707575" stroke-linecap="round" stroke-linejoin="round" stroke-width="1.5"/></g></svg>