<?xml version="1.0" encoding="UTF-8"?><svg id="Icons-2" xmlns="http://www.w3.org/2000/svg" viewBox="0 0 24 24"><g id="cc-translate"><path d="m21,21.75c-.28,0-.55-.16-.68-.43l-1.15-2.46c-.03-.07-.1-.11-.17-.11h-6.5c-.07,0-.14.04-.17.11l-1.15,2.46c-.18.38-.62.54-1,.36-.38-.17-.54-.62-.36-1l5.25-11.25c.27-.58,1.09-.58,1.36,0l5.25,11.25c.17.38.01.82-.36,1-.1.05-.21.07-.32.07Zm-7.78-4.5h5.06c.07,0,.11-.07.08-.13l-2.53-5.42c-.03-.07-.13-.07-.16,0l-2.53,5.42c-.03.06.02.13.08.13Zm-10.22,1c-.27,0-.53-.15-.67-.41-.19-.37-.05-.82.32-1.01,2.02-1.04,3.78-2.44,5.21-4.12.11-.13.12-.33.02-.47-.8-1.13-1.46-2.36-1.99-3.65-.16-.38.03-.82.41-.98.38-.16.82.03.98.41.44,1.07.97,2.07,1.6,3.02.06.09.19.09.25,0,.97-1.46,1.72-3.08,2.21-4.8.03-.1-.05-.2-.15-.21-.73-.03-1.46-.05-2.19-.05h-3.67c-.74,0-1.45.21-2.18.35-.44.09-.85-.21-.9-.64-.05-.41.24-.79.65-.84,1.69-.21,3.41-.33,5.12-.37.13,0,.23-.1.23-.23v-1.28c0-.41.34-.75.75-.75s.75.34.75.75v1.23c0,.15.12.27.27.28.79.02,1.57.05,2.35.1,0,0,.02,0,.02,0,.89.06,1.8.15,2.7.26.41.05.7.43.65.84-.05.41-.44.7-.84.65-.6-.07-1.2-.14-1.8-.19-.11,0-.21.06-.24.17-.57,2.13-1.49,4.11-2.72,5.88-.11.16-.11.38.02.53.25.29.51.57.78.84.29.3.29.77,0,1.06-.29.29-.77.29-1.06,0-.3-.31-.59-.62-.87-.95-1.56,1.82-3.47,3.34-5.66,4.47-.11.06-.23.08-.34.08Z" style="fill:#707575; stroke-width:0px;"/></g></svg>