<?xml version="1.0" encoding="UTF-8"?><svg id="uuid-7d695bf4-7110-4f57-b59e-8f448f4ab622" xmlns="http://www.w3.org/2000/svg" width="24" height="24" viewBox="0 0 24 24"><g id="uuid-22261ea6-a45c-4465-8e5b-9421d01b6511"><path d="m13.22,20.8h-2.44c-2.9,0-4.36,0-5.6-.88-1.25-.88-1.73-2.25-2.7-4.99l-.23-.66c-.15-.42.07-.87.49-1.02.42-.14.87.07,1.02.49l.23.66c.85,2.42,1.28,3.63,2.11,4.22.83.59,2.12.59,4.68.59h2.44c2.56,0,3.85,0,4.68-.59.83-.59,1.26-1.8,2.11-4.22l.23-.66c.15-.42.6-.63,1.02-.49.42.15.64.6.49,1.02l-.23.66c-.97,2.74-1.45,4.11-2.7,4.99-1.25.88-2.7.88-5.6.88Z" fill="#707575" stroke-width="0"/><path d="m12,3.12c-.84,0-1.6.89-2.58,2.14-.2.26-.37.48-.49.6-.31.32-.3.82.02,1.13.32.31.82.3,1.13-.02.15-.15.36-.42.6-.73.13-.16.32-.41.53-.65v8.32c0,.44.36.8.8.8s.8-.36.8-.8V5.6c.21.25.4.49.53.66.24.31.46.58.6.72.31.32.82.32,1.13.02.32-.31.32-.81.02-1.13-.12-.12-.29-.34-.49-.6-.99-1.26-1.75-2.14-2.58-2.14Z" fill="#707575" stroke-width="0"/></g></svg>