<?xml version="1.0" encoding="UTF-8"?><svg id="uuid-5cf234e9-7a6f-432c-b947-c776b9a1ff85" xmlns="http://www.w3.org/2000/svg" width="24" height="24" viewBox="0 0 24 24"><path id="uuid-9711230e-6173-4d6f-b136-b438a10e920a" d="m12,2.62c-.4,0-.77.33-.77.76,0,.42.33.77.77.78,4.84,0,8.67,4.41,7.69,9.42-.6,3.05-3.06,5.51-6.11,6.11-5.01.98-9.42-2.85-9.42-7.69,0-2.14.86-4.15,2.38-5.62v1.71c0,.42.33.77.76.78.42,0,.77-.33.78-.77v-3.79c0-.27-.22-.5-.5-.5h-3.79c-.41,0-.77.33-.78.76s.33.77.77.78h1.63c-2.23,2.19-3.24,5.36-2.6,8.58.75,3.74,3.81,6.69,7.57,7.33,5.88.99,10.99-3.54,10.99-9.24,0-5.17-4.21-9.37-9.37-9.38Z" fill="#707575" stroke-width="0"/></svg>