<?xml version="1.0" encoding="UTF-8"?>
<svg id="Icons-2" xmlns="http://www.w3.org/2000/svg" viewBox="0 0 24 24">
  <defs>
    <style>
      .cls-1 {
        fill: #707575;
        stroke-width: 0px;
      }
    </style>
  </defs>
  <g id="cc-wallet">
    <path class="cls-1" d="m17,2.2H7c-3.2,0-5.8,2.6-5.8,5.8v8c0,3.2,2.6,5.8,5.8,5.8h10c3.2,0,5.8-2.6,5.8-5.8v-8c0-3.2-2.6-5.8-5.8-5.8Zm0,18H7c-2.32,0-4.2-1.88-4.2-4.2v-8c0-2.32,1.88-4.2,4.2-4.2h10c2.32,0,4.2,1.88,4.2,4.2v.2h-4.2c-1.01,0-1.97.4-2.69,1.11-.72.72-1.11,1.67-1.11,2.69s.4,1.97,1.11,2.69c.72.72,1.67,1.11,2.69,1.11h4.2v.2c0,2.32-1.88,4.2-4.2,4.2Zm4.2-6h-4.2c-.59,0-1.14-.23-1.56-.64-.42-.42-.64-.97-.64-1.56s.23-1.14.64-1.56.97-.65,1.56-.65h4.2v4.4Z"/>
    <path class="cls-1" d="m16.21,12c0,.44.36.8.8.8s.8-.36.8-.8-.36-.8-.8-.8h0c-.44,0-.79.36-.79.8Z"/>
  </g>
</svg>